<svg xmlns="http://www.w3.org/2000/svg" xmlns:rdkit="http://www.rdkit.org/xml" xmlns:xlink="http://www.w3.org/1999/xlink" version="1.1" baseProfile="full" xml:space="preserve" width="600px" height="400px" viewBox="0 0 600 400">
<!-- END OF HEADER -->
<rect width="100%" height="100%" fill="#E5ECF6"/>
<rect style="opacity:1.0;fill:#E5ECF6;stroke:none" width="200.0" height="200.0" x="0.0" y="0.0"> </rect>
<ellipse cx="51.7" cy="144.4" rx="7.9" ry="7.9" class="atom-1" style="fill:#E5E533;fill-rule:evenodd;stroke:#E5E533;stroke-width:1.0px;stroke-linecap:butt;stroke-linejoin:miter;stroke-opacity:1"/>
<ellipse cx="91.1" cy="141.7" rx="7.9" ry="7.9" class="atom-2" style="fill:#E5E533;fill-rule:evenodd;stroke:#E5E533;stroke-width:1.0px;stroke-linecap:butt;stroke-linejoin:miter;stroke-opacity:1"/>
<ellipse cx="108.4" cy="106.3" rx="7.9" ry="7.9" class="atom-3" style="fill:#9999E5;fill-rule:evenodd;stroke:#9999E5;stroke-width:1.0px;stroke-linecap:butt;stroke-linejoin:miter;stroke-opacity:1"/>
<ellipse cx="147.7" cy="103.5" rx="7.9" ry="7.9" class="atom-4" style="fill:#E5E533;fill-rule:evenodd;stroke:#E5E533;stroke-width:1.0px;stroke-linecap:butt;stroke-linejoin:miter;stroke-opacity:1"/>
<ellipse cx="165.1" cy="68.1" rx="7.9" ry="7.9" class="atom-5" style="fill:#E5E533;fill-rule:evenodd;stroke:#E5E533;stroke-width:1.0px;stroke-linecap:butt;stroke-linejoin:miter;stroke-opacity:1"/>
<ellipse cx="103.7" cy="38.1" rx="7.9" ry="7.9" class="atom-7" style="fill:#E5E533;fill-rule:evenodd;stroke:#E5E533;stroke-width:1.0px;stroke-linecap:butt;stroke-linejoin:miter;stroke-opacity:1"/>
<ellipse cx="86.4" cy="73.5" rx="7.9" ry="7.9" class="atom-8" style="fill:#E5E533;fill-rule:evenodd;stroke:#E5E533;stroke-width:1.0px;stroke-linecap:butt;stroke-linejoin:miter;stroke-opacity:1"/>
<ellipse cx="47.0" cy="76.2" rx="7.9" ry="7.9" class="atom-9" style="fill:#E5E533;fill-rule:evenodd;stroke:#E5E533;stroke-width:1.0px;stroke-linecap:butt;stroke-linejoin:miter;stroke-opacity:1"/>
<path class="bond-0 atom-0 atom-1" d="M 30.2,112.4 L 51.7,144.4" style="fill:none;fill-rule:evenodd;stroke:#E5E5E5;stroke-width:2.1px;stroke-linecap:butt;stroke-linejoin:miter;stroke-opacity:1"/>
<path class="bond-0 atom-0 atom-1" d="M 35.1,109.1 L 54.7,138.3" style="fill:none;fill-rule:evenodd;stroke:#E5E5E5;stroke-width:2.1px;stroke-linecap:butt;stroke-linejoin:miter;stroke-opacity:1"/>
<path class="bond-1 atom-1 atom-2" d="M 51.7,144.4 L 91.1,141.7" style="fill:none;fill-rule:evenodd;stroke:#000000;stroke-width:2.0px;stroke-linecap:butt;stroke-linejoin:miter;stroke-opacity:1"/>
<path class="bond-2 atom-2 atom-3" d="M 91.1,141.7 L 108.4,106.3" style="fill:none;fill-rule:evenodd;stroke:#000000;stroke-width:2.0px;stroke-linecap:butt;stroke-linejoin:miter;stroke-opacity:1"/>
<path class="bond-2 atom-2 atom-3" d="M 87.3,136.0 L 101.6,106.7" style="fill:none;fill-rule:evenodd;stroke:#000000;stroke-width:2.0px;stroke-linecap:butt;stroke-linejoin:miter;stroke-opacity:1"/>
<path class="bond-3 atom-3 atom-4" d="M 108.4,106.3 L 147.7,103.5" style="fill:none;fill-rule:evenodd;stroke:#000000;stroke-width:2.0px;stroke-linecap:butt;stroke-linejoin:miter;stroke-opacity:1"/>
<path class="bond-4 atom-4 atom-5" d="M 147.7,103.5 L 165.1,68.1" style="fill:none;fill-rule:evenodd;stroke:#000000;stroke-width:2.0px;stroke-linecap:butt;stroke-linejoin:miter;stroke-opacity:1"/>
<path class="bond-4 atom-4 atom-5" d="M 143.9,97.9 L 158.2,68.6" style="fill:none;fill-rule:evenodd;stroke:#000000;stroke-width:2.0px;stroke-linecap:butt;stroke-linejoin:miter;stroke-opacity:1"/>
<path class="bond-5 atom-5 atom-6" d="M 165.1,68.1 L 143.5,36.1" style="fill:none;fill-rule:evenodd;stroke:#E5E5E5;stroke-width:2.1px;stroke-linecap:butt;stroke-linejoin:miter;stroke-opacity:1"/>
<path class="bond-6 atom-6 atom-7" d="M 139.1,35.7 L 103.7,38.1" style="fill:none;fill-rule:evenodd;stroke:#E5E5E5;stroke-width:2.1px;stroke-linecap:butt;stroke-linejoin:miter;stroke-opacity:1"/>
<path class="bond-6 atom-6 atom-7" d="M 139.5,41.6 L 107.5,43.8" style="fill:none;fill-rule:evenodd;stroke:#E5E5E5;stroke-width:2.1px;stroke-linecap:butt;stroke-linejoin:miter;stroke-opacity:1"/>
<path class="bond-7 atom-7 atom-8" d="M 103.7,38.1 L 86.4,73.5" style="fill:none;fill-rule:evenodd;stroke:#000000;stroke-width:2.0px;stroke-linecap:butt;stroke-linejoin:miter;stroke-opacity:1"/>
<path class="bond-8 atom-8 atom-9" d="M 86.4,73.5 L 47.0,76.2" style="fill:none;fill-rule:evenodd;stroke:#000000;stroke-width:2.0px;stroke-linecap:butt;stroke-linejoin:miter;stroke-opacity:1"/>
<path class="bond-8 atom-8 atom-9" d="M 83.4,79.7 L 50.8,81.9" style="fill:none;fill-rule:evenodd;stroke:#000000;stroke-width:2.0px;stroke-linecap:butt;stroke-linejoin:miter;stroke-opacity:1"/>
<path class="bond-9 atom-9 atom-0" d="M 47.0,76.2 L 33.1,104.7" style="fill:none;fill-rule:evenodd;stroke:#E5E5E5;stroke-width:2.1px;stroke-linecap:butt;stroke-linejoin:miter;stroke-opacity:1"/>
<path class="bond-10 atom-8 atom-3" d="M 86.4,73.5 L 108.4,106.3" style="fill:none;fill-rule:evenodd;stroke:#000000;stroke-width:2.0px;stroke-linecap:butt;stroke-linejoin:miter;stroke-opacity:1"/>
<path d="M 51.2,143.6 L 51.7,144.4 L 52.7,144.3" style="fill:none;stroke:#E5E5E5;stroke-width:2.1px;stroke-linecap:butt;stroke-linejoin:miter;stroke-miterlimit:10;stroke-opacity:1;"/>
<path d="M 89.1,141.8 L 91.1,141.7 L 91.9,139.9" style="fill:none;stroke:#000000;stroke-width:2.0px;stroke-linecap:butt;stroke-linejoin:miter;stroke-miterlimit:10;stroke-opacity:1;"/>
<path d="M 145.8,103.7 L 147.7,103.5 L 148.6,101.8" style="fill:none;stroke:#000000;stroke-width:2.0px;stroke-linecap:butt;stroke-linejoin:miter;stroke-miterlimit:10;stroke-opacity:1;"/>
<path d="M 164.6,69.0 L 165.1,68.1 L 164.5,67.3" style="fill:none;stroke:#000000;stroke-width:2.0px;stroke-linecap:butt;stroke-linejoin:miter;stroke-miterlimit:10;stroke-opacity:1;"/>
<path d="M 104.6,38.0 L 103.7,38.1 L 103.3,39.0" style="fill:none;stroke:#E5E5E5;stroke-width:2.1px;stroke-linecap:butt;stroke-linejoin:miter;stroke-miterlimit:10;stroke-opacity:1;"/>
<path d="M 48.0,76.2 L 47.0,76.2 L 46.7,77.0" style="fill:none;stroke:#000000;stroke-width:2.0px;stroke-linecap:butt;stroke-linejoin:miter;stroke-miterlimit:10;stroke-opacity:1;"/>
<path class="atom-0" d="M 27.6 110.4 L 29.2 108.8 L 27.1 108.3 L 27.4 107.2 L 29.4 108.2 L 29.1 106.0 L 30.3 106.0 L 30.0 108.2 L 32.0 107.2 L 32.3 108.3 L 30.1 108.7 L 31.7 110.4 L 30.7 111.1 L 29.7 109.0 L 28.5 111.1 L 27.6 110.4 " fill="#191919"/>
<path class="atom-6" d="M 140.9 34.1 L 142.6 32.5 L 140.4 32.0 L 140.7 30.9 L 142.7 31.9 L 142.4 29.7 L 143.6 29.7 L 143.3 31.9 L 145.3 31.0 L 145.7 32.0 L 143.5 32.4 L 145.0 34.1 L 144.1 34.8 L 143.0 32.7 L 141.9 34.8 L 140.9 34.1 " fill="#191919"/>
<path class="legend" d="M 10.0 176.3 L 16.4 176.3 L 16.4 177.5 L 11.4 177.5 L 11.4 180.8 L 15.9 180.8 L 15.9 182.0 L 11.4 182.0 L 11.4 187.1 L 10.0 187.1 L 10.0 176.3 " fill="#000000"/>
<path class="legend" d="M 17.3 183.1 Q 17.3 181.2, 18.2 180.2 Q 19.2 179.1, 20.9 179.1 Q 22.7 179.1, 23.4 180.1 Q 24.2 181.2, 24.2 183.1 L 24.2 183.3 L 18.7 183.3 Q 18.8 184.7, 19.4 185.4 Q 19.9 186.1, 21.1 186.1 Q 21.7 186.1, 22.2 185.9 Q 22.8 185.8, 23.5 185.5 L 23.9 186.4 Q 23.1 186.8, 22.4 187.0 Q 21.7 187.2, 21.0 187.2 Q 19.2 187.2, 18.2 186.1 Q 17.3 185.1, 17.3 183.1 M 20.9 180.2 Q 20.0 180.2, 19.5 180.7 Q 19.0 181.3, 18.8 182.3 L 22.7 182.3 Q 22.6 181.2, 22.2 180.7 Q 21.7 180.2, 20.9 180.2 " fill="#000000"/>
<path class="legend" d="M 25.3 184.9 Q 25.3 183.7, 26.3 183.0 Q 27.3 182.3, 29.1 182.3 L 30.3 182.3 L 30.3 182.0 Q 30.3 181.1, 29.9 180.6 Q 29.5 180.2, 28.5 180.2 Q 27.9 180.2, 27.4 180.4 Q 26.9 180.5, 26.2 180.8 L 25.7 179.8 Q 27.2 179.1, 28.5 179.1 Q 30.2 179.1, 31.0 179.8 Q 31.7 180.5, 31.7 182.1 L 31.7 187.1 L 30.6 187.1 Q 30.6 187.0, 30.6 186.8 Q 30.5 186.5, 30.4 186.2 Q 29.3 187.2, 27.9 187.2 Q 26.7 187.2, 26.0 186.6 Q 25.3 186.0, 25.3 184.9 M 26.7 184.9 Q 26.7 185.5, 27.1 185.8 Q 27.5 186.1, 28.1 186.1 Q 28.7 186.1, 29.3 185.8 Q 29.9 185.6, 30.3 185.1 L 30.3 183.4 L 29.2 183.4 Q 28.0 183.4, 27.3 183.8 Q 26.7 184.2, 26.7 184.9 " fill="#000000"/>
<path class="legend" d="M 33.4 180.3 L 33.4 179.2 L 34.9 179.2 L 35.2 177.0 L 36.2 177.0 L 36.2 179.2 L 38.6 179.2 L 38.6 180.3 L 36.2 180.3 L 36.2 184.7 Q 36.2 186.0, 37.4 186.0 Q 37.8 186.0, 38.5 185.8 L 38.7 186.8 Q 37.9 187.2, 37.1 187.2 Q 36.1 187.2, 35.4 186.5 Q 34.8 185.9, 34.8 184.7 L 34.8 180.3 L 33.4 180.3 " fill="#000000"/>
<path class="legend" d="M 46.3 179.2 L 46.3 187.1 L 45.1 187.1 L 45.0 186.0 Q 43.9 187.2, 42.3 187.2 Q 41.0 187.2, 40.3 186.5 Q 39.6 185.8, 39.6 184.4 L 39.6 179.2 L 41.1 179.2 L 41.1 184.3 Q 41.1 185.2, 41.4 185.7 Q 41.8 186.1, 42.6 186.1 Q 43.3 186.1, 43.9 185.8 Q 44.5 185.4, 44.9 184.8 L 44.9 179.2 L 46.3 179.2 " fill="#000000"/>
<path class="legend" d="M 49.2 179.2 L 49.4 180.3 Q 50.2 179.1, 51.6 179.1 Q 52.0 179.1, 52.6 179.3 L 52.3 180.5 Q 51.7 180.4, 51.3 180.4 Q 50.7 180.4, 50.2 180.6 Q 49.8 180.9, 49.5 181.5 L 49.5 187.1 L 48.1 187.1 L 48.1 179.2 L 49.2 179.2 " fill="#000000"/>
<path class="legend" d="M 53.3 183.1 Q 53.3 181.2, 54.3 180.2 Q 55.2 179.1, 57.0 179.1 Q 58.7 179.1, 59.5 180.1 Q 60.2 181.2, 60.2 183.1 L 60.2 183.3 L 54.8 183.3 Q 54.8 184.7, 55.4 185.4 Q 56.0 186.1, 57.1 186.1 Q 57.7 186.1, 58.3 185.9 Q 58.8 185.8, 59.5 185.5 L 59.9 186.4 Q 59.2 186.8, 58.5 187.0 Q 57.8 187.2, 57.0 187.2 Q 55.3 187.2, 54.3 186.1 Q 53.3 185.1, 53.3 183.1 M 57.0 180.2 Q 56.1 180.2, 55.5 180.7 Q 55.0 181.3, 54.8 182.3 L 58.7 182.3 Q 58.6 181.2, 58.2 180.7 Q 57.8 180.2, 57.0 180.2 " fill="#000000"/>
<path class="legend" d="" fill="#000000"/>
<path class="legend" d="M 70.8 180.3 Q 71.8 180.3, 72.6 180.7 Q 73.3 181.1, 73.8 181.9 Q 74.2 182.6, 74.2 183.7 Q 74.2 184.8, 73.7 185.6 Q 73.1 186.4, 72.3 186.8 Q 71.4 187.2, 70.4 187.2 Q 69.4 187.2, 68.5 186.8 Q 67.6 186.5, 66.9 185.8 L 67.8 184.8 Q 68.4 185.4, 69.0 185.7 Q 69.7 186.0, 70.4 186.0 Q 71.4 186.0, 72.0 185.4 Q 72.7 184.8, 72.7 183.7 Q 72.7 182.5, 72.0 182.0 Q 71.4 181.5, 70.3 181.5 Q 69.4 181.5, 68.3 181.9 L 67.5 181.5 L 68.0 176.3 L 73.6 176.3 L 73.4 177.5 L 69.3 177.5 L 68.9 180.7 Q 69.9 180.3, 70.8 180.3 " fill="#000000"/>
<path class="legend" d="M 79.1 176.2 Q 81.0 176.2, 82.0 177.5 Q 83.0 178.8, 83.0 181.4 Q 83.0 184.2, 81.7 185.7 Q 80.6 187.2, 78.3 187.2 Q 77.6 187.2, 77.0 187.0 Q 76.5 186.9, 75.9 186.6 L 76.5 185.5 Q 77.3 186.0, 78.2 186.0 Q 79.8 186.0, 80.5 185.0 Q 81.3 184.0, 81.4 182.0 Q 80.9 182.5, 80.2 182.8 Q 79.5 183.0, 78.7 183.0 Q 77.8 183.0, 77.0 182.6 Q 76.3 182.2, 75.9 181.4 Q 75.5 180.7, 75.5 179.8 Q 75.5 178.7, 75.9 177.9 Q 76.4 177.1, 77.2 176.6 Q 78.1 176.2, 79.1 176.2 M 77.0 179.7 Q 77.0 180.7, 77.5 181.3 Q 78.1 181.8, 79.0 181.8 Q 79.7 181.8, 80.3 181.5 Q 81.0 181.3, 81.4 180.8 Q 81.4 179.0, 80.8 178.2 Q 80.2 177.4, 79.1 177.4 Q 78.5 177.4, 78.0 177.7 Q 77.5 178.0, 77.3 178.6 Q 77.0 179.1, 77.0 179.7 " fill="#000000"/>
<path class="legend" d="M 90.0 181.4 Q 91.0 181.8, 91.6 182.4 Q 92.1 183.0, 92.1 184.1 Q 92.1 185.0, 91.6 185.7 Q 91.2 186.4, 90.3 186.8 Q 89.5 187.2, 88.4 187.2 Q 86.6 187.2, 85.5 186.4 Q 84.5 185.6, 84.5 184.1 Q 84.5 183.2, 85.0 182.6 Q 85.4 181.9, 86.4 181.4 Q 85.7 181.0, 85.3 180.4 Q 84.9 179.8, 84.9 178.9 Q 84.9 177.7, 85.8 176.9 Q 86.7 176.2, 88.3 176.2 Q 89.9 176.2, 90.8 176.9 Q 91.7 177.7, 91.7 178.9 Q 91.7 179.7, 91.3 180.3 Q 90.9 180.9, 90.0 181.4 M 88.3 177.3 Q 87.4 177.3, 86.9 177.7 Q 86.4 178.2, 86.4 178.9 Q 86.4 179.5, 86.8 179.9 Q 87.1 180.2, 87.6 180.4 Q 88.1 180.7, 89.0 181.0 Q 89.6 180.5, 89.9 180.0 Q 90.2 179.5, 90.2 178.9 Q 90.2 178.2, 89.7 177.7 Q 89.2 177.3, 88.3 177.3 M 88.4 186.1 Q 89.4 186.1, 90.0 185.5 Q 90.6 185.0, 90.6 184.1 Q 90.6 183.5, 90.3 183.2 Q 90.0 182.8, 89.5 182.6 Q 89.0 182.4, 88.1 182.1 L 87.5 181.9 Q 86.7 182.3, 86.4 182.9 Q 86.0 183.4, 86.0 184.1 Q 86.0 185.0, 86.7 185.5 Q 87.3 186.1, 88.4 186.1 " fill="#000000"/>
<path class="legend" d="" fill="#000000"/>
<path class="legend" d="M 99.2 175.3 L 100.5 175.3 L 100.5 190.0 L 99.2 190.0 L 99.2 175.3 " fill="#000000"/>
<path class="legend" d="" fill="#000000"/>
<path class="legend" d="M 108.3 185.4 Q 108.4 185.4, 108.9 185.6 Q 109.4 185.9, 110.0 186.0 Q 110.5 186.1, 111.1 186.1 Q 112.1 186.1, 112.7 185.6 Q 113.3 185.1, 113.3 184.3 Q 113.3 183.7, 113.0 183.3 Q 112.7 182.9, 112.2 182.7 Q 111.8 182.5, 111.0 182.3 Q 110.1 182.0, 109.5 181.8 Q 108.9 181.5, 108.5 180.9 Q 108.1 180.3, 108.1 179.3 Q 108.1 178.0, 109.0 177.2 Q 110.0 176.3, 111.8 176.3 Q 113.0 176.3, 114.5 176.9 L 114.1 178.1 Q 112.8 177.6, 111.8 177.6 Q 110.8 177.6, 110.2 178.0 Q 109.6 178.4, 109.6 179.2 Q 109.6 179.7, 109.9 180.1 Q 110.2 180.4, 110.7 180.6 Q 111.1 180.8, 111.8 181.1 Q 112.8 181.4, 113.4 181.7 Q 114.0 182.0, 114.4 182.6 Q 114.8 183.2, 114.8 184.3 Q 114.8 185.8, 113.8 186.6 Q 112.8 187.4, 111.2 187.4 Q 110.2 187.4, 109.5 187.1 Q 108.7 186.9, 107.9 186.6 L 108.3 185.4 " fill="#000000"/>
<path class="legend" d="M 116.0 176.3 L 117.5 176.3 L 117.5 180.9 L 123.0 180.9 L 123.0 176.3 L 124.5 176.3 L 124.5 187.1 L 123.0 187.1 L 123.0 182.1 L 117.5 182.1 L 117.5 187.1 L 116.0 187.1 L 116.0 176.3 " fill="#000000"/>
<path class="legend" d="M 134.2 187.1 L 133.1 183.9 L 128.8 183.9 L 127.8 187.1 L 126.3 187.1 L 130.0 176.3 L 131.8 176.3 L 135.7 187.1 L 134.2 187.1 M 129.3 182.7 L 132.7 182.7 L 130.9 177.8 L 129.3 182.7 " fill="#000000"/>
<path class="legend" d="M 139.5 176.3 Q 141.4 176.3, 142.3 177.1 Q 143.2 177.9, 143.2 179.5 Q 143.2 180.9, 142.3 181.8 Q 141.3 182.6, 139.5 182.6 L 137.8 182.6 L 137.8 187.1 L 136.4 187.1 L 136.4 176.3 L 139.5 176.3 M 139.5 181.4 Q 140.6 181.4, 141.2 180.9 Q 141.7 180.4, 141.7 179.5 Q 141.7 178.5, 141.2 178.0 Q 140.6 177.5, 139.5 177.5 L 137.8 177.5 L 137.8 181.4 L 139.5 181.4 " fill="#000000"/>
<path class="legend" d="M 144.5 185.3 L 146.0 185.3 L 146.0 186.8 L 144.5 186.8 L 144.5 185.3 M 144.5 180.0 L 146.0 180.0 L 146.0 181.6 L 144.5 181.6 L 144.5 180.0 " fill="#000000"/>
<path class="legend" d="" fill="#000000"/>
<path class="legend" d="M 160.3 183.4 L 161.6 183.4 L 161.6 184.6 L 160.3 184.6 L 160.3 187.1 L 158.8 187.1 L 158.8 184.6 L 153.3 184.6 L 153.3 183.6 L 158.0 176.3 L 160.3 176.3 L 160.3 183.4 M 155.0 183.4 L 158.8 183.4 L 158.8 177.3 L 155.0 183.4 " fill="#000000"/>
<path class="legend" d="M 166.7 180.3 Q 167.7 180.3, 168.5 180.7 Q 169.2 181.1, 169.7 181.9 Q 170.1 182.6, 170.1 183.7 Q 170.1 184.8, 169.6 185.6 Q 169.0 186.4, 168.2 186.8 Q 167.3 187.2, 166.3 187.2 Q 165.3 187.2, 164.4 186.8 Q 163.5 186.5, 162.8 185.8 L 163.7 184.8 Q 164.2 185.4, 164.9 185.7 Q 165.6 186.0, 166.3 186.0 Q 167.3 186.0, 167.9 185.4 Q 168.6 184.8, 168.6 183.7 Q 168.6 182.5, 167.9 182.0 Q 167.3 181.5, 166.2 181.5 Q 165.3 181.5, 164.2 181.9 L 163.4 181.5 L 163.9 176.3 L 169.4 176.3 L 169.3 177.5 L 165.2 177.5 L 164.8 180.7 Q 165.8 180.3, 166.7 180.3 " fill="#000000"/>
<path class="legend" d="M 171.4 185.5 L 172.9 185.5 L 172.9 187.1 L 171.4 187.1 L 171.4 185.5 " fill="#000000"/>
<path class="legend" d="M 180.1 177.5 L 174.4 177.5 L 174.4 176.3 L 181.6 176.3 L 181.6 177.4 L 177.2 187.1 L 175.7 187.1 L 180.1 177.5 " fill="#000000"/>
<path class="legend" d="M 186.7 180.3 Q 187.7 180.3, 188.4 180.7 Q 189.2 181.2, 189.6 181.9 Q 190.0 182.7, 190.0 183.6 Q 190.0 184.6, 189.5 185.5 Q 189.1 186.3, 188.3 186.7 Q 187.4 187.2, 186.4 187.2 Q 184.5 187.2, 183.5 185.9 Q 182.5 184.6, 182.5 182.0 Q 182.5 179.1, 183.7 177.7 Q 184.9 176.2, 187.2 176.2 Q 187.9 176.2, 188.4 176.3 Q 189.0 176.5, 189.6 176.8 L 189.0 177.8 Q 188.2 177.4, 187.2 177.4 Q 185.7 177.4, 184.9 178.4 Q 184.2 179.3, 184.1 181.4 Q 184.6 180.9, 185.3 180.6 Q 186.0 180.3, 186.7 180.3 M 186.4 185.9 Q 187.0 185.9, 187.4 185.6 Q 187.9 185.3, 188.2 184.8 Q 188.5 184.3, 188.5 183.6 Q 188.5 182.7, 187.9 182.1 Q 187.4 181.6, 186.5 181.6 Q 185.8 181.6, 185.2 181.8 Q 184.5 182.1, 184.1 182.5 Q 184.1 184.3, 184.7 185.1 Q 185.3 185.9, 186.4 185.9 " fill="#000000"/>
<ellipse cx="280.8" cy="75.9" rx="7.9" ry="7.9" class="atom-1" style="fill:#CCCCCC;fill-rule:evenodd;stroke:#CCCCCC;stroke-width:1.0px;stroke-linecap:butt;stroke-linejoin:miter;stroke-opacity:1"/>
<ellipse cx="283.5" cy="115.2" rx="7.9" ry="7.9" class="atom-2" style="fill:#9999E5;fill-rule:evenodd;stroke:#9999E5;stroke-width:1.0px;stroke-linecap:butt;stroke-linejoin:miter;stroke-opacity:1"/>
<ellipse cx="321.8" cy="124.8" rx="7.9" ry="7.9" class="atom-3" style="fill:#CCCCCC;fill-rule:evenodd;stroke:#CCCCCC;stroke-width:1.0px;stroke-linecap:butt;stroke-linejoin:miter;stroke-opacity:1"/>
<path class="bond-0 atom-0 atom-1" d="M 250.1,53.2 L 284.2,74.5" style="fill:none;fill-rule:evenodd;stroke:#E5E5E5;stroke-width:2.1px;stroke-linecap:butt;stroke-linejoin:miter;stroke-opacity:1"/>
<path class="bond-0 atom-0 atom-1" d="M 247.0,58.2 L 281.1,79.5" style="fill:none;fill-rule:evenodd;stroke:#E5E5E5;stroke-width:2.1px;stroke-linecap:butt;stroke-linejoin:miter;stroke-opacity:1"/>
<path class="bond-1 atom-1 atom-2" d="M 280.8,75.9 L 283.5,115.2" style="fill:none;fill-rule:evenodd;stroke:#000000;stroke-width:2.0px;stroke-linecap:butt;stroke-linejoin:miter;stroke-opacity:1"/>
<path class="bond-2 atom-2 atom-3" d="M 283.5,115.2 L 321.8,124.8" style="fill:none;fill-rule:evenodd;stroke:#000000;stroke-width:2.0px;stroke-linecap:butt;stroke-linejoin:miter;stroke-opacity:1"/>
<path class="bond-2 atom-2 atom-3" d="M 289.1,110.6 L 319.0,118.0" style="fill:none;fill-rule:evenodd;stroke:#000000;stroke-width:2.0px;stroke-linecap:butt;stroke-linejoin:miter;stroke-opacity:1"/>
<path class="bond-3 atom-4 atom-3" d="M 339.4,96.1 L 339.9,96.4" style="fill:none;fill-rule:evenodd;stroke:#E5E5E5;stroke-width:1.0px;stroke-linecap:butt;stroke-linejoin:miter;stroke-opacity:1"/>
<path class="bond-3 atom-4 atom-3" d="M 337.4,98.8 L 338.4,99.5" style="fill:none;fill-rule:evenodd;stroke:#E5E5E5;stroke-width:1.0px;stroke-linecap:butt;stroke-linejoin:miter;stroke-opacity:1"/>
<path class="bond-3 atom-4 atom-3" d="M 335.3,101.5 L 336.8,102.5" style="fill:none;fill-rule:evenodd;stroke:#E5E5E5;stroke-width:1.0px;stroke-linecap:butt;stroke-linejoin:miter;stroke-opacity:1"/>
<path class="bond-3 atom-4 atom-3" d="M 333.3,104.2 L 335.3,105.5" style="fill:none;fill-rule:evenodd;stroke:#E5E5E5;stroke-width:1.0px;stroke-linecap:butt;stroke-linejoin:miter;stroke-opacity:1"/>
<path class="bond-3 atom-4 atom-3" d="M 331.3,106.9 L 333.8,108.5" style="fill:none;fill-rule:evenodd;stroke:#E5E5E5;stroke-width:1.0px;stroke-linecap:butt;stroke-linejoin:miter;stroke-opacity:1"/>
<path class="bond-3 atom-4 atom-3" d="M 329.2,109.6 L 332.2,111.5" style="fill:none;fill-rule:evenodd;stroke:#E5E5E5;stroke-width:1.0px;stroke-linecap:butt;stroke-linejoin:miter;stroke-opacity:1"/>
<path class="bond-3 atom-4 atom-3" d="M 327.2,112.3 L 330.7,114.5" style="fill:none;fill-rule:evenodd;stroke:#E5E5E5;stroke-width:1.0px;stroke-linecap:butt;stroke-linejoin:miter;stroke-opacity:1"/>
<path class="bond-3 atom-4 atom-3" d="M 325.1,115.0 L 329.2,117.5" style="fill:none;fill-rule:evenodd;stroke:#E5E5E5;stroke-width:1.0px;stroke-linecap:butt;stroke-linejoin:miter;stroke-opacity:1"/>
<path class="bond-3 atom-4 atom-3" d="M 323.1,117.7 L 327.6,120.5" style="fill:none;fill-rule:evenodd;stroke:#E5E5E5;stroke-width:1.0px;stroke-linecap:butt;stroke-linejoin:miter;stroke-opacity:1"/>
<path class="bond-3 atom-4 atom-3" d="M 321.1,120.4 L 326.1,123.5" style="fill:none;fill-rule:evenodd;stroke:#E5E5E5;stroke-width:1.0px;stroke-linecap:butt;stroke-linejoin:miter;stroke-opacity:1"/>
<path class="bond-4 atom-5 atom-1" d="M 315.6,61.9 L 280.8,75.9" style="fill:none;fill-rule:evenodd;stroke:#E5E5E5;stroke-width:2.1px;stroke-linecap:butt;stroke-linejoin:miter;stroke-opacity:1"/>
<path d="M 280.9,76.9 L 280.8,75.9 L 281.7,75.5" style="fill:none;stroke:#000000;stroke-width:2.0px;stroke-linecap:butt;stroke-linejoin:miter;stroke-miterlimit:10;stroke-opacity:1;"/>
<path d="M 283.4,113.3 L 283.5,115.2 L 285.4,115.7" style="fill:none;stroke:#000000;stroke-width:2.0px;stroke-linecap:butt;stroke-linejoin:miter;stroke-miterlimit:10;stroke-opacity:1;"/>
<path class="atom-0" d="M 245.3 53.7 L 246.9 52.0 L 244.7 51.6 L 245.1 50.5 L 247.1 51.5 L 246.8 49.3 L 248.0 49.3 L 247.6 51.5 L 249.7 50.5 L 250.0 51.6 L 247.8 52.0 L 249.4 53.7 L 248.4 54.4 L 247.3 52.3 L 246.2 54.4 L 245.3 53.7 " fill="#191919"/>
<path class="atom-4" d="M 340.6 90.2 L 342.2 88.5 L 340.1 88.0 L 340.4 86.9 L 342.4 87.9 L 342.1 85.7 L 343.3 85.7 L 343.0 87.9 L 345.0 87.0 L 345.4 88.0 L 343.1 88.4 L 344.7 90.1 L 343.8 90.8 L 342.7 88.7 L 341.6 90.8 L 340.6 90.2 " fill="#191919"/>
<path class="atom-4" d="M 346.5 85.9 L 348.0 85.9 L 348.0 90.7 L 353.8 90.7 L 353.8 85.9 L 355.3 85.9 L 355.3 97.1 L 353.8 97.1 L 353.8 91.9 L 348.0 91.9 L 348.0 97.1 L 346.5 97.1 L 346.5 85.9 " fill="#191919"/>
<path class="atom-5" d="M 315.3 59.9 L 316.9 58.2 L 314.7 57.8 L 315.1 56.7 L 317.1 57.7 L 316.8 55.5 L 318.0 55.5 L 317.6 57.7 L 319.7 56.7 L 320.0 57.8 L 317.8 58.2 L 319.4 59.9 L 318.4 60.6 L 317.3 58.5 L 316.2 60.6 L 315.3 59.9 " fill="#191919"/>
<path class="legend" d="M 210.0 176.4 L 216.3 176.4 L 216.3 177.6 L 211.4 177.6 L 211.4 180.9 L 215.8 180.9 L 215.8 182.1 L 211.4 182.1 L 211.4 187.1 L 210.0 187.1 L 210.0 176.4 " fill="#000000"/>
<path class="legend" d="M 217.2 183.2 Q 217.2 181.3, 218.2 180.3 Q 219.1 179.2, 220.8 179.2 Q 222.5 179.2, 223.3 180.2 Q 224.1 181.2, 224.1 183.2 L 224.1 183.4 L 218.7 183.4 Q 218.7 184.7, 219.3 185.4 Q 219.9 186.1, 221.0 186.1 Q 221.6 186.1, 222.1 186.0 Q 222.7 185.8, 223.4 185.5 L 223.8 186.5 Q 223.0 186.9, 222.3 187.0 Q 221.6 187.2, 220.9 187.2 Q 219.1 187.2, 218.2 186.2 Q 217.2 185.1, 217.2 183.2 M 220.8 180.3 Q 219.9 180.3, 219.4 180.8 Q 218.9 181.4, 218.7 182.3 L 222.6 182.3 Q 222.5 181.3, 222.0 180.8 Q 221.6 180.3, 220.8 180.3 " fill="#000000"/>
<path class="legend" d="M 225.2 185.0 Q 225.2 183.8, 226.2 183.1 Q 227.2 182.4, 229.0 182.4 L 230.1 182.4 L 230.1 182.1 Q 230.1 181.1, 229.7 180.7 Q 229.3 180.3, 228.4 180.3 Q 227.7 180.3, 227.3 180.4 Q 226.8 180.6, 226.0 180.9 L 225.6 179.9 Q 227.0 179.2, 228.4 179.2 Q 230.0 179.2, 230.8 179.9 Q 231.5 180.6, 231.5 182.1 L 231.5 187.1 L 230.4 187.1 Q 230.4 187.0, 230.4 186.8 Q 230.3 186.6, 230.2 186.2 Q 229.2 187.3, 227.7 187.3 Q 226.5 187.3, 225.9 186.7 Q 225.2 186.0, 225.2 185.0 M 226.6 185.0 Q 226.6 185.5, 226.9 185.9 Q 227.3 186.2, 228.0 186.2 Q 228.6 186.2, 229.2 185.9 Q 229.7 185.6, 230.1 185.1 L 230.1 183.5 L 229.1 183.5 Q 227.8 183.5, 227.2 183.8 Q 226.6 184.2, 226.6 185.0 " fill="#000000"/>
<path class="legend" d="M 233.2 180.4 L 233.2 179.3 L 234.7 179.3 L 234.9 177.1 L 236.0 177.1 L 236.0 179.3 L 238.4 179.3 L 238.4 180.4 L 236.0 180.4 L 236.0 184.7 Q 236.0 186.1, 237.1 186.1 Q 237.6 186.1, 238.2 185.8 L 238.5 186.8 Q 237.7 187.2, 236.9 187.2 Q 235.9 187.2, 235.2 186.6 Q 234.6 186.0, 234.6 184.8 L 234.6 180.4 L 233.2 180.4 " fill="#000000"/>
<path class="legend" d="M 246.0 179.3 L 246.0 187.1 L 244.8 187.1 L 244.6 186.0 Q 243.6 187.2, 242.0 187.2 Q 240.7 187.2, 240.1 186.5 Q 239.4 185.8, 239.4 184.5 L 239.4 179.3 L 240.8 179.3 L 240.8 184.4 Q 240.8 185.3, 241.2 185.7 Q 241.5 186.1, 242.3 186.1 Q 243.0 186.1, 243.6 185.8 Q 244.2 185.5, 244.6 184.9 L 244.6 179.3 L 246.0 179.3 " fill="#000000"/>
<path class="legend" d="M 248.9 179.3 L 249.0 180.4 Q 249.9 179.2, 251.2 179.2 Q 251.6 179.2, 252.2 179.4 L 252.0 180.6 Q 251.3 180.5, 250.9 180.5 Q 250.3 180.5, 249.9 180.7 Q 249.5 181.0, 249.2 181.6 L 249.2 187.1 L 247.7 187.1 L 247.7 179.3 L 248.9 179.3 " fill="#000000"/>
<path class="legend" d="M 252.9 183.2 Q 252.9 181.3, 253.9 180.3 Q 254.8 179.2, 256.6 179.2 Q 258.3 179.2, 259.0 180.2 Q 259.8 181.2, 259.8 183.2 L 259.8 183.4 L 254.4 183.4 Q 254.4 184.7, 255.0 185.4 Q 255.6 186.1, 256.7 186.1 Q 257.3 186.1, 257.9 186.0 Q 258.4 185.8, 259.1 185.5 L 259.5 186.5 Q 258.7 186.9, 258.0 187.0 Q 257.3 187.2, 256.6 187.2 Q 254.9 187.2, 253.9 186.2 Q 252.9 185.1, 252.9 183.2 M 256.6 180.3 Q 255.7 180.3, 255.1 180.8 Q 254.6 181.4, 254.4 182.3 L 258.3 182.3 Q 258.2 181.3, 257.8 180.8 Q 257.4 180.3, 256.6 180.3 " fill="#000000"/>
<path class="legend" d="" fill="#000000"/>
<path class="legend" d="M 270.3 180.4 Q 271.3 180.4, 272.0 180.8 Q 272.8 181.2, 273.2 182.0 Q 273.7 182.7, 273.7 183.7 Q 273.7 184.8, 273.1 185.6 Q 272.6 186.4, 271.7 186.8 Q 270.8 187.2, 269.9 187.2 Q 268.9 187.2, 268.0 186.9 Q 267.1 186.5, 266.4 185.8 L 267.4 184.9 Q 267.8 185.4, 268.5 185.7 Q 269.2 186.0, 269.9 186.0 Q 270.8 186.0, 271.5 185.4 Q 272.2 184.8, 272.2 183.7 Q 272.2 182.6, 271.5 182.1 Q 270.8 181.5, 269.8 181.5 Q 268.9 181.5, 267.8 182.0 L 267.0 181.6 L 267.5 176.4 L 273.0 176.4 L 272.9 177.6 L 268.8 177.6 L 268.4 180.8 Q 269.4 180.4, 270.3 180.4 " fill="#000000"/>
<path class="legend" d="M 281.8 183.4 L 283.1 183.4 L 283.1 184.6 L 281.8 184.6 L 281.8 187.1 L 280.4 187.1 L 280.4 184.6 L 274.9 184.6 L 274.9 183.7 L 279.6 176.4 L 281.8 176.4 L 281.8 183.4 M 276.7 183.4 L 280.4 183.4 L 280.4 177.4 L 276.7 183.4 " fill="#000000"/>
<path class="legend" d="M 290.0 177.6 L 284.4 177.6 L 284.4 176.4 L 291.5 176.4 L 291.5 177.5 L 287.2 187.1 L 285.7 187.1 L 290.0 177.6 " fill="#000000"/>
<path class="legend" d="" fill="#000000"/>
<path class="legend" d="M 298.0 175.4 L 299.3 175.4 L 299.3 190.0 L 298.0 190.0 L 298.0 175.4 " fill="#000000"/>
<path class="legend" d="" fill="#000000"/>
<path class="legend" d="M 307.0 185.4 Q 307.2 185.5, 307.6 185.7 Q 308.1 185.9, 308.7 186.0 Q 309.2 186.2, 309.8 186.2 Q 310.8 186.2, 311.4 185.7 Q 312.0 185.2, 312.0 184.3 Q 312.0 183.7, 311.7 183.4 Q 311.4 183.0, 310.9 182.8 Q 310.5 182.6, 309.7 182.4 Q 308.8 182.1, 308.2 181.8 Q 307.6 181.6, 307.2 181.0 Q 306.8 180.4, 306.8 179.5 Q 306.8 178.1, 307.8 177.3 Q 308.7 176.5, 310.5 176.5 Q 311.7 176.5, 313.1 177.0 L 312.8 178.2 Q 311.5 177.7, 310.5 177.7 Q 309.5 177.7, 308.9 178.1 Q 308.3 178.5, 308.4 179.3 Q 308.4 179.8, 308.6 180.2 Q 308.9 180.5, 309.4 180.7 Q 309.8 180.9, 310.5 181.2 Q 311.5 181.5, 312.1 181.8 Q 312.6 182.1, 313.0 182.7 Q 313.5 183.3, 313.5 184.3 Q 313.5 185.8, 312.5 186.6 Q 311.5 187.4, 309.8 187.4 Q 308.9 187.4, 308.2 187.2 Q 307.5 187.0, 306.6 186.6 L 307.0 185.4 " fill="#000000"/>
<path class="legend" d="M 314.7 176.4 L 316.1 176.4 L 316.1 181.0 L 321.6 181.0 L 321.6 176.4 L 323.0 176.4 L 323.0 187.1 L 321.6 187.1 L 321.6 182.2 L 316.1 182.2 L 316.1 187.1 L 314.7 187.1 L 314.7 176.4 " fill="#000000"/>
<path class="legend" d="M 332.7 187.1 L 331.6 184.0 L 327.4 184.0 L 326.3 187.1 L 324.9 187.1 L 328.5 176.4 L 330.3 176.4 L 334.1 187.1 L 332.7 187.1 M 327.8 182.8 L 331.2 182.8 L 329.5 177.9 L 327.8 182.8 " fill="#000000"/>
<path class="legend" d="M 338.0 176.4 Q 339.8 176.4, 340.7 177.3 Q 341.6 178.1, 341.6 179.6 Q 341.6 181.0, 340.7 181.9 Q 339.8 182.7, 338.0 182.7 L 336.3 182.7 L 336.3 187.1 L 334.8 187.1 L 334.8 176.4 L 338.0 176.4 M 338.0 181.5 Q 339.0 181.5, 339.6 181.0 Q 340.1 180.5, 340.1 179.6 Q 340.1 178.6, 339.6 178.1 Q 339.0 177.6, 338.0 177.6 L 336.3 177.6 L 336.3 181.5 L 338.0 181.5 " fill="#000000"/>
<path class="legend" d="M 342.9 185.3 L 344.4 185.3 L 344.4 186.8 L 342.9 186.8 L 342.9 185.3 M 342.9 180.1 L 344.4 180.1 L 344.4 181.7 L 342.9 181.7 L 342.9 180.1 " fill="#000000"/>
<path class="legend" d="" fill="#000000"/>
<path class="legend" d="M 351.6 178.4 Q 352.0 177.4, 353.0 176.9 Q 353.9 176.3, 355.2 176.3 Q 356.8 176.3, 357.7 177.2 Q 358.6 178.1, 358.6 179.6 Q 358.6 181.2, 357.4 182.7 Q 356.3 184.1, 353.9 185.9 L 358.8 185.9 L 358.8 187.1 L 351.6 187.1 L 351.6 186.1 Q 353.6 184.7, 354.8 183.6 Q 356.0 182.6, 356.5 181.6 Q 357.1 180.7, 357.1 179.7 Q 357.1 178.7, 356.6 178.1 Q 356.1 177.5, 355.2 177.5 Q 354.3 177.5, 353.8 177.9 Q 353.2 178.2, 352.8 179.0 L 351.6 178.4 " fill="#000000"/>
<path class="legend" d="M 367.2 183.4 L 368.4 183.4 L 368.4 184.6 L 367.2 184.6 L 367.2 187.1 L 365.7 187.1 L 365.7 184.6 L 360.2 184.6 L 360.2 183.7 L 364.9 176.4 L 367.2 176.4 L 367.2 183.4 M 362.0 183.4 L 365.7 183.4 L 365.7 177.4 L 362.0 183.4 " fill="#000000"/>
<path class="legend" d="M 369.7 185.6 L 371.2 185.6 L 371.2 187.1 L 369.7 187.1 L 369.7 185.6 " fill="#000000"/>
<path class="legend" d="M 379.6 183.4 L 380.9 183.4 L 380.9 184.6 L 379.6 184.6 L 379.6 187.1 L 378.2 187.1 L 378.2 184.6 L 372.7 184.6 L 372.7 183.7 L 377.4 176.4 L 379.6 176.4 L 379.6 183.4 M 374.5 183.4 L 378.2 183.4 L 378.2 177.4 L 374.5 183.4 " fill="#000000"/>
<path class="legend" d="M 386.1 187.2 Q 384.1 187.2, 383.2 185.8 Q 382.2 184.3, 382.2 181.7 Q 382.2 179.2, 383.2 177.7 Q 384.1 176.3, 386.1 176.3 Q 388.1 176.3, 389.0 177.7 Q 390.0 179.2, 390.0 181.7 Q 390.0 184.3, 389.0 185.8 Q 388.1 187.2, 386.1 187.2 M 386.1 186.0 Q 387.3 186.0, 387.9 184.9 Q 388.5 183.9, 388.5 181.7 Q 388.5 179.6, 387.9 178.6 Q 387.3 177.5, 386.1 177.5 Q 385.0 177.5, 384.3 178.6 Q 383.7 179.6, 383.7 181.7 Q 383.7 183.9, 384.3 184.9 Q 385.0 186.0, 386.1 186.0 " fill="#000000"/>
<ellipse cx="482.4" cy="144.1" rx="7.9" ry="7.9" class="atom-1" style="fill:#E5E533;fill-rule:evenodd;stroke:#E5E533;stroke-width:1.0px;stroke-linecap:butt;stroke-linejoin:miter;stroke-opacity:1"/>
<ellipse cx="499.7" cy="108.7" rx="7.9" ry="7.9" class="atom-2" style="fill:#E5E533;fill-rule:evenodd;stroke:#E5E533;stroke-width:1.0px;stroke-linecap:butt;stroke-linejoin:miter;stroke-opacity:1"/>
<ellipse cx="539.1" cy="106.0" rx="7.9" ry="7.9" class="atom-3" style="fill:#9999E5;fill-rule:evenodd;stroke:#9999E5;stroke-width:1.0px;stroke-linecap:butt;stroke-linejoin:miter;stroke-opacity:1"/>
<ellipse cx="556.4" cy="70.6" rx="7.9" ry="7.9" class="atom-4" style="fill:#E5E533;fill-rule:evenodd;stroke:#E5E533;stroke-width:1.0px;stroke-linecap:butt;stroke-linejoin:miter;stroke-opacity:1"/>
<ellipse cx="534.4" cy="37.9" rx="7.9" ry="7.9" class="atom-5" style="fill:#E5E533;fill-rule:evenodd;stroke:#E5E533;stroke-width:1.0px;stroke-linecap:butt;stroke-linejoin:miter;stroke-opacity:1"/>
<ellipse cx="477.7" cy="76.0" rx="7.9" ry="7.9" class="atom-7" style="fill:#E5E533;fill-rule:evenodd;stroke:#E5E533;stroke-width:1.0px;stroke-linecap:butt;stroke-linejoin:miter;stroke-opacity:1"/>
<path class="bond-0 atom-0 atom-1" d="M 447.0,146.6 L 482.4,144.1" style="fill:none;fill-rule:evenodd;stroke:#E5E5E5;stroke-width:2.1px;stroke-linecap:butt;stroke-linejoin:miter;stroke-opacity:1"/>
<path class="bond-0 atom-0 atom-1" d="M 446.6,140.7 L 478.6,138.5" style="fill:none;fill-rule:evenodd;stroke:#E5E5E5;stroke-width:2.1px;stroke-linecap:butt;stroke-linejoin:miter;stroke-opacity:1;stroke-dasharray:6,4"/>
<path class="bond-1 atom-1 atom-2" d="M 482.4,144.1 L 499.7,108.7" style="fill:none;fill-rule:evenodd;stroke:#000000;stroke-width:2.0px;stroke-linecap:butt;stroke-linejoin:miter;stroke-opacity:1"/>
<path class="bond-2 atom-2 atom-3" d="M 499.7,108.7 L 539.1,106.0" style="fill:none;fill-rule:evenodd;stroke:#000000;stroke-width:2.0px;stroke-linecap:butt;stroke-linejoin:miter;stroke-opacity:1"/>
<path class="bond-2 atom-2 atom-3" d="M 502.7,102.6 L 535.3,100.3" style="fill:none;fill-rule:evenodd;stroke:#000000;stroke-width:2.0px;stroke-linecap:butt;stroke-linejoin:miter;stroke-opacity:1"/>
<path class="bond-3 atom-3 atom-4" d="M 539.1,106.0 L 556.4,70.6" style="fill:none;fill-rule:evenodd;stroke:#000000;stroke-width:2.0px;stroke-linecap:butt;stroke-linejoin:miter;stroke-opacity:1"/>
<path class="bond-4 atom-4 atom-5" d="M 556.4,70.6 L 534.4,37.9" style="fill:none;fill-rule:evenodd;stroke:#000000;stroke-width:2.0px;stroke-linecap:butt;stroke-linejoin:miter;stroke-opacity:1"/>
<path class="bond-4 atom-4 atom-5" d="M 549.6,71.0 L 531.4,44.0" style="fill:none;fill-rule:evenodd;stroke:#000000;stroke-width:2.0px;stroke-linecap:butt;stroke-linejoin:miter;stroke-opacity:1"/>
<path class="bond-5 atom-5 atom-6" d="M 534.4,37.9 L 499.0,40.3" style="fill:none;fill-rule:evenodd;stroke:#E5E5E5;stroke-width:2.1px;stroke-linecap:butt;stroke-linejoin:miter;stroke-opacity:1"/>
<path class="bond-6 atom-6 atom-7" d="M 494.7,41.3 L 477.7,76.0" style="fill:none;fill-rule:evenodd;stroke:#E5E5E5;stroke-width:2.1px;stroke-linecap:butt;stroke-linejoin:miter;stroke-opacity:1"/>
<path class="bond-6 atom-6 atom-7" d="M 500.0,43.9 L 484.5,75.5" style="fill:none;fill-rule:evenodd;stroke:#E5E5E5;stroke-width:2.1px;stroke-linecap:butt;stroke-linejoin:miter;stroke-opacity:1"/>
<path class="bond-7 atom-7 atom-8" d="M 477.7,76.0 L 442.3,78.4" style="fill:none;fill-rule:evenodd;stroke:#E5E5E5;stroke-width:2.1px;stroke-linecap:butt;stroke-linejoin:miter;stroke-opacity:1"/>
<path class="bond-8 atom-7 atom-2" d="M 477.7,76.0 L 499.7,108.7" style="fill:none;fill-rule:evenodd;stroke:#000000;stroke-width:2.0px;stroke-linecap:butt;stroke-linejoin:miter;stroke-opacity:1"/>
<path d="M 481.5,144.2 L 482.4,144.1 L 482.8,143.3" style="fill:none;stroke:#E5E5E5;stroke-width:2.1px;stroke-linecap:butt;stroke-linejoin:miter;stroke-miterlimit:10;stroke-opacity:1;"/>
<path d="M 537.1,106.1 L 539.1,106.0 L 539.9,104.2" style="fill:none;stroke:#000000;stroke-width:2.0px;stroke-linecap:butt;stroke-linejoin:miter;stroke-miterlimit:10;stroke-opacity:1;"/>
<path d="M 555.5,72.3 L 556.4,70.6 L 555.3,68.9" style="fill:none;stroke:#000000;stroke-width:2.0px;stroke-linecap:butt;stroke-linejoin:miter;stroke-miterlimit:10;stroke-opacity:1;"/>
<path d="M 534.9,38.7 L 534.4,37.9 L 533.5,37.9" style="fill:none;stroke:#000000;stroke-width:2.0px;stroke-linecap:butt;stroke-linejoin:miter;stroke-miterlimit:10;stroke-opacity:1;"/>
<path class="atom-0" d="M 440.7 142.7 L 442.4 141.0 L 440.2 140.6 L 440.5 139.4 L 442.5 140.4 L 442.3 138.2 L 443.4 138.2 L 443.1 140.4 L 445.1 139.5 L 445.5 140.6 L 443.3 141.0 L 444.9 142.6 L 443.9 143.3 L 442.8 141.3 L 441.7 143.3 L 440.7 142.7 " fill="#191919"/>
<path class="atom-6" d="M 492.9 39.3 L 494.6 37.6 L 492.4 37.2 L 492.7 36.1 L 494.7 37.1 L 494.4 34.9 L 495.6 34.9 L 495.3 37.1 L 497.3 36.1 L 497.7 37.2 L 495.5 37.6 L 497.0 39.3 L 496.1 40.0 L 495.0 37.9 L 493.9 40.0 L 492.9 39.3 " fill="#191919"/>
<path class="atom-8" d="M 436.2 77.5 L 437.9 75.8 L 435.7 75.4 L 436.0 74.2 L 438.0 75.2 L 437.8 73.0 L 438.9 73.0 L 438.6 75.2 L 440.7 74.3 L 441.0 75.4 L 438.8 75.8 L 440.4 77.4 L 439.4 78.1 L 438.3 76.1 L 437.2 78.1 L 436.2 77.5 " fill="#191919"/>
<path class="legend" d="M 410.0 176.9 L 416.1 176.9 L 416.1 178.1 L 411.4 178.1 L 411.4 181.2 L 415.6 181.2 L 415.6 182.4 L 411.4 182.4 L 411.4 187.2 L 410.0 187.2 L 410.0 176.9 " fill="#000000"/>
<path class="legend" d="M 416.9 183.5 Q 416.9 181.6, 417.8 180.6 Q 418.8 179.6, 420.4 179.6 Q 422.1 179.6, 422.8 180.6 Q 423.5 181.6, 423.5 183.4 L 423.5 183.6 L 418.3 183.6 Q 418.4 184.9, 418.9 185.6 Q 419.5 186.2, 420.5 186.2 Q 421.1 186.2, 421.7 186.1 Q 422.2 186.0, 422.9 185.7 L 423.2 186.6 Q 422.5 187.0, 421.8 187.2 Q 421.2 187.3, 420.5 187.3 Q 418.8 187.3, 417.9 186.3 Q 416.9 185.3, 416.9 183.5 M 420.4 180.7 Q 419.6 180.7, 419.1 181.2 Q 418.5 181.7, 418.4 182.6 L 422.1 182.6 Q 422.0 181.6, 421.6 181.2 Q 421.2 180.7, 420.4 180.7 " fill="#000000"/>
<path class="legend" d="M 424.6 185.2 Q 424.6 184.0, 425.6 183.3 Q 426.5 182.7, 428.3 182.7 L 429.4 182.7 L 429.4 182.4 Q 429.4 181.5, 429.0 181.1 Q 428.6 180.7, 427.7 180.7 Q 427.1 180.7, 426.6 180.8 Q 426.1 180.9, 425.4 181.2 L 425.0 180.3 Q 426.4 179.6, 427.7 179.6 Q 429.3 179.6, 430.0 180.3 Q 430.7 181.0, 430.7 182.4 L 430.7 187.2 L 429.7 187.2 Q 429.7 187.1, 429.6 186.9 Q 429.6 186.7, 429.5 186.3 Q 428.4 187.4, 427.0 187.4 Q 425.9 187.4, 425.3 186.8 Q 424.6 186.2, 424.6 185.2 M 426.0 185.2 Q 426.0 185.7, 426.3 186.0 Q 426.7 186.3, 427.3 186.3 Q 427.9 186.3, 428.4 186.0 Q 429.0 185.8, 429.4 185.3 L 429.4 183.7 L 428.4 183.7 Q 427.2 183.7, 426.6 184.1 Q 426.0 184.4, 426.0 185.2 " fill="#000000"/>
<path class="legend" d="M 432.4 180.8 L 432.4 179.7 L 433.8 179.7 L 434.0 177.6 L 435.0 177.6 L 435.0 179.7 L 437.3 179.7 L 437.3 180.8 L 435.0 180.8 L 435.0 184.9 Q 435.0 186.2, 436.1 186.2 Q 436.6 186.2, 437.2 186.0 L 437.4 187.0 Q 436.6 187.3, 435.9 187.3 Q 434.9 187.3, 434.3 186.7 Q 433.7 186.1, 433.7 185.0 L 433.7 180.8 L 432.4 180.8 " fill="#000000"/>
<path class="legend" d="M 444.6 179.7 L 444.6 187.2 L 443.5 187.2 L 443.4 186.2 Q 442.4 187.3, 440.8 187.3 Q 439.6 187.3, 438.9 186.7 Q 438.3 186.0, 438.3 184.7 L 438.3 179.7 L 439.7 179.7 L 439.7 184.6 Q 439.7 185.5, 440.0 185.9 Q 440.3 186.3, 441.1 186.3 Q 441.8 186.3, 442.3 186.0 Q 442.9 185.6, 443.3 185.1 L 443.3 179.7 L 444.6 179.7 " fill="#000000"/>
<path class="legend" d="M 447.4 179.7 L 447.6 180.8 Q 448.4 179.6, 449.7 179.6 Q 450.1 179.6, 450.6 179.8 L 450.4 181.0 Q 449.8 180.8, 449.4 180.8 Q 448.8 180.8, 448.4 181.1 Q 448.0 181.3, 447.7 181.9 L 447.7 187.2 L 446.3 187.2 L 446.3 179.7 L 447.4 179.7 " fill="#000000"/>
<path class="legend" d="M 451.3 183.5 Q 451.3 181.6, 452.3 180.6 Q 453.2 179.6, 454.8 179.6 Q 456.5 179.6, 457.2 180.6 Q 457.9 181.6, 457.9 183.4 L 457.9 183.6 L 452.7 183.6 Q 452.8 184.9, 453.3 185.6 Q 453.9 186.2, 455.0 186.2 Q 455.5 186.2, 456.1 186.1 Q 456.6 186.0, 457.3 185.7 L 457.7 186.6 Q 456.9 187.0, 456.2 187.2 Q 455.6 187.3, 454.9 187.3 Q 453.2 187.3, 452.3 186.3 Q 451.3 185.3, 451.3 183.5 M 454.8 180.7 Q 454.0 180.7, 453.5 181.2 Q 452.9 181.7, 452.8 182.6 L 456.5 182.6 Q 456.4 181.6, 456.0 181.2 Q 455.6 180.7, 454.8 180.7 " fill="#000000"/>
<path class="legend" d="" fill="#000000"/>
<path class="legend" d="M 464.9 186.0 L 467.2 186.0 L 467.2 178.4 L 464.7 179.1 L 464.3 178.3 L 467.5 176.9 L 468.5 177.0 L 468.5 186.0 L 470.5 186.0 L 470.5 187.2 L 464.9 187.2 L 464.9 186.0 " fill="#000000"/>
<path class="legend" d="M 475.4 187.3 Q 473.5 187.3, 472.6 185.9 Q 471.7 184.5, 471.7 182.0 Q 471.7 179.6, 472.6 178.2 Q 473.5 176.8, 475.4 176.8 Q 477.3 176.8, 478.2 178.2 Q 479.2 179.6, 479.2 182.0 Q 479.2 184.5, 478.2 185.9 Q 477.3 187.3, 475.4 187.3 M 475.4 186.2 Q 476.5 186.2, 477.1 185.1 Q 477.7 184.1, 477.7 182.0 Q 477.7 180.0, 477.1 179.0 Q 476.5 178.0, 475.4 178.0 Q 474.3 178.0, 473.7 179.0 Q 473.1 180.0, 473.1 182.0 Q 473.1 184.1, 473.7 185.1 Q 474.3 186.2, 475.4 186.2 " fill="#000000"/>
<path class="legend" d="M 485.9 181.8 Q 486.8 182.2, 487.3 182.8 Q 487.9 183.4, 487.9 184.4 Q 487.9 185.3, 487.4 185.9 Q 487.0 186.6, 486.2 187.0 Q 485.4 187.3, 484.3 187.3 Q 482.6 187.3, 481.6 186.6 Q 480.6 185.8, 480.6 184.4 Q 480.6 183.5, 481.1 182.9 Q 481.5 182.3, 482.4 181.8 Q 481.7 181.4, 481.4 180.9 Q 481.0 180.3, 481.0 179.4 Q 481.0 178.2, 481.9 177.5 Q 482.8 176.8, 484.3 176.8 Q 485.7 176.8, 486.6 177.5 Q 487.5 178.2, 487.5 179.4 Q 487.5 180.2, 487.1 180.8 Q 486.7 181.3, 485.9 181.8 M 484.3 177.9 Q 483.4 177.9, 482.9 178.3 Q 482.5 178.7, 482.5 179.4 Q 482.5 180.0, 482.8 180.3 Q 483.1 180.7, 483.5 180.9 Q 484.0 181.1, 484.9 181.4 Q 485.5 181.0, 485.8 180.5 Q 486.1 180.0, 486.1 179.4 Q 486.1 178.7, 485.6 178.3 Q 485.1 177.9, 484.3 177.9 M 484.3 186.3 Q 485.3 186.3, 485.8 185.7 Q 486.4 185.2, 486.4 184.4 Q 486.4 183.8, 486.1 183.5 Q 485.8 183.1, 485.4 182.9 Q 484.9 182.7, 484.1 182.5 L 483.4 182.2 Q 482.7 182.7, 482.4 183.2 Q 482.1 183.7, 482.1 184.4 Q 482.1 185.2, 482.7 185.7 Q 483.3 186.3, 484.3 186.3 " fill="#000000"/>
<path class="legend" d="M 494.7 178.1 L 489.3 178.1 L 489.3 176.9 L 496.1 176.9 L 496.1 178.0 L 492.0 187.2 L 490.6 187.2 L 494.7 178.1 " fill="#000000"/>
<path class="legend" d="" fill="#000000"/>
<path class="legend" d="M 502.4 176.0 L 503.6 176.0 L 503.6 190.0 L 502.4 190.0 L 502.4 176.0 " fill="#000000"/>
<path class="legend" d="" fill="#000000"/>
<path class="legend" d="M 511.1 185.6 Q 511.2 185.6, 511.7 185.9 Q 512.2 186.1, 512.7 186.2 Q 513.2 186.3, 513.7 186.3 Q 514.7 186.3, 515.3 185.8 Q 515.8 185.4, 515.8 184.5 Q 515.8 184.0, 515.6 183.6 Q 515.3 183.3, 514.8 183.1 Q 514.4 182.9, 513.7 182.7 Q 512.8 182.4, 512.2 182.1 Q 511.7 181.9, 511.3 181.3 Q 510.9 180.8, 510.9 179.8 Q 510.9 178.6, 511.8 177.8 Q 512.7 177.0, 514.4 177.0 Q 515.6 177.0, 517.0 177.5 L 516.6 178.6 Q 515.4 178.1, 514.5 178.1 Q 513.5 178.1, 512.9 178.6 Q 512.4 179.0, 512.4 179.7 Q 512.4 180.2, 512.6 180.6 Q 512.9 180.9, 513.3 181.1 Q 513.8 181.3, 514.5 181.5 Q 515.4 181.8, 515.9 182.1 Q 516.5 182.4, 516.9 182.9 Q 517.3 183.5, 517.3 184.5 Q 517.3 186.0, 516.3 186.7 Q 515.4 187.5, 513.8 187.5 Q 512.9 187.5, 512.2 187.3 Q 511.5 187.1, 510.7 186.7 L 511.1 185.6 " fill="#000000"/>
<path class="legend" d="M 518.5 176.9 L 519.9 176.9 L 519.9 181.3 L 525.1 181.3 L 525.1 176.9 L 526.5 176.9 L 526.5 187.2 L 525.1 187.2 L 525.1 182.5 L 519.9 182.5 L 519.9 187.2 L 518.5 187.2 L 518.5 176.9 " fill="#000000"/>
<path class="legend" d="M 535.8 187.2 L 534.8 184.2 L 530.7 184.2 L 529.6 187.2 L 528.3 187.2 L 531.8 176.9 L 533.5 176.9 L 537.2 187.2 L 535.8 187.2 M 531.1 183.0 L 534.3 183.0 L 532.7 178.4 L 531.1 183.0 " fill="#000000"/>
<path class="legend" d="M 540.9 176.9 Q 542.6 176.9, 543.5 177.7 Q 544.4 178.5, 544.4 179.9 Q 544.4 181.4, 543.5 182.2 Q 542.6 183.0, 540.9 183.0 L 539.3 183.0 L 539.3 187.2 L 537.9 187.2 L 537.9 176.9 L 540.9 176.9 M 540.9 181.8 Q 541.9 181.8, 542.4 181.3 Q 543.0 180.9, 543.0 179.9 Q 543.0 179.0, 542.4 178.6 Q 541.9 178.1, 540.9 178.1 L 539.3 178.1 L 539.3 181.8 L 540.9 181.8 " fill="#000000"/>
<path class="legend" d="M 545.6 185.5 L 547.1 185.5 L 547.1 187.0 L 545.6 187.0 L 545.6 185.5 M 545.6 180.5 L 547.1 180.5 L 547.1 182.0 L 545.6 182.0 L 545.6 180.5 " fill="#000000"/>
<path class="legend" d="" fill="#000000"/>
<path class="legend" d="M 554.0 178.9 Q 554.4 177.9, 555.3 177.4 Q 556.2 176.8, 557.5 176.8 Q 559.0 176.8, 559.9 177.7 Q 560.7 178.5, 560.7 180.0 Q 560.7 181.5, 559.6 182.9 Q 558.5 184.4, 556.2 186.0 L 560.9 186.0 L 560.9 187.2 L 554.0 187.2 L 554.0 186.2 Q 555.9 184.9, 557.0 183.8 Q 558.2 182.8, 558.7 181.9 Q 559.3 181.0, 559.3 180.1 Q 559.3 179.1, 558.8 178.5 Q 558.3 178.0, 557.5 178.0 Q 556.6 178.0, 556.1 178.3 Q 555.5 178.6, 555.1 179.4 L 554.0 178.9 " fill="#000000"/>
<path class="legend" d="M 567.2 181.8 Q 568.2 182.1, 568.7 182.7 Q 569.2 183.4, 569.2 184.4 Q 569.2 185.3, 568.8 185.9 Q 568.3 186.6, 567.5 187.0 Q 566.7 187.3, 565.7 187.3 Q 564.6 187.3, 563.8 187.0 Q 563.0 186.6, 562.3 185.8 L 563.1 185.0 Q 563.8 185.6, 564.3 185.9 Q 564.8 186.2, 565.7 186.2 Q 566.6 186.2, 567.2 185.7 Q 567.8 185.2, 567.8 184.4 Q 567.8 183.3, 567.2 182.9 Q 566.6 182.4, 565.3 182.4 L 564.6 182.4 L 564.6 181.3 L 565.2 181.3 Q 566.3 181.3, 566.9 180.8 Q 567.5 180.4, 567.5 179.4 Q 567.5 178.8, 567.0 178.4 Q 566.6 178.0, 565.7 178.0 Q 564.9 178.0, 564.3 178.3 Q 563.8 178.6, 563.4 179.3 L 562.4 178.8 Q 562.8 178.0, 563.6 177.4 Q 564.5 176.8, 565.7 176.8 Q 567.2 176.8, 568.1 177.5 Q 569.0 178.2, 569.0 179.4 Q 569.0 180.3, 568.5 180.9 Q 568.1 181.5, 567.2 181.8 " fill="#000000"/>
<path class="legend" d="M 570.6 185.7 L 572.0 185.7 L 572.0 187.2 L 570.6 187.2 L 570.6 185.7 " fill="#000000"/>
<path class="legend" d="M 576.9 176.8 Q 578.8 176.8, 579.7 178.1 Q 580.6 179.3, 580.6 181.8 Q 580.6 184.5, 579.5 185.9 Q 578.3 187.3, 576.1 187.3 Q 575.5 187.3, 574.9 187.2 Q 574.4 187.0, 573.9 186.7 L 574.4 185.7 Q 575.2 186.2, 576.1 186.2 Q 577.6 186.2, 578.3 185.2 Q 579.0 184.3, 579.1 182.4 Q 578.6 182.8, 577.9 183.1 Q 577.3 183.3, 576.6 183.3 Q 575.7 183.3, 575.0 182.9 Q 574.3 182.6, 573.9 181.8 Q 573.5 181.1, 573.5 180.2 Q 573.5 179.2, 573.9 178.5 Q 574.4 177.7, 575.1 177.2 Q 575.9 176.8, 576.9 176.8 M 574.9 180.2 Q 574.9 181.1, 575.4 181.7 Q 575.9 182.2, 576.8 182.2 Q 577.5 182.2, 578.1 181.9 Q 578.7 181.7, 579.1 181.2 Q 579.1 179.5, 578.5 178.8 Q 578.0 178.0, 576.9 178.0 Q 576.4 178.0, 575.9 178.3 Q 575.4 178.6, 575.2 179.1 Q 574.9 179.6, 574.9 180.2 " fill="#000000"/>
<path class="legend" d="M 588.8 183.7 L 590.0 183.7 L 590.0 184.8 L 588.8 184.8 L 588.8 187.2 L 587.4 187.2 L 587.4 184.8 L 582.1 184.8 L 582.1 183.9 L 586.6 176.9 L 588.8 176.9 L 588.8 183.7 M 583.8 183.7 L 587.4 183.7 L 587.4 177.9 L 583.8 183.7 " fill="#000000"/>
<ellipse cx="80.1" cy="312.9" rx="7.9" ry="7.9" class="atom-1" style="fill:#E5E533;fill-rule:evenodd;stroke:#E5E533;stroke-width:1.0px;stroke-linecap:butt;stroke-linejoin:miter;stroke-opacity:1"/>
<ellipse cx="119.4" cy="310.2" rx="7.9" ry="7.9" class="atom-2" style="fill:#E5E533;fill-rule:evenodd;stroke:#E5E533;stroke-width:1.0px;stroke-linecap:butt;stroke-linejoin:miter;stroke-opacity:1"/>
<ellipse cx="136.7" cy="274.8" rx="7.9" ry="7.9" class="atom-3" style="fill:#9999E5;fill-rule:evenodd;stroke:#9999E5;stroke-width:1.0px;stroke-linecap:butt;stroke-linejoin:miter;stroke-opacity:1"/>
<ellipse cx="114.7" cy="242.1" rx="7.9" ry="7.9" class="atom-4" style="fill:#E5E533;fill-rule:evenodd;stroke:#E5E533;stroke-width:1.0px;stroke-linecap:butt;stroke-linejoin:miter;stroke-opacity:1"/>
<ellipse cx="75.4" cy="244.8" rx="7.9" ry="7.9" class="atom-5" style="fill:#E5E533;fill-rule:evenodd;stroke:#E5E533;stroke-width:1.0px;stroke-linecap:butt;stroke-linejoin:miter;stroke-opacity:1"/>
<path class="bond-0 atom-0 atom-1" d="M 66.1,341.4 L 80.1,312.9" style="fill:none;fill-rule:evenodd;stroke:#E5E5E5;stroke-width:2.1px;stroke-linecap:butt;stroke-linejoin:miter;stroke-opacity:1"/>
<path class="bond-1 atom-1 atom-2" d="M 80.1,312.9 L 119.4,310.2" style="fill:none;fill-rule:evenodd;stroke:#000000;stroke-width:2.0px;stroke-linecap:butt;stroke-linejoin:miter;stroke-opacity:1"/>
<path class="bond-1 atom-1 atom-2" d="M 83.1,306.8 L 115.6,304.6" style="fill:none;fill-rule:evenodd;stroke:#000000;stroke-width:2.0px;stroke-linecap:butt;stroke-linejoin:miter;stroke-opacity:1"/>
<path class="bond-2 atom-2 atom-3" d="M 119.4,310.2 L 136.7,274.8" style="fill:none;fill-rule:evenodd;stroke:#000000;stroke-width:2.0px;stroke-linecap:butt;stroke-linejoin:miter;stroke-opacity:1"/>
<path class="bond-3 atom-3 atom-4" d="M 136.7,274.8 L 114.7,242.1" style="fill:none;fill-rule:evenodd;stroke:#000000;stroke-width:2.0px;stroke-linecap:butt;stroke-linejoin:miter;stroke-opacity:1"/>
<path class="bond-3 atom-3 atom-4" d="M 129.9,275.3 L 111.7,248.2" style="fill:none;fill-rule:evenodd;stroke:#000000;stroke-width:2.0px;stroke-linecap:butt;stroke-linejoin:miter;stroke-opacity:1"/>
<path class="bond-4 atom-4 atom-5" d="M 114.7,242.1 L 75.4,244.8" style="fill:none;fill-rule:evenodd;stroke:#000000;stroke-width:2.0px;stroke-linecap:butt;stroke-linejoin:miter;stroke-opacity:1"/>
<path class="bond-5 atom-5 atom-6" d="M 75.4,244.8 L 61.4,273.2" style="fill:none;fill-rule:evenodd;stroke:#E5E5E5;stroke-width:2.1px;stroke-linecap:butt;stroke-linejoin:miter;stroke-opacity:1"/>
<path class="bond-5 atom-5 atom-6" d="M 79.2,250.5 L 66.8,275.8" style="fill:none;fill-rule:evenodd;stroke:#E5E5E5;stroke-width:2.1px;stroke-linecap:butt;stroke-linejoin:miter;stroke-opacity:1"/>
<path class="bond-6 atom-6 atom-1" d="M 58.5,281.0 L 80.1,312.9" style="fill:none;fill-rule:evenodd;stroke:#E5E5E5;stroke-width:2.1px;stroke-linecap:butt;stroke-linejoin:miter;stroke-opacity:1"/>
<path d="M 117.4,310.4 L 119.4,310.2 L 120.3,308.5" style="fill:none;stroke:#000000;stroke-width:2.0px;stroke-linecap:butt;stroke-linejoin:miter;stroke-miterlimit:10;stroke-opacity:1;"/>
<path d="M 135.9,276.6 L 136.7,274.8 L 135.6,273.2" style="fill:none;stroke:#000000;stroke-width:2.0px;stroke-linecap:butt;stroke-linejoin:miter;stroke-miterlimit:10;stroke-opacity:1;"/>
<path d="M 115.8,243.7 L 114.7,242.1 L 112.7,242.2" style="fill:none;stroke:#000000;stroke-width:2.0px;stroke-linecap:butt;stroke-linejoin:miter;stroke-miterlimit:10;stroke-opacity:1;"/>
<path d="M 76.3,244.7 L 75.4,244.8 L 75.0,245.5" style="fill:none;stroke:#000000;stroke-width:2.0px;stroke-linecap:butt;stroke-linejoin:miter;stroke-miterlimit:10;stroke-opacity:1;"/>
<path class="atom-0" d="M 60.6 347.1 L 62.3 345.5 L 60.1 345.0 L 60.4 343.9 L 62.4 344.9 L 62.1 342.7 L 63.3 342.7 L 63.0 344.9 L 65.0 343.9 L 65.4 345.0 L 63.2 345.4 L 64.7 347.1 L 63.8 347.8 L 62.7 345.7 L 61.6 347.8 L 60.6 347.1 " fill="#191919"/>
<path class="atom-6" d="M 55.9 279.0 L 57.6 277.3 L 55.4 276.9 L 55.7 275.7 L 57.7 276.8 L 57.4 274.6 L 58.6 274.5 L 58.3 276.7 L 60.3 275.8 L 60.7 276.9 L 58.5 277.3 L 60.0 279.0 L 59.1 279.7 L 58.0 277.6 L 56.9 279.7 L 55.9 279.0 " fill="#191919"/>
<path class="legend" d="M 10.0 376.7 L 16.2 376.7 L 16.2 377.9 L 11.4 377.9 L 11.4 381.1 L 15.7 381.1 L 15.7 382.3 L 11.4 382.3 L 11.4 387.2 L 10.0 387.2 L 10.0 376.7 " fill="#000000"/>
<path class="legend" d="M 17.0 383.4 Q 17.0 381.5, 18.0 380.5 Q 18.9 379.5, 20.6 379.5 Q 22.2 379.5, 23.0 380.5 Q 23.7 381.5, 23.7 383.3 L 23.7 383.6 L 18.4 383.6 Q 18.5 384.8, 19.0 385.5 Q 19.6 386.2, 20.7 386.2 Q 21.3 386.2, 21.8 386.1 Q 22.4 385.9, 23.0 385.6 L 23.4 386.6 Q 22.7 386.9, 22.0 387.1 Q 21.3 387.3, 20.6 387.3 Q 18.9 387.3, 18.0 386.2 Q 17.0 385.2, 17.0 383.4 M 20.6 380.6 Q 19.7 380.6, 19.2 381.1 Q 18.7 381.6, 18.5 382.5 L 22.3 382.5 Q 22.2 381.5, 21.7 381.0 Q 21.3 380.6, 20.6 380.6 " fill="#000000"/>
<path class="legend" d="M 24.8 385.1 Q 24.8 383.9, 25.8 383.2 Q 26.7 382.6, 28.5 382.6 L 29.6 382.6 L 29.6 382.3 Q 29.6 381.3, 29.2 381.0 Q 28.8 380.6, 27.9 380.6 Q 27.3 380.6, 26.8 380.7 Q 26.4 380.8, 25.6 381.1 L 25.2 380.1 Q 26.6 379.5, 27.9 379.5 Q 29.5 379.5, 30.3 380.2 Q 31.0 380.8, 31.0 382.3 L 31.0 387.2 L 29.9 387.2 Q 29.9 387.1, 29.9 386.9 Q 29.8 386.6, 29.7 386.3 Q 28.7 387.3, 27.3 387.3 Q 26.1 387.3, 25.5 386.7 Q 24.8 386.1, 24.8 385.1 M 26.2 385.1 Q 26.2 385.6, 26.5 386.0 Q 26.9 386.2, 27.5 386.2 Q 28.1 386.2, 28.7 386.0 Q 29.2 385.7, 29.6 385.2 L 29.6 383.6 L 28.6 383.6 Q 27.4 383.6, 26.8 384.0 Q 26.2 384.4, 26.2 385.1 " fill="#000000"/>
<path class="legend" d="M 32.6 380.7 L 32.6 379.6 L 34.1 379.6 L 34.3 377.4 L 35.4 377.4 L 35.4 379.6 L 37.7 379.6 L 37.7 380.7 L 35.4 380.7 L 35.4 384.8 Q 35.4 386.1, 36.5 386.1 Q 36.9 386.1, 37.5 385.9 L 37.8 386.9 Q 37.0 387.2, 36.2 387.2 Q 35.2 387.2, 34.6 386.7 Q 34.0 386.1, 34.0 384.9 L 34.0 380.7 L 32.6 380.7 " fill="#000000"/>
<path class="legend" d="M 45.1 379.6 L 45.1 387.2 L 44.0 387.2 L 43.8 386.1 Q 42.8 387.3, 41.2 387.3 Q 40.0 387.3, 39.3 386.6 Q 38.7 385.9, 38.7 384.6 L 38.7 379.6 L 40.0 379.6 L 40.0 384.5 Q 40.0 385.4, 40.4 385.8 Q 40.7 386.2, 41.5 386.2 Q 42.2 386.2, 42.8 385.9 Q 43.3 385.6, 43.7 385.0 L 43.7 379.6 L 45.1 379.6 " fill="#000000"/>
<path class="legend" d="M 47.9 379.6 L 48.1 380.6 Q 48.9 379.5, 50.2 379.5 Q 50.6 379.5, 51.1 379.6 L 50.9 380.8 Q 50.3 380.7, 49.9 380.7 Q 49.3 380.7, 48.9 381.0 Q 48.5 381.2, 48.2 381.8 L 48.2 387.2 L 46.8 387.2 L 46.8 379.6 L 47.9 379.6 " fill="#000000"/>
<path class="legend" d="M 51.9 383.4 Q 51.9 381.5, 52.8 380.5 Q 53.7 379.5, 55.4 379.5 Q 57.1 379.5, 57.8 380.5 Q 58.6 381.5, 58.6 383.3 L 58.6 383.6 L 53.3 383.6 Q 53.3 384.8, 53.9 385.5 Q 54.5 386.2, 55.5 386.2 Q 56.1 386.2, 56.7 386.1 Q 57.2 385.9, 57.9 385.6 L 58.3 386.6 Q 57.5 386.9, 56.8 387.1 Q 56.2 387.3, 55.5 387.3 Q 53.8 387.3, 52.8 386.2 Q 51.9 385.2, 51.9 383.4 M 55.4 380.6 Q 54.5 380.6, 54.0 381.1 Q 53.5 381.6, 53.3 382.5 L 57.1 382.5 Q 57.0 381.5, 56.6 381.0 Q 56.2 380.6, 55.4 380.6 " fill="#000000"/>
<path class="legend" d="" fill="#000000"/>
<path class="legend" d="M 65.6 386.0 L 67.9 386.0 L 67.9 378.2 L 65.4 379.0 L 65.0 378.1 L 68.2 376.7 L 69.3 376.9 L 69.3 386.0 L 71.3 386.0 L 71.3 387.2 L 65.6 387.2 L 65.6 386.0 " fill="#000000"/>
<path class="legend" d="M 73.0 386.0 L 75.3 386.0 L 75.3 378.2 L 72.8 379.0 L 72.4 378.1 L 75.6 376.7 L 76.7 376.9 L 76.7 386.0 L 78.7 386.0 L 78.7 387.2 L 73.0 387.2 L 73.0 386.0 " fill="#000000"/>
<path class="legend" d="M 83.4 376.6 Q 85.2 376.6, 86.1 377.9 Q 87.1 379.1, 87.1 381.6 Q 87.1 384.4, 85.9 385.9 Q 84.8 387.3, 82.5 387.3 Q 81.9 387.3, 81.3 387.1 Q 80.8 387.0, 80.3 386.7 L 80.8 385.7 Q 81.6 386.1, 82.5 386.1 Q 84.0 386.1, 84.8 385.2 Q 85.5 384.2, 85.6 382.2 Q 85.1 382.7, 84.4 383.0 Q 83.7 383.2, 83.0 383.2 Q 82.1 383.2, 81.4 382.8 Q 80.6 382.5, 80.2 381.7 Q 79.9 381.0, 79.9 380.1 Q 79.9 379.1, 80.3 378.3 Q 80.7 377.5, 81.5 377.1 Q 82.3 376.6, 83.4 376.6 M 81.3 380.1 Q 81.3 381.0, 81.8 381.5 Q 82.4 382.1, 83.3 382.1 Q 83.9 382.1, 84.5 381.8 Q 85.1 381.6, 85.6 381.1 Q 85.5 379.4, 85.0 378.6 Q 84.4 377.8, 83.3 377.8 Q 82.8 377.8, 82.3 378.1 Q 81.9 378.4, 81.6 378.9 Q 81.3 379.5, 81.3 380.1 " fill="#000000"/>
<path class="legend" d="M 92.1 376.6 Q 93.9 376.6, 94.9 377.9 Q 95.8 379.1, 95.8 381.6 Q 95.8 384.4, 94.6 385.9 Q 93.5 387.3, 91.3 387.3 Q 90.6 387.3, 90.1 387.1 Q 89.5 387.0, 89.0 386.7 L 89.6 385.7 Q 90.3 386.1, 91.3 386.1 Q 92.7 386.1, 93.5 385.2 Q 94.2 384.2, 94.3 382.2 Q 93.8 382.7, 93.1 383.0 Q 92.5 383.2, 91.7 383.2 Q 90.8 383.2, 90.1 382.8 Q 89.4 382.5, 89.0 381.7 Q 88.6 381.0, 88.6 380.1 Q 88.6 379.1, 89.0 378.3 Q 89.5 377.5, 90.3 377.1 Q 91.1 376.6, 92.1 376.6 M 90.1 380.1 Q 90.1 381.0, 90.6 381.5 Q 91.1 382.1, 92.0 382.1 Q 92.6 382.1, 93.2 381.8 Q 93.9 381.6, 94.3 381.1 Q 94.3 379.4, 93.7 378.6 Q 93.2 377.8, 92.1 377.8 Q 91.5 377.8, 91.0 378.1 Q 90.6 378.4, 90.3 378.9 Q 90.1 379.5, 90.1 380.1 " fill="#000000"/>
<path class="legend" d="" fill="#000000"/>
<path class="legend" d="M 102.7 375.8 L 104.0 375.8 L 104.0 390.0 L 102.7 390.0 L 102.7 375.8 " fill="#000000"/>
<path class="legend" d="" fill="#000000"/>
<path class="legend" d="M 111.5 385.5 Q 111.6 385.6, 112.1 385.8 Q 112.6 386.0, 113.1 386.1 Q 113.7 386.2, 114.2 386.2 Q 115.2 386.2, 115.8 385.8 Q 116.4 385.3, 116.4 384.5 Q 116.4 383.9, 116.1 383.5 Q 115.8 383.2, 115.3 383.0 Q 114.9 382.8, 114.2 382.6 Q 113.2 382.3, 112.7 382.0 Q 112.1 381.8, 111.7 381.2 Q 111.3 380.6, 111.3 379.7 Q 111.3 378.4, 112.2 377.6 Q 113.1 376.8, 114.9 376.8 Q 116.1 376.8, 117.5 377.3 L 117.1 378.5 Q 115.9 378.0, 114.9 378.0 Q 113.9 378.0, 113.4 378.4 Q 112.8 378.8, 112.8 379.5 Q 112.8 380.1, 113.1 380.4 Q 113.4 380.8, 113.8 381.0 Q 114.2 381.1, 114.9 381.4 Q 115.9 381.7, 116.4 382.0 Q 117.0 382.2, 117.4 382.8 Q 117.8 383.4, 117.8 384.5 Q 117.8 385.9, 116.8 386.7 Q 115.9 387.4, 114.3 387.4 Q 113.4 387.4, 112.6 387.2 Q 112.0 387.0, 111.1 386.7 L 111.5 385.5 " fill="#000000"/>
<path class="legend" d="M 119.0 376.7 L 120.4 376.7 L 120.4 381.2 L 125.7 381.2 L 125.7 376.7 L 127.2 376.7 L 127.2 387.2 L 125.7 387.2 L 125.7 382.3 L 120.4 382.3 L 120.4 387.2 L 119.0 387.2 L 119.0 376.7 " fill="#000000"/>
<path class="legend" d="M 136.6 387.2 L 135.5 384.1 L 131.4 384.1 L 130.3 387.2 L 128.9 387.2 L 132.5 376.7 L 134.2 376.7 L 138.0 387.2 L 136.6 387.2 M 131.8 382.9 L 135.1 382.9 L 133.4 378.2 L 131.8 382.9 " fill="#000000"/>
<path class="legend" d="M 141.7 376.7 Q 143.5 376.7, 144.4 377.6 Q 145.3 378.3, 145.3 379.8 Q 145.3 381.2, 144.4 382.1 Q 143.5 382.9, 141.7 382.9 L 140.1 382.9 L 140.1 387.2 L 138.6 387.2 L 138.6 376.7 L 141.7 376.7 M 141.7 381.7 Q 142.7 381.7, 143.3 381.2 Q 143.8 380.7, 143.8 379.8 Q 143.8 378.9, 143.3 378.4 Q 142.8 377.9, 141.7 377.9 L 140.1 377.9 L 140.1 381.7 L 141.7 381.7 " fill="#000000"/>
<path class="legend" d="M 146.5 385.4 L 148.0 385.4 L 148.0 386.9 L 146.5 386.9 L 146.5 385.4 M 146.5 380.4 L 148.0 380.4 L 148.0 381.8 L 146.5 381.8 L 146.5 380.4 " fill="#000000"/>
<path class="legend" d="" fill="#000000"/>
<path class="legend" d="M 155.0 378.7 Q 155.4 377.7, 156.3 377.2 Q 157.2 376.6, 158.5 376.6 Q 160.1 376.6, 160.9 377.5 Q 161.8 378.3, 161.8 379.8 Q 161.8 381.4, 160.7 382.8 Q 159.5 384.3, 157.2 386.0 L 162.0 386.0 L 162.0 387.2 L 155.0 387.2 L 155.0 386.2 Q 156.9 384.8, 158.1 383.8 Q 159.2 382.7, 159.8 381.8 Q 160.4 380.9, 160.4 379.9 Q 160.4 378.9, 159.9 378.4 Q 159.4 377.8, 158.5 377.8 Q 157.7 377.8, 157.1 378.1 Q 156.5 378.5, 156.1 379.2 L 155.0 378.7 " fill="#000000"/>
<path class="legend" d="M 164.0 386.0 L 166.2 386.0 L 166.2 378.2 L 163.7 379.0 L 163.4 378.1 L 166.6 376.7 L 167.6 376.9 L 167.6 386.0 L 169.7 386.0 L 169.7 387.2 L 164.0 387.2 L 164.0 386.0 " fill="#000000"/>
<path class="legend" d="M 170.8 385.7 L 172.3 385.7 L 172.3 387.2 L 170.8 387.2 L 170.8 385.7 " fill="#000000"/>
<path class="legend" d="M 180.5 383.6 L 181.8 383.6 L 181.8 384.8 L 180.5 384.8 L 180.5 387.2 L 179.1 387.2 L 179.1 384.8 L 173.7 384.8 L 173.7 383.8 L 178.3 376.7 L 180.5 376.7 L 180.5 383.6 M 175.4 383.6 L 179.1 383.6 L 179.1 377.7 L 175.4 383.6 " fill="#000000"/>
<path class="legend" d="M 183.0 378.7 Q 183.4 377.7, 184.3 377.2 Q 185.2 376.6, 186.5 376.6 Q 188.1 376.6, 188.9 377.5 Q 189.8 378.3, 189.8 379.8 Q 189.8 381.4, 188.7 382.8 Q 187.5 384.3, 185.2 386.0 L 190.0 386.0 L 190.0 387.2 L 183.0 387.2 L 183.0 386.2 Q 184.9 384.8, 186.1 383.8 Q 187.2 382.7, 187.8 381.8 Q 188.4 380.9, 188.4 379.9 Q 188.4 378.9, 187.9 378.4 Q 187.4 377.8, 186.5 377.8 Q 185.6 377.8, 185.1 378.1 Q 184.5 378.5, 184.1 379.2 L 183.0 378.7 " fill="#000000"/>
<ellipse cx="282.0" cy="280.3" rx="7.9" ry="7.9" class="atom-1" style="fill:#9999E5;fill-rule:evenodd;stroke:#9999E5;stroke-width:1.0px;stroke-linecap:butt;stroke-linejoin:miter;stroke-opacity:1"/>
<ellipse cx="284.8" cy="319.7" rx="7.9" ry="7.9" class="atom-2" style="fill:#CCCCCC;fill-rule:evenodd;stroke:#CCCCCC;stroke-width:1.0px;stroke-linecap:butt;stroke-linejoin:miter;stroke-opacity:1"/>
<ellipse cx="318.6" cy="265.6" rx="7.9" ry="7.9" class="atom-5" style="fill:#CCCCCC;fill-rule:evenodd;stroke:#CCCCCC;stroke-width:1.0px;stroke-linecap:butt;stroke-linejoin:miter;stroke-opacity:1"/>
<path class="bond-0 atom-0 atom-1" d="M 256.6,260.9 L 271.0,269.9" style="fill:none;fill-rule:evenodd;stroke:#FF0000;stroke-width:2.0px;stroke-linecap:butt;stroke-linejoin:miter;stroke-opacity:1"/>
<path class="bond-0 atom-0 atom-1" d="M 271.0,269.9 L 285.4,279.0" style="fill:none;fill-rule:evenodd;stroke:#000000;stroke-width:2.0px;stroke-linecap:butt;stroke-linejoin:miter;stroke-opacity:1"/>
<path class="bond-0 atom-0 atom-1" d="M 253.5,265.9 L 267.9,274.9" style="fill:none;fill-rule:evenodd;stroke:#FF0000;stroke-width:2.0px;stroke-linecap:butt;stroke-linejoin:miter;stroke-opacity:1"/>
<path class="bond-0 atom-0 atom-1" d="M 267.9,274.9 L 282.3,284.0" style="fill:none;fill-rule:evenodd;stroke:#000000;stroke-width:2.0px;stroke-linecap:butt;stroke-linejoin:miter;stroke-opacity:1"/>
<path class="bond-1 atom-1 atom-2" d="M 282.0,280.3 L 284.8,319.7" style="fill:none;fill-rule:evenodd;stroke:#000000;stroke-width:2.0px;stroke-linecap:butt;stroke-linejoin:miter;stroke-opacity:1"/>
<path class="bond-2 atom-2 atom-3" d="M 284.8,319.7 L 319.1,328.3" style="fill:none;fill-rule:evenodd;stroke:#E5E5E5;stroke-width:2.1px;stroke-linecap:butt;stroke-linejoin:miter;stroke-opacity:1"/>
<path class="bond-2 atom-2 atom-3" d="M 290.4,315.0 L 320.5,322.5" style="fill:none;fill-rule:evenodd;stroke:#E5E5E5;stroke-width:2.1px;stroke-linecap:butt;stroke-linejoin:miter;stroke-opacity:1"/>
<path class="bond-3 atom-4 atom-5" d="M 337.0,286.6 L 336.1,287.4" style="fill:none;fill-rule:evenodd;stroke:#E5E5E5;stroke-width:1.0px;stroke-linecap:butt;stroke-linejoin:miter;stroke-opacity:1"/>
<path class="bond-3 atom-4 atom-5" d="M 335.3,283.6 L 333.5,285.2" style="fill:none;fill-rule:evenodd;stroke:#E5E5E5;stroke-width:1.0px;stroke-linecap:butt;stroke-linejoin:miter;stroke-opacity:1"/>
<path class="bond-3 atom-4 atom-5" d="M 333.6,280.7 L 330.9,283.0" style="fill:none;fill-rule:evenodd;stroke:#E5E5E5;stroke-width:1.0px;stroke-linecap:butt;stroke-linejoin:miter;stroke-opacity:1"/>
<path class="bond-3 atom-4 atom-5" d="M 331.9,277.7 L 328.3,280.7" style="fill:none;fill-rule:evenodd;stroke:#E5E5E5;stroke-width:1.0px;stroke-linecap:butt;stroke-linejoin:miter;stroke-opacity:1"/>
<path class="bond-3 atom-4 atom-5" d="M 330.2,274.8 L 325.6,278.5" style="fill:none;fill-rule:evenodd;stroke:#E5E5E5;stroke-width:1.0px;stroke-linecap:butt;stroke-linejoin:miter;stroke-opacity:1"/>
<path class="bond-4 atom-5 atom-1" d="M 312.2,268.2 L 282.0,280.3" style="fill:none;fill-rule:evenodd;stroke:#000000;stroke-width:2.0px;stroke-linecap:butt;stroke-linejoin:miter;stroke-opacity:1"/>
<path d="M 282.2,282.3 L 282.0,280.3 L 283.6,279.7" style="fill:none;stroke:#000000;stroke-width:2.0px;stroke-linecap:butt;stroke-linejoin:miter;stroke-miterlimit:10;stroke-opacity:1;"/>
<path d="M 284.7,318.7 L 284.8,319.7 L 285.6,319.9" style="fill:none;stroke:#000000;stroke-width:2.0px;stroke-linecap:butt;stroke-linejoin:miter;stroke-miterlimit:10;stroke-opacity:1;"/>
<path class="atom-0" d="M 243.5 259.4 Q 243.5 256.7, 244.8 255.2 Q 246.1 253.7, 248.6 253.7 Q 251.1 253.7, 252.4 255.2 Q 253.7 256.7, 253.7 259.4 Q 253.7 262.1, 252.4 263.7 Q 251.1 265.2, 248.6 265.2 Q 246.2 265.2, 244.8 263.7 Q 243.5 262.1, 243.5 259.4 M 248.6 263.9 Q 250.3 263.9, 251.2 262.8 Q 252.2 261.7, 252.2 259.4 Q 252.2 257.2, 251.2 256.1 Q 250.3 255.0, 248.6 255.0 Q 246.9 255.0, 246.0 256.1 Q 245.1 257.2, 245.1 259.4 Q 245.1 261.7, 246.0 262.8 Q 246.9 263.9, 248.6 263.9 " fill="#FF0000"/>
<path class="atom-3" d="M 321.6 325.1 L 323.3 323.5 L 321.1 323.0 L 321.4 321.9 L 323.4 322.9 L 323.1 320.7 L 324.3 320.7 L 324.0 322.9 L 326.0 321.9 L 326.4 323.0 L 324.2 323.4 L 325.7 325.1 L 324.8 325.8 L 323.7 323.7 L 322.6 325.8 L 321.6 325.1 " fill="#191919"/>
<path class="atom-4" d="M 341.8 294.6 L 343.5 292.9 L 341.3 292.5 L 341.6 291.3 L 343.6 292.3 L 343.4 290.2 L 344.5 290.1 L 344.2 292.3 L 346.2 291.4 L 346.6 292.5 L 344.4 292.9 L 346.0 294.6 L 345.0 295.3 L 343.9 293.2 L 342.8 295.3 L 341.8 294.6 " fill="#191919"/>
<path class="atom-4" d="M 347.8 290.3 L 349.3 290.3 L 349.3 295.1 L 355.0 295.1 L 355.0 290.3 L 356.5 290.3 L 356.5 301.5 L 355.0 301.5 L 355.0 296.3 L 349.3 296.3 L 349.3 301.5 L 347.8 301.5 L 347.8 290.3 " fill="#191919"/>
<path class="atom-5" d="M 313.5 265.6 Q 313.5 262.9, 314.8 261.4 Q 316.2 259.9, 318.6 259.9 Q 321.1 259.9, 322.4 261.4 Q 323.8 262.9, 323.8 265.6 Q 323.8 268.3, 322.4 269.9 Q 321.1 271.4, 318.6 271.4 Q 316.2 271.4, 314.8 269.9 Q 313.5 268.3, 313.5 265.6 M 318.6 270.1 Q 320.3 270.1, 321.2 269.0 Q 322.2 267.9, 322.2 265.6 Q 322.2 263.4, 321.2 262.3 Q 320.3 261.2, 318.6 261.2 Q 316.9 261.2, 316.0 262.3 Q 315.1 263.4, 315.1 265.6 Q 315.1 267.9, 316.0 269.0 Q 316.9 270.1, 318.6 270.1 " fill="#000000"/>
<path class="legend" d="M 210.0 377.3 L 215.9 377.3 L 215.9 378.5 L 211.3 378.5 L 211.3 381.5 L 215.4 381.5 L 215.4 382.6 L 211.3 382.6 L 211.3 387.3 L 210.0 387.3 L 210.0 377.3 " fill="#000000"/>
<path class="legend" d="M 216.7 383.7 Q 216.7 381.9, 217.6 380.9 Q 218.5 379.9, 220.1 379.9 Q 221.7 379.9, 222.4 380.9 Q 223.1 381.8, 223.1 383.6 L 223.1 383.8 L 218.1 383.8 Q 218.1 385.1, 218.6 385.7 Q 219.2 386.4, 220.2 386.4 Q 220.8 386.4, 221.3 386.2 Q 221.8 386.1, 222.4 385.8 L 222.8 386.7 Q 222.1 387.1, 221.5 387.2 Q 220.8 387.4, 220.1 387.4 Q 218.5 387.4, 217.6 386.4 Q 216.7 385.4, 216.7 383.7 M 220.1 381.0 Q 219.3 381.0, 218.8 381.5 Q 218.3 381.9, 218.1 382.9 L 221.7 382.9 Q 221.6 381.9, 221.2 381.4 Q 220.8 381.0, 220.1 381.0 " fill="#000000"/>
<path class="legend" d="M 224.1 385.3 Q 224.1 384.2, 225.1 383.5 Q 226.0 382.9, 227.7 382.9 L 228.8 382.9 L 228.8 382.6 Q 228.8 381.7, 228.4 381.4 Q 228.0 381.0, 227.1 381.0 Q 226.5 381.0, 226.1 381.1 Q 225.6 381.2, 224.9 381.5 L 224.5 380.6 Q 225.9 379.9, 227.1 379.9 Q 228.7 379.9, 229.4 380.6 Q 230.1 381.2, 230.1 382.7 L 230.1 387.3 L 229.1 387.3 Q 229.0 387.2, 229.0 387.0 Q 229.0 386.8, 228.9 386.4 Q 227.9 387.5, 226.5 387.5 Q 225.4 387.5, 224.8 386.9 Q 224.1 386.3, 224.1 385.3 M 225.5 385.3 Q 225.5 385.8, 225.8 386.1 Q 226.1 386.4, 226.8 386.4 Q 227.3 386.4, 227.9 386.2 Q 228.4 385.9, 228.8 385.4 L 228.8 383.9 L 227.8 383.9 Q 226.6 383.9, 226.0 384.3 Q 225.5 384.6, 225.5 385.3 " fill="#000000"/>
<path class="legend" d="M 231.6 381.1 L 231.6 380.1 L 233.0 380.1 L 233.3 378.0 L 234.2 378.0 L 234.2 380.1 L 236.4 380.1 L 236.4 381.1 L 234.2 381.1 L 234.2 385.1 Q 234.2 386.3, 235.3 386.3 Q 235.7 386.3, 236.3 386.1 L 236.6 387.0 Q 235.8 387.4, 235.1 387.4 Q 234.1 387.4, 233.5 386.8 Q 232.9 386.2, 232.9 385.1 L 232.9 381.1 L 231.6 381.1 " fill="#000000"/>
<path class="legend" d="M 243.5 380.1 L 243.5 387.3 L 242.5 387.3 L 242.3 386.3 Q 241.4 387.4, 239.9 387.4 Q 238.6 387.4, 238.0 386.8 Q 237.4 386.1, 237.4 384.8 L 237.4 380.1 L 238.7 380.1 L 238.7 384.7 Q 238.7 385.6, 239.0 386.0 Q 239.4 386.4, 240.1 386.4 Q 240.8 386.4, 241.3 386.1 Q 241.9 385.8, 242.2 385.2 L 242.2 380.1 L 243.5 380.1 " fill="#000000"/>
<path class="legend" d="M 246.2 380.1 L 246.4 381.1 Q 247.2 379.9, 248.4 379.9 Q 248.8 379.9, 249.3 380.1 L 249.1 381.3 Q 248.5 381.1, 248.2 381.1 Q 247.6 381.1, 247.2 381.4 Q 246.8 381.6, 246.5 382.1 L 246.5 387.3 L 245.2 387.3 L 245.2 380.1 L 246.2 380.1 " fill="#000000"/>
<path class="legend" d="M 250.0 383.7 Q 250.0 381.9, 250.9 380.9 Q 251.8 379.9, 253.4 379.9 Q 255.0 379.9, 255.7 380.9 Q 256.4 381.8, 256.4 383.6 L 256.4 383.8 L 251.4 383.8 Q 251.4 385.1, 252.0 385.7 Q 252.5 386.4, 253.5 386.4 Q 254.1 386.4, 254.6 386.2 Q 255.1 386.1, 255.8 385.8 L 256.1 386.7 Q 255.4 387.1, 254.8 387.2 Q 254.1 387.4, 253.5 387.4 Q 251.8 387.4, 250.9 386.4 Q 250.0 385.4, 250.0 383.7 M 253.4 381.0 Q 252.6 381.0, 252.1 381.5 Q 251.6 381.9, 251.4 382.9 L 255.0 382.9 Q 254.9 381.9, 254.5 381.4 Q 254.1 381.0, 253.4 381.0 " fill="#000000"/>
<path class="legend" d="" fill="#000000"/>
<path class="legend" d="M 263.2 386.2 L 265.3 386.2 L 265.3 378.7 L 262.9 379.5 L 262.6 378.6 L 265.7 377.3 L 266.7 377.4 L 266.7 386.2 L 268.6 386.2 L 268.6 387.3 L 263.2 387.3 L 263.2 386.2 " fill="#000000"/>
<path class="legend" d="M 274.8 382.0 Q 275.7 382.4, 276.2 383.0 Q 276.7 383.6, 276.7 384.6 Q 276.7 385.4, 276.3 386.1 Q 275.9 386.7, 275.1 387.1 Q 274.3 387.4, 273.3 387.4 Q 271.6 387.4, 270.7 386.7 Q 269.7 385.9, 269.7 384.6 Q 269.7 383.7, 270.1 383.1 Q 270.5 382.5, 271.4 382.1 Q 270.8 381.7, 270.4 381.2 Q 270.1 380.6, 270.1 379.8 Q 270.1 378.6, 270.9 377.9 Q 271.8 377.2, 273.2 377.2 Q 274.7 377.2, 275.5 377.9 Q 276.4 378.6, 276.4 379.8 Q 276.4 380.5, 276.0 381.0 Q 275.6 381.6, 274.8 382.0 M 273.2 378.3 Q 272.4 378.3, 271.9 378.7 Q 271.5 379.1, 271.5 379.8 Q 271.5 380.3, 271.8 380.6 Q 272.1 381.0, 272.5 381.2 Q 273.0 381.4, 273.8 381.7 Q 274.4 381.2, 274.7 380.8 Q 275.0 380.3, 275.0 379.8 Q 275.0 379.1, 274.5 378.7 Q 274.0 378.3, 273.2 378.3 M 273.3 386.4 Q 274.2 386.4, 274.8 385.9 Q 275.3 385.4, 275.3 384.5 Q 275.3 384.0, 275.0 383.7 Q 274.7 383.3, 274.3 383.1 Q 273.8 382.9, 273.1 382.7 L 272.4 382.5 Q 271.7 382.9, 271.4 383.4 Q 271.1 383.9, 271.1 384.5 Q 271.1 385.4, 271.7 385.9 Q 272.3 386.4, 273.3 386.4 " fill="#000000"/>
<path class="legend" d="M 278.1 379.2 Q 278.5 378.3, 279.4 377.8 Q 280.2 377.2, 281.4 377.2 Q 282.9 377.2, 283.8 378.0 Q 284.6 378.9, 284.6 380.3 Q 284.6 381.8, 283.5 383.2 Q 282.5 384.5, 280.2 386.2 L 284.8 386.2 L 284.8 387.3 L 278.1 387.3 L 278.1 386.3 Q 280.0 385.0, 281.1 384.0 Q 282.2 383.1, 282.7 382.2 Q 283.2 381.3, 283.2 380.4 Q 283.2 379.4, 282.8 378.9 Q 282.3 378.3, 281.4 378.3 Q 280.6 378.3, 280.1 378.7 Q 279.6 379.0, 279.2 379.7 L 278.1 379.2 " fill="#000000"/>
<path class="legend" d="M 289.5 377.2 Q 291.3 377.2, 292.1 378.4 Q 293.0 379.6, 293.0 382.0 Q 293.0 384.7, 291.9 386.0 Q 290.8 387.4, 288.7 387.4 Q 288.1 387.4, 287.6 387.3 Q 287.0 387.1, 286.5 386.8 L 287.1 385.9 Q 287.8 386.3, 288.7 386.3 Q 290.1 386.3, 290.8 385.4 Q 291.5 384.5, 291.6 382.6 Q 291.1 383.1, 290.5 383.3 Q 289.8 383.5, 289.1 383.5 Q 288.3 383.5, 287.6 383.2 Q 286.9 382.8, 286.5 382.1 Q 286.1 381.4, 286.1 380.5 Q 286.1 379.6, 286.6 378.8 Q 287.0 378.1, 287.8 377.6 Q 288.5 377.2, 289.5 377.2 M 287.5 380.5 Q 287.5 381.4, 288.0 381.9 Q 288.5 382.4, 289.4 382.4 Q 290.0 382.4, 290.6 382.2 Q 291.2 381.9, 291.6 381.5 Q 291.6 379.9, 291.0 379.1 Q 290.5 378.4, 289.5 378.4 Q 288.9 378.4, 288.5 378.7 Q 288.0 378.9, 287.8 379.4 Q 287.5 379.9, 287.5 380.5 " fill="#000000"/>
<path class="legend" d="" fill="#000000"/>
<path class="legend" d="M 299.7 376.4 L 300.8 376.4 L 300.8 390.0 L 299.7 390.0 L 299.7 376.4 " fill="#000000"/>
<path class="legend" d="" fill="#000000"/>
<path class="legend" d="M 308.1 385.7 Q 308.2 385.8, 308.6 386.0 Q 309.1 386.2, 309.6 386.3 Q 310.1 386.4, 310.6 386.4 Q 311.6 386.4, 312.1 386.0 Q 312.7 385.5, 312.7 384.7 Q 312.7 384.2, 312.4 383.8 Q 312.1 383.5, 311.7 383.3 Q 311.3 383.1, 310.6 382.9 Q 309.7 382.6, 309.2 382.4 Q 308.6 382.1, 308.3 381.6 Q 307.9 381.1, 307.9 380.2 Q 307.9 378.9, 308.7 378.1 Q 309.6 377.4, 311.3 377.4 Q 312.4 377.4, 313.8 377.9 L 313.4 379.0 Q 312.2 378.5, 311.3 378.5 Q 310.4 378.5, 309.8 378.9 Q 309.3 379.3, 309.3 380.0 Q 309.3 380.5, 309.6 380.9 Q 309.9 381.2, 310.3 381.4 Q 310.7 381.5, 311.3 381.8 Q 312.2 382.0, 312.8 382.3 Q 313.3 382.6, 313.7 383.2 Q 314.1 383.7, 314.1 384.7 Q 314.1 386.1, 313.1 386.8 Q 312.2 387.6, 310.7 387.6 Q 309.8 387.6, 309.1 387.4 Q 308.5 387.2, 307.7 386.9 L 308.1 385.7 " fill="#000000"/>
<path class="legend" d="M 315.2 377.3 L 316.6 377.3 L 316.6 381.6 L 321.7 381.6 L 321.7 377.3 L 323.0 377.3 L 323.0 387.3 L 321.7 387.3 L 321.7 382.7 L 316.6 382.7 L 316.6 387.3 L 315.2 387.3 L 315.2 377.3 " fill="#000000"/>
<path class="legend" d="M 332.0 387.3 L 331.0 384.4 L 327.0 384.4 L 326.0 387.3 L 324.7 387.3 L 328.1 377.3 L 329.8 377.3 L 333.3 387.3 L 332.0 387.3 M 327.4 383.2 L 330.6 383.2 L 329.0 378.7 L 327.4 383.2 " fill="#000000"/>
<path class="legend" d="M 336.9 377.3 Q 338.6 377.3, 339.5 378.1 Q 340.3 378.9, 340.3 380.3 Q 340.3 381.6, 339.5 382.4 Q 338.6 383.2, 336.9 383.2 L 335.3 383.2 L 335.3 387.3 L 334.0 387.3 L 334.0 377.3 L 336.9 377.3 M 336.9 382.1 Q 337.9 382.1, 338.4 381.6 Q 338.9 381.1, 338.9 380.3 Q 338.9 379.4, 338.4 378.9 Q 337.9 378.5, 336.9 378.5 L 335.3 378.5 L 335.3 382.1 L 336.9 382.1 " fill="#000000"/>
<path class="legend" d="M 341.5 385.6 L 342.9 385.6 L 342.9 387.0 L 341.5 387.0 L 341.5 385.6 M 341.5 380.8 L 342.9 380.8 L 342.9 382.2 L 341.5 382.2 L 341.5 380.8 " fill="#000000"/>
<path class="legend" d="" fill="#000000"/>
<path class="legend" d="M 349.6 382.2 L 354.8 382.2 L 354.8 383.4 L 349.6 383.4 L 349.6 382.2 " fill="#000000"/>
<path class="legend" d="M 356.0 379.2 Q 356.4 378.3, 357.2 377.8 Q 358.1 377.2, 359.3 377.2 Q 360.8 377.2, 361.7 378.0 Q 362.5 378.9, 362.5 380.3 Q 362.5 381.8, 361.4 383.2 Q 360.3 384.5, 358.1 386.2 L 362.7 386.2 L 362.7 387.3 L 356.0 387.3 L 356.0 386.3 Q 357.8 385.0, 358.9 384.0 Q 360.0 383.1, 360.6 382.2 Q 361.1 381.3, 361.1 380.4 Q 361.1 379.4, 360.6 378.9 Q 360.1 378.3, 359.3 378.3 Q 358.5 378.3, 358.0 378.7 Q 357.4 379.0, 357.1 379.7 L 356.0 379.2 " fill="#000000"/>
<path class="legend" d="M 367.6 387.4 Q 365.8 387.4, 364.9 386.1 Q 364.0 384.7, 364.0 382.3 Q 364.0 379.9, 364.9 378.6 Q 365.8 377.2, 367.6 377.2 Q 369.5 377.2, 370.4 378.6 Q 371.3 379.9, 371.3 382.3 Q 371.3 384.7, 370.4 386.1 Q 369.5 387.4, 367.6 387.4 M 367.6 386.3 Q 368.7 386.3, 369.3 385.3 Q 369.9 384.3, 369.9 382.3 Q 369.9 380.3, 369.3 379.3 Q 368.7 378.3, 367.6 378.3 Q 366.6 378.3, 366.0 379.3 Q 365.4 380.3, 365.4 382.3 Q 365.4 384.3, 366.0 385.3 Q 366.6 386.3, 367.6 386.3 " fill="#000000"/>
<path class="legend" d="M 372.7 385.9 L 374.1 385.9 L 374.1 387.3 L 372.7 387.3 L 372.7 385.9 " fill="#000000"/>
<path class="legend" d="M 379.1 381.1 Q 380.0 381.1, 380.7 381.4 Q 381.4 381.8, 381.8 382.5 Q 382.2 383.2, 382.2 384.1 Q 382.2 385.2, 381.7 385.9 Q 381.2 386.6, 380.4 387.0 Q 379.6 387.4, 378.7 387.4 Q 377.8 387.4, 376.9 387.1 Q 376.1 386.7, 375.5 386.1 L 376.3 385.2 Q 376.8 385.7, 377.4 386.0 Q 378.1 386.3, 378.7 386.3 Q 379.6 386.3, 380.2 385.7 Q 380.8 385.2, 380.8 384.2 Q 380.8 383.1, 380.2 382.6 Q 379.6 382.1, 378.6 382.1 Q 377.8 382.1, 376.8 382.5 L 376.0 382.1 L 376.5 377.3 L 381.6 377.3 L 381.5 378.5 L 377.6 378.5 L 377.4 381.4 Q 378.2 381.1, 379.1 381.1 " fill="#000000"/>
<path class="legend" d="M 388.6 378.5 L 383.4 378.5 L 383.4 377.3 L 390.0 377.3 L 390.0 378.3 L 386.0 387.3 L 384.6 387.3 L 388.6 378.5 " fill="#000000"/>
<ellipse cx="452.0" cy="314.1" rx="7.9" ry="7.9" class="atom-1" style="fill:#E5E533;fill-rule:evenodd;stroke:#E5E533;stroke-width:1.0px;stroke-linecap:butt;stroke-linejoin:miter;stroke-opacity:1"/>
<ellipse cx="513.4" cy="344.1" rx="7.9" ry="7.9" class="atom-3" style="fill:#E5E533;fill-rule:evenodd;stroke:#E5E533;stroke-width:1.0px;stroke-linecap:butt;stroke-linejoin:miter;stroke-opacity:1"/>
<ellipse cx="530.7" cy="308.7" rx="7.9" ry="7.9" class="atom-4" style="fill:#E5E533;fill-rule:evenodd;stroke:#E5E533;stroke-width:1.0px;stroke-linecap:butt;stroke-linejoin:miter;stroke-opacity:1"/>
<ellipse cx="570.0" cy="306.0" rx="7.9" ry="7.9" class="atom-5" style="fill:#E5E533;fill-rule:evenodd;stroke:#E5E533;stroke-width:1.0px;stroke-linecap:butt;stroke-linejoin:miter;stroke-opacity:1"/>
<ellipse cx="565.3" cy="237.9" rx="7.9" ry="7.9" class="atom-7" style="fill:#E5E533;fill-rule:evenodd;stroke:#E5E533;stroke-width:1.0px;stroke-linecap:butt;stroke-linejoin:miter;stroke-opacity:1"/>
<ellipse cx="526.0" cy="240.6" rx="7.9" ry="7.9" class="atom-8" style="fill:#E5E533;fill-rule:evenodd;stroke:#E5E533;stroke-width:1.0px;stroke-linecap:butt;stroke-linejoin:miter;stroke-opacity:1"/>
<ellipse cx="508.7" cy="276.0" rx="7.9" ry="7.9" class="atom-9" style="fill:#9999E5;fill-rule:evenodd;stroke:#9999E5;stroke-width:1.0px;stroke-linecap:butt;stroke-linejoin:miter;stroke-opacity:1"/>
<ellipse cx="469.3" cy="278.7" rx="7.9" ry="7.9" class="atom-10" style="fill:#E5E533;fill-rule:evenodd;stroke:#E5E533;stroke-width:1.0px;stroke-linecap:butt;stroke-linejoin:miter;stroke-opacity:1"/>
<path class="bond-0 atom-0 atom-1" d="M 416.6,316.6 L 452.0,314.1" style="fill:none;fill-rule:evenodd;stroke:#E5E5E5;stroke-width:2.1px;stroke-linecap:butt;stroke-linejoin:miter;stroke-opacity:1"/>
<path class="bond-1 atom-1 atom-2" d="M 452.0,314.1 L 470.1,341.0" style="fill:none;fill-rule:evenodd;stroke:#E5E5E5;stroke-width:2.1px;stroke-linecap:butt;stroke-linejoin:miter;stroke-opacity:1"/>
<path class="bond-1 atom-1 atom-2" d="M 458.8,313.7 L 475.0,337.7" style="fill:none;fill-rule:evenodd;stroke:#E5E5E5;stroke-width:2.1px;stroke-linecap:butt;stroke-linejoin:miter;stroke-opacity:1"/>
<path class="bond-2 atom-2 atom-3" d="M 478.0,346.6 L 513.4,344.1" style="fill:none;fill-rule:evenodd;stroke:#E5E5E5;stroke-width:2.1px;stroke-linecap:butt;stroke-linejoin:miter;stroke-opacity:1"/>
<path class="bond-3 atom-3 atom-4" d="M 513.4,344.1 L 530.7,308.7" style="fill:none;fill-rule:evenodd;stroke:#000000;stroke-width:2.0px;stroke-linecap:butt;stroke-linejoin:miter;stroke-opacity:1"/>
<path class="bond-3 atom-3 atom-4" d="M 509.5,338.5 L 523.9,309.2" style="fill:none;fill-rule:evenodd;stroke:#000000;stroke-width:2.0px;stroke-linecap:butt;stroke-linejoin:miter;stroke-opacity:1"/>
<path class="bond-4 atom-4 atom-5" d="M 530.7,308.7 L 570.0,306.0" style="fill:none;fill-rule:evenodd;stroke:#000000;stroke-width:2.0px;stroke-linecap:butt;stroke-linejoin:miter;stroke-opacity:1"/>
<path class="bond-5 atom-5 atom-6" d="M 570.0,306.0 L 587.0,271.3" style="fill:none;fill-rule:evenodd;stroke:#E5E5E5;stroke-width:2.1px;stroke-linecap:butt;stroke-linejoin:miter;stroke-opacity:1"/>
<path class="bond-5 atom-5 atom-6" d="M 566.2,300.3 L 581.7,268.7" style="fill:none;fill-rule:evenodd;stroke:#E5E5E5;stroke-width:2.1px;stroke-linecap:butt;stroke-linejoin:miter;stroke-opacity:1"/>
<path class="bond-6 atom-6 atom-7" d="M 583.4,264.7 L 565.3,237.9" style="fill:none;fill-rule:evenodd;stroke:#E5E5E5;stroke-width:2.1px;stroke-linecap:butt;stroke-linejoin:miter;stroke-opacity:1"/>
<path class="bond-7 atom-7 atom-8" d="M 565.3,237.9 L 526.0,240.6" style="fill:none;fill-rule:evenodd;stroke:#000000;stroke-width:2.0px;stroke-linecap:butt;stroke-linejoin:miter;stroke-opacity:1"/>
<path class="bond-7 atom-7 atom-8" d="M 562.3,244.0 L 529.8,246.2" style="fill:none;fill-rule:evenodd;stroke:#000000;stroke-width:2.0px;stroke-linecap:butt;stroke-linejoin:miter;stroke-opacity:1"/>
<path class="bond-8 atom-8 atom-9" d="M 526.0,240.6 L 508.7,276.0" style="fill:none;fill-rule:evenodd;stroke:#000000;stroke-width:2.0px;stroke-linecap:butt;stroke-linejoin:miter;stroke-opacity:1"/>
<path class="bond-9 atom-9 atom-10" d="M 508.7,276.0 L 469.3,278.7" style="fill:none;fill-rule:evenodd;stroke:#000000;stroke-width:2.0px;stroke-linecap:butt;stroke-linejoin:miter;stroke-opacity:1"/>
<path class="bond-9 atom-9 atom-10" d="M 505.7,282.1 L 473.1,284.4" style="fill:none;fill-rule:evenodd;stroke:#000000;stroke-width:2.0px;stroke-linecap:butt;stroke-linejoin:miter;stroke-opacity:1"/>
<path class="bond-10 atom-10 atom-1" d="M 469.3,278.7 L 452.0,314.1" style="fill:none;fill-rule:evenodd;stroke:#000000;stroke-width:2.0px;stroke-linecap:butt;stroke-linejoin:miter;stroke-opacity:1"/>
<path class="bond-11 atom-9 atom-4" d="M 508.7,276.0 L 530.7,308.7" style="fill:none;fill-rule:evenodd;stroke:#000000;stroke-width:2.0px;stroke-linecap:butt;stroke-linejoin:miter;stroke-opacity:1"/>
<path d="M 512.5,344.2 L 513.4,344.1 L 513.8,343.3" style="fill:none;stroke:#E5E5E5;stroke-width:2.1px;stroke-linecap:butt;stroke-linejoin:miter;stroke-miterlimit:10;stroke-opacity:1;"/>
<path d="M 569.0,306.1 L 570.0,306.0 L 570.5,305.1" style="fill:none;stroke:#000000;stroke-width:2.0px;stroke-linecap:butt;stroke-linejoin:miter;stroke-miterlimit:10;stroke-opacity:1;"/>
<path d="M 565.8,238.5 L 565.3,237.9 L 564.3,237.9" style="fill:none;stroke:#E5E5E5;stroke-width:2.1px;stroke-linecap:butt;stroke-linejoin:miter;stroke-miterlimit:10;stroke-opacity:1;"/>
<path d="M 528.0,240.4 L 526.0,240.6 L 525.1,242.3" style="fill:none;stroke:#000000;stroke-width:2.0px;stroke-linecap:butt;stroke-linejoin:miter;stroke-miterlimit:10;stroke-opacity:1;"/>
<path d="M 471.3,278.6 L 469.3,278.7 L 468.4,280.5" style="fill:none;stroke:#000000;stroke-width:2.0px;stroke-linecap:butt;stroke-linejoin:miter;stroke-miterlimit:10;stroke-opacity:1;"/>
<path class="atom-0" d="M 410.5 315.6 L 412.2 313.9 L 410.0 313.5 L 410.3 312.4 L 412.3 313.4 L 412.1 311.2 L 413.2 311.2 L 412.9 313.4 L 414.9 312.4 L 415.3 313.5 L 413.1 313.9 L 414.7 315.6 L 413.7 316.3 L 412.6 314.2 L 411.5 316.3 L 410.5 315.6 " fill="#191919"/>
<path class="atom-2" d="M 471.9 345.6 L 473.5 343.9 L 471.4 343.5 L 471.7 342.4 L 473.7 343.4 L 473.4 341.2 L 474.6 341.2 L 474.3 343.4 L 476.3 342.4 L 476.7 343.5 L 474.4 343.9 L 476.0 345.6 L 475.1 346.3 L 474.0 344.2 L 472.9 346.3 L 471.9 345.6 " fill="#191919"/>
<path class="atom-6" d="M 585.3 269.3 L 586.9 267.7 L 584.7 267.2 L 585.0 266.1 L 587.0 267.1 L 586.8 264.9 L 587.9 264.9 L 587.6 267.1 L 589.7 266.1 L 590.0 267.2 L 587.8 267.6 L 589.4 269.3 L 588.4 270.0 L 587.3 267.9 L 586.2 270.0 L 585.3 269.3 " fill="#191919"/>
<path class="legend" d="M 410.0 376.3 L 416.4 376.3 L 416.4 377.5 L 411.4 377.5 L 411.4 380.8 L 415.9 380.8 L 415.9 382.0 L 411.4 382.0 L 411.4 387.1 L 410.0 387.1 L 410.0 376.3 " fill="#000000"/>
<path class="legend" d="M 417.3 383.1 Q 417.3 381.2, 418.2 380.2 Q 419.2 379.1, 420.9 379.1 Q 422.7 379.1, 423.4 380.1 Q 424.2 381.1, 424.2 383.1 L 424.2 383.3 L 418.7 383.3 Q 418.8 384.7, 419.4 385.4 Q 420.0 386.1, 421.1 386.1 Q 421.7 386.1, 422.2 385.9 Q 422.8 385.8, 423.5 385.5 L 423.9 386.4 Q 423.1 386.8, 422.4 387.0 Q 421.7 387.2, 421.0 387.2 Q 419.2 387.2, 418.2 386.1 Q 417.3 385.0, 417.3 383.1 M 420.9 380.2 Q 420.0 380.2, 419.5 380.7 Q 419.0 381.3, 418.8 382.3 L 422.7 382.3 Q 422.6 381.2, 422.2 380.7 Q 421.7 380.2, 420.9 380.2 " fill="#000000"/>
<path class="legend" d="M 425.3 384.9 Q 425.3 383.7, 426.3 383.0 Q 427.3 382.3, 429.2 382.3 L 430.3 382.3 L 430.3 382.0 Q 430.3 381.0, 429.9 380.6 Q 429.5 380.2, 428.5 380.2 Q 427.9 380.2, 427.4 380.3 Q 426.9 380.4, 426.2 380.8 L 425.8 379.8 Q 427.2 379.1, 428.6 379.1 Q 430.2 379.1, 431.0 379.8 Q 431.8 380.5, 431.8 382.0 L 431.8 387.1 L 430.6 387.1 Q 430.6 387.0, 430.6 386.8 Q 430.5 386.5, 430.4 386.1 Q 429.3 387.2, 427.9 387.2 Q 426.7 387.2, 426.0 386.6 Q 425.3 386.0, 425.3 384.9 M 426.7 384.9 Q 426.7 385.5, 427.1 385.8 Q 427.5 386.1, 428.2 386.1 Q 428.8 386.1, 429.3 385.8 Q 429.9 385.6, 430.3 385.1 L 430.3 383.4 L 429.3 383.4 Q 428.0 383.4, 427.4 383.8 Q 426.7 384.1, 426.7 384.9 " fill="#000000"/>
<path class="legend" d="M 433.5 380.3 L 433.5 379.2 L 434.9 379.2 L 435.2 376.9 L 436.3 376.9 L 436.3 379.2 L 438.7 379.2 L 438.7 380.3 L 436.3 380.3 L 436.3 384.7 Q 436.3 386.0, 437.4 386.0 Q 437.9 386.0, 438.5 385.8 L 438.8 386.8 Q 437.9 387.2, 437.1 387.2 Q 436.1 387.2, 435.5 386.5 Q 434.8 385.9, 434.8 384.7 L 434.8 380.3 L 433.5 380.3 " fill="#000000"/>
<path class="legend" d="M 446.3 379.2 L 446.3 387.1 L 445.2 387.1 L 445.0 386.0 Q 444.0 387.2, 442.3 387.2 Q 441.0 387.2, 440.3 386.5 Q 439.7 385.8, 439.7 384.4 L 439.7 379.2 L 441.1 379.2 L 441.1 384.3 Q 441.1 385.2, 441.5 385.7 Q 441.8 386.1, 442.6 386.1 Q 443.3 386.1, 443.9 385.7 Q 444.5 385.4, 444.9 384.8 L 444.9 379.2 L 446.3 379.2 " fill="#000000"/>
<path class="legend" d="M 449.3 379.2 L 449.4 380.3 Q 450.3 379.1, 451.6 379.1 Q 452.0 379.1, 452.6 379.2 L 452.4 380.5 Q 451.7 380.4, 451.4 380.4 Q 450.7 380.4, 450.3 380.6 Q 449.9 380.9, 449.5 381.5 L 449.5 387.1 L 448.1 387.1 L 448.1 379.2 L 449.3 379.2 " fill="#000000"/>
<path class="legend" d="M 453.4 383.1 Q 453.4 381.2, 454.3 380.2 Q 455.3 379.1, 457.0 379.1 Q 458.8 379.1, 459.5 380.1 Q 460.3 381.1, 460.3 383.1 L 460.3 383.3 L 454.8 383.3 Q 454.9 384.7, 455.4 385.4 Q 456.0 386.1, 457.2 386.1 Q 457.8 386.1, 458.3 385.9 Q 458.9 385.8, 459.6 385.5 L 460.0 386.4 Q 459.2 386.8, 458.5 387.0 Q 457.8 387.2, 457.1 387.2 Q 455.3 387.2, 454.3 386.1 Q 453.4 385.0, 453.4 383.1 M 457.0 380.2 Q 456.1 380.2, 455.6 380.7 Q 455.0 381.3, 454.9 382.3 L 458.8 382.3 Q 458.7 381.2, 458.2 380.7 Q 457.8 380.2, 457.0 380.2 " fill="#000000"/>
<path class="legend" d="" fill="#000000"/>
<path class="legend" d="M 472.2 381.4 Q 473.2 381.7, 473.7 382.4 Q 474.2 383.0, 474.2 384.1 Q 474.2 385.0, 473.8 385.7 Q 473.3 386.4, 472.5 386.8 Q 471.7 387.2, 470.6 387.2 Q 469.4 387.2, 468.5 386.8 Q 467.7 386.4, 467.0 385.6 L 467.9 384.7 Q 468.5 385.4, 469.1 385.7 Q 469.7 386.0, 470.6 386.0 Q 471.5 386.0, 472.1 385.5 Q 472.7 384.9, 472.7 384.1 Q 472.7 383.0, 472.1 382.5 Q 471.5 382.0, 470.2 382.0 L 469.4 382.0 L 469.4 380.9 L 470.1 380.9 Q 471.2 380.9, 471.9 380.4 Q 472.5 379.9, 472.5 378.9 Q 472.5 378.2, 472.0 377.8 Q 471.5 377.4, 470.6 377.4 Q 469.7 377.4, 469.1 377.7 Q 468.6 378.0, 468.1 378.8 L 467.1 378.3 Q 467.5 377.4, 468.4 376.8 Q 469.3 376.1, 470.6 376.1 Q 472.2 376.1, 473.1 376.9 Q 474.0 377.6, 474.0 378.9 Q 474.0 379.8, 473.5 380.4 Q 473.1 381.0, 472.2 381.4 " fill="#000000"/>
<path class="legend" d="M 475.7 378.3 Q 476.1 377.3, 477.0 376.7 Q 478.0 376.1, 479.3 376.1 Q 480.9 376.1, 481.8 377.0 Q 482.8 377.9, 482.8 379.5 Q 482.8 381.1, 481.6 382.6 Q 480.4 384.1, 478.0 385.8 L 482.9 385.8 L 482.9 387.1 L 475.7 387.1 L 475.7 386.0 Q 477.7 384.6, 478.9 383.5 Q 480.1 382.5, 480.7 381.5 Q 481.2 380.6, 481.2 379.6 Q 481.2 378.5, 480.7 377.9 Q 480.2 377.4, 479.3 377.4 Q 478.4 377.4, 477.9 377.7 Q 477.3 378.1, 476.9 378.8 L 475.7 378.3 " fill="#000000"/>
<path class="legend" d="M 484.4 378.3 Q 484.8 377.3, 485.8 376.7 Q 486.7 376.1, 488.0 376.1 Q 489.6 376.1, 490.6 377.0 Q 491.5 377.9, 491.5 379.5 Q 491.5 381.1, 490.3 382.6 Q 489.1 384.1, 486.7 385.8 L 491.6 385.8 L 491.6 387.1 L 484.4 387.1 L 484.4 386.0 Q 486.4 384.6, 487.6 383.5 Q 488.8 382.5, 489.4 381.5 Q 489.9 380.6, 489.9 379.6 Q 489.9 378.5, 489.4 377.9 Q 488.9 377.4, 488.0 377.4 Q 487.1 377.4, 486.6 377.7 Q 486.0 378.1, 485.6 378.8 L 484.4 378.3 " fill="#000000"/>
<path class="legend" d="" fill="#000000"/>
<path class="legend" d="M 498.7 375.3 L 500.0 375.3 L 500.0 390.0 L 498.7 390.0 L 498.7 375.3 " fill="#000000"/>
<path class="legend" d="" fill="#000000"/>
<path class="legend" d="M 507.8 385.4 Q 507.9 385.4, 508.4 385.6 Q 508.9 385.9, 509.5 386.0 Q 510.0 386.1, 510.6 386.1 Q 511.6 386.1, 512.2 385.6 Q 512.8 385.1, 512.8 384.3 Q 512.8 383.7, 512.5 383.3 Q 512.2 382.9, 511.7 382.7 Q 511.3 382.5, 510.5 382.3 Q 509.6 382.0, 509.0 381.7 Q 508.4 381.5, 508.0 380.9 Q 507.6 380.3, 507.6 379.3 Q 507.6 378.0, 508.5 377.1 Q 509.5 376.3, 511.3 376.3 Q 512.5 376.3, 514.0 376.9 L 513.6 378.1 Q 512.3 377.5, 511.3 377.5 Q 510.3 377.5, 509.7 378.0 Q 509.1 378.4, 509.1 379.1 Q 509.1 379.7, 509.4 380.1 Q 509.7 380.4, 510.2 380.6 Q 510.6 380.8, 511.3 381.1 Q 512.3 381.4, 512.9 381.7 Q 513.5 382.0, 513.9 382.6 Q 514.3 383.2, 514.3 384.3 Q 514.3 385.7, 513.3 386.6 Q 512.3 387.3, 510.7 387.3 Q 509.7 387.3, 509.0 387.1 Q 508.2 386.9, 507.4 386.6 L 507.8 385.4 " fill="#000000"/>
<path class="legend" d="M 515.5 376.3 L 517.0 376.3 L 517.0 380.9 L 522.5 380.9 L 522.5 376.3 L 524.0 376.3 L 524.0 387.1 L 522.5 387.1 L 522.5 382.1 L 517.0 382.1 L 517.0 387.1 L 515.5 387.1 L 515.5 376.3 " fill="#000000"/>
<path class="legend" d="M 533.8 387.1 L 532.6 383.9 L 528.4 383.9 L 527.3 387.1 L 525.8 387.1 L 529.5 376.3 L 531.3 376.3 L 535.2 387.1 L 533.8 387.1 M 528.8 382.7 L 532.2 382.7 L 530.5 377.8 L 528.8 382.7 " fill="#000000"/>
<path class="legend" d="M 539.1 376.3 Q 540.9 376.3, 541.8 377.1 Q 542.8 377.9, 542.8 379.4 Q 542.8 380.9, 541.8 381.8 Q 540.9 382.6, 539.1 382.6 L 537.4 382.6 L 537.4 387.1 L 535.9 387.1 L 535.9 376.3 L 539.1 376.3 M 539.1 381.4 Q 540.1 381.4, 540.7 380.9 Q 541.3 380.4, 541.3 379.4 Q 541.3 378.5, 540.7 378.0 Q 540.1 377.5, 539.1 377.5 L 537.4 377.5 L 537.4 381.4 L 539.1 381.4 " fill="#000000"/>
<path class="legend" d="M 544.0 385.3 L 545.5 385.3 L 545.5 386.8 L 544.0 386.8 L 544.0 385.3 M 544.0 380.0 L 545.5 380.0 L 545.5 381.6 L 544.0 381.6 L 544.0 380.0 " fill="#000000"/>
<path class="legend" d="" fill="#000000"/>
<path class="legend" d="M 552.8 378.3 Q 553.2 377.3, 554.2 376.7 Q 555.1 376.1, 556.4 376.1 Q 558.1 376.1, 559.0 377.0 Q 559.9 377.9, 559.9 379.5 Q 559.9 381.1, 558.7 382.6 Q 557.5 384.1, 555.1 385.8 L 560.1 385.8 L 560.1 387.1 L 552.8 387.1 L 552.8 386.0 Q 554.8 384.6, 556.0 383.5 Q 557.2 382.5, 557.8 381.5 Q 558.4 380.6, 558.4 379.6 Q 558.4 378.5, 557.9 377.9 Q 557.3 377.4, 556.4 377.4 Q 555.6 377.4, 555.0 377.7 Q 554.4 378.1, 554.0 378.8 L 552.8 378.3 " fill="#000000"/>
<path class="legend" d="M 565.5 387.2 Q 563.5 387.2, 562.5 385.7 Q 561.5 384.3, 561.5 381.6 Q 561.5 379.0, 562.5 377.6 Q 563.5 376.1, 565.5 376.1 Q 567.5 376.1, 568.4 377.6 Q 569.4 379.0, 569.4 381.6 Q 569.4 384.3, 568.4 385.7 Q 567.4 387.2, 565.5 387.2 M 565.5 386.0 Q 566.6 386.0, 567.3 384.9 Q 567.9 383.8, 567.9 381.6 Q 567.9 379.5, 567.3 378.4 Q 566.6 377.4, 565.5 377.4 Q 564.3 377.4, 563.7 378.4 Q 563.0 379.5, 563.0 381.6 Q 563.0 383.8, 563.7 384.9 Q 564.3 386.0, 565.5 386.0 " fill="#000000"/>
<path class="legend" d="M 570.9 385.5 L 572.4 385.5 L 572.4 387.1 L 570.9 387.1 L 570.9 385.5 " fill="#000000"/>
<path class="legend" d="M 577.9 380.3 Q 578.8 380.3, 579.6 380.7 Q 580.4 381.1, 580.8 381.9 Q 581.3 382.6, 581.3 383.6 Q 581.3 384.8, 580.7 385.6 Q 580.2 386.4, 579.3 386.8 Q 578.4 387.2, 577.4 387.2 Q 576.4 387.2, 575.5 386.8 Q 574.6 386.4, 574.0 385.7 L 574.9 384.8 Q 575.4 385.4, 576.1 385.7 Q 576.8 385.9, 577.5 385.9 Q 578.4 385.9, 579.1 385.4 Q 579.7 384.8, 579.7 383.7 Q 579.7 382.5, 579.1 382.0 Q 578.4 381.5, 577.4 381.5 Q 576.4 381.5, 575.4 381.9 L 574.5 381.5 L 575.0 376.3 L 580.6 376.3 L 580.4 377.5 L 576.3 377.5 L 576.0 380.7 Q 576.9 380.3, 577.9 380.3 " fill="#000000"/>
<path class="legend" d="M 586.7 380.3 Q 587.7 380.3, 588.4 380.7 Q 589.2 381.1, 589.6 381.9 Q 590.0 382.6, 590.0 383.6 Q 590.0 384.6, 589.5 385.5 Q 589.1 386.3, 588.2 386.7 Q 587.4 387.2, 586.4 387.2 Q 584.5 387.2, 583.5 385.9 Q 582.5 384.6, 582.5 382.0 Q 582.5 379.1, 583.7 377.6 Q 584.9 376.1, 587.2 376.1 Q 587.9 376.1, 588.4 376.3 Q 589.0 376.5, 589.6 376.8 L 589.0 377.8 Q 588.2 377.4, 587.2 377.4 Q 585.7 377.4, 584.9 378.4 Q 584.1 379.3, 584.1 381.4 Q 584.6 380.9, 585.3 380.6 Q 586.0 380.3, 586.7 380.3 M 586.4 385.9 Q 587.0 385.9, 587.4 385.6 Q 587.9 385.3, 588.2 384.8 Q 588.5 384.3, 588.5 383.6 Q 588.5 382.6, 587.9 382.1 Q 587.4 381.5, 586.5 381.5 Q 585.8 381.5, 585.2 381.8 Q 584.5 382.1, 584.1 382.5 Q 584.1 384.3, 584.7 385.1 Q 585.2 385.9, 586.4 385.9 " fill="#000000"/>
</svg>