<svg xmlns="http://www.w3.org/2000/svg" xmlns:rdkit="http://www.rdkit.org/xml" xmlns:xlink="http://www.w3.org/1999/xlink" version="1.1" baseProfile="full" xml:space="preserve" width="600px" height="400px" viewBox="0 0 600 400">
<!-- END OF HEADER -->
<rect width="100%" height="100%" fill="#E5ECF6"/>
<rect style="opacity:1.0;fill:#E5ECF6;stroke:none" width="200.0" height="200.0" x="0.0" y="0.0"> </rect>
<ellipse cx="64.7" cy="77.2" rx="8.2" ry="8.2" class="atom-1" style="fill:#E5E533;fill-rule:evenodd;stroke:#E5E533;stroke-width:1.0px;stroke-linecap:butt;stroke-linejoin:miter;stroke-opacity:1"/>
<ellipse cx="101.8" cy="94.6" rx="8.2" ry="8.2" class="atom-2" style="fill:#9999E5;fill-rule:evenodd;stroke:#9999E5;stroke-width:1.0px;stroke-linecap:butt;stroke-linejoin:miter;stroke-opacity:1"/>
<ellipse cx="105.3" cy="135.5" rx="8.2" ry="8.2" class="atom-3" style="fill:#E5E533;fill-rule:evenodd;stroke:#E5E533;stroke-width:1.0px;stroke-linecap:butt;stroke-linejoin:miter;stroke-opacity:1"/>
<ellipse cx="135.4" cy="71.2" rx="8.2" ry="8.2" class="atom-6" style="fill:#E5E533;fill-rule:evenodd;stroke:#E5E533;stroke-width:1.0px;stroke-linecap:butt;stroke-linejoin:miter;stroke-opacity:1"/>
<path class="bond-0 atom-0 atom-1" d="M 60.1,37.1 L 68.1,78.8" style="fill:none;fill-rule:evenodd;stroke:#E5E5E5;stroke-width:2.2px;stroke-linecap:butt;stroke-linejoin:miter;stroke-opacity:1"/>
<path class="bond-0 atom-0 atom-1" d="M 54.0,38.3 L 61.8,78.8" style="fill:none;fill-rule:evenodd;stroke:#E5E5E5;stroke-width:2.2px;stroke-linecap:butt;stroke-linejoin:miter;stroke-opacity:1;stroke-dasharray:6,4"/>
<path class="bond-1 atom-1 atom-2" d="M 64.7,77.2 L 101.8,94.6" style="fill:none;fill-rule:evenodd;stroke:#000000;stroke-width:2.0px;stroke-linecap:butt;stroke-linejoin:miter;stroke-opacity:1"/>
<path class="bond-2 atom-2 atom-3" d="M 101.8,94.6 L 105.3,135.5" style="fill:none;fill-rule:evenodd;stroke:#000000;stroke-width:2.0px;stroke-linecap:butt;stroke-linejoin:miter;stroke-opacity:1"/>
<path class="bond-2 atom-2 atom-3" d="M 108.2,97.6 L 111.1,131.4" style="fill:none;fill-rule:evenodd;stroke:#000000;stroke-width:2.0px;stroke-linecap:butt;stroke-linejoin:miter;stroke-opacity:1;stroke-dasharray:6,4"/>
<path class="bond-3 atom-3 atom-4" d="M 105.3,135.5 L 138.3,150.9" style="fill:none;fill-rule:evenodd;stroke:#E5E5E5;stroke-width:2.2px;stroke-linecap:butt;stroke-linejoin:miter;stroke-opacity:1"/>
<path class="bond-3 atom-3 atom-4" d="M 111.1,131.4 L 140.9,145.4" style="fill:none;fill-rule:evenodd;stroke:#E5E5E5;stroke-width:2.2px;stroke-linecap:butt;stroke-linejoin:miter;stroke-opacity:1;stroke-dasharray:6,4"/>
<path class="bond-4 atom-5 atom-6" d="M 168.4,86.6 L 135.4,71.2" style="fill:none;fill-rule:evenodd;stroke:#E5E5E5;stroke-width:2.2px;stroke-linecap:butt;stroke-linejoin:miter;stroke-opacity:1"/>
<path class="bond-4 atom-5 atom-6" d="M 165.8,92.2 L 136.0,78.2" style="fill:none;fill-rule:evenodd;stroke:#E5E5E5;stroke-width:2.2px;stroke-linecap:butt;stroke-linejoin:miter;stroke-opacity:1;stroke-dasharray:6,4"/>
<path class="bond-5 atom-1 atom-7" d="M 64.0,74.0 L 31.4,92.1" style="fill:none;fill-rule:evenodd;stroke:#E5E5E5;stroke-width:2.2px;stroke-linecap:butt;stroke-linejoin:miter;stroke-opacity:1"/>
<path class="bond-5 atom-1 atom-7" d="M 68.1,78.8 L 34.3,97.5" style="fill:none;fill-rule:evenodd;stroke:#E5E5E5;stroke-width:2.2px;stroke-linecap:butt;stroke-linejoin:miter;stroke-opacity:1;stroke-dasharray:6,4"/>
<path class="bond-6 atom-6 atom-2" d="M 135.4,71.2 L 101.8,94.6" style="fill:none;fill-rule:evenodd;stroke:#000000;stroke-width:2.0px;stroke-linecap:butt;stroke-linejoin:miter;stroke-opacity:1"/>
<path class="bond-6 atom-6 atom-2" d="M 136.0,78.2 L 108.2,97.6" style="fill:none;fill-rule:evenodd;stroke:#000000;stroke-width:2.0px;stroke-linecap:butt;stroke-linejoin:miter;stroke-opacity:1;stroke-dasharray:6,4"/>
<path d="M 105.2,134.4 L 105.3,135.5 L 106.1,135.9" style="fill:none;stroke:#000000;stroke-width:2.0px;stroke-linecap:butt;stroke-linejoin:miter;stroke-miterlimit:10;stroke-opacity:1;"/>
<path d="M 136.2,71.5 L 135.4,71.2 L 134.6,71.7" style="fill:none;stroke:#E5E5E5;stroke-width:2.2px;stroke-linecap:butt;stroke-linejoin:miter;stroke-miterlimit:10;stroke-opacity:1;"/>
<path class="atom-0" d="M 54.7 35.7 L 56.4 33.9 L 54.2 33.5 L 54.5 32.3 L 56.6 33.4 L 56.3 31.1 L 57.5 31.1 L 57.2 33.3 L 59.3 32.4 L 59.7 33.5 L 57.4 33.9 L 59.0 35.6 L 58.0 36.4 L 56.9 34.2 L 55.7 36.4 L 54.7 35.7 " fill="#191919"/>
<path class="atom-4" d="M 141.5 148.8 L 143.2 147.0 L 141.0 146.6 L 141.3 145.4 L 143.4 146.5 L 143.1 144.2 L 144.3 144.2 L 144.0 146.5 L 146.1 145.5 L 146.5 146.6 L 144.2 147.0 L 145.8 148.8 L 144.8 149.5 L 143.7 147.3 L 142.5 149.5 L 141.5 148.8 " fill="#191919"/>
<path class="atom-5" d="M 169.1 90.0 L 170.8 88.3 L 168.5 87.8 L 168.8 86.7 L 170.9 87.7 L 170.6 85.5 L 171.9 85.4 L 171.5 87.7 L 173.6 86.7 L 174.0 87.8 L 171.7 88.3 L 173.3 90.0 L 172.3 90.7 L 171.2 88.6 L 170.1 90.7 L 169.1 90.0 " fill="#191919"/>
<path class="atom-7" d="M 26.6 95.7 L 28.3 94.0 L 26.0 93.5 L 26.4 92.4 L 28.4 93.4 L 28.1 91.1 L 29.4 91.1 L 29.0 93.4 L 31.1 92.4 L 31.5 93.5 L 29.2 94.0 L 30.9 95.7 L 29.9 96.4 L 28.7 94.3 L 27.6 96.4 L 26.6 95.7 " fill="#191919"/>
<path class="legend" d="M 10.0 176.7 L 16.2 176.7 L 16.2 177.9 L 11.4 177.9 L 11.4 181.1 L 15.7 181.1 L 15.7 182.3 L 11.4 182.3 L 11.4 187.2 L 10.0 187.2 L 10.0 176.7 " fill="#000000"/>
<path class="legend" d="M 17.0 183.4 Q 17.0 181.5, 18.0 180.5 Q 18.9 179.4, 20.6 179.4 Q 22.3 179.4, 23.0 180.4 Q 23.7 181.4, 23.7 183.3 L 23.7 183.5 L 18.5 183.5 Q 18.5 184.8, 19.1 185.5 Q 19.6 186.2, 20.7 186.2 Q 21.3 186.2, 21.8 186.0 Q 22.4 185.9, 23.1 185.6 L 23.4 186.6 Q 22.7 186.9, 22.0 187.1 Q 21.3 187.3, 20.6 187.3 Q 18.9 187.3, 18.0 186.2 Q 17.0 185.2, 17.0 183.4 M 20.6 180.5 Q 19.7 180.5, 19.2 181.0 Q 18.7 181.5, 18.5 182.5 L 22.3 182.5 Q 22.2 181.5, 21.8 181.0 Q 21.4 180.5, 20.6 180.5 " fill="#000000"/>
<path class="legend" d="M 24.8 185.1 Q 24.8 183.9, 25.8 183.2 Q 26.8 182.6, 28.5 182.6 L 29.7 182.6 L 29.7 182.3 Q 29.7 181.3, 29.3 180.9 Q 28.9 180.5, 27.9 180.5 Q 27.3 180.5, 26.9 180.7 Q 26.4 180.8, 25.7 181.1 L 25.2 180.1 Q 26.6 179.4, 28.0 179.4 Q 29.6 179.4, 30.3 180.1 Q 31.0 180.8, 31.0 182.3 L 31.0 187.2 L 30.0 187.2 Q 30.0 187.1, 29.9 186.9 Q 29.9 186.6, 29.8 186.3 Q 28.7 187.3, 27.3 187.3 Q 26.2 187.3, 25.5 186.7 Q 24.8 186.1, 24.8 185.1 M 26.2 185.1 Q 26.2 185.6, 26.6 185.9 Q 26.9 186.2, 27.6 186.2 Q 28.2 186.2, 28.7 186.0 Q 29.3 185.7, 29.7 185.2 L 29.7 183.6 L 28.6 183.6 Q 27.4 183.6, 26.8 184.0 Q 26.2 184.3, 26.2 185.1 " fill="#000000"/>
<path class="legend" d="M 32.7 180.6 L 32.7 179.6 L 34.1 179.6 L 34.4 177.4 L 35.4 177.4 L 35.4 179.6 L 37.7 179.6 L 37.7 180.6 L 35.4 180.6 L 35.4 184.8 Q 35.4 186.1, 36.5 186.1 Q 36.9 186.1, 37.6 185.9 L 37.8 186.9 Q 37.0 187.2, 36.3 187.2 Q 35.3 187.2, 34.6 186.7 Q 34.0 186.1, 34.0 184.9 L 34.0 180.6 L 32.7 180.6 " fill="#000000"/>
<path class="legend" d="M 45.2 179.6 L 45.2 187.2 L 44.0 187.2 L 43.9 186.1 Q 42.9 187.3, 41.3 187.3 Q 40.0 187.3, 39.4 186.6 Q 38.7 185.9, 38.7 184.6 L 38.7 179.6 L 40.1 179.6 L 40.1 184.5 Q 40.1 185.4, 40.4 185.8 Q 40.8 186.2, 41.6 186.2 Q 42.2 186.2, 42.8 185.9 Q 43.4 185.6, 43.8 185.0 L 43.8 179.6 L 45.2 179.6 " fill="#000000"/>
<path class="legend" d="M 48.0 179.6 L 48.1 180.6 Q 48.9 179.4, 50.2 179.4 Q 50.7 179.4, 51.2 179.6 L 51.0 180.8 Q 50.4 180.7, 50.0 180.7 Q 49.4 180.7, 49.0 180.9 Q 48.6 181.2, 48.3 181.7 L 48.3 187.2 L 46.9 187.2 L 46.9 179.6 L 48.0 179.6 " fill="#000000"/>
<path class="legend" d="M 51.9 183.4 Q 51.9 181.5, 52.9 180.5 Q 53.8 179.4, 55.5 179.4 Q 57.2 179.4, 57.9 180.4 Q 58.6 181.4, 58.6 183.3 L 58.6 183.5 L 53.4 183.5 Q 53.4 184.8, 54.0 185.5 Q 54.5 186.2, 55.6 186.2 Q 56.2 186.2, 56.7 186.0 Q 57.3 185.9, 58.0 185.6 L 58.4 186.6 Q 57.6 186.9, 56.9 187.1 Q 56.2 187.3, 55.5 187.3 Q 53.8 187.3, 52.9 186.2 Q 51.9 185.2, 51.9 183.4 M 55.5 180.5 Q 54.6 180.5, 54.1 181.0 Q 53.6 181.5, 53.4 182.5 L 57.2 182.5 Q 57.1 181.5, 56.7 181.0 Q 56.3 180.5, 55.5 180.5 " fill="#000000"/>
<path class="legend" d="" fill="#000000"/>
<path class="legend" d="M 65.7 186.0 L 68.0 186.0 L 68.0 178.2 L 65.5 179.0 L 65.1 178.1 L 68.3 176.7 L 69.4 176.8 L 69.4 186.0 L 71.4 186.0 L 71.4 187.2 L 65.7 187.2 L 65.7 186.0 " fill="#000000"/>
<path class="legend" d="M 73.1 186.0 L 75.4 186.0 L 75.4 178.2 L 72.9 179.0 L 72.6 178.1 L 75.8 176.7 L 76.8 176.8 L 76.8 186.0 L 78.9 186.0 L 78.9 187.2 L 73.1 187.2 L 73.1 186.0 " fill="#000000"/>
<path class="legend" d="M 84.1 180.6 Q 85.0 180.6, 85.7 181.0 Q 86.4 181.4, 86.8 182.2 Q 87.2 182.9, 87.2 183.8 Q 87.2 184.8, 86.8 185.6 Q 86.3 186.4, 85.5 186.8 Q 84.7 187.3, 83.7 187.3 Q 81.8 187.3, 80.9 186.0 Q 80.0 184.8, 80.0 182.2 Q 80.0 179.5, 81.1 178.0 Q 82.3 176.6, 84.5 176.6 Q 85.2 176.6, 85.7 176.7 Q 86.3 176.9, 86.8 177.2 L 86.2 178.2 Q 85.5 177.8, 84.5 177.8 Q 83.1 177.8, 82.3 178.7 Q 81.6 179.7, 81.5 181.6 Q 82.0 181.2, 82.7 180.9 Q 83.3 180.6, 84.1 180.6 M 83.7 186.1 Q 84.3 186.1, 84.7 185.8 Q 85.2 185.5, 85.5 185.0 Q 85.7 184.4, 85.7 183.8 Q 85.7 182.9, 85.2 182.3 Q 84.7 181.8, 83.8 181.8 Q 83.2 181.8, 82.5 182.1 Q 81.9 182.3, 81.5 182.8 Q 81.5 184.5, 82.1 185.3 Q 82.6 186.1, 83.7 186.1 " fill="#000000"/>
<path class="legend" d="M 92.4 187.3 Q 90.4 187.3, 89.5 185.9 Q 88.5 184.4, 88.5 181.9 Q 88.5 179.4, 89.5 178.0 Q 90.4 176.6, 92.4 176.6 Q 94.3 176.6, 95.2 178.0 Q 96.2 179.4, 96.2 181.9 Q 96.2 184.4, 95.2 185.9 Q 94.3 187.3, 92.4 187.3 M 92.4 186.1 Q 93.5 186.1, 94.1 185.0 Q 94.7 184.0, 94.7 181.9 Q 94.7 179.9, 94.1 178.8 Q 93.5 177.8, 92.4 177.8 Q 91.2 177.8, 90.6 178.8 Q 90.0 179.9, 90.0 181.9 Q 90.0 184.0, 90.6 185.0 Q 91.2 186.1, 92.4 186.1 " fill="#000000"/>
<path class="legend" d="" fill="#000000"/>
<path class="legend" d="M 103.1 175.7 L 104.3 175.7 L 104.3 190.0 L 103.1 190.0 L 103.1 175.7 " fill="#000000"/>
<path class="legend" d="" fill="#000000"/>
<path class="legend" d="M 111.9 185.5 Q 112.0 185.6, 112.5 185.8 Q 113.0 186.0, 113.5 186.1 Q 114.0 186.2, 114.6 186.2 Q 115.6 186.2, 116.1 185.8 Q 116.7 185.3, 116.7 184.4 Q 116.7 183.9, 116.4 183.5 Q 116.1 183.2, 115.7 183.0 Q 115.2 182.8, 114.5 182.6 Q 113.6 182.3, 113.0 182.0 Q 112.5 181.7, 112.1 181.2 Q 111.7 180.6, 111.7 179.7 Q 111.7 178.4, 112.6 177.6 Q 113.5 176.7, 115.2 176.7 Q 116.5 176.7, 117.8 177.3 L 117.5 178.5 Q 116.2 177.9, 115.3 177.9 Q 114.3 177.9, 113.7 178.4 Q 113.2 178.8, 113.2 179.5 Q 113.2 180.1, 113.4 180.4 Q 113.7 180.7, 114.2 180.9 Q 114.6 181.1, 115.3 181.3 Q 116.2 181.6, 116.8 181.9 Q 117.4 182.2, 117.8 182.8 Q 118.2 183.4, 118.2 184.4 Q 118.2 185.9, 117.2 186.7 Q 116.2 187.4, 114.6 187.4 Q 113.7 187.4, 113.0 187.2 Q 112.3 187.0, 111.5 186.7 L 111.9 185.5 " fill="#000000"/>
<path class="legend" d="M 119.4 176.7 L 120.8 176.7 L 120.8 181.2 L 126.1 181.2 L 126.1 176.7 L 127.5 176.7 L 127.5 187.2 L 126.1 187.2 L 126.1 182.3 L 120.8 182.3 L 120.8 187.2 L 119.4 187.2 L 119.4 176.7 " fill="#000000"/>
<path class="legend" d="M 137.0 187.2 L 135.9 184.1 L 131.8 184.1 L 130.7 187.2 L 129.3 187.2 L 132.9 176.7 L 134.6 176.7 L 138.4 187.2 L 137.0 187.2 M 132.2 182.9 L 135.5 182.9 L 133.8 178.2 L 132.2 182.9 " fill="#000000"/>
<path class="legend" d="M 142.1 176.7 Q 143.9 176.7, 144.8 177.5 Q 145.7 178.3, 145.7 179.8 Q 145.7 181.2, 144.8 182.1 Q 143.9 182.9, 142.1 182.9 L 140.5 182.9 L 140.5 187.2 L 139.0 187.2 L 139.0 176.7 L 142.1 176.7 M 142.1 181.7 Q 143.1 181.7, 143.7 181.2 Q 144.2 180.7, 144.2 179.8 Q 144.2 178.9, 143.7 178.4 Q 143.2 177.9, 142.1 177.9 L 140.5 177.9 L 140.5 181.7 L 142.1 181.7 " fill="#000000"/>
<path class="legend" d="M 146.9 185.4 L 148.4 185.4 L 148.4 186.9 L 146.9 186.9 L 146.9 185.4 M 146.9 180.4 L 148.4 180.4 L 148.4 181.8 L 146.9 181.8 L 146.9 180.4 " fill="#000000"/>
<path class="legend" d="" fill="#000000"/>
<path class="legend" d="M 160.4 181.7 Q 161.4 182.0, 161.9 182.6 Q 162.4 183.3, 162.4 184.3 Q 162.4 185.2, 162.0 185.9 Q 161.5 186.6, 160.7 186.9 Q 159.9 187.3, 158.9 187.3 Q 157.7 187.3, 156.9 186.9 Q 156.1 186.5, 155.4 185.7 L 156.3 184.9 Q 156.9 185.6, 157.4 185.9 Q 158.0 186.1, 158.9 186.1 Q 159.8 186.1, 160.4 185.6 Q 161.0 185.1, 161.0 184.3 Q 161.0 183.2, 160.3 182.7 Q 159.8 182.3, 158.5 182.3 L 157.7 182.3 L 157.7 181.2 L 158.4 181.2 Q 159.5 181.2, 160.1 180.7 Q 160.7 180.2, 160.7 179.3 Q 160.7 178.6, 160.2 178.2 Q 159.7 177.8, 158.9 177.8 Q 158.0 177.8, 157.5 178.1 Q 156.9 178.4, 156.5 179.2 L 155.5 178.6 Q 155.9 177.8, 156.8 177.2 Q 157.6 176.6, 158.9 176.6 Q 160.4 176.6, 161.3 177.3 Q 162.2 178.0, 162.2 179.3 Q 162.2 180.1, 161.7 180.7 Q 161.3 181.3, 160.4 181.7 " fill="#000000"/>
<path class="legend" d="M 164.4 186.0 L 166.7 186.0 L 166.7 178.2 L 164.1 179.0 L 163.8 178.1 L 167.0 176.7 L 168.0 176.8 L 168.0 186.0 L 170.1 186.0 L 170.1 187.2 L 164.4 187.2 L 164.4 186.0 " fill="#000000"/>
<path class="legend" d="M 171.2 185.7 L 172.7 185.7 L 172.7 187.2 L 171.2 187.2 L 171.2 185.7 " fill="#000000"/>
<path class="legend" d="M 179.5 181.6 Q 180.4 182.0, 181.0 182.7 Q 181.5 183.3, 181.5 184.3 Q 181.5 185.2, 181.1 185.9 Q 180.6 186.6, 179.8 186.9 Q 179.0 187.3, 177.9 187.3 Q 176.2 187.3, 175.2 186.5 Q 174.2 185.7, 174.2 184.3 Q 174.2 183.4, 174.6 182.8 Q 175.0 182.2, 176.0 181.7 Q 175.3 181.3, 174.9 180.7 Q 174.5 180.2, 174.5 179.3 Q 174.5 178.0, 175.4 177.3 Q 176.3 176.6, 177.8 176.6 Q 179.4 176.6, 180.3 177.3 Q 181.1 178.0, 181.1 179.3 Q 181.1 180.0, 180.7 180.6 Q 180.3 181.2, 179.5 181.6 M 177.8 177.7 Q 177.0 177.7, 176.5 178.1 Q 176.0 178.5, 176.0 179.3 Q 176.0 179.8, 176.3 180.2 Q 176.7 180.5, 177.1 180.7 Q 177.6 180.9, 178.5 181.3 Q 179.1 180.8, 179.4 180.3 Q 179.7 179.9, 179.7 179.3 Q 179.7 178.5, 179.2 178.1 Q 178.7 177.7, 177.8 177.7 M 177.9 186.2 Q 178.9 186.2, 179.5 185.7 Q 180.1 185.2, 180.1 184.3 Q 180.1 183.7, 179.7 183.4 Q 179.4 183.0, 179.0 182.8 Q 178.5 182.6, 177.7 182.3 L 177.0 182.1 Q 176.3 182.6, 176.0 183.1 Q 175.6 183.6, 175.6 184.3 Q 175.6 185.2, 176.3 185.7 Q 176.9 186.2, 177.9 186.2 " fill="#000000"/>
<path class="legend" d="M 183.0 178.7 Q 183.4 177.7, 184.3 177.2 Q 185.2 176.6, 186.5 176.6 Q 188.1 176.6, 188.9 177.5 Q 189.8 178.3, 189.8 179.8 Q 189.8 181.4, 188.7 182.8 Q 187.5 184.3, 185.2 186.0 L 190.0 186.0 L 190.0 187.2 L 183.0 187.2 L 183.0 186.2 Q 184.9 184.8, 186.1 183.7 Q 187.2 182.7, 187.8 181.8 Q 188.3 180.9, 188.3 179.9 Q 188.3 178.9, 187.8 178.3 Q 187.3 177.8, 186.5 177.8 Q 185.6 177.8, 185.1 178.1 Q 184.5 178.5, 184.1 179.2 L 183.0 178.7 " fill="#000000"/>
<ellipse cx="289.8" cy="47.5" rx="8.2" ry="8.2" class="atom-1" style="fill:#E5E533;fill-rule:evenodd;stroke:#E5E533;stroke-width:1.0px;stroke-linecap:butt;stroke-linejoin:miter;stroke-opacity:1"/>
<ellipse cx="297.5" cy="87.8" rx="8.2" ry="8.2" class="atom-2" style="fill:#9999E5;fill-rule:evenodd;stroke:#9999E5;stroke-width:1.0px;stroke-linecap:butt;stroke-linejoin:miter;stroke-opacity:1"/>
<ellipse cx="334.7" cy="105.2" rx="8.2" ry="8.2" class="atom-3" style="fill:#E5E533;fill-rule:evenodd;stroke:#E5E533;stroke-width:1.0px;stroke-linecap:butt;stroke-linejoin:miter;stroke-opacity:1"/>
<ellipse cx="261.6" cy="107.6" rx="8.2" ry="8.2" class="atom-5" style="fill:#E5E533;fill-rule:evenodd;stroke:#E5E533;stroke-width:1.0px;stroke-linecap:butt;stroke-linejoin:miter;stroke-opacity:1"/>
<path class="bond-0 atom-0 atom-1" d="M 253.6,39.9 L 284.4,43.8" style="fill:none;fill-rule:evenodd;stroke:#E5E5E5;stroke-width:2.2px;stroke-linecap:butt;stroke-linejoin:miter;stroke-opacity:1"/>
<path class="bond-0 atom-0 atom-1" d="M 252.8,46.0 L 283.6,49.9" style="fill:none;fill-rule:evenodd;stroke:#E5E5E5;stroke-width:2.2px;stroke-linecap:butt;stroke-linejoin:miter;stroke-opacity:1;stroke-dasharray:6,4"/>
<path class="bond-1 atom-1 atom-2" d="M 291.2,54.7 L 297.5,87.8" style="fill:none;fill-rule:evenodd;stroke:#000000;stroke-width:2.0px;stroke-linecap:butt;stroke-linejoin:miter;stroke-opacity:1"/>
<path class="bond-1 atom-1 atom-2" d="M 285.1,55.8 L 290.7,84.6" style="fill:none;fill-rule:evenodd;stroke:#000000;stroke-width:2.0px;stroke-linecap:butt;stroke-linejoin:miter;stroke-opacity:1;stroke-dasharray:6,4"/>
<path class="bond-2 atom-2 atom-3" d="M 297.5,87.8 L 334.7,105.2" style="fill:none;fill-rule:evenodd;stroke:#000000;stroke-width:2.0px;stroke-linecap:butt;stroke-linejoin:miter;stroke-opacity:1"/>
<path class="bond-3 atom-3 atom-4" d="M 331.5,103.7 L 334.5,139.0" style="fill:none;fill-rule:evenodd;stroke:#E5E5E5;stroke-width:2.2px;stroke-linecap:butt;stroke-linejoin:miter;stroke-opacity:1"/>
<path class="bond-3 atom-3 atom-4" d="M 337.6,103.2 L 340.6,138.5" style="fill:none;fill-rule:evenodd;stroke:#E5E5E5;stroke-width:2.2px;stroke-linecap:butt;stroke-linejoin:miter;stroke-opacity:1;stroke-dasharray:6,4"/>
<path class="bond-4 atom-2 atom-5" d="M 297.5,87.8 L 268.3,103.9" style="fill:none;fill-rule:evenodd;stroke:#000000;stroke-width:2.0px;stroke-linecap:butt;stroke-linejoin:miter;stroke-opacity:1"/>
<path class="bond-4 atom-2 atom-5" d="M 290.7,84.6 L 265.4,98.5" style="fill:none;fill-rule:evenodd;stroke:#000000;stroke-width:2.0px;stroke-linecap:butt;stroke-linejoin:miter;stroke-opacity:1;stroke-dasharray:6,4"/>
<path class="bond-5 atom-5 atom-6" d="M 257.1,99.1 L 234.6,78.1" style="fill:none;fill-rule:evenodd;stroke:#E5E5E5;stroke-width:2.2px;stroke-linecap:butt;stroke-linejoin:miter;stroke-opacity:1"/>
<path class="bond-5 atom-5 atom-6" d="M 252.9,103.6 L 230.4,82.6" style="fill:none;fill-rule:evenodd;stroke:#E5E5E5;stroke-width:2.2px;stroke-linecap:butt;stroke-linejoin:miter;stroke-opacity:1;stroke-dasharray:6,4"/>
<path class="bond-6 atom-7 atom-3" d="M 369.0,85.0 L 335.0,108.7" style="fill:none;fill-rule:evenodd;stroke:#E5E5E5;stroke-width:2.2px;stroke-linecap:butt;stroke-linejoin:miter;stroke-opacity:1"/>
<path class="bond-6 atom-7 atom-3" d="M 365.4,80.0 L 331.5,103.7" style="fill:none;fill-rule:evenodd;stroke:#E5E5E5;stroke-width:2.2px;stroke-linecap:butt;stroke-linejoin:miter;stroke-opacity:1;stroke-dasharray:6,4"/>
<path class="atom-0" d="M 246.9 41.2 L 248.6 39.4 L 246.4 39.0 L 246.7 37.8 L 248.8 38.8 L 248.5 36.6 L 249.7 36.6 L 249.4 38.8 L 251.5 37.8 L 251.8 39.0 L 249.6 39.4 L 251.2 41.1 L 250.2 41.9 L 249.1 39.7 L 247.9 41.9 L 246.9 41.2 " fill="#191919"/>
<path class="atom-1" d="M 287.2 41.7 L 291.0 47.9 Q 291.4 48.5, 292.0 49.6 Q 292.6 50.7, 292.6 50.7 L 292.6 41.7 L 294.2 41.7 L 294.2 53.3 L 292.6 53.3 L 288.5 46.6 Q 288.0 45.8, 287.5 44.9 Q 287.0 44.0, 286.9 43.7 L 286.9 53.3 L 285.4 53.3 L 285.4 41.7 L 287.2 41.7 " fill="#000000"/>
<path class="atom-4" d="M 336.0 144.7 L 337.7 143.0 L 335.4 142.5 L 335.8 141.4 L 337.8 142.4 L 337.6 140.1 L 338.8 140.1 L 338.4 142.4 L 340.6 141.4 L 340.9 142.5 L 338.6 143.0 L 340.3 144.7 L 339.3 145.4 L 338.1 143.3 L 337.0 145.4 L 336.0 144.7 " fill="#191919"/>
<path class="atom-5" d="M 256.3 107.6 Q 256.3 104.8, 257.7 103.3 Q 259.1 101.7, 261.6 101.7 Q 264.2 101.7, 265.6 103.3 Q 267.0 104.8, 267.0 107.6 Q 267.0 110.5, 265.6 112.1 Q 264.2 113.7, 261.6 113.7 Q 259.1 113.7, 257.7 112.1 Q 256.3 110.5, 256.3 107.6 M 261.6 112.3 Q 263.4 112.3, 264.4 111.2 Q 265.3 110.0, 265.3 107.6 Q 265.3 105.4, 264.4 104.2 Q 263.4 103.0, 261.6 103.0 Q 259.9 103.0, 258.9 104.2 Q 258.0 105.3, 258.0 107.6 Q 258.0 110.0, 258.9 111.2 Q 259.9 112.3, 261.6 112.3 " fill="#000000"/>
<path class="atom-6" d="M 229.5 78.3 L 231.2 76.6 L 229.0 76.1 L 229.3 74.9 L 231.4 76.0 L 231.1 73.7 L 232.3 73.7 L 232.0 76.0 L 234.1 75.0 L 234.5 76.1 L 232.2 76.5 L 233.8 78.3 L 232.8 79.0 L 231.7 76.8 L 230.5 79.0 L 229.5 78.3 " fill="#191919"/>
<path class="atom-7" d="M 366.1 80.4 L 367.8 78.7 L 365.5 78.2 L 365.9 77.1 L 368.0 78.1 L 367.7 75.8 L 368.9 75.8 L 368.6 78.1 L 370.7 77.1 L 371.0 78.2 L 368.7 78.7 L 370.4 80.4 L 369.4 81.1 L 368.3 79.0 L 367.1 81.1 L 366.1 80.4 " fill="#191919"/>
<path class="legend" d="M 210.0 176.9 L 216.1 176.9 L 216.1 178.1 L 211.4 178.1 L 211.4 181.2 L 215.6 181.2 L 215.6 182.4 L 211.4 182.4 L 211.4 187.2 L 210.0 187.2 L 210.0 176.9 " fill="#000000"/>
<path class="legend" d="M 216.9 183.5 Q 216.9 181.6, 217.9 180.6 Q 218.8 179.6, 220.4 179.6 Q 222.1 179.6, 222.8 180.6 Q 223.5 181.6, 223.5 183.4 L 223.5 183.6 L 218.3 183.6 Q 218.4 184.9, 218.9 185.6 Q 219.5 186.2, 220.6 186.2 Q 221.1 186.2, 221.7 186.1 Q 222.2 186.0, 222.9 185.7 L 223.3 186.6 Q 222.5 187.0, 221.8 187.2 Q 221.2 187.3, 220.5 187.3 Q 218.8 187.3, 217.9 186.3 Q 216.9 185.3, 216.9 183.5 M 220.4 180.7 Q 219.6 180.7, 219.1 181.2 Q 218.5 181.7, 218.4 182.6 L 222.1 182.6 Q 222.0 181.6, 221.6 181.2 Q 221.2 180.7, 220.4 180.7 " fill="#000000"/>
<path class="legend" d="M 224.6 185.2 Q 224.6 184.0, 225.6 183.3 Q 226.5 182.7, 228.3 182.7 L 229.4 182.7 L 229.4 182.4 Q 229.4 181.5, 229.0 181.1 Q 228.6 180.7, 227.7 180.7 Q 227.1 180.7, 226.6 180.8 Q 226.2 180.9, 225.4 181.2 L 225.0 180.3 Q 226.4 179.6, 227.7 179.6 Q 229.3 179.6, 230.0 180.3 Q 230.7 181.0, 230.7 182.4 L 230.7 187.2 L 229.7 187.2 Q 229.7 187.1, 229.6 186.9 Q 229.6 186.7, 229.5 186.3 Q 228.4 187.4, 227.1 187.4 Q 225.9 187.4, 225.3 186.8 Q 224.6 186.2, 224.6 185.2 M 226.0 185.2 Q 226.0 185.7, 226.3 186.0 Q 226.7 186.3, 227.3 186.3 Q 227.9 186.3, 228.4 186.0 Q 229.0 185.8, 229.4 185.3 L 229.4 183.7 L 228.4 183.7 Q 227.2 183.7, 226.6 184.1 Q 226.0 184.4, 226.0 185.2 " fill="#000000"/>
<path class="legend" d="M 232.4 180.8 L 232.4 179.7 L 233.8 179.7 L 234.0 177.6 L 235.0 177.6 L 235.0 179.7 L 237.3 179.7 L 237.3 180.8 L 235.0 180.8 L 235.0 184.9 Q 235.0 186.2, 236.1 186.2 Q 236.6 186.2, 237.2 186.0 L 237.4 187.0 Q 236.6 187.3, 235.9 187.3 Q 234.9 187.3, 234.3 186.7 Q 233.7 186.1, 233.7 185.0 L 233.7 180.8 L 232.4 180.8 " fill="#000000"/>
<path class="legend" d="M 244.6 179.7 L 244.6 187.2 L 243.5 187.2 L 243.4 186.2 Q 242.4 187.3, 240.8 187.3 Q 239.6 187.3, 238.9 186.7 Q 238.3 186.0, 238.3 184.7 L 238.3 179.7 L 239.7 179.7 L 239.7 184.6 Q 239.7 185.5, 240.0 185.9 Q 240.3 186.3, 241.1 186.3 Q 241.8 186.3, 242.4 186.0 Q 242.9 185.6, 243.3 185.1 L 243.3 179.7 L 244.6 179.7 " fill="#000000"/>
<path class="legend" d="M 247.4 179.7 L 247.6 180.8 Q 248.4 179.6, 249.7 179.6 Q 250.1 179.6, 250.6 179.8 L 250.4 181.0 Q 249.8 180.8, 249.4 180.8 Q 248.8 180.8, 248.4 181.1 Q 248.0 181.3, 247.7 181.9 L 247.7 187.2 L 246.3 187.2 L 246.3 179.7 L 247.4 179.7 " fill="#000000"/>
<path class="legend" d="M 251.3 183.5 Q 251.3 181.6, 252.3 180.6 Q 253.2 179.6, 254.8 179.6 Q 256.5 179.6, 257.2 180.6 Q 258.0 181.6, 258.0 183.4 L 258.0 183.6 L 252.7 183.6 Q 252.8 184.9, 253.3 185.6 Q 253.9 186.2, 255.0 186.2 Q 255.5 186.2, 256.1 186.1 Q 256.6 186.0, 257.3 185.7 L 257.7 186.6 Q 256.9 187.0, 256.3 187.2 Q 255.6 187.3, 254.9 187.3 Q 253.2 187.3, 252.3 186.3 Q 251.3 185.3, 251.3 183.5 M 254.8 180.7 Q 254.0 180.7, 253.5 181.2 Q 253.0 181.7, 252.8 182.6 L 256.5 182.6 Q 256.4 181.6, 256.0 181.2 Q 255.6 180.7, 254.8 180.7 " fill="#000000"/>
<path class="legend" d="" fill="#000000"/>
<path class="legend" d="M 264.9 186.0 L 267.2 186.0 L 267.2 178.4 L 264.7 179.1 L 264.4 178.3 L 267.5 176.9 L 268.5 177.0 L 268.5 186.0 L 270.6 186.0 L 270.6 187.2 L 264.9 187.2 L 264.9 186.0 " fill="#000000"/>
<path class="legend" d="M 275.4 187.3 Q 273.5 187.3, 272.6 185.9 Q 271.7 184.5, 271.7 182.0 Q 271.7 179.6, 272.6 178.2 Q 273.5 176.8, 275.4 176.8 Q 277.3 176.8, 278.3 178.2 Q 279.2 179.6, 279.2 182.0 Q 279.2 184.5, 278.2 185.9 Q 277.3 187.3, 275.4 187.3 M 275.4 186.2 Q 276.5 186.2, 277.1 185.1 Q 277.7 184.1, 277.7 182.0 Q 277.7 180.0, 277.1 179.0 Q 276.5 178.0, 275.4 178.0 Q 274.3 178.0, 273.7 179.0 Q 273.1 180.0, 273.1 182.0 Q 273.1 184.1, 273.7 185.1 Q 274.3 186.2, 275.4 186.2 " fill="#000000"/>
<path class="legend" d="M 287.3 183.7 L 288.6 183.7 L 288.6 184.8 L 287.3 184.8 L 287.3 187.2 L 286.0 187.2 L 286.0 184.8 L 280.6 184.8 L 280.6 183.9 L 285.1 176.9 L 287.3 176.9 L 287.3 183.7 M 282.3 183.7 L 286.0 183.7 L 286.0 177.9 L 282.3 183.7 " fill="#000000"/>
<path class="legend" d="M 295.2 178.1 L 289.8 178.1 L 289.8 176.9 L 296.6 176.9 L 296.6 178.0 L 292.4 187.2 L 291.0 187.2 L 295.2 178.1 " fill="#000000"/>
<path class="legend" d="" fill="#000000"/>
<path class="legend" d="M 302.9 176.0 L 304.1 176.0 L 304.1 190.0 L 302.9 190.0 L 302.9 176.0 " fill="#000000"/>
<path class="legend" d="" fill="#000000"/>
<path class="legend" d="M 311.6 185.6 Q 311.7 185.6, 312.2 185.8 Q 312.6 186.1, 313.2 186.2 Q 313.7 186.3, 314.2 186.3 Q 315.2 186.3, 315.8 185.8 Q 316.3 185.4, 316.3 184.5 Q 316.3 184.0, 316.0 183.6 Q 315.8 183.3, 315.3 183.1 Q 314.9 182.9, 314.2 182.7 Q 313.2 182.4, 312.7 182.1 Q 312.2 181.9, 311.8 181.3 Q 311.4 180.8, 311.4 179.8 Q 311.4 178.5, 312.3 177.8 Q 313.1 177.0, 314.9 177.0 Q 316.1 177.0, 317.4 177.5 L 317.1 178.6 Q 315.9 178.1, 314.9 178.1 Q 313.9 178.1, 313.4 178.5 Q 312.8 179.0, 312.8 179.7 Q 312.8 180.2, 313.1 180.6 Q 313.4 180.9, 313.8 181.1 Q 314.2 181.3, 314.9 181.5 Q 315.9 181.8, 316.4 182.1 Q 317.0 182.4, 317.4 182.9 Q 317.8 183.5, 317.8 184.5 Q 317.8 186.0, 316.8 186.7 Q 315.9 187.5, 314.3 187.5 Q 313.4 187.5, 312.7 187.3 Q 312.0 187.1, 311.2 186.7 L 311.6 185.6 " fill="#000000"/>
<path class="legend" d="M 319.0 176.9 L 320.3 176.9 L 320.3 181.3 L 325.6 181.3 L 325.6 176.9 L 327.0 176.9 L 327.0 187.2 L 325.6 187.2 L 325.6 182.5 L 320.3 182.5 L 320.3 187.2 L 319.0 187.2 L 319.0 176.9 " fill="#000000"/>
<path class="legend" d="M 336.3 187.2 L 335.2 184.2 L 331.2 184.2 L 330.1 187.2 L 328.7 187.2 L 332.3 176.9 L 334.0 176.9 L 337.7 187.2 L 336.3 187.2 M 331.6 183.0 L 334.8 183.0 L 333.2 178.4 L 331.6 183.0 " fill="#000000"/>
<path class="legend" d="M 341.4 176.9 Q 343.1 176.9, 344.0 177.7 Q 344.9 178.5, 344.9 179.9 Q 344.9 181.4, 344.0 182.2 Q 343.1 183.0, 341.4 183.0 L 339.7 183.0 L 339.7 187.2 L 338.3 187.2 L 338.3 176.9 L 341.4 176.9 M 341.4 181.8 Q 342.4 181.8, 342.9 181.3 Q 343.5 180.9, 343.5 179.9 Q 343.5 179.0, 342.9 178.6 Q 342.4 178.1, 341.4 178.1 L 339.7 178.1 L 339.7 181.8 L 341.4 181.8 " fill="#000000"/>
<path class="legend" d="M 346.1 185.5 L 347.5 185.5 L 347.5 187.0 L 346.1 187.0 L 346.1 185.5 M 346.1 180.5 L 347.5 180.5 L 347.5 182.0 L 346.1 182.0 L 346.1 180.5 " fill="#000000"/>
<path class="legend" d="" fill="#000000"/>
<path class="legend" d="M 354.5 178.9 Q 354.9 177.9, 355.8 177.4 Q 356.7 176.8, 357.9 176.8 Q 359.5 176.8, 360.4 177.7 Q 361.2 178.5, 361.2 180.0 Q 361.2 181.5, 360.1 182.9 Q 359.0 184.4, 356.7 186.0 L 361.4 186.0 L 361.4 187.2 L 354.5 187.2 L 354.5 186.2 Q 356.4 184.9, 357.5 183.8 Q 358.7 182.8, 359.2 181.9 Q 359.8 181.0, 359.8 180.1 Q 359.8 179.1, 359.3 178.5 Q 358.8 178.0, 357.9 178.0 Q 357.1 178.0, 356.6 178.3 Q 356.0 178.6, 355.6 179.4 L 354.5 178.9 " fill="#000000"/>
<path class="legend" d="M 368.0 181.8 Q 369.0 182.2, 369.5 182.8 Q 370.0 183.4, 370.0 184.4 Q 370.0 185.3, 369.6 185.9 Q 369.1 186.6, 368.3 187.0 Q 367.5 187.3, 366.5 187.3 Q 364.8 187.3, 363.8 186.6 Q 362.8 185.8, 362.8 184.4 Q 362.8 183.5, 363.2 182.9 Q 363.7 182.3, 364.6 181.8 Q 363.9 181.4, 363.5 180.9 Q 363.2 180.3, 363.2 179.4 Q 363.2 178.2, 364.0 177.5 Q 364.9 176.8, 366.4 176.8 Q 367.9 176.8, 368.8 177.5 Q 369.7 178.2, 369.7 179.4 Q 369.7 180.2, 369.2 180.8 Q 368.8 181.3, 368.0 181.8 M 366.4 177.9 Q 365.6 177.9, 365.1 178.3 Q 364.6 178.7, 364.6 179.4 Q 364.6 180.0, 364.9 180.3 Q 365.3 180.7, 365.7 180.9 Q 366.2 181.1, 367.1 181.4 Q 367.7 181.0, 367.9 180.5 Q 368.2 180.0, 368.2 179.4 Q 368.2 178.7, 367.7 178.3 Q 367.3 177.9, 366.4 177.9 M 366.5 186.3 Q 367.4 186.3, 368.0 185.7 Q 368.6 185.2, 368.6 184.4 Q 368.6 183.8, 368.3 183.5 Q 368.0 183.1, 367.5 182.9 Q 367.1 182.7, 366.3 182.5 L 365.6 182.2 Q 364.9 182.7, 364.6 183.2 Q 364.2 183.7, 364.2 184.4 Q 364.2 185.2, 364.8 185.7 Q 365.5 186.3, 366.5 186.3 " fill="#000000"/>
<path class="legend" d="M 371.5 185.7 L 372.9 185.7 L 372.9 187.2 L 371.5 187.2 L 371.5 185.7 " fill="#000000"/>
<path class="legend" d="M 379.6 181.8 Q 380.6 182.2, 381.1 182.8 Q 381.6 183.4, 381.6 184.4 Q 381.6 185.3, 381.2 185.9 Q 380.7 186.6, 379.9 187.0 Q 379.1 187.3, 378.1 187.3 Q 376.3 187.3, 375.4 186.6 Q 374.4 185.8, 374.4 184.4 Q 374.4 183.5, 374.8 182.9 Q 375.2 182.3, 376.1 181.8 Q 375.5 181.4, 375.1 180.9 Q 374.7 180.3, 374.7 179.4 Q 374.7 178.2, 375.6 177.5 Q 376.5 176.8, 378.0 176.8 Q 379.5 176.8, 380.4 177.5 Q 381.2 178.2, 381.2 179.4 Q 381.2 180.2, 380.8 180.8 Q 380.4 181.3, 379.6 181.8 M 378.0 177.9 Q 377.1 177.9, 376.7 178.3 Q 376.2 178.7, 376.2 179.4 Q 376.2 180.0, 376.5 180.3 Q 376.8 180.7, 377.3 180.9 Q 377.8 181.1, 378.6 181.4 Q 379.3 181.0, 379.5 180.5 Q 379.8 180.0, 379.8 179.4 Q 379.8 178.7, 379.3 178.3 Q 378.9 177.9, 378.0 177.9 M 378.1 186.3 Q 379.0 186.3, 379.6 185.7 Q 380.2 185.2, 380.2 184.4 Q 380.2 183.8, 379.9 183.5 Q 379.6 183.1, 379.1 182.9 Q 378.7 182.7, 377.8 182.5 L 377.2 182.2 Q 376.5 182.7, 376.1 183.2 Q 375.8 183.7, 375.8 184.4 Q 375.8 185.2, 376.4 185.7 Q 377.0 186.3, 378.1 186.3 " fill="#000000"/>
<path class="legend" d="M 386.8 180.8 Q 387.7 180.8, 388.4 181.2 Q 389.2 181.5, 389.6 182.3 Q 390.0 183.0, 390.0 183.9 Q 390.0 185.0, 389.5 185.8 Q 389.0 186.5, 388.1 186.9 Q 387.3 187.3, 386.3 187.3 Q 385.4 187.3, 384.5 187.0 Q 383.6 186.6, 383.0 186.0 L 383.9 185.1 Q 384.4 185.6, 385.1 185.9 Q 385.7 186.1, 386.4 186.1 Q 387.3 186.1, 387.9 185.6 Q 388.5 185.0, 388.5 184.0 Q 388.5 182.9, 387.9 182.4 Q 387.3 181.9, 386.3 181.9 Q 385.4 181.9, 384.4 182.3 L 383.6 181.9 L 384.1 176.9 L 389.4 176.9 L 389.2 178.1 L 385.3 178.1 L 385.0 181.1 Q 385.9 180.8, 386.8 180.8 " fill="#000000"/>
<ellipse cx="491.5" cy="100.0" rx="8.2" ry="8.2" class="atom-1" style="fill:#E5E533;fill-rule:evenodd;stroke:#E5E533;stroke-width:1.0px;stroke-linecap:butt;stroke-linejoin:miter;stroke-opacity:1"/>
<ellipse cx="508.9" cy="62.8" rx="8.2" ry="8.2" class="atom-2" style="fill:#9999E5;fill-rule:evenodd;stroke:#9999E5;stroke-width:1.0px;stroke-linecap:butt;stroke-linejoin:miter;stroke-opacity:1"/>
<ellipse cx="549.6" cy="67.9" rx="8.2" ry="8.2" class="atom-3" style="fill:#E5E533;fill-rule:evenodd;stroke:#E5E533;stroke-width:1.0px;stroke-linecap:butt;stroke-linejoin:miter;stroke-opacity:1"/>
<path class="bond-0 atom-0 atom-1" d="M 461.8,106.0 L 461.7,105.3" style="fill:none;fill-rule:evenodd;stroke:#E5E5E5;stroke-width:1.0px;stroke-linecap:butt;stroke-linejoin:miter;stroke-opacity:1"/>
<path class="bond-0 atom-0 atom-1" d="M 465.2,105.7 L 464.9,104.4" style="fill:none;fill-rule:evenodd;stroke:#E5E5E5;stroke-width:1.0px;stroke-linecap:butt;stroke-linejoin:miter;stroke-opacity:1"/>
<path class="bond-0 atom-0 atom-1" d="M 468.5,105.4 L 468.2,103.4" style="fill:none;fill-rule:evenodd;stroke:#E5E5E5;stroke-width:1.0px;stroke-linecap:butt;stroke-linejoin:miter;stroke-opacity:1"/>
<path class="bond-0 atom-0 atom-1" d="M 471.9,105.1 L 471.4,102.4" style="fill:none;fill-rule:evenodd;stroke:#E5E5E5;stroke-width:1.0px;stroke-linecap:butt;stroke-linejoin:miter;stroke-opacity:1"/>
<path class="bond-0 atom-0 atom-1" d="M 475.3,104.8 L 474.6,101.5" style="fill:none;fill-rule:evenodd;stroke:#E5E5E5;stroke-width:1.0px;stroke-linecap:butt;stroke-linejoin:miter;stroke-opacity:1"/>
<path class="bond-0 atom-0 atom-1" d="M 478.6,104.5 L 477.9,100.5" style="fill:none;fill-rule:evenodd;stroke:#E5E5E5;stroke-width:1.0px;stroke-linecap:butt;stroke-linejoin:miter;stroke-opacity:1"/>
<path class="bond-0 atom-0 atom-1" d="M 482.0,104.2 L 481.1,99.5" style="fill:none;fill-rule:evenodd;stroke:#E5E5E5;stroke-width:1.0px;stroke-linecap:butt;stroke-linejoin:miter;stroke-opacity:1"/>
<path class="bond-0 atom-0 atom-1" d="M 485.4,103.9 L 484.3,98.5" style="fill:none;fill-rule:evenodd;stroke:#E5E5E5;stroke-width:1.0px;stroke-linecap:butt;stroke-linejoin:miter;stroke-opacity:1"/>
<path class="bond-0 atom-0 atom-1" d="M 488.7,103.6 L 487.6,97.6" style="fill:none;fill-rule:evenodd;stroke:#E5E5E5;stroke-width:1.0px;stroke-linecap:butt;stroke-linejoin:miter;stroke-opacity:1"/>
<path class="bond-1 atom-1 atom-2" d="M 491.5,100.0 L 505.5,70.0" style="fill:none;fill-rule:evenodd;stroke:#000000;stroke-width:2.0px;stroke-linecap:butt;stroke-linejoin:miter;stroke-opacity:1"/>
<path class="bond-1 atom-1 atom-2" d="M 497.0,102.6 L 511.1,72.6" style="fill:none;fill-rule:evenodd;stroke:#000000;stroke-width:2.0px;stroke-linecap:butt;stroke-linejoin:miter;stroke-opacity:1;stroke-dasharray:6,4"/>
<path class="bond-2 atom-2 atom-3" d="M 515.0,60.5 L 544.2,64.1" style="fill:none;fill-rule:evenodd;stroke:#000000;stroke-width:2.0px;stroke-linecap:butt;stroke-linejoin:miter;stroke-opacity:1"/>
<path class="bond-2 atom-2 atom-3" d="M 514.2,66.6 L 543.4,70.2" style="fill:none;fill-rule:evenodd;stroke:#000000;stroke-width:2.0px;stroke-linecap:butt;stroke-linejoin:miter;stroke-opacity:1;stroke-dasharray:6,4"/>
<path class="bond-3 atom-3 atom-4" d="M 547.9,75.6 L 552.9,101.5" style="fill:none;fill-rule:evenodd;stroke:#E5E5E5;stroke-width:2.2px;stroke-linecap:butt;stroke-linejoin:miter;stroke-opacity:1"/>
<path class="bond-3 atom-3 atom-4" d="M 554.0,74.5 L 558.9,100.3" style="fill:none;fill-rule:evenodd;stroke:#E5E5E5;stroke-width:2.2px;stroke-linecap:butt;stroke-linejoin:miter;stroke-opacity:1;stroke-dasharray:6,4"/>
<path class="bond-4 atom-5 atom-1" d="M 515.2,126.4 L 487.7,100.7" style="fill:none;fill-rule:evenodd;stroke:#E5E5E5;stroke-width:2.2px;stroke-linecap:butt;stroke-linejoin:miter;stroke-opacity:1"/>
<path class="bond-4 atom-5 atom-1" d="M 519.4,121.9 L 492.8,97.0" style="fill:none;fill-rule:evenodd;stroke:#E5E5E5;stroke-width:2.2px;stroke-linecap:butt;stroke-linejoin:miter;stroke-opacity:1;stroke-dasharray:6,4"/>
<path class="atom-0" d="M 440.5 106.4 L 442.2 104.7 L 439.9 104.2 L 440.3 103.0 L 442.4 104.1 L 442.1 101.8 L 443.3 101.8 L 443.0 104.1 L 445.1 103.1 L 445.4 104.2 L 443.1 104.6 L 444.8 106.4 L 443.8 107.1 L 442.7 104.9 L 441.5 107.1 L 440.5 106.4 " fill="#191919"/>
<path class="atom-0" d="M 446.7 102.0 L 448.2 102.0 L 448.2 106.9 L 454.2 106.9 L 454.2 102.0 L 455.8 102.0 L 455.8 113.6 L 454.2 113.6 L 454.2 108.2 L 448.2 108.2 L 448.2 113.6 L 446.7 113.6 L 446.7 102.0 " fill="#191919"/>
<path class="atom-2" d="M 506.3 57.0 L 510.1 63.2 Q 510.5 63.8, 511.1 64.9 Q 511.7 66.0, 511.7 66.0 L 511.7 57.0 L 513.3 57.0 L 513.3 68.6 L 511.7 68.6 L 507.6 61.9 Q 507.1 61.1, 506.6 60.2 Q 506.1 59.3, 506.0 59.0 L 506.0 68.6 L 504.5 68.6 L 504.5 57.0 L 506.3 57.0 " fill="#000000"/>
<path class="atom-3" d="M 547.0 62.1 L 550.8 68.2 Q 551.2 68.8, 551.8 69.9 Q 552.4 71.0, 552.4 71.1 L 552.4 62.1 L 554.0 62.1 L 554.0 73.7 L 552.4 73.7 L 548.3 67.0 Q 547.8 66.2, 547.3 65.3 Q 546.8 64.4, 546.7 64.1 L 546.7 73.7 L 545.1 73.7 L 545.1 62.1 L 547.0 62.1 " fill="#000000"/>
<path class="atom-4" d="M 555.1 106.9 L 556.8 105.1 L 554.6 104.7 L 554.9 103.5 L 557.0 104.5 L 556.7 102.3 L 557.9 102.3 L 557.6 104.5 L 559.7 103.5 L 560.1 104.7 L 557.8 105.1 L 559.4 106.8 L 558.4 107.6 L 557.3 105.4 L 556.1 107.6 L 555.1 106.9 " fill="#191919"/>
<path class="atom-5" d="M 519.2 126.7 L 520.9 124.9 L 518.7 124.5 L 519.0 123.3 L 521.1 124.4 L 520.8 122.1 L 522.0 122.1 L 521.7 124.3 L 523.8 123.4 L 524.2 124.5 L 521.9 124.9 L 523.5 126.7 L 522.5 127.4 L 521.4 125.2 L 520.2 127.4 L 519.2 126.7 " fill="#191919"/>
<path class="legend" d="M 410.0 177.1 L 416.0 177.1 L 416.0 178.3 L 411.4 178.3 L 411.4 181.4 L 415.5 181.4 L 415.5 182.5 L 411.4 182.5 L 411.4 187.2 L 410.0 187.2 L 410.0 177.1 " fill="#000000"/>
<path class="legend" d="M 416.8 183.6 Q 416.8 181.8, 417.7 180.8 Q 418.6 179.8, 420.3 179.8 Q 421.9 179.8, 422.6 180.8 Q 423.3 181.7, 423.3 183.5 L 423.3 183.7 L 418.2 183.7 Q 418.2 185.0, 418.8 185.6 Q 419.3 186.3, 420.4 186.3 Q 420.9 186.3, 421.5 186.2 Q 422.0 186.0, 422.6 185.7 L 423.0 186.7 Q 422.3 187.0, 421.6 187.2 Q 421.0 187.4, 420.3 187.4 Q 418.6 187.4, 417.7 186.4 Q 416.8 185.4, 416.8 183.6 M 420.3 180.8 Q 419.4 180.8, 418.9 181.3 Q 418.4 181.8, 418.2 182.7 L 421.9 182.7 Q 421.8 181.8, 421.4 181.3 Q 421.0 180.8, 420.3 180.8 " fill="#000000"/>
<path class="legend" d="M 424.3 185.3 Q 424.3 184.1, 425.3 183.4 Q 426.2 182.8, 428.0 182.8 L 429.0 182.8 L 429.0 182.5 Q 429.0 181.6, 428.7 181.2 Q 428.3 180.8, 427.4 180.8 Q 426.8 180.8, 426.3 181.0 Q 425.9 181.1, 425.2 181.4 L 424.8 180.4 Q 426.1 179.8, 427.4 179.8 Q 429.0 179.8, 429.7 180.5 Q 430.4 181.1, 430.4 182.5 L 430.4 187.2 L 429.3 187.2 Q 429.3 187.2, 429.3 187.0 Q 429.2 186.7, 429.2 186.4 Q 428.1 187.4, 426.8 187.4 Q 425.7 187.4, 425.0 186.8 Q 424.3 186.2, 424.3 185.3 M 425.7 185.2 Q 425.7 185.8, 426.0 186.1 Q 426.4 186.4, 427.0 186.4 Q 427.6 186.4, 428.1 186.1 Q 428.7 185.8, 429.0 185.4 L 429.0 183.8 L 428.0 183.8 Q 426.9 183.8, 426.3 184.2 Q 425.7 184.5, 425.7 185.2 " fill="#000000"/>
<path class="legend" d="M 432.0 180.9 L 432.0 179.9 L 433.4 179.9 L 433.6 177.8 L 434.6 177.8 L 434.6 179.9 L 436.8 179.9 L 436.8 180.9 L 434.6 180.9 L 434.6 185.0 Q 434.6 186.3, 435.7 186.3 Q 436.1 186.3, 436.7 186.1 L 437.0 187.0 Q 436.2 187.3, 435.4 187.3 Q 434.5 187.3, 433.9 186.8 Q 433.3 186.2, 433.3 185.1 L 433.3 180.9 L 432.0 180.9 " fill="#000000"/>
<path class="legend" d="M 444.0 179.9 L 444.0 187.2 L 442.9 187.2 L 442.8 186.2 Q 441.8 187.4, 440.3 187.4 Q 439.1 187.4, 438.4 186.7 Q 437.8 186.0, 437.8 184.8 L 437.8 179.9 L 439.1 179.9 L 439.1 184.7 Q 439.1 185.5, 439.5 185.9 Q 439.8 186.3, 440.6 186.3 Q 441.2 186.3, 441.8 186.0 Q 442.3 185.7, 442.7 185.2 L 442.7 179.9 L 444.0 179.9 " fill="#000000"/>
<path class="legend" d="M 446.8 179.9 L 446.9 180.9 Q 447.7 179.8, 449.0 179.8 Q 449.4 179.8, 449.9 179.9 L 449.7 181.1 Q 449.1 181.0, 448.7 181.0 Q 448.1 181.0, 447.7 181.2 Q 447.4 181.5, 447.0 182.0 L 447.0 187.2 L 445.7 187.2 L 445.7 179.9 L 446.8 179.9 " fill="#000000"/>
<path class="legend" d="M 450.6 183.6 Q 450.6 181.8, 451.5 180.8 Q 452.4 179.8, 454.1 179.8 Q 455.7 179.8, 456.4 180.8 Q 457.1 181.7, 457.1 183.5 L 457.1 183.7 L 452.0 183.7 Q 452.0 185.0, 452.6 185.6 Q 453.1 186.3, 454.2 186.3 Q 454.7 186.3, 455.3 186.2 Q 455.8 186.0, 456.4 185.7 L 456.8 186.7 Q 456.1 187.0, 455.4 187.2 Q 454.8 187.4, 454.1 187.4 Q 452.4 187.4, 451.5 186.4 Q 450.6 185.4, 450.6 183.6 M 454.1 180.8 Q 453.2 180.8, 452.7 181.3 Q 452.2 181.8, 452.0 182.7 L 455.7 182.7 Q 455.6 181.8, 455.2 181.3 Q 454.8 180.8, 454.1 180.8 " fill="#000000"/>
<path class="legend" d="" fill="#000000"/>
<path class="legend" d="M 463.9 186.1 L 466.2 186.1 L 466.2 178.6 L 463.7 179.3 L 463.4 178.5 L 466.5 177.1 L 467.5 177.3 L 467.5 186.1 L 469.5 186.1 L 469.5 187.2 L 463.9 187.2 L 463.9 186.1 " fill="#000000"/>
<path class="legend" d="M 471.1 186.1 L 473.3 186.1 L 473.3 178.6 L 470.9 179.3 L 470.6 178.5 L 473.7 177.1 L 474.7 177.3 L 474.7 186.1 L 476.7 186.1 L 476.7 187.2 L 471.1 187.2 L 471.1 186.1 " fill="#000000"/>
<path class="legend" d="M 481.7 180.9 Q 482.6 180.9, 483.3 181.3 Q 484.0 181.7, 484.4 182.4 Q 484.8 183.1, 484.8 184.0 Q 484.8 185.0, 484.3 185.7 Q 483.9 186.5, 483.1 186.9 Q 482.4 187.4, 481.4 187.4 Q 479.6 187.4, 478.7 186.1 Q 477.8 184.9, 477.8 182.5 Q 477.8 179.8, 478.9 178.4 Q 480.0 177.0, 482.2 177.0 Q 482.8 177.0, 483.3 177.2 Q 483.9 177.3, 484.4 177.6 L 483.8 178.6 Q 483.1 178.2, 482.2 178.2 Q 480.7 178.2, 480.0 179.1 Q 479.3 180.0, 479.2 181.9 Q 479.7 181.4, 480.4 181.2 Q 481.0 180.9, 481.7 180.9 M 481.4 186.2 Q 481.9 186.2, 482.4 185.9 Q 482.8 185.6, 483.1 185.1 Q 483.3 184.6, 483.3 184.0 Q 483.3 183.1, 482.8 182.6 Q 482.3 182.1, 481.5 182.1 Q 480.8 182.1, 480.2 182.3 Q 479.6 182.6, 479.2 183.0 Q 479.3 184.7, 479.8 185.4 Q 480.3 186.2, 481.4 186.2 " fill="#000000"/>
<path class="legend" d="M 492.6 183.8 L 493.8 183.8 L 493.8 184.9 L 492.6 184.9 L 492.6 187.2 L 491.3 187.2 L 491.3 184.9 L 486.0 184.9 L 486.0 184.0 L 490.5 177.1 L 492.6 177.1 L 492.6 183.8 M 487.7 183.8 L 491.3 183.8 L 491.3 178.1 L 487.7 183.8 " fill="#000000"/>
<path class="legend" d="" fill="#000000"/>
<path class="legend" d="M 500.3 176.2 L 501.5 176.2 L 501.5 190.0 L 500.3 190.0 L 500.3 176.2 " fill="#000000"/>
<path class="legend" d="" fill="#000000"/>
<path class="legend" d="M 508.8 185.7 Q 508.9 185.7, 509.4 185.9 Q 509.9 186.1, 510.4 186.2 Q 510.9 186.4, 511.4 186.4 Q 512.4 186.4, 512.9 185.9 Q 513.5 185.4, 513.5 184.6 Q 513.5 184.1, 513.2 183.7 Q 512.9 183.4, 512.5 183.2 Q 512.1 183.0, 511.4 182.8 Q 510.5 182.5, 509.9 182.3 Q 509.4 182.0, 509.0 181.5 Q 508.6 180.9, 508.6 180.0 Q 508.6 178.7, 509.5 178.0 Q 510.4 177.2, 512.1 177.2 Q 513.2 177.2, 514.6 177.7 L 514.2 178.8 Q 513.0 178.3, 512.1 178.3 Q 511.1 178.3, 510.6 178.7 Q 510.0 179.1, 510.1 179.8 Q 510.1 180.4, 510.3 180.7 Q 510.6 181.0, 511.0 181.2 Q 511.4 181.4, 512.1 181.6 Q 513.0 181.9, 513.6 182.2 Q 514.1 182.5, 514.5 183.1 Q 514.9 183.6, 514.9 184.6 Q 514.9 186.0, 514.0 186.8 Q 513.0 187.5, 511.5 187.5 Q 510.6 187.5, 509.9 187.3 Q 509.2 187.1, 508.4 186.8 L 508.8 185.7 " fill="#000000"/>
<path class="legend" d="M 516.1 177.1 L 517.4 177.1 L 517.4 181.4 L 522.6 181.4 L 522.6 177.1 L 524.0 177.1 L 524.0 187.2 L 522.6 187.2 L 522.6 182.6 L 517.4 182.6 L 517.4 187.2 L 516.1 187.2 L 516.1 177.1 " fill="#000000"/>
<path class="legend" d="M 533.1 187.2 L 532.1 184.3 L 528.1 184.3 L 527.0 187.2 L 525.7 187.2 L 529.2 177.1 L 530.8 177.1 L 534.4 187.2 L 533.1 187.2 M 528.5 183.1 L 531.7 183.1 L 530.0 178.6 L 528.5 183.1 " fill="#000000"/>
<path class="legend" d="M 538.1 177.1 Q 539.8 177.1, 540.7 177.9 Q 541.6 178.7, 541.6 180.1 Q 541.6 181.5, 540.7 182.3 Q 539.8 183.1, 538.1 183.1 L 536.5 183.1 L 536.5 187.2 L 535.1 187.2 L 535.1 177.1 L 538.1 177.1 M 538.1 182.0 Q 539.1 182.0, 539.6 181.5 Q 540.1 181.0, 540.1 180.1 Q 540.1 179.2, 539.6 178.8 Q 539.1 178.3, 538.1 178.3 L 536.5 178.3 L 536.5 182.0 L 538.1 182.0 " fill="#000000"/>
<path class="legend" d="M 542.7 185.6 L 544.2 185.6 L 544.2 187.0 L 542.7 187.0 L 542.7 185.6 M 542.7 180.7 L 544.2 180.7 L 544.2 182.1 L 542.7 182.1 L 542.7 180.7 " fill="#000000"/>
<path class="legend" d="" fill="#000000"/>
<path class="legend" d="M 551.0 182.1 L 556.2 182.1 L 556.2 183.3 L 551.0 183.3 L 551.0 182.1 " fill="#000000"/>
<path class="legend" d="M 558.0 186.1 L 560.2 186.1 L 560.2 178.6 L 557.7 179.3 L 557.4 178.5 L 560.5 177.1 L 561.5 177.3 L 561.5 186.1 L 563.5 186.1 L 563.5 187.2 L 558.0 187.2 L 558.0 186.1 " fill="#000000"/>
<path class="legend" d="M 569.9 178.3 L 564.6 178.3 L 564.6 177.1 L 571.3 177.1 L 571.3 178.2 L 567.2 187.2 L 565.8 187.2 L 569.9 178.3 " fill="#000000"/>
<path class="legend" d="M 572.2 185.8 L 573.6 185.8 L 573.6 187.2 L 572.2 187.2 L 572.2 185.8 " fill="#000000"/>
<path class="legend" d="M 575.1 179.1 Q 575.5 178.1, 576.3 177.6 Q 577.2 177.0, 578.4 177.0 Q 580.0 177.0, 580.8 177.9 Q 581.7 178.7, 581.7 180.2 Q 581.7 181.7, 580.6 183.0 Q 579.5 184.4, 577.2 186.1 L 581.9 186.1 L 581.9 187.2 L 575.1 187.2 L 575.1 186.3 Q 576.9 184.9, 578.0 183.9 Q 579.2 182.9, 579.7 182.1 Q 580.3 181.2, 580.3 180.2 Q 580.3 179.3, 579.8 178.7 Q 579.3 178.2, 578.4 178.2 Q 577.6 178.2, 577.1 178.5 Q 576.5 178.8, 576.2 179.6 L 575.1 179.1 " fill="#000000"/>
<path class="legend" d="M 588.1 181.9 Q 589.0 182.2, 589.5 182.8 Q 590.0 183.5, 590.0 184.5 Q 590.0 185.3, 589.6 186.0 Q 589.1 186.7, 588.4 187.0 Q 587.6 187.4, 586.5 187.4 Q 585.5 187.4, 584.6 187.0 Q 583.8 186.6, 583.2 185.9 L 584.0 185.0 Q 584.6 185.7, 585.2 186.0 Q 585.7 186.2, 586.5 186.2 Q 587.5 186.2, 588.0 185.8 Q 588.6 185.3, 588.6 184.5 Q 588.6 183.4, 588.0 183.0 Q 587.4 182.5, 586.2 182.5 L 585.4 182.5 L 585.4 181.5 L 586.1 181.5 Q 587.2 181.5, 587.8 181.0 Q 588.4 180.5, 588.4 179.6 Q 588.4 179.0, 587.9 178.6 Q 587.4 178.2, 586.6 178.2 Q 585.7 178.2, 585.2 178.5 Q 584.7 178.8, 584.3 179.5 L 583.3 179.0 Q 583.6 178.2, 584.5 177.6 Q 585.4 177.0, 586.6 177.0 Q 588.0 177.0, 588.9 177.7 Q 589.8 178.4, 589.8 179.6 Q 589.8 180.4, 589.3 181.0 Q 588.9 181.6, 588.1 181.9 " fill="#000000"/>
<ellipse cx="88.0" cy="322.8" rx="8.2" ry="8.2" class="atom-3" style="fill:#9999E5;fill-rule:evenodd;stroke:#9999E5;stroke-width:1.0px;stroke-linecap:butt;stroke-linejoin:miter;stroke-opacity:1"/>
<ellipse cx="123.2" cy="344.0" rx="8.2" ry="8.2" class="atom-4" style="fill:#CCCCCC;fill-rule:evenodd;stroke:#CCCCCC;stroke-width:1.0px;stroke-linecap:butt;stroke-linejoin:miter;stroke-opacity:1"/>
<ellipse cx="87.3" cy="363.8" rx="8.2" ry="8.2" class="atom-5" style="fill:#CCCCCC;fill-rule:evenodd;stroke:#CCCCCC;stroke-width:1.0px;stroke-linecap:butt;stroke-linejoin:miter;stroke-opacity:1"/>
<path class="bond-0 atom-0 atom-1" d="M 126.2,255.6 L 87.6,254.8" style="fill:none;fill-rule:evenodd;stroke:#E5E5E5;stroke-width:2.2px;stroke-linecap:butt;stroke-linejoin:miter;stroke-opacity:1"/>
<path class="bond-0 atom-0 atom-1" d="M 126.4,249.4 L 87.7,248.7" style="fill:none;fill-rule:evenodd;stroke:#E5E5E5;stroke-width:2.2px;stroke-linecap:butt;stroke-linejoin:miter;stroke-opacity:1"/>
<path class="bond-1 atom-1 atom-2" d="M 89.4,251.8 L 68.2,286.9" style="fill:none;fill-rule:evenodd;stroke:#000000;stroke-width:2.0px;stroke-linecap:butt;stroke-linejoin:miter;stroke-opacity:1"/>
<path class="bond-2 atom-2 atom-3" d="M 68.2,286.9 L 88.0,322.8" style="fill:none;fill-rule:evenodd;stroke:#000000;stroke-width:2.0px;stroke-linecap:butt;stroke-linejoin:miter;stroke-opacity:1"/>
<path class="bond-3 atom-3 atom-4" d="M 88.0,322.8 L 123.2,344.0" style="fill:none;fill-rule:evenodd;stroke:#000000;stroke-width:2.0px;stroke-linecap:butt;stroke-linejoin:miter;stroke-opacity:1"/>
<path class="bond-4 atom-4 atom-5" d="M 123.2,344.0 L 87.3,363.8" style="fill:none;fill-rule:evenodd;stroke:#000000;stroke-width:2.0px;stroke-linecap:butt;stroke-linejoin:miter;stroke-opacity:1"/>
<path class="bond-5 atom-1 atom-6" d="M 89.4,251.8 L 70.0,216.7" style="fill:none;fill-rule:evenodd;stroke:#E5E5E5;stroke-width:2.2px;stroke-linecap:butt;stroke-linejoin:miter;stroke-opacity:1"/>
<path class="bond-6 atom-5 atom-3" d="M 87.3,363.8 L 88.0,322.8" style="fill:none;fill-rule:evenodd;stroke:#000000;stroke-width:2.0px;stroke-linecap:butt;stroke-linejoin:miter;stroke-opacity:1"/>
<path d="M 88.9,252.7 L 89.4,251.8 L 88.9,250.9" style="fill:none;stroke:#000000;stroke-width:2.0px;stroke-linecap:butt;stroke-linejoin:miter;stroke-miterlimit:10;stroke-opacity:1;"/>
<path d="M 69.3,285.2 L 68.2,286.9 L 69.2,288.7" style="fill:none;stroke:#000000;stroke-width:2.0px;stroke-linecap:butt;stroke-linejoin:miter;stroke-miterlimit:10;stroke-opacity:1;"/>
<path d="M 121.4,342.9 L 123.2,344.0 L 121.4,345.0" style="fill:none;stroke:#000000;stroke-width:2.0px;stroke-linecap:butt;stroke-linejoin:miter;stroke-miterlimit:10;stroke-opacity:1;"/>
<path d="M 89.0,362.8 L 87.3,363.8 L 87.3,361.7" style="fill:none;stroke:#000000;stroke-width:2.0px;stroke-linecap:butt;stroke-linejoin:miter;stroke-miterlimit:10;stroke-opacity:1;"/>
<path class="atom-0" d="M 128.2 251.3 L 129.9 249.6 L 127.7 249.1 L 128.0 247.9 L 130.1 249.0 L 129.8 246.7 L 131.0 246.7 L 130.7 249.0 L 132.8 248.0 L 133.2 249.1 L 130.9 249.5 L 132.5 251.3 L 131.5 252.0 L 130.4 249.8 L 129.2 252.0 L 128.2 251.3 " fill="#191919"/>
<path class="atom-6" d="M 67.4 214.6 L 69.1 212.9 L 66.8 212.4 L 67.2 211.2 L 69.3 212.3 L 69.0 210.0 L 70.2 210.0 L 69.9 212.3 L 72.0 211.3 L 72.3 212.4 L 70.0 212.8 L 71.7 214.6 L 70.7 215.3 L 69.6 213.1 L 68.4 215.3 L 67.4 214.6 " fill="#191919"/>
<path class="legend" d="M 10.0 376.2 L 16.5 376.2 L 16.5 377.4 L 11.5 377.4 L 11.5 380.7 L 15.9 380.7 L 15.9 382.0 L 11.5 382.0 L 11.5 387.0 L 10.0 387.0 L 10.0 376.2 " fill="#000000"/>
<path class="legend" d="M 17.3 383.1 Q 17.3 381.1, 18.3 380.1 Q 19.3 379.0, 21.0 379.0 Q 22.8 379.0, 23.5 380.1 Q 24.3 381.1, 24.3 383.0 L 24.3 383.3 L 18.8 383.3 Q 18.8 384.6, 19.4 385.3 Q 20.0 386.0, 21.1 386.0 Q 21.8 386.0, 22.3 385.9 Q 22.9 385.7, 23.6 385.4 L 24.0 386.4 Q 23.2 386.8, 22.5 387.0 Q 21.8 387.2, 21.1 387.2 Q 19.3 387.2, 18.3 386.1 Q 17.3 385.0, 17.3 383.1 M 21.0 380.1 Q 20.1 380.1, 19.6 380.7 Q 19.0 381.2, 18.9 382.2 L 22.8 382.2 Q 22.7 381.1, 22.2 380.7 Q 21.8 380.1, 21.0 380.1 " fill="#000000"/>
<path class="legend" d="M 25.4 384.9 Q 25.4 383.6, 26.4 383.0 Q 27.4 382.3, 29.3 382.3 L 30.5 382.3 L 30.5 382.0 Q 30.5 381.0, 30.0 380.6 Q 29.6 380.1, 28.7 380.1 Q 28.0 380.1, 27.5 380.3 Q 27.1 380.4, 26.3 380.7 L 25.9 379.7 Q 27.3 379.0, 28.7 379.0 Q 30.4 379.0, 31.1 379.7 Q 31.9 380.4, 31.9 382.0 L 31.9 387.0 L 30.8 387.0 Q 30.8 387.0, 30.7 386.7 Q 30.7 386.5, 30.6 386.1 Q 29.5 387.2, 28.0 387.2 Q 26.8 387.2, 26.1 386.6 Q 25.4 386.0, 25.4 384.9 M 26.9 384.9 Q 26.9 385.5, 27.2 385.8 Q 27.6 386.1, 28.3 386.1 Q 28.9 386.1, 29.5 385.8 Q 30.1 385.5, 30.5 385.0 L 30.5 383.3 L 29.4 383.3 Q 28.1 383.3, 27.5 383.7 Q 26.9 384.1, 26.9 384.9 " fill="#000000"/>
<path class="legend" d="M 33.6 380.3 L 33.6 379.1 L 35.1 379.1 L 35.4 376.8 L 36.4 376.8 L 36.4 379.1 L 38.8 379.1 L 38.8 380.3 L 36.4 380.3 L 36.4 384.6 Q 36.4 386.0, 37.6 386.0 Q 38.0 386.0, 38.7 385.8 L 39.0 386.8 Q 38.1 387.1, 37.3 387.1 Q 36.3 387.1, 35.6 386.5 Q 35.0 385.9, 35.0 384.7 L 35.0 380.3 L 33.6 380.3 " fill="#000000"/>
<path class="legend" d="M 46.6 379.1 L 46.6 387.0 L 45.4 387.0 L 45.2 385.9 Q 44.2 387.2, 42.6 387.2 Q 41.2 387.2, 40.5 386.5 Q 39.9 385.7, 39.9 384.4 L 39.9 379.1 L 41.3 379.1 L 41.3 384.3 Q 41.3 385.2, 41.7 385.6 Q 42.0 386.0, 42.8 386.0 Q 43.6 386.0, 44.2 385.7 Q 44.8 385.4, 45.1 384.8 L 45.1 379.1 L 46.6 379.1 " fill="#000000"/>
<path class="legend" d="M 49.5 379.1 L 49.7 380.2 Q 50.5 379.0, 51.9 379.0 Q 52.3 379.0, 52.9 379.2 L 52.7 380.5 Q 52.0 380.3, 51.6 380.3 Q 51.0 380.3, 50.6 380.6 Q 50.1 380.8, 49.8 381.4 L 49.8 387.0 L 48.4 387.0 L 48.4 379.1 L 49.5 379.1 " fill="#000000"/>
<path class="legend" d="M 53.6 383.1 Q 53.6 381.1, 54.6 380.1 Q 55.6 379.0, 57.3 379.0 Q 59.1 379.0, 59.8 380.1 Q 60.6 381.1, 60.6 383.0 L 60.6 383.3 L 55.1 383.3 Q 55.1 384.6, 55.7 385.3 Q 56.3 386.0, 57.5 386.0 Q 58.1 386.0, 58.6 385.9 Q 59.2 385.7, 59.9 385.4 L 60.3 386.4 Q 59.5 386.8, 58.8 387.0 Q 58.1 387.2, 57.4 387.2 Q 55.6 387.2, 54.6 386.1 Q 53.6 385.0, 53.6 383.1 M 57.3 380.1 Q 56.4 380.1, 55.9 380.7 Q 55.3 381.2, 55.2 382.2 L 59.1 382.2 Q 59.0 381.1, 58.6 380.7 Q 58.1 380.1, 57.3 380.1 " fill="#000000"/>
<path class="legend" d="" fill="#000000"/>
<path class="legend" d="M 67.4 378.2 Q 67.8 377.2, 68.8 376.6 Q 69.7 376.0, 71.0 376.0 Q 72.7 376.0, 73.6 376.9 Q 74.5 377.8, 74.5 379.4 Q 74.5 381.0, 73.3 382.5 Q 72.1 384.0, 69.7 385.8 L 74.7 385.8 L 74.7 387.0 L 67.4 387.0 L 67.4 386.0 Q 69.4 384.6, 70.6 383.5 Q 71.8 382.4, 72.4 381.5 Q 73.0 380.5, 73.0 379.5 Q 73.0 378.4, 72.4 377.9 Q 71.9 377.3, 71.0 377.3 Q 70.1 377.3, 69.6 377.6 Q 69.0 378.0, 68.6 378.8 L 67.4 378.2 " fill="#000000"/>
<path class="legend" d="M 76.2 378.2 Q 76.6 377.2, 77.5 376.6 Q 78.5 376.0, 79.8 376.0 Q 81.4 376.0, 82.3 376.9 Q 83.3 377.8, 83.3 379.4 Q 83.3 381.0, 82.1 382.5 Q 80.9 384.0, 78.4 385.8 L 83.5 385.8 L 83.5 387.0 L 76.1 387.0 L 76.1 386.0 Q 78.2 384.6, 79.4 383.5 Q 80.6 382.4, 81.2 381.5 Q 81.7 380.5, 81.7 379.5 Q 81.7 378.4, 81.2 377.9 Q 80.7 377.3, 79.8 377.3 Q 78.9 377.3, 78.3 377.6 Q 77.7 378.0, 77.3 378.8 L 76.2 378.2 " fill="#000000"/>
<path class="legend" d="M 90.1 381.3 Q 91.2 381.6, 91.7 382.3 Q 92.2 383.0, 92.2 384.1 Q 92.2 385.0, 91.7 385.7 Q 91.3 386.4, 90.4 386.8 Q 89.6 387.2, 88.5 387.2 Q 87.3 387.2, 86.4 386.8 Q 85.6 386.4, 84.9 385.5 L 85.8 384.7 Q 86.4 385.4, 87.0 385.7 Q 87.6 386.0, 88.5 386.0 Q 89.5 386.0, 90.1 385.4 Q 90.7 384.9, 90.7 384.0 Q 90.7 382.9, 90.0 382.4 Q 89.4 381.9, 88.1 381.9 L 87.3 381.9 L 87.3 380.8 L 88.0 380.8 Q 89.2 380.8, 89.8 380.3 Q 90.4 379.8, 90.4 378.8 Q 90.4 378.1, 89.9 377.7 Q 89.4 377.3, 88.5 377.3 Q 87.6 377.3, 87.0 377.6 Q 86.5 377.9, 86.0 378.7 L 85.0 378.2 Q 85.4 377.3, 86.3 376.7 Q 87.2 376.0, 88.5 376.0 Q 90.1 376.0, 91.0 376.8 Q 92.0 377.6, 92.0 378.8 Q 92.0 379.7, 91.5 380.3 Q 91.0 381.0, 90.1 381.3 " fill="#000000"/>
<path class="legend" d="" fill="#000000"/>
<path class="legend" d="M 99.3 375.2 L 100.6 375.2 L 100.6 390.0 L 99.3 390.0 L 99.3 375.2 " fill="#000000"/>
<path class="legend" d="" fill="#000000"/>
<path class="legend" d="M 108.4 385.3 Q 108.6 385.4, 109.1 385.6 Q 109.6 385.8, 110.1 386.0 Q 110.7 386.1, 111.2 386.1 Q 112.3 386.1, 112.9 385.6 Q 113.5 385.1, 113.5 384.2 Q 113.5 383.6, 113.2 383.2 Q 112.9 382.9, 112.4 382.7 Q 112.0 382.5, 111.2 382.2 Q 110.2 382.0, 109.6 381.7 Q 109.1 381.4, 108.7 380.8 Q 108.3 380.2, 108.3 379.3 Q 108.3 377.9, 109.2 377.0 Q 110.1 376.2, 112.0 376.2 Q 113.2 376.2, 114.6 376.8 L 114.3 378.0 Q 113.0 377.4, 112.0 377.4 Q 110.9 377.4, 110.4 377.9 Q 109.8 378.3, 109.8 379.1 Q 109.8 379.7, 110.1 380.0 Q 110.4 380.4, 110.8 380.6 Q 111.3 380.8, 112.0 381.0 Q 113.0 381.3, 113.6 381.6 Q 114.2 381.9, 114.6 382.5 Q 115.0 383.2, 115.0 384.2 Q 115.0 385.7, 114.0 386.5 Q 113.0 387.3, 111.3 387.3 Q 110.3 387.3, 109.6 387.1 Q 108.9 386.9, 108.0 386.6 L 108.4 385.3 " fill="#000000"/>
<path class="legend" d="M 116.2 376.2 L 117.7 376.2 L 117.7 380.8 L 123.3 380.8 L 123.3 376.2 L 124.7 376.2 L 124.7 387.0 L 123.3 387.0 L 123.3 382.0 L 117.7 382.0 L 117.7 387.0 L 116.2 387.0 L 116.2 376.2 " fill="#000000"/>
<path class="legend" d="M 134.6 387.0 L 133.4 383.8 L 129.1 383.8 L 128.0 387.0 L 126.6 387.0 L 130.3 376.2 L 132.1 376.2 L 136.0 387.0 L 134.6 387.0 M 129.6 382.6 L 133.0 382.6 L 131.2 377.7 L 129.6 382.6 " fill="#000000"/>
<path class="legend" d="M 139.9 376.2 Q 141.8 376.2, 142.7 377.0 Q 143.7 377.8, 143.7 379.4 Q 143.7 380.9, 142.7 381.7 Q 141.7 382.6, 139.9 382.6 L 138.2 382.6 L 138.2 387.0 L 136.7 387.0 L 136.7 376.2 L 139.9 376.2 M 139.9 381.3 Q 141.0 381.3, 141.5 380.8 Q 142.1 380.3, 142.1 379.4 Q 142.1 378.4, 141.5 377.9 Q 141.0 377.4, 139.9 377.4 L 138.2 377.4 L 138.2 381.3 L 139.9 381.3 " fill="#000000"/>
<path class="legend" d="M 144.9 385.2 L 146.4 385.2 L 146.4 386.8 L 144.9 386.8 L 144.9 385.2 M 144.9 380.0 L 146.4 380.0 L 146.4 381.5 L 144.9 381.5 L 144.9 380.0 " fill="#000000"/>
<path class="legend" d="" fill="#000000"/>
<path class="legend" d="M 154.3 385.8 L 156.7 385.8 L 156.7 377.7 L 154.1 378.5 L 153.7 377.6 L 157.1 376.1 L 158.2 376.3 L 158.2 385.8 L 160.3 385.8 L 160.3 387.0 L 154.3 387.0 L 154.3 385.8 " fill="#000000"/>
<path class="legend" d="M 161.5 378.2 Q 161.9 377.2, 162.8 376.6 Q 163.8 376.0, 165.1 376.0 Q 166.8 376.0, 167.7 376.9 Q 168.6 377.8, 168.6 379.4 Q 168.6 381.0, 167.4 382.5 Q 166.2 384.0, 163.8 385.8 L 168.8 385.8 L 168.8 387.0 L 161.5 387.0 L 161.5 386.0 Q 163.5 384.6, 164.7 383.5 Q 165.9 382.4, 166.5 381.5 Q 167.1 380.5, 167.1 379.5 Q 167.1 378.4, 166.5 377.9 Q 166.0 377.3, 165.1 377.3 Q 164.2 377.3, 163.7 377.6 Q 163.1 378.0, 162.7 378.8 L 161.5 378.2 " fill="#000000"/>
<path class="legend" d="M 170.2 385.5 L 171.8 385.5 L 171.8 387.0 L 170.2 387.0 L 170.2 385.5 " fill="#000000"/>
<path class="legend" d="M 173.3 378.2 Q 173.7 377.2, 174.7 376.6 Q 175.6 376.0, 176.9 376.0 Q 178.6 376.0, 179.5 376.9 Q 180.4 377.8, 180.4 379.4 Q 180.4 381.0, 179.2 382.5 Q 178.0 384.0, 175.6 385.8 L 180.6 385.8 L 180.6 387.0 L 173.3 387.0 L 173.3 386.0 Q 175.3 384.6, 176.5 383.5 Q 177.7 382.4, 178.3 381.5 Q 178.9 380.5, 178.9 379.5 Q 178.9 378.4, 178.4 377.9 Q 177.8 377.3, 176.9 377.3 Q 176.1 377.3, 175.5 377.6 Q 174.9 378.0, 174.5 378.8 L 173.3 378.2 " fill="#000000"/>
<path class="legend" d="M 186.0 387.2 Q 184.0 387.2, 183.0 385.7 Q 182.1 384.2, 182.1 381.6 Q 182.1 379.0, 183.0 377.5 Q 184.0 376.0, 186.0 376.0 Q 188.0 376.0, 189.0 377.5 Q 190.0 379.0, 190.0 381.6 Q 190.0 384.2, 189.0 385.7 Q 188.0 387.2, 186.0 387.2 M 186.0 385.9 Q 187.2 385.9, 187.8 384.8 Q 188.5 383.7, 188.5 381.6 Q 188.5 379.5, 187.8 378.4 Q 187.2 377.3, 186.0 377.3 Q 184.9 377.3, 184.2 378.4 Q 183.6 379.5, 183.6 381.6 Q 183.6 383.7, 184.2 384.8 Q 184.9 385.9, 186.0 385.9 " fill="#000000"/>
<ellipse cx="283.1" cy="295.8" rx="8.2" ry="8.2" class="atom-1" style="fill:#9999E5;fill-rule:evenodd;stroke:#9999E5;stroke-width:1.0px;stroke-linecap:butt;stroke-linejoin:miter;stroke-opacity:1"/>
<path class="bond-0 atom-0 atom-1" d="M 319.8,284.7 L 287.9,294.4" style="fill:none;fill-rule:evenodd;stroke:#E5E5E5;stroke-width:2.2px;stroke-linecap:butt;stroke-linejoin:miter;stroke-opacity:1"/>
<path class="atom-0" d="M 320.2 282.6 L 321.9 280.9 L 319.6 280.4 L 319.9 279.2 L 322.0 280.3 L 321.7 278.0 L 323.0 278.0 L 322.6 280.3 L 324.7 279.3 L 325.1 280.4 L 322.8 280.8 L 324.4 282.6 L 323.4 283.3 L 322.3 281.1 L 321.2 283.3 L 320.2 282.6 " fill="#191919"/>
<path class="atom-1" d="M 279.7 290.0 L 286.6 290.0 L 286.6 291.3 L 281.2 291.3 L 281.2 294.9 L 286.0 294.9 L 286.0 296.2 L 281.2 296.2 L 281.2 301.6 L 279.7 301.6 L 279.7 290.0 " fill="#000000"/>
<path class="legend" d="M 210.0 376.2 L 216.4 376.2 L 216.4 377.4 L 211.5 377.4 L 211.5 380.7 L 215.9 380.7 L 215.9 382.0 L 211.5 382.0 L 211.5 387.0 L 210.0 387.0 L 210.0 376.2 " fill="#000000"/>
<path class="legend" d="M 217.3 383.1 Q 217.3 381.2, 218.3 380.1 Q 219.2 379.0, 221.0 379.0 Q 222.7 379.0, 223.5 380.1 Q 224.3 381.1, 224.3 383.0 L 224.3 383.3 L 218.8 383.3 Q 218.8 384.6, 219.4 385.3 Q 220.0 386.0, 221.1 386.0 Q 221.7 386.0, 222.3 385.9 Q 222.9 385.7, 223.6 385.4 L 224.0 386.4 Q 223.2 386.8, 222.5 387.0 Q 221.8 387.2, 221.0 387.2 Q 219.3 387.2, 218.3 386.1 Q 217.3 385.0, 217.3 383.1 M 221.0 380.2 Q 220.1 380.2, 219.5 380.7 Q 219.0 381.2, 218.8 382.2 L 222.8 382.2 Q 222.6 381.2, 222.2 380.7 Q 221.8 380.2, 221.0 380.2 " fill="#000000"/>
<path class="legend" d="M 225.4 384.9 Q 225.4 383.7, 226.4 383.0 Q 227.4 382.3, 229.2 382.3 L 230.4 382.3 L 230.4 382.0 Q 230.4 381.0, 230.0 380.6 Q 229.6 380.2, 228.6 380.2 Q 228.0 380.2, 227.5 380.3 Q 227.0 380.4, 226.2 380.7 L 225.8 379.7 Q 227.3 379.0, 228.7 379.0 Q 230.3 379.0, 231.1 379.8 Q 231.9 380.5, 231.9 382.0 L 231.9 387.0 L 230.7 387.0 Q 230.7 387.0, 230.7 386.8 Q 230.6 386.5, 230.5 386.1 Q 229.4 387.2, 228.0 387.2 Q 226.8 387.2, 226.1 386.6 Q 225.4 386.0, 225.4 384.9 M 226.8 384.9 Q 226.8 385.5, 227.2 385.8 Q 227.6 386.1, 228.2 386.1 Q 228.9 386.1, 229.4 385.8 Q 230.0 385.5, 230.4 385.0 L 230.4 383.4 L 229.3 383.4 Q 228.1 383.4, 227.4 383.7 Q 226.8 384.1, 226.8 384.9 " fill="#000000"/>
<path class="legend" d="M 233.6 380.3 L 233.6 379.2 L 235.1 379.2 L 235.3 376.9 L 236.4 376.9 L 236.4 379.2 L 238.8 379.2 L 238.8 380.3 L 236.4 380.3 L 236.4 384.6 Q 236.4 386.0, 237.5 386.0 Q 238.0 386.0, 238.7 385.8 L 238.9 386.8 Q 238.1 387.1, 237.3 387.1 Q 236.2 387.1, 235.6 386.5 Q 234.9 385.9, 234.9 384.7 L 234.9 380.3 L 233.6 380.3 " fill="#000000"/>
<path class="legend" d="M 246.5 379.2 L 246.5 387.0 L 245.3 387.0 L 245.1 386.0 Q 244.1 387.2, 242.5 387.2 Q 241.2 387.2, 240.5 386.5 Q 239.8 385.8, 239.8 384.4 L 239.8 379.2 L 241.2 379.2 L 241.2 384.3 Q 241.2 385.2, 241.6 385.6 Q 242.0 386.0, 242.8 386.0 Q 243.5 386.0, 244.1 385.7 Q 244.7 385.4, 245.1 384.8 L 245.1 379.2 L 246.5 379.2 " fill="#000000"/>
<path class="legend" d="M 249.4 379.2 L 249.6 380.3 Q 250.4 379.0, 251.8 379.0 Q 252.2 379.0, 252.8 379.2 L 252.6 380.5 Q 251.9 380.3, 251.5 380.3 Q 250.9 380.3, 250.5 380.6 Q 250.0 380.8, 249.7 381.4 L 249.7 387.0 L 248.3 387.0 L 248.3 379.2 L 249.4 379.2 " fill="#000000"/>
<path class="legend" d="M 253.5 383.1 Q 253.5 381.2, 254.5 380.1 Q 255.5 379.0, 257.2 379.0 Q 259.0 379.0, 259.7 380.1 Q 260.5 381.1, 260.5 383.0 L 260.5 383.3 L 255.0 383.3 Q 255.0 384.6, 255.6 385.3 Q 256.2 386.0, 257.4 386.0 Q 258.0 386.0, 258.5 385.9 Q 259.1 385.7, 259.8 385.4 L 260.2 386.4 Q 259.4 386.8, 258.7 387.0 Q 258.0 387.2, 257.3 387.2 Q 255.5 387.2, 254.5 386.1 Q 253.5 385.0, 253.5 383.1 M 257.2 380.2 Q 256.3 380.2, 255.8 380.7 Q 255.2 381.2, 255.1 382.2 L 259.0 382.2 Q 258.9 381.2, 258.5 380.7 Q 258.0 380.2, 257.2 380.2 " fill="#000000"/>
<path class="legend" d="" fill="#000000"/>
<path class="legend" d="M 267.8 385.8 L 270.2 385.8 L 270.2 377.7 L 267.6 378.5 L 267.2 377.6 L 270.6 376.1 L 271.6 376.3 L 271.6 385.8 L 273.8 385.8 L 273.8 387.0 L 267.8 387.0 L 267.8 385.8 " fill="#000000"/>
<path class="legend" d="M 278.6 376.1 Q 280.5 376.1, 281.5 377.4 Q 282.5 378.7, 282.5 381.3 Q 282.5 384.2, 281.2 385.7 Q 280.1 387.2, 277.7 387.2 Q 277.1 387.2, 276.5 387.0 Q 275.9 386.9, 275.4 386.5 L 276.0 385.5 Q 276.8 385.9, 277.7 385.9 Q 279.3 385.9, 280.0 385.0 Q 280.8 384.0, 280.9 381.9 Q 280.4 382.4, 279.7 382.7 Q 279.0 383.0, 278.2 383.0 Q 277.3 383.0, 276.5 382.6 Q 275.8 382.1, 275.4 381.4 Q 274.9 380.6, 274.9 379.7 Q 274.9 378.6, 275.4 377.8 Q 275.9 377.0, 276.7 376.5 Q 277.5 376.1, 278.6 376.1 M 276.5 379.7 Q 276.5 380.6, 277.0 381.2 Q 277.5 381.7, 278.5 381.7 Q 279.2 381.7, 279.8 381.5 Q 280.5 381.2, 280.9 380.8 Q 280.9 379.0, 280.3 378.1 Q 279.7 377.3, 278.6 377.3 Q 278.0 377.3, 277.5 377.6 Q 277.0 377.9, 276.7 378.5 Q 276.5 379.0, 276.5 379.7 " fill="#000000"/>
<path class="legend" d="M 284.1 378.3 Q 284.5 377.2, 285.4 376.7 Q 286.3 376.1, 287.7 376.1 Q 289.3 376.1, 290.2 377.0 Q 291.1 377.9, 291.1 379.4 Q 291.1 381.0, 289.9 382.5 Q 288.8 384.0, 286.3 385.8 L 291.3 385.8 L 291.3 387.0 L 284.0 387.0 L 284.0 386.0 Q 286.0 384.6, 287.2 383.5 Q 288.4 382.4, 289.0 381.5 Q 289.6 380.5, 289.6 379.5 Q 289.6 378.5, 289.1 377.9 Q 288.6 377.3, 287.7 377.3 Q 286.8 377.3, 286.2 377.7 Q 285.6 378.0, 285.2 378.8 L 284.1 378.3 " fill="#000000"/>
<path class="legend" d="M 298.3 381.3 Q 299.3 381.7, 299.9 382.4 Q 300.4 383.0, 300.4 384.1 Q 300.4 385.0, 299.9 385.7 Q 299.5 386.4, 298.6 386.8 Q 297.8 387.2, 296.7 387.2 Q 294.8 387.2, 293.8 386.4 Q 292.8 385.5, 292.8 384.1 Q 292.8 383.2, 293.2 382.5 Q 293.7 381.9, 294.6 381.3 Q 293.9 381.0, 293.5 380.4 Q 293.2 379.8, 293.2 378.9 Q 293.2 377.6, 294.1 376.8 Q 295.0 376.1, 296.6 376.1 Q 298.2 376.1, 299.1 376.8 Q 300.0 377.6, 300.0 378.9 Q 300.0 379.6, 299.6 380.2 Q 299.2 380.8, 298.3 381.3 M 296.6 377.2 Q 295.7 377.2, 295.2 377.7 Q 294.7 378.1, 294.7 378.9 Q 294.7 379.4, 295.0 379.8 Q 295.4 380.2, 295.8 380.4 Q 296.3 380.6, 297.3 380.9 Q 297.9 380.5, 298.2 380.0 Q 298.5 379.5, 298.5 378.9 Q 298.5 378.1, 298.0 377.7 Q 297.5 377.2, 296.6 377.2 M 296.7 386.0 Q 297.7 386.0, 298.3 385.5 Q 298.9 385.0, 298.9 384.1 Q 298.9 383.5, 298.6 383.1 Q 298.2 382.7, 297.8 382.5 Q 297.3 382.3, 296.4 382.0 L 295.7 381.8 Q 295.0 382.3, 294.6 382.8 Q 294.3 383.4, 294.3 384.1 Q 294.3 385.0, 294.9 385.5 Q 295.6 386.0, 296.7 386.0 " fill="#000000"/>
<path class="legend" d="" fill="#000000"/>
<path class="legend" d="M 307.5 375.2 L 308.8 375.2 L 308.8 390.0 L 307.5 390.0 L 307.5 375.2 " fill="#000000"/>
<path class="legend" d="" fill="#000000"/>
<path class="legend" d="M 316.7 385.4 Q 316.8 385.4, 317.3 385.6 Q 317.8 385.8, 318.4 386.0 Q 318.9 386.1, 319.5 386.1 Q 320.5 386.1, 321.1 385.6 Q 321.7 385.1, 321.7 384.2 Q 321.7 383.6, 321.4 383.3 Q 321.1 382.9, 320.6 382.7 Q 320.2 382.5, 319.4 382.3 Q 318.5 382.0, 317.9 381.7 Q 317.3 381.4, 316.9 380.8 Q 316.5 380.3, 316.5 379.3 Q 316.5 377.9, 317.4 377.1 Q 318.4 376.2, 320.2 376.2 Q 321.4 376.2, 322.9 376.8 L 322.5 378.0 Q 321.2 377.5, 320.2 377.5 Q 319.2 377.5, 318.6 377.9 Q 318.0 378.3, 318.0 379.1 Q 318.0 379.7, 318.3 380.0 Q 318.6 380.4, 319.1 380.6 Q 319.5 380.8, 320.2 381.0 Q 321.2 381.3, 321.8 381.6 Q 322.4 381.9, 322.8 382.6 Q 323.2 383.2, 323.2 384.2 Q 323.2 385.7, 322.2 386.5 Q 321.2 387.3, 319.5 387.3 Q 318.6 387.3, 317.8 387.1 Q 317.1 386.9, 316.3 386.6 L 316.7 385.4 " fill="#000000"/>
<path class="legend" d="M 324.5 376.2 L 325.9 376.2 L 325.9 380.8 L 331.5 380.8 L 331.5 376.2 L 332.9 376.2 L 332.9 387.0 L 331.5 387.0 L 331.5 382.0 L 325.9 382.0 L 325.9 387.0 L 324.5 387.0 L 324.5 376.2 " fill="#000000"/>
<path class="legend" d="M 342.8 387.0 L 341.6 383.9 L 337.3 383.9 L 336.2 387.0 L 334.8 387.0 L 338.5 376.2 L 340.3 376.2 L 344.2 387.0 L 342.8 387.0 M 337.8 382.6 L 341.2 382.6 L 339.4 377.7 L 337.8 382.6 " fill="#000000"/>
<path class="legend" d="M 348.1 376.2 Q 349.9 376.2, 350.9 377.0 Q 351.8 377.9, 351.8 379.4 Q 351.8 380.9, 350.8 381.7 Q 349.9 382.6, 348.1 382.6 L 346.4 382.6 L 346.4 387.0 L 344.9 387.0 L 344.9 376.2 L 348.1 376.2 M 348.1 381.4 Q 349.1 381.4, 349.7 380.9 Q 350.3 380.4, 350.3 379.4 Q 350.3 378.4, 349.7 377.9 Q 349.2 377.4, 348.1 377.4 L 346.4 377.4 L 346.4 381.4 L 348.1 381.4 " fill="#000000"/>
<path class="legend" d="M 353.1 385.3 L 354.6 385.3 L 354.6 386.8 L 353.1 386.8 L 353.1 385.3 M 353.1 380.0 L 354.6 380.0 L 354.6 381.5 L 353.1 381.5 L 353.1 380.0 " fill="#000000"/>
<path class="legend" d="" fill="#000000"/>
<path class="legend" d="M 365.5 376.1 Q 367.5 376.1, 368.4 377.4 Q 369.4 378.7, 369.4 381.3 Q 369.4 384.2, 368.2 385.7 Q 367.0 387.2, 364.7 387.2 Q 364.0 387.2, 363.4 387.0 Q 362.9 386.9, 362.3 386.5 L 362.9 385.5 Q 363.7 385.9, 364.7 385.9 Q 366.2 385.9, 367.0 385.0 Q 367.8 384.0, 367.9 381.9 Q 367.3 382.4, 366.6 382.7 Q 365.9 383.0, 365.2 383.0 Q 364.2 383.0, 363.5 382.6 Q 362.7 382.1, 362.3 381.4 Q 361.9 380.6, 361.9 379.7 Q 361.9 378.6, 362.3 377.8 Q 362.8 377.0, 363.6 376.5 Q 364.5 376.1, 365.5 376.1 M 363.4 379.7 Q 363.4 380.6, 364.0 381.2 Q 364.5 381.7, 365.4 381.7 Q 366.1 381.7, 366.7 381.5 Q 367.4 381.2, 367.9 380.8 Q 367.8 379.0, 367.2 378.1 Q 366.7 377.3, 365.5 377.3 Q 364.9 377.3, 364.4 377.6 Q 364.0 377.9, 363.7 378.5 Q 363.4 379.0, 363.4 379.7 " fill="#000000"/>
<path class="legend" d="M 371.0 385.5 L 372.5 385.5 L 372.5 387.0 L 371.0 387.0 L 371.0 385.5 " fill="#000000"/>
<path class="legend" d="M 378.0 387.2 Q 376.0 387.2, 375.0 385.7 Q 374.0 384.2, 374.0 381.6 Q 374.0 379.0, 375.0 377.5 Q 376.0 376.1, 378.0 376.1 Q 380.0 376.1, 381.0 377.5 Q 381.9 379.0, 381.9 381.6 Q 381.9 384.2, 380.9 385.7 Q 380.0 387.2, 378.0 387.2 M 378.0 385.9 Q 379.2 385.9, 379.8 384.9 Q 380.4 383.8, 380.4 381.6 Q 380.4 379.5, 379.8 378.4 Q 379.2 377.3, 378.0 377.3 Q 376.8 377.3, 376.2 378.4 Q 375.5 379.5, 375.5 381.6 Q 375.5 383.8, 376.2 384.9 Q 376.8 385.9, 378.0 385.9 " fill="#000000"/>
<path class="legend" d="M 384.1 385.8 L 386.4 385.8 L 386.4 377.7 L 383.8 378.5 L 383.5 377.6 L 386.8 376.1 L 387.9 376.3 L 387.9 385.8 L 390.0 385.8 L 390.0 387.0 L 384.1 387.0 L 384.1 385.8 " fill="#000000"/>
<ellipse cx="490.1" cy="294.6" rx="8.2" ry="8.2" class="atom-1" style="fill:#9999E5;fill-rule:evenodd;stroke:#9999E5;stroke-width:1.0px;stroke-linecap:butt;stroke-linejoin:miter;stroke-opacity:1"/>
<path class="bond-0 atom-0 atom-1" d="M 526.9,298.4 L 488.3,297.7" style="fill:none;fill-rule:evenodd;stroke:#E5E5E5;stroke-width:2.2px;stroke-linecap:butt;stroke-linejoin:miter;stroke-opacity:1"/>
<path class="bond-0 atom-0 atom-1" d="M 527.0,292.3 L 488.4,291.5" style="fill:none;fill-rule:evenodd;stroke:#E5E5E5;stroke-width:2.2px;stroke-linecap:butt;stroke-linejoin:miter;stroke-opacity:1"/>
<path class="bond-1 atom-1 atom-2" d="M 490.1,294.6 L 473.0,323.0" style="fill:none;fill-rule:evenodd;stroke:#E5E5E5;stroke-width:2.2px;stroke-linecap:butt;stroke-linejoin:miter;stroke-opacity:1"/>
<path class="bond-2 atom-1 atom-3" d="M 490.1,294.6 L 470.7,259.5" style="fill:none;fill-rule:evenodd;stroke:#E5E5E5;stroke-width:2.2px;stroke-linecap:butt;stroke-linejoin:miter;stroke-opacity:1"/>
<path d="M 489.2,296.1 L 490.1,294.6 L 489.1,292.9" style="fill:none;stroke:#E5E5E5;stroke-width:2.2px;stroke-linecap:butt;stroke-linejoin:miter;stroke-miterlimit:10;stroke-opacity:1;"/>
<path class="atom-0" d="M 528.9 294.1 L 530.6 292.4 L 528.3 291.9 L 528.7 290.8 L 530.8 291.8 L 530.5 289.5 L 531.7 289.5 L 531.4 291.8 L 533.5 290.8 L 533.8 291.9 L 531.5 292.4 L 533.2 294.1 L 532.2 294.8 L 531.0 292.7 L 529.9 294.8 L 528.9 294.1 " fill="#191919"/>
<path class="atom-2" d="M 466.7 328.5 L 468.4 326.7 L 466.2 326.3 L 466.5 325.1 L 468.6 326.1 L 468.3 323.9 L 469.5 323.8 L 469.2 326.1 L 471.3 325.1 L 471.7 326.3 L 469.4 326.7 L 471.0 328.4 L 470.0 329.2 L 468.9 327.0 L 467.7 329.2 L 466.7 328.5 " fill="#191919"/>
<path class="atom-3" d="M 468.1 257.4 L 469.8 255.7 L 467.5 255.3 L 467.9 254.1 L 470.0 255.1 L 469.7 252.9 L 470.9 252.8 L 470.6 255.1 L 472.7 254.1 L 473.0 255.3 L 470.7 255.7 L 472.4 257.4 L 471.4 258.2 L 470.2 256.0 L 469.1 258.2 L 468.1 257.4 " fill="#191919"/>
<path class="legend" d="M 410.0 376.0 L 416.6 376.0 L 416.6 377.2 L 411.5 377.2 L 411.5 380.6 L 416.0 380.6 L 416.0 381.9 L 411.5 381.9 L 411.5 387.0 L 410.0 387.0 L 410.0 376.0 " fill="#000000"/>
<path class="legend" d="M 417.4 383.0 Q 417.4 381.0, 418.4 379.9 Q 419.4 378.8, 421.2 378.8 Q 422.9 378.8, 423.7 379.9 Q 424.5 380.9, 424.5 382.9 L 424.5 383.2 L 418.9 383.2 Q 419.0 384.5, 419.6 385.2 Q 420.2 386.0, 421.3 386.0 Q 421.9 386.0, 422.5 385.8 Q 423.1 385.7, 423.8 385.4 L 424.2 386.4 Q 423.4 386.8, 422.7 386.9 Q 422.0 387.1, 421.2 387.1 Q 419.4 387.1, 418.4 386.0 Q 417.4 384.9, 417.4 383.0 M 421.2 380.0 Q 420.3 380.0, 419.7 380.5 Q 419.2 381.1, 419.0 382.1 L 423.0 382.1 Q 422.9 381.0, 422.4 380.5 Q 422.0 380.0, 421.2 380.0 " fill="#000000"/>
<path class="legend" d="M 425.6 384.8 Q 425.6 383.6, 426.7 382.8 Q 427.7 382.1, 429.6 382.1 L 430.8 382.1 L 430.8 381.8 Q 430.8 380.8, 430.3 380.4 Q 429.9 380.0, 428.9 380.0 Q 428.3 380.0, 427.8 380.1 Q 427.3 380.2, 426.5 380.6 L 426.1 379.6 Q 427.5 378.8, 429.0 378.8 Q 430.7 378.8, 431.4 379.6 Q 432.2 380.3, 432.2 381.9 L 432.2 387.0 L 431.1 387.0 Q 431.1 386.9, 431.0 386.7 Q 431.0 386.4, 430.9 386.1 Q 429.8 387.2, 428.3 387.2 Q 427.1 387.2, 426.3 386.5 Q 425.6 385.9, 425.6 384.8 M 427.1 384.8 Q 427.1 385.4, 427.5 385.7 Q 427.8 386.0, 428.5 386.0 Q 429.2 386.0, 429.8 385.7 Q 430.4 385.5, 430.8 385.0 L 430.8 383.2 L 429.7 383.2 Q 428.4 383.2, 427.7 383.6 Q 427.1 384.0, 427.1 384.8 " fill="#000000"/>
<path class="legend" d="M 433.9 380.1 L 433.9 379.0 L 435.5 379.0 L 435.7 376.6 L 436.8 376.6 L 436.8 379.0 L 439.3 379.0 L 439.3 380.1 L 436.8 380.1 L 436.8 384.5 Q 436.8 385.9, 438.0 385.9 Q 438.4 385.9, 439.1 385.7 L 439.4 386.7 Q 438.5 387.1, 437.7 387.1 Q 436.7 387.1, 436.0 386.5 Q 435.3 385.8, 435.3 384.6 L 435.3 380.1 L 433.9 380.1 " fill="#000000"/>
<path class="legend" d="M 447.1 379.0 L 447.1 387.0 L 445.9 387.0 L 445.7 385.9 Q 444.7 387.1, 443.0 387.1 Q 441.7 387.1, 441.0 386.4 Q 440.3 385.7, 440.3 384.3 L 440.3 379.0 L 441.8 379.0 L 441.8 384.2 Q 441.8 385.1, 442.1 385.6 Q 442.5 386.0, 443.3 386.0 Q 444.0 386.0, 444.6 385.7 Q 445.2 385.3, 445.6 384.7 L 445.6 379.0 L 447.1 379.0 " fill="#000000"/>
<path class="legend" d="M 450.1 379.0 L 450.3 380.1 Q 451.1 378.8, 452.5 378.8 Q 452.9 378.8, 453.5 379.0 L 453.3 380.3 Q 452.6 380.2, 452.2 380.2 Q 451.6 380.2, 451.1 380.4 Q 450.7 380.7, 450.4 381.3 L 450.4 387.0 L 448.9 387.0 L 448.9 379.0 L 450.1 379.0 " fill="#000000"/>
<path class="legend" d="M 454.3 383.0 Q 454.3 381.0, 455.2 379.9 Q 456.2 378.8, 458.0 378.8 Q 459.8 378.8, 460.6 379.9 Q 461.3 380.9, 461.3 382.9 L 461.3 383.2 L 455.8 383.2 Q 455.8 384.5, 456.4 385.2 Q 457.0 386.0, 458.1 386.0 Q 458.8 386.0, 459.3 385.8 Q 459.9 385.7, 460.6 385.4 L 461.0 386.4 Q 460.2 386.8, 459.5 386.9 Q 458.8 387.1, 458.1 387.1 Q 456.3 387.1, 455.3 386.0 Q 454.3 384.9, 454.3 383.0 M 458.0 380.0 Q 457.1 380.0, 456.5 380.5 Q 456.0 381.1, 455.8 382.1 L 459.8 382.1 Q 459.7 381.0, 459.3 380.5 Q 458.8 380.0, 458.0 380.0 " fill="#000000"/>
<path class="legend" d="" fill="#000000"/>
<path class="legend" d="M 473.8 381.2 Q 474.8 381.6, 475.4 382.2 Q 476.0 382.9, 476.0 384.0 Q 476.0 384.9, 475.5 385.6 Q 475.0 386.4, 474.1 386.8 Q 473.3 387.1, 472.1 387.1 Q 470.3 387.1, 469.2 386.3 Q 468.2 385.5, 468.2 384.0 Q 468.2 383.1, 468.6 382.4 Q 469.1 381.7, 470.1 381.2 Q 469.4 380.8, 469.0 380.2 Q 468.6 379.6, 468.6 378.7 Q 468.6 377.4, 469.5 376.6 Q 470.5 375.8, 472.1 375.8 Q 473.7 375.8, 474.6 376.6 Q 475.6 377.4, 475.6 378.7 Q 475.6 379.5, 475.1 380.1 Q 474.7 380.7, 473.8 381.2 M 472.1 377.0 Q 471.2 377.0, 470.6 377.4 Q 470.1 377.9, 470.1 378.7 Q 470.1 379.2, 470.5 379.6 Q 470.8 380.0, 471.3 380.2 Q 471.8 380.4, 472.8 380.8 Q 473.4 380.3, 473.7 379.8 Q 474.0 379.3, 474.0 378.7 Q 474.0 377.9, 473.5 377.4 Q 473.0 377.0, 472.1 377.0 M 472.1 386.0 Q 473.2 386.0, 473.8 385.4 Q 474.4 384.9, 474.4 384.0 Q 474.4 383.4, 474.1 383.0 Q 473.8 382.6, 473.3 382.4 Q 472.8 382.2, 471.9 381.9 L 471.2 381.7 Q 470.4 382.1, 470.1 382.7 Q 469.7 383.2, 469.7 384.0 Q 469.7 384.9, 470.4 385.4 Q 471.0 386.0, 472.1 386.0 " fill="#000000"/>
<path class="legend" d="M 481.5 387.1 Q 479.5 387.1, 478.5 385.6 Q 477.5 384.1, 477.5 381.5 Q 477.5 378.8, 478.5 377.3 Q 479.5 375.8, 481.5 375.8 Q 483.6 375.8, 484.5 377.3 Q 485.5 378.8, 485.5 381.5 Q 485.5 384.1, 484.5 385.6 Q 483.5 387.1, 481.5 387.1 M 481.5 385.9 Q 482.7 385.9, 483.3 384.8 Q 484.0 383.6, 484.0 381.5 Q 484.0 379.3, 483.3 378.2 Q 482.7 377.1, 481.5 377.1 Q 480.3 377.1, 479.7 378.2 Q 479.0 379.3, 479.0 381.5 Q 479.0 383.6, 479.7 384.8 Q 480.3 385.9, 481.5 385.9 " fill="#000000"/>
<path class="legend" d="M 492.9 377.2 L 487.1 377.2 L 487.1 376.0 L 494.4 376.0 L 494.4 377.1 L 489.9 387.0 L 488.5 387.0 L 492.9 377.2 " fill="#000000"/>
<path class="legend" d="" fill="#000000"/>
<path class="legend" d="M 501.1 374.9 L 502.4 374.9 L 502.4 390.0 L 501.1 390.0 L 501.1 374.9 " fill="#000000"/>
<path class="legend" d="" fill="#000000"/>
<path class="legend" d="M 510.4 385.3 Q 510.5 385.3, 511.0 385.5 Q 511.5 385.8, 512.1 385.9 Q 512.7 386.0, 513.2 386.0 Q 514.3 386.0, 514.9 385.5 Q 515.5 385.0, 515.5 384.1 Q 515.5 383.5, 515.2 383.1 Q 514.9 382.8, 514.4 382.6 Q 514.0 382.4, 513.2 382.1 Q 512.2 381.8, 511.6 381.6 Q 511.0 381.3, 510.6 380.7 Q 510.2 380.1, 510.2 379.1 Q 510.2 377.7, 511.1 376.9 Q 512.1 376.0, 514.0 376.0 Q 515.2 376.0, 516.7 376.6 L 516.3 377.8 Q 515.0 377.3, 514.0 377.3 Q 512.9 377.3, 512.3 377.7 Q 511.7 378.1, 511.8 378.9 Q 511.8 379.5, 512.1 379.9 Q 512.4 380.2, 512.8 380.4 Q 513.3 380.6, 514.0 380.9 Q 515.0 381.2, 515.6 381.5 Q 516.2 381.8, 516.6 382.4 Q 517.0 383.1, 517.0 384.1 Q 517.0 385.7, 516.0 386.5 Q 515.0 387.3, 513.3 387.3 Q 512.3 387.3, 511.6 387.1 Q 510.8 386.9, 510.0 386.5 L 510.4 385.3 " fill="#000000"/>
<path class="legend" d="M 518.3 376.0 L 519.8 376.0 L 519.8 380.7 L 525.4 380.7 L 525.4 376.0 L 526.9 376.0 L 526.9 387.0 L 525.4 387.0 L 525.4 381.9 L 519.8 381.9 L 519.8 387.0 L 518.3 387.0 L 518.3 376.0 " fill="#000000"/>
<path class="legend" d="M 536.9 387.0 L 535.8 383.8 L 531.4 383.8 L 530.3 387.0 L 528.8 387.0 L 532.6 376.0 L 534.4 376.0 L 538.4 387.0 L 536.9 387.0 M 531.8 382.5 L 535.3 382.5 L 533.5 377.5 L 531.8 382.5 " fill="#000000"/>
<path class="legend" d="M 542.3 376.0 Q 544.2 376.0, 545.2 376.8 Q 546.1 377.7, 546.1 379.2 Q 546.1 380.7, 545.1 381.6 Q 544.2 382.5, 542.3 382.5 L 540.6 382.5 L 540.6 387.0 L 539.1 387.0 L 539.1 376.0 L 542.3 376.0 M 542.3 381.2 Q 543.4 381.2, 544.0 380.7 Q 544.6 380.2, 544.6 379.2 Q 544.6 378.2, 544.0 377.7 Q 543.4 377.2, 542.3 377.2 L 540.6 377.2 L 540.6 381.2 L 542.3 381.2 " fill="#000000"/>
<path class="legend" d="M 547.4 385.2 L 548.9 385.2 L 548.9 386.7 L 547.4 386.7 L 547.4 385.2 M 547.4 379.8 L 548.9 379.8 L 548.9 381.4 L 547.4 381.4 L 547.4 379.8 " fill="#000000"/>
<path class="legend" d="" fill="#000000"/>
<path class="legend" d="M 556.3 381.4 L 562.1 381.4 L 562.1 382.6 L 556.3 382.6 L 556.3 381.4 " fill="#000000"/>
<path class="legend" d="M 569.1 377.2 L 563.4 377.2 L 563.4 376.0 L 570.7 376.0 L 570.7 377.1 L 566.2 387.0 L 564.7 387.0 L 569.1 377.2 " fill="#000000"/>
<path class="legend" d="M 571.7 385.4 L 573.2 385.4 L 573.2 387.0 L 571.7 387.0 L 571.7 385.4 " fill="#000000"/>
<path class="legend" d="M 575.4 385.7 L 577.8 385.7 L 577.8 377.5 L 575.1 378.3 L 574.8 377.4 L 578.1 375.9 L 579.2 376.1 L 579.2 385.7 L 581.4 385.7 L 581.4 387.0 L 575.4 387.0 L 575.4 385.7 " fill="#000000"/>
<path class="legend" d="M 587.9 381.2 Q 589.0 381.5, 589.5 382.2 Q 590.0 382.9, 590.0 384.0 Q 590.0 384.9, 589.5 385.6 Q 589.1 386.4, 588.2 386.8 Q 587.4 387.1, 586.2 387.1 Q 585.0 387.1, 584.2 386.7 Q 583.3 386.3, 582.6 385.5 L 583.5 384.6 Q 584.2 385.3, 584.7 385.6 Q 585.3 385.9, 586.2 385.9 Q 587.2 385.9, 587.8 385.4 Q 588.4 384.8, 588.4 384.0 Q 588.4 382.8, 587.8 382.3 Q 587.2 381.8, 585.8 381.8 L 585.0 381.8 L 585.0 380.7 L 585.7 380.7 Q 586.9 380.7, 587.6 380.2 Q 588.2 379.6, 588.2 378.7 Q 588.2 377.9, 587.7 377.5 Q 587.1 377.1, 586.2 377.1 Q 585.3 377.1, 584.8 377.4 Q 584.2 377.7, 583.8 378.6 L 582.7 378.0 Q 583.1 377.1, 584.0 376.5 Q 584.9 375.8, 586.2 375.8 Q 587.9 375.8, 588.8 376.6 Q 589.8 377.4, 589.8 378.7 Q 589.8 379.5, 589.3 380.2 Q 588.8 380.8, 587.9 381.2 " fill="#000000"/>
</svg>