<svg xmlns="http://www.w3.org/2000/svg" xmlns:rdkit="http://www.rdkit.org/xml" xmlns:xlink="http://www.w3.org/1999/xlink" version="1.1" baseProfile="full" xml:space="preserve" width="600px" height="400px" viewBox="0 0 600 400">
<!-- END OF HEADER -->
<rect width="100%" height="100%" fill="#E5ECF6"/>
<rect style="opacity:1.0;fill:#E5ECF6;stroke:none" width="200.0" height="200.0" x="0.0" y="0.0"> </rect>
<ellipse cx="70.0" cy="132.9" rx="6.8" ry="6.8" class="atom-1" style="fill:#E5E533;fill-rule:evenodd;stroke:#E5E533;stroke-width:1.0px;stroke-linecap:butt;stroke-linejoin:miter;stroke-opacity:1"/>
<ellipse cx="70.1" cy="98.8" rx="6.8" ry="6.8" class="atom-2" style="fill:#E5E533;fill-rule:evenodd;stroke:#E5E533;stroke-width:1.0px;stroke-linecap:butt;stroke-linejoin:miter;stroke-opacity:1"/>
<ellipse cx="99.7" cy="81.8" rx="6.8" ry="6.8" class="atom-3" style="fill:#9999E5;fill-rule:evenodd;stroke:#9999E5;stroke-width:1.0px;stroke-linecap:butt;stroke-linejoin:miter;stroke-opacity:1"/>
<ellipse cx="103.4" cy="47.9" rx="6.8" ry="6.8" class="atom-4" style="fill:#E5E533;fill-rule:evenodd;stroke:#E5E533;stroke-width:1.0px;stroke-linecap:butt;stroke-linejoin:miter;stroke-opacity:1"/>
<ellipse cx="136.8" cy="40.9" rx="6.8" ry="6.8" class="atom-5" style="fill:#E5E533;fill-rule:evenodd;stroke:#E5E533;stroke-width:1.0px;stroke-linecap:butt;stroke-linejoin:miter;stroke-opacity:1"/>
<ellipse cx="153.8" cy="70.6" rx="6.8" ry="6.8" class="atom-6" style="fill:#E5E533;fill-rule:evenodd;stroke:#E5E533;stroke-width:1.0px;stroke-linecap:butt;stroke-linejoin:miter;stroke-opacity:1"/>
<ellipse cx="130.9" cy="95.8" rx="6.8" ry="6.8" class="atom-8" style="fill:#E5E533;fill-rule:evenodd;stroke:#E5E533;stroke-width:1.0px;stroke-linecap:butt;stroke-linejoin:miter;stroke-opacity:1"/>
<ellipse cx="40.6" cy="81.6" rx="6.8" ry="6.8" class="atom-9" style="fill:#E5E533;fill-rule:evenodd;stroke:#E5E533;stroke-width:1.0px;stroke-linecap:butt;stroke-linejoin:miter;stroke-opacity:1"/>
<path class="bond-0 atom-0 atom-1" d="M 43.8,147.9 L 70.0,132.9" style="fill:none;fill-rule:evenodd;stroke:#E5E5E5;stroke-width:1.8px;stroke-linecap:butt;stroke-linejoin:miter;stroke-opacity:1"/>
<path class="bond-0 atom-0 atom-1" d="M 41.2,143.4 L 64.9,129.9" style="fill:none;fill-rule:evenodd;stroke:#E5E5E5;stroke-width:1.8px;stroke-linecap:butt;stroke-linejoin:miter;stroke-opacity:1;stroke-dasharray:6,4"/>
<path class="bond-1 atom-1 atom-2" d="M 70.0,132.9 L 70.1,98.8" style="fill:none;fill-rule:evenodd;stroke:#000000;stroke-width:2.0px;stroke-linecap:butt;stroke-linejoin:miter;stroke-opacity:1"/>
<path class="bond-1 atom-1 atom-2" d="M 64.9,129.9 L 65.0,101.7" style="fill:none;fill-rule:evenodd;stroke:#000000;stroke-width:2.0px;stroke-linecap:butt;stroke-linejoin:miter;stroke-opacity:1;stroke-dasharray:6,4"/>
<path class="bond-2 atom-2 atom-3" d="M 70.1,98.8 L 99.7,81.8" style="fill:none;fill-rule:evenodd;stroke:#000000;stroke-width:2.0px;stroke-linecap:butt;stroke-linejoin:miter;stroke-opacity:1"/>
<path class="bond-3 atom-3 atom-4" d="M 99.7,81.8 L 102.8,53.9" style="fill:none;fill-rule:evenodd;stroke:#000000;stroke-width:2.0px;stroke-linecap:butt;stroke-linejoin:miter;stroke-opacity:1"/>
<path class="bond-3 atom-3 atom-4" d="M 105.2,78.7 L 107.9,54.4" style="fill:none;fill-rule:evenodd;stroke:#000000;stroke-width:2.0px;stroke-linecap:butt;stroke-linejoin:miter;stroke-opacity:1"/>
<path class="bond-4 atom-4 atom-5" d="M 108.2,46.9 L 131.3,42.1" style="fill:none;fill-rule:evenodd;stroke:#000000;stroke-width:2.0px;stroke-linecap:butt;stroke-linejoin:miter;stroke-opacity:1"/>
<path class="bond-5 atom-5 atom-6" d="M 140.4,47.1 L 153.8,70.6" style="fill:none;fill-rule:evenodd;stroke:#E5E5E5;stroke-width:1.8px;stroke-linecap:butt;stroke-linejoin:miter;stroke-opacity:1"/>
<path class="bond-6 atom-6 atom-7" d="M 153.8,70.6 L 184.3,73.9" style="fill:none;fill-rule:evenodd;stroke:#E5E5E5;stroke-width:1.8px;stroke-linecap:butt;stroke-linejoin:miter;stroke-opacity:1"/>
<path class="bond-7 atom-6 atom-8" d="M 153.8,70.6 L 135.6,90.5" style="fill:none;fill-rule:evenodd;stroke:#000000;stroke-width:2.0px;stroke-linecap:butt;stroke-linejoin:miter;stroke-opacity:1"/>
<path class="bond-7 atom-6 atom-8" d="M 147.5,69.9 L 131.9,87.1" style="fill:none;fill-rule:evenodd;stroke:#000000;stroke-width:2.0px;stroke-linecap:butt;stroke-linejoin:miter;stroke-opacity:1"/>
<path class="bond-8 atom-2 atom-9" d="M 70.1,98.8 L 40.6,81.6" style="fill:none;fill-rule:evenodd;stroke:#000000;stroke-width:2.0px;stroke-linecap:butt;stroke-linejoin:miter;stroke-opacity:1"/>
<path class="bond-8 atom-2 atom-9" d="M 65.0,101.7 L 40.6,87.5" style="fill:none;fill-rule:evenodd;stroke:#000000;stroke-width:2.0px;stroke-linecap:butt;stroke-linejoin:miter;stroke-opacity:1;stroke-dasharray:6,4"/>
<path class="bond-9 atom-9 atom-10" d="M 40.6,81.6 L 14.4,96.6" style="fill:none;fill-rule:evenodd;stroke:#E5E5E5;stroke-width:1.8px;stroke-linecap:butt;stroke-linejoin:miter;stroke-opacity:1"/>
<path class="bond-9 atom-9 atom-10" d="M 40.6,87.5 L 17.0,101.0" style="fill:none;fill-rule:evenodd;stroke:#E5E5E5;stroke-width:1.8px;stroke-linecap:butt;stroke-linejoin:miter;stroke-opacity:1;stroke-dasharray:6,4"/>
<path class="bond-10 atom-8 atom-3" d="M 126.1,93.7 L 99.7,81.8" style="fill:none;fill-rule:evenodd;stroke:#000000;stroke-width:2.0px;stroke-linecap:butt;stroke-linejoin:miter;stroke-opacity:1"/>
<path d="M 69.3,133.3 L 70.0,132.9 L 70.0,132.0" style="fill:none;stroke:#E5E5E5;stroke-width:1.8px;stroke-linecap:butt;stroke-linejoin:miter;stroke-miterlimit:10;stroke-opacity:1;"/>
<path d="M 41.4,82.0 L 40.6,81.6 L 40.0,82.0" style="fill:none;stroke:#000000;stroke-width:2.0px;stroke-linecap:butt;stroke-linejoin:miter;stroke-miterlimit:10;stroke-opacity:1;"/>
<path class="atom-0" d="M 37.3 146.5 L 38.7 145.1 L 36.8 144.7 L 37.1 143.7 L 38.8 144.6 L 38.6 142.7 L 39.6 142.7 L 39.3 144.6 L 41.1 143.8 L 41.4 144.7 L 39.5 145.1 L 40.8 146.5 L 40.0 147.1 L 39.1 145.3 L 38.1 147.1 L 37.3 146.5 " fill="#191919"/>
<path class="atom-4" d="M 101.3 43.1 L 104.5 48.2 Q 104.8 48.7, 105.3 49.6 Q 105.8 50.5, 105.8 50.6 L 105.8 43.1 L 107.1 43.1 L 107.1 52.7 L 105.8 52.7 L 102.4 47.1 Q 102.0 46.5, 101.6 45.7 Q 101.2 45.0, 101.0 44.7 L 101.0 52.7 L 99.8 52.7 L 99.8 43.1 L 101.3 43.1 " fill="#000000"/>
<path class="atom-5" d="M 132.4 41.0 Q 132.4 38.6, 133.6 37.4 Q 134.7 36.1, 136.8 36.1 Q 139.0 36.1, 140.1 37.4 Q 141.3 38.6, 141.3 41.0 Q 141.3 43.3, 140.1 44.7 Q 139.0 46.0, 136.8 46.0 Q 134.7 46.0, 133.6 44.7 Q 132.4 43.3, 132.4 41.0 M 136.8 44.9 Q 138.3 44.9, 139.1 43.9 Q 139.9 42.9, 139.9 41.0 Q 139.9 39.1, 139.1 38.1 Q 138.3 37.1, 136.8 37.1 Q 135.4 37.1, 134.6 38.1 Q 133.8 39.1, 133.8 41.0 Q 133.8 42.9, 134.6 43.9 Q 135.4 44.9, 136.8 44.9 " fill="#000000"/>
<path class="atom-7" d="M 185.9 73.2 L 187.3 71.7 L 185.4 71.4 L 185.7 70.4 L 187.4 71.3 L 187.2 69.4 L 188.2 69.3 L 187.9 71.2 L 189.7 70.4 L 190.0 71.4 L 188.1 71.7 L 189.5 73.2 L 188.6 73.8 L 187.7 72.0 L 186.7 73.8 L 185.9 73.2 " fill="#191919"/>
<path class="atom-8" d="M 128.7 91.0 L 131.9 96.1 Q 132.2 96.6, 132.7 97.5 Q 133.2 98.4, 133.2 98.5 L 133.2 91.0 L 134.5 91.0 L 134.5 100.7 L 133.2 100.7 L 129.8 95.1 Q 129.4 94.4, 129.0 93.7 Q 128.6 92.9, 128.4 92.7 L 128.4 100.7 L 127.2 100.7 L 127.2 91.0 L 128.7 91.0 " fill="#000000"/>
<path class="atom-10" d="M 10.5 99.7 L 11.9 98.2 L 10.0 97.8 L 10.3 96.9 L 12.0 97.8 L 11.8 95.9 L 12.8 95.8 L 12.5 97.7 L 14.3 96.9 L 14.6 97.8 L 12.7 98.2 L 14.0 99.7 L 13.2 100.3 L 12.3 98.5 L 11.3 100.3 L 10.5 99.7 " fill="#191919"/>
<path class="legend" d="M 10.0 176.9 L 16.1 176.9 L 16.1 178.0 L 11.4 178.0 L 11.4 181.2 L 15.6 181.2 L 15.6 182.4 L 11.4 182.4 L 11.4 187.2 L 10.0 187.2 L 10.0 176.9 " fill="#000000"/>
<path class="legend" d="M 17.0 183.4 Q 17.0 181.6, 17.9 180.6 Q 18.8 179.6, 20.5 179.6 Q 22.1 179.6, 22.9 180.6 Q 23.6 181.5, 23.6 183.4 L 23.6 183.6 L 18.4 183.6 Q 18.4 184.9, 19.0 185.6 Q 19.5 186.2, 20.6 186.2 Q 21.2 186.2, 21.7 186.1 Q 22.3 185.9, 22.9 185.7 L 23.3 186.6 Q 22.6 187.0, 21.9 187.1 Q 21.2 187.3, 20.5 187.3 Q 18.8 187.3, 17.9 186.3 Q 17.0 185.3, 17.0 183.4 M 20.5 180.6 Q 19.6 180.6, 19.1 181.1 Q 18.6 181.6, 18.4 182.6 L 22.2 182.6 Q 22.1 181.6, 21.6 181.1 Q 21.2 180.6, 20.5 180.6 " fill="#000000"/>
<path class="legend" d="M 24.7 185.2 Q 24.7 184.0, 25.6 183.3 Q 26.6 182.7, 28.3 182.7 L 29.5 182.7 L 29.5 182.4 Q 29.5 181.4, 29.1 181.0 Q 28.7 180.6, 27.7 180.6 Q 27.1 180.6, 26.7 180.8 Q 26.2 180.9, 25.5 181.2 L 25.1 180.2 Q 26.4 179.6, 27.8 179.6 Q 29.4 179.6, 30.1 180.2 Q 30.8 180.9, 30.8 182.4 L 30.8 187.2 L 29.8 187.2 Q 29.7 187.1, 29.7 186.9 Q 29.7 186.7, 29.6 186.3 Q 28.5 187.4, 27.1 187.4 Q 26.0 187.4, 25.3 186.8 Q 24.7 186.2, 24.7 185.2 M 26.0 185.1 Q 26.0 185.7, 26.4 186.0 Q 26.7 186.3, 27.4 186.3 Q 28.0 186.3, 28.5 186.0 Q 29.1 185.7, 29.5 185.3 L 29.5 183.7 L 28.4 183.7 Q 27.2 183.7, 26.6 184.0 Q 26.0 184.4, 26.0 185.1 " fill="#000000"/>
<path class="legend" d="M 32.5 180.7 L 32.5 179.7 L 33.9 179.7 L 34.1 177.5 L 35.1 177.5 L 35.1 179.7 L 37.4 179.7 L 37.4 180.7 L 35.1 180.7 L 35.1 184.9 Q 35.1 186.2, 36.2 186.2 Q 36.7 186.2, 37.3 186.0 L 37.5 186.9 Q 36.7 187.3, 36.0 187.3 Q 35.0 187.3, 34.4 186.7 Q 33.8 186.1, 33.8 185.0 L 33.8 180.7 L 32.5 180.7 " fill="#000000"/>
<path class="legend" d="M 44.8 179.7 L 44.8 187.2 L 43.7 187.2 L 43.5 186.2 Q 42.5 187.3, 41.0 187.3 Q 39.7 187.3, 39.0 186.6 Q 38.4 186.0, 38.4 184.7 L 38.4 179.7 L 39.8 179.7 L 39.8 184.5 Q 39.8 185.4, 40.1 185.8 Q 40.5 186.2, 41.2 186.2 Q 41.9 186.2, 42.5 185.9 Q 43.0 185.6, 43.4 185.1 L 43.4 179.7 L 44.8 179.7 " fill="#000000"/>
<path class="legend" d="M 47.6 179.7 L 47.7 180.7 Q 48.5 179.6, 49.8 179.6 Q 50.2 179.6, 50.8 179.7 L 50.6 180.9 Q 49.9 180.8, 49.6 180.8 Q 49.0 180.8, 48.6 181.0 Q 48.2 181.3, 47.9 181.8 L 47.9 187.2 L 46.5 187.2 L 46.5 179.7 L 47.6 179.7 " fill="#000000"/>
<path class="legend" d="M 51.5 183.4 Q 51.5 181.6, 52.4 180.6 Q 53.3 179.6, 55.0 179.6 Q 56.7 179.6, 57.4 180.6 Q 58.1 181.5, 58.1 183.4 L 58.1 183.6 L 52.9 183.6 Q 52.9 184.9, 53.5 185.6 Q 54.1 186.2, 55.1 186.2 Q 55.7 186.2, 56.3 186.1 Q 56.8 185.9, 57.5 185.7 L 57.8 186.6 Q 57.1 187.0, 56.4 187.1 Q 55.8 187.3, 55.1 187.3 Q 53.4 187.3, 52.4 186.3 Q 51.5 185.3, 51.5 183.4 M 55.0 180.6 Q 54.2 180.6, 53.6 181.1 Q 53.1 181.6, 53.0 182.6 L 56.7 182.6 Q 56.6 181.6, 56.2 181.1 Q 55.8 180.6, 55.0 180.6 " fill="#000000"/>
<path class="legend" d="" fill="#000000"/>
<path class="legend" d="M 64.6 178.8 Q 65.0 177.8, 65.9 177.3 Q 66.8 176.7, 68.0 176.7 Q 69.6 176.7, 70.5 177.6 Q 71.3 178.4, 71.3 179.9 Q 71.3 181.5, 70.2 182.9 Q 69.1 184.3, 66.7 186.0 L 71.5 186.0 L 71.5 187.2 L 64.6 187.2 L 64.6 186.2 Q 66.5 184.8, 67.6 183.8 Q 68.8 182.8, 69.3 181.9 Q 69.9 181.0, 69.9 180.0 Q 69.9 179.0, 69.4 178.5 Q 68.9 177.9, 68.0 177.9 Q 67.2 177.9, 66.6 178.3 Q 66.1 178.6, 65.7 179.3 L 64.6 178.8 " fill="#000000"/>
<path class="legend" d="M 76.7 187.3 Q 74.8 187.3, 73.8 185.9 Q 72.9 184.5, 72.9 182.0 Q 72.9 179.5, 73.8 178.1 Q 74.8 176.7, 76.7 176.7 Q 78.6 176.7, 79.5 178.1 Q 80.4 179.5, 80.4 182.0 Q 80.4 184.5, 79.5 185.9 Q 78.6 187.3, 76.7 187.3 M 76.7 186.1 Q 77.8 186.1, 78.4 185.1 Q 79.0 184.1, 79.0 182.0 Q 79.0 180.0, 78.4 179.0 Q 77.8 177.9, 76.7 177.9 Q 75.6 177.9, 75.0 179.0 Q 74.4 180.0, 74.4 182.0 Q 74.4 184.1, 75.0 185.1 Q 75.6 186.1, 76.7 186.1 " fill="#000000"/>
<path class="legend" d="M 82.5 186.0 L 84.7 186.0 L 84.7 178.3 L 82.2 179.1 L 81.9 178.2 L 85.1 176.8 L 86.1 177.0 L 86.1 186.0 L 88.1 186.0 L 88.1 187.2 L 82.5 187.2 L 82.5 186.0 " fill="#000000"/>
<path class="legend" d="M 94.2 181.7 Q 95.2 182.0, 95.7 182.7 Q 96.2 183.3, 96.2 184.4 Q 96.2 185.2, 95.7 185.9 Q 95.3 186.6, 94.5 187.0 Q 93.7 187.3, 92.7 187.3 Q 91.5 187.3, 90.7 187.0 Q 89.9 186.6, 89.2 185.8 L 90.1 184.9 Q 90.7 185.6, 91.3 185.9 Q 91.8 186.2, 92.7 186.2 Q 93.6 186.2, 94.2 185.7 Q 94.7 185.2, 94.7 184.3 Q 94.7 183.3, 94.1 182.8 Q 93.5 182.3, 92.3 182.3 L 91.5 182.3 L 91.5 181.3 L 92.2 181.3 Q 93.3 181.3, 93.9 180.8 Q 94.5 180.3, 94.5 179.4 Q 94.5 178.7, 94.0 178.3 Q 93.5 177.9, 92.7 177.9 Q 91.8 177.9, 91.3 178.2 Q 90.7 178.5, 90.3 179.3 L 89.3 178.8 Q 89.7 177.9, 90.6 177.3 Q 91.4 176.7, 92.7 176.7 Q 94.2 176.7, 95.1 177.5 Q 96.0 178.2, 96.0 179.4 Q 96.0 180.2, 95.5 180.8 Q 95.1 181.4, 94.2 181.7 " fill="#000000"/>
<path class="legend" d="" fill="#000000"/>
<path class="legend" d="M 102.9 175.9 L 104.1 175.9 L 104.1 190.0 L 102.9 190.0 L 102.9 175.9 " fill="#000000"/>
<path class="legend" d="" fill="#000000"/>
<path class="legend" d="M 111.6 185.6 Q 111.8 185.6, 112.2 185.8 Q 112.7 186.0, 113.2 186.2 Q 113.8 186.3, 114.3 186.3 Q 115.3 186.3, 115.9 185.8 Q 116.4 185.3, 116.4 184.5 Q 116.4 183.9, 116.1 183.6 Q 115.9 183.2, 115.4 183.0 Q 115.0 182.9, 114.3 182.6 Q 113.3 182.4, 112.8 182.1 Q 112.2 181.8, 111.8 181.3 Q 111.5 180.7, 111.5 179.8 Q 111.5 178.5, 112.3 177.7 Q 113.2 176.9, 115.0 176.9 Q 116.2 176.9, 117.5 177.5 L 117.2 178.6 Q 116.0 178.1, 115.0 178.1 Q 114.0 178.1, 113.5 178.5 Q 112.9 178.9, 112.9 179.6 Q 112.9 180.2, 113.2 180.5 Q 113.5 180.8, 113.9 181.0 Q 114.3 181.2, 115.0 181.4 Q 116.0 181.7, 116.5 182.0 Q 117.1 182.3, 117.5 182.9 Q 117.9 183.5, 117.9 184.5 Q 117.9 185.9, 116.9 186.7 Q 116.0 187.5, 114.4 187.5 Q 113.4 187.5, 112.7 187.3 Q 112.1 187.1, 111.2 186.7 L 111.6 185.6 " fill="#000000"/>
<path class="legend" d="M 119.1 176.9 L 120.5 176.9 L 120.5 181.3 L 125.7 181.3 L 125.7 176.9 L 127.1 176.9 L 127.1 187.2 L 125.7 187.2 L 125.7 182.4 L 120.5 182.4 L 120.5 187.2 L 119.1 187.2 L 119.1 176.9 " fill="#000000"/>
<path class="legend" d="M 136.5 187.2 L 135.4 184.2 L 131.3 184.2 L 130.3 187.2 L 128.9 187.2 L 132.4 176.9 L 134.2 176.9 L 137.8 187.2 L 136.5 187.2 M 131.7 183.0 L 135.0 183.0 L 133.3 178.3 L 131.7 183.0 " fill="#000000"/>
<path class="legend" d="M 141.6 176.9 Q 143.3 176.9, 144.2 177.7 Q 145.1 178.5, 145.1 179.9 Q 145.1 181.3, 144.2 182.1 Q 143.3 182.9, 141.6 182.9 L 139.9 182.9 L 139.9 187.2 L 138.5 187.2 L 138.5 176.9 L 141.6 176.9 M 141.6 181.8 Q 142.6 181.8, 143.1 181.3 Q 143.7 180.8, 143.7 179.9 Q 143.7 179.0, 143.1 178.5 Q 142.6 178.0, 141.6 178.0 L 139.9 178.0 L 139.9 181.8 L 141.6 181.8 " fill="#000000"/>
<path class="legend" d="M 146.3 185.5 L 147.8 185.5 L 147.8 186.9 L 146.3 186.9 L 146.3 185.5 M 146.3 180.5 L 147.8 180.5 L 147.8 181.9 L 146.3 181.9 L 146.3 180.5 " fill="#000000"/>
<path class="legend" d="" fill="#000000"/>
<path class="legend" d="M 160.0 181.7 Q 160.9 182.1, 161.5 182.7 Q 162.0 183.3, 162.0 184.4 Q 162.0 185.2, 161.6 185.9 Q 161.1 186.6, 160.3 187.0 Q 159.5 187.3, 158.4 187.3 Q 156.7 187.3, 155.7 186.5 Q 154.7 185.7, 154.7 184.4 Q 154.7 183.5, 155.2 182.9 Q 155.6 182.2, 156.5 181.8 Q 155.8 181.4, 155.5 180.8 Q 155.1 180.3, 155.1 179.4 Q 155.1 178.2, 156.0 177.5 Q 156.9 176.7, 158.4 176.7 Q 159.9 176.7, 160.7 177.5 Q 161.6 178.2, 161.6 179.4 Q 161.6 180.1, 161.2 180.7 Q 160.8 181.3, 160.0 181.7 M 158.4 177.8 Q 157.5 177.8, 157.0 178.3 Q 156.6 178.7, 156.6 179.4 Q 156.6 179.9, 156.9 180.3 Q 157.2 180.6, 157.7 180.8 Q 158.1 181.0, 159.0 181.4 Q 159.6 180.9, 159.9 180.5 Q 160.2 180.0, 160.2 179.4 Q 160.2 178.7, 159.7 178.3 Q 159.2 177.8, 158.4 177.8 M 158.4 186.2 Q 159.4 186.2, 160.0 185.7 Q 160.6 185.2, 160.6 184.3 Q 160.6 183.8, 160.3 183.4 Q 159.9 183.1, 159.5 182.9 Q 159.0 182.7, 158.2 182.4 L 157.6 182.2 Q 156.8 182.6, 156.5 183.2 Q 156.2 183.7, 156.2 184.3 Q 156.2 185.2, 156.8 185.7 Q 157.4 186.2, 158.4 186.2 " fill="#000000"/>
<path class="legend" d="M 163.5 178.8 Q 163.8 177.8, 164.8 177.3 Q 165.7 176.7, 166.9 176.7 Q 168.5 176.7, 169.3 177.6 Q 170.2 178.4, 170.2 179.9 Q 170.2 181.5, 169.1 182.9 Q 168.0 184.3, 165.6 186.0 L 170.4 186.0 L 170.4 187.2 L 163.4 187.2 L 163.4 186.2 Q 165.4 184.8, 166.5 183.8 Q 167.7 182.8, 168.2 181.9 Q 168.8 181.0, 168.8 180.0 Q 168.8 179.0, 168.3 178.5 Q 167.8 177.9, 166.9 177.9 Q 166.1 177.9, 165.5 178.3 Q 165.0 178.6, 164.6 179.3 L 163.5 178.8 " fill="#000000"/>
<path class="legend" d="M 171.8 185.7 L 173.2 185.7 L 173.2 187.2 L 171.8 187.2 L 171.8 185.7 " fill="#000000"/>
<path class="legend" d="M 178.7 180.7 Q 179.6 180.7, 180.3 181.1 Q 181.1 181.5, 181.4 182.2 Q 181.8 183.0, 181.8 183.9 Q 181.8 184.9, 181.4 185.7 Q 181.0 186.4, 180.2 186.9 Q 179.4 187.3, 178.4 187.3 Q 176.5 187.3, 175.6 186.1 Q 174.7 184.8, 174.7 182.3 Q 174.7 179.6, 175.8 178.2 Q 177.0 176.7, 179.2 176.7 Q 179.8 176.7, 180.4 176.9 Q 180.9 177.0, 181.4 177.3 L 180.9 178.3 Q 180.1 177.9, 179.2 177.9 Q 177.7 177.9, 177.0 178.9 Q 176.2 179.8, 176.2 181.7 Q 176.7 181.3, 177.3 181.0 Q 178.0 180.7, 178.7 180.7 M 178.4 186.1 Q 178.9 186.1, 179.4 185.8 Q 179.9 185.5, 180.1 185.0 Q 180.4 184.5, 180.4 183.9 Q 180.4 183.0, 179.9 182.4 Q 179.4 181.9, 178.5 181.9 Q 177.8 181.9, 177.2 182.2 Q 176.6 182.4, 176.2 182.9 Q 176.2 184.6, 176.8 185.3 Q 177.3 186.1, 178.4 186.1 " fill="#000000"/>
<path class="legend" d="M 188.6 178.0 L 183.1 178.0 L 183.1 176.9 L 190.0 176.9 L 190.0 177.9 L 185.8 187.2 L 184.4 187.2 L 188.6 178.0 " fill="#000000"/>
<ellipse cx="290.9" cy="95.6" rx="6.8" ry="6.8" class="atom-1" style="fill:#E5E533;fill-rule:evenodd;stroke:#E5E533;stroke-width:1.0px;stroke-linecap:butt;stroke-linejoin:miter;stroke-opacity:1"/>
<ellipse cx="324.8" cy="99.3" rx="6.8" ry="6.8" class="atom-2" style="fill:#9999E5;fill-rule:evenodd;stroke:#9999E5;stroke-width:1.0px;stroke-linecap:butt;stroke-linejoin:miter;stroke-opacity:1"/>
<path class="bond-0 atom-0 atom-1" d="M 272.0,116.9 L 289.7,92.8" style="fill:none;fill-rule:evenodd;stroke:#E5E5E5;stroke-width:1.8px;stroke-linecap:butt;stroke-linejoin:miter;stroke-opacity:1"/>
<path class="bond-0 atom-0 atom-1" d="M 276.2,119.9 L 293.8,95.9" style="fill:none;fill-rule:evenodd;stroke:#E5E5E5;stroke-width:1.8px;stroke-linecap:butt;stroke-linejoin:miter;stroke-opacity:1;stroke-dasharray:6,4"/>
<path class="bond-1 atom-1 atom-2" d="M 290.9,95.6 L 319.9,98.7" style="fill:none;fill-rule:evenodd;stroke:#000000;stroke-width:2.0px;stroke-linecap:butt;stroke-linejoin:miter;stroke-opacity:1"/>
<path class="bond-2 atom-1 atom-3" d="M 293.8,95.9 L 279.7,63.9" style="fill:none;fill-rule:evenodd;stroke:#E5E5E5;stroke-width:1.8px;stroke-linecap:butt;stroke-linejoin:miter;stroke-opacity:1"/>
<path class="bond-2 atom-1 atom-3" d="M 289.1,97.9 L 275.0,66.0" style="fill:none;fill-rule:evenodd;stroke:#E5E5E5;stroke-width:1.8px;stroke-linecap:butt;stroke-linejoin:miter;stroke-opacity:1;stroke-dasharray:6,4"/>
<path class="atom-0" d="M 268.9 122.0 L 270.3 120.6 L 268.4 120.2 L 268.7 119.2 L 270.4 120.1 L 270.2 118.2 L 271.2 118.2 L 270.9 120.1 L 272.7 119.2 L 273.0 120.2 L 271.1 120.5 L 272.4 122.0 L 271.6 122.6 L 270.7 120.8 L 269.7 122.6 L 268.9 122.0 " fill="#191919"/>
<path class="atom-2" d="M 321.0 99.6 Q 321.0 97.2, 322.2 95.9 Q 323.3 94.7, 325.4 94.7 Q 327.4 94.7, 328.5 96.1 L 327.6 96.8 Q 326.8 95.8, 325.4 95.8 Q 324.0 95.8, 323.2 96.8 Q 322.4 97.7, 322.4 99.6 Q 322.4 101.5, 323.2 102.5 Q 324.0 103.5, 325.6 103.5 Q 326.7 103.5, 327.9 102.8 L 328.3 103.8 Q 327.8 104.2, 327.0 104.4 Q 326.2 104.6, 325.4 104.6 Q 323.3 104.6, 322.2 103.3 Q 321.0 102.0, 321.0 99.6 " fill="#000000"/>
<path class="atom-2" d="M 329.5 94.1 L 330.7 94.1 L 330.7 104.4 L 329.5 104.4 L 329.5 94.1 " fill="#000000"/>
<path class="atom-3" d="M 275.3 63.2 L 276.7 61.8 L 274.8 61.4 L 275.1 60.4 L 276.8 61.3 L 276.6 59.4 L 277.6 59.4 L 277.3 61.3 L 279.1 60.5 L 279.4 61.4 L 277.5 61.8 L 278.8 63.2 L 278.0 63.8 L 277.1 62.0 L 276.1 63.8 L 275.3 63.2 " fill="#191919"/>
<path class="legend" d="M 210.0 176.2 L 216.4 176.2 L 216.4 177.4 L 211.5 177.4 L 211.5 180.7 L 215.9 180.7 L 215.9 182.0 L 211.5 182.0 L 211.5 187.0 L 210.0 187.0 L 210.0 176.2 " fill="#000000"/>
<path class="legend" d="M 217.3 183.1 Q 217.3 181.2, 218.3 180.1 Q 219.2 179.0, 221.0 179.0 Q 222.7 179.0, 223.5 180.1 Q 224.3 181.1, 224.3 183.0 L 224.3 183.3 L 218.8 183.3 Q 218.8 184.6, 219.4 185.3 Q 220.0 186.0, 221.1 186.0 Q 221.7 186.0, 222.3 185.9 Q 222.9 185.7, 223.6 185.4 L 224.0 186.4 Q 223.2 186.8, 222.5 187.0 Q 221.8 187.2, 221.0 187.2 Q 219.3 187.2, 218.3 186.1 Q 217.3 185.0, 217.3 183.1 M 221.0 180.2 Q 220.1 180.2, 219.5 180.7 Q 219.0 181.2, 218.8 182.2 L 222.8 182.2 Q 222.7 181.2, 222.2 180.7 Q 221.8 180.2, 221.0 180.2 " fill="#000000"/>
<path class="legend" d="M 225.4 184.9 Q 225.4 183.7, 226.4 183.0 Q 227.4 182.3, 229.3 182.3 L 230.4 182.3 L 230.4 182.0 Q 230.4 181.0, 230.0 180.6 Q 229.6 180.2, 228.6 180.2 Q 228.0 180.2, 227.5 180.3 Q 227.0 180.4, 226.3 180.7 L 225.8 179.7 Q 227.3 179.0, 228.7 179.0 Q 230.3 179.0, 231.1 179.8 Q 231.9 180.5, 231.9 182.0 L 231.9 187.0 L 230.8 187.0 Q 230.7 187.0, 230.7 186.8 Q 230.6 186.5, 230.6 186.1 Q 229.4 187.2, 228.0 187.2 Q 226.8 187.2, 226.1 186.6 Q 225.4 186.0, 225.4 184.9 M 226.8 184.9 Q 226.8 185.5, 227.2 185.8 Q 227.6 186.1, 228.3 186.1 Q 228.9 186.1, 229.4 185.8 Q 230.0 185.5, 230.4 185.0 L 230.4 183.4 L 229.4 183.4 Q 228.1 183.4, 227.5 183.7 Q 226.8 184.1, 226.8 184.9 " fill="#000000"/>
<path class="legend" d="M 233.6 180.3 L 233.6 179.2 L 235.1 179.2 L 235.3 176.9 L 236.4 176.9 L 236.4 179.2 L 238.8 179.2 L 238.8 180.3 L 236.4 180.3 L 236.4 184.6 Q 236.4 186.0, 237.5 186.0 Q 238.0 186.0, 238.7 185.8 L 238.9 186.8 Q 238.1 187.1, 237.3 187.1 Q 236.3 187.1, 235.6 186.5 Q 235.0 185.9, 235.0 184.7 L 235.0 180.3 L 233.6 180.3 " fill="#000000"/>
<path class="legend" d="M 246.5 179.2 L 246.5 187.0 L 245.3 187.0 L 245.2 186.0 Q 244.1 187.2, 242.5 187.2 Q 241.2 187.2, 240.5 186.5 Q 239.8 185.8, 239.8 184.4 L 239.8 179.2 L 241.3 179.2 L 241.3 184.3 Q 241.3 185.2, 241.6 185.6 Q 242.0 186.0, 242.8 186.0 Q 243.5 186.0, 244.1 185.7 Q 244.7 185.4, 245.1 184.8 L 245.1 179.2 L 246.5 179.2 " fill="#000000"/>
<path class="legend" d="M 249.5 179.2 L 249.6 180.3 Q 250.5 179.0, 251.8 179.0 Q 252.2 179.0, 252.8 179.2 L 252.6 180.5 Q 251.9 180.3, 251.6 180.3 Q 250.9 180.3, 250.5 180.6 Q 250.1 180.8, 249.7 181.4 L 249.7 187.0 L 248.3 187.0 L 248.3 179.2 L 249.5 179.2 " fill="#000000"/>
<path class="legend" d="M 253.6 183.1 Q 253.6 181.2, 254.5 180.1 Q 255.5 179.0, 257.3 179.0 Q 259.0 179.0, 259.8 180.1 Q 260.5 181.1, 260.5 183.0 L 260.5 183.3 L 255.0 183.3 Q 255.1 184.6, 255.7 185.3 Q 256.3 186.0, 257.4 186.0 Q 258.0 186.0, 258.6 185.9 Q 259.1 185.7, 259.8 185.4 L 260.2 186.4 Q 259.5 186.8, 258.8 187.0 Q 258.1 187.2, 257.3 187.2 Q 255.5 187.2, 254.6 186.1 Q 253.6 185.0, 253.6 183.1 M 257.3 180.2 Q 256.4 180.2, 255.8 180.7 Q 255.3 181.2, 255.1 182.2 L 259.0 182.2 Q 258.9 181.2, 258.5 180.7 Q 258.1 180.2, 257.3 180.2 " fill="#000000"/>
<path class="legend" d="" fill="#000000"/>
<path class="legend" d="M 271.2 180.3 Q 272.2 180.3, 273.0 180.7 Q 273.7 181.1, 274.2 181.8 Q 274.6 182.6, 274.6 183.6 Q 274.6 184.7, 274.1 185.5 Q 273.5 186.3, 272.6 186.8 Q 271.8 187.2, 270.7 187.2 Q 269.8 187.2, 268.8 186.8 Q 267.9 186.4, 267.3 185.7 L 268.2 184.8 Q 268.7 185.3, 269.4 185.6 Q 270.1 185.9, 270.8 185.9 Q 271.8 185.9, 272.4 185.3 Q 273.1 184.7, 273.1 183.6 Q 273.1 182.5, 272.4 182.0 Q 271.8 181.4, 270.7 181.4 Q 269.8 181.4, 268.7 181.8 L 267.9 181.4 L 268.4 176.2 L 274.0 176.2 L 273.8 177.4 L 269.6 177.4 L 269.3 180.6 Q 270.3 180.3, 271.2 180.3 " fill="#000000"/>
<path class="legend" d="M 280.1 180.3 Q 281.1 180.3, 281.8 180.7 Q 282.6 181.1, 283.0 181.9 Q 283.4 182.6, 283.4 183.6 Q 283.4 184.6, 282.9 185.4 Q 282.5 186.2, 281.6 186.7 Q 280.8 187.2, 279.8 187.2 Q 277.8 187.2, 276.9 185.9 Q 275.9 184.5, 275.9 181.9 Q 275.9 179.1, 277.1 177.6 Q 278.3 176.1, 280.6 176.1 Q 281.3 176.1, 281.8 176.2 Q 282.4 176.4, 283.0 176.7 L 282.4 177.7 Q 281.6 177.3, 280.6 177.3 Q 279.1 177.3, 278.3 178.3 Q 277.5 179.3, 277.4 181.3 Q 278.0 180.8, 278.7 180.5 Q 279.4 180.3, 280.1 180.3 M 279.8 185.9 Q 280.4 185.9, 280.8 185.6 Q 281.3 185.3, 281.6 184.8 Q 281.9 184.2, 281.9 183.6 Q 281.9 182.6, 281.3 182.0 Q 280.8 181.5, 279.9 181.5 Q 279.2 181.5, 278.5 181.8 Q 277.9 182.0, 277.4 182.5 Q 277.5 184.3, 278.1 185.1 Q 278.6 185.9, 279.8 185.9 " fill="#000000"/>
<path class="legend" d="M 285.4 185.8 L 287.7 185.8 L 287.7 177.7 L 285.1 178.5 L 284.8 177.6 L 288.1 176.1 L 289.2 176.3 L 289.2 185.8 L 291.3 185.8 L 291.3 187.0 L 285.4 187.0 L 285.4 185.8 " fill="#000000"/>
<path class="legend" d="" fill="#000000"/>
<path class="legend" d="M 298.1 175.2 L 299.4 175.2 L 299.4 190.0 L 298.1 190.0 L 298.1 175.2 " fill="#000000"/>
<path class="legend" d="" fill="#000000"/>
<path class="legend" d="M 307.3 185.4 Q 307.4 185.4, 307.9 185.6 Q 308.4 185.8, 309.0 186.0 Q 309.5 186.1, 310.1 186.1 Q 311.1 186.1, 311.7 185.6 Q 312.3 185.1, 312.3 184.2 Q 312.3 183.6, 312.0 183.3 Q 311.7 182.9, 311.2 182.7 Q 310.8 182.5, 310.0 182.3 Q 309.1 182.0, 308.5 181.7 Q 307.9 181.4, 307.5 180.8 Q 307.1 180.3, 307.1 179.3 Q 307.1 177.9, 308.0 177.1 Q 308.9 176.2, 310.8 176.2 Q 312.0 176.2, 313.5 176.8 L 313.1 178.0 Q 311.8 177.5, 310.8 177.5 Q 309.8 177.5, 309.2 177.9 Q 308.6 178.3, 308.6 179.1 Q 308.6 179.7, 308.9 180.0 Q 309.2 180.4, 309.6 180.6 Q 310.1 180.8, 310.8 181.0 Q 311.8 181.3, 312.4 181.6 Q 313.0 181.9, 313.4 182.6 Q 313.8 183.2, 313.8 184.2 Q 313.8 185.7, 312.8 186.5 Q 311.8 187.3, 310.1 187.3 Q 309.2 187.3, 308.4 187.1 Q 307.7 186.9, 306.9 186.6 L 307.3 185.4 " fill="#000000"/>
<path class="legend" d="M 315.1 176.2 L 316.5 176.2 L 316.5 180.8 L 322.1 180.8 L 322.1 176.2 L 323.5 176.2 L 323.5 187.0 L 322.1 187.0 L 322.1 182.0 L 316.5 182.0 L 316.5 187.0 L 315.1 187.0 L 315.1 176.2 " fill="#000000"/>
<path class="legend" d="M 333.4 187.0 L 332.2 183.9 L 327.9 183.9 L 326.8 187.0 L 325.4 187.0 L 329.1 176.2 L 330.9 176.2 L 334.8 187.0 L 333.4 187.0 M 328.4 182.6 L 331.8 182.6 L 330.0 177.7 L 328.4 182.6 " fill="#000000"/>
<path class="legend" d="M 338.7 176.2 Q 340.6 176.2, 341.5 177.0 Q 342.4 177.9, 342.4 179.4 Q 342.4 180.9, 341.5 181.7 Q 340.5 182.6, 338.7 182.6 L 337.0 182.6 L 337.0 187.0 L 335.5 187.0 L 335.5 176.2 L 338.7 176.2 M 338.7 181.4 Q 339.8 181.4, 340.3 180.9 Q 340.9 180.3, 340.9 179.4 Q 340.9 178.4, 340.3 177.9 Q 339.8 177.4, 338.7 177.4 L 337.0 177.4 L 337.0 181.4 L 338.7 181.4 " fill="#000000"/>
<path class="legend" d="M 343.7 185.3 L 345.2 185.3 L 345.2 186.8 L 343.7 186.8 L 343.7 185.3 M 343.7 180.0 L 345.2 180.0 L 345.2 181.5 L 343.7 181.5 L 343.7 180.0 " fill="#000000"/>
<path class="legend" d="" fill="#000000"/>
<path class="legend" d="M 359.6 183.3 L 360.9 183.3 L 360.9 184.5 L 359.6 184.5 L 359.6 187.0 L 358.1 187.0 L 358.1 184.5 L 352.5 184.5 L 352.5 183.6 L 357.3 176.2 L 359.6 176.2 L 359.6 183.3 M 354.3 183.3 L 358.1 183.3 L 358.1 177.2 L 354.3 183.3 " fill="#000000"/>
<path class="legend" d="M 367.3 181.3 Q 368.4 181.6, 368.9 182.3 Q 369.4 183.0, 369.4 184.1 Q 369.4 185.0, 369.0 185.7 Q 368.5 186.4, 367.7 186.8 Q 366.8 187.2, 365.7 187.2 Q 364.6 187.2, 363.7 186.8 Q 362.8 186.4, 362.1 185.6 L 363.0 184.7 Q 363.7 185.4, 364.3 185.7 Q 364.8 186.0, 365.7 186.0 Q 366.7 186.0, 367.3 185.5 Q 367.9 184.9, 367.9 184.1 Q 367.9 183.0, 367.3 182.5 Q 366.7 182.0, 365.3 182.0 L 364.5 182.0 L 364.5 180.9 L 365.2 180.9 Q 366.4 180.8, 367.0 180.3 Q 367.7 179.8, 367.7 178.8 Q 367.7 178.1, 367.1 177.7 Q 366.6 177.3, 365.7 177.3 Q 364.8 177.3, 364.3 177.6 Q 363.7 177.9, 363.3 178.8 L 362.2 178.2 Q 362.6 177.3, 363.5 176.7 Q 364.5 176.1, 365.7 176.1 Q 367.3 176.1, 368.3 176.8 Q 369.2 177.6, 369.2 178.8 Q 369.2 179.7, 368.7 180.3 Q 368.2 181.0, 367.3 181.3 " fill="#000000"/>
<path class="legend" d="M 370.9 185.5 L 372.4 185.5 L 372.4 187.0 L 370.9 187.0 L 370.9 185.5 " fill="#000000"/>
<path class="legend" d="M 378.2 180.3 Q 379.1 180.3, 379.9 180.7 Q 380.6 181.1, 381.0 181.9 Q 381.4 182.6, 381.4 183.6 Q 381.4 184.6, 381.0 185.4 Q 380.5 186.2, 379.7 186.7 Q 378.8 187.2, 377.8 187.2 Q 375.9 187.2, 374.9 185.9 Q 373.9 184.5, 373.9 181.9 Q 373.9 179.1, 375.1 177.6 Q 376.3 176.1, 378.6 176.1 Q 379.3 176.1, 379.9 176.2 Q 380.5 176.4, 381.0 176.7 L 380.4 177.7 Q 379.6 177.3, 378.6 177.3 Q 377.1 177.3, 376.3 178.3 Q 375.5 179.3, 375.5 181.3 Q 376.0 180.8, 376.7 180.5 Q 377.4 180.3, 378.2 180.3 M 377.8 185.9 Q 378.4 185.9, 378.9 185.6 Q 379.3 185.3, 379.6 184.8 Q 379.9 184.2, 379.9 183.6 Q 379.9 182.6, 379.4 182.0 Q 378.8 181.5, 377.9 181.5 Q 377.2 181.5, 376.6 181.8 Q 375.9 182.0, 375.5 182.5 Q 375.5 184.3, 376.1 185.1 Q 376.7 185.9, 377.8 185.9 " fill="#000000"/>
<path class="legend" d="M 388.5 177.4 L 382.8 177.4 L 382.8 176.2 L 390.0 176.2 L 390.0 177.3 L 385.6 187.0 L 384.1 187.0 L 388.5 177.4 " fill="#000000"/>
<ellipse cx="506.9" cy="91.9" rx="6.8" ry="6.8" class="atom-1" style="fill:#9999E5;fill-rule:evenodd;stroke:#9999E5;stroke-width:1.0px;stroke-linecap:butt;stroke-linejoin:miter;stroke-opacity:1"/>
<path class="bond-0 atom-0 atom-1" d="M 476.4,88.5 L 506.9,91.9" style="fill:none;fill-rule:evenodd;stroke:#E5E5E5;stroke-width:1.8px;stroke-linecap:butt;stroke-linejoin:miter;stroke-opacity:1"/>
<path class="bond-1 atom-1 atom-2" d="M 508.1,94.6 L 528.6,66.5" style="fill:none;fill-rule:evenodd;stroke:#E5E5E5;stroke-width:1.8px;stroke-linecap:butt;stroke-linejoin:miter;stroke-opacity:1"/>
<path class="bond-1 atom-1 atom-2" d="M 503.9,91.5 L 524.5,63.4" style="fill:none;fill-rule:evenodd;stroke:#E5E5E5;stroke-width:1.8px;stroke-linecap:butt;stroke-linejoin:miter;stroke-opacity:1"/>
<path class="bond-2 atom-1 atom-3" d="M 506.9,91.9 L 518.0,117.0" style="fill:none;fill-rule:evenodd;stroke:#E5E5E5;stroke-width:1.8px;stroke-linecap:butt;stroke-linejoin:miter;stroke-opacity:1"/>
<path d="M 505.4,91.7 L 506.9,91.9 L 507.4,93.1" style="fill:none;stroke:#E5E5E5;stroke-width:1.8px;stroke-linecap:butt;stroke-linejoin:miter;stroke-miterlimit:10;stroke-opacity:1;"/>
<path class="atom-0" d="M 471.1 87.1 L 472.6 85.6 L 470.7 85.2 L 471.0 84.3 L 472.7 85.1 L 472.4 83.2 L 473.5 83.2 L 473.2 85.1 L 474.9 84.3 L 475.2 85.2 L 473.3 85.6 L 474.7 87.1 L 473.9 87.7 L 472.9 85.9 L 472.0 87.7 L 471.1 87.1 " fill="#191919"/>
<path class="atom-2" d="M 525.2 63.2 L 526.6 61.8 L 524.8 61.4 L 525.0 60.4 L 526.8 61.3 L 526.5 59.4 L 527.6 59.4 L 527.3 61.3 L 529.0 60.5 L 529.3 61.4 L 527.4 61.8 L 528.8 63.2 L 528.0 63.8 L 527.0 62.0 L 526.1 63.8 L 525.2 63.2 " fill="#191919"/>
<path class="atom-3" d="M 518.8 122.0 L 520.2 120.6 L 518.3 120.2 L 518.6 119.2 L 520.4 120.1 L 520.1 118.2 L 521.1 118.2 L 520.9 120.1 L 522.6 119.2 L 522.9 120.2 L 521.0 120.5 L 522.4 122.0 L 521.5 122.6 L 520.6 120.8 L 519.6 122.6 L 518.8 122.0 " fill="#191919"/>
<path class="legend" d="M 410.0 176.8 L 416.2 176.8 L 416.2 178.0 L 411.4 178.0 L 411.4 181.2 L 415.6 181.2 L 415.6 182.4 L 411.4 182.4 L 411.4 187.2 L 410.0 187.2 L 410.0 176.8 " fill="#000000"/>
<path class="legend" d="M 417.0 183.4 Q 417.0 181.6, 417.9 180.6 Q 418.8 179.5, 420.5 179.5 Q 422.2 179.5, 422.9 180.5 Q 423.6 181.5, 423.6 183.4 L 423.6 183.6 L 418.4 183.6 Q 418.4 184.9, 419.0 185.5 Q 419.6 186.2, 420.6 186.2 Q 421.2 186.2, 421.7 186.1 Q 422.3 185.9, 422.9 185.6 L 423.3 186.6 Q 422.6 187.0, 421.9 187.1 Q 421.3 187.3, 420.5 187.3 Q 418.9 187.3, 417.9 186.3 Q 417.0 185.2, 417.0 183.4 M 420.5 180.6 Q 419.6 180.6, 419.1 181.1 Q 418.6 181.6, 418.4 182.6 L 422.2 182.6 Q 422.1 181.6, 421.7 181.1 Q 421.3 180.6, 420.5 180.6 " fill="#000000"/>
<path class="legend" d="M 424.7 185.1 Q 424.7 183.9, 425.7 183.3 Q 426.6 182.6, 428.4 182.6 L 429.5 182.6 L 429.5 182.3 Q 429.5 181.4, 429.1 181.0 Q 428.7 180.6, 427.8 180.6 Q 427.2 180.6, 426.7 180.7 Q 426.3 180.8, 425.5 181.2 L 425.1 180.2 Q 426.5 179.5, 427.8 179.5 Q 429.4 179.5, 430.1 180.2 Q 430.9 180.9, 430.9 182.4 L 430.9 187.2 L 429.8 187.2 Q 429.8 187.1, 429.8 186.9 Q 429.7 186.7, 429.6 186.3 Q 428.6 187.4, 427.2 187.4 Q 426.0 187.4, 425.4 186.8 Q 424.7 186.2, 424.7 185.1 M 426.1 185.1 Q 426.1 185.7, 426.4 186.0 Q 426.8 186.3, 427.4 186.3 Q 428.0 186.3, 428.6 186.0 Q 429.1 185.7, 429.5 185.3 L 429.5 183.7 L 428.5 183.7 Q 427.3 183.7, 426.7 184.0 Q 426.1 184.4, 426.1 185.1 " fill="#000000"/>
<path class="legend" d="M 432.5 180.7 L 432.5 179.7 L 433.9 179.7 L 434.2 177.5 L 435.2 177.5 L 435.2 179.7 L 437.5 179.7 L 437.5 180.7 L 435.2 180.7 L 435.2 184.9 Q 435.2 186.2, 436.3 186.2 Q 436.7 186.2, 437.4 186.0 L 437.6 186.9 Q 436.8 187.3, 436.1 187.3 Q 435.1 187.3, 434.4 186.7 Q 433.8 186.1, 433.8 184.9 L 433.8 180.7 L 432.5 180.7 " fill="#000000"/>
<path class="legend" d="M 444.9 179.7 L 444.9 187.2 L 443.7 187.2 L 443.6 186.1 Q 442.6 187.3, 441.0 187.3 Q 439.8 187.3, 439.1 186.6 Q 438.5 186.0, 438.5 184.6 L 438.5 179.7 L 439.9 179.7 L 439.9 184.5 Q 439.9 185.4, 440.2 185.8 Q 440.5 186.2, 441.3 186.2 Q 442.0 186.2, 442.6 185.9 Q 443.1 185.6, 443.5 185.0 L 443.5 179.7 L 444.9 179.7 " fill="#000000"/>
<path class="legend" d="M 447.7 179.7 L 447.9 180.7 Q 448.6 179.5, 449.9 179.5 Q 450.3 179.5, 450.9 179.7 L 450.7 180.9 Q 450.0 180.8, 449.7 180.8 Q 449.1 180.8, 448.7 181.0 Q 448.3 181.2, 448.0 181.8 L 448.0 187.2 L 446.6 187.2 L 446.6 179.7 L 447.7 179.7 " fill="#000000"/>
<path class="legend" d="M 451.6 183.4 Q 451.6 181.6, 452.5 180.6 Q 453.5 179.5, 455.1 179.5 Q 456.8 179.5, 457.5 180.5 Q 458.3 181.5, 458.3 183.4 L 458.3 183.6 L 453.0 183.6 Q 453.1 184.9, 453.6 185.5 Q 454.2 186.2, 455.3 186.2 Q 455.8 186.2, 456.4 186.1 Q 456.9 185.9, 457.6 185.6 L 458.0 186.6 Q 457.2 187.0, 456.6 187.1 Q 455.9 187.3, 455.2 187.3 Q 453.5 187.3, 452.6 186.3 Q 451.6 185.2, 451.6 183.4 M 455.1 180.6 Q 454.3 180.6, 453.8 181.1 Q 453.2 181.6, 453.1 182.6 L 456.8 182.6 Q 456.7 181.6, 456.3 181.1 Q 455.9 180.6, 455.1 180.6 " fill="#000000"/>
<path class="legend" d="" fill="#000000"/>
<path class="legend" d="M 470.0 181.7 Q 470.9 182.1, 471.5 182.7 Q 472.0 183.3, 472.0 184.3 Q 472.0 185.2, 471.6 185.9 Q 471.1 186.6, 470.3 187.0 Q 469.5 187.3, 468.4 187.3 Q 466.7 187.3, 465.7 186.5 Q 464.7 185.7, 464.7 184.3 Q 464.7 183.5, 465.2 182.9 Q 465.6 182.2, 466.5 181.7 Q 465.8 181.4, 465.5 180.8 Q 465.1 180.2, 465.1 179.4 Q 465.1 178.1, 466.0 177.4 Q 466.9 176.7, 468.4 176.7 Q 469.9 176.7, 470.8 177.4 Q 471.6 178.1, 471.6 179.4 Q 471.6 180.1, 471.2 180.7 Q 470.8 181.2, 470.0 181.7 M 468.4 177.8 Q 467.5 177.8, 467.0 178.2 Q 466.6 178.6, 466.6 179.4 Q 466.6 179.9, 466.9 180.3 Q 467.2 180.6, 467.7 180.8 Q 468.1 181.0, 469.0 181.3 Q 469.6 180.9, 469.9 180.4 Q 470.2 180.0, 470.2 179.4 Q 470.2 178.6, 469.7 178.2 Q 469.2 177.8, 468.4 177.8 M 468.4 186.2 Q 469.4 186.2, 470.0 185.7 Q 470.6 185.2, 470.6 184.3 Q 470.6 183.8, 470.3 183.4 Q 469.9 183.1, 469.5 182.9 Q 469.0 182.7, 468.2 182.4 L 467.5 182.2 Q 466.8 182.6, 466.5 183.1 Q 466.2 183.7, 466.2 184.3 Q 466.2 185.2, 466.8 185.7 Q 467.4 186.2, 468.4 186.2 " fill="#000000"/>
<path class="legend" d="M 477.2 187.3 Q 475.3 187.3, 474.4 185.9 Q 473.5 184.5, 473.5 182.0 Q 473.5 179.5, 474.4 178.1 Q 475.3 176.7, 477.2 176.7 Q 479.2 176.7, 480.1 178.1 Q 481.0 179.5, 481.0 182.0 Q 481.0 184.5, 480.1 185.9 Q 479.1 187.3, 477.2 187.3 M 477.2 186.1 Q 478.4 186.1, 479.0 185.1 Q 479.6 184.0, 479.6 182.0 Q 479.6 180.0, 479.0 178.9 Q 478.4 177.9, 477.2 177.9 Q 476.1 177.9, 475.5 178.9 Q 474.9 180.0, 474.9 182.0 Q 474.9 184.0, 475.5 185.1 Q 476.1 186.1, 477.2 186.1 " fill="#000000"/>
<path class="legend" d="M 487.9 178.0 L 482.5 178.0 L 482.5 176.8 L 489.4 176.8 L 489.4 177.9 L 485.2 187.2 L 483.8 187.2 L 487.9 178.0 " fill="#000000"/>
<path class="legend" d="" fill="#000000"/>
<path class="legend" d="M 495.7 175.9 L 496.9 175.9 L 496.9 190.0 L 495.7 190.0 L 495.7 175.9 " fill="#000000"/>
<path class="legend" d="" fill="#000000"/>
<path class="legend" d="M 504.4 185.6 Q 504.5 185.6, 505.0 185.8 Q 505.5 186.0, 506.0 186.2 Q 506.6 186.3, 507.1 186.3 Q 508.1 186.3, 508.6 185.8 Q 509.2 185.3, 509.2 184.5 Q 509.2 183.9, 508.9 183.6 Q 508.6 183.2, 508.2 183.0 Q 507.8 182.8, 507.0 182.6 Q 506.1 182.3, 505.6 182.1 Q 505.0 181.8, 504.6 181.3 Q 504.2 180.7, 504.2 179.8 Q 504.2 178.5, 505.1 177.7 Q 506.0 176.9, 507.8 176.9 Q 509.0 176.9, 510.3 177.4 L 510.0 178.6 Q 508.7 178.0, 507.8 178.0 Q 506.8 178.0, 506.2 178.5 Q 505.7 178.9, 505.7 179.6 Q 505.7 180.1, 506.0 180.5 Q 506.3 180.8, 506.7 181.0 Q 507.1 181.2, 507.8 181.4 Q 508.7 181.7, 509.3 182.0 Q 509.9 182.3, 510.2 182.9 Q 510.7 183.5, 510.7 184.5 Q 510.7 185.9, 509.7 186.7 Q 508.7 187.5, 507.1 187.5 Q 506.2 187.5, 505.5 187.3 Q 504.8 187.1, 504.0 186.7 L 504.4 185.6 " fill="#000000"/>
<path class="legend" d="M 511.8 176.8 L 513.3 176.8 L 513.3 181.2 L 518.5 181.2 L 518.5 176.8 L 519.9 176.8 L 519.9 187.2 L 518.5 187.2 L 518.5 182.4 L 513.3 182.4 L 513.3 187.2 L 511.8 187.2 L 511.8 176.8 " fill="#000000"/>
<path class="legend" d="M 529.3 187.2 L 528.2 184.1 L 524.1 184.1 L 523.1 187.2 L 521.7 187.2 L 525.3 176.8 L 527.0 176.8 L 530.7 187.2 L 529.3 187.2 M 524.5 183.0 L 527.8 183.0 L 526.2 178.3 L 524.5 183.0 " fill="#000000"/>
<path class="legend" d="M 534.4 176.8 Q 536.2 176.8, 537.1 177.6 Q 538.0 178.4, 538.0 179.9 Q 538.0 181.3, 537.1 182.1 Q 536.1 182.9, 534.4 182.9 L 532.8 182.9 L 532.8 187.2 L 531.4 187.2 L 531.4 176.8 L 534.4 176.8 M 534.4 181.8 Q 535.4 181.8, 536.0 181.3 Q 536.5 180.8, 536.5 179.9 Q 536.5 178.9, 536.0 178.5 Q 535.4 178.0, 534.4 178.0 L 532.8 178.0 L 532.8 181.8 L 534.4 181.8 " fill="#000000"/>
<path class="legend" d="M 539.2 185.5 L 540.6 185.5 L 540.6 186.9 L 539.2 186.9 L 539.2 185.5 M 539.2 180.4 L 540.6 180.4 L 540.6 181.9 L 539.2 181.9 L 539.2 180.4 " fill="#000000"/>
<path class="legend" d="" fill="#000000"/>
<path class="legend" d="M 547.6 181.9 L 553.0 181.9 L 553.0 183.1 L 547.6 183.1 L 547.6 181.9 " fill="#000000"/>
<path class="legend" d="M 559.2 181.7 Q 560.2 182.0, 560.7 182.7 Q 561.2 183.3, 561.2 184.3 Q 561.2 185.2, 560.7 185.9 Q 560.3 186.6, 559.5 187.0 Q 558.7 187.3, 557.6 187.3 Q 556.5 187.3, 555.7 186.9 Q 554.9 186.6, 554.2 185.8 L 555.1 184.9 Q 555.7 185.6, 556.2 185.9 Q 556.8 186.2, 557.6 186.2 Q 558.6 186.2, 559.1 185.7 Q 559.7 185.1, 559.7 184.3 Q 559.7 183.3, 559.1 182.8 Q 558.5 182.3, 557.3 182.3 L 556.5 182.3 L 556.5 181.3 L 557.2 181.3 Q 558.3 181.3, 558.9 180.8 Q 559.5 180.3, 559.5 179.4 Q 559.5 178.7, 559.0 178.3 Q 558.5 177.9, 557.7 177.9 Q 556.8 177.9, 556.3 178.2 Q 555.7 178.5, 555.3 179.3 L 554.3 178.7 Q 554.7 177.9, 555.5 177.3 Q 556.4 176.7, 557.7 176.7 Q 559.2 176.7, 560.1 177.4 Q 561.0 178.1, 561.0 179.4 Q 561.0 180.2, 560.5 180.8 Q 560.1 181.4, 559.2 181.7 " fill="#000000"/>
<path class="legend" d="M 567.8 181.7 Q 568.8 182.1, 569.3 182.7 Q 569.9 183.3, 569.9 184.3 Q 569.9 185.2, 569.4 185.9 Q 568.9 186.6, 568.1 187.0 Q 567.3 187.3, 566.3 187.3 Q 564.5 187.3, 563.5 186.5 Q 562.5 185.7, 562.5 184.3 Q 562.5 183.5, 563.0 182.9 Q 563.4 182.2, 564.3 181.7 Q 563.7 181.4, 563.3 180.8 Q 562.9 180.2, 562.9 179.4 Q 562.9 178.1, 563.8 177.4 Q 564.7 176.7, 566.2 176.7 Q 567.7 176.7, 568.6 177.4 Q 569.5 178.1, 569.5 179.4 Q 569.5 180.1, 569.1 180.7 Q 568.6 181.2, 567.8 181.7 M 566.2 177.8 Q 565.3 177.8, 564.9 178.2 Q 564.4 178.6, 564.4 179.4 Q 564.4 179.9, 564.7 180.3 Q 565.0 180.6, 565.5 180.8 Q 566.0 181.0, 566.8 181.3 Q 567.5 180.9, 567.7 180.4 Q 568.0 180.0, 568.0 179.4 Q 568.0 178.6, 567.5 178.2 Q 567.1 177.8, 566.2 177.8 M 566.3 186.2 Q 567.2 186.2, 567.8 185.7 Q 568.4 185.2, 568.4 184.3 Q 568.4 183.8, 568.1 183.4 Q 567.8 183.1, 567.3 182.9 Q 566.9 182.7, 566.0 182.4 L 565.4 182.2 Q 564.7 182.6, 564.3 183.1 Q 564.0 183.7, 564.0 184.3 Q 564.0 185.2, 564.6 185.7 Q 565.2 186.2, 566.3 186.2 " fill="#000000"/>
<path class="legend" d="M 571.3 185.7 L 572.7 185.7 L 572.7 187.2 L 571.3 187.2 L 571.3 185.7 " fill="#000000"/>
<path class="legend" d="M 578.3 180.7 Q 579.2 180.7, 579.9 181.1 Q 580.6 181.5, 581.0 182.2 Q 581.4 182.9, 581.4 183.8 Q 581.4 184.9, 580.9 185.6 Q 580.5 186.4, 579.7 186.9 Q 578.9 187.3, 577.9 187.3 Q 576.1 187.3, 575.1 186.1 Q 574.2 184.8, 574.2 182.3 Q 574.2 179.6, 575.3 178.1 Q 576.5 176.7, 578.7 176.7 Q 579.3 176.7, 579.9 176.9 Q 580.4 177.0, 581.0 177.3 L 580.4 178.3 Q 579.6 177.9, 578.7 177.9 Q 577.3 177.9, 576.5 178.8 Q 575.8 179.8, 575.7 181.7 Q 576.2 181.2, 576.9 181.0 Q 577.5 180.7, 578.3 180.7 M 577.9 186.1 Q 578.5 186.1, 578.9 185.8 Q 579.4 185.5, 579.7 185.0 Q 579.9 184.5, 579.9 183.9 Q 579.9 182.9, 579.4 182.4 Q 578.9 181.9, 578.0 181.9 Q 577.4 181.9, 576.7 182.1 Q 576.1 182.4, 575.7 182.8 Q 575.7 184.5, 576.3 185.3 Q 576.8 186.1, 577.9 186.1 " fill="#000000"/>
<path class="legend" d="M 588.0 181.7 Q 588.9 182.1, 589.5 182.7 Q 590.0 183.3, 590.0 184.3 Q 590.0 185.2, 589.5 185.9 Q 589.1 186.6, 588.3 187.0 Q 587.5 187.3, 586.4 187.3 Q 584.7 187.3, 583.7 186.5 Q 582.7 185.7, 582.7 184.3 Q 582.7 183.5, 583.1 182.9 Q 583.6 182.2, 584.5 181.7 Q 583.8 181.4, 583.4 180.8 Q 583.1 180.2, 583.1 179.4 Q 583.1 178.1, 583.9 177.4 Q 584.8 176.7, 586.3 176.7 Q 587.9 176.7, 588.7 177.4 Q 589.6 178.1, 589.6 179.4 Q 589.6 180.1, 589.2 180.7 Q 588.8 181.2, 588.0 181.7 M 586.3 177.8 Q 585.5 177.8, 585.0 178.2 Q 584.5 178.6, 584.5 179.4 Q 584.5 179.9, 584.9 180.3 Q 585.2 180.6, 585.6 180.8 Q 586.1 181.0, 587.0 181.3 Q 587.6 180.9, 587.9 180.4 Q 588.2 180.0, 588.2 179.4 Q 588.2 178.6, 587.7 178.2 Q 587.2 177.8, 586.3 177.8 M 586.4 186.2 Q 587.4 186.2, 588.0 185.7 Q 588.5 185.2, 588.5 184.3 Q 588.5 183.8, 588.2 183.4 Q 587.9 183.1, 587.5 182.9 Q 587.0 182.7, 586.2 182.4 L 585.5 182.2 Q 584.8 182.6, 584.5 183.1 Q 584.2 183.7, 584.2 184.3 Q 584.2 185.2, 584.8 185.7 Q 585.4 186.2, 586.4 186.2 " fill="#000000"/>
<ellipse cx="96.8" cy="293.7" rx="6.8" ry="6.8" class="atom-2" style="fill:#9999E5;fill-rule:evenodd;stroke:#9999E5;stroke-width:1.0px;stroke-linecap:butt;stroke-linejoin:miter;stroke-opacity:1"/>
<path class="bond-0 atom-0 atom-1" d="M 52.5,259.1 L 83.0,262.5" style="fill:none;fill-rule:evenodd;stroke:#E5E5E5;stroke-width:1.8px;stroke-linecap:butt;stroke-linejoin:miter;stroke-opacity:1"/>
<path class="bond-1 atom-1 atom-2" d="M 83.0,262.5 L 94.2,287.7" style="fill:none;fill-rule:evenodd;stroke:#000000;stroke-width:2.0px;stroke-linecap:butt;stroke-linejoin:miter;stroke-opacity:1"/>
<path class="bond-2 atom-2 atom-3" d="M 101.6,294.2 L 130.7,297.4" style="fill:none;fill-rule:evenodd;stroke:#000000;stroke-width:2.0px;stroke-linecap:butt;stroke-linejoin:miter;stroke-opacity:1"/>
<path class="bond-3 atom-3 atom-4" d="M 131.9,300.1 L 152.5,272.0" style="fill:none;fill-rule:evenodd;stroke:#E5E5E5;stroke-width:1.8px;stroke-linecap:butt;stroke-linejoin:miter;stroke-opacity:1"/>
<path class="bond-3 atom-3 atom-4" d="M 127.8,297.1 L 148.4,269.0" style="fill:none;fill-rule:evenodd;stroke:#E5E5E5;stroke-width:1.8px;stroke-linecap:butt;stroke-linejoin:miter;stroke-opacity:1"/>
<path class="bond-4 atom-3 atom-5" d="M 130.7,297.4 L 141.8,322.6" style="fill:none;fill-rule:evenodd;stroke:#E5E5E5;stroke-width:1.8px;stroke-linecap:butt;stroke-linejoin:miter;stroke-opacity:1"/>
<path d="M 82.3,262.4 L 83.0,262.5 L 83.3,263.1" style="fill:none;stroke:#E5E5E5;stroke-width:1.8px;stroke-linecap:butt;stroke-linejoin:miter;stroke-miterlimit:10;stroke-opacity:1;"/>
<path d="M 130.0,297.3 L 130.7,297.4 L 131.0,298.0" style="fill:none;stroke:#000000;stroke-width:2.0px;stroke-linecap:butt;stroke-linejoin:miter;stroke-miterlimit:10;stroke-opacity:1;"/>
<path class="atom-0" d="M 47.3 257.7 L 48.7 256.2 L 46.8 255.9 L 47.1 254.9 L 48.9 255.8 L 48.6 253.9 L 49.6 253.9 L 49.3 255.8 L 51.1 254.9 L 51.4 255.9 L 49.5 256.2 L 50.9 257.7 L 50.0 258.3 L 49.1 256.5 L 48.1 258.3 L 47.3 257.7 " fill="#191919"/>
<path class="atom-2" d="M 83.7 288.9 L 85.0 288.9 L 85.0 293.0 L 89.9 293.0 L 89.9 288.9 L 91.2 288.9 L 91.2 298.5 L 89.9 298.5 L 89.9 294.1 L 85.0 294.1 L 85.0 298.5 L 83.7 298.5 L 83.7 288.9 " fill="#000000"/>
<path class="atom-2" d="M 94.7 288.9 L 97.8 294.0 Q 98.1 294.5, 98.6 295.4 Q 99.1 296.3, 99.2 296.4 L 99.2 288.9 L 100.5 288.9 L 100.5 298.5 L 99.1 298.5 L 95.7 292.9 Q 95.3 292.3, 94.9 291.5 Q 94.5 290.8, 94.4 290.5 L 94.4 298.5 L 93.1 298.5 L 93.1 288.9 L 94.7 288.9 " fill="#000000"/>
<path class="atom-4" d="M 149.1 268.8 L 150.5 267.4 L 148.6 267.0 L 148.9 266.0 L 150.6 266.9 L 150.4 265.0 L 151.4 265.0 L 151.1 266.9 L 152.9 266.0 L 153.2 267.0 L 151.3 267.3 L 152.6 268.8 L 151.8 269.4 L 150.8 267.6 L 149.9 269.4 L 149.1 268.8 " fill="#191919"/>
<path class="atom-5" d="M 142.6 327.6 L 144.1 326.1 L 142.2 325.7 L 142.5 324.8 L 144.2 325.6 L 144.0 323.7 L 145.0 323.7 L 144.7 325.6 L 146.5 324.8 L 146.8 325.7 L 144.8 326.1 L 146.2 327.5 L 145.4 328.1 L 144.4 326.3 L 143.5 328.1 L 142.6 327.6 " fill="#191919"/>
<path class="legend" d="M 10.0 376.7 L 16.2 376.7 L 16.2 377.9 L 11.4 377.9 L 11.4 381.1 L 15.7 381.1 L 15.7 382.3 L 11.4 382.3 L 11.4 387.1 L 10.0 387.1 L 10.0 376.7 " fill="#000000"/>
<path class="legend" d="M 17.1 383.3 Q 17.1 381.5, 18.0 380.5 Q 18.9 379.4, 20.6 379.4 Q 22.3 379.4, 23.0 380.4 Q 23.8 381.4, 23.8 383.3 L 23.8 383.5 L 18.5 383.5 Q 18.5 384.8, 19.1 385.5 Q 19.7 386.2, 20.7 386.2 Q 21.3 386.2, 21.9 386.0 Q 22.4 385.9, 23.1 385.6 L 23.5 386.5 Q 22.7 386.9, 22.0 387.1 Q 21.4 387.3, 20.7 387.3 Q 18.9 387.3, 18.0 386.2 Q 17.1 385.2, 17.1 383.3 M 20.6 380.5 Q 19.7 380.5, 19.2 381.0 Q 18.7 381.5, 18.5 382.5 L 22.3 382.5 Q 22.2 381.5, 21.8 381.0 Q 21.4 380.5, 20.6 380.5 " fill="#000000"/>
<path class="legend" d="M 24.8 385.1 Q 24.8 383.9, 25.8 383.2 Q 26.8 382.6, 28.6 382.6 L 29.7 382.6 L 29.7 382.3 Q 29.7 381.3, 29.3 380.9 Q 28.9 380.5, 28.0 380.5 Q 27.4 380.5, 26.9 380.6 Q 26.4 380.7, 25.7 381.1 L 25.3 380.1 Q 26.7 379.4, 28.0 379.4 Q 29.6 379.4, 30.4 380.1 Q 31.1 380.8, 31.1 382.3 L 31.1 387.1 L 30.0 387.1 Q 30.0 387.1, 30.0 386.9 Q 29.9 386.6, 29.8 386.3 Q 28.8 387.3, 27.3 387.3 Q 26.2 387.3, 25.5 386.7 Q 24.8 386.1, 24.8 385.1 M 26.2 385.1 Q 26.2 385.6, 26.6 385.9 Q 26.9 386.2, 27.6 386.2 Q 28.2 386.2, 28.8 386.0 Q 29.3 385.7, 29.7 385.2 L 29.7 383.6 L 28.7 383.6 Q 27.5 383.6, 26.8 384.0 Q 26.2 384.3, 26.2 385.1 " fill="#000000"/>
<path class="legend" d="M 32.7 380.6 L 32.7 379.6 L 34.2 379.6 L 34.4 377.3 L 35.5 377.3 L 35.5 379.6 L 37.8 379.6 L 37.8 380.6 L 35.5 380.6 L 35.5 384.8 Q 35.5 386.1, 36.6 386.1 Q 37.0 386.1, 37.7 385.9 L 37.9 386.9 Q 37.1 387.2, 36.3 387.2 Q 35.3 387.2, 34.7 386.6 Q 34.1 386.1, 34.1 384.9 L 34.1 380.6 L 32.7 380.6 " fill="#000000"/>
<path class="legend" d="M 45.2 379.6 L 45.2 387.1 L 44.1 387.1 L 43.9 386.1 Q 42.9 387.3, 41.4 387.3 Q 40.1 387.3, 39.4 386.6 Q 38.8 385.9, 38.8 384.6 L 38.8 379.6 L 40.2 379.6 L 40.2 384.5 Q 40.2 385.4, 40.5 385.8 Q 40.8 386.2, 41.6 386.2 Q 42.3 386.2, 42.9 385.9 Q 43.5 385.6, 43.8 385.0 L 43.8 379.6 L 45.2 379.6 " fill="#000000"/>
<path class="legend" d="M 48.1 379.6 L 48.2 380.6 Q 49.0 379.4, 50.3 379.4 Q 50.7 379.4, 51.3 379.6 L 51.1 380.8 Q 50.4 380.7, 50.1 380.7 Q 49.5 380.7, 49.1 380.9 Q 48.7 381.2, 48.3 381.7 L 48.3 387.1 L 46.9 387.1 L 46.9 379.6 L 48.1 379.6 " fill="#000000"/>
<path class="legend" d="M 52.0 383.3 Q 52.0 381.5, 53.0 380.5 Q 53.9 379.4, 55.6 379.4 Q 57.3 379.4, 58.0 380.4 Q 58.7 381.4, 58.7 383.3 L 58.7 383.5 L 53.4 383.5 Q 53.5 384.8, 54.0 385.5 Q 54.6 386.2, 55.7 386.2 Q 56.3 386.2, 56.8 386.0 Q 57.4 385.9, 58.1 385.6 L 58.5 386.5 Q 57.7 386.9, 57.0 387.1 Q 56.3 387.3, 55.6 387.3 Q 53.9 387.3, 53.0 386.2 Q 52.0 385.2, 52.0 383.3 M 55.6 380.5 Q 54.7 380.5, 54.2 381.0 Q 53.7 381.5, 53.5 382.5 L 57.3 382.5 Q 57.2 381.5, 56.8 381.0 Q 56.4 380.5, 55.6 380.5 " fill="#000000"/>
<path class="legend" d="" fill="#000000"/>
<path class="legend" d="M 65.8 386.0 L 68.1 386.0 L 68.1 378.2 L 65.6 378.9 L 65.2 378.1 L 68.5 376.6 L 69.5 376.8 L 69.5 386.0 L 71.6 386.0 L 71.6 387.1 L 65.8 387.1 L 65.8 386.0 " fill="#000000"/>
<path class="legend" d="M 76.2 376.6 Q 78.1 376.6, 79.0 377.8 Q 79.9 379.1, 79.9 381.6 Q 79.9 384.4, 78.8 385.8 Q 77.6 387.3, 75.4 387.3 Q 74.7 387.3, 74.2 387.1 Q 73.6 387.0, 73.1 386.7 L 73.7 385.7 Q 74.4 386.1, 75.4 386.1 Q 76.8 386.1, 77.6 385.1 Q 78.4 384.2, 78.4 382.2 Q 77.9 382.7, 77.2 383.0 Q 76.6 383.2, 75.8 383.2 Q 74.9 383.2, 74.2 382.8 Q 73.5 382.4, 73.1 381.7 Q 72.7 381.0, 72.7 380.1 Q 72.7 379.0, 73.1 378.3 Q 73.6 377.5, 74.4 377.0 Q 75.2 376.6, 76.2 376.6 M 74.2 380.0 Q 74.2 381.0, 74.7 381.5 Q 75.2 382.0, 76.1 382.0 Q 76.7 382.0, 77.4 381.8 Q 78.0 381.5, 78.4 381.1 Q 78.4 379.3, 77.8 378.6 Q 77.3 377.8, 76.2 377.8 Q 75.6 377.8, 75.1 378.1 Q 74.7 378.4, 74.4 378.9 Q 74.2 379.4, 74.2 380.0 " fill="#000000"/>
<path class="legend" d="M 86.9 377.9 L 81.4 377.9 L 81.4 376.7 L 88.4 376.7 L 88.4 377.7 L 84.2 387.1 L 82.7 387.1 L 86.9 377.9 " fill="#000000"/>
<path class="legend" d="" fill="#000000"/>
<path class="legend" d="M 94.8 375.7 L 96.0 375.7 L 96.0 390.0 L 94.8 390.0 L 94.8 375.7 " fill="#000000"/>
<path class="legend" d="" fill="#000000"/>
<path class="legend" d="M 103.6 385.5 Q 103.7 385.6, 104.2 385.8 Q 104.7 386.0, 105.2 386.1 Q 105.8 386.2, 106.3 386.2 Q 107.3 386.2, 107.9 385.8 Q 108.4 385.3, 108.4 384.4 Q 108.4 383.9, 108.1 383.5 Q 107.9 383.1, 107.4 383.0 Q 107.0 382.8, 106.2 382.5 Q 105.3 382.3, 104.7 382.0 Q 104.2 381.7, 103.8 381.2 Q 103.4 380.6, 103.4 379.7 Q 103.4 378.3, 104.3 377.5 Q 105.2 376.7, 107.0 376.7 Q 108.2 376.7, 109.6 377.3 L 109.2 378.4 Q 108.0 377.9, 107.0 377.9 Q 106.0 377.9, 105.4 378.3 Q 104.9 378.8, 104.9 379.5 Q 104.9 380.0, 105.2 380.4 Q 105.5 380.7, 105.9 380.9 Q 106.3 381.1, 107.0 381.3 Q 108.0 381.6, 108.5 381.9 Q 109.1 382.2, 109.5 382.8 Q 109.9 383.4, 109.9 384.4 Q 109.9 385.9, 108.9 386.7 Q 108.0 387.4, 106.3 387.4 Q 105.4 387.4, 104.7 387.2 Q 104.0 387.0, 103.2 386.7 L 103.6 385.5 " fill="#000000"/>
<path class="legend" d="M 111.1 376.7 L 112.5 376.7 L 112.5 381.1 L 117.9 381.1 L 117.9 376.7 L 119.3 376.7 L 119.3 387.1 L 117.9 387.1 L 117.9 382.3 L 112.5 382.3 L 112.5 387.1 L 111.1 387.1 L 111.1 376.7 " fill="#000000"/>
<path class="legend" d="M 128.8 387.1 L 127.7 384.1 L 123.5 384.1 L 122.5 387.1 L 121.0 387.1 L 124.6 376.7 L 126.4 376.7 L 130.1 387.1 L 128.8 387.1 M 123.9 382.9 L 127.2 382.9 L 125.5 378.2 L 123.9 382.9 " fill="#000000"/>
<path class="legend" d="M 133.9 376.7 Q 135.7 376.7, 136.6 377.5 Q 137.5 378.3, 137.5 379.8 Q 137.5 381.2, 136.6 382.0 Q 135.6 382.8, 133.9 382.8 L 132.2 382.8 L 132.2 387.1 L 130.8 387.1 L 130.8 376.7 L 133.9 376.7 M 133.9 381.7 Q 134.9 381.7, 135.5 381.2 Q 136.0 380.7, 136.0 379.8 Q 136.0 378.8, 135.5 378.4 Q 134.9 377.9, 133.9 377.9 L 132.2 377.9 L 132.2 381.7 L 133.9 381.7 " fill="#000000"/>
<path class="legend" d="M 138.7 385.4 L 140.2 385.4 L 140.2 386.9 L 138.7 386.9 L 138.7 385.4 M 138.7 380.3 L 140.2 380.3 L 140.2 381.8 L 138.7 381.8 L 138.7 380.3 " fill="#000000"/>
<path class="legend" d="" fill="#000000"/>
<path class="legend" d="M 147.2 381.8 L 152.6 381.8 L 152.6 383.0 L 147.2 383.0 L 147.2 381.8 " fill="#000000"/>
<path class="legend" d="M 158.9 381.6 Q 159.9 381.9, 160.4 382.6 Q 160.9 383.2, 160.9 384.3 Q 160.9 385.2, 160.5 385.9 Q 160.0 386.5, 159.2 386.9 Q 158.4 387.3, 157.3 387.3 Q 156.2 387.3, 155.4 386.9 Q 154.5 386.5, 153.9 385.7 L 154.7 384.9 Q 155.4 385.6, 155.9 385.8 Q 156.5 386.1, 157.3 386.1 Q 158.3 386.1, 158.9 385.6 Q 159.4 385.1, 159.4 384.3 Q 159.4 383.2, 158.8 382.7 Q 158.2 382.2, 157.0 382.2 L 156.2 382.2 L 156.2 381.2 L 156.9 381.2 Q 158.0 381.2, 158.6 380.7 Q 159.2 380.2, 159.2 379.2 Q 159.2 378.6, 158.7 378.2 Q 158.2 377.8, 157.3 377.8 Q 156.5 377.8, 155.9 378.1 Q 155.4 378.4, 155.0 379.2 L 154.0 378.6 Q 154.3 377.7, 155.2 377.2 Q 156.1 376.6, 157.3 376.6 Q 158.9 376.6, 159.8 377.3 Q 160.7 378.0, 160.7 379.2 Q 160.7 380.1, 160.2 380.7 Q 159.8 381.3, 158.9 381.6 " fill="#000000"/>
<path class="legend" d="M 166.4 380.6 Q 167.3 380.6, 168.0 381.0 Q 168.7 381.4, 169.1 382.1 Q 169.5 382.9, 169.5 383.8 Q 169.5 384.8, 169.1 385.6 Q 168.6 386.4, 167.8 386.8 Q 167.0 387.3, 166.0 387.3 Q 164.2 387.3, 163.2 386.0 Q 162.3 384.7, 162.3 382.2 Q 162.3 379.5, 163.4 378.0 Q 164.6 376.6, 166.8 376.6 Q 167.5 376.6, 168.0 376.7 Q 168.6 376.9, 169.1 377.2 L 168.6 378.2 Q 167.8 377.8, 166.9 377.8 Q 165.4 377.8, 164.6 378.7 Q 163.9 379.7, 163.8 381.6 Q 164.3 381.1, 165.0 380.9 Q 165.7 380.6, 166.4 380.6 M 166.0 386.1 Q 166.6 386.1, 167.1 385.8 Q 167.5 385.5, 167.8 384.9 Q 168.1 384.4, 168.1 383.8 Q 168.1 382.9, 167.5 382.3 Q 167.0 381.8, 166.1 381.8 Q 165.5 381.8, 164.8 382.1 Q 164.2 382.3, 163.8 382.8 Q 163.8 384.5, 164.4 385.3 Q 164.9 386.1, 166.0 386.1 " fill="#000000"/>
<path class="legend" d="M 170.9 385.7 L 172.3 385.7 L 172.3 387.1 L 170.9 387.1 L 170.9 385.7 " fill="#000000"/>
<path class="legend" d="M 177.6 387.3 Q 175.7 387.3, 174.8 385.8 Q 173.8 384.4, 173.8 381.9 Q 173.8 379.4, 174.8 378.0 Q 175.7 376.6, 177.6 376.6 Q 179.6 376.6, 180.5 378.0 Q 181.5 379.4, 181.5 381.9 Q 181.5 384.4, 180.5 385.8 Q 179.6 387.3, 177.6 387.3 M 177.6 386.1 Q 178.8 386.1, 179.4 385.0 Q 180.0 384.0, 180.0 381.9 Q 180.0 379.9, 179.4 378.8 Q 178.8 377.8, 177.6 377.8 Q 176.5 377.8, 175.9 378.8 Q 175.3 379.9, 175.3 381.9 Q 175.3 384.0, 175.9 385.0 Q 176.5 386.1, 177.6 386.1 " fill="#000000"/>
<path class="legend" d="M 186.7 380.6 Q 187.6 380.6, 188.4 381.0 Q 189.1 381.4, 189.6 382.1 Q 190.0 382.8, 190.0 383.8 Q 190.0 384.9, 189.5 385.7 Q 189.0 386.5, 188.1 386.9 Q 187.2 387.3, 186.3 387.3 Q 185.3 387.3, 184.4 386.9 Q 183.5 386.6, 182.9 385.9 L 183.8 385.0 Q 184.3 385.5, 185.0 385.8 Q 185.6 386.1, 186.3 386.1 Q 187.2 386.1, 187.9 385.5 Q 188.5 384.9, 188.5 383.9 Q 188.5 382.8, 187.9 382.2 Q 187.2 381.7, 186.2 381.7 Q 185.3 381.7, 184.3 382.1 L 183.5 381.7 L 184.0 376.7 L 189.3 376.7 L 189.2 377.9 L 185.2 377.9 L 184.9 381.0 Q 185.8 380.6, 186.7 380.6 " fill="#000000"/>
<ellipse cx="298.4" cy="328.5" rx="6.8" ry="6.8" class="atom-1" style="fill:#E5E533;fill-rule:evenodd;stroke:#E5E533;stroke-width:1.0px;stroke-linecap:butt;stroke-linejoin:miter;stroke-opacity:1"/>
<ellipse cx="298.5" cy="294.3" rx="6.8" ry="6.8" class="atom-2" style="fill:#9999E5;fill-rule:evenodd;stroke:#9999E5;stroke-width:1.0px;stroke-linecap:butt;stroke-linejoin:miter;stroke-opacity:1"/>
<ellipse cx="328.2" cy="277.4" rx="6.8" ry="6.8" class="atom-3" style="fill:#E5E533;fill-rule:evenodd;stroke:#E5E533;stroke-width:1.0px;stroke-linecap:butt;stroke-linejoin:miter;stroke-opacity:1"/>
<ellipse cx="269.1" cy="277.2" rx="6.8" ry="6.8" class="atom-5" style="fill:#E5E533;fill-rule:evenodd;stroke:#E5E533;stroke-width:1.0px;stroke-linecap:butt;stroke-linejoin:miter;stroke-opacity:1"/>
<path class="bond-0 atom-0 atom-1" d="M 272.2,343.4 L 298.4,328.5" style="fill:none;fill-rule:evenodd;stroke:#E5E5E5;stroke-width:1.8px;stroke-linecap:butt;stroke-linejoin:miter;stroke-opacity:1"/>
<path class="bond-0 atom-0 atom-1" d="M 269.7,339.0 L 293.3,325.5" style="fill:none;fill-rule:evenodd;stroke:#E5E5E5;stroke-width:1.8px;stroke-linecap:butt;stroke-linejoin:miter;stroke-opacity:1;stroke-dasharray:6,4"/>
<path class="bond-1 atom-1 atom-2" d="M 298.4,328.5 L 298.5,294.3" style="fill:none;fill-rule:evenodd;stroke:#000000;stroke-width:2.0px;stroke-linecap:butt;stroke-linejoin:miter;stroke-opacity:1"/>
<path class="bond-1 atom-1 atom-2" d="M 293.3,325.5 L 293.4,297.3" style="fill:none;fill-rule:evenodd;stroke:#000000;stroke-width:2.0px;stroke-linecap:butt;stroke-linejoin:miter;stroke-opacity:1;stroke-dasharray:6,4"/>
<path class="bond-2 atom-2 atom-3" d="M 298.5,294.3 L 328.2,277.4" style="fill:none;fill-rule:evenodd;stroke:#000000;stroke-width:2.0px;stroke-linecap:butt;stroke-linejoin:miter;stroke-opacity:1"/>
<path class="bond-3 atom-3 atom-4" d="M 330.6,278.5 L 334.3,244.4" style="fill:none;fill-rule:evenodd;stroke:#E5E5E5;stroke-width:1.8px;stroke-linecap:butt;stroke-linejoin:miter;stroke-opacity:1"/>
<path class="bond-3 atom-3 atom-4" d="M 325.4,279.0 L 329.3,243.8" style="fill:none;fill-rule:evenodd;stroke:#E5E5E5;stroke-width:1.8px;stroke-linecap:butt;stroke-linejoin:miter;stroke-opacity:1;stroke-dasharray:6,4"/>
<path class="bond-4 atom-2 atom-5" d="M 298.5,294.3 L 269.1,277.2" style="fill:none;fill-rule:evenodd;stroke:#000000;stroke-width:2.0px;stroke-linecap:butt;stroke-linejoin:miter;stroke-opacity:1"/>
<path class="bond-4 atom-2 atom-5" d="M 293.4,297.3 L 269.0,283.1" style="fill:none;fill-rule:evenodd;stroke:#000000;stroke-width:2.0px;stroke-linecap:butt;stroke-linejoin:miter;stroke-opacity:1;stroke-dasharray:6,4"/>
<path class="bond-5 atom-5 atom-6" d="M 269.1,277.2 L 242.9,292.1" style="fill:none;fill-rule:evenodd;stroke:#E5E5E5;stroke-width:1.8px;stroke-linecap:butt;stroke-linejoin:miter;stroke-opacity:1"/>
<path class="bond-5 atom-5 atom-6" d="M 269.0,283.1 L 245.4,296.6" style="fill:none;fill-rule:evenodd;stroke:#E5E5E5;stroke-width:1.8px;stroke-linecap:butt;stroke-linejoin:miter;stroke-opacity:1;stroke-dasharray:6,4"/>
<path class="bond-6 atom-7 atom-3" d="M 354.8,292.2 L 325.4,279.0" style="fill:none;fill-rule:evenodd;stroke:#E5E5E5;stroke-width:1.8px;stroke-linecap:butt;stroke-linejoin:miter;stroke-opacity:1"/>
<path class="bond-6 atom-7 atom-3" d="M 356.9,287.5 L 328.5,274.7" style="fill:none;fill-rule:evenodd;stroke:#E5E5E5;stroke-width:1.8px;stroke-linecap:butt;stroke-linejoin:miter;stroke-opacity:1;stroke-dasharray:6,4"/>
<path d="M 297.8,328.8 L 298.4,328.5 L 298.4,327.6" style="fill:none;stroke:#E5E5E5;stroke-width:1.8px;stroke-linecap:butt;stroke-linejoin:miter;stroke-miterlimit:10;stroke-opacity:1;"/>
<path d="M 269.8,277.6 L 269.1,277.2 L 268.4,277.5" style="fill:none;stroke:#000000;stroke-width:2.0px;stroke-linecap:butt;stroke-linejoin:miter;stroke-miterlimit:10;stroke-opacity:1;"/>
<path class="atom-0" d="M 265.7 342.1 L 267.1 340.7 L 265.2 340.3 L 265.5 339.3 L 267.3 340.2 L 267.0 338.3 L 268.0 338.3 L 267.7 340.2 L 269.5 339.3 L 269.8 340.3 L 267.9 340.6 L 269.3 342.1 L 268.4 342.7 L 267.5 340.9 L 266.5 342.7 L 265.7 342.1 " fill="#191919"/>
<path class="atom-4" d="M 330.0 242.4 L 331.5 240.9 L 329.6 240.6 L 329.9 239.6 L 331.6 240.5 L 331.4 238.6 L 332.4 238.6 L 332.1 240.4 L 333.9 239.6 L 334.2 240.6 L 332.2 240.9 L 333.6 242.4 L 332.8 243.0 L 331.8 241.2 L 330.9 243.0 L 330.0 242.4 " fill="#191919"/>
<path class="atom-6" d="M 238.9 295.2 L 240.3 293.8 L 238.4 293.4 L 238.7 292.4 L 240.4 293.3 L 240.2 291.4 L 241.2 291.4 L 240.9 293.3 L 242.7 292.5 L 243.0 293.4 L 241.1 293.8 L 242.5 295.2 L 241.6 295.8 L 240.7 294.0 L 239.7 295.8 L 238.9 295.2 " fill="#191919"/>
<path class="atom-7" d="M 357.5 290.3 L 358.9 288.9 L 357.0 288.5 L 357.3 287.5 L 359.0 288.4 L 358.8 286.5 L 359.8 286.5 L 359.5 288.4 L 361.3 287.6 L 361.6 288.5 L 359.7 288.8 L 361.0 290.3 L 360.2 290.9 L 359.3 289.1 L 358.3 290.9 L 357.5 290.3 " fill="#191919"/>
<path class="legend" d="M 210.0 377.0 L 216.1 377.0 L 216.1 378.1 L 211.4 378.1 L 211.4 381.2 L 215.6 381.2 L 215.6 382.4 L 211.4 382.4 L 211.4 387.2 L 210.0 387.2 L 210.0 377.0 " fill="#000000"/>
<path class="legend" d="M 216.9 383.5 Q 216.9 381.6, 217.8 380.6 Q 218.7 379.6, 220.4 379.6 Q 222.0 379.6, 222.8 380.6 Q 223.5 381.6, 223.5 383.4 L 223.5 383.7 L 218.3 383.7 Q 218.3 384.9, 218.9 385.6 Q 219.5 386.2, 220.5 386.2 Q 221.1 386.2, 221.6 386.1 Q 222.2 386.0, 222.8 385.7 L 223.2 386.6 Q 222.5 387.0, 221.8 387.2 Q 221.2 387.3, 220.5 387.3 Q 218.8 387.3, 217.8 386.3 Q 216.9 385.3, 216.9 383.5 M 220.4 380.7 Q 219.6 380.7, 219.0 381.2 Q 218.5 381.7, 218.4 382.6 L 222.1 382.6 Q 222.0 381.6, 221.6 381.2 Q 221.2 380.7, 220.4 380.7 " fill="#000000"/>
<path class="legend" d="M 224.6 385.2 Q 224.6 384.0, 225.5 383.4 Q 226.5 382.7, 228.2 382.7 L 229.3 382.7 L 229.3 382.4 Q 229.3 381.5, 228.9 381.1 Q 228.6 380.7, 227.6 380.7 Q 227.0 380.7, 226.6 380.8 Q 226.1 380.9, 225.4 381.2 L 225.0 380.3 Q 226.4 379.6, 227.7 379.6 Q 229.2 379.6, 230.0 380.3 Q 230.7 381.0, 230.7 382.4 L 230.7 387.2 L 229.6 387.2 Q 229.6 387.1, 229.6 386.9 Q 229.5 386.7, 229.5 386.3 Q 228.4 387.4, 227.0 387.4 Q 225.9 387.4, 225.2 386.8 Q 224.6 386.2, 224.6 385.2 M 225.9 385.2 Q 225.9 385.7, 226.3 386.0 Q 226.6 386.3, 227.3 386.3 Q 227.9 386.3, 228.4 386.0 Q 229.0 385.8, 229.3 385.3 L 229.3 383.7 L 228.3 383.7 Q 227.1 383.7, 226.5 384.1 Q 225.9 384.4, 225.9 385.2 " fill="#000000"/>
<path class="legend" d="M 232.3 380.8 L 232.3 379.8 L 233.7 379.8 L 234.0 377.6 L 235.0 377.6 L 235.0 379.8 L 237.3 379.8 L 237.3 380.8 L 235.0 380.8 L 235.0 384.9 Q 235.0 386.2, 236.1 386.2 Q 236.5 386.2, 237.1 386.0 L 237.4 387.0 Q 236.6 387.3, 235.8 387.3 Q 234.9 387.3, 234.2 386.7 Q 233.6 386.1, 233.6 385.0 L 233.6 380.8 L 232.3 380.8 " fill="#000000"/>
<path class="legend" d="M 244.6 379.8 L 244.6 387.2 L 243.5 387.2 L 243.3 386.2 Q 242.3 387.3, 240.8 387.3 Q 239.5 387.3, 238.9 386.7 Q 238.2 386.0, 238.2 384.7 L 238.2 379.8 L 239.6 379.8 L 239.6 384.6 Q 239.6 385.5, 239.9 385.9 Q 240.3 386.3, 241.0 386.3 Q 241.7 386.3, 242.3 386.0 Q 242.8 385.6, 243.2 385.1 L 243.2 379.8 L 244.6 379.8 " fill="#000000"/>
<path class="legend" d="M 247.4 379.8 L 247.5 380.8 Q 248.3 379.6, 249.6 379.6 Q 250.0 379.6, 250.5 379.8 L 250.3 381.0 Q 249.7 380.8, 249.4 380.8 Q 248.7 380.8, 248.3 381.1 Q 247.9 381.3, 247.6 381.9 L 247.6 387.2 L 246.3 387.2 L 246.3 379.8 L 247.4 379.8 " fill="#000000"/>
<path class="legend" d="M 251.3 383.5 Q 251.3 381.6, 252.2 380.6 Q 253.1 379.6, 254.8 379.6 Q 256.4 379.6, 257.1 380.6 Q 257.9 381.6, 257.9 383.4 L 257.9 383.7 L 252.7 383.7 Q 252.7 384.9, 253.2 385.6 Q 253.8 386.2, 254.9 386.2 Q 255.4 386.2, 256.0 386.1 Q 256.5 386.0, 257.2 385.7 L 257.6 386.6 Q 256.8 387.0, 256.2 387.2 Q 255.5 387.3, 254.8 387.3 Q 253.1 387.3, 252.2 386.3 Q 251.3 385.3, 251.3 383.5 M 254.8 380.7 Q 253.9 380.7, 253.4 381.2 Q 252.9 381.7, 252.7 382.6 L 256.4 382.6 Q 256.3 381.6, 255.9 381.2 Q 255.5 380.7, 254.8 380.7 " fill="#000000"/>
<path class="legend" d="" fill="#000000"/>
<path class="legend" d="M 264.8 386.0 L 267.1 386.0 L 267.1 378.4 L 264.6 379.2 L 264.2 378.3 L 267.4 376.9 L 268.4 377.1 L 268.4 386.0 L 270.4 386.0 L 270.4 387.2 L 264.8 387.2 L 264.8 386.0 " fill="#000000"/>
<path class="legend" d="M 272.1 386.0 L 274.4 386.0 L 274.4 378.4 L 271.9 379.2 L 271.5 378.3 L 274.7 376.9 L 275.7 377.1 L 275.7 386.0 L 277.7 386.0 L 277.7 387.2 L 272.1 387.2 L 272.1 386.0 " fill="#000000"/>
<path class="legend" d="M 282.9 380.8 Q 283.8 380.8, 284.5 381.2 Q 285.2 381.6, 285.6 382.3 Q 286.0 383.0, 286.0 383.9 Q 286.0 384.9, 285.5 385.7 Q 285.1 386.5, 284.3 386.9 Q 283.5 387.3, 282.5 387.3 Q 280.7 387.3, 279.8 386.1 Q 278.8 384.8, 278.8 382.4 Q 278.8 379.7, 280.0 378.3 Q 281.1 376.8, 283.3 376.8 Q 283.9 376.8, 284.5 377.0 Q 285.0 377.1, 285.5 377.4 L 285.0 378.4 Q 284.2 378.0, 283.3 378.0 Q 281.9 378.0, 281.1 378.9 Q 280.4 379.9, 280.3 381.8 Q 280.8 381.3, 281.5 381.1 Q 282.1 380.8, 282.9 380.8 M 282.5 386.1 Q 283.1 386.1, 283.5 385.8 Q 284.0 385.6, 284.2 385.0 Q 284.5 384.5, 284.5 383.9 Q 284.5 383.0, 284.0 382.5 Q 283.5 382.0, 282.6 382.0 Q 282.0 382.0, 281.3 382.2 Q 280.7 382.5, 280.3 382.9 Q 280.4 384.6, 280.9 385.4 Q 281.4 386.1, 282.5 386.1 " fill="#000000"/>
<path class="legend" d="M 291.0 387.3 Q 289.1 387.3, 288.2 385.9 Q 287.3 384.5, 287.3 382.1 Q 287.3 379.6, 288.2 378.2 Q 289.1 376.8, 291.0 376.8 Q 292.9 376.8, 293.8 378.2 Q 294.8 379.6, 294.8 382.1 Q 294.8 384.5, 293.8 385.9 Q 292.9 387.3, 291.0 387.3 M 291.0 386.2 Q 292.1 386.2, 292.7 385.1 Q 293.3 384.1, 293.3 382.1 Q 293.3 380.1, 292.7 379.0 Q 292.1 378.0, 291.0 378.0 Q 289.9 378.0, 289.3 379.0 Q 288.7 380.1, 288.7 382.1 Q 288.7 384.1, 289.3 385.1 Q 289.9 386.2, 291.0 386.2 " fill="#000000"/>
<path class="legend" d="" fill="#000000"/>
<path class="legend" d="M 301.5 376.0 L 302.8 376.0 L 302.8 390.0 L 301.5 390.0 L 301.5 376.0 " fill="#000000"/>
<path class="legend" d="" fill="#000000"/>
<path class="legend" d="M 310.2 385.6 Q 310.3 385.7, 310.8 385.9 Q 311.3 386.1, 311.8 386.2 Q 312.4 386.3, 312.9 386.3 Q 313.8 386.3, 314.4 385.8 Q 315.0 385.4, 315.0 384.5 Q 315.0 384.0, 314.7 383.6 Q 314.4 383.3, 314.0 383.1 Q 313.5 382.9, 312.8 382.7 Q 311.9 382.4, 311.4 382.2 Q 310.8 381.9, 310.4 381.3 Q 310.0 380.8, 310.0 379.9 Q 310.0 378.6, 310.9 377.8 Q 311.8 377.0, 313.5 377.0 Q 314.7 377.0, 316.1 377.5 L 315.7 378.7 Q 314.5 378.2, 313.6 378.2 Q 312.6 378.2, 312.0 378.6 Q 311.5 379.0, 311.5 379.7 Q 311.5 380.2, 311.8 380.6 Q 312.1 380.9, 312.5 381.1 Q 312.9 381.3, 313.6 381.5 Q 314.5 381.8, 315.1 382.1 Q 315.6 382.4, 316.0 383.0 Q 316.4 383.5, 316.4 384.5 Q 316.4 386.0, 315.5 386.7 Q 314.5 387.5, 312.9 387.5 Q 312.0 387.5, 311.3 387.3 Q 310.6 387.1, 309.8 386.8 L 310.2 385.6 " fill="#000000"/>
<path class="legend" d="M 317.6 377.0 L 319.0 377.0 L 319.0 381.3 L 324.2 381.3 L 324.2 377.0 L 325.6 377.0 L 325.6 387.2 L 324.2 387.2 L 324.2 382.5 L 319.0 382.5 L 319.0 387.2 L 317.6 387.2 L 317.6 377.0 " fill="#000000"/>
<path class="legend" d="M 334.9 387.2 L 333.8 384.2 L 329.8 384.2 L 328.7 387.2 L 327.4 387.2 L 330.9 377.0 L 332.6 377.0 L 336.3 387.2 L 334.9 387.2 M 330.2 383.0 L 333.4 383.0 L 331.8 378.4 L 330.2 383.0 " fill="#000000"/>
<path class="legend" d="M 340.0 377.0 Q 341.7 377.0, 342.6 377.7 Q 343.5 378.5, 343.5 380.0 Q 343.5 381.4, 342.6 382.2 Q 341.7 383.0, 340.0 383.0 L 338.3 383.0 L 338.3 387.2 L 336.9 387.2 L 336.9 377.0 L 340.0 377.0 M 340.0 381.8 Q 341.0 381.8, 341.5 381.4 Q 342.0 380.9, 342.0 380.0 Q 342.0 379.1, 341.5 378.6 Q 341.0 378.1, 340.0 378.1 L 338.3 378.1 L 338.3 381.8 L 340.0 381.8 " fill="#000000"/>
<path class="legend" d="M 344.7 385.5 L 346.1 385.5 L 346.1 387.0 L 344.7 387.0 L 344.7 385.5 M 344.7 380.5 L 346.1 380.5 L 346.1 382.0 L 344.7 382.0 L 344.7 380.5 " fill="#000000"/>
<path class="legend" d="" fill="#000000"/>
<path class="legend" d="M 358.0 381.8 Q 359.0 382.1, 359.5 382.7 Q 359.9 383.4, 359.9 384.4 Q 359.9 385.3, 359.5 385.9 Q 359.1 386.6, 358.3 387.0 Q 357.5 387.3, 356.4 387.3 Q 355.3 387.3, 354.5 387.0 Q 353.7 386.6, 353.1 385.8 L 353.9 385.0 Q 354.5 385.7, 355.1 385.9 Q 355.6 386.2, 356.4 386.2 Q 357.4 386.2, 357.9 385.7 Q 358.5 385.2, 358.5 384.4 Q 358.5 383.3, 357.9 382.9 Q 357.3 382.4, 356.1 382.4 L 355.3 382.4 L 355.3 381.4 L 356.0 381.4 Q 357.1 381.3, 357.7 380.9 Q 358.3 380.4, 358.3 379.5 Q 358.3 378.8, 357.8 378.4 Q 357.3 378.0, 356.5 378.0 Q 355.6 378.0, 355.1 378.3 Q 354.5 378.6, 354.1 379.4 L 353.1 378.8 Q 353.5 378.0, 354.4 377.4 Q 355.2 376.8, 356.5 376.8 Q 358.0 376.8, 358.8 377.5 Q 359.7 378.3, 359.7 379.5 Q 359.7 380.3, 359.3 380.9 Q 358.8 381.5, 358.0 381.8 " fill="#000000"/>
<path class="legend" d="M 365.1 387.3 Q 363.2 387.3, 362.2 385.9 Q 361.3 384.5, 361.3 382.1 Q 361.3 379.6, 362.2 378.2 Q 363.2 376.8, 365.1 376.8 Q 367.0 376.8, 367.9 378.2 Q 368.8 379.6, 368.8 382.1 Q 368.8 384.5, 367.9 385.9 Q 366.9 387.3, 365.1 387.3 M 365.1 386.2 Q 366.2 386.2, 366.8 385.1 Q 367.4 384.1, 367.4 382.1 Q 367.4 380.1, 366.8 379.0 Q 366.2 378.0, 365.1 378.0 Q 364.0 378.0, 363.4 379.0 Q 362.8 380.1, 362.8 382.1 Q 362.8 384.1, 363.4 385.1 Q 364.0 386.2, 365.1 386.2 " fill="#000000"/>
<path class="legend" d="M 370.3 385.8 L 371.7 385.8 L 371.7 387.2 L 370.3 387.2 L 370.3 385.8 " fill="#000000"/>
<path class="legend" d="M 376.9 387.3 Q 375.0 387.3, 374.1 385.9 Q 373.2 384.5, 373.2 382.1 Q 373.2 379.6, 374.1 378.2 Q 375.0 376.8, 376.9 376.8 Q 378.8 376.8, 379.7 378.2 Q 380.7 379.6, 380.7 382.1 Q 380.7 384.5, 379.7 385.9 Q 378.8 387.3, 376.9 387.3 M 376.9 386.2 Q 378.0 386.2, 378.6 385.1 Q 379.2 384.1, 379.2 382.1 Q 379.2 380.1, 378.6 379.0 Q 378.0 378.0, 376.9 378.0 Q 375.8 378.0, 375.2 379.0 Q 374.6 380.1, 374.6 382.1 Q 374.6 384.1, 375.2 385.1 Q 375.8 386.2, 376.9 386.2 " fill="#000000"/>
<path class="legend" d="M 388.8 383.7 L 390.0 383.7 L 390.0 384.8 L 388.8 384.8 L 388.8 387.2 L 387.4 387.2 L 387.4 384.8 L 382.1 384.8 L 382.1 383.9 L 386.6 377.0 L 388.8 377.0 L 388.8 383.7 M 383.8 383.7 L 387.4 383.7 L 387.4 377.9 L 383.8 383.7 " fill="#000000"/>
<ellipse cx="487.8" cy="306.6" rx="6.8" ry="6.8" class="atom-1" style="fill:#E5E533;fill-rule:evenodd;stroke:#E5E533;stroke-width:1.0px;stroke-linecap:butt;stroke-linejoin:miter;stroke-opacity:1"/>
<ellipse cx="491.5" cy="272.7" rx="6.8" ry="6.8" class="atom-2" style="fill:#9999E5;fill-rule:evenodd;stroke:#9999E5;stroke-width:1.0px;stroke-linecap:butt;stroke-linejoin:miter;stroke-opacity:1"/>
<ellipse cx="524.9" cy="265.7" rx="6.8" ry="6.8" class="atom-3" style="fill:#E5E533;fill-rule:evenodd;stroke:#E5E533;stroke-width:1.0px;stroke-linecap:butt;stroke-linejoin:miter;stroke-opacity:1"/>
<path class="bond-0 atom-0 atom-1" d="M 461.6,321.6 L 487.8,306.6" style="fill:none;fill-rule:evenodd;stroke:#E5E5E5;stroke-width:1.8px;stroke-linecap:butt;stroke-linejoin:miter;stroke-opacity:1"/>
<path class="bond-1 atom-1 atom-2" d="M 487.8,306.6 L 490.8,278.7" style="fill:none;fill-rule:evenodd;stroke:#000000;stroke-width:2.0px;stroke-linecap:butt;stroke-linejoin:miter;stroke-opacity:1"/>
<path class="bond-1 atom-1 atom-2" d="M 492.9,307.2 L 495.9,279.2" style="fill:none;fill-rule:evenodd;stroke:#000000;stroke-width:2.0px;stroke-linecap:butt;stroke-linejoin:miter;stroke-opacity:1;stroke-dasharray:6,4"/>
<path class="bond-2 atom-2 atom-3" d="M 495.8,269.2 L 518.8,264.4" style="fill:none;fill-rule:evenodd;stroke:#000000;stroke-width:2.0px;stroke-linecap:butt;stroke-linejoin:miter;stroke-opacity:1"/>
<path class="bond-2 atom-2 atom-3" d="M 496.8,274.2 L 519.9,269.4" style="fill:none;fill-rule:evenodd;stroke:#000000;stroke-width:2.0px;stroke-linecap:butt;stroke-linejoin:miter;stroke-opacity:1;stroke-dasharray:6,4"/>
<path class="bond-3 atom-3 atom-4" d="M 526.2,273.2 L 536.2,290.7" style="fill:none;fill-rule:evenodd;stroke:#E5E5E5;stroke-width:1.8px;stroke-linecap:butt;stroke-linejoin:miter;stroke-opacity:1"/>
<path class="bond-3 atom-3 atom-4" d="M 530.6,270.6 L 540.6,288.1" style="fill:none;fill-rule:evenodd;stroke:#E5E5E5;stroke-width:1.8px;stroke-linecap:butt;stroke-linejoin:miter;stroke-opacity:1;stroke-dasharray:6,4"/>
<path class="bond-4 atom-5 atom-1" d="M 514.4,321.4 L 485.0,308.2" style="fill:none;fill-rule:evenodd;stroke:#E5E5E5;stroke-width:1.8px;stroke-linecap:butt;stroke-linejoin:miter;stroke-opacity:1"/>
<path class="bond-4 atom-5 atom-1" d="M 516.5,316.8 L 488.1,304.0" style="fill:none;fill-rule:evenodd;stroke:#E5E5E5;stroke-width:1.8px;stroke-linecap:butt;stroke-linejoin:miter;stroke-opacity:1;stroke-dasharray:6,4"/>
<path class="atom-0" d="M 456.3 322.5 L 457.8 321.0 L 455.9 320.7 L 456.2 319.7 L 457.9 320.6 L 457.7 318.7 L 458.7 318.7 L 458.4 320.6 L 460.2 319.7 L 460.5 320.7 L 458.5 321.0 L 459.9 322.5 L 459.1 323.1 L 458.1 321.3 L 457.2 323.1 L 456.3 322.5 " fill="#191919"/>
<path class="atom-2" d="M 489.3 267.9 L 492.5 273.0 Q 492.8 273.5, 493.3 274.4 Q 493.8 275.3, 493.9 275.4 L 493.9 267.9 L 495.2 267.9 L 495.2 277.5 L 493.8 277.5 L 490.4 271.9 Q 490.0 271.3, 489.6 270.5 Q 489.2 269.8, 489.1 269.6 L 489.1 277.5 L 487.8 277.5 L 487.8 267.9 L 489.3 267.9 " fill="#000000"/>
<path class="atom-3" d="M 520.5 265.8 Q 520.5 263.5, 521.6 262.2 Q 522.7 260.9, 524.9 260.9 Q 527.0 260.9, 528.2 262.2 Q 529.3 263.5, 529.3 265.8 Q 529.3 268.1, 528.2 269.5 Q 527.0 270.8, 524.9 270.8 Q 522.8 270.8, 521.6 269.5 Q 520.5 268.1, 520.5 265.8 M 524.9 269.7 Q 526.4 269.7, 527.2 268.7 Q 528.0 267.7, 528.0 265.8 Q 528.0 263.9, 527.2 262.9 Q 526.4 261.9, 524.9 261.9 Q 523.4 261.9, 522.6 262.9 Q 521.8 263.9, 521.8 265.8 Q 521.8 267.7, 522.6 268.7 Q 523.4 269.7, 524.9 269.7 " fill="#000000"/>
<path class="atom-4" d="M 540.0 294.3 L 541.4 292.8 L 539.5 292.5 L 539.8 291.5 L 541.6 292.4 L 541.3 290.5 L 542.3 290.4 L 542.1 292.3 L 543.8 291.5 L 544.1 292.5 L 542.2 292.8 L 543.6 294.3 L 542.7 294.9 L 541.8 293.1 L 540.8 294.9 L 540.0 294.3 " fill="#191919"/>
<path class="atom-5" d="M 517.1 319.6 L 518.5 318.1 L 516.6 317.7 L 516.9 316.8 L 518.6 317.6 L 518.4 315.7 L 519.4 315.7 L 519.1 317.6 L 520.9 316.8 L 521.2 317.7 L 519.3 318.1 L 520.6 319.5 L 519.8 320.1 L 518.9 318.3 L 517.9 320.1 L 517.1 319.6 " fill="#191919"/>
<path class="legend" d="M 410.0 376.7 L 416.2 376.7 L 416.2 377.9 L 411.4 377.9 L 411.4 381.1 L 415.7 381.1 L 415.7 382.3 L 411.4 382.3 L 411.4 387.2 L 410.0 387.2 L 410.0 376.7 " fill="#000000"/>
<path class="legend" d="M 417.0 383.4 Q 417.0 381.5, 418.0 380.5 Q 418.9 379.5, 420.6 379.5 Q 422.2 379.5, 423.0 380.5 Q 423.7 381.5, 423.7 383.3 L 423.7 383.6 L 418.4 383.6 Q 418.5 384.8, 419.0 385.5 Q 419.6 386.2, 420.7 386.2 Q 421.3 386.2, 421.8 386.1 Q 422.4 385.9, 423.0 385.6 L 423.4 386.6 Q 422.7 386.9, 422.0 387.1 Q 421.3 387.3, 420.6 387.3 Q 418.9 387.3, 418.0 386.2 Q 417.0 385.2, 417.0 383.4 M 420.6 380.6 Q 419.7 380.6, 419.2 381.1 Q 418.7 381.6, 418.5 382.5 L 422.3 382.5 Q 422.2 381.5, 421.7 381.0 Q 421.3 380.6, 420.6 380.6 " fill="#000000"/>
<path class="legend" d="M 424.8 385.1 Q 424.8 383.9, 425.8 383.2 Q 426.7 382.6, 428.5 382.6 L 429.6 382.6 L 429.6 382.3 Q 429.6 381.4, 429.2 381.0 Q 428.8 380.6, 427.9 380.6 Q 427.3 380.6, 426.8 380.7 Q 426.4 380.8, 425.6 381.1 L 425.2 380.1 Q 426.6 379.5, 427.9 379.5 Q 429.5 379.5, 430.3 380.2 Q 431.0 380.8, 431.0 382.3 L 431.0 387.2 L 429.9 387.2 Q 429.9 387.1, 429.9 386.9 Q 429.8 386.6, 429.7 386.3 Q 428.7 387.3, 427.3 387.3 Q 426.1 387.3, 425.5 386.7 Q 424.8 386.1, 424.8 385.1 M 426.2 385.1 Q 426.2 385.6, 426.5 386.0 Q 426.9 386.2, 427.5 386.2 Q 428.1 386.2, 428.7 386.0 Q 429.2 385.7, 429.6 385.2 L 429.6 383.6 L 428.6 383.6 Q 427.4 383.6, 426.8 384.0 Q 426.2 384.4, 426.2 385.1 " fill="#000000"/>
<path class="legend" d="M 432.6 380.7 L 432.6 379.6 L 434.1 379.6 L 434.3 377.4 L 435.4 377.4 L 435.4 379.6 L 437.7 379.6 L 437.7 380.7 L 435.4 380.7 L 435.4 384.8 Q 435.4 386.1, 436.5 386.1 Q 436.9 386.1, 437.5 385.9 L 437.8 386.9 Q 437.0 387.2, 436.2 387.2 Q 435.2 387.2, 434.6 386.7 Q 434.0 386.1, 434.0 384.9 L 434.0 380.7 L 432.6 380.7 " fill="#000000"/>
<path class="legend" d="M 445.1 379.6 L 445.1 387.2 L 443.9 387.2 L 443.8 386.1 Q 442.8 387.3, 441.2 387.3 Q 439.9 387.3, 439.3 386.6 Q 438.7 385.9, 438.7 384.6 L 438.7 379.6 L 440.0 379.6 L 440.0 384.5 Q 440.0 385.4, 440.4 385.8 Q 440.7 386.2, 441.5 386.2 Q 442.2 386.2, 442.8 385.9 Q 443.3 385.6, 443.7 385.0 L 443.7 379.6 L 445.1 379.6 " fill="#000000"/>
<path class="legend" d="M 447.9 379.6 L 448.1 380.6 Q 448.9 379.5, 450.2 379.5 Q 450.6 379.5, 451.1 379.6 L 450.9 380.9 Q 450.3 380.7, 449.9 380.7 Q 449.3 380.7, 448.9 381.0 Q 448.5 381.2, 448.2 381.8 L 448.2 387.2 L 446.8 387.2 L 446.8 379.6 L 447.9 379.6 " fill="#000000"/>
<path class="legend" d="M 451.9 383.4 Q 451.9 381.5, 452.8 380.5 Q 453.7 379.5, 455.4 379.5 Q 457.1 379.5, 457.8 380.5 Q 458.6 381.5, 458.6 383.3 L 458.6 383.6 L 453.3 383.6 Q 453.3 384.8, 453.9 385.5 Q 454.5 386.2, 455.5 386.2 Q 456.1 386.2, 456.7 386.1 Q 457.2 385.9, 457.9 385.6 L 458.3 386.6 Q 457.5 386.9, 456.8 387.1 Q 456.2 387.3, 455.5 387.3 Q 453.7 387.3, 452.8 386.2 Q 451.9 385.2, 451.9 383.4 M 455.4 380.6 Q 454.5 380.6, 454.0 381.1 Q 453.5 381.6, 453.3 382.5 L 457.1 382.5 Q 457.0 381.5, 456.6 381.0 Q 456.2 380.6, 455.4 380.6 " fill="#000000"/>
<path class="legend" d="" fill="#000000"/>
<path class="legend" d="M 465.6 386.0 L 467.9 386.0 L 467.9 378.2 L 465.4 379.0 L 465.0 378.1 L 468.2 376.7 L 469.3 376.9 L 469.3 386.0 L 471.3 386.0 L 471.3 387.2 L 465.6 387.2 L 465.6 386.0 " fill="#000000"/>
<path class="legend" d="M 476.2 380.6 Q 477.1 380.6, 477.9 381.0 Q 478.6 381.4, 479.1 382.2 Q 479.5 382.9, 479.5 383.9 Q 479.5 384.9, 479.0 385.7 Q 478.4 386.5, 477.6 386.9 Q 476.7 387.3, 475.8 387.3 Q 474.8 387.3, 473.9 386.9 Q 473.0 386.6, 472.4 385.9 L 473.3 385.0 Q 473.8 385.5, 474.5 385.8 Q 475.1 386.1, 475.8 386.1 Q 476.7 386.1, 477.4 385.5 Q 478.0 384.9, 478.0 383.9 Q 478.0 382.8, 477.4 382.3 Q 476.7 381.7, 475.7 381.7 Q 474.8 381.7, 473.8 382.1 L 473.0 381.8 L 473.5 376.7 L 478.8 376.7 L 478.7 377.9 L 474.7 377.9 L 474.4 381.0 Q 475.3 380.6, 476.2 380.6 " fill="#000000"/>
<path class="legend" d="M 487.5 383.6 L 488.7 383.6 L 488.7 384.8 L 487.5 384.8 L 487.5 387.2 L 486.1 387.2 L 486.1 384.8 L 480.7 384.8 L 480.7 383.8 L 485.3 376.7 L 487.5 376.7 L 487.5 383.6 M 482.4 383.6 L 486.1 383.6 L 486.1 377.7 L 482.4 383.6 " fill="#000000"/>
<path class="legend" d="M 490.0 378.7 Q 490.4 377.7, 491.3 377.2 Q 492.2 376.6, 493.4 376.6 Q 495.0 376.6, 495.9 377.5 Q 496.8 378.3, 496.8 379.9 Q 496.8 381.4, 495.6 382.8 Q 494.5 384.3, 492.2 386.0 L 497.0 386.0 L 497.0 387.2 L 489.9 387.2 L 489.9 386.2 Q 491.9 384.8, 493.0 383.8 Q 494.2 382.7, 494.8 381.8 Q 495.3 380.9, 495.3 379.9 Q 495.3 378.9, 494.8 378.4 Q 494.3 377.8, 493.4 377.8 Q 492.6 377.8, 492.0 378.1 Q 491.5 378.5, 491.1 379.2 L 490.0 378.7 " fill="#000000"/>
<path class="legend" d="" fill="#000000"/>
<path class="legend" d="M 503.8 375.8 L 505.0 375.8 L 505.0 390.0 L 503.8 390.0 L 503.8 375.8 " fill="#000000"/>
<path class="legend" d="" fill="#000000"/>
<path class="legend" d="M 512.6 385.5 Q 512.7 385.6, 513.2 385.8 Q 513.7 386.0, 514.2 386.1 Q 514.7 386.2, 515.3 386.2 Q 516.2 386.2, 516.8 385.8 Q 517.4 385.3, 517.4 384.5 Q 517.4 383.9, 517.1 383.5 Q 516.8 383.2, 516.4 383.0 Q 515.9 382.8, 515.2 382.6 Q 514.3 382.3, 513.7 382.0 Q 513.2 381.8, 512.8 381.2 Q 512.4 380.6, 512.4 379.7 Q 512.4 378.4, 513.3 377.6 Q 514.2 376.8, 515.9 376.8 Q 517.1 376.8, 518.5 377.4 L 518.2 378.5 Q 516.9 378.0, 516.0 378.0 Q 515.0 378.0, 514.4 378.4 Q 513.8 378.8, 513.9 379.5 Q 513.9 380.1, 514.1 380.4 Q 514.4 380.8, 514.8 381.0 Q 515.3 381.1, 516.0 381.4 Q 516.9 381.7, 517.5 382.0 Q 518.0 382.2, 518.4 382.9 Q 518.8 383.4, 518.8 384.5 Q 518.8 385.9, 517.9 386.7 Q 516.9 387.4, 515.3 387.4 Q 514.4 387.4, 513.7 387.2 Q 513.0 387.0, 512.2 386.7 L 512.6 385.5 " fill="#000000"/>
<path class="legend" d="M 520.0 376.7 L 521.5 376.7 L 521.5 381.2 L 526.8 381.2 L 526.8 376.7 L 528.2 376.7 L 528.2 387.2 L 526.8 387.2 L 526.8 382.4 L 521.5 382.4 L 521.5 387.2 L 520.0 387.2 L 520.0 376.7 " fill="#000000"/>
<path class="legend" d="M 537.6 387.2 L 536.5 384.1 L 532.4 384.1 L 531.4 387.2 L 530.0 387.2 L 533.5 376.7 L 535.3 376.7 L 539.0 387.2 L 537.6 387.2 M 532.8 382.9 L 536.1 382.9 L 534.4 378.2 L 532.8 382.9 " fill="#000000"/>
<path class="legend" d="M 542.8 376.7 Q 544.5 376.7, 545.4 377.6 Q 546.3 378.4, 546.3 379.8 Q 546.3 381.2, 545.4 382.1 Q 544.5 382.9, 542.8 382.9 L 541.1 382.9 L 541.1 387.2 L 539.7 387.2 L 539.7 376.7 L 542.8 376.7 M 542.8 381.7 Q 543.8 381.7, 544.3 381.2 Q 544.9 380.7, 544.9 379.8 Q 544.9 378.9, 544.3 378.4 Q 543.8 377.9, 542.8 377.9 L 541.1 377.9 L 541.1 381.7 L 542.8 381.7 " fill="#000000"/>
<path class="legend" d="M 547.5 385.4 L 549.0 385.4 L 549.0 386.9 L 547.5 386.9 L 547.5 385.4 M 547.5 380.4 L 549.0 380.4 L 549.0 381.9 L 547.5 381.9 L 547.5 380.4 " fill="#000000"/>
<path class="legend" d="" fill="#000000"/>
<path class="legend" d="M 556.6 386.0 L 558.9 386.0 L 558.9 378.2 L 556.4 379.0 L 556.0 378.1 L 559.2 376.7 L 560.3 376.9 L 560.3 386.0 L 562.3 386.0 L 562.3 387.2 L 556.6 387.2 L 556.6 386.0 " fill="#000000"/>
<path class="legend" d="M 568.7 381.6 Q 569.7 382.1, 570.2 382.7 Q 570.8 383.3, 570.8 384.3 Q 570.8 385.2, 570.3 385.9 Q 569.9 386.6, 569.0 386.9 Q 568.2 387.3, 567.2 387.3 Q 565.4 387.3, 564.4 386.5 Q 563.4 385.7, 563.4 384.3 Q 563.4 383.5, 563.9 382.8 Q 564.3 382.2, 565.2 381.7 Q 564.5 381.3, 564.2 380.7 Q 563.8 380.2, 563.8 379.3 Q 563.8 378.1, 564.7 377.4 Q 565.6 376.6, 567.1 376.6 Q 568.6 376.6, 569.5 377.4 Q 570.4 378.1, 570.4 379.3 Q 570.4 380.1, 570.0 380.6 Q 569.6 381.2, 568.7 381.6 M 567.1 377.7 Q 566.2 377.7, 565.8 378.1 Q 565.3 378.6, 565.3 379.3 Q 565.3 379.8, 565.6 380.2 Q 565.9 380.6, 566.4 380.8 Q 566.9 381.0, 567.8 381.3 Q 568.4 380.8, 568.6 380.4 Q 568.9 379.9, 568.9 379.3 Q 568.9 378.6, 568.4 378.1 Q 568.0 377.7, 567.1 377.7 M 567.2 386.2 Q 568.1 386.2, 568.7 385.7 Q 569.3 385.2, 569.3 384.3 Q 569.3 383.7, 569.0 383.4 Q 568.7 383.0, 568.2 382.8 Q 567.8 382.6, 566.9 382.4 L 566.3 382.1 Q 565.5 382.6, 565.2 383.1 Q 564.9 383.6, 564.9 384.3 Q 564.9 385.2, 565.5 385.7 Q 566.1 386.2, 567.2 386.2 " fill="#000000"/>
<path class="legend" d="M 572.2 385.7 L 573.7 385.7 L 573.7 387.2 L 572.2 387.2 L 572.2 385.7 " fill="#000000"/>
<path class="legend" d="M 580.6 377.9 L 575.2 377.9 L 575.2 376.7 L 582.1 376.7 L 582.1 377.8 L 577.9 387.2 L 576.4 387.2 L 580.6 377.9 " fill="#000000"/>
<path class="legend" d="M 588.0 381.7 Q 589.0 382.0, 589.5 382.6 Q 590.0 383.3, 590.0 384.3 Q 590.0 385.2, 589.6 385.9 Q 589.1 386.6, 588.3 386.9 Q 587.5 387.3, 586.4 387.3 Q 585.3 387.3, 584.5 386.9 Q 583.7 386.5, 583.0 385.7 L 583.8 384.9 Q 584.5 385.6, 585.0 385.9 Q 585.6 386.1, 586.4 386.1 Q 587.4 386.1, 588.0 385.6 Q 588.5 385.1, 588.5 384.3 Q 588.5 383.2, 587.9 382.8 Q 587.3 382.3, 586.1 382.3 L 585.3 382.3 L 585.3 381.2 L 586.0 381.2 Q 587.1 381.2, 587.7 380.7 Q 588.3 380.2, 588.3 379.3 Q 588.3 378.6, 587.8 378.2 Q 587.3 377.8, 586.5 377.8 Q 585.6 377.8, 585.0 378.1 Q 584.5 378.4, 584.1 379.2 L 583.1 378.7 Q 583.5 377.8, 584.3 377.2 Q 585.2 376.6, 586.5 376.6 Q 588.0 376.6, 588.9 377.4 Q 589.8 378.1, 589.8 379.3 Q 589.8 380.1, 589.3 380.7 Q 588.9 381.3, 588.0 381.7 " fill="#000000"/>
</svg>