<svg xmlns="http://www.w3.org/2000/svg" xmlns:rdkit="http://www.rdkit.org/xml" xmlns:xlink="http://www.w3.org/1999/xlink" version="1.1" baseProfile="full" xml:space="preserve" width="600px" height="400px" viewBox="0 0 600 400">
<!-- END OF HEADER -->
<rect width="100%" height="100%" fill="#E5ECF6"/>
<rect style="opacity:1.0;fill:#E5ECF6;stroke:none" width="200.0" height="200.0" x="0.0" y="0.0"> </rect>
<ellipse cx="131.0" cy="117.3" rx="6.9" ry="6.9" class="atom-1" style="fill:#CCCCCC;fill-rule:evenodd;stroke:#CCCCCC;stroke-width:1.0px;stroke-linecap:butt;stroke-linejoin:miter;stroke-opacity:1"/>
<ellipse cx="98.7" cy="105.8" rx="6.9" ry="6.9" class="atom-2" style="fill:#9999E5;fill-rule:evenodd;stroke:#9999E5;stroke-width:1.0px;stroke-linecap:butt;stroke-linejoin:miter;stroke-opacity:1"/>
<ellipse cx="99.7" cy="71.5" rx="6.9" ry="6.9" class="atom-5" style="fill:#CCCCCC;fill-rule:evenodd;stroke:#CCCCCC;stroke-width:1.0px;stroke-linecap:butt;stroke-linejoin:miter;stroke-opacity:1"/>
<path class="bond-0 atom-0 atom-1" d="M 148.1,94.5 L 148.7,94.9" style="fill:none;fill-rule:evenodd;stroke:#E5E5E5;stroke-width:1.0px;stroke-linecap:butt;stroke-linejoin:miter;stroke-opacity:1"/>
<path class="bond-0 atom-0 atom-1" d="M 145.7,97.1 L 146.7,97.9" style="fill:none;fill-rule:evenodd;stroke:#E5E5E5;stroke-width:1.0px;stroke-linecap:butt;stroke-linejoin:miter;stroke-opacity:1"/>
<path class="bond-0 atom-0 atom-1" d="M 143.3,99.8 L 144.8,100.9" style="fill:none;fill-rule:evenodd;stroke:#E5E5E5;stroke-width:1.0px;stroke-linecap:butt;stroke-linejoin:miter;stroke-opacity:1"/>
<path class="bond-0 atom-0 atom-1" d="M 140.9,102.4 L 142.9,104.0" style="fill:none;fill-rule:evenodd;stroke:#E5E5E5;stroke-width:1.0px;stroke-linecap:butt;stroke-linejoin:miter;stroke-opacity:1"/>
<path class="bond-0 atom-0 atom-1" d="M 138.4,105.0 L 141.0,107.0" style="fill:none;fill-rule:evenodd;stroke:#E5E5E5;stroke-width:1.0px;stroke-linecap:butt;stroke-linejoin:miter;stroke-opacity:1"/>
<path class="bond-0 atom-0 atom-1" d="M 136.0,107.6 L 139.1,110.0" style="fill:none;fill-rule:evenodd;stroke:#E5E5E5;stroke-width:1.0px;stroke-linecap:butt;stroke-linejoin:miter;stroke-opacity:1"/>
<path class="bond-0 atom-0 atom-1" d="M 133.6,110.3 L 137.1,113.0" style="fill:none;fill-rule:evenodd;stroke:#E5E5E5;stroke-width:1.0px;stroke-linecap:butt;stroke-linejoin:miter;stroke-opacity:1"/>
<path class="bond-0 atom-0 atom-1" d="M 131.1,112.9 L 135.2,116.0" style="fill:none;fill-rule:evenodd;stroke:#E5E5E5;stroke-width:1.0px;stroke-linecap:butt;stroke-linejoin:miter;stroke-opacity:1"/>
<path class="bond-1 atom-1 atom-2" d="M 131.0,117.3 L 103.5,107.5" style="fill:none;fill-rule:evenodd;stroke:#000000;stroke-width:2.0px;stroke-linecap:butt;stroke-linejoin:miter;stroke-opacity:1"/>
<path class="bond-2 atom-2 atom-3" d="M 93.9,109.1 L 70.4,125.1" style="fill:none;fill-rule:evenodd;stroke:#000000;stroke-width:2.0px;stroke-linecap:butt;stroke-linejoin:miter;stroke-opacity:1"/>
<path class="bond-3 atom-3 atom-4" d="M 70.4,125.1 L 40.8,110.9" style="fill:none;fill-rule:evenodd;stroke:#E5E5E5;stroke-width:1.8px;stroke-linecap:butt;stroke-linejoin:miter;stroke-opacity:1"/>
<path class="bond-4 atom-2 atom-5" d="M 98.9,99.8 L 99.7,71.5" style="fill:none;fill-rule:evenodd;stroke:#000000;stroke-width:2.0px;stroke-linecap:butt;stroke-linejoin:miter;stroke-opacity:1"/>
<path class="bond-5 atom-5 atom-6" d="M 99.7,71.5 L 130.4,62.5" style="fill:none;fill-rule:evenodd;stroke:#E5E5E5;stroke-width:1.8px;stroke-linecap:butt;stroke-linejoin:miter;stroke-opacity:1"/>
<path d="M 71.0,124.7 L 70.4,125.1 L 69.6,124.8" style="fill:none;stroke:#000000;stroke-width:2.0px;stroke-linecap:butt;stroke-linejoin:miter;stroke-miterlimit:10;stroke-opacity:1;"/>
<path d="M 99.6,72.2 L 99.7,71.5 L 100.4,71.3" style="fill:none;stroke:#000000;stroke-width:2.0px;stroke-linecap:butt;stroke-linejoin:miter;stroke-miterlimit:10;stroke-opacity:1;"/>
<path class="atom-0" d="M 150.1 89.0 L 151.5 87.6 L 149.6 87.2 L 149.9 86.2 L 151.7 87.1 L 151.4 85.2 L 152.5 85.2 L 152.2 87.1 L 153.9 86.3 L 154.2 87.2 L 152.3 87.6 L 153.7 89.0 L 152.8 89.6 L 151.9 87.8 L 150.9 89.6 L 150.1 89.0 " fill="#191919"/>
<path class="atom-0" d="M 155.3 85.4 L 156.6 85.4 L 156.6 89.5 L 161.5 89.5 L 161.5 85.4 L 162.9 85.4 L 162.9 95.1 L 161.5 95.1 L 161.5 90.6 L 156.6 90.6 L 156.6 95.1 L 155.3 95.1 L 155.3 85.4 " fill="#191919"/>
<path class="atom-2" d="M 96.5 100.9 L 99.7 106.1 Q 100.0 106.6, 100.5 107.5 Q 101.0 108.4, 101.1 108.5 L 101.1 100.9 L 102.4 100.9 L 102.4 110.6 L 101.0 110.6 L 97.6 105.0 Q 97.2 104.3, 96.8 103.6 Q 96.4 102.8, 96.3 102.6 L 96.3 110.6 L 95.0 110.6 L 95.0 100.9 L 96.5 100.9 " fill="#000000"/>
<path class="atom-4" d="M 37.6 109.2 L 39.0 107.7 L 37.1 107.4 L 37.4 106.4 L 39.2 107.3 L 38.9 105.4 L 40.0 105.3 L 39.7 107.2 L 41.4 106.4 L 41.7 107.4 L 39.8 107.7 L 41.2 109.2 L 40.4 109.8 L 39.4 108.0 L 38.4 109.8 L 37.6 109.2 " fill="#191919"/>
<path class="atom-6" d="M 130.7 60.7 L 132.2 59.3 L 130.3 58.9 L 130.6 57.9 L 132.3 58.8 L 132.1 56.9 L 133.1 56.9 L 132.8 58.8 L 134.6 58.0 L 134.9 58.9 L 133.0 59.2 L 134.3 60.7 L 133.5 61.3 L 132.5 59.5 L 131.6 61.3 L 130.7 60.7 " fill="#191919"/>
<path class="legend" d="M 10.0 179.7 L 14.8 179.7 L 14.8 180.6 L 11.1 180.6 L 11.1 183.1 L 14.4 183.1 L 14.4 184.0 L 11.1 184.0 L 11.1 187.8 L 10.0 187.8 L 10.0 179.7 " fill="#000000"/>
<path class="legend" d="M 15.5 184.8 Q 15.5 183.4, 16.2 182.6 Q 16.9 181.8, 18.2 181.8 Q 19.5 181.8, 20.1 182.6 Q 20.7 183.3, 20.7 184.8 L 20.7 185.0 L 16.6 185.0 Q 16.6 186.0, 17.0 186.5 Q 17.5 187.0, 18.3 187.0 Q 18.8 187.0, 19.2 186.9 Q 19.6 186.8, 20.1 186.6 L 20.4 187.3 Q 19.9 187.6, 19.3 187.8 Q 18.8 187.9, 18.3 187.9 Q 16.9 187.9, 16.2 187.1 Q 15.5 186.3, 15.5 184.8 M 18.2 182.6 Q 17.5 182.6, 17.1 183.0 Q 16.7 183.4, 16.6 184.2 L 19.5 184.2 Q 19.5 183.4, 19.1 183.0 Q 18.8 182.6, 18.2 182.6 " fill="#000000"/>
<path class="legend" d="M 21.5 186.2 Q 21.5 185.3, 22.2 184.7 Q 23.0 184.2, 24.4 184.2 L 25.3 184.2 L 25.3 184.0 Q 25.3 183.3, 24.9 183.0 Q 24.6 182.6, 23.9 182.6 Q 23.4 182.6, 23.1 182.7 Q 22.7 182.8, 22.1 183.1 L 21.8 182.3 Q 22.9 181.8, 23.9 181.8 Q 25.2 181.8, 25.8 182.3 Q 26.3 182.9, 26.3 184.0 L 26.3 187.8 L 25.5 187.8 Q 25.5 187.7, 25.4 187.6 Q 25.4 187.4, 25.3 187.1 Q 24.5 187.9, 23.4 187.9 Q 22.5 187.9, 22.0 187.5 Q 21.5 187.0, 21.5 186.2 M 22.6 186.2 Q 22.6 186.6, 22.8 186.9 Q 23.1 187.1, 23.6 187.1 Q 24.1 187.1, 24.5 186.9 Q 25.0 186.7, 25.3 186.3 L 25.3 185.0 L 24.5 185.0 Q 23.5 185.0, 23.0 185.3 Q 22.6 185.6, 22.6 186.2 " fill="#000000"/>
<path class="legend" d="M 27.6 182.7 L 27.6 181.9 L 28.7 181.9 L 28.9 180.2 L 29.7 180.2 L 29.7 181.9 L 31.5 181.9 L 31.5 182.7 L 29.7 182.7 L 29.7 186.0 Q 29.7 187.0, 30.6 187.0 Q 30.9 187.0, 31.4 186.8 L 31.6 187.6 Q 31.0 187.9, 30.4 187.9 Q 29.6 187.9, 29.1 187.4 Q 28.6 186.9, 28.6 186.0 L 28.6 182.7 L 27.6 182.7 " fill="#000000"/>
<path class="legend" d="M 37.3 181.9 L 37.3 187.8 L 36.4 187.8 L 36.3 187.0 Q 35.5 187.9, 34.3 187.9 Q 33.3 187.9, 32.8 187.4 Q 32.3 186.8, 32.3 185.8 L 32.3 181.9 L 33.3 181.9 L 33.3 185.7 Q 33.3 186.4, 33.6 186.7 Q 33.9 187.0, 34.5 187.0 Q 35.0 187.0, 35.5 186.8 Q 35.9 186.6, 36.2 186.1 L 36.2 181.9 L 37.3 181.9 " fill="#000000"/>
<path class="legend" d="M 39.5 181.9 L 39.6 182.7 Q 40.2 181.8, 41.2 181.8 Q 41.5 181.8, 42.0 181.9 L 41.8 182.9 Q 41.3 182.8, 41.0 182.8 Q 40.5 182.8, 40.2 183.0 Q 39.9 183.1, 39.7 183.6 L 39.7 187.8 L 38.6 187.8 L 38.6 181.9 L 39.5 181.9 " fill="#000000"/>
<path class="legend" d="M 42.5 184.8 Q 42.5 183.4, 43.2 182.6 Q 44.0 181.8, 45.3 181.8 Q 46.6 181.8, 47.1 182.6 Q 47.7 183.3, 47.7 184.8 L 47.7 185.0 L 43.6 185.0 Q 43.6 186.0, 44.1 186.5 Q 44.5 187.0, 45.4 187.0 Q 45.8 187.0, 46.3 186.9 Q 46.7 186.8, 47.2 186.6 L 47.5 187.3 Q 46.9 187.6, 46.4 187.8 Q 45.9 187.9, 45.3 187.9 Q 44.0 187.9, 43.3 187.1 Q 42.5 186.3, 42.5 184.8 M 45.3 182.6 Q 44.6 182.6, 44.2 183.0 Q 43.8 183.4, 43.7 184.2 L 46.6 184.2 Q 46.5 183.4, 46.2 183.0 Q 45.9 182.6, 45.3 182.6 " fill="#000000"/>
<path class="legend" d="" fill="#000000"/>
<path class="legend" d="M 53.2 186.9 L 55.0 186.9 L 55.0 180.8 L 53.0 181.4 L 52.8 180.7 L 55.2 179.6 L 56.1 179.8 L 56.1 186.9 L 57.6 186.9 L 57.6 187.8 L 53.2 187.8 L 53.2 186.9 " fill="#000000"/>
<path class="legend" d="M 62.8 180.6 L 58.5 180.6 L 58.5 179.7 L 63.9 179.7 L 63.9 180.5 L 60.6 187.8 L 59.5 187.8 L 62.8 180.6 " fill="#000000"/>
<path class="legend" d="M 67.3 179.6 Q 68.8 179.6, 69.5 180.6 Q 70.2 181.5, 70.2 183.5 Q 70.2 185.6, 69.3 186.8 Q 68.4 187.9, 66.7 187.9 Q 66.2 187.9, 65.8 187.8 Q 65.3 187.7, 64.9 187.4 L 65.4 186.6 Q 66.0 187.0, 66.7 187.0 Q 67.8 187.0, 68.4 186.2 Q 69.0 185.5, 69.1 184.0 Q 68.7 184.3, 68.1 184.5 Q 67.6 184.7, 67.1 184.7 Q 66.3 184.7, 65.8 184.4 Q 65.2 184.1, 64.9 183.6 Q 64.6 183.0, 64.6 182.3 Q 64.6 181.5, 64.9 180.9 Q 65.3 180.3, 65.9 179.9 Q 66.5 179.6, 67.3 179.6 M 65.8 182.3 Q 65.8 183.0, 66.2 183.4 Q 66.6 183.8, 67.3 183.8 Q 67.8 183.8, 68.2 183.6 Q 68.7 183.4, 69.1 183.1 Q 69.0 181.7, 68.6 181.1 Q 68.2 180.5, 67.3 180.5 Q 66.9 180.5, 66.5 180.8 Q 66.2 181.0, 66.0 181.4 Q 65.8 181.8, 65.8 182.3 " fill="#000000"/>
<path class="legend" d="M 71.8 186.9 L 73.6 186.9 L 73.6 180.8 L 71.7 181.4 L 71.4 180.7 L 73.9 179.6 L 74.7 179.8 L 74.7 186.9 L 76.3 186.9 L 76.3 187.8 L 71.8 187.8 L 71.8 186.9 " fill="#000000"/>
<path class="legend" d="" fill="#000000"/>
<path class="legend" d="M 81.3 178.9 L 82.3 178.9 L 82.3 190.0 L 81.3 190.0 L 81.3 178.9 " fill="#000000"/>
<path class="legend" d="M 83.7 178.9 L 84.6 178.9 L 84.6 190.0 L 83.7 190.0 L 83.7 178.9 " fill="#000000"/>
<path class="legend" d="" fill="#000000"/>
<path class="legend" d="M 99.4 187.8 L 98.4 187.8 L 97.6 181.2 L 95.4 187.8 L 94.3 187.8 L 92.1 181.2 L 91.2 187.8 L 90.2 187.8 L 91.2 179.7 L 92.6 179.7 L 94.8 186.2 L 97.1 179.7 L 98.4 179.7 L 99.4 187.8 " fill="#000000"/>
<path class="legend" d="M 100.6 184.8 Q 100.6 183.4, 101.3 182.6 Q 102.0 181.8, 103.3 181.8 Q 104.6 181.8, 105.2 182.6 Q 105.8 183.3, 105.8 184.8 L 105.8 185.0 L 101.7 185.0 Q 101.7 186.0, 102.1 186.5 Q 102.6 187.0, 103.4 187.0 Q 103.9 187.0, 104.3 186.9 Q 104.7 186.8, 105.2 186.6 L 105.6 187.3 Q 105.0 187.6, 104.4 187.8 Q 103.9 187.9, 103.4 187.9 Q 102.0 187.9, 101.3 187.1 Q 100.6 186.3, 100.6 184.8 M 103.3 182.6 Q 102.7 182.6, 102.2 183.0 Q 101.8 183.4, 101.7 184.2 L 104.7 184.2 Q 104.6 183.4, 104.3 183.0 Q 103.9 182.6, 103.3 182.6 " fill="#000000"/>
<path class="legend" d="M 106.6 186.2 Q 106.6 185.3, 107.4 184.7 Q 108.1 184.2, 109.5 184.2 L 110.4 184.2 L 110.4 184.0 Q 110.4 183.3, 110.1 183.0 Q 109.8 182.6, 109.0 182.6 Q 108.6 182.6, 108.2 182.7 Q 107.8 182.8, 107.3 183.1 L 106.9 182.3 Q 108.0 181.8, 109.1 181.8 Q 110.3 181.8, 110.9 182.3 Q 111.5 182.9, 111.5 184.0 L 111.5 187.8 L 110.6 187.8 Q 110.6 187.7, 110.6 187.6 Q 110.5 187.4, 110.5 187.1 Q 109.6 187.9, 108.5 187.9 Q 107.7 187.9, 107.1 187.5 Q 106.6 187.0, 106.6 186.2 M 107.7 186.2 Q 107.7 186.6, 108.0 186.9 Q 108.2 187.1, 108.7 187.1 Q 109.2 187.1, 109.6 186.9 Q 110.1 186.7, 110.4 186.3 L 110.4 185.0 L 109.6 185.0 Q 108.6 185.0, 108.2 185.3 Q 107.7 185.6, 107.7 186.2 " fill="#000000"/>
<path class="legend" d="M 115.8 181.8 Q 116.7 181.8, 117.2 182.3 Q 117.7 182.9, 117.7 183.9 L 117.7 187.8 L 116.6 187.8 L 116.6 184.0 Q 116.6 183.3, 116.4 183.0 Q 116.1 182.6, 115.5 182.6 Q 115.0 182.6, 114.5 182.9 Q 114.1 183.1, 113.8 183.6 L 113.8 187.8 L 112.7 187.8 L 112.7 181.9 L 113.6 181.9 L 113.7 182.7 Q 114.5 181.8, 115.8 181.8 " fill="#000000"/>
<path class="legend" d="" fill="#000000"/>
<path class="legend" d="M 123.2 178.9 L 124.1 178.9 L 124.1 190.0 L 123.2 190.0 L 123.2 178.9 " fill="#000000"/>
<path class="legend" d="M 125.8 186.5 Q 125.9 186.6, 126.3 186.7 Q 126.7 186.9, 127.1 187.0 Q 127.5 187.1, 127.9 187.1 Q 128.7 187.1, 129.1 186.7 Q 129.6 186.3, 129.6 185.7 Q 129.6 185.2, 129.3 185.0 Q 129.1 184.7, 128.8 184.5 Q 128.4 184.4, 127.9 184.2 Q 127.1 184.0, 126.7 183.8 Q 126.3 183.6, 126.0 183.2 Q 125.7 182.7, 125.7 182.0 Q 125.7 181.0, 126.4 180.3 Q 127.1 179.7, 128.4 179.7 Q 129.4 179.7, 130.4 180.2 L 130.2 181.0 Q 129.2 180.6, 128.5 180.6 Q 127.7 180.6, 127.2 181.0 Q 126.8 181.3, 126.8 181.8 Q 126.8 182.3, 127.0 182.5 Q 127.3 182.8, 127.6 183.0 Q 127.9 183.1, 128.5 183.3 Q 129.2 183.5, 129.6 183.7 Q 130.1 184.0, 130.4 184.4 Q 130.7 184.9, 130.7 185.7 Q 130.7 186.8, 129.9 187.4 Q 129.2 188.0, 128.0 188.0 Q 127.2 188.0, 126.7 187.8 Q 126.1 187.7, 125.5 187.4 L 125.8 186.5 " fill="#000000"/>
<path class="legend" d="M 131.6 179.7 L 132.7 179.7 L 132.7 183.1 L 136.9 183.1 L 136.9 179.7 L 138.0 179.7 L 138.0 187.8 L 136.9 187.8 L 136.9 184.0 L 132.7 184.0 L 132.7 187.8 L 131.6 187.8 L 131.6 179.7 " fill="#000000"/>
<path class="legend" d="M 145.3 187.8 L 144.5 185.4 L 141.2 185.4 L 140.4 187.8 L 139.3 187.8 L 142.1 179.7 L 143.5 179.7 L 146.4 187.8 L 145.3 187.8 M 141.6 184.5 L 144.1 184.5 L 142.8 180.8 L 141.6 184.5 " fill="#000000"/>
<path class="legend" d="M 149.3 179.7 Q 150.7 179.7, 151.4 180.3 Q 152.1 180.9, 152.1 182.1 Q 152.1 183.2, 151.3 183.8 Q 150.6 184.5, 149.3 184.5 L 148.0 184.5 L 148.0 187.8 L 146.9 187.8 L 146.9 179.7 L 149.3 179.7 M 149.3 183.5 Q 150.1 183.5, 150.5 183.2 Q 150.9 182.8, 150.9 182.1 Q 150.9 181.3, 150.5 181.0 Q 150.1 180.6, 149.3 180.6 L 148.0 180.6 L 148.0 183.5 L 149.3 183.5 " fill="#000000"/>
<path class="legend" d="M 153.0 178.9 L 154.0 178.9 L 154.0 190.0 L 153.0 190.0 L 153.0 178.9 " fill="#000000"/>
<path class="legend" d="M 155.3 186.4 L 156.5 186.4 L 156.5 187.6 L 155.3 187.6 L 155.3 186.4 M 155.3 182.5 L 156.5 182.5 L 156.5 183.7 L 155.3 183.7 L 155.3 182.5 " fill="#000000"/>
<path class="legend" d="" fill="#000000"/>
<path class="legend" d="M 161.9 181.2 Q 162.2 180.4, 162.9 180.0 Q 163.6 179.6, 164.6 179.6 Q 165.8 179.6, 166.5 180.3 Q 167.2 180.9, 167.2 182.1 Q 167.2 183.3, 166.3 184.4 Q 165.4 185.5, 163.6 186.9 L 167.4 186.9 L 167.4 187.8 L 161.9 187.8 L 161.9 187.0 Q 163.4 185.9, 164.3 185.1 Q 165.2 184.3, 165.6 183.6 Q 166.1 182.9, 166.1 182.2 Q 166.1 181.4, 165.7 180.9 Q 165.3 180.5, 164.6 180.5 Q 164.0 180.5, 163.5 180.8 Q 163.1 181.0, 162.8 181.6 L 161.9 181.2 " fill="#000000"/>
<path class="legend" d="M 171.6 182.7 Q 172.3 182.7, 172.9 183.0 Q 173.4 183.3, 173.7 183.9 Q 174.1 184.5, 174.1 185.2 Q 174.1 186.0, 173.7 186.6 Q 173.4 187.2, 172.7 187.5 Q 172.1 187.9, 171.3 187.9 Q 169.9 187.9, 169.2 186.9 Q 168.4 185.9, 168.4 184.0 Q 168.4 181.8, 169.3 180.7 Q 170.2 179.6, 172.0 179.6 Q 172.5 179.6, 172.9 179.7 Q 173.3 179.8, 173.7 180.1 L 173.3 180.8 Q 172.7 180.5, 172.0 180.5 Q 170.8 180.5, 170.2 181.3 Q 169.7 182.0, 169.6 183.5 Q 170.0 183.1, 170.5 182.9 Q 171.0 182.7, 171.6 182.7 M 171.3 186.9 Q 171.8 186.9, 172.1 186.7 Q 172.5 186.5, 172.7 186.1 Q 172.9 185.7, 172.9 185.2 Q 172.9 184.5, 172.5 184.1 Q 172.1 183.6, 171.4 183.6 Q 170.9 183.6, 170.4 183.8 Q 169.9 184.0, 169.6 184.4 Q 169.6 185.7, 170.1 186.3 Q 170.5 186.9, 171.3 186.9 " fill="#000000"/>
<path class="legend" d="M 175.1 186.6 L 176.2 186.6 L 176.2 187.8 L 175.1 187.8 L 175.1 186.6 " fill="#000000"/>
<path class="legend" d="M 180.3 182.7 Q 181.0 182.7, 181.6 183.0 Q 182.2 183.3, 182.5 183.9 Q 182.8 184.5, 182.8 185.2 Q 182.8 186.1, 182.4 186.7 Q 182.0 187.3, 181.3 187.6 Q 180.7 187.9, 179.9 187.9 Q 179.2 187.9, 178.5 187.6 Q 177.8 187.3, 177.3 186.8 L 178.0 186.1 Q 178.4 186.5, 178.9 186.7 Q 179.4 187.0, 180.0 187.0 Q 180.7 187.0, 181.2 186.5 Q 181.7 186.1, 181.7 185.2 Q 181.7 184.4, 181.2 184.0 Q 180.7 183.6, 179.9 183.6 Q 179.2 183.6, 178.4 183.9 L 177.8 183.6 L 178.2 179.7 L 182.3 179.7 L 182.2 180.6 L 179.1 180.6 L 178.9 183.0 Q 179.6 182.7, 180.3 182.7 " fill="#000000"/>
<path class="legend" d="M 189.0 185.0 L 190.0 185.0 L 190.0 185.9 L 189.0 185.9 L 189.0 187.8 L 187.9 187.8 L 187.9 185.9 L 183.8 185.9 L 183.8 185.2 L 187.3 179.7 L 189.0 179.7 L 189.0 185.0 M 185.1 185.0 L 187.9 185.0 L 187.9 180.4 L 185.1 185.0 " fill="#000000"/>
<ellipse cx="279.8" cy="120.7" rx="6.9" ry="6.9" class="atom-1" style="fill:#E5E533;fill-rule:evenodd;stroke:#E5E533;stroke-width:1.0px;stroke-linecap:butt;stroke-linejoin:miter;stroke-opacity:1"/>
<ellipse cx="298.5" cy="91.9" rx="6.9" ry="6.9" class="atom-2" style="fill:#9999E5;fill-rule:evenodd;stroke:#9999E5;stroke-width:1.0px;stroke-linecap:butt;stroke-linejoin:miter;stroke-opacity:1"/>
<ellipse cx="332.7" cy="93.6" rx="6.9" ry="6.9" class="atom-3" style="fill:#E5E533;fill-rule:evenodd;stroke:#E5E533;stroke-width:1.0px;stroke-linecap:butt;stroke-linejoin:miter;stroke-opacity:1"/>
<ellipse cx="282.9" cy="61.3" rx="6.9" ry="6.9" class="atom-5" style="fill:#E5E533;fill-rule:evenodd;stroke:#E5E533;stroke-width:1.0px;stroke-linecap:butt;stroke-linejoin:miter;stroke-opacity:1"/>
<path class="bond-0 atom-0 atom-1" d="M 249.0,119.1 L 279.8,120.7" style="fill:none;fill-rule:evenodd;stroke:#E5E5E5;stroke-width:1.8px;stroke-linecap:butt;stroke-linejoin:miter;stroke-opacity:1"/>
<path class="bond-0 atom-0 atom-1" d="M 249.3,113.9 L 277.1,115.4" style="fill:none;fill-rule:evenodd;stroke:#E5E5E5;stroke-width:1.8px;stroke-linecap:butt;stroke-linejoin:miter;stroke-opacity:1;stroke-dasharray:6,4"/>
<path class="bond-1 atom-1 atom-2" d="M 279.8,120.7 L 298.5,91.9" style="fill:none;fill-rule:evenodd;stroke:#000000;stroke-width:2.0px;stroke-linecap:butt;stroke-linejoin:miter;stroke-opacity:1"/>
<path class="bond-1 atom-1 atom-2" d="M 277.1,115.4 L 292.5,91.6" style="fill:none;fill-rule:evenodd;stroke:#000000;stroke-width:2.0px;stroke-linecap:butt;stroke-linejoin:miter;stroke-opacity:1;stroke-dasharray:6,4"/>
<path class="bond-2 atom-2 atom-3" d="M 298.5,91.9 L 332.7,93.6" style="fill:none;fill-rule:evenodd;stroke:#000000;stroke-width:2.0px;stroke-linecap:butt;stroke-linejoin:miter;stroke-opacity:1"/>
<path class="bond-3 atom-3 atom-4" d="M 334.2,95.9 L 355.8,69.2" style="fill:none;fill-rule:evenodd;stroke:#E5E5E5;stroke-width:1.8px;stroke-linecap:butt;stroke-linejoin:miter;stroke-opacity:1"/>
<path class="bond-3 atom-3 atom-4" d="M 329.6,93.5 L 351.8,66.0" style="fill:none;fill-rule:evenodd;stroke:#E5E5E5;stroke-width:1.8px;stroke-linecap:butt;stroke-linejoin:miter;stroke-opacity:1;stroke-dasharray:6,4"/>
<path class="bond-4 atom-2 atom-5" d="M 298.5,91.9 L 282.9,61.3" style="fill:none;fill-rule:evenodd;stroke:#000000;stroke-width:2.0px;stroke-linecap:butt;stroke-linejoin:miter;stroke-opacity:1"/>
<path class="bond-4 atom-2 atom-5" d="M 292.5,91.6 L 279.6,66.3" style="fill:none;fill-rule:evenodd;stroke:#000000;stroke-width:2.0px;stroke-linecap:butt;stroke-linejoin:miter;stroke-opacity:1;stroke-dasharray:6,4"/>
<path class="bond-5 atom-5 atom-6" d="M 282.9,61.3 L 252.0,59.8" style="fill:none;fill-rule:evenodd;stroke:#E5E5E5;stroke-width:1.8px;stroke-linecap:butt;stroke-linejoin:miter;stroke-opacity:1"/>
<path class="bond-5 atom-5 atom-6" d="M 279.6,66.3 L 251.8,64.9" style="fill:none;fill-rule:evenodd;stroke:#E5E5E5;stroke-width:1.8px;stroke-linecap:butt;stroke-linejoin:miter;stroke-opacity:1;stroke-dasharray:6,4"/>
<path class="bond-6 atom-7 atom-3" d="M 345.9,118.5 L 329.6,93.5" style="fill:none;fill-rule:evenodd;stroke:#E5E5E5;stroke-width:1.8px;stroke-linecap:butt;stroke-linejoin:miter;stroke-opacity:1"/>
<path class="bond-6 atom-7 atom-3" d="M 350.2,115.7 L 334.4,91.5" style="fill:none;fill-rule:evenodd;stroke:#E5E5E5;stroke-width:1.8px;stroke-linecap:butt;stroke-linejoin:miter;stroke-opacity:1;stroke-dasharray:6,4"/>
<path d="M 279.1,120.6 L 279.8,120.7 L 280.3,119.9" style="fill:none;stroke:#E5E5E5;stroke-width:1.8px;stroke-linecap:butt;stroke-linejoin:miter;stroke-miterlimit:10;stroke-opacity:1;"/>
<path d="M 283.3,62.1 L 282.9,61.3 L 282.1,61.3" style="fill:none;stroke:#000000;stroke-width:2.0px;stroke-linecap:butt;stroke-linejoin:miter;stroke-miterlimit:10;stroke-opacity:1;"/>
<path class="atom-0" d="M 243.9 115.3 L 245.3 113.8 L 243.4 113.4 L 243.7 112.4 L 245.4 113.3 L 245.2 111.4 L 246.2 111.4 L 245.9 113.3 L 247.7 112.5 L 248.0 113.4 L 246.1 113.8 L 247.5 115.2 L 246.6 115.8 L 245.7 114.0 L 244.7 115.8 L 243.9 115.3 " fill="#191919"/>
<path class="atom-4" d="M 352.5 65.9 L 353.9 64.4 L 352.0 64.0 L 352.3 63.1 L 354.0 63.9 L 353.8 62.0 L 354.8 62.0 L 354.5 63.9 L 356.3 63.1 L 356.6 64.0 L 354.7 64.4 L 356.0 65.9 L 355.2 66.5 L 354.3 64.6 L 353.3 66.5 L 352.5 65.9 " fill="#191919"/>
<path class="atom-6" d="M 246.7 61.1 L 248.1 59.6 L 246.2 59.2 L 246.5 58.2 L 248.2 59.1 L 248.0 57.2 L 249.0 57.2 L 248.7 59.1 L 250.5 58.3 L 250.8 59.2 L 248.9 59.6 L 250.2 61.0 L 249.4 61.7 L 248.4 59.8 L 247.5 61.7 L 246.7 61.1 " fill="#191919"/>
<path class="atom-7" d="M 349.6 121.3 L 351.0 119.8 L 349.2 119.5 L 349.4 118.5 L 351.2 119.4 L 350.9 117.5 L 352.0 117.4 L 351.7 119.3 L 353.4 118.5 L 353.8 119.5 L 351.8 119.8 L 353.2 121.3 L 352.4 121.9 L 351.4 120.1 L 350.5 121.9 L 349.6 121.3 " fill="#191919"/>
<path class="legend" d="M 210.0 179.7 L 214.8 179.7 L 214.8 180.6 L 211.1 180.6 L 211.1 183.1 L 214.4 183.1 L 214.4 184.0 L 211.1 184.0 L 211.1 187.8 L 210.0 187.8 L 210.0 179.7 " fill="#000000"/>
<path class="legend" d="M 215.4 184.8 Q 215.4 183.4, 216.2 182.6 Q 216.9 181.8, 218.2 181.8 Q 219.5 181.8, 220.1 182.6 Q 220.6 183.4, 220.6 184.8 L 220.6 185.0 L 216.5 185.0 Q 216.6 186.0, 217.0 186.5 Q 217.5 187.0, 218.3 187.0 Q 218.8 187.0, 219.2 186.9 Q 219.6 186.8, 220.1 186.6 L 220.4 187.3 Q 219.8 187.6, 219.3 187.8 Q 218.8 187.9, 218.2 187.9 Q 216.9 187.9, 216.2 187.1 Q 215.4 186.3, 215.4 184.8 M 218.2 182.7 Q 217.5 182.7, 217.1 183.1 Q 216.7 183.4, 216.6 184.2 L 219.5 184.2 Q 219.4 183.4, 219.1 183.0 Q 218.8 182.7, 218.2 182.7 " fill="#000000"/>
<path class="legend" d="M 221.5 186.2 Q 221.5 185.3, 222.2 184.8 Q 223.0 184.2, 224.4 184.2 L 225.2 184.2 L 225.2 184.0 Q 225.2 183.3, 224.9 183.0 Q 224.6 182.7, 223.9 182.7 Q 223.4 182.7, 223.1 182.8 Q 222.7 182.8, 222.1 183.1 L 221.8 182.3 Q 222.9 181.8, 223.9 181.8 Q 225.2 181.8, 225.7 182.4 Q 226.3 182.9, 226.3 184.0 L 226.3 187.8 L 225.5 187.8 Q 225.5 187.7, 225.4 187.6 Q 225.4 187.4, 225.3 187.1 Q 224.5 187.9, 223.4 187.9 Q 222.5 187.9, 222.0 187.5 Q 221.5 187.0, 221.5 186.2 M 222.5 186.2 Q 222.5 186.6, 222.8 186.9 Q 223.1 187.1, 223.6 187.1 Q 224.1 187.1, 224.5 186.9 Q 224.9 186.7, 225.2 186.3 L 225.2 185.0 L 224.4 185.0 Q 223.5 185.0, 223.0 185.3 Q 222.5 185.6, 222.5 186.2 " fill="#000000"/>
<path class="legend" d="M 227.6 182.7 L 227.6 181.9 L 228.7 181.9 L 228.9 180.2 L 229.7 180.2 L 229.7 181.9 L 231.5 181.9 L 231.5 182.7 L 229.7 182.7 L 229.7 186.0 Q 229.7 187.0, 230.5 187.0 Q 230.9 187.0, 231.4 186.8 L 231.6 187.6 Q 230.9 187.9, 230.3 187.9 Q 229.6 187.9, 229.1 187.4 Q 228.6 186.9, 228.6 186.0 L 228.6 182.7 L 227.6 182.7 " fill="#000000"/>
<path class="legend" d="M 237.2 181.9 L 237.2 187.8 L 236.3 187.8 L 236.2 187.0 Q 235.4 187.9, 234.2 187.9 Q 233.2 187.9, 232.7 187.4 Q 232.2 186.8, 232.2 185.8 L 232.2 181.9 L 233.3 181.9 L 233.3 185.7 Q 233.3 186.4, 233.6 186.7 Q 233.8 187.1, 234.4 187.1 Q 235.0 187.1, 235.4 186.8 Q 235.9 186.6, 236.1 186.1 L 236.1 181.9 L 237.2 181.9 " fill="#000000"/>
<path class="legend" d="M 239.4 181.9 L 239.5 182.7 Q 240.1 181.8, 241.2 181.8 Q 241.5 181.8, 241.9 181.9 L 241.7 182.9 Q 241.2 182.8, 241.0 182.8 Q 240.5 182.8, 240.2 183.0 Q 239.9 183.2, 239.6 183.6 L 239.6 187.8 L 238.5 187.8 L 238.5 181.9 L 239.4 181.9 " fill="#000000"/>
<path class="legend" d="M 242.5 184.8 Q 242.5 183.4, 243.2 182.6 Q 243.9 181.8, 245.2 181.8 Q 246.5 181.8, 247.1 182.6 Q 247.7 183.4, 247.7 184.8 L 247.7 185.0 L 243.6 185.0 Q 243.6 186.0, 244.0 186.5 Q 244.5 187.0, 245.3 187.0 Q 245.8 187.0, 246.2 186.9 Q 246.6 186.8, 247.1 186.6 L 247.4 187.3 Q 246.9 187.6, 246.3 187.8 Q 245.8 187.9, 245.3 187.9 Q 243.9 187.9, 243.2 187.1 Q 242.5 186.3, 242.5 184.8 M 245.2 182.7 Q 244.5 182.7, 244.1 183.1 Q 243.7 183.4, 243.6 184.2 L 246.5 184.2 Q 246.5 183.4, 246.1 183.0 Q 245.8 182.7, 245.2 182.7 " fill="#000000"/>
<path class="legend" d="" fill="#000000"/>
<path class="legend" d="M 253.1 186.9 L 254.9 186.9 L 254.9 180.8 L 252.9 181.4 L 252.7 180.8 L 255.2 179.7 L 256.0 179.8 L 256.0 186.9 L 257.6 186.9 L 257.6 187.8 L 253.1 187.8 L 253.1 186.9 " fill="#000000"/>
<path class="legend" d="M 258.9 186.9 L 260.6 186.9 L 260.6 180.8 L 258.7 181.4 L 258.4 180.8 L 260.9 179.7 L 261.7 179.8 L 261.7 186.9 L 263.3 186.9 L 263.3 187.8 L 258.9 187.8 L 258.9 186.9 " fill="#000000"/>
<path class="legend" d="M 267.3 182.7 Q 268.0 182.7, 268.6 183.1 Q 269.2 183.4, 269.5 183.9 Q 269.8 184.5, 269.8 185.2 Q 269.8 186.0, 269.4 186.6 Q 269.1 187.2, 268.5 187.5 Q 267.8 187.9, 267.1 187.9 Q 265.6 187.9, 264.9 186.9 Q 264.2 185.9, 264.2 184.0 Q 264.2 181.8, 265.1 180.7 Q 266.0 179.6, 267.7 179.6 Q 268.2 179.6, 268.6 179.7 Q 269.0 179.8, 269.5 180.1 L 269.0 180.8 Q 268.4 180.5, 267.7 180.5 Q 266.6 180.5, 266.0 181.3 Q 265.4 182.0, 265.3 183.5 Q 265.7 183.1, 266.2 182.9 Q 266.8 182.7, 267.3 182.7 M 267.1 186.9 Q 267.5 186.9, 267.9 186.7 Q 268.2 186.5, 268.4 186.1 Q 268.6 185.7, 268.6 185.2 Q 268.6 184.5, 268.2 184.1 Q 267.8 183.7, 267.1 183.7 Q 266.6 183.7, 266.1 183.9 Q 265.7 184.1, 265.3 184.4 Q 265.4 185.7, 265.8 186.3 Q 266.2 186.9, 267.1 186.9 " fill="#000000"/>
<path class="legend" d="M 273.7 187.9 Q 272.3 187.9, 271.5 186.8 Q 270.8 185.7, 270.8 183.7 Q 270.8 181.8, 271.5 180.7 Q 272.2 179.6, 273.7 179.6 Q 275.2 179.6, 276.0 180.7 Q 276.7 181.8, 276.7 183.7 Q 276.7 185.7, 276.0 186.8 Q 275.2 187.9, 273.7 187.9 M 273.7 187.0 Q 274.6 187.0, 275.1 186.2 Q 275.6 185.3, 275.6 183.7 Q 275.6 182.1, 275.1 181.3 Q 274.6 180.5, 273.7 180.5 Q 272.9 180.5, 272.4 181.3 Q 271.9 182.1, 271.9 183.7 Q 271.9 185.3, 272.4 186.2 Q 272.9 187.0, 273.7 187.0 " fill="#000000"/>
<path class="legend" d="" fill="#000000"/>
<path class="legend" d="M 282.0 178.9 L 283.0 178.9 L 283.0 190.0 L 282.0 190.0 L 282.0 178.9 " fill="#000000"/>
<path class="legend" d="M 284.3 178.9 L 285.3 178.9 L 285.3 190.0 L 284.3 190.0 L 284.3 178.9 " fill="#000000"/>
<path class="legend" d="" fill="#000000"/>
<path class="legend" d="M 300.1 187.8 L 299.1 187.8 L 298.2 181.2 L 296.0 187.8 L 294.9 187.8 L 292.7 181.2 L 291.9 187.8 L 290.8 187.8 L 291.9 179.7 L 293.2 179.7 L 295.5 186.2 L 297.7 179.7 L 299.1 179.7 L 300.1 187.8 " fill="#000000"/>
<path class="legend" d="M 301.2 184.8 Q 301.2 183.4, 301.9 182.6 Q 302.7 181.8, 304.0 181.8 Q 305.3 181.8, 305.8 182.6 Q 306.4 183.4, 306.4 184.8 L 306.4 185.0 L 302.3 185.0 Q 302.3 186.0, 302.8 186.5 Q 303.2 187.0, 304.1 187.0 Q 304.5 187.0, 304.9 186.9 Q 305.4 186.8, 305.9 186.6 L 306.2 187.3 Q 305.6 187.6, 305.1 187.8 Q 304.6 187.9, 304.0 187.9 Q 302.7 187.9, 302.0 187.1 Q 301.2 186.3, 301.2 184.8 M 304.0 182.7 Q 303.3 182.7, 302.9 183.1 Q 302.5 183.4, 302.4 184.2 L 305.3 184.2 Q 305.2 183.4, 304.9 183.0 Q 304.6 182.7, 304.0 182.7 " fill="#000000"/>
<path class="legend" d="M 307.2 186.2 Q 307.2 185.3, 308.0 184.8 Q 308.7 184.2, 310.1 184.2 L 311.0 184.2 L 311.0 184.0 Q 311.0 183.3, 310.7 183.0 Q 310.4 182.7, 309.7 182.7 Q 309.2 182.7, 308.8 182.8 Q 308.5 182.8, 307.9 183.1 L 307.6 182.3 Q 308.6 181.8, 309.7 181.8 Q 310.9 181.8, 311.5 182.4 Q 312.1 182.9, 312.1 184.0 L 312.1 187.8 L 311.2 187.8 Q 311.2 187.7, 311.2 187.6 Q 311.2 187.4, 311.1 187.1 Q 310.3 187.9, 309.2 187.9 Q 308.3 187.9, 307.8 187.5 Q 307.2 187.0, 307.2 186.2 M 308.3 186.2 Q 308.3 186.6, 308.6 186.9 Q 308.9 187.1, 309.4 187.1 Q 309.8 187.1, 310.3 186.9 Q 310.7 186.7, 311.0 186.3 L 311.0 185.0 L 310.2 185.0 Q 309.3 185.0, 308.8 185.3 Q 308.3 185.6, 308.3 186.2 " fill="#000000"/>
<path class="legend" d="M 316.4 181.8 Q 317.3 181.8, 317.8 182.4 Q 318.3 182.9, 318.3 183.9 L 318.3 187.8 L 317.3 187.8 L 317.3 184.0 Q 317.3 183.3, 317.0 183.0 Q 316.7 182.7, 316.1 182.7 Q 315.6 182.7, 315.1 182.9 Q 314.7 183.2, 314.4 183.6 L 314.4 187.8 L 313.3 187.8 L 313.3 181.9 L 314.2 181.9 L 314.3 182.7 Q 315.1 181.8, 316.4 181.8 " fill="#000000"/>
<path class="legend" d="" fill="#000000"/>
<path class="legend" d="M 323.8 178.9 L 324.8 178.9 L 324.8 190.0 L 323.8 190.0 L 323.8 178.9 " fill="#000000"/>
<path class="legend" d="M 326.4 186.5 Q 326.5 186.6, 326.9 186.7 Q 327.3 186.9, 327.7 187.0 Q 328.1 187.1, 328.5 187.1 Q 329.3 187.1, 329.7 186.7 Q 330.2 186.3, 330.2 185.7 Q 330.2 185.2, 329.9 185.0 Q 329.7 184.7, 329.4 184.5 Q 329.0 184.4, 328.5 184.2 Q 327.7 184.0, 327.3 183.8 Q 326.9 183.6, 326.6 183.2 Q 326.3 182.7, 326.3 182.0 Q 326.3 181.0, 327.0 180.4 Q 327.7 179.7, 329.0 179.7 Q 330.0 179.7, 331.0 180.2 L 330.8 181.0 Q 329.8 180.6, 329.1 180.6 Q 328.3 180.6, 327.8 181.0 Q 327.4 181.3, 327.4 181.9 Q 327.4 182.3, 327.6 182.6 Q 327.9 182.8, 328.2 183.0 Q 328.5 183.1, 329.1 183.3 Q 329.8 183.5, 330.2 183.7 Q 330.7 184.0, 331.0 184.4 Q 331.3 184.9, 331.3 185.7 Q 331.3 186.8, 330.5 187.4 Q 329.8 188.0, 328.6 188.0 Q 327.8 188.0, 327.3 187.9 Q 326.7 187.7, 326.1 187.4 L 326.4 186.5 " fill="#000000"/>
<path class="legend" d="M 332.2 179.7 L 333.3 179.7 L 333.3 183.1 L 337.4 183.1 L 337.4 179.7 L 338.5 179.7 L 338.5 187.8 L 337.4 187.8 L 337.4 184.1 L 333.3 184.1 L 333.3 187.8 L 332.2 187.8 L 332.2 179.7 " fill="#000000"/>
<path class="legend" d="M 345.9 187.8 L 345.0 185.4 L 341.8 185.4 L 341.0 187.8 L 339.9 187.8 L 342.7 179.7 L 344.0 179.7 L 346.9 187.8 L 345.9 187.8 M 342.1 184.5 L 344.7 184.5 L 343.4 180.8 L 342.1 184.5 " fill="#000000"/>
<path class="legend" d="M 349.8 179.7 Q 351.2 179.7, 351.9 180.3 Q 352.6 180.9, 352.6 182.1 Q 352.6 183.2, 351.9 183.8 Q 351.2 184.5, 349.8 184.5 L 348.5 184.5 L 348.5 187.8 L 347.5 187.8 L 347.5 179.7 L 349.8 179.7 M 349.8 183.6 Q 350.6 183.6, 351.1 183.2 Q 351.5 182.8, 351.5 182.1 Q 351.5 181.4, 351.1 181.0 Q 350.6 180.6, 349.8 180.6 L 348.5 180.6 L 348.5 183.6 L 349.8 183.6 " fill="#000000"/>
<path class="legend" d="M 353.5 178.9 L 354.5 178.9 L 354.5 190.0 L 353.5 190.0 L 353.5 178.9 " fill="#000000"/>
<path class="legend" d="M 355.9 186.5 L 357.0 186.5 L 357.0 187.6 L 355.9 187.6 L 355.9 186.5 M 355.9 182.5 L 357.0 182.5 L 357.0 183.7 L 355.9 183.7 L 355.9 182.5 " fill="#000000"/>
<path class="legend" d="" fill="#000000"/>
<path class="legend" d="M 362.9 186.9 L 364.6 186.9 L 364.6 180.8 L 362.7 181.4 L 362.4 180.8 L 364.9 179.7 L 365.7 179.8 L 365.7 186.9 L 367.3 186.9 L 367.3 187.8 L 362.9 187.8 L 362.9 186.9 " fill="#000000"/>
<path class="legend" d="M 373.4 185.0 L 374.4 185.0 L 374.4 185.9 L 373.4 185.9 L 373.4 187.8 L 372.4 187.8 L 372.4 185.9 L 368.2 185.9 L 368.2 185.2 L 371.7 179.7 L 373.4 179.7 L 373.4 185.0 M 369.5 185.0 L 372.4 185.0 L 372.4 180.4 L 369.5 185.0 " fill="#000000"/>
<path class="legend" d="M 375.3 186.7 L 376.5 186.7 L 376.5 187.8 L 375.3 187.8 L 375.3 186.7 " fill="#000000"/>
<path class="legend" d="M 380.3 179.6 Q 381.8 179.6, 382.5 180.6 Q 383.2 181.6, 383.2 183.5 Q 383.2 185.7, 382.3 186.8 Q 381.4 187.9, 379.7 187.9 Q 379.2 187.9, 378.8 187.8 Q 378.3 187.7, 377.9 187.4 L 378.4 186.7 Q 379.0 187.0, 379.7 187.0 Q 380.8 187.0, 381.4 186.2 Q 382.0 185.5, 382.1 184.0 Q 381.7 184.4, 381.1 184.6 Q 380.6 184.8, 380.1 184.8 Q 379.4 184.8, 378.8 184.4 Q 378.2 184.1, 377.9 183.6 Q 377.6 183.0, 377.6 182.3 Q 377.6 181.5, 378.0 180.9 Q 378.3 180.3, 378.9 180.0 Q 379.5 179.6, 380.3 179.6 M 378.8 182.3 Q 378.8 183.0, 379.2 183.4 Q 379.6 183.8, 380.3 183.8 Q 380.8 183.8, 381.2 183.6 Q 381.7 183.4, 382.1 183.1 Q 382.0 181.8, 381.6 181.2 Q 381.2 180.5, 380.3 180.5 Q 379.9 180.5, 379.5 180.8 Q 379.2 181.0, 379.0 181.4 Q 378.8 181.8, 378.8 182.3 " fill="#000000"/>
<path class="legend" d="M 387.1 179.6 Q 388.5 179.6, 389.3 180.6 Q 390.0 181.6, 390.0 183.5 Q 390.0 185.7, 389.1 186.8 Q 388.2 187.9, 386.5 187.9 Q 386.0 187.9, 385.5 187.8 Q 385.1 187.7, 384.7 187.4 L 385.2 186.7 Q 385.7 187.0, 386.5 187.0 Q 387.6 187.0, 388.2 186.2 Q 388.8 185.5, 388.8 184.0 Q 388.4 184.4, 387.9 184.6 Q 387.4 184.8, 386.8 184.8 Q 386.1 184.8, 385.6 184.4 Q 385.0 184.1, 384.7 183.6 Q 384.4 183.0, 384.4 182.3 Q 384.4 181.5, 384.7 180.9 Q 385.1 180.3, 385.7 180.0 Q 386.3 179.6, 387.1 179.6 M 385.5 182.3 Q 385.5 183.0, 385.9 183.4 Q 386.3 183.8, 387.0 183.8 Q 387.5 183.8, 388.0 183.6 Q 388.5 183.4, 388.8 183.1 Q 388.8 181.8, 388.4 181.2 Q 388.0 180.5, 387.1 180.5 Q 386.7 180.5, 386.3 180.8 Q 385.9 181.0, 385.7 181.4 Q 385.5 181.8, 385.5 182.3 " fill="#000000"/>
<ellipse cx="493.8" cy="95.9" rx="6.9" ry="6.9" class="atom-1" style="fill:#E5E533;fill-rule:evenodd;stroke:#E5E533;stroke-width:1.0px;stroke-linecap:butt;stroke-linejoin:miter;stroke-opacity:1"/>
<ellipse cx="478.8" cy="65.0" rx="6.9" ry="6.9" class="atom-2" style="fill:#9999E5;fill-rule:evenodd;stroke:#9999E5;stroke-width:1.0px;stroke-linecap:butt;stroke-linejoin:miter;stroke-opacity:1"/>
<path class="bond-0 atom-0 atom-1" d="M 524.4,100.5 L 492.2,98.3" style="fill:none;fill-rule:evenodd;stroke:#E5E5E5;stroke-width:1.8px;stroke-linecap:butt;stroke-linejoin:miter;stroke-opacity:1"/>
<path class="bond-0 atom-0 atom-1" d="M 524.8,95.4 L 492.5,93.2" style="fill:none;fill-rule:evenodd;stroke:#E5E5E5;stroke-width:1.8px;stroke-linecap:butt;stroke-linejoin:miter;stroke-opacity:1;stroke-dasharray:6,4"/>
<path class="bond-1 atom-1 atom-2" d="M 493.8,95.9 L 480.5,68.6" style="fill:none;fill-rule:evenodd;stroke:#000000;stroke-width:2.0px;stroke-linecap:butt;stroke-linejoin:miter;stroke-opacity:1"/>
<path class="bond-2 atom-1 atom-3" d="M 492.5,93.2 L 476.0,117.8" style="fill:none;fill-rule:evenodd;stroke:#E5E5E5;stroke-width:1.8px;stroke-linecap:butt;stroke-linejoin:miter;stroke-opacity:1"/>
<path class="bond-2 atom-1 atom-3" d="M 496.8,96.1 L 480.2,120.7" style="fill:none;fill-rule:evenodd;stroke:#E5E5E5;stroke-width:1.8px;stroke-linecap:butt;stroke-linejoin:miter;stroke-opacity:1;stroke-dasharray:6,4"/>
<path class="atom-0" d="M 526.2 97.1 L 527.6 95.7 L 525.8 95.3 L 526.0 94.3 L 527.8 95.2 L 527.5 93.3 L 528.6 93.3 L 528.3 95.2 L 530.0 94.4 L 530.4 95.3 L 528.4 95.6 L 529.8 97.1 L 529.0 97.7 L 528.0 95.9 L 527.1 97.7 L 526.2 97.1 " fill="#191919"/>
<path class="atom-2" d="M 469.6 65.4 Q 469.6 63.0, 470.8 61.7 Q 471.9 60.4, 474.1 60.4 Q 476.1 60.4, 477.1 61.8 L 476.2 62.6 Q 475.5 61.5, 474.1 61.5 Q 472.6 61.5, 471.8 62.5 Q 471.0 63.5, 471.0 65.4 Q 471.0 67.3, 471.8 68.3 Q 472.7 69.3, 474.2 69.3 Q 475.3 69.3, 476.5 68.6 L 476.9 69.7 Q 476.4 70.0, 475.6 70.2 Q 474.9 70.4, 474.0 70.4 Q 471.9 70.4, 470.8 69.1 Q 469.6 67.8, 469.6 65.4 " fill="#000000"/>
<path class="atom-2" d="M 478.1 59.8 L 479.4 59.8 L 479.4 70.2 L 478.1 70.2 L 478.1 59.8 " fill="#000000"/>
<path class="atom-3" d="M 472.9 123.2 L 474.3 121.8 L 472.4 121.4 L 472.7 120.4 L 474.4 121.3 L 474.2 119.4 L 475.2 119.4 L 474.9 121.3 L 476.7 120.5 L 477.0 121.4 L 475.1 121.7 L 476.4 123.2 L 475.6 123.8 L 474.6 122.0 L 473.7 123.8 L 472.9 123.2 " fill="#191919"/>
<path class="legend" d="M 410.0 179.3 L 415.0 179.3 L 415.0 180.3 L 411.1 180.3 L 411.1 182.8 L 414.6 182.8 L 414.6 183.8 L 411.1 183.8 L 411.1 187.7 L 410.0 187.7 L 410.0 179.3 " fill="#000000"/>
<path class="legend" d="M 415.6 184.7 Q 415.6 183.2, 416.4 182.3 Q 417.1 181.5, 418.5 181.5 Q 419.8 181.5, 420.4 182.3 Q 421.0 183.1, 421.0 184.6 L 421.0 184.8 L 416.8 184.8 Q 416.8 185.8, 417.3 186.4 Q 417.7 186.9, 418.6 186.9 Q 419.1 186.9, 419.5 186.8 Q 419.9 186.7, 420.5 186.5 L 420.8 187.2 Q 420.2 187.5, 419.7 187.7 Q 419.1 187.8, 418.5 187.8 Q 417.2 187.8, 416.4 187.0 Q 415.6 186.1, 415.6 184.7 M 418.5 182.4 Q 417.8 182.4, 417.4 182.8 Q 417.0 183.2, 416.8 184.0 L 419.9 184.0 Q 419.8 183.2, 419.4 182.8 Q 419.1 182.4, 418.5 182.4 " fill="#000000"/>
<path class="legend" d="M 421.9 186.1 Q 421.9 185.1, 422.7 184.6 Q 423.4 184.0, 424.9 184.0 L 425.8 184.0 L 425.8 183.8 Q 425.8 183.0, 425.5 182.7 Q 425.2 182.4, 424.4 182.4 Q 423.9 182.4, 423.5 182.5 Q 423.1 182.6, 422.6 182.8 L 422.2 182.1 Q 423.3 181.5, 424.4 181.5 Q 425.7 181.5, 426.3 182.1 Q 426.9 182.6, 426.9 183.8 L 426.9 187.7 L 426.0 187.7 Q 426.0 187.7, 426.0 187.5 Q 425.9 187.3, 425.9 187.0 Q 425.0 187.9, 423.9 187.9 Q 423.0 187.9, 422.4 187.4 Q 421.9 186.9, 421.9 186.1 M 423.0 186.0 Q 423.0 186.5, 423.3 186.7 Q 423.6 187.0, 424.1 187.0 Q 424.6 187.0, 425.0 186.8 Q 425.5 186.5, 425.8 186.2 L 425.8 184.9 L 424.9 184.9 Q 424.0 184.9, 423.5 185.2 Q 423.0 185.4, 423.0 186.0 " fill="#000000"/>
<path class="legend" d="M 428.2 182.5 L 428.2 181.6 L 429.4 181.6 L 429.6 179.8 L 430.4 179.8 L 430.4 181.6 L 432.2 181.6 L 432.2 182.5 L 430.4 182.5 L 430.4 185.8 Q 430.4 186.9, 431.3 186.9 Q 431.6 186.9, 432.1 186.7 L 432.3 187.5 Q 431.7 187.8, 431.1 187.8 Q 430.3 187.8, 429.8 187.3 Q 429.3 186.8, 429.3 185.9 L 429.3 182.5 L 428.2 182.5 " fill="#000000"/>
<path class="legend" d="M 438.2 181.6 L 438.2 187.7 L 437.3 187.7 L 437.2 186.9 Q 436.4 187.8, 435.1 187.8 Q 434.1 187.8, 433.5 187.3 Q 433.0 186.7, 433.0 185.6 L 433.0 181.6 L 434.1 181.6 L 434.1 185.6 Q 434.1 186.3, 434.4 186.6 Q 434.7 186.9, 435.3 186.9 Q 435.9 186.9, 436.3 186.7 Q 436.8 186.4, 437.1 186.0 L 437.1 181.6 L 438.2 181.6 " fill="#000000"/>
<path class="legend" d="M 440.5 181.6 L 440.6 182.5 Q 441.2 181.5, 442.3 181.5 Q 442.6 181.5, 443.1 181.6 L 442.9 182.6 Q 442.4 182.5, 442.1 182.5 Q 441.6 182.5, 441.3 182.7 Q 440.9 182.9, 440.7 183.4 L 440.7 187.7 L 439.6 187.7 L 439.6 181.6 L 440.5 181.6 " fill="#000000"/>
<path class="legend" d="M 443.6 184.7 Q 443.6 183.2, 444.4 182.3 Q 445.1 181.5, 446.5 181.5 Q 447.8 181.5, 448.4 182.3 Q 449.0 183.1, 449.0 184.6 L 449.0 184.8 L 444.8 184.8 Q 444.8 185.8, 445.3 186.4 Q 445.7 186.9, 446.6 186.9 Q 447.1 186.9, 447.5 186.8 Q 447.9 186.7, 448.5 186.5 L 448.8 187.2 Q 448.2 187.5, 447.6 187.7 Q 447.1 187.8, 446.5 187.8 Q 445.2 187.8, 444.4 187.0 Q 443.6 186.1, 443.6 184.7 M 446.5 182.4 Q 445.8 182.4, 445.4 182.8 Q 445.0 183.2, 444.8 184.0 L 447.9 184.0 Q 447.8 183.2, 447.4 182.8 Q 447.1 182.4, 446.5 182.4 " fill="#000000"/>
<path class="legend" d="" fill="#000000"/>
<path class="legend" d="M 457.3 182.5 Q 458.0 182.5, 458.6 182.8 Q 459.2 183.1, 459.6 183.7 Q 459.9 184.3, 459.9 185.1 Q 459.9 185.9, 459.5 186.6 Q 459.1 187.2, 458.4 187.5 Q 457.7 187.8, 456.9 187.8 Q 456.1 187.8, 455.4 187.5 Q 454.7 187.2, 454.2 186.7 L 454.9 186.0 Q 455.3 186.4, 455.9 186.6 Q 456.4 186.8, 456.9 186.8 Q 457.7 186.8, 458.2 186.4 Q 458.7 185.9, 458.7 185.1 Q 458.7 184.2, 458.2 183.8 Q 457.7 183.4, 456.9 183.4 Q 456.1 183.4, 455.3 183.7 L 454.7 183.4 L 455.1 179.3 L 459.4 179.3 L 459.3 180.3 L 456.0 180.3 L 455.8 182.8 Q 456.5 182.5, 457.3 182.5 " fill="#000000"/>
<path class="legend" d="M 464.1 182.5 Q 464.9 182.5, 465.5 182.8 Q 466.0 183.1, 466.4 183.7 Q 466.7 184.3, 466.7 185.0 Q 466.7 185.8, 466.3 186.5 Q 466.0 187.1, 465.3 187.5 Q 464.7 187.8, 463.9 187.8 Q 462.4 187.8, 461.6 186.8 Q 460.9 185.8, 460.9 183.8 Q 460.9 181.5, 461.8 180.4 Q 462.7 179.2, 464.5 179.2 Q 465.0 179.2, 465.5 179.3 Q 465.9 179.5, 466.3 179.7 L 465.9 180.5 Q 465.3 180.2, 464.5 180.2 Q 463.3 180.2, 462.7 180.9 Q 462.1 181.7, 462.1 183.3 Q 462.5 182.9, 463.0 182.7 Q 463.6 182.5, 464.1 182.5 M 463.9 186.8 Q 464.3 186.8, 464.7 186.6 Q 465.1 186.4, 465.3 185.9 Q 465.5 185.5, 465.5 185.0 Q 465.5 184.3, 465.1 183.8 Q 464.7 183.4, 463.9 183.4 Q 463.4 183.4, 462.9 183.6 Q 462.4 183.8, 462.1 184.2 Q 462.1 185.6, 462.5 186.2 Q 463.0 186.8, 463.9 186.8 " fill="#000000"/>
<path class="legend" d="M 468.2 186.8 L 470.0 186.8 L 470.0 180.5 L 468.0 181.1 L 467.7 180.4 L 470.3 179.3 L 471.1 179.4 L 471.1 186.8 L 472.8 186.8 L 472.8 187.7 L 468.2 187.7 L 468.2 186.8 " fill="#000000"/>
<path class="legend" d="" fill="#000000"/>
<path class="legend" d="M 478.0 178.5 L 479.0 178.5 L 479.0 190.0 L 478.0 190.0 L 478.0 178.5 " fill="#000000"/>
<path class="legend" d="M 480.4 178.5 L 481.4 178.5 L 481.4 190.0 L 480.4 190.0 L 480.4 178.5 " fill="#000000"/>
<path class="legend" d="" fill="#000000"/>
<path class="legend" d="M 496.7 187.7 L 495.7 187.7 L 494.8 180.8 L 492.5 187.7 L 491.4 187.7 L 489.1 180.8 L 488.2 187.7 L 487.2 187.7 L 488.2 179.3 L 489.6 179.3 L 492.0 186.1 L 494.3 179.3 L 495.7 179.3 L 496.7 187.7 " fill="#000000"/>
<path class="legend" d="M 497.9 184.7 Q 497.9 183.2, 498.7 182.3 Q 499.4 181.5, 500.8 181.5 Q 502.1 181.5, 502.7 182.3 Q 503.3 183.1, 503.3 184.6 L 503.3 184.8 L 499.0 184.8 Q 499.1 185.8, 499.5 186.4 Q 500.0 186.9, 500.9 186.9 Q 501.3 186.9, 501.8 186.8 Q 502.2 186.7, 502.7 186.5 L 503.1 187.2 Q 502.5 187.5, 501.9 187.7 Q 501.4 187.8, 500.8 187.8 Q 499.4 187.8, 498.7 187.0 Q 497.9 186.1, 497.9 184.7 M 500.8 182.4 Q 500.1 182.4, 499.6 182.8 Q 499.2 183.2, 499.1 184.0 L 502.1 184.0 Q 502.0 183.2, 501.7 182.8 Q 501.4 182.4, 500.8 182.4 " fill="#000000"/>
<path class="legend" d="M 504.1 186.1 Q 504.1 185.1, 504.9 184.6 Q 505.7 184.0, 507.1 184.0 L 508.0 184.0 L 508.0 183.8 Q 508.0 183.0, 507.7 182.7 Q 507.4 182.4, 506.7 182.4 Q 506.2 182.4, 505.8 182.5 Q 505.4 182.6, 504.8 182.8 L 504.5 182.1 Q 505.6 181.5, 506.7 181.5 Q 508.0 181.5, 508.6 182.1 Q 509.2 182.6, 509.2 183.8 L 509.2 187.7 L 508.3 187.7 Q 508.3 187.7, 508.2 187.5 Q 508.2 187.3, 508.1 187.0 Q 507.3 187.9, 506.1 187.9 Q 505.2 187.9, 504.7 187.4 Q 504.1 186.9, 504.1 186.1 M 505.3 186.0 Q 505.3 186.5, 505.5 186.7 Q 505.8 187.0, 506.4 187.0 Q 506.8 187.0, 507.3 186.8 Q 507.7 186.5, 508.0 186.2 L 508.0 184.9 L 507.2 184.9 Q 506.2 184.9, 505.7 185.2 Q 505.3 185.4, 505.3 186.0 " fill="#000000"/>
<path class="legend" d="M 513.6 181.5 Q 514.6 181.5, 515.1 182.1 Q 515.6 182.6, 515.6 183.7 L 515.6 187.7 L 514.5 187.7 L 514.5 183.8 Q 514.5 183.0, 514.2 182.7 Q 514.0 182.4, 513.4 182.4 Q 512.8 182.4, 512.3 182.7 Q 511.9 182.9, 511.6 183.4 L 511.6 187.7 L 510.5 187.7 L 510.5 181.6 L 511.4 181.6 L 511.5 182.5 Q 512.3 181.5, 513.6 181.5 " fill="#000000"/>
<path class="legend" d="" fill="#000000"/>
<path class="legend" d="M 521.3 178.5 L 522.3 178.5 L 522.3 190.0 L 521.3 190.0 L 521.3 178.5 " fill="#000000"/>
<path class="legend" d="M 524.0 186.4 Q 524.1 186.4, 524.5 186.6 Q 524.9 186.8, 525.3 186.9 Q 525.7 187.0, 526.2 187.0 Q 527.0 187.0, 527.4 186.6 Q 527.9 186.2, 527.9 185.5 Q 527.9 185.1, 527.7 184.8 Q 527.4 184.5, 527.1 184.3 Q 526.7 184.2, 526.1 184.0 Q 525.4 183.8, 524.9 183.6 Q 524.5 183.4, 524.2 182.9 Q 523.9 182.5, 523.9 181.7 Q 523.9 180.6, 524.6 180.0 Q 525.3 179.3, 526.7 179.3 Q 527.7 179.3, 528.8 179.8 L 528.5 180.7 Q 527.5 180.3, 526.8 180.3 Q 525.9 180.3, 525.5 180.6 Q 525.0 181.0, 525.0 181.6 Q 525.0 182.0, 525.3 182.3 Q 525.5 182.6, 525.8 182.7 Q 526.2 182.9, 526.8 183.0 Q 527.5 183.3, 528.0 183.5 Q 528.4 183.8, 528.7 184.2 Q 529.1 184.7, 529.1 185.5 Q 529.1 186.7, 528.3 187.3 Q 527.5 187.9, 526.2 187.9 Q 525.5 187.9, 524.9 187.8 Q 524.3 187.6, 523.7 187.3 L 524.0 186.4 " fill="#000000"/>
<path class="legend" d="M 530.0 179.3 L 531.2 179.3 L 531.2 182.9 L 535.4 182.9 L 535.4 179.3 L 536.6 179.3 L 536.6 187.7 L 535.4 187.7 L 535.4 183.8 L 531.2 183.8 L 531.2 187.7 L 530.0 187.7 L 530.0 179.3 " fill="#000000"/>
<path class="legend" d="M 544.2 187.7 L 543.3 185.2 L 540.0 185.2 L 539.1 187.7 L 538.0 187.7 L 540.9 179.3 L 542.3 179.3 L 545.3 187.7 L 544.2 187.7 M 540.3 184.3 L 542.9 184.3 L 541.6 180.5 L 540.3 184.3 " fill="#000000"/>
<path class="legend" d="M 548.3 179.3 Q 549.7 179.3, 550.4 180.0 Q 551.2 180.6, 551.2 181.8 Q 551.2 182.9, 550.4 183.6 Q 549.7 184.3, 548.3 184.3 L 546.9 184.3 L 546.9 187.7 L 545.8 187.7 L 545.8 179.3 L 548.3 179.3 M 548.3 183.3 Q 549.1 183.3, 549.5 182.9 Q 550.0 182.5, 550.0 181.8 Q 550.0 181.0, 549.5 180.7 Q 549.1 180.3, 548.3 180.3 L 546.9 180.3 L 546.9 183.3 L 548.3 183.3 " fill="#000000"/>
<path class="legend" d="M 552.1 178.5 L 553.1 178.5 L 553.1 190.0 L 552.1 190.0 L 552.1 178.5 " fill="#000000"/>
<path class="legend" d="M 554.5 186.3 L 555.7 186.3 L 555.7 187.5 L 554.5 187.5 L 554.5 186.3 M 554.5 182.2 L 555.7 182.2 L 555.7 183.4 L 554.5 183.4 L 554.5 182.2 " fill="#000000"/>
<path class="legend" d="" fill="#000000"/>
<path class="legend" d="M 561.8 186.8 L 563.6 186.8 L 563.6 180.5 L 561.6 181.1 L 561.3 180.4 L 563.9 179.3 L 564.7 179.4 L 564.7 186.8 L 566.4 186.8 L 566.4 187.7 L 561.8 187.7 L 561.8 186.8 " fill="#000000"/>
<path class="legend" d="M 572.7 184.8 L 573.7 184.8 L 573.7 185.8 L 572.7 185.8 L 572.7 187.7 L 571.6 187.7 L 571.6 185.8 L 567.3 185.8 L 567.3 185.0 L 570.9 179.3 L 572.7 179.3 L 572.7 184.8 M 568.6 184.8 L 571.6 184.8 L 571.6 180.1 L 568.6 184.8 " fill="#000000"/>
<path class="legend" d="M 574.7 186.5 L 575.9 186.5 L 575.9 187.7 L 574.7 187.7 L 574.7 186.5 " fill="#000000"/>
<path class="legend" d="M 579.9 179.2 Q 581.4 179.2, 582.1 180.2 Q 582.9 181.3, 582.9 183.3 Q 582.9 185.5, 581.9 186.7 Q 581.0 187.8, 579.2 187.8 Q 578.7 187.8, 578.3 187.7 Q 577.8 187.6, 577.4 187.3 L 577.8 186.5 Q 578.5 186.9, 579.2 186.9 Q 580.4 186.9, 581.0 186.1 Q 581.6 185.3, 581.7 183.8 Q 581.3 184.1, 580.7 184.4 Q 580.2 184.6, 579.6 184.6 Q 578.9 184.6, 578.3 184.2 Q 577.7 183.9, 577.4 183.3 Q 577.1 182.8, 577.1 182.0 Q 577.1 181.2, 577.4 180.6 Q 577.8 179.9, 578.4 179.6 Q 579.1 179.2, 579.9 179.2 M 578.2 182.0 Q 578.2 182.8, 578.7 183.2 Q 579.1 183.6, 579.8 183.6 Q 580.3 183.6, 580.8 183.4 Q 581.3 183.2, 581.7 182.8 Q 581.6 181.5, 581.2 180.8 Q 580.8 180.2, 579.9 180.2 Q 579.4 180.2, 579.0 180.4 Q 578.7 180.7, 578.5 181.1 Q 578.2 181.5, 578.2 182.0 " fill="#000000"/>
<path class="legend" d="M 588.4 183.3 Q 589.1 183.6, 589.6 184.1 Q 590.0 184.6, 590.0 185.4 Q 590.0 186.1, 589.6 186.7 Q 589.3 187.2, 588.6 187.5 Q 587.9 187.8, 587.1 187.8 Q 585.7 187.8, 584.9 187.2 Q 584.1 186.5, 584.1 185.4 Q 584.1 184.7, 584.4 184.2 Q 584.8 183.7, 585.5 183.3 Q 585.0 183.0, 584.7 182.5 Q 584.4 182.1, 584.4 181.4 Q 584.4 180.4, 585.1 179.8 Q 585.8 179.2, 587.0 179.2 Q 588.3 179.2, 589.0 179.8 Q 589.7 180.4, 589.7 181.4 Q 589.7 182.0, 589.3 182.4 Q 589.0 182.9, 588.4 183.3 M 587.0 180.1 Q 586.3 180.1, 585.9 180.4 Q 585.6 180.8, 585.6 181.4 Q 585.6 181.8, 585.8 182.1 Q 586.1 182.4, 586.5 182.6 Q 586.8 182.7, 587.6 183.0 Q 588.1 182.6, 588.3 182.2 Q 588.5 181.9, 588.5 181.4 Q 588.5 180.8, 588.1 180.4 Q 587.7 180.1, 587.0 180.1 M 587.1 186.9 Q 587.9 186.9, 588.3 186.5 Q 588.8 186.1, 588.8 185.4 Q 588.8 185.0, 588.6 184.7 Q 588.3 184.4, 587.9 184.2 Q 587.6 184.0, 586.9 183.8 L 586.4 183.7 Q 585.8 184.0, 585.5 184.4 Q 585.3 184.9, 585.3 185.4 Q 585.3 186.1, 585.8 186.5 Q 586.3 186.9, 587.1 186.9 " fill="#000000"/>
<ellipse cx="85.6" cy="301.0" rx="6.9" ry="6.9" class="atom-1" style="fill:#E5E533;fill-rule:evenodd;stroke:#E5E533;stroke-width:1.0px;stroke-linecap:butt;stroke-linejoin:miter;stroke-opacity:1"/>
<ellipse cx="110.6" cy="324.4" rx="6.9" ry="6.9" class="atom-2" style="fill:#E5E533;fill-rule:evenodd;stroke:#E5E533;stroke-width:1.0px;stroke-linecap:butt;stroke-linejoin:miter;stroke-opacity:1"/>
<ellipse cx="143.4" cy="314.4" rx="6.9" ry="6.9" class="atom-3" style="fill:#9999E5;fill-rule:evenodd;stroke:#9999E5;stroke-width:1.0px;stroke-linecap:butt;stroke-linejoin:miter;stroke-opacity:1"/>
<ellipse cx="151.2" cy="281.0" rx="6.9" ry="6.9" class="atom-4" style="fill:#E5E533;fill-rule:evenodd;stroke:#E5E533;stroke-width:1.0px;stroke-linecap:butt;stroke-linejoin:miter;stroke-opacity:1"/>
<ellipse cx="126.1" cy="257.6" rx="6.9" ry="6.9" class="atom-5" style="fill:#E5E533;fill-rule:evenodd;stroke:#E5E533;stroke-width:1.0px;stroke-linecap:butt;stroke-linejoin:miter;stroke-opacity:1"/>
<path class="bond-0 atom-0 atom-1" d="M 56.3,303.5 L 85.6,301.0" style="fill:none;fill-rule:evenodd;stroke:#E5E5E5;stroke-width:1.8px;stroke-linecap:butt;stroke-linejoin:miter;stroke-opacity:1"/>
<path class="bond-1 atom-1 atom-2" d="M 85.6,301.0 L 110.6,324.4" style="fill:none;fill-rule:evenodd;stroke:#000000;stroke-width:2.0px;stroke-linecap:butt;stroke-linejoin:miter;stroke-opacity:1"/>
<path class="bond-1 atom-1 atom-2" d="M 91.2,299.3 L 112.0,318.6" style="fill:none;fill-rule:evenodd;stroke:#000000;stroke-width:2.0px;stroke-linecap:butt;stroke-linejoin:miter;stroke-opacity:1"/>
<path class="bond-2 atom-2 atom-3" d="M 110.6,324.4 L 143.4,314.4" style="fill:none;fill-rule:evenodd;stroke:#000000;stroke-width:2.0px;stroke-linecap:butt;stroke-linejoin:miter;stroke-opacity:1"/>
<path class="bond-3 atom-3 atom-4" d="M 143.4,314.4 L 151.2,281.0" style="fill:none;fill-rule:evenodd;stroke:#000000;stroke-width:2.0px;stroke-linecap:butt;stroke-linejoin:miter;stroke-opacity:1"/>
<path class="bond-3 atom-3 atom-4" d="M 139.1,310.4 L 145.5,282.7" style="fill:none;fill-rule:evenodd;stroke:#000000;stroke-width:2.0px;stroke-linecap:butt;stroke-linejoin:miter;stroke-opacity:1"/>
<path class="bond-4 atom-4 atom-5" d="M 151.2,281.0 L 126.1,257.6" style="fill:none;fill-rule:evenodd;stroke:#000000;stroke-width:2.0px;stroke-linecap:butt;stroke-linejoin:miter;stroke-opacity:1"/>
<path class="bond-5 atom-5 atom-6" d="M 126.1,257.6 L 96.7,266.5" style="fill:none;fill-rule:evenodd;stroke:#E5E5E5;stroke-width:1.8px;stroke-linecap:butt;stroke-linejoin:miter;stroke-opacity:1"/>
<path class="bond-5 atom-5 atom-6" d="M 124.8,263.4 L 98.2,271.5" style="fill:none;fill-rule:evenodd;stroke:#E5E5E5;stroke-width:1.8px;stroke-linecap:butt;stroke-linejoin:miter;stroke-opacity:1"/>
<path class="bond-6 atom-6 atom-1" d="M 93.2,268.2 L 85.6,301.0" style="fill:none;fill-rule:evenodd;stroke:#E5E5E5;stroke-width:1.8px;stroke-linecap:butt;stroke-linejoin:miter;stroke-opacity:1"/>
<path d="M 109.4,323.2 L 110.6,324.4 L 112.2,323.9" style="fill:none;stroke:#000000;stroke-width:2.0px;stroke-linecap:butt;stroke-linejoin:miter;stroke-miterlimit:10;stroke-opacity:1;"/>
<path d="M 141.8,314.9 L 143.4,314.4 L 143.8,312.8" style="fill:none;stroke:#000000;stroke-width:2.0px;stroke-linecap:butt;stroke-linejoin:miter;stroke-miterlimit:10;stroke-opacity:1;"/>
<path d="M 150.8,282.7 L 151.2,281.0 L 149.9,279.8" style="fill:none;stroke:#000000;stroke-width:2.0px;stroke-linecap:butt;stroke-linejoin:miter;stroke-miterlimit:10;stroke-opacity:1;"/>
<path d="M 126.8,258.2 L 126.1,257.6 L 125.4,257.8" style="fill:none;stroke:#000000;stroke-width:2.0px;stroke-linecap:butt;stroke-linejoin:miter;stroke-miterlimit:10;stroke-opacity:1;"/>
<path class="atom-0" d="M 42.4 302.8 L 43.8 301.4 L 42.0 301.0 L 42.2 300.0 L 44.0 300.9 L 43.7 299.0 L 44.8 299.0 L 44.5 300.9 L 46.3 300.1 L 46.6 301.0 L 44.6 301.4 L 46.0 302.8 L 45.2 303.4 L 44.2 301.6 L 43.3 303.4 L 42.4 302.8 " fill="#191919"/>
<path class="atom-0" d="M 47.6 299.2 L 48.9 299.2 L 48.9 303.3 L 53.9 303.3 L 53.9 299.2 L 55.2 299.2 L 55.2 308.9 L 53.9 308.9 L 53.9 304.4 L 48.9 304.4 L 48.9 308.9 L 47.6 308.9 L 47.6 299.2 " fill="#191919"/>
<path class="atom-6" d="M 91.5 266.5 L 92.9 265.0 L 91.0 264.6 L 91.3 263.7 L 93.0 264.6 L 92.8 262.6 L 93.8 262.6 L 93.5 264.5 L 95.3 263.7 L 95.6 264.6 L 93.7 265.0 L 95.1 266.5 L 94.2 267.1 L 93.3 265.3 L 92.3 267.1 L 91.5 266.5 " fill="#191919"/>
<path class="legend" d="M 10.0 379.6 L 14.8 379.6 L 14.8 380.6 L 11.1 380.6 L 11.1 383.0 L 14.4 383.0 L 14.4 384.0 L 11.1 384.0 L 11.1 387.8 L 10.0 387.8 L 10.0 379.6 " fill="#000000"/>
<path class="legend" d="M 15.5 384.8 Q 15.5 383.4, 16.2 382.6 Q 16.9 381.8, 18.3 381.8 Q 19.6 381.8, 20.1 382.5 Q 20.7 383.3, 20.7 384.8 L 20.7 385.0 L 16.6 385.0 Q 16.6 386.0, 17.1 386.5 Q 17.5 387.0, 18.4 387.0 Q 18.8 387.0, 19.2 386.9 Q 19.7 386.8, 20.2 386.6 L 20.5 387.3 Q 19.9 387.6, 19.4 387.7 Q 18.8 387.9, 18.3 387.9 Q 17.0 387.9, 16.2 387.1 Q 15.5 386.3, 15.5 384.8 M 18.3 382.6 Q 17.6 382.6, 17.2 383.0 Q 16.8 383.4, 16.6 384.1 L 19.6 384.1 Q 19.5 383.4, 19.2 383.0 Q 18.9 382.6, 18.3 382.6 " fill="#000000"/>
<path class="legend" d="M 21.5 386.2 Q 21.5 385.2, 22.3 384.7 Q 23.1 384.2, 24.5 384.2 L 25.3 384.2 L 25.3 384.0 Q 25.3 383.2, 25.0 382.9 Q 24.7 382.6, 24.0 382.6 Q 23.5 382.6, 23.1 382.7 Q 22.8 382.8, 22.2 383.0 L 21.9 382.3 Q 23.0 381.8, 24.0 381.8 Q 25.3 381.8, 25.8 382.3 Q 26.4 382.8, 26.4 384.0 L 26.4 387.8 L 25.6 387.8 Q 25.6 387.7, 25.5 387.6 Q 25.5 387.4, 25.4 387.1 Q 24.6 387.9, 23.5 387.9 Q 22.6 387.9, 22.1 387.4 Q 21.5 387.0, 21.5 386.2 M 22.6 386.2 Q 22.6 386.6, 22.9 386.8 Q 23.2 387.1, 23.7 387.1 Q 24.2 387.1, 24.6 386.9 Q 25.0 386.6, 25.3 386.3 L 25.3 385.0 L 24.5 385.0 Q 23.6 385.0, 23.1 385.3 Q 22.6 385.6, 22.6 386.2 " fill="#000000"/>
<path class="legend" d="M 27.7 382.7 L 27.7 381.9 L 28.8 381.9 L 29.0 380.1 L 29.8 380.1 L 29.8 381.9 L 31.6 381.9 L 31.6 382.7 L 29.8 382.7 L 29.8 386.0 Q 29.8 387.0, 30.7 387.0 Q 31.0 387.0, 31.5 386.8 L 31.7 387.6 Q 31.1 387.8, 30.5 387.8 Q 29.7 387.8, 29.2 387.4 Q 28.7 386.9, 28.7 386.0 L 28.7 382.7 L 27.7 382.7 " fill="#000000"/>
<path class="legend" d="M 37.4 381.9 L 37.4 387.8 L 36.5 387.8 L 36.4 387.0 Q 35.6 387.9, 34.4 387.9 Q 33.4 387.9, 32.9 387.4 Q 32.4 386.8, 32.4 385.8 L 32.4 381.9 L 33.5 381.9 L 33.5 385.7 Q 33.5 386.4, 33.7 386.7 Q 34.0 387.0, 34.6 387.0 Q 35.1 387.0, 35.6 386.8 Q 36.0 386.5, 36.3 386.1 L 36.3 381.9 L 37.4 381.9 " fill="#000000"/>
<path class="legend" d="M 39.6 381.9 L 39.7 382.7 Q 40.4 381.8, 41.4 381.8 Q 41.7 381.8, 42.1 381.9 L 42.0 382.8 Q 41.5 382.7, 41.2 382.7 Q 40.7 382.7, 40.4 382.9 Q 40.1 383.1, 39.8 383.6 L 39.8 387.8 L 38.7 387.8 L 38.7 381.9 L 39.6 381.9 " fill="#000000"/>
<path class="legend" d="M 42.7 384.8 Q 42.7 383.4, 43.4 382.6 Q 44.1 381.8, 45.5 381.8 Q 46.8 381.8, 47.3 382.5 Q 47.9 383.3, 47.9 384.8 L 47.9 385.0 L 43.8 385.0 Q 43.8 386.0, 44.3 386.5 Q 44.7 387.0, 45.6 387.0 Q 46.0 387.0, 46.4 386.9 Q 46.9 386.8, 47.4 386.6 L 47.7 387.3 Q 47.1 387.6, 46.6 387.7 Q 46.0 387.9, 45.5 387.9 Q 44.2 387.9, 43.4 387.1 Q 42.7 386.3, 42.7 384.8 M 45.5 382.6 Q 44.8 382.6, 44.4 383.0 Q 44.0 383.4, 43.8 384.1 L 46.8 384.1 Q 46.7 383.4, 46.4 383.0 Q 46.1 382.6, 45.5 382.6 " fill="#000000"/>
<path class="legend" d="" fill="#000000"/>
<path class="legend" d="M 53.4 386.9 L 55.2 386.9 L 55.2 380.8 L 53.2 381.4 L 53.0 380.7 L 55.5 379.6 L 56.3 379.7 L 56.3 386.9 L 57.9 386.9 L 57.9 387.8 L 53.4 387.8 L 53.4 386.9 " fill="#000000"/>
<path class="legend" d="M 59.2 386.9 L 61.0 386.9 L 61.0 380.8 L 59.0 381.4 L 58.7 380.7 L 61.2 379.6 L 62.1 379.7 L 62.1 386.9 L 63.7 386.9 L 63.7 387.8 L 59.2 387.8 L 59.2 386.9 " fill="#000000"/>
<path class="legend" d="M 67.3 379.5 Q 68.7 379.5, 69.4 380.5 Q 70.2 381.5, 70.2 383.5 Q 70.2 385.6, 69.3 386.8 Q 68.4 387.9, 66.6 387.9 Q 66.1 387.9, 65.7 387.8 Q 65.3 387.6, 64.9 387.4 L 65.3 386.6 Q 65.9 386.9, 66.6 386.9 Q 67.8 386.9, 68.4 386.2 Q 69.0 385.5, 69.0 383.9 Q 68.6 384.3, 68.1 384.5 Q 67.6 384.7, 67.0 384.7 Q 66.3 384.7, 65.7 384.4 Q 65.2 384.1, 64.8 383.5 Q 64.5 383.0, 64.5 382.2 Q 64.5 381.5, 64.9 380.8 Q 65.2 380.2, 65.9 379.9 Q 66.5 379.5, 67.3 379.5 M 65.7 382.2 Q 65.7 383.0, 66.1 383.4 Q 66.5 383.8, 67.2 383.8 Q 67.7 383.8, 68.2 383.6 Q 68.7 383.4, 69.0 383.0 Q 69.0 381.7, 68.5 381.1 Q 68.1 380.5, 67.3 380.5 Q 66.8 380.5, 66.5 380.7 Q 66.1 380.9, 65.9 381.3 Q 65.7 381.7, 65.7 382.2 " fill="#000000"/>
<path class="legend" d="M 74.1 379.5 Q 75.5 379.5, 76.3 380.5 Q 77.0 381.5, 77.0 383.5 Q 77.0 385.6, 76.1 386.8 Q 75.2 387.9, 73.5 387.9 Q 72.9 387.9, 72.5 387.8 Q 72.1 387.6, 71.7 387.4 L 72.1 386.6 Q 72.7 386.9, 73.4 386.9 Q 74.6 386.9, 75.2 386.2 Q 75.8 385.5, 75.8 383.9 Q 75.4 384.3, 74.9 384.5 Q 74.4 384.7, 73.8 384.7 Q 73.1 384.7, 72.5 384.4 Q 72.0 384.1, 71.7 383.5 Q 71.3 383.0, 71.3 382.2 Q 71.3 381.5, 71.7 380.8 Q 72.1 380.2, 72.7 379.9 Q 73.3 379.5, 74.1 379.5 M 72.5 382.2 Q 72.5 383.0, 72.9 383.4 Q 73.3 383.8, 74.0 383.8 Q 74.5 383.8, 75.0 383.6 Q 75.5 383.4, 75.8 383.0 Q 75.8 381.7, 75.4 381.1 Q 74.9 380.5, 74.1 380.5 Q 73.6 380.5, 73.3 380.7 Q 72.9 380.9, 72.7 381.3 Q 72.5 381.7, 72.5 382.2 " fill="#000000"/>
<path class="legend" d="" fill="#000000"/>
<path class="legend" d="M 82.4 378.9 L 83.4 378.9 L 83.4 390.0 L 82.4 390.0 L 82.4 378.9 " fill="#000000"/>
<path class="legend" d="M 84.7 378.9 L 85.7 378.9 L 85.7 390.0 L 84.7 390.0 L 84.7 378.9 " fill="#000000"/>
<path class="legend" d="" fill="#000000"/>
<path class="legend" d="M 100.6 387.8 L 99.5 387.8 L 98.7 381.1 L 96.5 387.8 L 95.4 387.8 L 93.2 381.1 L 92.3 387.8 L 91.3 387.8 L 92.3 379.6 L 93.7 379.6 L 95.9 386.2 L 98.2 379.6 L 99.5 379.6 L 100.6 387.8 " fill="#000000"/>
<path class="legend" d="M 101.7 384.8 Q 101.7 383.4, 102.4 382.6 Q 103.2 381.8, 104.5 381.8 Q 105.8 381.8, 106.4 382.5 Q 107.0 383.3, 107.0 384.8 L 107.0 385.0 L 102.8 385.0 Q 102.8 386.0, 103.3 386.5 Q 103.7 387.0, 104.6 387.0 Q 105.0 387.0, 105.5 386.9 Q 105.9 386.8, 106.4 386.6 L 106.7 387.3 Q 106.1 387.6, 105.6 387.7 Q 105.1 387.9, 104.5 387.9 Q 103.2 387.9, 102.5 387.1 Q 101.7 386.3, 101.7 384.8 M 104.5 382.6 Q 103.8 382.6, 103.4 383.0 Q 103.0 383.4, 102.9 384.1 L 105.8 384.1 Q 105.7 383.4, 105.4 383.0 Q 105.1 382.6, 104.5 382.6 " fill="#000000"/>
<path class="legend" d="M 107.8 386.2 Q 107.8 385.2, 108.5 384.7 Q 109.3 384.2, 110.7 384.2 L 111.6 384.2 L 111.6 384.0 Q 111.6 383.2, 111.3 382.9 Q 111.0 382.6, 110.2 382.6 Q 109.7 382.6, 109.4 382.7 Q 109.0 382.8, 108.4 383.0 L 108.1 382.3 Q 109.2 381.8, 110.2 381.8 Q 111.5 381.8, 112.1 382.3 Q 112.6 382.8, 112.6 384.0 L 112.6 387.8 L 111.8 387.8 Q 111.8 387.7, 111.8 387.6 Q 111.7 387.4, 111.7 387.1 Q 110.8 387.9, 109.7 387.9 Q 108.8 387.9, 108.3 387.4 Q 107.8 387.0, 107.8 386.2 M 108.9 386.2 Q 108.9 386.6, 109.1 386.8 Q 109.4 387.1, 109.9 387.1 Q 110.4 387.1, 110.8 386.9 Q 111.3 386.6, 111.6 386.3 L 111.6 385.0 L 110.8 385.0 Q 109.8 385.0, 109.3 385.3 Q 108.9 385.6, 108.9 386.2 " fill="#000000"/>
<path class="legend" d="M 117.0 381.8 Q 117.9 381.8, 118.4 382.3 Q 118.9 382.8, 118.9 383.9 L 118.9 387.8 L 117.9 387.8 L 117.9 383.9 Q 117.9 383.2, 117.6 382.9 Q 117.3 382.6, 116.7 382.6 Q 116.2 382.6, 115.7 382.9 Q 115.3 383.1, 115.0 383.5 L 115.0 387.8 L 113.9 387.8 L 113.9 381.9 L 114.8 381.9 L 114.9 382.7 Q 115.7 381.8, 117.0 381.8 " fill="#000000"/>
<path class="legend" d="" fill="#000000"/>
<path class="legend" d="M 124.4 378.9 L 125.4 378.9 L 125.4 390.0 L 124.4 390.0 L 124.4 378.9 " fill="#000000"/>
<path class="legend" d="M 127.1 386.5 Q 127.2 386.5, 127.5 386.7 Q 127.9 386.9, 128.3 387.0 Q 128.8 387.1, 129.2 387.1 Q 130.0 387.1, 130.4 386.7 Q 130.9 386.3, 130.9 385.7 Q 130.9 385.2, 130.6 384.9 Q 130.4 384.7, 130.1 384.5 Q 129.7 384.4, 129.1 384.2 Q 128.4 384.0, 128.0 383.8 Q 127.5 383.6, 127.2 383.1 Q 126.9 382.7, 126.9 381.9 Q 126.9 380.9, 127.6 380.3 Q 128.3 379.6, 129.7 379.6 Q 130.7 379.6, 131.7 380.1 L 131.5 381.0 Q 130.5 380.6, 129.7 380.6 Q 129.0 380.6, 128.5 380.9 Q 128.1 381.2, 128.1 381.8 Q 128.1 382.2, 128.3 382.5 Q 128.5 382.8, 128.9 382.9 Q 129.2 383.1, 129.7 383.2 Q 130.5 383.5, 130.9 383.7 Q 131.4 383.9, 131.7 384.4 Q 132.0 384.9, 132.0 385.7 Q 132.0 386.8, 131.2 387.4 Q 130.5 388.0, 129.2 388.0 Q 128.5 388.0, 127.9 387.8 Q 127.4 387.7, 126.8 387.4 L 127.1 386.5 " fill="#000000"/>
<path class="legend" d="M 132.9 379.6 L 134.0 379.6 L 134.0 383.1 L 138.2 383.1 L 138.2 379.6 L 139.3 379.6 L 139.3 387.8 L 138.2 387.8 L 138.2 384.0 L 134.0 384.0 L 134.0 387.8 L 132.9 387.8 L 132.9 379.6 " fill="#000000"/>
<path class="legend" d="M 146.7 387.8 L 145.8 385.4 L 142.6 385.4 L 141.8 387.8 L 140.7 387.8 L 143.5 379.6 L 144.8 379.6 L 147.7 387.8 L 146.7 387.8 M 142.9 384.5 L 145.5 384.5 L 144.2 380.8 L 142.9 384.5 " fill="#000000"/>
<path class="legend" d="M 150.7 379.6 Q 152.1 379.6, 152.8 380.3 Q 153.5 380.9, 153.5 382.0 Q 153.5 383.1, 152.7 383.8 Q 152.0 384.4, 150.7 384.4 L 149.4 384.4 L 149.4 387.8 L 148.3 387.8 L 148.3 379.6 L 150.7 379.6 M 150.7 383.5 Q 151.5 383.5, 151.9 383.1 Q 152.3 382.7, 152.3 382.0 Q 152.3 381.3, 151.9 380.9 Q 151.5 380.5, 150.7 380.5 L 149.4 380.5 L 149.4 383.5 L 150.7 383.5 " fill="#000000"/>
<path class="legend" d="M 154.4 378.9 L 155.4 378.9 L 155.4 390.0 L 154.4 390.0 L 154.4 378.9 " fill="#000000"/>
<path class="legend" d="M 156.7 386.4 L 157.9 386.4 L 157.9 387.6 L 156.7 387.6 L 156.7 386.4 M 156.7 382.5 L 157.9 382.5 L 157.9 383.6 L 156.7 383.6 L 156.7 382.5 " fill="#000000"/>
<path class="legend" d="" fill="#000000"/>
<path class="legend" d="M 163.8 386.9 L 165.6 386.9 L 165.6 380.8 L 163.6 381.4 L 163.3 380.7 L 165.8 379.6 L 166.6 379.7 L 166.6 386.9 L 168.2 386.9 L 168.2 387.8 L 163.8 387.8 L 163.8 386.9 " fill="#000000"/>
<path class="legend" d="M 173.0 383.5 Q 173.8 383.7, 174.2 384.2 Q 174.6 384.7, 174.6 385.5 Q 174.6 386.2, 174.3 386.8 Q 173.9 387.3, 173.3 387.6 Q 172.6 387.9, 171.8 387.9 Q 170.9 387.9, 170.3 387.6 Q 169.6 387.3, 169.1 386.7 L 169.8 386.0 Q 170.3 386.5, 170.7 386.8 Q 171.1 387.0, 171.8 387.0 Q 172.5 387.0, 173.0 386.6 Q 173.4 386.2, 173.4 385.5 Q 173.4 384.7, 173.0 384.3 Q 172.5 384.0, 171.5 384.0 L 170.9 384.0 L 170.9 383.1 L 171.4 383.1 Q 172.3 383.1, 172.8 382.7 Q 173.3 382.3, 173.3 381.6 Q 173.3 381.1, 172.9 380.8 Q 172.5 380.5, 171.8 380.5 Q 171.1 380.5, 170.7 380.7 Q 170.3 380.9, 170.0 381.5 L 169.2 381.1 Q 169.5 380.4, 170.2 380.0 Q 170.9 379.5, 171.8 379.5 Q 173.0 379.5, 173.7 380.1 Q 174.4 380.7, 174.4 381.6 Q 174.4 382.3, 174.1 382.7 Q 173.7 383.2, 173.0 383.5 " fill="#000000"/>
<path class="legend" d="M 175.7 386.6 L 176.8 386.6 L 176.8 387.8 L 175.7 387.8 L 175.7 386.6 " fill="#000000"/>
<path class="legend" d="M 181.9 383.5 Q 182.7 383.7, 183.0 384.2 Q 183.4 384.7, 183.4 385.5 Q 183.4 386.2, 183.1 386.8 Q 182.7 387.3, 182.1 387.6 Q 181.5 387.9, 180.6 387.9 Q 179.8 387.9, 179.1 387.6 Q 178.5 387.3, 177.9 386.7 L 178.6 386.0 Q 179.1 386.5, 179.5 386.8 Q 180.0 387.0, 180.6 387.0 Q 181.4 387.0, 181.8 386.6 Q 182.3 386.2, 182.3 385.5 Q 182.3 384.7, 181.8 384.3 Q 181.3 384.0, 180.3 384.0 L 179.7 384.0 L 179.7 383.1 L 180.3 383.1 Q 181.2 383.1, 181.6 382.7 Q 182.1 382.3, 182.1 381.6 Q 182.1 381.1, 181.7 380.8 Q 181.3 380.5, 180.6 380.5 Q 180.0 380.5, 179.5 380.7 Q 179.1 380.9, 178.8 381.5 L 178.0 381.1 Q 178.3 380.4, 179.0 380.0 Q 179.7 379.5, 180.6 379.5 Q 181.8 379.5, 182.5 380.1 Q 183.2 380.7, 183.2 381.6 Q 183.2 382.3, 182.9 382.7 Q 182.5 383.2, 181.9 383.5 " fill="#000000"/>
<path class="legend" d="M 187.4 382.7 Q 188.2 382.7, 188.7 383.0 Q 189.3 383.3, 189.7 383.9 Q 190.0 384.4, 190.0 385.2 Q 190.0 386.0, 189.6 386.6 Q 189.2 387.2, 188.5 387.6 Q 187.8 387.9, 187.1 387.9 Q 186.3 387.9, 185.6 387.6 Q 185.0 387.3, 184.5 386.8 L 185.2 386.1 Q 185.6 386.5, 186.1 386.7 Q 186.6 386.9, 187.1 386.9 Q 187.8 386.9, 188.3 386.5 Q 188.8 386.0, 188.8 385.2 Q 188.8 384.4, 188.3 384.0 Q 187.8 383.5, 187.1 383.5 Q 186.3 383.5, 185.5 383.8 L 184.9 383.6 L 185.3 379.6 L 189.5 379.6 L 189.4 380.5 L 186.2 380.5 L 186.0 383.0 Q 186.7 382.7, 187.4 382.7 " fill="#000000"/>
<ellipse cx="246.1" cy="311.9" rx="6.9" ry="6.9" class="atom-1" style="fill:#CCCCCC;fill-rule:evenodd;stroke:#CCCCCC;stroke-width:1.0px;stroke-linecap:butt;stroke-linejoin:miter;stroke-opacity:1"/>
<ellipse cx="255.8" cy="253.3" rx="6.9" ry="6.9" class="atom-4" style="fill:#CCCCCC;fill-rule:evenodd;stroke:#CCCCCC;stroke-width:1.0px;stroke-linecap:butt;stroke-linejoin:miter;stroke-opacity:1"/>
<ellipse cx="267.9" cy="285.4" rx="6.9" ry="6.9" class="atom-5" style="fill:#CCCCCC;fill-rule:evenodd;stroke:#CCCCCC;stroke-width:1.0px;stroke-linecap:butt;stroke-linejoin:miter;stroke-opacity:1"/>
<ellipse cx="301.7" cy="290.9" rx="6.9" ry="6.9" class="atom-6" style="fill:#9999E5;fill-rule:evenodd;stroke:#9999E5;stroke-width:1.0px;stroke-linecap:butt;stroke-linejoin:miter;stroke-opacity:1"/>
<ellipse cx="357.3" cy="270.0" rx="6.9" ry="6.9" class="atom-8" style="fill:#CCCCCC;fill-rule:evenodd;stroke:#CCCCCC;stroke-width:1.0px;stroke-linecap:butt;stroke-linejoin:miter;stroke-opacity:1"/>
<path class="bond-0 atom-1 atom-0" d="M 247.6,314.9 L 247.0,315.1" style="fill:none;fill-rule:evenodd;stroke:#E5E5E5;stroke-width:1.0px;stroke-linecap:butt;stroke-linejoin:miter;stroke-opacity:1"/>
<path class="bond-0 atom-1 atom-0" d="M 249.1,317.9 L 247.9,318.3" style="fill:none;fill-rule:evenodd;stroke:#E5E5E5;stroke-width:1.0px;stroke-linecap:butt;stroke-linejoin:miter;stroke-opacity:1"/>
<path class="bond-0 atom-1 atom-0" d="M 250.6,320.9 L 248.8,321.6" style="fill:none;fill-rule:evenodd;stroke:#E5E5E5;stroke-width:1.0px;stroke-linecap:butt;stroke-linejoin:miter;stroke-opacity:1"/>
<path class="bond-0 atom-1 atom-0" d="M 252.0,323.9 L 249.6,324.8" style="fill:none;fill-rule:evenodd;stroke:#E5E5E5;stroke-width:1.0px;stroke-linecap:butt;stroke-linejoin:miter;stroke-opacity:1"/>
<path class="bond-0 atom-1 atom-0" d="M 253.5,326.9 L 250.5,328.0" style="fill:none;fill-rule:evenodd;stroke:#E5E5E5;stroke-width:1.0px;stroke-linecap:butt;stroke-linejoin:miter;stroke-opacity:1"/>
<path class="bond-0 atom-1 atom-0" d="M 255.0,329.9 L 251.4,331.2" style="fill:none;fill-rule:evenodd;stroke:#E5E5E5;stroke-width:1.0px;stroke-linecap:butt;stroke-linejoin:miter;stroke-opacity:1"/>
<path class="bond-0 atom-1 atom-0" d="M 256.5,332.9 L 252.3,334.5" style="fill:none;fill-rule:evenodd;stroke:#E5E5E5;stroke-width:1.0px;stroke-linecap:butt;stroke-linejoin:miter;stroke-opacity:1"/>
<path class="bond-0 atom-1 atom-0" d="M 257.9,335.9 L 253.1,337.7" style="fill:none;fill-rule:evenodd;stroke:#E5E5E5;stroke-width:1.0px;stroke-linecap:butt;stroke-linejoin:miter;stroke-opacity:1"/>
<path class="bond-1 atom-1 atom-2" d="M 246.1,311.9 L 215.7,306.9" style="fill:none;fill-rule:evenodd;stroke:#E5E5E5;stroke-width:1.8px;stroke-linecap:butt;stroke-linejoin:miter;stroke-opacity:1"/>
<path class="bond-2 atom-3 atom-4" d="M 231.4,249.6 L 231.5,248.9" style="fill:none;fill-rule:evenodd;stroke:#E5E5E5;stroke-width:1.0px;stroke-linecap:butt;stroke-linejoin:miter;stroke-opacity:1"/>
<path class="bond-2 atom-3 atom-4" d="M 234.8,250.6 L 235.1,249.1" style="fill:none;fill-rule:evenodd;stroke:#E5E5E5;stroke-width:1.0px;stroke-linecap:butt;stroke-linejoin:miter;stroke-opacity:1"/>
<path class="bond-2 atom-3 atom-4" d="M 238.2,251.5 L 238.6,249.3" style="fill:none;fill-rule:evenodd;stroke:#E5E5E5;stroke-width:1.0px;stroke-linecap:butt;stroke-linejoin:miter;stroke-opacity:1"/>
<path class="bond-2 atom-3 atom-4" d="M 241.6,252.4 L 242.1,249.5" style="fill:none;fill-rule:evenodd;stroke:#E5E5E5;stroke-width:1.0px;stroke-linecap:butt;stroke-linejoin:miter;stroke-opacity:1"/>
<path class="bond-2 atom-3 atom-4" d="M 245.1,253.4 L 245.6,249.7" style="fill:none;fill-rule:evenodd;stroke:#E5E5E5;stroke-width:1.0px;stroke-linecap:butt;stroke-linejoin:miter;stroke-opacity:1"/>
<path class="bond-2 atom-3 atom-4" d="M 248.5,254.3 L 249.2,249.9" style="fill:none;fill-rule:evenodd;stroke:#E5E5E5;stroke-width:1.0px;stroke-linecap:butt;stroke-linejoin:miter;stroke-opacity:1"/>
<path class="bond-2 atom-3 atom-4" d="M 251.9,255.2 L 252.7,250.2" style="fill:none;fill-rule:evenodd;stroke:#E5E5E5;stroke-width:1.0px;stroke-linecap:butt;stroke-linejoin:miter;stroke-opacity:1"/>
<path class="bond-3 atom-4 atom-5" d="M 255.8,253.3 L 265.6,279.4" style="fill:none;fill-rule:evenodd;stroke:#000000;stroke-width:2.0px;stroke-linecap:butt;stroke-linejoin:miter;stroke-opacity:1"/>
<path class="bond-4 atom-5 atom-6" d="M 272.7,286.2 L 301.7,290.9" style="fill:none;fill-rule:evenodd;stroke:#000000;stroke-width:2.0px;stroke-linecap:butt;stroke-linejoin:miter;stroke-opacity:1"/>
<path class="bond-5 atom-6 atom-7" d="M 301.7,290.9 L 323.5,264.4" style="fill:none;fill-rule:evenodd;stroke:#000000;stroke-width:2.0px;stroke-linecap:butt;stroke-linejoin:miter;stroke-opacity:1"/>
<path class="bond-6 atom-7 atom-8" d="M 323.5,264.4 L 352.5,269.2" style="fill:none;fill-rule:evenodd;stroke:#000000;stroke-width:2.0px;stroke-linecap:butt;stroke-linejoin:miter;stroke-opacity:1"/>
<path class="bond-7 atom-8 atom-9" d="M 359.6,276.0 L 367.1,296.0" style="fill:none;fill-rule:evenodd;stroke:#E5E5E5;stroke-width:1.8px;stroke-linecap:butt;stroke-linejoin:miter;stroke-opacity:1"/>
<path class="bond-8 atom-5 atom-1" d="M 263.1,291.2 L 246.1,311.9" style="fill:none;fill-rule:evenodd;stroke:#000000;stroke-width:2.0px;stroke-linecap:butt;stroke-linejoin:miter;stroke-opacity:1"/>
<path class="bond-9 atom-10 atom-8" d="M 375.2,247.5 L 375.9,248.0" style="fill:none;fill-rule:evenodd;stroke:#E5E5E5;stroke-width:1.0px;stroke-linecap:butt;stroke-linejoin:miter;stroke-opacity:1"/>
<path class="bond-9 atom-10 atom-8" d="M 372.8,249.7 L 374.2,250.8" style="fill:none;fill-rule:evenodd;stroke:#E5E5E5;stroke-width:1.0px;stroke-linecap:butt;stroke-linejoin:miter;stroke-opacity:1"/>
<path class="bond-9 atom-10 atom-8" d="M 370.5,251.9 L 372.4,253.6" style="fill:none;fill-rule:evenodd;stroke:#E5E5E5;stroke-width:1.0px;stroke-linecap:butt;stroke-linejoin:miter;stroke-opacity:1"/>
<path class="bond-9 atom-10 atom-8" d="M 368.1,254.2 L 370.7,256.4" style="fill:none;fill-rule:evenodd;stroke:#E5E5E5;stroke-width:1.0px;stroke-linecap:butt;stroke-linejoin:miter;stroke-opacity:1"/>
<path class="bond-9 atom-10 atom-8" d="M 365.7,256.4 L 369.0,259.1" style="fill:none;fill-rule:evenodd;stroke:#E5E5E5;stroke-width:1.0px;stroke-linecap:butt;stroke-linejoin:miter;stroke-opacity:1"/>
<path class="bond-9 atom-10 atom-8" d="M 363.3,258.7 L 367.2,261.9" style="fill:none;fill-rule:evenodd;stroke:#E5E5E5;stroke-width:1.0px;stroke-linecap:butt;stroke-linejoin:miter;stroke-opacity:1"/>
<path d="M 245.4,311.8 L 246.1,311.9 L 246.6,311.4" style="fill:none;stroke:#E5E5E5;stroke-width:1.8px;stroke-linecap:butt;stroke-linejoin:miter;stroke-miterlimit:10;stroke-opacity:1;"/>
<path d="M 300.3,290.7 L 301.7,290.9 L 302.8,289.6" style="fill:none;stroke:#000000;stroke-width:2.0px;stroke-linecap:butt;stroke-linejoin:miter;stroke-miterlimit:10;stroke-opacity:1;"/>
<path d="M 322.4,265.7 L 323.5,264.4 L 324.9,264.6" style="fill:none;stroke:#000000;stroke-width:2.0px;stroke-linecap:butt;stroke-linejoin:miter;stroke-miterlimit:10;stroke-opacity:1;"/>
<path class="atom-0" d="M 256.4 342.9 L 257.8 341.5 L 255.9 341.1 L 256.2 340.1 L 258.0 341.0 L 257.7 339.1 L 258.8 339.1 L 258.5 341.0 L 260.2 340.1 L 260.5 341.1 L 258.6 341.4 L 260.0 342.9 L 259.2 343.5 L 258.2 341.7 L 257.3 343.5 L 256.4 342.9 " fill="#191919"/>
<path class="atom-2" d="M 210.5 305.2 L 211.9 303.8 L 210.0 303.4 L 210.3 302.4 L 212.0 303.3 L 211.8 301.4 L 212.8 301.4 L 212.5 303.3 L 214.3 302.5 L 214.6 303.4 L 212.7 303.8 L 214.0 305.2 L 213.2 305.8 L 212.3 304.0 L 211.3 305.8 L 210.5 305.2 " fill="#191919"/>
<path class="atom-3" d="M 213.0 246.6 L 214.4 245.2 L 212.5 244.8 L 212.8 243.8 L 214.6 244.7 L 214.3 242.8 L 215.3 242.8 L 215.0 244.7 L 216.8 243.8 L 217.1 244.8 L 215.2 245.1 L 216.6 246.6 L 215.7 247.2 L 214.8 245.4 L 213.8 247.2 L 213.0 246.6 " fill="#191919"/>
<path class="atom-3" d="M 218.1 242.9 L 219.5 242.9 L 219.5 247.1 L 224.4 247.1 L 224.4 242.9 L 225.7 242.9 L 225.7 252.6 L 224.4 252.6 L 224.4 248.2 L 219.5 248.2 L 219.5 252.6 L 218.1 252.6 L 218.1 242.9 " fill="#191919"/>
<path class="atom-5" d="M 265.7 280.5 L 268.9 285.7 Q 269.2 286.2, 269.8 287.1 Q 270.3 288.0, 270.3 288.1 L 270.3 280.5 L 271.6 280.5 L 271.6 290.2 L 270.2 290.2 L 266.8 284.6 Q 266.4 283.9, 266.0 283.2 Q 265.6 282.4, 265.5 282.2 L 265.5 290.2 L 264.2 290.2 L 264.2 280.5 L 265.7 280.5 " fill="#000000"/>
<path class="atom-8" d="M 355.2 265.1 L 358.4 270.3 Q 358.7 270.8, 359.2 271.7 Q 359.7 272.6, 359.7 272.7 L 359.7 265.1 L 361.0 265.1 L 361.0 274.8 L 359.7 274.8 L 356.3 269.2 Q 355.9 268.5, 355.4 267.8 Q 355.0 267.0, 354.9 266.8 L 354.9 274.8 L 353.6 274.8 L 353.6 265.1 L 355.2 265.1 " fill="#000000"/>
<path class="atom-9" d="M 367.6 301.0 L 369.0 299.5 L 367.1 299.1 L 367.4 298.2 L 369.2 299.1 L 368.9 297.1 L 369.9 297.1 L 369.7 299.0 L 371.4 298.2 L 371.7 299.1 L 369.8 299.5 L 371.2 301.0 L 370.3 301.6 L 369.4 299.8 L 368.4 301.6 L 367.6 301.0 " fill="#191919"/>
<path class="atom-10" d="M 377.2 242.4 L 378.7 240.9 L 376.8 240.5 L 377.1 239.5 L 378.8 240.4 L 378.6 238.5 L 379.6 238.5 L 379.3 240.4 L 381.1 239.6 L 381.4 240.5 L 379.5 240.9 L 380.8 242.3 L 380.0 242.9 L 379.0 241.1 L 378.1 242.9 L 377.2 242.4 " fill="#191919"/>
<path class="atom-10" d="M 382.4 238.7 L 383.7 238.7 L 383.7 242.8 L 388.7 242.8 L 388.7 238.7 L 390.0 238.7 L 390.0 248.4 L 388.7 248.4 L 388.7 243.9 L 383.7 243.9 L 383.7 248.4 L 382.4 248.4 L 382.4 238.7 " fill="#191919"/>
<path class="legend" d="M 210.0 379.7 L 214.8 379.7 L 214.8 380.6 L 211.1 380.6 L 211.1 383.1 L 214.4 383.1 L 214.4 384.0 L 211.1 384.0 L 211.1 387.8 L 210.0 387.8 L 210.0 379.7 " fill="#000000"/>
<path class="legend" d="M 215.5 384.8 Q 215.5 383.4, 216.2 382.6 Q 216.9 381.8, 218.2 381.8 Q 219.5 381.8, 220.1 382.6 Q 220.7 383.3, 220.7 384.8 L 220.7 385.0 L 216.6 385.0 Q 216.6 386.0, 217.0 386.5 Q 217.5 387.0, 218.3 387.0 Q 218.8 387.0, 219.2 386.9 Q 219.6 386.8, 220.1 386.6 L 220.4 387.3 Q 219.9 387.6, 219.3 387.8 Q 218.8 387.9, 218.3 387.9 Q 216.9 387.9, 216.2 387.1 Q 215.5 386.3, 215.5 384.8 M 218.2 382.6 Q 217.5 382.6, 217.1 383.0 Q 216.7 383.4, 216.6 384.2 L 219.5 384.2 Q 219.5 383.4, 219.1 383.0 Q 218.8 382.6, 218.2 382.6 " fill="#000000"/>
<path class="legend" d="M 221.5 386.2 Q 221.5 385.3, 222.3 384.7 Q 223.0 384.2, 224.4 384.2 L 225.3 384.2 L 225.3 384.0 Q 225.3 383.3, 225.0 382.9 Q 224.7 382.6, 223.9 382.6 Q 223.5 382.6, 223.1 382.7 Q 222.7 382.8, 222.1 383.1 L 221.8 382.3 Q 222.9 381.8, 223.9 381.8 Q 225.2 381.8, 225.8 382.3 Q 226.3 382.9, 226.3 384.0 L 226.3 387.8 L 225.5 387.8 Q 225.5 387.7, 225.5 387.6 Q 225.4 387.4, 225.4 387.1 Q 224.5 387.9, 223.4 387.9 Q 222.5 387.9, 222.0 387.5 Q 221.5 387.0, 221.5 386.2 M 222.6 386.2 Q 222.6 386.6, 222.8 386.8 Q 223.1 387.1, 223.6 387.1 Q 224.1 387.1, 224.5 386.9 Q 225.0 386.7, 225.3 386.3 L 225.3 385.0 L 224.5 385.0 Q 223.5 385.0, 223.0 385.3 Q 222.6 385.6, 222.6 386.2 " fill="#000000"/>
<path class="legend" d="M 227.6 382.7 L 227.6 381.9 L 228.7 381.9 L 228.9 380.2 L 229.7 380.2 L 229.7 381.9 L 231.5 381.9 L 231.5 382.7 L 229.7 382.7 L 229.7 386.0 Q 229.7 387.0, 230.6 387.0 Q 230.9 387.0, 231.4 386.8 L 231.6 387.6 Q 231.0 387.9, 230.4 387.9 Q 229.6 387.9, 229.1 387.4 Q 228.6 386.9, 228.6 386.0 L 228.6 382.7 L 227.6 382.7 " fill="#000000"/>
<path class="legend" d="M 237.3 381.9 L 237.3 387.8 L 236.4 387.8 L 236.3 387.0 Q 235.5 387.9, 234.3 387.9 Q 233.3 387.9, 232.8 387.4 Q 232.3 386.8, 232.3 385.8 L 232.3 381.9 L 233.4 381.9 L 233.4 385.7 Q 233.4 386.4, 233.6 386.7 Q 233.9 387.0, 234.5 387.0 Q 235.0 387.0, 235.5 386.8 Q 235.9 386.5, 236.2 386.1 L 236.2 381.9 L 237.3 381.9 " fill="#000000"/>
<path class="legend" d="M 239.5 381.9 L 239.6 382.7 Q 240.2 381.8, 241.2 381.8 Q 241.6 381.8, 242.0 381.9 L 241.8 382.9 Q 241.3 382.8, 241.1 382.8 Q 240.6 382.8, 240.2 382.9 Q 239.9 383.1, 239.7 383.6 L 239.7 387.8 L 238.6 387.8 L 238.6 381.9 L 239.5 381.9 " fill="#000000"/>
<path class="legend" d="M 242.5 384.8 Q 242.5 383.4, 243.3 382.6 Q 244.0 381.8, 245.3 381.8 Q 246.6 381.8, 247.2 382.6 Q 247.8 383.3, 247.8 384.8 L 247.8 385.0 L 243.6 385.0 Q 243.7 386.0, 244.1 386.5 Q 244.6 387.0, 245.4 387.0 Q 245.9 387.0, 246.3 386.9 Q 246.7 386.8, 247.2 386.6 L 247.5 387.3 Q 246.9 387.6, 246.4 387.8 Q 245.9 387.9, 245.3 387.9 Q 244.0 387.9, 243.3 387.1 Q 242.5 386.3, 242.5 384.8 M 245.3 382.6 Q 244.6 382.6, 244.2 383.0 Q 243.8 383.4, 243.7 384.2 L 246.6 384.2 Q 246.5 383.4, 246.2 383.0 Q 245.9 382.6, 245.3 382.6 " fill="#000000"/>
<path class="legend" d="" fill="#000000"/>
<path class="legend" d="M 252.8 381.2 Q 253.1 380.4, 253.8 380.0 Q 254.5 379.6, 255.5 379.6 Q 256.7 379.6, 257.4 380.2 Q 258.1 380.9, 258.1 382.1 Q 258.1 383.3, 257.2 384.4 Q 256.3 385.5, 254.5 386.9 L 258.3 386.9 L 258.3 387.8 L 252.8 387.8 L 252.8 387.0 Q 254.3 385.9, 255.2 385.1 Q 256.1 384.3, 256.5 383.6 Q 257.0 382.9, 257.0 382.1 Q 257.0 381.4, 256.6 380.9 Q 256.2 380.5, 255.5 380.5 Q 254.9 380.5, 254.4 380.8 Q 254.0 381.0, 253.7 381.6 L 252.8 381.2 " fill="#000000"/>
<path class="legend" d="M 262.3 387.9 Q 260.8 387.9, 260.1 386.8 Q 259.3 385.7, 259.3 383.7 Q 259.3 381.8, 260.1 380.7 Q 260.8 379.6, 262.3 379.6 Q 263.8 379.6, 264.5 380.7 Q 265.3 381.8, 265.3 383.7 Q 265.3 385.7, 264.5 386.8 Q 263.8 387.9, 262.3 387.9 M 262.3 387.0 Q 263.2 387.0, 263.6 386.1 Q 264.1 385.3, 264.1 383.7 Q 264.1 382.1, 263.6 381.3 Q 263.2 380.5, 262.3 380.5 Q 261.4 380.5, 260.9 381.3 Q 260.5 382.1, 260.5 383.7 Q 260.5 385.3, 260.9 386.1 Q 261.4 387.0, 262.3 387.0 " fill="#000000"/>
<path class="legend" d="M 266.8 386.9 L 268.6 386.9 L 268.6 380.8 L 266.7 381.4 L 266.4 380.7 L 268.9 379.6 L 269.7 379.8 L 269.7 386.9 L 271.3 386.9 L 271.3 387.8 L 266.8 387.8 L 266.8 386.9 " fill="#000000"/>
<path class="legend" d="M 276.0 383.5 Q 276.8 383.7, 277.2 384.3 Q 277.6 384.8, 277.6 385.6 Q 277.6 386.3, 277.3 386.8 Q 276.9 387.3, 276.3 387.6 Q 275.7 387.9, 274.8 387.9 Q 274.0 387.9, 273.3 387.6 Q 272.7 387.3, 272.1 386.7 L 272.8 386.0 Q 273.3 386.6, 273.7 386.8 Q 274.2 387.0, 274.8 387.0 Q 275.6 387.0, 276.0 386.6 Q 276.5 386.2, 276.5 385.6 Q 276.5 384.7, 276.0 384.4 Q 275.5 384.0, 274.5 384.0 L 273.9 384.0 L 273.9 383.2 L 274.5 383.2 Q 275.3 383.1, 275.8 382.8 Q 276.3 382.4, 276.3 381.7 Q 276.3 381.1, 275.9 380.8 Q 275.5 380.5, 274.8 380.5 Q 274.2 380.5, 273.7 380.7 Q 273.3 381.0, 273.0 381.6 L 272.2 381.2 Q 272.5 380.5, 273.2 380.0 Q 273.9 379.6, 274.8 379.6 Q 276.0 379.6, 276.7 380.1 Q 277.4 380.7, 277.4 381.7 Q 277.4 382.3, 277.1 382.8 Q 276.7 383.2, 276.0 383.5 " fill="#000000"/>
<path class="legend" d="" fill="#000000"/>
<path class="legend" d="M 282.9 378.9 L 283.8 378.9 L 283.8 390.0 L 282.9 390.0 L 282.9 378.9 " fill="#000000"/>
<path class="legend" d="M 285.2 378.9 L 286.1 378.9 L 286.1 390.0 L 285.2 390.0 L 285.2 378.9 " fill="#000000"/>
<path class="legend" d="" fill="#000000"/>
<path class="legend" d="M 301.0 387.8 L 299.9 387.8 L 299.1 381.1 L 296.9 387.8 L 295.8 387.8 L 293.6 381.1 L 292.7 387.8 L 291.7 387.8 L 292.7 379.7 L 294.1 379.7 L 296.3 386.2 L 298.6 379.7 L 299.9 379.7 L 301.0 387.8 " fill="#000000"/>
<path class="legend" d="M 302.1 384.8 Q 302.1 383.4, 302.8 382.6 Q 303.6 381.8, 304.9 381.8 Q 306.2 381.8, 306.7 382.6 Q 307.3 383.3, 307.3 384.8 L 307.3 385.0 L 303.2 385.0 Q 303.2 386.0, 303.7 386.5 Q 304.1 387.0, 305.0 387.0 Q 305.4 387.0, 305.8 386.9 Q 306.3 386.8, 306.8 386.6 L 307.1 387.3 Q 306.5 387.6, 306.0 387.8 Q 305.5 387.9, 304.9 387.9 Q 303.6 387.9, 302.8 387.1 Q 302.1 386.3, 302.1 384.8 M 304.9 382.6 Q 304.2 382.6, 303.8 383.0 Q 303.4 383.4, 303.3 384.2 L 306.2 384.2 Q 306.1 383.4, 305.8 383.0 Q 305.5 382.6, 304.9 382.6 " fill="#000000"/>
<path class="legend" d="M 308.1 386.2 Q 308.1 385.3, 308.9 384.7 Q 309.7 384.2, 311.0 384.2 L 311.9 384.2 L 311.9 384.0 Q 311.9 383.3, 311.6 382.9 Q 311.3 382.6, 310.6 382.6 Q 310.1 382.6, 309.7 382.7 Q 309.4 382.8, 308.8 383.1 L 308.5 382.3 Q 309.6 381.8, 310.6 381.8 Q 311.8 381.8, 312.4 382.3 Q 313.0 382.9, 313.0 384.0 L 313.0 387.8 L 312.2 387.8 Q 312.1 387.7, 312.1 387.6 Q 312.1 387.4, 312.0 387.1 Q 311.2 387.9, 310.1 387.9 Q 309.2 387.9, 308.7 387.5 Q 308.1 387.0, 308.1 386.2 M 309.2 386.2 Q 309.2 386.6, 309.5 386.8 Q 309.8 387.1, 310.3 387.1 Q 310.7 387.1, 311.2 386.9 Q 311.6 386.7, 311.9 386.3 L 311.9 385.0 L 311.1 385.0 Q 310.2 385.0, 309.7 385.3 Q 309.2 385.6, 309.2 386.2 " fill="#000000"/>
<path class="legend" d="M 317.3 381.8 Q 318.3 381.8, 318.8 382.3 Q 319.3 382.9, 319.3 383.9 L 319.3 387.8 L 318.2 387.8 L 318.2 384.0 Q 318.2 383.3, 317.9 383.0 Q 317.6 382.6, 317.1 382.6 Q 316.5 382.6, 316.1 382.9 Q 315.6 383.1, 315.3 383.6 L 315.3 387.8 L 314.3 387.8 L 314.3 381.9 L 315.1 381.9 L 315.3 382.7 Q 316.1 381.8, 317.3 381.8 " fill="#000000"/>
<path class="legend" d="" fill="#000000"/>
<path class="legend" d="M 324.7 378.9 L 325.7 378.9 L 325.7 390.0 L 324.7 390.0 L 324.7 378.9 " fill="#000000"/>
<path class="legend" d="M 327.4 386.5 Q 327.5 386.6, 327.8 386.7 Q 328.2 386.9, 328.6 387.0 Q 329.0 387.1, 329.5 387.1 Q 330.2 387.1, 330.7 386.7 Q 331.1 386.3, 331.1 385.7 Q 331.1 385.2, 330.9 385.0 Q 330.7 384.7, 330.3 384.5 Q 330.0 384.4, 329.4 384.2 Q 328.7 384.0, 328.3 383.8 Q 327.8 383.6, 327.5 383.1 Q 327.2 382.7, 327.2 382.0 Q 327.2 381.0, 327.9 380.3 Q 328.6 379.7, 330.0 379.7 Q 330.9 379.7, 332.0 380.1 L 331.7 381.0 Q 330.8 380.6, 330.0 380.6 Q 329.2 380.6, 328.8 381.0 Q 328.4 381.3, 328.4 381.8 Q 328.4 382.3, 328.6 382.5 Q 328.8 382.8, 329.1 382.9 Q 329.5 383.1, 330.0 383.3 Q 330.8 383.5, 331.2 383.7 Q 331.6 384.0, 331.9 384.4 Q 332.3 384.9, 332.3 385.7 Q 332.3 386.8, 331.5 387.4 Q 330.8 388.0, 329.5 388.0 Q 328.8 388.0, 328.2 387.8 Q 327.7 387.7, 327.1 387.4 L 327.4 386.5 " fill="#000000"/>
<path class="legend" d="M 333.2 379.7 L 334.3 379.7 L 334.3 383.1 L 338.4 383.1 L 338.4 379.7 L 339.5 379.7 L 339.5 387.8 L 338.4 387.8 L 338.4 384.0 L 334.3 384.0 L 334.3 387.8 L 333.2 387.8 L 333.2 379.7 " fill="#000000"/>
<path class="legend" d="M 346.9 387.8 L 346.0 385.4 L 342.8 385.4 L 342.0 387.8 L 340.9 387.8 L 343.7 379.7 L 345.0 379.7 L 347.9 387.8 L 346.9 387.8 M 343.1 384.5 L 345.7 384.5 L 344.4 380.8 L 343.1 384.5 " fill="#000000"/>
<path class="legend" d="M 350.9 379.7 Q 352.2 379.7, 352.9 380.3 Q 353.6 380.9, 353.6 382.1 Q 353.6 383.2, 352.9 383.8 Q 352.2 384.5, 350.9 384.5 L 349.6 384.5 L 349.6 387.8 L 348.5 387.8 L 348.5 379.7 L 350.9 379.7 M 350.9 383.5 Q 351.6 383.5, 352.1 383.2 Q 352.5 382.8, 352.5 382.1 Q 352.5 381.3, 352.1 381.0 Q 351.7 380.6, 350.9 380.6 L 349.6 380.6 L 349.6 383.5 L 350.9 383.5 " fill="#000000"/>
<path class="legend" d="M 354.6 378.9 L 355.5 378.9 L 355.5 390.0 L 354.6 390.0 L 354.6 378.9 " fill="#000000"/>
<path class="legend" d="M 356.9 386.4 L 358.0 386.4 L 358.0 387.6 L 356.9 387.6 L 356.9 386.4 M 356.9 382.5 L 358.0 382.5 L 358.0 383.6 L 356.9 383.6 L 356.9 382.5 " fill="#000000"/>
<path class="legend" d="" fill="#000000"/>
<path class="legend" d="M 363.9 386.9 L 365.7 386.9 L 365.7 380.8 L 363.7 381.4 L 363.5 380.7 L 366.0 379.6 L 366.8 379.8 L 366.8 386.9 L 368.4 386.9 L 368.4 387.8 L 363.9 387.8 L 363.9 386.9 " fill="#000000"/>
<path class="legend" d="M 373.1 383.5 Q 373.9 383.7, 374.3 384.3 Q 374.7 384.8, 374.7 385.6 Q 374.7 386.3, 374.3 386.8 Q 374.0 387.3, 373.4 387.6 Q 372.7 387.9, 371.9 387.9 Q 371.0 387.9, 370.4 387.6 Q 369.7 387.3, 369.2 386.7 L 369.9 386.0 Q 370.4 386.6, 370.8 386.8 Q 371.2 387.0, 371.9 387.0 Q 372.6 387.0, 373.1 386.6 Q 373.5 386.2, 373.5 385.6 Q 373.5 384.7, 373.1 384.4 Q 372.6 384.0, 371.6 384.0 L 371.0 384.0 L 371.0 383.2 L 371.5 383.2 Q 372.4 383.1, 372.9 382.8 Q 373.4 382.4, 373.4 381.7 Q 373.4 381.1, 373.0 380.8 Q 372.6 380.5, 371.9 380.5 Q 371.2 380.5, 370.8 380.7 Q 370.4 381.0, 370.1 381.6 L 369.3 381.2 Q 369.6 380.5, 370.3 380.0 Q 371.0 379.6, 371.9 379.6 Q 373.1 379.6, 373.8 380.1 Q 374.5 380.7, 374.5 381.7 Q 374.5 382.3, 374.2 382.8 Q 373.8 383.2, 373.1 383.5 " fill="#000000"/>
<path class="legend" d="M 375.7 386.6 L 376.9 386.6 L 376.9 387.8 L 375.7 387.8 L 375.7 386.6 " fill="#000000"/>
<path class="legend" d="M 381.9 383.5 Q 382.7 383.7, 383.1 384.3 Q 383.5 384.8, 383.5 385.6 Q 383.5 386.3, 383.1 386.8 Q 382.8 387.3, 382.2 387.6 Q 381.5 387.9, 380.7 387.9 Q 379.8 387.9, 379.2 387.6 Q 378.5 387.3, 378.0 386.7 L 378.7 386.0 Q 379.2 386.6, 379.6 386.8 Q 380.0 387.0, 380.7 387.0 Q 381.4 387.0, 381.9 386.6 Q 382.3 386.2, 382.3 385.6 Q 382.3 384.7, 381.9 384.4 Q 381.4 384.0, 380.4 384.0 L 379.8 384.0 L 379.8 383.2 L 380.3 383.2 Q 381.2 383.1, 381.7 382.8 Q 382.2 382.4, 382.2 381.7 Q 382.2 381.1, 381.8 380.8 Q 381.4 380.5, 380.7 380.5 Q 380.0 380.5, 379.6 380.7 Q 379.2 381.0, 378.9 381.6 L 378.1 381.2 Q 378.4 380.5, 379.1 380.0 Q 379.7 379.6, 380.7 379.6 Q 381.9 379.6, 382.6 380.1 Q 383.3 380.7, 383.3 381.7 Q 383.3 382.3, 382.9 382.8 Q 382.6 383.2, 381.9 383.5 " fill="#000000"/>
<path class="legend" d="M 384.6 381.2 Q 384.9 380.4, 385.6 380.0 Q 386.3 379.6, 387.3 379.6 Q 388.5 379.6, 389.2 380.2 Q 389.9 380.9, 389.9 382.1 Q 389.9 383.3, 389.0 384.4 Q 388.1 385.5, 386.3 386.9 L 390.0 386.9 L 390.0 387.8 L 384.5 387.8 L 384.5 387.0 Q 386.0 385.9, 386.9 385.1 Q 387.8 384.3, 388.3 383.6 Q 388.7 382.9, 388.7 382.1 Q 388.7 381.4, 388.3 380.9 Q 387.9 380.5, 387.3 380.5 Q 386.6 380.5, 386.2 380.8 Q 385.7 381.0, 385.4 381.6 L 384.6 381.2 " fill="#000000"/>
<ellipse cx="502.1" cy="283.2" rx="6.9" ry="6.9" class="atom-1" style="fill:#9999E5;fill-rule:evenodd;stroke:#9999E5;stroke-width:1.0px;stroke-linecap:butt;stroke-linejoin:miter;stroke-opacity:1"/>
<path class="bond-0 atom-0 atom-1" d="M 522.5,305.0 L 504.6,289.0" style="fill:none;fill-rule:evenodd;stroke:#E5E5E5;stroke-width:1.8px;stroke-linecap:butt;stroke-linejoin:miter;stroke-opacity:1"/>
<path class="bond-0 atom-0 atom-1" d="M 525.9,301.1 L 508.0,285.1" style="fill:none;fill-rule:evenodd;stroke:#E5E5E5;stroke-width:1.8px;stroke-linecap:butt;stroke-linejoin:miter;stroke-opacity:1;stroke-dasharray:6,4"/>
<path class="bond-1 atom-1 atom-2" d="M 496.5,283.5 L 474.5,296.2" style="fill:none;fill-rule:evenodd;stroke:#E5E5E5;stroke-width:1.8px;stroke-linecap:butt;stroke-linejoin:miter;stroke-opacity:1"/>
<path class="bond-1 atom-1 atom-2" d="M 499.1,287.9 L 477.1,300.7" style="fill:none;fill-rule:evenodd;stroke:#E5E5E5;stroke-width:1.8px;stroke-linecap:butt;stroke-linejoin:miter;stroke-opacity:1;stroke-dasharray:6,4"/>
<path class="atom-0" d="M 525.8 305.0 L 527.2 303.6 L 525.3 303.2 L 525.6 302.2 L 527.3 303.1 L 527.1 301.2 L 528.1 301.2 L 527.8 303.1 L 529.6 302.3 L 529.9 303.2 L 528.0 303.6 L 529.4 305.0 L 528.5 305.6 L 527.6 303.8 L 526.6 305.6 L 525.8 305.0 " fill="#191919"/>
<path class="atom-1" d="M 499.3 286.6 Q 499.4 286.6, 499.9 286.8 Q 500.3 287.0, 500.8 287.1 Q 501.3 287.2, 501.8 287.2 Q 502.7 287.2, 503.3 286.8 Q 503.8 286.3, 503.8 285.5 Q 503.8 285.0, 503.5 284.7 Q 503.3 284.4, 502.9 284.2 Q 502.5 284.0, 501.8 283.8 Q 500.9 283.5, 500.4 283.3 Q 499.9 283.0, 499.5 282.5 Q 499.2 282.0, 499.2 281.1 Q 499.2 279.9, 500.0 279.1 Q 500.8 278.4, 502.5 278.4 Q 503.6 278.4, 504.9 278.9 L 504.5 280.0 Q 503.4 279.5, 502.5 279.5 Q 501.6 279.5, 501.0 279.9 Q 500.5 280.3, 500.5 281.0 Q 500.5 281.5, 500.8 281.8 Q 501.1 282.1, 501.4 282.3 Q 501.8 282.5, 502.5 282.7 Q 503.4 282.9, 503.9 283.2 Q 504.4 283.5, 504.8 284.1 Q 505.2 284.6, 505.2 285.5 Q 505.2 286.9, 504.3 287.6 Q 503.4 288.3, 501.9 288.3 Q 501.0 288.3, 500.4 288.1 Q 499.7 288.0, 498.9 287.6 L 499.3 286.6 " fill="#000000"/>
<path class="atom-2" d="M 470.6 299.4 L 472.0 297.9 L 470.1 297.5 L 470.4 296.6 L 472.1 297.4 L 471.9 295.5 L 472.9 295.5 L 472.6 297.4 L 474.4 296.6 L 474.7 297.5 L 472.8 297.9 L 474.1 299.4 L 473.3 300.0 L 472.4 298.1 L 471.4 300.0 L 470.6 299.4 " fill="#191919"/>
<path class="legend" d="M 410.0 379.3 L 415.0 379.3 L 415.0 380.2 L 411.1 380.2 L 411.1 382.8 L 414.6 382.8 L 414.6 383.8 L 411.1 383.8 L 411.1 387.7 L 410.0 387.7 L 410.0 379.3 " fill="#000000"/>
<path class="legend" d="M 415.7 384.6 Q 415.7 383.1, 416.4 382.3 Q 417.2 381.5, 418.5 381.5 Q 419.9 381.5, 420.5 382.3 Q 421.1 383.1, 421.1 384.6 L 421.1 384.8 L 416.8 384.8 Q 416.8 385.8, 417.3 386.4 Q 417.8 386.9, 418.6 386.9 Q 419.1 386.9, 419.6 386.8 Q 420.0 386.7, 420.5 386.4 L 420.9 387.2 Q 420.2 387.5, 419.7 387.7 Q 419.2 387.8, 418.6 387.8 Q 417.2 387.8, 416.4 387.0 Q 415.7 386.1, 415.7 384.6 M 418.5 382.3 Q 417.8 382.3, 417.4 382.8 Q 417.0 383.2, 416.9 383.9 L 419.9 383.9 Q 419.8 383.1, 419.5 382.7 Q 419.2 382.3, 418.5 382.3 " fill="#000000"/>
<path class="legend" d="M 421.9 386.0 Q 421.9 385.1, 422.7 384.5 Q 423.5 384.0, 425.0 384.0 L 425.9 384.0 L 425.9 383.8 Q 425.9 383.0, 425.5 382.7 Q 425.2 382.3, 424.5 382.3 Q 424.0 382.3, 423.6 382.4 Q 423.2 382.5, 422.6 382.8 L 422.3 382.0 Q 423.4 381.5, 424.5 381.5 Q 425.8 381.5, 426.4 382.0 Q 427.0 382.6, 427.0 383.8 L 427.0 387.7 L 426.1 387.7 Q 426.1 387.7, 426.1 387.5 Q 426.0 387.3, 426.0 387.0 Q 425.1 387.8, 424.0 387.8 Q 423.0 387.8, 422.5 387.4 Q 421.9 386.9, 421.9 386.0 M 423.1 386.0 Q 423.1 386.5, 423.3 386.7 Q 423.6 387.0, 424.2 387.0 Q 424.6 387.0, 425.1 386.7 Q 425.5 386.5, 425.9 386.1 L 425.9 384.8 L 425.0 384.8 Q 424.0 384.8, 423.5 385.1 Q 423.1 385.4, 423.1 386.0 " fill="#000000"/>
<path class="legend" d="M 428.3 382.4 L 428.3 381.6 L 429.5 381.6 L 429.6 379.8 L 430.5 379.8 L 430.5 381.6 L 432.4 381.6 L 432.4 382.4 L 430.5 382.4 L 430.5 385.8 Q 430.5 386.9, 431.4 386.9 Q 431.7 386.9, 432.3 386.7 L 432.4 387.5 Q 431.8 387.8, 431.2 387.8 Q 430.4 387.8, 429.9 387.3 Q 429.4 386.8, 429.4 385.9 L 429.4 382.4 L 428.3 382.4 " fill="#000000"/>
<path class="legend" d="M 438.3 381.6 L 438.3 387.7 L 437.4 387.7 L 437.3 386.9 Q 436.5 387.8, 435.2 387.8 Q 434.2 387.8, 433.7 387.3 Q 433.1 386.7, 433.1 385.6 L 433.1 381.6 L 434.3 381.6 L 434.3 385.5 Q 434.3 386.3, 434.5 386.6 Q 434.8 386.9, 435.4 386.9 Q 436.0 386.9, 436.5 386.7 Q 436.9 386.4, 437.2 386.0 L 437.2 381.6 L 438.3 381.6 " fill="#000000"/>
<path class="legend" d="M 440.6 381.6 L 440.8 382.4 Q 441.4 381.5, 442.4 381.5 Q 442.8 381.5, 443.2 381.6 L 443.1 382.6 Q 442.5 382.5, 442.3 382.5 Q 441.8 382.5, 441.4 382.7 Q 441.1 382.9, 440.8 383.3 L 440.8 387.7 L 439.7 387.7 L 439.7 381.6 L 440.6 381.6 " fill="#000000"/>
<path class="legend" d="M 443.8 384.6 Q 443.8 383.1, 444.6 382.3 Q 445.3 381.5, 446.7 381.5 Q 448.0 381.5, 448.6 382.3 Q 449.2 383.1, 449.2 384.6 L 449.2 384.8 L 444.9 384.8 Q 445.0 385.8, 445.4 386.4 Q 445.9 386.9, 446.8 386.9 Q 447.2 386.9, 447.7 386.8 Q 448.1 386.7, 448.7 386.4 L 449.0 387.2 Q 448.4 387.5, 447.8 387.7 Q 447.3 387.8, 446.7 387.8 Q 445.3 387.8, 444.6 387.0 Q 443.8 386.1, 443.8 384.6 M 446.7 382.3 Q 446.0 382.3, 445.5 382.8 Q 445.1 383.2, 445.0 383.9 L 448.0 383.9 Q 448.0 383.1, 447.6 382.7 Q 447.3 382.3, 446.7 382.3 " fill="#000000"/>
<path class="legend" d="" fill="#000000"/>
<path class="legend" d="M 457.7 382.4 Q 458.5 382.4, 459.1 382.8 Q 459.6 383.1, 460.0 383.7 Q 460.3 384.2, 460.3 385.0 Q 460.3 385.8, 459.9 386.4 Q 459.6 387.1, 458.9 387.4 Q 458.3 387.8, 457.4 387.8 Q 455.9 387.8, 455.2 386.8 Q 454.4 385.8, 454.4 383.7 Q 454.4 381.5, 455.4 380.3 Q 456.3 379.2, 458.1 379.2 Q 458.6 379.2, 459.1 379.3 Q 459.5 379.4, 460.0 379.7 L 459.5 380.5 Q 458.9 380.1, 458.1 380.1 Q 456.9 380.1, 456.3 380.9 Q 455.7 381.7, 455.6 383.2 Q 456.1 382.9, 456.6 382.6 Q 457.1 382.4, 457.7 382.4 M 457.5 386.8 Q 457.9 386.8, 458.3 386.6 Q 458.7 386.3, 458.9 385.9 Q 459.1 385.5, 459.1 385.0 Q 459.1 384.2, 458.7 383.8 Q 458.3 383.4, 457.5 383.4 Q 457.0 383.4, 456.5 383.6 Q 456.0 383.8, 455.6 384.2 Q 455.7 385.6, 456.1 386.2 Q 456.6 386.8, 457.5 386.8 " fill="#000000"/>
<path class="legend" d="M 465.8 380.2 L 461.3 380.2 L 461.3 379.3 L 466.9 379.3 L 466.9 380.1 L 463.5 387.7 L 462.4 387.7 L 465.8 380.2 " fill="#000000"/>
<path class="legend" d="M 470.7 382.4 Q 471.5 382.4, 472.1 382.7 Q 472.7 383.1, 473.0 383.6 Q 473.4 384.2, 473.4 385.0 Q 473.4 385.9, 472.9 386.5 Q 472.5 387.2, 471.8 387.5 Q 471.1 387.8, 470.4 387.8 Q 469.6 387.8, 468.9 387.5 Q 468.2 387.2, 467.7 386.7 L 468.4 385.9 Q 468.8 386.4, 469.3 386.6 Q 469.9 386.8, 470.4 386.8 Q 471.1 386.8, 471.7 386.4 Q 472.2 385.9, 472.2 385.1 Q 472.2 384.2, 471.7 383.7 Q 471.1 383.3, 470.3 383.3 Q 469.6 383.3, 468.8 383.6 L 468.1 383.3 L 468.5 379.3 L 472.9 379.3 L 472.7 380.2 L 469.5 380.2 L 469.2 382.7 Q 470.0 382.4, 470.7 382.4 " fill="#000000"/>
<path class="legend" d="" fill="#000000"/>
<path class="legend" d="M 478.7 378.5 L 479.7 378.5 L 479.7 390.0 L 478.7 390.0 L 478.7 378.5 " fill="#000000"/>
<path class="legend" d="M 481.1 378.5 L 482.1 378.5 L 482.1 390.0 L 481.1 390.0 L 481.1 378.5 " fill="#000000"/>
<path class="legend" d="" fill="#000000"/>
<path class="legend" d="M 497.5 387.7 L 496.4 387.7 L 495.6 380.8 L 493.3 387.7 L 492.1 387.7 L 489.9 380.8 L 489.0 387.7 L 487.9 387.7 L 489.0 379.3 L 490.4 379.3 L 492.7 386.1 L 495.0 379.3 L 496.5 379.3 L 497.5 387.7 " fill="#000000"/>
<path class="legend" d="M 498.7 384.6 Q 498.7 383.1, 499.4 382.3 Q 500.2 381.5, 501.6 381.5 Q 502.9 381.5, 503.5 382.3 Q 504.1 383.1, 504.1 384.6 L 504.1 384.8 L 499.8 384.8 Q 499.9 385.8, 500.3 386.4 Q 500.8 386.9, 501.7 386.9 Q 502.1 386.9, 502.6 386.8 Q 503.0 386.7, 503.6 386.4 L 503.9 387.2 Q 503.3 387.5, 502.7 387.7 Q 502.2 387.8, 501.6 387.8 Q 500.2 387.8, 499.5 387.0 Q 498.7 386.1, 498.7 384.6 M 501.6 382.3 Q 500.9 382.3, 500.4 382.8 Q 500.0 383.2, 499.9 383.9 L 502.9 383.9 Q 502.8 383.1, 502.5 382.7 Q 502.2 382.3, 501.6 382.3 " fill="#000000"/>
<path class="legend" d="M 505.0 386.0 Q 505.0 385.1, 505.7 384.5 Q 506.5 384.0, 508.0 384.0 L 508.9 384.0 L 508.9 383.8 Q 508.9 383.0, 508.6 382.7 Q 508.2 382.3, 507.5 382.3 Q 507.0 382.3, 506.6 382.4 Q 506.2 382.5, 505.6 382.8 L 505.3 382.0 Q 506.4 381.5, 507.5 381.5 Q 508.8 381.5, 509.4 382.0 Q 510.0 382.6, 510.0 383.8 L 510.0 387.7 L 509.1 387.7 Q 509.1 387.7, 509.1 387.5 Q 509.0 387.3, 509.0 387.0 Q 508.1 387.8, 507.0 387.8 Q 506.1 387.8, 505.5 387.4 Q 505.0 386.9, 505.0 386.0 M 506.1 386.0 Q 506.1 386.5, 506.4 386.7 Q 506.7 387.0, 507.2 387.0 Q 507.7 387.0, 508.1 386.7 Q 508.6 386.5, 508.9 386.1 L 508.9 384.8 L 508.0 384.8 Q 507.1 384.8, 506.6 385.1 Q 506.1 385.4, 506.1 386.0 " fill="#000000"/>
<path class="legend" d="M 514.5 381.5 Q 515.5 381.5, 516.0 382.0 Q 516.5 382.6, 516.5 383.6 L 516.5 387.7 L 515.4 387.7 L 515.4 383.7 Q 515.4 383.0, 515.1 382.7 Q 514.8 382.3, 514.2 382.3 Q 513.7 382.3, 513.2 382.6 Q 512.7 382.9, 512.4 383.3 L 512.4 387.7 L 511.3 387.7 L 511.3 381.6 L 512.2 381.6 L 512.4 382.4 Q 513.2 381.5, 514.5 381.5 " fill="#000000"/>
<path class="legend" d="" fill="#000000"/>
<path class="legend" d="M 522.2 378.5 L 523.2 378.5 L 523.2 390.0 L 522.2 390.0 L 522.2 378.5 " fill="#000000"/>
<path class="legend" d="M 524.9 386.4 Q 525.0 386.4, 525.4 386.6 Q 525.8 386.8, 526.2 386.9 Q 526.7 387.0, 527.1 387.0 Q 527.9 387.0, 528.4 386.6 Q 528.8 386.2, 528.8 385.5 Q 528.8 385.0, 528.6 384.8 Q 528.4 384.5, 528.0 384.3 Q 527.6 384.2, 527.1 384.0 Q 526.3 383.8, 525.8 383.5 Q 525.4 383.3, 525.1 382.9 Q 524.8 382.4, 524.8 381.7 Q 524.8 380.6, 525.5 379.9 Q 526.2 379.3, 527.6 379.3 Q 528.6 379.3, 529.7 379.8 L 529.5 380.7 Q 528.4 380.3, 527.7 380.3 Q 526.9 380.3, 526.4 380.6 Q 526.0 380.9, 526.0 381.5 Q 526.0 382.0, 526.2 382.2 Q 526.4 382.5, 526.8 382.7 Q 527.1 382.8, 527.7 383.0 Q 528.4 383.2, 528.9 383.5 Q 529.4 383.7, 529.7 384.2 Q 530.0 384.7, 530.0 385.5 Q 530.0 386.7, 529.2 387.3 Q 528.4 387.9, 527.1 387.9 Q 526.4 387.9, 525.8 387.8 Q 525.3 387.6, 524.6 387.3 L 524.9 386.4 " fill="#000000"/>
<path class="legend" d="M 531.0 379.3 L 532.1 379.3 L 532.1 382.9 L 536.4 382.9 L 536.4 379.3 L 537.6 379.3 L 537.6 387.7 L 536.4 387.7 L 536.4 383.8 L 532.1 383.8 L 532.1 387.7 L 531.0 387.7 L 531.0 379.3 " fill="#000000"/>
<path class="legend" d="M 545.2 387.7 L 544.3 385.2 L 541.0 385.2 L 540.1 387.7 L 539.0 387.7 L 541.9 379.3 L 543.3 379.3 L 546.3 387.7 L 545.2 387.7 M 541.3 384.3 L 544.0 384.3 L 542.6 380.4 L 541.3 384.3 " fill="#000000"/>
<path class="legend" d="M 549.3 379.3 Q 550.8 379.3, 551.5 379.9 Q 552.2 380.6, 552.2 381.7 Q 552.2 382.9, 551.5 383.6 Q 550.7 384.2, 549.3 384.2 L 548.0 384.2 L 548.0 387.7 L 546.8 387.7 L 546.8 379.3 L 549.3 379.3 M 549.3 383.3 Q 550.1 383.3, 550.6 382.9 Q 551.0 382.5, 551.0 381.7 Q 551.0 381.0, 550.6 380.6 Q 550.2 380.2, 549.3 380.2 L 548.0 380.2 L 548.0 383.3 L 549.3 383.3 " fill="#000000"/>
<path class="legend" d="M 553.2 378.5 L 554.2 378.5 L 554.2 390.0 L 553.2 390.0 L 553.2 378.5 " fill="#000000"/>
<path class="legend" d="M 555.6 386.3 L 556.8 386.3 L 556.8 387.5 L 555.6 387.5 L 555.6 386.3 M 555.6 382.2 L 556.8 382.2 L 556.8 383.4 L 555.6 383.4 L 555.6 382.2 " fill="#000000"/>
<path class="legend" d="" fill="#000000"/>
<path class="legend" d="M 562.9 386.7 L 564.7 386.7 L 564.7 380.4 L 562.7 381.1 L 562.4 380.4 L 565.0 379.2 L 565.8 379.4 L 565.8 386.7 L 567.5 386.7 L 567.5 387.7 L 562.9 387.7 L 562.9 386.7 " fill="#000000"/>
<path class="legend" d="M 568.4 380.9 Q 568.7 380.1, 569.5 379.6 Q 570.2 379.2, 571.2 379.2 Q 572.5 379.2, 573.2 379.9 Q 573.9 380.6, 573.9 381.8 Q 573.9 383.0, 573.0 384.2 Q 572.1 385.4, 570.2 386.7 L 574.1 386.7 L 574.1 387.7 L 568.4 387.7 L 568.4 386.9 Q 570.0 385.8, 570.9 384.9 Q 571.8 384.1, 572.3 383.4 Q 572.7 382.6, 572.7 381.8 Q 572.7 381.0, 572.3 380.6 Q 571.9 380.1, 571.2 380.1 Q 570.6 380.1, 570.1 380.4 Q 569.6 380.7, 569.3 381.3 L 568.4 380.9 " fill="#000000"/>
<path class="legend" d="M 575.2 386.5 L 576.4 386.5 L 576.4 387.7 L 575.2 387.7 L 575.2 386.5 " fill="#000000"/>
<path class="legend" d="M 581.6 383.3 Q 582.4 383.5, 582.8 384.0 Q 583.2 384.6, 583.2 385.4 Q 583.2 386.1, 582.9 386.7 Q 582.5 387.2, 581.9 387.5 Q 581.2 387.8, 580.3 387.8 Q 579.4 387.8, 578.8 387.5 Q 578.1 387.2, 577.5 386.5 L 578.2 385.9 Q 578.8 386.4, 579.2 386.7 Q 579.6 386.9, 580.3 386.9 Q 581.1 386.9, 581.6 386.5 Q 582.0 386.0, 582.0 385.4 Q 582.0 384.5, 581.5 384.1 Q 581.1 383.7, 580.0 383.7 L 579.4 383.7 L 579.4 382.9 L 580.0 382.9 Q 580.9 382.9, 581.4 382.5 Q 581.9 382.1, 581.9 381.3 Q 581.9 380.8, 581.4 380.5 Q 581.0 380.1, 580.3 380.1 Q 579.6 380.1, 579.2 380.4 Q 578.8 380.6, 578.4 381.3 L 577.6 380.8 Q 577.9 380.1, 578.6 379.6 Q 579.3 379.2, 580.3 379.2 Q 581.6 379.2, 582.3 379.8 Q 583.0 380.3, 583.0 381.3 Q 583.0 382.0, 582.7 382.5 Q 582.3 383.0, 581.6 383.3 " fill="#000000"/>
<path class="legend" d="M 584.3 380.9 Q 584.6 380.1, 585.4 379.6 Q 586.1 379.2, 587.2 379.2 Q 588.4 379.2, 589.1 379.9 Q 589.9 380.6, 589.9 381.8 Q 589.9 383.0, 588.9 384.2 Q 588.0 385.4, 586.1 386.7 L 590.0 386.7 L 590.0 387.7 L 584.3 387.7 L 584.3 386.9 Q 585.9 385.8, 586.8 384.9 Q 587.8 384.1, 588.2 383.4 Q 588.7 382.6, 588.7 381.8 Q 588.7 381.0, 588.3 380.6 Q 587.9 380.1, 587.2 380.1 Q 586.5 380.1, 586.0 380.4 Q 585.6 380.7, 585.2 381.3 L 584.3 380.9 " fill="#000000"/>
</svg>