<svg xmlns="http://www.w3.org/2000/svg" xmlns:rdkit="http://www.rdkit.org/xml" xmlns:xlink="http://www.w3.org/1999/xlink" version="1.1" baseProfile="full" xml:space="preserve" width="600px" height="400px" viewBox="0 0 600 400">
<!-- END OF HEADER -->
<rect width="100%" height="100%" fill="#E5ECF6"/>
<rect style="opacity:1.0;fill:#E5ECF6;stroke:none" width="200.0" height="200.0" x="0.0" y="0.0"> </rect>
<ellipse cx="114.1" cy="93.6" rx="6.5" ry="6.5" class="atom-2" style="fill:#9999E5;fill-rule:evenodd;stroke:#9999E5;stroke-width:1.0px;stroke-linecap:butt;stroke-linejoin:miter;stroke-opacity:1"/>
<ellipse cx="85.8" cy="110.0" rx="6.5" ry="6.5" class="atom-3" style="fill:#CCCCCC;fill-rule:evenodd;stroke:#CCCCCC;stroke-width:1.0px;stroke-linecap:butt;stroke-linejoin:miter;stroke-opacity:1"/>
<ellipse cx="114.1" cy="60.9" rx="6.5" ry="6.5" class="atom-6" style="fill:#CCCCCC;fill-rule:evenodd;stroke:#CCCCCC;stroke-width:1.0px;stroke-linecap:butt;stroke-linejoin:miter;stroke-opacity:1"/>
<path class="bond-0 atom-0 atom-1" d="M 142.5,136.8 L 142.5,109.9" style="fill:none;fill-rule:evenodd;stroke:#E5E5E5;stroke-width:1.7px;stroke-linecap:butt;stroke-linejoin:miter;stroke-opacity:1"/>
<path class="bond-1 atom-1 atom-2" d="M 142.5,109.9 L 118.7,96.2" style="fill:none;fill-rule:evenodd;stroke:#000000;stroke-width:2.0px;stroke-linecap:butt;stroke-linejoin:miter;stroke-opacity:1"/>
<path class="bond-2 atom-2 atom-3" d="M 109.5,96.3 L 85.8,110.0" style="fill:none;fill-rule:evenodd;stroke:#000000;stroke-width:2.0px;stroke-linecap:butt;stroke-linejoin:miter;stroke-opacity:1"/>
<path class="bond-3 atom-3 atom-4" d="M 85.8,110.0 L 58.5,94.3" style="fill:none;fill-rule:evenodd;stroke:#E5E5E5;stroke-width:1.7px;stroke-linecap:butt;stroke-linejoin:miter;stroke-opacity:1"/>
<path class="bond-4 atom-5 atom-6" d="M 86.8,45.2 L 114.1,60.9" style="fill:none;fill-rule:evenodd;stroke:#E5E5E5;stroke-width:1.7px;stroke-linecap:butt;stroke-linejoin:miter;stroke-opacity:1"/>
<path class="bond-5 atom-6 atom-2" d="M 114.1,60.9 L 114.1,87.9" style="fill:none;fill-rule:evenodd;stroke:#000000;stroke-width:2.0px;stroke-linecap:butt;stroke-linejoin:miter;stroke-opacity:1"/>
<path d="M 142.5,110.6 L 142.5,109.9 L 141.9,109.6" style="fill:none;stroke:#E5E5E5;stroke-width:1.7px;stroke-linecap:butt;stroke-linejoin:miter;stroke-miterlimit:10;stroke-opacity:1;"/>
<path d="M 86.4,109.7 L 85.8,110.0 L 85.1,109.6" style="fill:none;stroke:#000000;stroke-width:2.0px;stroke-linecap:butt;stroke-linejoin:miter;stroke-miterlimit:10;stroke-opacity:1;"/>
<path d="M 113.4,60.5 L 114.1,60.9 L 114.1,61.5" style="fill:none;stroke:#E5E5E5;stroke-width:1.7px;stroke-linecap:butt;stroke-linejoin:miter;stroke-miterlimit:10;stroke-opacity:1;"/>
<path class="atom-0" d="M 140.8 141.6 L 142.2 140.2 L 140.3 139.8 L 140.6 138.9 L 142.3 139.8 L 142.1 137.9 L 143.0 137.9 L 142.8 139.7 L 144.4 139.0 L 144.7 139.8 L 142.9 140.2 L 144.2 141.6 L 143.4 142.2 L 142.5 140.4 L 141.6 142.2 L 140.8 141.6 " fill="#191919"/>
<path class="atom-2" d="M 112.1 89.0 L 115.1 93.9 Q 115.4 94.4, 115.9 95.2 Q 116.4 96.1, 116.4 96.2 L 116.4 89.0 L 117.6 89.0 L 117.6 98.2 L 116.4 98.2 L 113.1 92.9 Q 112.7 92.2, 112.3 91.5 Q 111.9 90.8, 111.8 90.6 L 111.8 98.2 L 110.6 98.2 L 110.6 89.0 L 112.1 89.0 " fill="#000000"/>
<path class="atom-4" d="M 55.7 92.6 L 57.1 91.3 L 55.3 90.9 L 55.5 90.0 L 57.2 90.8 L 57.0 89.0 L 57.9 89.0 L 57.7 90.8 L 59.4 90.0 L 59.7 90.9 L 57.8 91.2 L 59.1 92.6 L 58.3 93.2 L 57.4 91.5 L 56.5 93.2 L 55.7 92.6 " fill="#191919"/>
<path class="atom-5" d="M 84.0 43.5 L 85.3 42.1 L 83.5 41.8 L 83.8 40.8 L 85.5 41.7 L 85.2 39.9 L 86.2 39.8 L 85.9 41.7 L 87.6 40.9 L 87.9 41.8 L 86.1 42.1 L 87.4 43.5 L 86.6 44.1 L 85.7 42.4 L 84.8 44.1 L 84.0 43.5 " fill="#191919"/>
<path class="legend" d="M 10.0 179.6 L 14.9 179.6 L 14.9 180.5 L 11.1 180.5 L 11.1 183.0 L 14.4 183.0 L 14.4 184.0 L 11.1 184.0 L 11.1 187.8 L 10.0 187.8 L 10.0 179.6 " fill="#000000"/>
<path class="legend" d="M 15.5 184.8 Q 15.5 183.3, 16.2 182.6 Q 16.9 181.7, 18.3 181.7 Q 19.6 181.7, 20.1 182.5 Q 20.7 183.3, 20.7 184.8 L 20.7 185.0 L 16.6 185.0 Q 16.6 186.0, 17.1 186.5 Q 17.5 187.0, 18.4 187.0 Q 18.8 187.0, 19.2 186.9 Q 19.7 186.8, 20.2 186.6 L 20.5 187.3 Q 19.9 187.6, 19.4 187.7 Q 18.9 187.9, 18.3 187.9 Q 17.0 187.9, 16.2 187.1 Q 15.5 186.3, 15.5 184.8 M 18.3 182.6 Q 17.6 182.6, 17.2 183.0 Q 16.8 183.4, 16.6 184.1 L 19.6 184.1 Q 19.5 183.3, 19.2 183.0 Q 18.9 182.6, 18.3 182.6 " fill="#000000"/>
<path class="legend" d="M 21.6 186.2 Q 21.6 185.2, 22.3 184.7 Q 23.1 184.2, 24.5 184.2 L 25.3 184.2 L 25.3 184.0 Q 25.3 183.2, 25.0 182.9 Q 24.7 182.6, 24.0 182.6 Q 23.5 182.6, 23.2 182.7 Q 22.8 182.8, 22.2 183.0 L 21.9 182.3 Q 23.0 181.7, 24.0 181.7 Q 25.3 181.7, 25.9 182.3 Q 26.4 182.8, 26.4 184.0 L 26.4 187.8 L 25.6 187.8 Q 25.6 187.7, 25.5 187.6 Q 25.5 187.4, 25.4 187.1 Q 24.6 187.9, 23.5 187.9 Q 22.6 187.9, 22.1 187.4 Q 21.6 187.0, 21.6 186.2 M 22.6 186.2 Q 22.6 186.6, 22.9 186.8 Q 23.2 187.1, 23.7 187.1 Q 24.2 187.1, 24.6 186.9 Q 25.0 186.6, 25.3 186.3 L 25.3 185.0 L 24.5 185.0 Q 23.6 185.0, 23.1 185.3 Q 22.6 185.6, 22.6 186.2 " fill="#000000"/>
<path class="legend" d="M 27.7 182.7 L 27.7 181.9 L 28.8 181.9 L 29.0 180.1 L 29.8 180.1 L 29.8 181.9 L 31.6 181.9 L 31.6 182.7 L 29.8 182.7 L 29.8 186.0 Q 29.8 187.0, 30.7 187.0 Q 31.0 187.0, 31.5 186.8 L 31.7 187.6 Q 31.1 187.8, 30.5 187.8 Q 29.7 187.8, 29.2 187.4 Q 28.7 186.9, 28.7 186.0 L 28.7 182.7 L 27.7 182.7 " fill="#000000"/>
<path class="legend" d="M 37.4 181.9 L 37.4 187.8 L 36.5 187.8 L 36.4 187.0 Q 35.6 187.9, 34.4 187.9 Q 33.4 187.9, 32.9 187.3 Q 32.4 186.8, 32.4 185.8 L 32.4 181.9 L 33.5 181.9 L 33.5 185.7 Q 33.5 186.4, 33.7 186.7 Q 34.0 187.0, 34.6 187.0 Q 35.2 187.0, 35.6 186.8 Q 36.1 186.5, 36.3 186.1 L 36.3 181.9 L 37.4 181.9 " fill="#000000"/>
<path class="legend" d="M 39.6 181.9 L 39.8 182.7 Q 40.4 181.7, 41.4 181.7 Q 41.7 181.7, 42.2 181.9 L 42.0 182.8 Q 41.5 182.7, 41.2 182.7 Q 40.7 182.7, 40.4 182.9 Q 40.1 183.1, 39.8 183.5 L 39.8 187.8 L 38.8 187.8 L 38.8 181.9 L 39.6 181.9 " fill="#000000"/>
<path class="legend" d="M 42.7 184.8 Q 42.7 183.3, 43.4 182.6 Q 44.2 181.7, 45.5 181.7 Q 46.8 181.7, 47.4 182.5 Q 48.0 183.3, 48.0 184.8 L 48.0 185.0 L 43.8 185.0 Q 43.8 186.0, 44.3 186.5 Q 44.7 187.0, 45.6 187.0 Q 46.0 187.0, 46.5 186.9 Q 46.9 186.8, 47.4 186.6 L 47.7 187.3 Q 47.1 187.6, 46.6 187.7 Q 46.1 187.9, 45.5 187.9 Q 44.2 187.9, 43.5 187.1 Q 42.7 186.3, 42.7 184.8 M 45.5 182.6 Q 44.8 182.6, 44.4 183.0 Q 44.0 183.4, 43.9 184.1 L 46.8 184.1 Q 46.7 183.3, 46.4 183.0 Q 46.1 182.6, 45.5 182.6 " fill="#000000"/>
<path class="legend" d="" fill="#000000"/>
<path class="legend" d="M 53.5 186.9 L 55.2 186.9 L 55.2 180.8 L 53.3 181.4 L 53.0 180.7 L 55.5 179.6 L 56.3 179.7 L 56.3 186.9 L 57.9 186.9 L 57.9 187.8 L 53.5 187.8 L 53.5 186.9 " fill="#000000"/>
<path class="legend" d="M 63.1 180.5 L 58.8 180.5 L 58.8 179.6 L 64.2 179.6 L 64.2 180.4 L 60.9 187.8 L 59.8 187.8 L 63.1 180.5 " fill="#000000"/>
<path class="legend" d="M 67.7 179.5 Q 69.1 179.5, 69.9 180.5 Q 70.6 181.5, 70.6 183.5 Q 70.6 185.6, 69.7 186.7 Q 68.8 187.9, 67.0 187.9 Q 66.5 187.9, 66.1 187.8 Q 65.7 187.6, 65.3 187.4 L 65.7 186.6 Q 66.3 186.9, 67.0 186.9 Q 68.2 186.9, 68.8 186.2 Q 69.4 185.5, 69.4 183.9 Q 69.0 184.3, 68.5 184.5 Q 68.0 184.7, 67.4 184.7 Q 66.7 184.7, 66.1 184.4 Q 65.6 184.1, 65.2 183.5 Q 64.9 183.0, 64.9 182.2 Q 64.9 181.4, 65.3 180.8 Q 65.6 180.2, 66.3 179.9 Q 66.9 179.5, 67.7 179.5 M 66.1 182.2 Q 66.1 183.0, 66.5 183.4 Q 66.9 183.8, 67.6 183.8 Q 68.1 183.8, 68.6 183.6 Q 69.1 183.4, 69.4 183.0 Q 69.4 181.7, 69.0 181.1 Q 68.5 180.5, 67.7 180.5 Q 67.2 180.5, 66.9 180.7 Q 66.5 180.9, 66.3 181.3 Q 66.1 181.7, 66.1 182.2 " fill="#000000"/>
<path class="legend" d="M 72.2 186.9 L 74.0 186.9 L 74.0 180.8 L 72.0 181.4 L 71.8 180.7 L 74.3 179.6 L 75.1 179.7 L 75.1 186.9 L 76.7 186.9 L 76.7 187.8 L 72.2 187.8 L 72.2 186.9 " fill="#000000"/>
<path class="legend" d="" fill="#000000"/>
<path class="legend" d="M 81.8 178.9 L 82.7 178.9 L 82.7 190.0 L 81.8 190.0 L 81.8 178.9 " fill="#000000"/>
<path class="legend" d="M 84.1 178.9 L 85.1 178.9 L 85.1 190.0 L 84.1 190.0 L 84.1 178.9 " fill="#000000"/>
<path class="legend" d="" fill="#000000"/>
<path class="legend" d="M 100.0 187.8 L 98.9 187.8 L 98.1 181.1 L 95.9 187.8 L 94.8 187.8 L 92.6 181.1 L 91.7 187.8 L 90.7 187.8 L 91.7 179.6 L 93.1 179.6 L 95.3 186.2 L 97.6 179.6 L 98.9 179.6 L 100.0 187.8 " fill="#000000"/>
<path class="legend" d="M 101.1 184.8 Q 101.1 183.3, 101.8 182.6 Q 102.6 181.7, 103.9 181.7 Q 105.2 181.7, 105.8 182.5 Q 106.4 183.3, 106.4 184.8 L 106.4 185.0 L 102.2 185.0 Q 102.2 186.0, 102.7 186.5 Q 103.1 187.0, 104.0 187.0 Q 104.4 187.0, 104.9 186.9 Q 105.3 186.8, 105.8 186.6 L 106.1 187.3 Q 105.5 187.6, 105.0 187.7 Q 104.5 187.9, 103.9 187.9 Q 102.6 187.9, 101.9 187.1 Q 101.1 186.3, 101.1 184.8 M 103.9 182.6 Q 103.2 182.6, 102.8 183.0 Q 102.4 183.4, 102.3 184.1 L 105.2 184.1 Q 105.1 183.3, 104.8 183.0 Q 104.5 182.6, 103.9 182.6 " fill="#000000"/>
<path class="legend" d="M 107.2 186.2 Q 107.2 185.2, 107.9 184.7 Q 108.7 184.2, 110.1 184.2 L 111.0 184.2 L 111.0 184.0 Q 111.0 183.2, 110.7 182.9 Q 110.4 182.6, 109.6 182.6 Q 109.2 182.6, 108.8 182.7 Q 108.4 182.8, 107.8 183.0 L 107.5 182.3 Q 108.6 181.7, 109.6 181.7 Q 110.9 181.7, 111.5 182.3 Q 112.1 182.8, 112.1 184.0 L 112.1 187.8 L 111.2 187.8 Q 111.2 187.7, 111.2 187.6 Q 111.1 187.4, 111.1 187.1 Q 110.2 187.9, 109.1 187.9 Q 108.2 187.9, 107.7 187.4 Q 107.2 187.0, 107.2 186.2 M 108.3 186.2 Q 108.3 186.6, 108.5 186.8 Q 108.8 187.1, 109.3 187.1 Q 109.8 187.1, 110.2 186.9 Q 110.7 186.6, 111.0 186.3 L 111.0 185.0 L 110.2 185.0 Q 109.2 185.0, 108.7 185.3 Q 108.3 185.6, 108.3 186.2 " fill="#000000"/>
<path class="legend" d="M 116.4 181.7 Q 117.4 181.7, 117.9 182.3 Q 118.4 182.8, 118.4 183.9 L 118.4 187.8 L 117.3 187.8 L 117.3 183.9 Q 117.3 183.2, 117.0 182.9 Q 116.7 182.6, 116.1 182.6 Q 115.6 182.6, 115.1 182.9 Q 114.7 183.1, 114.4 183.5 L 114.4 187.8 L 113.3 187.8 L 113.3 181.9 L 114.2 181.9 L 114.3 182.7 Q 115.1 181.7, 116.4 181.7 " fill="#000000"/>
<path class="legend" d="" fill="#000000"/>
<path class="legend" d="M 123.9 178.9 L 124.8 178.9 L 124.8 190.0 L 123.9 190.0 L 123.9 178.9 " fill="#000000"/>
<path class="legend" d="M 126.5 186.5 Q 126.6 186.5, 127.0 186.7 Q 127.4 186.9, 127.8 187.0 Q 128.2 187.1, 128.6 187.1 Q 129.4 187.1, 129.8 186.7 Q 130.3 186.3, 130.3 185.7 Q 130.3 185.2, 130.1 184.9 Q 129.8 184.7, 129.5 184.5 Q 129.1 184.4, 128.6 184.2 Q 127.8 184.0, 127.4 183.8 Q 127.0 183.5, 126.7 183.1 Q 126.4 182.7, 126.4 181.9 Q 126.4 180.9, 127.1 180.3 Q 127.8 179.6, 129.1 179.6 Q 130.1 179.6, 131.2 180.1 L 130.9 181.0 Q 129.9 180.6, 129.2 180.6 Q 128.4 180.6, 127.9 180.9 Q 127.5 181.2, 127.5 181.8 Q 127.5 182.2, 127.7 182.5 Q 128.0 182.8, 128.3 182.9 Q 128.6 183.1, 129.2 183.2 Q 129.9 183.5, 130.4 183.7 Q 130.8 183.9, 131.1 184.4 Q 131.4 184.9, 131.4 185.7 Q 131.4 186.8, 130.7 187.4 Q 129.9 188.0, 128.7 188.0 Q 127.9 188.0, 127.4 187.8 Q 126.8 187.7, 126.2 187.4 L 126.5 186.5 " fill="#000000"/>
<path class="legend" d="M 132.3 179.6 L 133.5 179.6 L 133.5 183.1 L 137.6 183.1 L 137.6 179.6 L 138.7 179.6 L 138.7 187.8 L 137.6 187.8 L 137.6 184.0 L 133.5 184.0 L 133.5 187.8 L 132.3 187.8 L 132.3 179.6 " fill="#000000"/>
<path class="legend" d="M 146.1 187.8 L 145.3 185.4 L 142.0 185.4 L 141.2 187.8 L 140.1 187.8 L 142.9 179.6 L 144.3 179.6 L 147.2 187.8 L 146.1 187.8 M 142.3 184.5 L 144.9 184.5 L 143.6 180.8 L 142.3 184.5 " fill="#000000"/>
<path class="legend" d="M 150.1 179.6 Q 151.5 179.6, 152.2 180.2 Q 152.9 180.9, 152.9 182.0 Q 152.9 183.1, 152.2 183.8 Q 151.5 184.4, 150.1 184.4 L 148.8 184.4 L 148.8 187.8 L 147.7 187.8 L 147.7 179.6 L 150.1 179.6 M 150.1 183.5 Q 150.9 183.5, 151.3 183.1 Q 151.8 182.7, 151.8 182.0 Q 151.8 181.3, 151.3 180.9 Q 150.9 180.5, 150.1 180.5 L 148.8 180.5 L 148.8 183.5 L 150.1 183.5 " fill="#000000"/>
<path class="legend" d="M 153.8 178.9 L 154.8 178.9 L 154.8 190.0 L 153.8 190.0 L 153.8 178.9 " fill="#000000"/>
<path class="legend" d="M 156.2 186.4 L 157.3 186.4 L 157.3 187.6 L 156.2 187.6 L 156.2 186.4 M 156.2 182.5 L 157.3 182.5 L 157.3 183.6 L 156.2 183.6 L 156.2 182.5 " fill="#000000"/>
<path class="legend" d="" fill="#000000"/>
<path class="legend" d="M 162.8 181.2 Q 163.1 180.4, 163.8 180.0 Q 164.6 179.5, 165.5 179.5 Q 166.8 179.5, 167.5 180.2 Q 168.2 180.9, 168.2 182.0 Q 168.2 183.3, 167.3 184.4 Q 166.4 185.5, 164.5 186.9 L 168.3 186.9 L 168.3 187.8 L 162.8 187.8 L 162.8 187.0 Q 164.3 185.9, 165.2 185.1 Q 166.1 184.3, 166.6 183.6 Q 167.0 182.9, 167.0 182.1 Q 167.0 181.3, 166.6 180.9 Q 166.2 180.4, 165.5 180.4 Q 164.9 180.4, 164.4 180.7 Q 164.0 181.0, 163.7 181.6 L 162.8 181.2 " fill="#000000"/>
<path class="legend" d="M 173.6 180.5 L 169.4 180.5 L 169.4 179.6 L 174.8 179.6 L 174.8 180.4 L 171.5 187.8 L 170.4 187.8 L 173.6 180.5 " fill="#000000"/>
<path class="legend" d="M 175.5 186.6 L 176.7 186.6 L 176.7 187.8 L 175.5 187.8 L 175.5 186.6 " fill="#000000"/>
<path class="legend" d="M 181.7 183.5 Q 182.5 183.7, 182.9 184.2 Q 183.3 184.7, 183.3 185.5 Q 183.3 186.2, 182.9 186.8 Q 182.6 187.3, 182.0 187.6 Q 181.3 187.9, 180.5 187.9 Q 179.6 187.9, 179.0 187.6 Q 178.3 187.3, 177.8 186.7 L 178.4 186.0 Q 179.0 186.5, 179.4 186.8 Q 179.8 187.0, 180.5 187.0 Q 181.2 187.0, 181.7 186.6 Q 182.1 186.2, 182.1 185.5 Q 182.1 184.7, 181.7 184.3 Q 181.2 183.9, 180.2 183.9 L 179.6 183.9 L 179.6 183.1 L 180.1 183.1 Q 181.0 183.1, 181.5 182.7 Q 182.0 182.3, 182.0 181.6 Q 182.0 181.1, 181.6 180.8 Q 181.2 180.4, 180.5 180.4 Q 179.8 180.4, 179.4 180.7 Q 179.0 180.9, 178.7 181.5 L 177.9 181.1 Q 178.1 180.4, 178.8 180.0 Q 179.5 179.5, 180.5 179.5 Q 181.7 179.5, 182.4 180.1 Q 183.1 180.7, 183.1 181.6 Q 183.1 182.3, 182.7 182.7 Q 182.4 183.2, 181.7 183.5 " fill="#000000"/>
<path class="legend" d="M 187.1 179.5 Q 188.5 179.5, 189.3 180.5 Q 190.0 181.5, 190.0 183.5 Q 190.0 185.6, 189.1 186.7 Q 188.2 187.9, 186.4 187.9 Q 185.9 187.9, 185.5 187.8 Q 185.1 187.6, 184.7 187.4 L 185.1 186.6 Q 185.7 186.9, 186.4 186.9 Q 187.6 186.9, 188.2 186.2 Q 188.8 185.5, 188.8 183.9 Q 188.4 184.3, 187.9 184.5 Q 187.4 184.7, 186.8 184.7 Q 186.1 184.7, 185.5 184.4 Q 185.0 184.1, 184.7 183.5 Q 184.3 183.0, 184.3 182.2 Q 184.3 181.4, 184.7 180.8 Q 185.0 180.2, 185.7 179.9 Q 186.3 179.5, 187.1 179.5 M 185.5 182.2 Q 185.5 183.0, 185.9 183.4 Q 186.3 183.8, 187.0 183.8 Q 187.5 183.8, 188.0 183.6 Q 188.5 183.4, 188.8 183.0 Q 188.8 181.7, 188.4 181.1 Q 187.9 180.5, 187.1 180.5 Q 186.6 180.5, 186.3 180.7 Q 185.9 180.9, 185.7 181.3 Q 185.5 181.7, 185.5 182.2 " fill="#000000"/>
<ellipse cx="324.3" cy="82.0" rx="6.5" ry="6.5" class="atom-1" style="fill:#E5E533;fill-rule:evenodd;stroke:#E5E533;stroke-width:1.0px;stroke-linecap:butt;stroke-linejoin:miter;stroke-opacity:1"/>
<ellipse cx="295.9" cy="98.2" rx="6.5" ry="6.5" class="atom-2" style="fill:#9999E5;fill-rule:evenodd;stroke:#9999E5;stroke-width:1.0px;stroke-linecap:butt;stroke-linejoin:miter;stroke-opacity:1"/>
<ellipse cx="292.3" cy="130.7" rx="6.5" ry="6.5" class="atom-3" style="fill:#E5E533;fill-rule:evenodd;stroke:#E5E533;stroke-width:1.0px;stroke-linecap:butt;stroke-linejoin:miter;stroke-opacity:1"/>
<ellipse cx="266.1" cy="84.7" rx="6.5" ry="6.5" class="atom-6" style="fill:#E5E533;fill-rule:evenodd;stroke:#E5E533;stroke-width:1.0px;stroke-linecap:butt;stroke-linejoin:miter;stroke-opacity:1"/>
<path class="bond-0 atom-0 atom-1" d="M 330.3,50.3 L 326.7,83.0" style="fill:none;fill-rule:evenodd;stroke:#E5E5E5;stroke-width:1.7px;stroke-linecap:butt;stroke-linejoin:miter;stroke-opacity:1"/>
<path class="bond-0 atom-0 atom-1" d="M 325.4,49.8 L 321.7,83.5" style="fill:none;fill-rule:evenodd;stroke:#E5E5E5;stroke-width:1.7px;stroke-linecap:butt;stroke-linejoin:miter;stroke-opacity:1;stroke-dasharray:6,4"/>
<path class="bond-1 atom-1 atom-2" d="M 324.3,82.0 L 295.9,98.2" style="fill:none;fill-rule:evenodd;stroke:#000000;stroke-width:2.0px;stroke-linecap:butt;stroke-linejoin:miter;stroke-opacity:1"/>
<path class="bond-2 atom-2 atom-3" d="M 295.9,98.2 L 292.3,130.7" style="fill:none;fill-rule:evenodd;stroke:#000000;stroke-width:2.0px;stroke-linecap:butt;stroke-linejoin:miter;stroke-opacity:1"/>
<path class="bond-2 atom-2 atom-3" d="M 290.6,101.2 L 287.8,126.6" style="fill:none;fill-rule:evenodd;stroke:#000000;stroke-width:2.0px;stroke-linecap:butt;stroke-linejoin:miter;stroke-opacity:1;stroke-dasharray:6,4"/>
<path class="bond-3 atom-3 atom-4" d="M 292.3,130.7 L 263.5,136.7" style="fill:none;fill-rule:evenodd;stroke:#E5E5E5;stroke-width:1.7px;stroke-linecap:butt;stroke-linejoin:miter;stroke-opacity:1"/>
<path class="bond-3 atom-3 atom-4" d="M 287.8,126.6 L 262.5,131.9" style="fill:none;fill-rule:evenodd;stroke:#E5E5E5;stroke-width:1.7px;stroke-linecap:butt;stroke-linejoin:miter;stroke-opacity:1;stroke-dasharray:6,4"/>
<path class="bond-4 atom-5 atom-6" d="M 247.3,105.3 L 266.1,84.7" style="fill:none;fill-rule:evenodd;stroke:#E5E5E5;stroke-width:1.7px;stroke-linecap:butt;stroke-linejoin:miter;stroke-opacity:1"/>
<path class="bond-4 atom-5 atom-6" d="M 251.0,108.6 L 267.3,90.7" style="fill:none;fill-rule:evenodd;stroke:#E5E5E5;stroke-width:1.7px;stroke-linecap:butt;stroke-linejoin:miter;stroke-opacity:1;stroke-dasharray:6,4"/>
<path class="bond-5 atom-1 atom-7" d="M 321.7,83.5 L 349.9,96.2" style="fill:none;fill-rule:evenodd;stroke:#E5E5E5;stroke-width:1.7px;stroke-linecap:butt;stroke-linejoin:miter;stroke-opacity:1"/>
<path class="bond-5 atom-1 atom-7" d="M 324.6,79.4 L 351.9,91.7" style="fill:none;fill-rule:evenodd;stroke:#E5E5E5;stroke-width:1.7px;stroke-linecap:butt;stroke-linejoin:miter;stroke-opacity:1;stroke-dasharray:6,4"/>
<path class="bond-6 atom-6 atom-2" d="M 266.1,84.7 L 295.9,98.2" style="fill:none;fill-rule:evenodd;stroke:#000000;stroke-width:2.0px;stroke-linecap:butt;stroke-linejoin:miter;stroke-opacity:1"/>
<path class="bond-6 atom-6 atom-2" d="M 267.3,90.7 L 290.6,101.2" style="fill:none;fill-rule:evenodd;stroke:#000000;stroke-width:2.0px;stroke-linecap:butt;stroke-linejoin:miter;stroke-opacity:1;stroke-dasharray:6,4"/>
<path d="M 292.4,129.9 L 292.3,130.7 L 291.6,130.9" style="fill:none;stroke:#000000;stroke-width:2.0px;stroke-linecap:butt;stroke-linejoin:miter;stroke-miterlimit:10;stroke-opacity:1;"/>
<path d="M 265.6,85.2 L 266.1,84.7 L 266.8,85.1" style="fill:none;stroke:#E5E5E5;stroke-width:1.7px;stroke-linecap:butt;stroke-linejoin:miter;stroke-miterlimit:10;stroke-opacity:1;"/>
<path class="atom-0" d="M 326.2 48.4 L 327.5 47.0 L 325.7 46.7 L 326.0 45.7 L 327.6 46.6 L 327.4 44.8 L 328.4 44.7 L 328.1 46.6 L 329.8 45.8 L 330.1 46.7 L 328.3 47.0 L 329.6 48.4 L 328.8 49.0 L 327.9 47.3 L 327.0 49.0 L 326.2 48.4 " fill="#191919"/>
<path class="atom-4" d="M 258.0 133.9 L 259.4 132.5 L 257.6 132.2 L 257.8 131.2 L 259.5 132.1 L 259.3 130.3 L 260.3 130.2 L 260.0 132.1 L 261.7 131.3 L 262.0 132.2 L 260.1 132.5 L 261.4 133.9 L 260.6 134.5 L 259.7 132.8 L 258.8 134.5 L 258.0 133.9 " fill="#191919"/>
<path class="atom-5" d="M 244.1 109.6 L 245.5 108.2 L 243.7 107.8 L 243.9 106.9 L 245.6 107.7 L 245.4 105.9 L 246.4 105.9 L 246.1 107.7 L 247.8 106.9 L 248.1 107.8 L 246.2 108.1 L 247.5 109.5 L 246.7 110.1 L 245.8 108.4 L 244.9 110.1 L 244.1 109.6 " fill="#191919"/>
<path class="atom-7" d="M 352.4 94.4 L 353.8 93.0 L 351.9 92.7 L 352.2 91.7 L 353.9 92.6 L 353.6 90.7 L 354.6 90.7 L 354.4 92.5 L 356.0 91.8 L 356.3 92.7 L 354.5 93.0 L 355.8 94.4 L 355.0 95.0 L 354.1 93.2 L 353.2 95.0 L 352.4 94.4 " fill="#191919"/>
<path class="legend" d="M 210.0 179.7 L 214.8 179.7 L 214.8 180.6 L 211.1 180.6 L 211.1 183.1 L 214.4 183.1 L 214.4 184.0 L 211.1 184.0 L 211.1 187.8 L 210.0 187.8 L 210.0 179.7 " fill="#000000"/>
<path class="legend" d="M 215.5 184.8 Q 215.5 183.4, 216.2 182.6 Q 216.9 181.8, 218.2 181.8 Q 219.5 181.8, 220.1 182.6 Q 220.7 183.3, 220.7 184.8 L 220.7 185.0 L 216.6 185.0 Q 216.6 186.0, 217.0 186.5 Q 217.5 187.0, 218.3 187.0 Q 218.8 187.0, 219.2 186.9 Q 219.6 186.8, 220.1 186.6 L 220.4 187.3 Q 219.9 187.6, 219.3 187.8 Q 218.8 187.9, 218.3 187.9 Q 216.9 187.9, 216.2 187.1 Q 215.5 186.3, 215.5 184.8 M 218.2 182.6 Q 217.5 182.6, 217.1 183.0 Q 216.7 183.4, 216.6 184.2 L 219.5 184.2 Q 219.5 183.4, 219.1 183.0 Q 218.8 182.6, 218.2 182.6 " fill="#000000"/>
<path class="legend" d="M 221.5 186.2 Q 221.5 185.3, 222.3 184.7 Q 223.0 184.2, 224.4 184.2 L 225.3 184.2 L 225.3 184.0 Q 225.3 183.3, 225.0 182.9 Q 224.7 182.6, 223.9 182.6 Q 223.5 182.6, 223.1 182.7 Q 222.7 182.8, 222.1 183.1 L 221.8 182.3 Q 222.9 181.8, 223.9 181.8 Q 225.2 181.8, 225.8 182.3 Q 226.3 182.9, 226.3 184.0 L 226.3 187.8 L 225.5 187.8 Q 225.5 187.7, 225.5 187.6 Q 225.4 187.4, 225.4 187.1 Q 224.5 187.9, 223.4 187.9 Q 222.6 187.9, 222.0 187.5 Q 221.5 187.0, 221.5 186.2 M 222.6 186.2 Q 222.6 186.6, 222.8 186.8 Q 223.1 187.1, 223.6 187.1 Q 224.1 187.1, 224.5 186.9 Q 225.0 186.7, 225.3 186.3 L 225.3 185.0 L 224.5 185.0 Q 223.5 185.0, 223.0 185.3 Q 222.6 185.6, 222.6 186.2 " fill="#000000"/>
<path class="legend" d="M 227.6 182.7 L 227.6 181.9 L 228.7 181.9 L 228.9 180.2 L 229.7 180.2 L 229.7 181.9 L 231.5 181.9 L 231.5 182.7 L 229.7 182.7 L 229.7 186.0 Q 229.7 187.0, 230.6 187.0 Q 230.9 187.0, 231.4 186.8 L 231.6 187.6 Q 231.0 187.9, 230.4 187.9 Q 229.6 187.9, 229.1 187.4 Q 228.6 186.9, 228.6 186.0 L 228.6 182.7 L 227.6 182.7 " fill="#000000"/>
<path class="legend" d="M 237.3 181.9 L 237.3 187.8 L 236.4 187.8 L 236.3 187.0 Q 235.5 187.9, 234.3 187.9 Q 233.3 187.9, 232.8 187.4 Q 232.3 186.8, 232.3 185.8 L 232.3 181.9 L 233.4 181.9 L 233.4 185.7 Q 233.4 186.4, 233.6 186.7 Q 233.9 187.0, 234.5 187.0 Q 235.0 187.0, 235.5 186.8 Q 235.9 186.5, 236.2 186.1 L 236.2 181.9 L 237.3 181.9 " fill="#000000"/>
<path class="legend" d="M 239.5 181.9 L 239.6 182.7 Q 240.2 181.8, 241.2 181.8 Q 241.6 181.8, 242.0 181.9 L 241.8 182.9 Q 241.3 182.8, 241.1 182.8 Q 240.6 182.8, 240.3 182.9 Q 239.9 183.1, 239.7 183.6 L 239.7 187.8 L 238.6 187.8 L 238.6 181.9 L 239.5 181.9 " fill="#000000"/>
<path class="legend" d="M 242.6 184.8 Q 242.6 183.4, 243.3 182.6 Q 244.0 181.8, 245.3 181.8 Q 246.6 181.8, 247.2 182.6 Q 247.8 183.3, 247.8 184.8 L 247.8 185.0 L 243.7 185.0 Q 243.7 186.0, 244.1 186.5 Q 244.6 187.0, 245.4 187.0 Q 245.9 187.0, 246.3 186.9 Q 246.7 186.8, 247.2 186.6 L 247.5 187.3 Q 247.0 187.6, 246.4 187.8 Q 245.9 187.9, 245.3 187.9 Q 244.0 187.9, 243.3 187.1 Q 242.6 186.3, 242.6 184.8 M 245.3 182.6 Q 244.6 182.6, 244.2 183.0 Q 243.8 183.4, 243.7 184.2 L 246.6 184.2 Q 246.6 183.4, 246.2 183.0 Q 245.9 182.6, 245.3 182.6 " fill="#000000"/>
<path class="legend" d="" fill="#000000"/>
<path class="legend" d="M 253.2 186.9 L 255.0 186.9 L 255.0 180.8 L 253.1 181.4 L 252.8 180.7 L 255.3 179.6 L 256.1 179.8 L 256.1 186.9 L 257.7 186.9 L 257.7 187.8 L 253.2 187.8 L 253.2 186.9 " fill="#000000"/>
<path class="legend" d="M 259.0 186.9 L 260.8 186.9 L 260.8 180.8 L 258.8 181.4 L 258.6 180.7 L 261.0 179.6 L 261.9 179.8 L 261.9 186.9 L 263.4 186.9 L 263.4 187.8 L 259.0 187.8 L 259.0 186.9 " fill="#000000"/>
<path class="legend" d="M 267.5 182.7 Q 268.2 182.7, 268.8 183.0 Q 269.3 183.3, 269.6 183.9 Q 269.9 184.5, 269.9 185.2 Q 269.9 186.0, 269.6 186.6 Q 269.2 187.2, 268.6 187.5 Q 268.0 187.9, 267.2 187.9 Q 265.8 187.9, 265.0 186.9 Q 264.3 185.9, 264.3 184.0 Q 264.3 181.8, 265.2 180.7 Q 266.1 179.6, 267.8 179.6 Q 268.3 179.6, 268.8 179.7 Q 269.2 179.8, 269.6 180.0 L 269.2 180.8 Q 268.6 180.5, 267.9 180.5 Q 266.7 180.5, 266.1 181.2 Q 265.5 182.0, 265.5 183.5 Q 265.9 183.1, 266.4 182.9 Q 266.9 182.7, 267.5 182.7 M 267.2 186.9 Q 267.7 186.9, 268.0 186.7 Q 268.4 186.5, 268.6 186.1 Q 268.8 185.7, 268.8 185.2 Q 268.8 184.5, 268.4 184.0 Q 268.0 183.6, 267.3 183.6 Q 266.8 183.6, 266.3 183.8 Q 265.8 184.0, 265.5 184.4 Q 265.5 185.7, 265.9 186.3 Q 266.4 186.9, 267.2 186.9 " fill="#000000"/>
<path class="legend" d="M 273.9 187.9 Q 272.4 187.9, 271.7 186.8 Q 271.0 185.7, 271.0 183.7 Q 271.0 181.8, 271.7 180.7 Q 272.4 179.6, 273.9 179.6 Q 275.4 179.6, 276.2 180.7 Q 276.9 181.8, 276.9 183.7 Q 276.9 185.7, 276.1 186.8 Q 275.4 187.9, 273.9 187.9 M 273.9 187.0 Q 274.8 187.0, 275.3 186.1 Q 275.7 185.3, 275.7 183.7 Q 275.7 182.1, 275.3 181.3 Q 274.8 180.5, 273.9 180.5 Q 273.1 180.5, 272.6 181.3 Q 272.1 182.1, 272.1 183.7 Q 272.1 185.3, 272.6 186.1 Q 273.1 187.0, 273.9 187.0 " fill="#000000"/>
<path class="legend" d="" fill="#000000"/>
<path class="legend" d="M 282.2 178.9 L 283.2 178.9 L 283.2 190.0 L 282.2 190.0 L 282.2 178.9 " fill="#000000"/>
<path class="legend" d="M 284.5 178.9 L 285.5 178.9 L 285.5 190.0 L 284.5 190.0 L 284.5 178.9 " fill="#000000"/>
<path class="legend" d="" fill="#000000"/>
<path class="legend" d="M 300.3 187.8 L 299.3 187.8 L 298.5 181.1 L 296.3 187.8 L 295.2 187.8 L 293.0 181.1 L 292.1 187.8 L 291.1 187.8 L 292.1 179.7 L 293.5 179.7 L 295.7 186.2 L 297.9 179.7 L 299.3 179.7 L 300.3 187.8 " fill="#000000"/>
<path class="legend" d="M 301.5 184.8 Q 301.5 183.4, 302.2 182.6 Q 302.9 181.8, 304.2 181.8 Q 305.5 181.8, 306.1 182.6 Q 306.7 183.3, 306.7 184.8 L 306.7 185.0 L 302.6 185.0 Q 302.6 186.0, 303.0 186.5 Q 303.5 187.0, 304.3 187.0 Q 304.8 187.0, 305.2 186.9 Q 305.6 186.8, 306.1 186.6 L 306.5 187.3 Q 305.9 187.6, 305.3 187.8 Q 304.8 187.9, 304.3 187.9 Q 302.9 187.9, 302.2 187.1 Q 301.5 186.3, 301.5 184.8 M 304.2 182.6 Q 303.6 182.6, 303.1 183.0 Q 302.7 183.4, 302.6 184.2 L 305.6 184.2 Q 305.5 183.4, 305.2 183.0 Q 304.8 182.6, 304.2 182.6 " fill="#000000"/>
<path class="legend" d="M 307.5 186.2 Q 307.5 185.3, 308.3 184.7 Q 309.0 184.2, 310.4 184.2 L 311.3 184.2 L 311.3 184.0 Q 311.3 183.3, 311.0 182.9 Q 310.7 182.6, 309.9 182.6 Q 309.5 182.6, 309.1 182.7 Q 308.7 182.8, 308.2 183.1 L 307.8 182.3 Q 308.9 181.8, 310.0 181.8 Q 311.2 181.8, 311.8 182.3 Q 312.4 182.9, 312.4 184.0 L 312.4 187.8 L 311.5 187.8 Q 311.5 187.7, 311.5 187.6 Q 311.4 187.4, 311.4 187.1 Q 310.5 187.9, 309.4 187.9 Q 308.6 187.9, 308.0 187.5 Q 307.5 187.0, 307.5 186.2 M 308.6 186.2 Q 308.6 186.6, 308.9 186.8 Q 309.1 187.1, 309.7 187.1 Q 310.1 187.1, 310.5 186.9 Q 311.0 186.7, 311.3 186.3 L 311.3 185.0 L 310.5 185.0 Q 309.5 185.0, 309.1 185.3 Q 308.6 185.6, 308.6 186.2 " fill="#000000"/>
<path class="legend" d="M 316.7 181.8 Q 317.6 181.8, 318.1 182.3 Q 318.6 182.9, 318.6 183.9 L 318.6 187.8 L 317.6 187.8 L 317.6 184.0 Q 317.6 183.3, 317.3 183.0 Q 317.0 182.6, 316.4 182.6 Q 315.9 182.6, 315.4 182.9 Q 315.0 183.1, 314.7 183.6 L 314.7 187.8 L 313.6 187.8 L 313.6 181.9 L 314.5 181.9 L 314.6 182.7 Q 315.4 181.8, 316.7 181.8 " fill="#000000"/>
<path class="legend" d="" fill="#000000"/>
<path class="legend" d="M 324.1 178.9 L 325.1 178.9 L 325.1 190.0 L 324.1 190.0 L 324.1 178.9 " fill="#000000"/>
<path class="legend" d="M 326.7 186.5 Q 326.8 186.6, 327.2 186.7 Q 327.6 186.9, 328.0 187.0 Q 328.4 187.1, 328.8 187.1 Q 329.6 187.1, 330.0 186.7 Q 330.5 186.3, 330.5 185.7 Q 330.5 185.2, 330.3 185.0 Q 330.0 184.7, 329.7 184.5 Q 329.4 184.4, 328.8 184.2 Q 328.1 184.0, 327.6 183.8 Q 327.2 183.6, 326.9 183.1 Q 326.6 182.7, 326.6 182.0 Q 326.6 181.0, 327.3 180.3 Q 328.0 179.7, 329.4 179.7 Q 330.3 179.7, 331.4 180.1 L 331.1 181.0 Q 330.1 180.6, 329.4 180.6 Q 328.6 180.6, 328.2 181.0 Q 327.7 181.3, 327.7 181.8 Q 327.7 182.3, 328.0 182.5 Q 328.2 182.8, 328.5 182.9 Q 328.8 183.1, 329.4 183.3 Q 330.1 183.5, 330.6 183.7 Q 331.0 184.0, 331.3 184.4 Q 331.6 184.9, 331.6 185.7 Q 331.6 186.8, 330.9 187.4 Q 330.1 188.0, 328.9 188.0 Q 328.2 188.0, 327.6 187.8 Q 327.1 187.7, 326.4 187.4 L 326.7 186.5 " fill="#000000"/>
<path class="legend" d="M 332.5 179.7 L 333.6 179.7 L 333.6 183.1 L 337.8 183.1 L 337.8 179.7 L 338.9 179.7 L 338.9 187.8 L 337.8 187.8 L 337.8 184.0 L 333.6 184.0 L 333.6 187.8 L 332.5 187.8 L 332.5 179.7 " fill="#000000"/>
<path class="legend" d="M 346.2 187.8 L 345.4 185.4 L 342.2 185.4 L 341.4 187.8 L 340.3 187.8 L 343.1 179.7 L 344.4 179.7 L 347.3 187.8 L 346.2 187.8 M 342.5 184.5 L 345.1 184.5 L 343.8 180.8 L 342.5 184.5 " fill="#000000"/>
<path class="legend" d="M 350.2 179.7 Q 351.6 179.7, 352.3 180.3 Q 353.0 180.9, 353.0 182.1 Q 353.0 183.2, 352.3 183.8 Q 351.6 184.5, 350.2 184.5 L 348.9 184.5 L 348.9 187.8 L 347.8 187.8 L 347.8 179.7 L 350.2 179.7 M 350.2 183.5 Q 351.0 183.5, 351.4 183.2 Q 351.9 182.8, 351.9 182.1 Q 351.9 181.3, 351.4 181.0 Q 351.0 180.6, 350.2 180.6 L 348.9 180.6 L 348.9 183.5 L 350.2 183.5 " fill="#000000"/>
<path class="legend" d="M 353.9 178.9 L 354.9 178.9 L 354.9 190.0 L 353.9 190.0 L 353.9 178.9 " fill="#000000"/>
<path class="legend" d="M 356.3 186.4 L 357.4 186.4 L 357.4 187.6 L 356.3 187.6 L 356.3 186.4 M 356.3 182.5 L 357.4 182.5 L 357.4 183.6 L 356.3 183.6 L 356.3 182.5 " fill="#000000"/>
<path class="legend" d="" fill="#000000"/>
<path class="legend" d="M 363.3 186.9 L 365.1 186.9 L 365.1 180.8 L 363.1 181.4 L 362.8 180.7 L 365.3 179.6 L 366.1 179.8 L 366.1 186.9 L 367.7 186.9 L 367.7 187.8 L 363.3 187.8 L 363.3 186.9 " fill="#000000"/>
<path class="legend" d="M 371.6 182.7 Q 372.3 182.7, 372.8 183.0 Q 373.4 183.3, 373.8 183.9 Q 374.1 184.5, 374.1 185.2 Q 374.1 186.1, 373.7 186.7 Q 373.3 187.3, 372.6 187.6 Q 372.0 187.9, 371.2 187.9 Q 370.5 187.9, 369.8 187.6 Q 369.1 187.3, 368.6 186.8 L 369.3 186.1 Q 369.7 186.5, 370.2 186.7 Q 370.7 187.0, 371.2 187.0 Q 372.0 187.0, 372.4 186.5 Q 373.0 186.1, 373.0 185.2 Q 373.0 184.4, 372.4 184.0 Q 372.0 183.6, 371.2 183.6 Q 370.5 183.6, 369.7 183.9 L 369.0 183.6 L 369.4 179.7 L 373.6 179.7 L 373.5 180.6 L 370.4 180.6 L 370.1 183.0 Q 370.8 182.7, 371.6 182.7 " fill="#000000"/>
<path class="legend" d="M 375.0 186.6 L 376.2 186.6 L 376.2 187.8 L 375.0 187.8 L 375.0 186.6 " fill="#000000"/>
<path class="legend" d="M 380.3 187.9 Q 378.8 187.9, 378.0 186.8 Q 377.3 185.7, 377.3 183.7 Q 377.3 181.8, 378.0 180.7 Q 378.8 179.6, 380.3 179.6 Q 381.8 179.6, 382.5 180.7 Q 383.2 181.8, 383.2 183.7 Q 383.2 185.7, 382.5 186.8 Q 381.8 187.9, 380.3 187.9 M 380.3 187.0 Q 381.2 187.0, 381.6 186.1 Q 382.1 185.3, 382.1 183.7 Q 382.1 182.1, 381.6 181.3 Q 381.2 180.5, 380.3 180.5 Q 379.4 180.5, 378.9 181.3 Q 378.5 182.1, 378.5 183.7 Q 378.5 185.3, 378.9 186.1 Q 379.4 187.0, 380.3 187.0 " fill="#000000"/>
<path class="legend" d="M 387.1 179.6 Q 388.5 179.6, 389.3 180.6 Q 390.0 181.5, 390.0 183.5 Q 390.0 185.6, 389.1 186.8 Q 388.2 187.9, 386.5 187.9 Q 386.0 187.9, 385.5 187.8 Q 385.1 187.6, 384.7 187.4 L 385.1 186.6 Q 385.7 187.0, 386.5 187.0 Q 387.6 187.0, 388.2 186.2 Q 388.8 185.5, 388.8 184.0 Q 388.4 184.3, 387.9 184.5 Q 387.4 184.7, 386.8 184.7 Q 386.1 184.7, 385.6 184.4 Q 385.0 184.1, 384.7 183.6 Q 384.4 183.0, 384.4 182.3 Q 384.4 181.5, 384.7 180.9 Q 385.1 180.3, 385.7 179.9 Q 386.3 179.6, 387.1 179.6 M 385.5 182.3 Q 385.5 183.0, 385.9 183.4 Q 386.3 183.8, 387.0 183.8 Q 387.5 183.8, 388.0 183.6 Q 388.5 183.4, 388.8 183.1 Q 388.8 181.7, 388.4 181.1 Q 387.9 180.5, 387.1 180.5 Q 386.7 180.5, 386.3 180.7 Q 385.9 181.0, 385.7 181.4 Q 385.5 181.8, 385.5 182.3 " fill="#000000"/>
<ellipse cx="509.2" cy="90.9" rx="6.5" ry="6.5" class="atom-3" style="fill:#9999E5;fill-rule:evenodd;stroke:#9999E5;stroke-width:1.0px;stroke-linecap:butt;stroke-linejoin:miter;stroke-opacity:1"/>
<ellipse cx="493.0" cy="119.3" rx="6.5" ry="6.5" class="atom-4" style="fill:#E5E533;fill-rule:evenodd;stroke:#E5E533;stroke-width:1.0px;stroke-linecap:butt;stroke-linejoin:miter;stroke-opacity:1"/>
<ellipse cx="460.2" cy="119.4" rx="6.5" ry="6.5" class="atom-5" style="fill:#E5E533;fill-rule:evenodd;stroke:#E5E533;stroke-width:1.0px;stroke-linecap:butt;stroke-linejoin:miter;stroke-opacity:1"/>
<ellipse cx="460.1" cy="62.7" rx="6.5" ry="6.5" class="atom-7" style="fill:#E5E533;fill-rule:evenodd;stroke:#E5E533;stroke-width:1.0px;stroke-linecap:butt;stroke-linejoin:miter;stroke-opacity:1"/>
<ellipse cx="492.8" cy="62.6" rx="6.5" ry="6.5" class="atom-8" style="fill:#E5E533;fill-rule:evenodd;stroke:#E5E533;stroke-width:1.0px;stroke-linecap:butt;stroke-linejoin:miter;stroke-opacity:1"/>
<path class="bond-0 atom-0 atom-1" d="M 558.4,119.1 L 542.0,90.8" style="fill:none;fill-rule:evenodd;stroke:#000000;stroke-width:2.0px;stroke-linecap:butt;stroke-linejoin:miter;stroke-opacity:1"/>
<path class="bond-1 atom-1 atom-2" d="M 542.0,90.8 L 558.2,62.4" style="fill:none;fill-rule:evenodd;stroke:#000000;stroke-width:2.0px;stroke-linecap:butt;stroke-linejoin:miter;stroke-opacity:1"/>
<path class="bond-2 atom-1 atom-3" d="M 542.0,90.8 L 509.2,90.9" style="fill:none;fill-rule:evenodd;stroke:#000000;stroke-width:2.0px;stroke-linecap:butt;stroke-linejoin:miter;stroke-opacity:1"/>
<path class="bond-3 atom-3 atom-4" d="M 509.2,90.9 L 493.0,119.3" style="fill:none;fill-rule:evenodd;stroke:#000000;stroke-width:2.0px;stroke-linecap:butt;stroke-linejoin:miter;stroke-opacity:1"/>
<path class="bond-3 atom-3 atom-4" d="M 503.6,90.9 L 490.1,114.4" style="fill:none;fill-rule:evenodd;stroke:#000000;stroke-width:2.0px;stroke-linecap:butt;stroke-linejoin:miter;stroke-opacity:1"/>
<path class="bond-4 atom-4 atom-5" d="M 493.0,119.3 L 460.2,119.4" style="fill:none;fill-rule:evenodd;stroke:#000000;stroke-width:2.0px;stroke-linecap:butt;stroke-linejoin:miter;stroke-opacity:1"/>
<path class="bond-5 atom-5 atom-6" d="M 460.2,119.4 L 444.1,91.7" style="fill:none;fill-rule:evenodd;stroke:#E5E5E5;stroke-width:1.7px;stroke-linecap:butt;stroke-linejoin:miter;stroke-opacity:1"/>
<path class="bond-5 atom-5 atom-6" d="M 463.1,114.5 L 448.4,89.2" style="fill:none;fill-rule:evenodd;stroke:#E5E5E5;stroke-width:1.7px;stroke-linecap:butt;stroke-linejoin:miter;stroke-opacity:1"/>
<path class="bond-6 atom-6 atom-7" d="M 447.1,85.4 L 460.1,62.7" style="fill:none;fill-rule:evenodd;stroke:#E5E5E5;stroke-width:1.7px;stroke-linecap:butt;stroke-linejoin:miter;stroke-opacity:1"/>
<path class="bond-7 atom-7 atom-8" d="M 460.1,62.7 L 492.8,62.6" style="fill:none;fill-rule:evenodd;stroke:#000000;stroke-width:2.0px;stroke-linecap:butt;stroke-linejoin:miter;stroke-opacity:1"/>
<path class="bond-7 atom-7 atom-8" d="M 462.9,67.6 L 490.0,67.5" style="fill:none;fill-rule:evenodd;stroke:#000000;stroke-width:2.0px;stroke-linecap:butt;stroke-linejoin:miter;stroke-opacity:1"/>
<path class="bond-8 atom-8 atom-3" d="M 492.8,62.6 L 509.2,90.9" style="fill:none;fill-rule:evenodd;stroke:#000000;stroke-width:2.0px;stroke-linecap:butt;stroke-linejoin:miter;stroke-opacity:1"/>
<path d="M 493.8,117.9 L 493.0,119.3 L 491.3,119.3" style="fill:none;stroke:#000000;stroke-width:2.0px;stroke-linecap:butt;stroke-linejoin:miter;stroke-miterlimit:10;stroke-opacity:1;"/>
<path d="M 461.1,119.4 L 460.2,119.4 L 459.8,118.7" style="fill:none;stroke:#000000;stroke-width:2.0px;stroke-linecap:butt;stroke-linejoin:miter;stroke-miterlimit:10;stroke-opacity:1;"/>
<path d="M 459.8,63.3 L 460.1,62.7 L 460.9,62.7" style="fill:none;stroke:#E5E5E5;stroke-width:1.7px;stroke-linecap:butt;stroke-linejoin:miter;stroke-miterlimit:10;stroke-opacity:1;"/>
<path d="M 491.2,62.6 L 492.8,62.6 L 493.6,64.0" style="fill:none;stroke:#000000;stroke-width:2.0px;stroke-linecap:butt;stroke-linejoin:miter;stroke-miterlimit:10;stroke-opacity:1;"/>
<path class="atom-6" d="M 442.0 90.1 L 443.4 88.7 L 441.6 88.3 L 441.9 87.4 L 443.5 88.2 L 443.3 86.4 L 444.3 86.4 L 444.0 88.2 L 445.7 87.4 L 446.0 88.3 L 444.2 88.6 L 445.5 90.0 L 444.7 90.6 L 443.8 88.9 L 442.8 90.6 L 442.0 90.1 " fill="#191919"/>
<path class="legend" d="M 410.0 179.3 L 415.0 179.3 L 415.0 180.3 L 411.1 180.3 L 411.1 182.8 L 414.6 182.8 L 414.6 183.8 L 411.1 183.8 L 411.1 187.7 L 410.0 187.7 L 410.0 179.3 " fill="#000000"/>
<path class="legend" d="M 415.6 184.6 Q 415.6 183.2, 416.4 182.3 Q 417.1 181.5, 418.5 181.5 Q 419.9 181.5, 420.4 182.3 Q 421.0 183.1, 421.0 184.6 L 421.0 184.8 L 416.8 184.8 Q 416.8 185.8, 417.3 186.4 Q 417.7 186.9, 418.6 186.9 Q 419.1 186.9, 419.5 186.8 Q 420.0 186.7, 420.5 186.5 L 420.8 187.2 Q 420.2 187.5, 419.7 187.7 Q 419.1 187.8, 418.5 187.8 Q 417.2 187.8, 416.4 187.0 Q 415.6 186.1, 415.6 184.6 M 418.5 182.4 Q 417.8 182.4, 417.4 182.8 Q 417.0 183.2, 416.8 184.0 L 419.9 184.0 Q 419.8 183.2, 419.5 182.8 Q 419.1 182.4, 418.5 182.4 " fill="#000000"/>
<path class="legend" d="M 421.9 186.1 Q 421.9 185.1, 422.7 184.6 Q 423.5 184.0, 424.9 184.0 L 425.8 184.0 L 425.8 183.8 Q 425.8 183.0, 425.5 182.7 Q 425.2 182.4, 424.4 182.4 Q 423.9 182.4, 423.5 182.5 Q 423.2 182.6, 422.6 182.8 L 422.2 182.0 Q 423.4 181.5, 424.4 181.5 Q 425.7 181.5, 426.3 182.1 Q 426.9 182.6, 426.9 183.8 L 426.9 187.7 L 426.0 187.7 Q 426.0 187.7, 426.0 187.5 Q 426.0 187.3, 425.9 187.0 Q 425.0 187.9, 423.9 187.9 Q 423.0 187.9, 422.4 187.4 Q 421.9 186.9, 421.9 186.1 M 423.0 186.0 Q 423.0 186.5, 423.3 186.7 Q 423.6 187.0, 424.1 187.0 Q 424.6 187.0, 425.0 186.8 Q 425.5 186.5, 425.8 186.2 L 425.8 184.8 L 425.0 184.8 Q 424.0 184.8, 423.5 185.1 Q 423.0 185.4, 423.0 186.0 " fill="#000000"/>
<path class="legend" d="M 428.2 182.5 L 428.2 181.6 L 429.4 181.6 L 429.6 179.8 L 430.4 179.8 L 430.4 181.6 L 432.3 181.6 L 432.3 182.5 L 430.4 182.5 L 430.4 185.8 Q 430.4 186.9, 431.3 186.9 Q 431.6 186.9, 432.2 186.7 L 432.4 187.5 Q 431.7 187.8, 431.1 187.8 Q 430.3 187.8, 429.8 187.3 Q 429.3 186.8, 429.3 185.9 L 429.3 182.5 L 428.2 182.5 " fill="#000000"/>
<path class="legend" d="M 438.2 181.6 L 438.2 187.7 L 437.3 187.7 L 437.2 186.9 Q 436.4 187.8, 435.1 187.8 Q 434.1 187.8, 433.6 187.3 Q 433.1 186.7, 433.1 185.6 L 433.1 181.6 L 434.2 181.6 L 434.2 185.6 Q 434.2 186.3, 434.4 186.6 Q 434.7 186.9, 435.3 186.9 Q 435.9 186.9, 436.4 186.7 Q 436.8 186.4, 437.1 186.0 L 437.1 181.6 L 438.2 181.6 " fill="#000000"/>
<path class="legend" d="M 440.5 181.6 L 440.6 182.5 Q 441.3 181.5, 442.3 181.5 Q 442.7 181.5, 443.1 181.6 L 442.9 182.6 Q 442.4 182.5, 442.1 182.5 Q 441.6 182.5, 441.3 182.7 Q 441.0 182.9, 440.7 183.4 L 440.7 187.7 L 439.6 187.7 L 439.6 181.6 L 440.5 181.6 " fill="#000000"/>
<path class="legend" d="M 443.7 184.6 Q 443.7 183.2, 444.4 182.3 Q 445.2 181.5, 446.5 181.5 Q 447.9 181.5, 448.5 182.3 Q 449.1 183.1, 449.1 184.6 L 449.1 184.8 L 444.8 184.8 Q 444.8 185.8, 445.3 186.4 Q 445.8 186.9, 446.6 186.9 Q 447.1 186.9, 447.5 186.8 Q 448.0 186.7, 448.5 186.5 L 448.8 187.2 Q 448.2 187.5, 447.7 187.7 Q 447.1 187.8, 446.6 187.8 Q 445.2 187.8, 444.4 187.0 Q 443.7 186.1, 443.7 184.6 M 446.5 182.4 Q 445.8 182.4, 445.4 182.8 Q 445.0 183.2, 444.9 184.0 L 447.9 184.0 Q 447.8 183.2, 447.5 182.8 Q 447.2 182.4, 446.5 182.4 " fill="#000000"/>
<path class="legend" d="" fill="#000000"/>
<path class="legend" d="M 457.3 182.5 Q 458.1 182.5, 458.7 182.8 Q 459.3 183.1, 459.6 183.7 Q 460.0 184.3, 460.0 185.1 Q 460.0 185.9, 459.5 186.5 Q 459.1 187.2, 458.4 187.5 Q 457.7 187.8, 456.9 187.8 Q 456.2 187.8, 455.5 187.5 Q 454.8 187.2, 454.3 186.7 L 455.0 186.0 Q 455.4 186.4, 455.9 186.6 Q 456.4 186.8, 457.0 186.8 Q 457.7 186.8, 458.2 186.4 Q 458.8 185.9, 458.8 185.1 Q 458.8 184.2, 458.2 183.8 Q 457.7 183.3, 456.9 183.3 Q 456.2 183.3, 455.4 183.7 L 454.7 183.4 L 455.1 179.3 L 459.4 179.3 L 459.3 180.3 L 456.1 180.3 L 455.8 182.7 Q 456.6 182.5, 457.3 182.5 " fill="#000000"/>
<path class="legend" d="M 464.2 182.5 Q 464.9 182.5, 465.5 182.8 Q 466.1 183.1, 466.4 183.7 Q 466.7 184.3, 466.7 185.0 Q 466.7 185.8, 466.4 186.5 Q 466.0 187.1, 465.4 187.4 Q 464.7 187.8, 463.9 187.8 Q 462.4 187.8, 461.7 186.8 Q 460.9 185.8, 460.9 183.8 Q 460.9 181.5, 461.8 180.4 Q 462.8 179.2, 464.6 179.2 Q 465.1 179.2, 465.5 179.3 Q 466.0 179.4, 466.4 179.7 L 465.9 180.5 Q 465.3 180.2, 464.6 180.2 Q 463.4 180.2, 462.8 180.9 Q 462.2 181.7, 462.1 183.3 Q 462.5 182.9, 463.1 182.7 Q 463.6 182.5, 464.2 182.5 M 463.9 186.8 Q 464.4 186.8, 464.7 186.6 Q 465.1 186.4, 465.3 185.9 Q 465.6 185.5, 465.6 185.0 Q 465.6 184.3, 465.1 183.8 Q 464.7 183.4, 464.0 183.4 Q 463.5 183.4, 463.0 183.6 Q 462.5 183.8, 462.1 184.2 Q 462.2 185.6, 462.6 186.2 Q 463.0 186.8, 463.9 186.8 " fill="#000000"/>
<path class="legend" d="M 468.2 186.8 L 470.1 186.8 L 470.1 180.5 L 468.1 181.1 L 467.8 180.4 L 470.4 179.3 L 471.2 179.4 L 471.2 186.8 L 472.9 186.8 L 472.9 187.7 L 468.2 187.7 L 468.2 186.8 " fill="#000000"/>
<path class="legend" d="" fill="#000000"/>
<path class="legend" d="M 478.1 178.5 L 479.1 178.5 L 479.1 190.0 L 478.1 190.0 L 478.1 178.5 " fill="#000000"/>
<path class="legend" d="M 480.5 178.5 L 481.5 178.5 L 481.5 190.0 L 480.5 190.0 L 480.5 178.5 " fill="#000000"/>
<path class="legend" d="" fill="#000000"/>
<path class="legend" d="M 496.8 187.7 L 495.8 187.7 L 494.9 180.8 L 492.6 187.7 L 491.5 187.7 L 489.2 180.8 L 488.3 187.7 L 487.2 187.7 L 488.3 179.3 L 489.7 179.3 L 492.0 186.1 L 494.4 179.3 L 495.8 179.3 L 496.8 187.7 " fill="#000000"/>
<path class="legend" d="M 498.0 184.6 Q 498.0 183.2, 498.7 182.3 Q 499.5 181.5, 500.9 181.5 Q 502.2 181.5, 502.8 182.3 Q 503.4 183.1, 503.4 184.6 L 503.4 184.8 L 499.1 184.8 Q 499.2 185.8, 499.6 186.4 Q 500.1 186.9, 501.0 186.9 Q 501.4 186.9, 501.9 186.8 Q 502.3 186.7, 502.8 186.5 L 503.2 187.2 Q 502.6 187.5, 502.0 187.7 Q 501.5 187.8, 500.9 187.8 Q 499.5 187.8, 498.8 187.0 Q 498.0 186.1, 498.0 184.6 M 500.9 182.4 Q 500.2 182.4, 499.7 182.8 Q 499.3 183.2, 499.2 184.0 L 502.2 184.0 Q 502.1 183.2, 501.8 182.8 Q 501.5 182.4, 500.9 182.4 " fill="#000000"/>
<path class="legend" d="M 504.2 186.1 Q 504.2 185.1, 505.0 184.6 Q 505.8 184.0, 507.2 184.0 L 508.2 184.0 L 508.2 183.8 Q 508.2 183.0, 507.8 182.7 Q 507.5 182.4, 506.8 182.4 Q 506.3 182.4, 505.9 182.5 Q 505.5 182.6, 504.9 182.8 L 504.6 182.0 Q 505.7 181.5, 506.8 181.5 Q 508.1 181.5, 508.7 182.1 Q 509.3 182.6, 509.3 183.8 L 509.3 187.7 L 508.4 187.7 Q 508.4 187.7, 508.4 187.5 Q 508.3 187.3, 508.2 187.0 Q 507.4 187.9, 506.3 187.9 Q 505.3 187.9, 504.8 187.4 Q 504.2 186.9, 504.2 186.1 M 505.4 186.0 Q 505.4 186.5, 505.6 186.7 Q 505.9 187.0, 506.5 187.0 Q 506.9 187.0, 507.4 186.8 Q 507.8 186.5, 508.2 186.2 L 508.2 184.8 L 507.3 184.8 Q 506.3 184.8, 505.8 185.1 Q 505.4 185.4, 505.4 186.0 " fill="#000000"/>
<path class="legend" d="M 513.8 181.5 Q 514.7 181.5, 515.2 182.1 Q 515.8 182.6, 515.8 183.7 L 515.8 187.7 L 514.6 187.7 L 514.6 183.8 Q 514.6 183.0, 514.4 182.7 Q 514.1 182.4, 513.5 182.4 Q 512.9 182.4, 512.4 182.6 Q 512.0 182.9, 511.7 183.3 L 511.7 187.7 L 510.6 187.7 L 510.6 181.6 L 511.5 181.6 L 511.6 182.5 Q 512.4 181.5, 513.8 181.5 " fill="#000000"/>
<path class="legend" d="" fill="#000000"/>
<path class="legend" d="M 521.4 178.5 L 522.4 178.5 L 522.4 190.0 L 521.4 190.0 L 521.4 178.5 " fill="#000000"/>
<path class="legend" d="M 524.1 186.4 Q 524.2 186.4, 524.6 186.6 Q 525.0 186.8, 525.4 186.9 Q 525.9 187.0, 526.3 187.0 Q 527.1 187.0, 527.6 186.6 Q 528.0 186.2, 528.0 185.5 Q 528.0 185.1, 527.8 184.8 Q 527.6 184.5, 527.2 184.3 Q 526.8 184.2, 526.3 184.0 Q 525.5 183.8, 525.1 183.6 Q 524.6 183.4, 524.3 182.9 Q 524.0 182.5, 524.0 181.7 Q 524.0 180.6, 524.7 180.0 Q 525.4 179.3, 526.8 179.3 Q 527.8 179.3, 528.9 179.8 L 528.7 180.7 Q 527.6 180.3, 526.9 180.3 Q 526.1 180.3, 525.6 180.6 Q 525.2 181.0, 525.2 181.6 Q 525.2 182.0, 525.4 182.3 Q 525.6 182.5, 526.0 182.7 Q 526.3 182.9, 526.9 183.0 Q 527.6 183.3, 528.1 183.5 Q 528.5 183.7, 528.9 184.2 Q 529.2 184.7, 529.2 185.5 Q 529.2 186.7, 528.4 187.3 Q 527.6 187.9, 526.4 187.9 Q 525.6 187.9, 525.0 187.8 Q 524.5 187.6, 523.8 187.3 L 524.1 186.4 " fill="#000000"/>
<path class="legend" d="M 530.1 179.3 L 531.3 179.3 L 531.3 182.9 L 535.6 182.9 L 535.6 179.3 L 536.7 179.3 L 536.7 187.7 L 535.6 187.7 L 535.6 183.8 L 531.3 183.8 L 531.3 187.7 L 530.1 187.7 L 530.1 179.3 " fill="#000000"/>
<path class="legend" d="M 544.3 187.7 L 543.4 185.2 L 540.1 185.2 L 539.3 187.7 L 538.1 187.7 L 541.0 179.3 L 542.4 179.3 L 545.4 187.7 L 544.3 187.7 M 540.4 184.3 L 543.1 184.3 L 541.7 180.5 L 540.4 184.3 " fill="#000000"/>
<path class="legend" d="M 548.4 179.3 Q 549.9 179.3, 550.6 180.0 Q 551.3 180.6, 551.3 181.8 Q 551.3 182.9, 550.6 183.6 Q 549.8 184.3, 548.4 184.3 L 547.1 184.3 L 547.1 187.7 L 546.0 187.7 L 546.0 179.3 L 548.4 179.3 M 548.4 183.3 Q 549.3 183.3, 549.7 182.9 Q 550.1 182.5, 550.1 181.8 Q 550.1 181.0, 549.7 180.6 Q 549.3 180.3, 548.4 180.3 L 547.1 180.3 L 547.1 183.3 L 548.4 183.3 " fill="#000000"/>
<path class="legend" d="M 552.3 178.5 L 553.3 178.5 L 553.3 190.0 L 552.3 190.0 L 552.3 178.5 " fill="#000000"/>
<path class="legend" d="M 554.7 186.3 L 555.9 186.3 L 555.9 187.5 L 554.7 187.5 L 554.7 186.3 M 554.7 182.2 L 555.9 182.2 L 555.9 183.4 L 554.7 183.4 L 554.7 182.2 " fill="#000000"/>
<path class="legend" d="" fill="#000000"/>
<path class="legend" d="M 562.0 186.8 L 563.8 186.8 L 563.8 180.5 L 561.8 181.1 L 561.5 180.4 L 564.1 179.3 L 564.9 179.4 L 564.9 186.8 L 566.6 186.8 L 566.6 187.7 L 562.0 187.7 L 562.0 186.8 " fill="#000000"/>
<path class="legend" d="M 572.9 184.8 L 573.9 184.8 L 573.9 185.8 L 572.9 185.8 L 572.9 187.7 L 571.8 187.7 L 571.8 185.8 L 567.4 185.8 L 567.4 185.0 L 571.1 179.3 L 572.9 179.3 L 572.9 184.8 M 568.8 184.8 L 571.8 184.8 L 571.8 180.1 L 568.8 184.8 " fill="#000000"/>
<path class="legend" d="M 574.9 186.5 L 576.1 186.5 L 576.1 187.7 L 574.9 187.7 L 574.9 186.5 " fill="#000000"/>
<path class="legend" d="M 581.5 183.3 Q 582.3 183.6, 582.7 184.1 Q 583.2 184.6, 583.2 185.4 Q 583.2 186.1, 582.8 186.7 Q 582.4 187.2, 581.8 187.5 Q 581.1 187.8, 580.3 187.8 Q 578.9 187.8, 578.0 187.2 Q 577.2 186.5, 577.2 185.4 Q 577.2 184.7, 577.6 184.2 Q 578.0 183.7, 578.7 183.3 Q 578.1 183.0, 577.8 182.5 Q 577.5 182.1, 577.5 181.4 Q 577.5 180.4, 578.3 179.8 Q 579.0 179.2, 580.2 179.2 Q 581.4 179.2, 582.1 179.8 Q 582.9 180.4, 582.9 181.4 Q 582.9 182.0, 582.5 182.4 Q 582.2 182.9, 581.5 183.3 M 580.2 180.1 Q 579.5 180.1, 579.1 180.4 Q 578.7 180.8, 578.7 181.4 Q 578.7 181.8, 579.0 182.1 Q 579.3 182.4, 579.6 182.5 Q 580.0 182.7, 580.7 183.0 Q 581.2 182.6, 581.5 182.2 Q 581.7 181.8, 581.7 181.4 Q 581.7 180.8, 581.3 180.4 Q 580.9 180.1, 580.2 180.1 M 580.3 186.9 Q 581.0 186.9, 581.5 186.5 Q 582.0 186.1, 582.0 185.4 Q 582.0 184.9, 581.7 184.7 Q 581.5 184.4, 581.1 184.2 Q 580.7 184.0, 580.1 183.8 L 579.5 183.7 Q 579.0 184.0, 578.7 184.4 Q 578.4 184.8, 578.4 185.4 Q 578.4 186.1, 578.9 186.5 Q 579.4 186.9, 580.3 186.9 " fill="#000000"/>
<path class="legend" d="M 587.4 182.5 Q 588.1 182.5, 588.7 182.8 Q 589.3 183.1, 589.7 183.7 Q 590.0 184.3, 590.0 185.1 Q 590.0 185.9, 589.6 186.5 Q 589.2 187.2, 588.5 187.5 Q 587.8 187.8, 587.0 187.8 Q 586.2 187.8, 585.5 187.5 Q 584.8 187.2, 584.3 186.7 L 585.0 186.0 Q 585.4 186.4, 586.0 186.6 Q 586.5 186.8, 587.0 186.8 Q 587.8 186.8, 588.3 186.4 Q 588.8 185.9, 588.8 185.1 Q 588.8 184.2, 588.3 183.8 Q 587.8 183.3, 587.0 183.3 Q 586.2 183.3, 585.4 183.7 L 584.8 183.4 L 585.2 179.3 L 589.5 179.3 L 589.4 180.3 L 586.1 180.3 L 585.9 182.7 Q 586.6 182.5, 587.4 182.5 " fill="#000000"/>
<ellipse cx="49.3" cy="293.8" rx="6.5" ry="6.5" class="atom-1" style="fill:#E5E533;fill-rule:evenodd;stroke:#E5E533;stroke-width:1.0px;stroke-linecap:butt;stroke-linejoin:miter;stroke-opacity:1"/>
<ellipse cx="77.1" cy="276.4" rx="6.5" ry="6.5" class="atom-2" style="fill:#E5E533;fill-rule:evenodd;stroke:#E5E533;stroke-width:1.0px;stroke-linecap:butt;stroke-linejoin:miter;stroke-opacity:1"/>
<ellipse cx="102.2" cy="297.4" rx="6.5" ry="6.5" class="atom-3" style="fill:#9999E5;fill-rule:evenodd;stroke:#9999E5;stroke-width:1.0px;stroke-linecap:butt;stroke-linejoin:miter;stroke-opacity:1"/>
<ellipse cx="133.9" cy="289.4" rx="6.5" ry="6.5" class="atom-4" style="fill:#E5E533;fill-rule:evenodd;stroke:#E5E533;stroke-width:1.0px;stroke-linecap:butt;stroke-linejoin:miter;stroke-opacity:1"/>
<ellipse cx="156.7" cy="313.0" rx="6.5" ry="6.5" class="atom-5" style="fill:#E5E533;fill-rule:evenodd;stroke:#E5E533;stroke-width:1.0px;stroke-linecap:butt;stroke-linejoin:miter;stroke-opacity:1"/>
<ellipse cx="142.9" cy="258.0" rx="6.5" ry="6.5" class="atom-8" style="fill:#E5E533;fill-rule:evenodd;stroke:#E5E533;stroke-width:1.0px;stroke-linecap:butt;stroke-linejoin:miter;stroke-opacity:1"/>
<ellipse cx="90.0" cy="327.8" rx="6.5" ry="6.5" class="atom-9" style="fill:#E5E533;fill-rule:evenodd;stroke:#E5E533;stroke-width:1.0px;stroke-linecap:butt;stroke-linejoin:miter;stroke-opacity:1"/>
<ellipse cx="57.3" cy="325.5" rx="6.5" ry="6.5" class="atom-10" style="fill:#E5E533;fill-rule:evenodd;stroke:#E5E533;stroke-width:1.0px;stroke-linecap:butt;stroke-linejoin:miter;stroke-opacity:1"/>
<path class="bond-0 atom-0 atom-1" d="M 27.7,285.5 L 28.0,284.8" style="fill:none;fill-rule:evenodd;stroke:#E5E5E5;stroke-width:1.0px;stroke-linecap:butt;stroke-linejoin:miter;stroke-opacity:1"/>
<path class="bond-0 atom-0 atom-1" d="M 30.6,287.0 L 31.2,285.7" style="fill:none;fill-rule:evenodd;stroke:#E5E5E5;stroke-width:1.0px;stroke-linecap:butt;stroke-linejoin:miter;stroke-opacity:1"/>
<path class="bond-0 atom-0 atom-1" d="M 33.6,288.6 L 34.4,286.6" style="fill:none;fill-rule:evenodd;stroke:#E5E5E5;stroke-width:1.0px;stroke-linecap:butt;stroke-linejoin:miter;stroke-opacity:1"/>
<path class="bond-0 atom-0 atom-1" d="M 36.5,290.2 L 37.6,287.6" style="fill:none;fill-rule:evenodd;stroke:#E5E5E5;stroke-width:1.0px;stroke-linecap:butt;stroke-linejoin:miter;stroke-opacity:1"/>
<path class="bond-0 atom-0 atom-1" d="M 39.5,291.7 L 40.8,288.5" style="fill:none;fill-rule:evenodd;stroke:#E5E5E5;stroke-width:1.0px;stroke-linecap:butt;stroke-linejoin:miter;stroke-opacity:1"/>
<path class="bond-0 atom-0 atom-1" d="M 42.4,293.3 L 44.0,289.4" style="fill:none;fill-rule:evenodd;stroke:#E5E5E5;stroke-width:1.0px;stroke-linecap:butt;stroke-linejoin:miter;stroke-opacity:1"/>
<path class="bond-0 atom-0 atom-1" d="M 45.3,294.8 L 47.2,290.3" style="fill:none;fill-rule:evenodd;stroke:#E5E5E5;stroke-width:1.0px;stroke-linecap:butt;stroke-linejoin:miter;stroke-opacity:1"/>
<path class="bond-1 atom-1 atom-2" d="M 49.3,293.8 L 72.5,279.3" style="fill:none;fill-rule:evenodd;stroke:#000000;stroke-width:2.0px;stroke-linecap:butt;stroke-linejoin:miter;stroke-opacity:1"/>
<path class="bond-1 atom-1 atom-2" d="M 55.0,296.1 L 75.1,283.5" style="fill:none;fill-rule:evenodd;stroke:#000000;stroke-width:2.0px;stroke-linecap:butt;stroke-linejoin:miter;stroke-opacity:1"/>
<path class="bond-2 atom-2 atom-3" d="M 81.7,280.3 L 102.2,297.4" style="fill:none;fill-rule:evenodd;stroke:#000000;stroke-width:2.0px;stroke-linecap:butt;stroke-linejoin:miter;stroke-opacity:1"/>
<path class="bond-3 atom-3 atom-4" d="M 102.2,297.4 L 133.9,289.4" style="fill:none;fill-rule:evenodd;stroke:#000000;stroke-width:2.0px;stroke-linecap:butt;stroke-linejoin:miter;stroke-opacity:1"/>
<path class="bond-4 atom-4 atom-5" d="M 133.9,289.4 L 156.7,313.0" style="fill:none;fill-rule:evenodd;stroke:#000000;stroke-width:2.0px;stroke-linecap:butt;stroke-linejoin:miter;stroke-opacity:1"/>
<path class="bond-4 atom-4 atom-5" d="M 139.4,288.1 L 158.2,307.5" style="fill:none;fill-rule:evenodd;stroke:#000000;stroke-width:2.0px;stroke-linecap:butt;stroke-linejoin:miter;stroke-opacity:1;stroke-dasharray:6,4"/>
<path class="bond-5 atom-5 atom-6" d="M 156.7,313.0 L 186.0,305.6" style="fill:none;fill-rule:evenodd;stroke:#E5E5E5;stroke-width:1.7px;stroke-linecap:butt;stroke-linejoin:miter;stroke-opacity:1"/>
<path class="bond-5 atom-5 atom-6" d="M 158.2,307.5 L 184.8,300.8" style="fill:none;fill-rule:evenodd;stroke:#E5E5E5;stroke-width:1.7px;stroke-linecap:butt;stroke-linejoin:miter;stroke-opacity:1;stroke-dasharray:6,4"/>
<path class="bond-6 atom-7 atom-8" d="M 172.2,250.6 L 142.9,258.0" style="fill:none;fill-rule:evenodd;stroke:#E5E5E5;stroke-width:1.7px;stroke-linecap:butt;stroke-linejoin:miter;stroke-opacity:1"/>
<path class="bond-6 atom-7 atom-8" d="M 173.4,255.4 L 146.8,262.1" style="fill:none;fill-rule:evenodd;stroke:#E5E5E5;stroke-width:1.7px;stroke-linecap:butt;stroke-linejoin:miter;stroke-opacity:1;stroke-dasharray:6,4"/>
<path class="bond-7 atom-3 atom-9" d="M 102.2,297.4 L 92.3,322.1" style="fill:none;fill-rule:evenodd;stroke:#000000;stroke-width:2.0px;stroke-linecap:butt;stroke-linejoin:miter;stroke-opacity:1"/>
<path class="bond-7 atom-3 atom-9" d="M 96.3,298.9 L 87.7,320.2" style="fill:none;fill-rule:evenodd;stroke:#000000;stroke-width:2.0px;stroke-linecap:butt;stroke-linejoin:miter;stroke-opacity:1"/>
<path class="bond-8 atom-9 atom-10" d="M 85.4,327.5 L 62.6,325.9" style="fill:none;fill-rule:evenodd;stroke:#000000;stroke-width:2.0px;stroke-linecap:butt;stroke-linejoin:miter;stroke-opacity:1"/>
<path class="bond-9 atom-10 atom-1" d="M 55.9,319.8 L 49.3,293.8" style="fill:none;fill-rule:evenodd;stroke:#E5E5E5;stroke-width:1.7px;stroke-linecap:butt;stroke-linejoin:miter;stroke-opacity:1"/>
<path class="bond-10 atom-8 atom-4" d="M 142.9,258.0 L 133.9,289.4" style="fill:none;fill-rule:evenodd;stroke:#000000;stroke-width:2.0px;stroke-linecap:butt;stroke-linejoin:miter;stroke-opacity:1"/>
<path class="bond-10 atom-8 atom-4" d="M 146.8,262.1 L 139.4,288.1" style="fill:none;fill-rule:evenodd;stroke:#000000;stroke-width:2.0px;stroke-linecap:butt;stroke-linejoin:miter;stroke-opacity:1;stroke-dasharray:6,4"/>
<path d="M 49.9,293.4 L 49.3,293.8 L 49.5,294.5" style="fill:none;stroke:#000000;stroke-width:2.0px;stroke-linecap:butt;stroke-linejoin:miter;stroke-miterlimit:10;stroke-opacity:1;"/>
<path d="M 156.1,312.4 L 156.7,313.0 L 157.4,312.8" style="fill:none;stroke:#000000;stroke-width:2.0px;stroke-linecap:butt;stroke-linejoin:miter;stroke-miterlimit:10;stroke-opacity:1;"/>
<path d="M 143.6,257.8 L 142.9,258.0 L 142.6,258.8" style="fill:none;stroke:#E5E5E5;stroke-width:1.7px;stroke-linecap:butt;stroke-linejoin:miter;stroke-miterlimit:10;stroke-opacity:1;"/>
<path class="atom-0" d="M 10.4 280.6 L 11.8 279.2 L 10.0 278.8 L 10.3 277.9 L 11.9 278.7 L 11.7 276.9 L 12.7 276.9 L 12.4 278.7 L 14.1 277.9 L 14.4 278.8 L 12.6 279.1 L 13.9 280.5 L 13.1 281.1 L 12.2 279.4 L 11.2 281.1 L 10.4 280.6 " fill="#191919"/>
<path class="atom-0" d="M 15.4 277.0 L 16.6 277.0 L 16.6 281.0 L 21.4 281.0 L 21.4 277.0 L 22.6 277.0 L 22.6 286.3 L 21.4 286.3 L 21.4 282.0 L 16.6 282.0 L 16.6 286.3 L 15.4 286.3 L 15.4 277.0 " fill="#191919"/>
<path class="atom-2" d="M 75.0 271.8 L 78.1 276.7 Q 78.4 277.2, 78.8 278.1 Q 79.3 278.9, 79.3 279.0 L 79.3 271.8 L 80.6 271.8 L 80.6 281.1 L 79.3 281.1 L 76.1 275.7 Q 75.7 275.1, 75.3 274.3 Q 74.9 273.6, 74.8 273.4 L 74.8 281.1 L 73.6 281.1 L 73.6 271.8 L 75.0 271.8 " fill="#000000"/>
<path class="atom-6" d="M 186.1 301.6 L 187.4 300.2 L 185.6 299.8 L 185.9 298.9 L 187.6 299.7 L 187.3 297.9 L 188.3 297.9 L 188.0 299.7 L 189.7 298.9 L 190.0 299.8 L 188.2 300.2 L 189.5 301.6 L 188.7 302.1 L 187.8 300.4 L 186.9 302.1 L 186.1 301.6 " fill="#191919"/>
<path class="atom-7" d="M 173.5 251.4 L 174.8 250.0 L 173.0 249.6 L 173.3 248.7 L 174.9 249.5 L 174.7 247.7 L 175.7 247.7 L 175.4 249.5 L 177.1 248.7 L 177.4 249.6 L 175.6 249.9 L 176.9 251.3 L 176.1 251.9 L 175.2 250.2 L 174.3 251.9 L 173.5 251.4 " fill="#191919"/>
<path class="atom-9" d="M 87.9 323.1 L 90.9 328.0 Q 91.2 328.5, 91.7 329.4 Q 92.2 330.3, 92.2 330.3 L 92.2 323.1 L 93.5 323.1 L 93.5 332.4 L 92.2 332.4 L 88.9 327.0 Q 88.6 326.4, 88.2 325.7 Q 87.8 325.0, 87.6 324.7 L 87.6 332.4 L 86.4 332.4 L 86.4 323.1 L 87.9 323.1 " fill="#000000"/>
<path class="atom-10" d="M 53.1 325.6 Q 53.1 323.3, 54.2 322.1 Q 55.3 320.9, 57.3 320.9 Q 59.4 320.9, 60.5 322.1 Q 61.6 323.3, 61.6 325.6 Q 61.6 327.8, 60.5 329.1 Q 59.3 330.4, 57.3 330.4 Q 55.3 330.4, 54.2 329.1 Q 53.1 327.8, 53.1 325.6 M 57.3 329.3 Q 58.7 329.3, 59.5 328.4 Q 60.3 327.4, 60.3 325.6 Q 60.3 323.7, 59.5 322.8 Q 58.7 321.9, 57.3 321.9 Q 55.9 321.9, 55.1 322.8 Q 54.4 323.7, 54.4 325.6 Q 54.4 327.4, 55.1 328.4 Q 55.9 329.3, 57.3 329.3 " fill="#000000"/>
<path class="legend" d="M 10.0 379.7 L 14.8 379.7 L 14.8 380.6 L 11.1 380.6 L 11.1 383.1 L 14.4 383.1 L 14.4 384.0 L 11.1 384.0 L 11.1 387.8 L 10.0 387.8 L 10.0 379.7 " fill="#000000"/>
<path class="legend" d="M 15.4 384.8 Q 15.4 383.4, 16.2 382.6 Q 16.9 381.8, 18.2 381.8 Q 19.5 381.8, 20.1 382.6 Q 20.7 383.4, 20.7 384.8 L 20.7 385.0 L 16.5 385.0 Q 16.6 386.0, 17.0 386.5 Q 17.5 387.0, 18.3 387.0 Q 18.8 387.0, 19.2 386.9 Q 19.6 386.8, 20.1 386.6 L 20.4 387.3 Q 19.8 387.6, 19.3 387.8 Q 18.8 387.9, 18.2 387.9 Q 16.9 387.9, 16.2 387.1 Q 15.4 386.3, 15.4 384.8 M 18.2 382.7 Q 17.5 382.7, 17.1 383.0 Q 16.7 383.4, 16.6 384.2 L 19.5 384.2 Q 19.4 383.4, 19.1 383.0 Q 18.8 382.7, 18.2 382.7 " fill="#000000"/>
<path class="legend" d="M 21.5 386.2 Q 21.5 385.3, 22.2 384.8 Q 23.0 384.2, 24.4 384.2 L 25.2 384.2 L 25.2 384.0 Q 25.2 383.3, 24.9 383.0 Q 24.6 382.7, 23.9 382.7 Q 23.4 382.7, 23.1 382.7 Q 22.7 382.8, 22.1 383.1 L 21.8 382.3 Q 22.9 381.8, 23.9 381.8 Q 25.2 381.8, 25.7 382.3 Q 26.3 382.9, 26.3 384.0 L 26.3 387.8 L 25.5 387.8 Q 25.5 387.7, 25.4 387.6 Q 25.4 387.4, 25.3 387.1 Q 24.5 387.9, 23.4 387.9 Q 22.5 387.9, 22.0 387.5 Q 21.5 387.0, 21.5 386.2 M 22.5 386.2 Q 22.5 386.6, 22.8 386.9 Q 23.1 387.1, 23.6 387.1 Q 24.1 387.1, 24.5 386.9 Q 24.9 386.7, 25.2 386.3 L 25.2 385.0 L 24.4 385.0 Q 23.5 385.0, 23.0 385.3 Q 22.5 385.6, 22.5 386.2 " fill="#000000"/>
<path class="legend" d="M 27.6 382.7 L 27.6 381.9 L 28.7 381.9 L 28.9 380.2 L 29.7 380.2 L 29.7 381.9 L 31.5 381.9 L 31.5 382.7 L 29.7 382.7 L 29.7 386.0 Q 29.7 387.0, 30.5 387.0 Q 30.9 387.0, 31.4 386.8 L 31.6 387.6 Q 30.9 387.9, 30.3 387.9 Q 29.6 387.9, 29.1 387.4 Q 28.6 386.9, 28.6 386.0 L 28.6 382.7 L 27.6 382.7 " fill="#000000"/>
<path class="legend" d="M 37.2 381.9 L 37.2 387.8 L 36.3 387.8 L 36.2 387.0 Q 35.5 387.9, 34.2 387.9 Q 33.2 387.9, 32.7 387.4 Q 32.2 386.8, 32.2 385.8 L 32.2 381.9 L 33.3 381.9 L 33.3 385.7 Q 33.3 386.4, 33.6 386.7 Q 33.8 387.0, 34.4 387.0 Q 35.0 387.0, 35.4 386.8 Q 35.9 386.6, 36.2 386.1 L 36.2 381.9 L 37.2 381.9 " fill="#000000"/>
<path class="legend" d="M 39.4 381.9 L 39.5 382.7 Q 40.2 381.8, 41.2 381.8 Q 41.5 381.8, 41.9 381.9 L 41.8 382.9 Q 41.3 382.8, 41.0 382.8 Q 40.5 382.8, 40.2 383.0 Q 39.9 383.1, 39.6 383.6 L 39.6 387.8 L 38.5 387.8 L 38.5 381.9 L 39.4 381.9 " fill="#000000"/>
<path class="legend" d="M 42.5 384.8 Q 42.5 383.4, 43.2 382.6 Q 43.9 381.8, 45.2 381.8 Q 46.5 381.8, 47.1 382.6 Q 47.7 383.4, 47.7 384.8 L 47.7 385.0 L 43.6 385.0 Q 43.6 386.0, 44.0 386.5 Q 44.5 387.0, 45.3 387.0 Q 45.8 387.0, 46.2 386.9 Q 46.6 386.8, 47.1 386.6 L 47.5 387.3 Q 46.9 387.6, 46.3 387.8 Q 45.8 387.9, 45.3 387.9 Q 43.9 387.9, 43.2 387.1 Q 42.5 386.3, 42.5 384.8 M 45.2 382.7 Q 44.6 382.7, 44.1 383.0 Q 43.7 383.4, 43.6 384.2 L 46.5 384.2 Q 46.5 383.4, 46.1 383.0 Q 45.8 382.7, 45.2 382.7 " fill="#000000"/>
<path class="legend" d="" fill="#000000"/>
<path class="legend" d="M 52.7 381.2 Q 53.0 380.5, 53.7 380.0 Q 54.4 379.6, 55.4 379.6 Q 56.6 379.6, 57.3 380.3 Q 58.0 380.9, 58.0 382.1 Q 58.0 383.3, 57.1 384.4 Q 56.2 385.6, 54.4 386.9 L 58.1 386.9 L 58.1 387.8 L 52.7 387.8 L 52.7 387.0 Q 54.2 386.0, 55.1 385.2 Q 56.0 384.3, 56.4 383.6 Q 56.9 382.9, 56.9 382.2 Q 56.9 381.4, 56.5 381.0 Q 56.1 380.5, 55.4 380.5 Q 54.8 380.5, 54.3 380.8 Q 53.9 381.0, 53.6 381.6 L 52.7 381.2 " fill="#000000"/>
<path class="legend" d="M 62.2 387.9 Q 60.7 387.9, 59.9 386.8 Q 59.2 385.7, 59.2 383.7 Q 59.2 381.8, 59.9 380.7 Q 60.7 379.6, 62.2 379.6 Q 63.7 379.6, 64.4 380.7 Q 65.1 381.8, 65.1 383.7 Q 65.1 385.7, 64.4 386.8 Q 63.7 387.9, 62.2 387.9 M 62.2 387.0 Q 63.1 387.0, 63.5 386.2 Q 64.0 385.3, 64.0 383.7 Q 64.0 382.1, 63.5 381.3 Q 63.1 380.5, 62.2 380.5 Q 61.3 380.5, 60.8 381.3 Q 60.4 382.1, 60.4 383.7 Q 60.4 385.3, 60.8 386.2 Q 61.3 387.0, 62.2 387.0 " fill="#000000"/>
<path class="legend" d="M 66.7 386.9 L 68.5 386.9 L 68.5 380.8 L 66.5 381.4 L 66.3 380.8 L 68.7 379.6 L 69.6 379.8 L 69.6 386.9 L 71.2 386.9 L 71.2 387.8 L 66.7 387.8 L 66.7 386.9 " fill="#000000"/>
<path class="legend" d="M 75.9 383.5 Q 76.7 383.8, 77.1 384.3 Q 77.5 384.8, 77.5 385.6 Q 77.5 386.3, 77.1 386.8 Q 76.8 387.3, 76.1 387.6 Q 75.5 387.9, 74.7 387.9 Q 73.8 387.9, 73.2 387.6 Q 72.5 387.3, 72.0 386.7 L 72.7 386.0 Q 73.2 386.6, 73.6 386.8 Q 74.0 387.0, 74.7 387.0 Q 75.4 387.0, 75.9 386.6 Q 76.3 386.2, 76.3 385.6 Q 76.3 384.7, 75.8 384.4 Q 75.4 384.0, 74.4 384.0 L 73.8 384.0 L 73.8 383.2 L 74.3 383.2 Q 75.2 383.2, 75.7 382.8 Q 76.1 382.4, 76.1 381.7 Q 76.1 381.1, 75.8 380.8 Q 75.4 380.5, 74.7 380.5 Q 74.0 380.5, 73.6 380.8 Q 73.2 381.0, 72.9 381.6 L 72.1 381.2 Q 72.4 380.5, 73.1 380.1 Q 73.7 379.6, 74.7 379.6 Q 75.9 379.6, 76.6 380.2 Q 77.3 380.7, 77.3 381.7 Q 77.3 382.3, 76.9 382.8 Q 76.6 383.3, 75.9 383.5 " fill="#000000"/>
<path class="legend" d="" fill="#000000"/>
<path class="legend" d="M 82.7 378.9 L 83.7 378.9 L 83.7 390.0 L 82.7 390.0 L 82.7 378.9 " fill="#000000"/>
<path class="legend" d="M 85.0 378.9 L 86.0 378.9 L 86.0 390.0 L 85.0 390.0 L 85.0 378.9 " fill="#000000"/>
<path class="legend" d="" fill="#000000"/>
<path class="legend" d="M 100.8 387.8 L 99.7 387.8 L 98.9 381.2 L 96.7 387.8 L 95.6 387.8 L 93.4 381.2 L 92.6 387.8 L 91.5 387.8 L 92.6 379.7 L 93.9 379.7 L 96.2 386.2 L 98.4 379.7 L 99.8 379.7 L 100.8 387.8 " fill="#000000"/>
<path class="legend" d="M 101.9 384.8 Q 101.9 383.4, 102.6 382.6 Q 103.4 381.8, 104.7 381.8 Q 106.0 381.8, 106.5 382.6 Q 107.1 383.4, 107.1 384.8 L 107.1 385.0 L 103.0 385.0 Q 103.0 386.0, 103.5 386.5 Q 103.9 387.0, 104.8 387.0 Q 105.2 387.0, 105.6 386.9 Q 106.1 386.8, 106.6 386.6 L 106.9 387.3 Q 106.3 387.6, 105.8 387.8 Q 105.3 387.9, 104.7 387.9 Q 103.4 387.9, 102.6 387.1 Q 101.9 386.3, 101.9 384.8 M 104.7 382.7 Q 104.0 382.7, 103.6 383.0 Q 103.2 383.4, 103.1 384.2 L 106.0 384.2 Q 105.9 383.4, 105.6 383.0 Q 105.3 382.7, 104.7 382.7 " fill="#000000"/>
<path class="legend" d="M 107.9 386.2 Q 107.9 385.3, 108.7 384.8 Q 109.4 384.2, 110.8 384.2 L 111.7 384.2 L 111.7 384.0 Q 111.7 383.3, 111.4 383.0 Q 111.1 382.7, 110.4 382.7 Q 109.9 382.7, 109.5 382.7 Q 109.2 382.8, 108.6 383.1 L 108.3 382.3 Q 109.3 381.8, 110.4 381.8 Q 111.6 381.8, 112.2 382.3 Q 112.8 382.9, 112.8 384.0 L 112.8 387.8 L 111.9 387.8 Q 111.9 387.7, 111.9 387.6 Q 111.9 387.4, 111.8 387.1 Q 111.0 387.9, 109.9 387.9 Q 109.0 387.9, 108.5 387.5 Q 107.9 387.0, 107.9 386.2 M 109.0 386.2 Q 109.0 386.6, 109.3 386.9 Q 109.6 387.1, 110.1 387.1 Q 110.5 387.1, 111.0 386.9 Q 111.4 386.7, 111.7 386.3 L 111.7 385.0 L 110.9 385.0 Q 110.0 385.0, 109.5 385.3 Q 109.0 385.6, 109.0 386.2 " fill="#000000"/>
<path class="legend" d="M 117.1 381.8 Q 118.0 381.8, 118.5 382.3 Q 119.0 382.9, 119.0 383.9 L 119.0 387.8 L 118.0 387.8 L 118.0 384.0 Q 118.0 383.3, 117.7 383.0 Q 117.4 382.7, 116.8 382.7 Q 116.3 382.7, 115.8 382.9 Q 115.4 383.1, 115.1 383.6 L 115.1 387.8 L 114.0 387.8 L 114.0 381.9 L 114.9 381.9 L 115.0 382.7 Q 115.8 381.8, 117.1 381.8 " fill="#000000"/>
<path class="legend" d="" fill="#000000"/>
<path class="legend" d="M 124.5 378.9 L 125.5 378.9 L 125.5 390.0 L 124.5 390.0 L 124.5 378.9 " fill="#000000"/>
<path class="legend" d="M 127.1 386.5 Q 127.2 386.6, 127.6 386.7 Q 128.0 386.9, 128.4 387.0 Q 128.8 387.1, 129.2 387.1 Q 130.0 387.1, 130.4 386.7 Q 130.9 386.3, 130.9 385.7 Q 130.9 385.2, 130.6 385.0 Q 130.4 384.7, 130.1 384.5 Q 129.7 384.4, 129.2 384.2 Q 128.4 384.0, 128.0 383.8 Q 127.6 383.6, 127.3 383.2 Q 127.0 382.7, 127.0 382.0 Q 127.0 381.0, 127.7 380.3 Q 128.4 379.7, 129.7 379.7 Q 130.7 379.7, 131.7 380.2 L 131.5 381.0 Q 130.5 380.6, 129.8 380.6 Q 129.0 380.6, 128.5 381.0 Q 128.1 381.3, 128.1 381.9 Q 128.1 382.3, 128.3 382.6 Q 128.6 382.8, 128.9 383.0 Q 129.2 383.1, 129.8 383.3 Q 130.5 383.5, 130.9 383.7 Q 131.4 384.0, 131.7 384.4 Q 132.0 384.9, 132.0 385.7 Q 132.0 386.8, 131.2 387.4 Q 130.5 388.0, 129.3 388.0 Q 128.5 388.0, 128.0 387.8 Q 127.4 387.7, 126.8 387.4 L 127.1 386.5 " fill="#000000"/>
<path class="legend" d="M 132.9 379.7 L 134.0 379.7 L 134.0 383.1 L 138.2 383.1 L 138.2 379.7 L 139.3 379.7 L 139.3 387.8 L 138.2 387.8 L 138.2 384.1 L 134.0 384.1 L 134.0 387.8 L 132.9 387.8 L 132.9 379.7 " fill="#000000"/>
<path class="legend" d="M 146.6 387.8 L 145.7 385.4 L 142.5 385.4 L 141.7 387.8 L 140.6 387.8 L 143.4 379.7 L 144.8 379.7 L 147.6 387.8 L 146.6 387.8 M 142.8 384.5 L 145.4 384.5 L 144.1 380.8 L 142.8 384.5 " fill="#000000"/>
<path class="legend" d="M 150.6 379.7 Q 151.9 379.7, 152.6 380.3 Q 153.3 380.9, 153.3 382.1 Q 153.3 383.2, 152.6 383.8 Q 151.9 384.5, 150.6 384.5 L 149.3 384.5 L 149.3 387.8 L 148.2 387.8 L 148.2 379.7 L 150.6 379.7 M 150.6 383.5 Q 151.3 383.5, 151.8 383.2 Q 152.2 382.8, 152.2 382.1 Q 152.2 381.4, 151.8 381.0 Q 151.4 380.6, 150.6 380.6 L 149.3 380.6 L 149.3 383.5 L 150.6 383.5 " fill="#000000"/>
<path class="legend" d="M 154.3 378.9 L 155.2 378.9 L 155.2 390.0 L 154.3 390.0 L 154.3 378.9 " fill="#000000"/>
<path class="legend" d="M 156.6 386.5 L 157.7 386.5 L 157.7 387.6 L 156.6 387.6 L 156.6 386.5 M 156.6 382.5 L 157.7 382.5 L 157.7 383.7 L 156.6 383.7 L 156.6 382.5 " fill="#000000"/>
<path class="legend" d="" fill="#000000"/>
<path class="legend" d="M 163.6 386.9 L 165.4 386.9 L 165.4 380.8 L 163.4 381.4 L 163.1 380.8 L 165.6 379.6 L 166.4 379.8 L 166.4 386.9 L 168.0 386.9 L 168.0 387.8 L 163.6 387.8 L 163.6 386.9 " fill="#000000"/>
<path class="legend" d="M 172.8 383.5 Q 173.6 383.8, 174.0 384.3 Q 174.3 384.8, 174.3 385.6 Q 174.3 386.3, 174.0 386.8 Q 173.7 387.3, 173.0 387.6 Q 172.4 387.9, 171.6 387.9 Q 170.7 387.9, 170.0 387.6 Q 169.4 387.3, 168.9 386.7 L 169.5 386.0 Q 170.0 386.6, 170.5 386.8 Q 170.9 387.0, 171.6 387.0 Q 172.3 387.0, 172.7 386.6 Q 173.2 386.2, 173.2 385.6 Q 173.2 384.7, 172.7 384.4 Q 172.3 384.0, 171.3 384.0 L 170.7 384.0 L 170.7 383.2 L 171.2 383.2 Q 172.1 383.2, 172.6 382.8 Q 173.0 382.4, 173.0 381.7 Q 173.0 381.1, 172.6 380.8 Q 172.2 380.5, 171.6 380.5 Q 170.9 380.5, 170.5 380.8 Q 170.1 381.0, 169.8 381.6 L 169.0 381.2 Q 169.2 380.5, 169.9 380.1 Q 170.6 379.6, 171.6 379.6 Q 172.8 379.6, 173.5 380.2 Q 174.2 380.7, 174.2 381.7 Q 174.2 382.3, 173.8 382.8 Q 173.5 383.3, 172.8 383.5 " fill="#000000"/>
<path class="legend" d="M 175.4 386.6 L 176.5 386.6 L 176.5 387.8 L 175.4 387.8 L 175.4 386.6 " fill="#000000"/>
<path class="legend" d="M 180.6 382.7 Q 181.3 382.7, 181.9 383.0 Q 182.5 383.3, 182.8 383.9 Q 183.1 384.5, 183.1 385.2 Q 183.1 386.1, 182.7 386.7 Q 182.3 387.3, 181.7 387.6 Q 181.0 387.9, 180.3 387.9 Q 179.5 387.9, 178.8 387.6 Q 178.1 387.3, 177.7 386.8 L 178.4 386.1 Q 178.7 386.5, 179.2 386.7 Q 179.8 387.0, 180.3 387.0 Q 181.0 387.0, 181.5 386.5 Q 182.0 386.1, 182.0 385.3 Q 182.0 384.4, 181.5 384.0 Q 181.0 383.6, 180.2 383.6 Q 179.5 383.6, 178.7 383.9 L 178.1 383.6 L 178.5 379.7 L 182.6 379.7 L 182.5 380.6 L 179.4 380.6 L 179.2 383.0 Q 179.9 382.7, 180.6 382.7 " fill="#000000"/>
<path class="legend" d="M 187.0 387.9 Q 185.6 387.9, 184.8 386.8 Q 184.1 385.7, 184.1 383.7 Q 184.1 381.8, 184.8 380.7 Q 185.5 379.6, 187.0 379.6 Q 188.5 379.6, 189.3 380.7 Q 190.0 381.8, 190.0 383.7 Q 190.0 385.7, 189.3 386.8 Q 188.5 387.9, 187.0 387.9 M 187.0 387.0 Q 187.9 387.0, 188.4 386.2 Q 188.9 385.3, 188.9 383.7 Q 188.9 382.1, 188.4 381.3 Q 187.9 380.5, 187.0 380.5 Q 186.2 380.5, 185.7 381.3 Q 185.2 382.1, 185.2 383.7 Q 185.2 385.3, 185.7 386.2 Q 186.2 387.0, 187.0 387.0 " fill="#000000"/>
<ellipse cx="282.3" cy="310.5" rx="6.5" ry="6.5" class="atom-1" style="fill:#E5E533;fill-rule:evenodd;stroke:#E5E533;stroke-width:1.0px;stroke-linecap:butt;stroke-linejoin:miter;stroke-opacity:1"/>
<ellipse cx="313.4" cy="320.8" rx="6.5" ry="6.5" class="atom-2" style="fill:#E5E533;fill-rule:evenodd;stroke:#E5E533;stroke-width:1.0px;stroke-linecap:butt;stroke-linejoin:miter;stroke-opacity:1"/>
<ellipse cx="337.8" cy="299.0" rx="6.5" ry="6.5" class="atom-3" style="fill:#9999E5;fill-rule:evenodd;stroke:#9999E5;stroke-width:1.0px;stroke-linecap:butt;stroke-linejoin:miter;stroke-opacity:1"/>
<ellipse cx="331.1" cy="266.9" rx="6.5" ry="6.5" class="atom-4" style="fill:#E5E533;fill-rule:evenodd;stroke:#E5E533;stroke-width:1.0px;stroke-linecap:butt;stroke-linejoin:miter;stroke-opacity:1"/>
<ellipse cx="300.0" cy="256.7" rx="6.5" ry="6.5" class="atom-5" style="fill:#E5E533;fill-rule:evenodd;stroke:#E5E533;stroke-width:1.0px;stroke-linecap:butt;stroke-linejoin:miter;stroke-opacity:1"/>
<path class="bond-0 atom-0 atom-1" d="M 261.2,329.4 L 282.3,310.5" style="fill:none;fill-rule:evenodd;stroke:#E5E5E5;stroke-width:1.7px;stroke-linecap:butt;stroke-linejoin:miter;stroke-opacity:1"/>
<path class="bond-1 atom-1 atom-2" d="M 282.3,310.5 L 313.4,320.8" style="fill:none;fill-rule:evenodd;stroke:#000000;stroke-width:2.0px;stroke-linecap:butt;stroke-linejoin:miter;stroke-opacity:1"/>
<path class="bond-1 atom-1 atom-2" d="M 286.5,306.7 L 312.2,315.2" style="fill:none;fill-rule:evenodd;stroke:#000000;stroke-width:2.0px;stroke-linecap:butt;stroke-linejoin:miter;stroke-opacity:1"/>
<path class="bond-2 atom-2 atom-3" d="M 313.4,320.8 L 337.8,299.0" style="fill:none;fill-rule:evenodd;stroke:#000000;stroke-width:2.0px;stroke-linecap:butt;stroke-linejoin:miter;stroke-opacity:1"/>
<path class="bond-3 atom-3 atom-4" d="M 337.8,299.0 L 331.1,266.9" style="fill:none;fill-rule:evenodd;stroke:#000000;stroke-width:2.0px;stroke-linecap:butt;stroke-linejoin:miter;stroke-opacity:1"/>
<path class="bond-3 atom-3 atom-4" d="M 332.4,297.2 L 326.9,270.7" style="fill:none;fill-rule:evenodd;stroke:#000000;stroke-width:2.0px;stroke-linecap:butt;stroke-linejoin:miter;stroke-opacity:1"/>
<path class="bond-4 atom-4 atom-5" d="M 331.1,266.9 L 300.0,256.7" style="fill:none;fill-rule:evenodd;stroke:#000000;stroke-width:2.0px;stroke-linecap:butt;stroke-linejoin:miter;stroke-opacity:1"/>
<path class="bond-5 atom-5 atom-6" d="M 300.0,256.7 L 278.9,275.6" style="fill:none;fill-rule:evenodd;stroke:#E5E5E5;stroke-width:1.7px;stroke-linecap:butt;stroke-linejoin:miter;stroke-opacity:1"/>
<path class="bond-5 atom-5 atom-6" d="M 301.2,262.2 L 282.1,279.2" style="fill:none;fill-rule:evenodd;stroke:#E5E5E5;stroke-width:1.7px;stroke-linecap:butt;stroke-linejoin:miter;stroke-opacity:1"/>
<path class="bond-6 atom-6 atom-1" d="M 275.7,279.1 L 282.3,310.5" style="fill:none;fill-rule:evenodd;stroke:#E5E5E5;stroke-width:1.7px;stroke-linecap:butt;stroke-linejoin:miter;stroke-opacity:1"/>
<path d="M 311.8,320.2 L 313.4,320.8 L 314.6,319.7" style="fill:none;stroke:#000000;stroke-width:2.0px;stroke-linecap:butt;stroke-linejoin:miter;stroke-miterlimit:10;stroke-opacity:1;"/>
<path d="M 336.5,300.0 L 337.8,299.0 L 337.4,297.4" style="fill:none;stroke:#000000;stroke-width:2.0px;stroke-linecap:butt;stroke-linejoin:miter;stroke-miterlimit:10;stroke-opacity:1;"/>
<path d="M 331.4,268.5 L 331.1,266.9 L 329.5,266.4" style="fill:none;stroke:#000000;stroke-width:2.0px;stroke-linecap:butt;stroke-linejoin:miter;stroke-miterlimit:10;stroke-opacity:1;"/>
<path d="M 300.8,256.9 L 300.0,256.7 L 299.5,257.2" style="fill:none;stroke:#000000;stroke-width:2.0px;stroke-linecap:butt;stroke-linejoin:miter;stroke-miterlimit:10;stroke-opacity:1;"/>
<path class="atom-0" d="M 256.1 331.3 L 257.5 329.9 L 255.7 329.5 L 256.0 328.6 L 257.6 329.4 L 257.4 327.6 L 258.4 327.6 L 258.1 329.4 L 259.8 328.6 L 260.1 329.5 L 258.2 329.9 L 259.6 331.3 L 258.8 331.9 L 257.8 330.1 L 256.9 331.9 L 256.1 331.3 " fill="#191919"/>
<path class="atom-6" d="M 273.9 277.5 L 275.2 276.1 L 273.4 275.7 L 273.7 274.8 L 275.4 275.6 L 275.1 273.8 L 276.1 273.8 L 275.8 275.6 L 277.5 274.8 L 277.8 275.7 L 276.0 276.0 L 277.3 277.4 L 276.5 278.0 L 275.6 276.3 L 274.7 278.0 L 273.9 277.5 " fill="#191919"/>
<path class="legend" d="M 210.0 379.7 L 214.8 379.7 L 214.8 380.6 L 211.1 380.6 L 211.1 383.1 L 214.4 383.1 L 214.4 384.0 L 211.1 384.0 L 211.1 387.8 L 210.0 387.8 L 210.0 379.7 " fill="#000000"/>
<path class="legend" d="M 215.4 384.8 Q 215.4 383.4, 216.2 382.6 Q 216.9 381.8, 218.2 381.8 Q 219.5 381.8, 220.1 382.6 Q 220.7 383.4, 220.7 384.8 L 220.7 385.0 L 216.5 385.0 Q 216.6 386.0, 217.0 386.5 Q 217.5 387.0, 218.3 387.0 Q 218.8 387.0, 219.2 386.9 Q 219.6 386.8, 220.1 386.6 L 220.4 387.3 Q 219.8 387.6, 219.3 387.8 Q 218.8 387.9, 218.2 387.9 Q 216.9 387.9, 216.2 387.1 Q 215.4 386.3, 215.4 384.8 M 218.2 382.7 Q 217.5 382.7, 217.1 383.0 Q 216.7 383.4, 216.6 384.2 L 219.5 384.2 Q 219.4 383.4, 219.1 383.0 Q 218.8 382.7, 218.2 382.7 " fill="#000000"/>
<path class="legend" d="M 221.5 386.2 Q 221.5 385.3, 222.2 384.8 Q 223.0 384.2, 224.4 384.2 L 225.2 384.2 L 225.2 384.0 Q 225.2 383.3, 224.9 383.0 Q 224.6 382.7, 223.9 382.7 Q 223.4 382.7, 223.1 382.7 Q 222.7 382.8, 222.1 383.1 L 221.8 382.3 Q 222.9 381.8, 223.9 381.8 Q 225.2 381.8, 225.7 382.3 Q 226.3 382.9, 226.3 384.0 L 226.3 387.8 L 225.5 387.8 Q 225.5 387.7, 225.4 387.6 Q 225.4 387.4, 225.3 387.1 Q 224.5 387.9, 223.4 387.9 Q 222.5 387.9, 222.0 387.5 Q 221.5 387.0, 221.5 386.2 M 222.5 386.2 Q 222.5 386.6, 222.8 386.9 Q 223.1 387.1, 223.6 387.1 Q 224.1 387.1, 224.5 386.9 Q 224.9 386.7, 225.2 386.3 L 225.2 385.0 L 224.4 385.0 Q 223.5 385.0, 223.0 385.3 Q 222.5 385.6, 222.5 386.2 " fill="#000000"/>
<path class="legend" d="M 227.6 382.7 L 227.6 381.9 L 228.7 381.9 L 228.9 380.2 L 229.7 380.2 L 229.7 381.9 L 231.5 381.9 L 231.5 382.7 L 229.7 382.7 L 229.7 386.0 Q 229.7 387.0, 230.5 387.0 Q 230.9 387.0, 231.4 386.8 L 231.6 387.6 Q 230.9 387.9, 230.3 387.9 Q 229.6 387.9, 229.1 387.4 Q 228.6 386.9, 228.6 386.0 L 228.6 382.7 L 227.6 382.7 " fill="#000000"/>
<path class="legend" d="M 237.2 381.9 L 237.2 387.8 L 236.4 387.8 L 236.2 387.0 Q 235.5 387.9, 234.2 387.9 Q 233.2 387.9, 232.7 387.4 Q 232.2 386.8, 232.2 385.8 L 232.2 381.9 L 233.3 381.9 L 233.3 385.7 Q 233.3 386.4, 233.6 386.7 Q 233.8 387.0, 234.4 387.0 Q 235.0 387.0, 235.4 386.8 Q 235.9 386.6, 236.2 386.1 L 236.2 381.9 L 237.2 381.9 " fill="#000000"/>
<path class="legend" d="M 239.4 381.9 L 239.5 382.7 Q 240.2 381.8, 241.2 381.8 Q 241.5 381.8, 241.9 381.9 L 241.8 382.9 Q 241.3 382.8, 241.0 382.8 Q 240.5 382.8, 240.2 383.0 Q 239.9 383.1, 239.6 383.6 L 239.6 387.8 L 238.6 387.8 L 238.6 381.9 L 239.4 381.9 " fill="#000000"/>
<path class="legend" d="M 242.5 384.8 Q 242.5 383.4, 243.2 382.6 Q 243.9 381.8, 245.2 381.8 Q 246.5 381.8, 247.1 382.6 Q 247.7 383.4, 247.7 384.8 L 247.7 385.0 L 243.6 385.0 Q 243.6 386.0, 244.0 386.5 Q 244.5 387.0, 245.3 387.0 Q 245.8 387.0, 246.2 386.9 Q 246.6 386.8, 247.1 386.6 L 247.5 387.3 Q 246.9 387.6, 246.3 387.8 Q 245.8 387.9, 245.3 387.9 Q 243.9 387.9, 243.2 387.1 Q 242.5 386.3, 242.5 384.8 M 245.2 382.7 Q 244.6 382.7, 244.1 383.0 Q 243.7 383.4, 243.6 384.2 L 246.6 384.2 Q 246.5 383.4, 246.2 383.0 Q 245.8 382.7, 245.2 382.7 " fill="#000000"/>
<path class="legend" d="" fill="#000000"/>
<path class="legend" d="M 253.1 386.9 L 254.9 386.9 L 254.9 380.8 L 253.0 381.4 L 252.7 380.8 L 255.2 379.6 L 256.0 379.8 L 256.0 386.9 L 257.6 386.9 L 257.6 387.8 L 253.1 387.8 L 253.1 386.9 " fill="#000000"/>
<path class="legend" d="M 258.9 386.9 L 260.7 386.9 L 260.7 380.8 L 258.7 381.4 L 258.4 380.8 L 260.9 379.6 L 261.7 379.8 L 261.7 386.9 L 263.3 386.9 L 263.3 387.8 L 258.9 387.8 L 258.9 386.9 " fill="#000000"/>
<path class="legend" d="M 266.9 379.6 Q 268.4 379.6, 269.1 380.6 Q 269.8 381.6, 269.8 383.5 Q 269.8 385.7, 268.9 386.8 Q 268.0 387.9, 266.3 387.9 Q 265.8 387.9, 265.3 387.8 Q 264.9 387.7, 264.5 387.4 L 265.0 386.6 Q 265.6 387.0, 266.3 387.0 Q 267.4 387.0, 268.0 386.2 Q 268.6 385.5, 268.7 384.0 Q 268.2 384.3, 267.7 384.6 Q 267.2 384.8, 266.6 384.8 Q 265.9 384.8, 265.4 384.4 Q 264.8 384.1, 264.5 383.6 Q 264.2 383.0, 264.2 382.3 Q 264.2 381.5, 264.5 380.9 Q 264.9 380.3, 265.5 379.9 Q 266.1 379.6, 266.9 379.6 M 265.3 382.3 Q 265.3 383.0, 265.7 383.4 Q 266.1 383.8, 266.8 383.8 Q 267.3 383.8, 267.8 383.6 Q 268.3 383.4, 268.7 383.1 Q 268.6 381.8, 268.2 381.1 Q 267.8 380.5, 266.9 380.5 Q 266.5 380.5, 266.1 380.8 Q 265.7 381.0, 265.5 381.4 Q 265.3 381.8, 265.3 382.3 " fill="#000000"/>
<path class="legend" d="M 273.7 379.6 Q 275.1 379.6, 275.8 380.6 Q 276.6 381.6, 276.6 383.5 Q 276.6 385.7, 275.7 386.8 Q 274.8 387.9, 273.1 387.9 Q 272.6 387.9, 272.1 387.8 Q 271.7 387.7, 271.3 387.4 L 271.7 386.6 Q 272.3 387.0, 273.0 387.0 Q 274.2 387.0, 274.8 386.2 Q 275.4 385.5, 275.4 384.0 Q 275.0 384.3, 274.5 384.6 Q 274.0 384.8, 273.4 384.8 Q 272.7 384.8, 272.1 384.4 Q 271.6 384.1, 271.3 383.6 Q 271.0 383.0, 271.0 382.3 Q 271.0 381.5, 271.3 380.9 Q 271.7 380.3, 272.3 379.9 Q 272.9 379.6, 273.7 379.6 M 272.1 382.3 Q 272.1 383.0, 272.5 383.4 Q 272.9 383.8, 273.6 383.8 Q 274.1 383.8, 274.6 383.6 Q 275.1 383.4, 275.4 383.1 Q 275.4 381.8, 275.0 381.1 Q 274.5 380.5, 273.7 380.5 Q 273.2 380.5, 272.9 380.8 Q 272.5 381.0, 272.3 381.4 Q 272.1 381.8, 272.1 382.3 " fill="#000000"/>
<path class="legend" d="" fill="#000000"/>
<path class="legend" d="M 281.9 378.9 L 282.9 378.9 L 282.9 390.0 L 281.9 390.0 L 281.9 378.9 " fill="#000000"/>
<path class="legend" d="M 284.3 378.9 L 285.2 378.9 L 285.2 390.0 L 284.3 390.0 L 284.3 378.9 " fill="#000000"/>
<path class="legend" d="" fill="#000000"/>
<path class="legend" d="M 300.0 387.8 L 299.0 387.8 L 298.1 381.2 L 295.9 387.8 L 294.8 387.8 L 292.7 381.2 L 291.8 387.8 L 290.8 387.8 L 291.8 379.7 L 293.2 379.7 L 295.4 386.2 L 297.6 379.7 L 299.0 379.7 L 300.0 387.8 " fill="#000000"/>
<path class="legend" d="M 301.1 384.8 Q 301.1 383.4, 301.9 382.6 Q 302.6 381.8, 303.9 381.8 Q 305.2 381.8, 305.8 382.6 Q 306.3 383.4, 306.3 384.8 L 306.3 385.0 L 302.2 385.0 Q 302.3 386.0, 302.7 386.5 Q 303.2 387.0, 304.0 387.0 Q 304.4 387.0, 304.9 386.9 Q 305.3 386.8, 305.8 386.6 L 306.1 387.3 Q 305.5 387.6, 305.0 387.8 Q 304.5 387.9, 303.9 387.9 Q 302.6 387.9, 301.9 387.1 Q 301.1 386.3, 301.1 384.8 M 303.9 382.7 Q 303.2 382.7, 302.8 383.0 Q 302.4 383.4, 302.3 384.2 L 305.2 384.2 Q 305.1 383.4, 304.8 383.0 Q 304.5 382.7, 303.9 382.7 " fill="#000000"/>
<path class="legend" d="M 307.2 386.2 Q 307.2 385.3, 307.9 384.8 Q 308.7 384.2, 310.1 384.2 L 310.9 384.2 L 310.9 384.0 Q 310.9 383.3, 310.6 383.0 Q 310.3 382.7, 309.6 382.7 Q 309.1 382.7, 308.8 382.7 Q 308.4 382.8, 307.8 383.1 L 307.5 382.3 Q 308.6 381.8, 309.6 381.8 Q 310.9 381.8, 311.4 382.3 Q 312.0 382.9, 312.0 384.0 L 312.0 387.8 L 311.2 387.8 Q 311.2 387.7, 311.1 387.6 Q 311.1 387.4, 311.0 387.1 Q 310.2 387.9, 309.1 387.9 Q 308.2 387.9, 307.7 387.5 Q 307.2 387.0, 307.2 386.2 M 308.2 386.2 Q 308.2 386.6, 308.5 386.9 Q 308.8 387.1, 309.3 387.1 Q 309.8 387.1, 310.2 386.9 Q 310.6 386.7, 310.9 386.3 L 310.9 385.0 L 310.1 385.0 Q 309.2 385.0, 308.7 385.3 Q 308.2 385.6, 308.2 386.2 " fill="#000000"/>
<path class="legend" d="M 316.3 381.8 Q 317.3 381.8, 317.8 382.3 Q 318.3 382.9, 318.3 383.9 L 318.3 387.8 L 317.2 387.8 L 317.2 384.0 Q 317.2 383.3, 316.9 383.0 Q 316.7 382.7, 316.1 382.7 Q 315.5 382.7, 315.1 382.9 Q 314.6 383.1, 314.3 383.6 L 314.3 387.8 L 313.3 387.8 L 313.3 381.9 L 314.1 381.9 L 314.3 382.7 Q 315.1 381.8, 316.3 381.8 " fill="#000000"/>
<path class="legend" d="" fill="#000000"/>
<path class="legend" d="M 323.7 378.9 L 324.7 378.9 L 324.7 390.0 L 323.7 390.0 L 323.7 378.9 " fill="#000000"/>
<path class="legend" d="M 326.3 386.5 Q 326.4 386.6, 326.8 386.7 Q 327.2 386.9, 327.6 387.0 Q 328.0 387.1, 328.4 387.1 Q 329.2 387.1, 329.7 386.7 Q 330.1 386.3, 330.1 385.7 Q 330.1 385.2, 329.9 385.0 Q 329.7 384.7, 329.3 384.5 Q 329.0 384.4, 328.4 384.2 Q 327.7 384.0, 327.2 383.8 Q 326.8 383.6, 326.5 383.2 Q 326.2 382.7, 326.2 382.0 Q 326.2 381.0, 326.9 380.3 Q 327.6 379.7, 329.0 379.7 Q 329.9 379.7, 331.0 380.2 L 330.7 381.0 Q 329.7 380.6, 329.0 380.6 Q 328.2 380.6, 327.8 381.0 Q 327.3 381.3, 327.4 381.9 Q 327.4 382.3, 327.6 382.6 Q 327.8 382.8, 328.1 383.0 Q 328.5 383.1, 329.0 383.3 Q 329.7 383.5, 330.2 383.7 Q 330.6 384.0, 330.9 384.4 Q 331.2 384.9, 331.2 385.7 Q 331.2 386.8, 330.5 387.4 Q 329.7 388.0, 328.5 388.0 Q 327.8 388.0, 327.2 387.8 Q 326.7 387.7, 326.0 387.4 L 326.3 386.5 " fill="#000000"/>
<path class="legend" d="M 332.2 379.7 L 333.2 379.7 L 333.2 383.1 L 337.4 383.1 L 337.4 379.7 L 338.5 379.7 L 338.5 387.8 L 337.4 387.8 L 337.4 384.1 L 333.2 384.1 L 333.2 387.8 L 332.2 387.8 L 332.2 379.7 " fill="#000000"/>
<path class="legend" d="M 345.8 387.8 L 345.0 385.4 L 341.8 385.4 L 340.9 387.8 L 339.8 387.8 L 342.6 379.7 L 344.0 379.7 L 346.9 387.8 L 345.8 387.8 M 342.1 384.5 L 344.6 384.5 L 343.3 380.8 L 342.1 384.5 " fill="#000000"/>
<path class="legend" d="M 349.8 379.7 Q 351.2 379.7, 351.9 380.3 Q 352.6 380.9, 352.6 382.1 Q 352.6 383.2, 351.8 383.8 Q 351.1 384.5, 349.8 384.5 L 348.5 384.5 L 348.5 387.8 L 347.4 387.8 L 347.4 379.7 L 349.8 379.7 M 349.8 383.5 Q 350.6 383.5, 351.0 383.2 Q 351.4 382.8, 351.4 382.1 Q 351.4 381.4, 351.0 381.0 Q 350.6 380.6, 349.8 380.6 L 348.5 380.6 L 348.5 383.5 L 349.8 383.5 " fill="#000000"/>
<path class="legend" d="M 353.5 378.9 L 354.4 378.9 L 354.4 390.0 L 353.5 390.0 L 353.5 378.9 " fill="#000000"/>
<path class="legend" d="M 355.8 386.5 L 356.9 386.5 L 356.9 387.6 L 355.8 387.6 L 355.8 386.5 M 355.8 382.5 L 356.9 382.5 L 356.9 383.7 L 355.8 383.7 L 355.8 382.5 " fill="#000000"/>
<path class="legend" d="" fill="#000000"/>
<path class="legend" d="M 362.8 386.9 L 364.6 386.9 L 364.6 380.8 L 362.6 381.4 L 362.4 380.8 L 364.9 379.6 L 365.7 379.8 L 365.7 386.9 L 367.3 386.9 L 367.3 387.8 L 362.8 387.8 L 362.8 386.9 " fill="#000000"/>
<path class="legend" d="M 372.0 383.5 Q 372.8 383.8, 373.2 384.3 Q 373.6 384.8, 373.6 385.6 Q 373.6 386.3, 373.2 386.8 Q 372.9 387.3, 372.3 387.6 Q 371.6 387.9, 370.8 387.9 Q 369.9 387.9, 369.3 387.6 Q 368.6 387.3, 368.1 386.7 L 368.8 386.0 Q 369.3 386.6, 369.7 386.8 Q 370.1 387.0, 370.8 387.0 Q 371.5 387.0, 372.0 386.6 Q 372.4 386.2, 372.4 385.6 Q 372.4 384.7, 372.0 384.4 Q 371.5 384.0, 370.5 384.0 L 369.9 384.0 L 369.9 383.2 L 370.4 383.2 Q 371.3 383.2, 371.8 382.8 Q 372.3 382.4, 372.3 381.7 Q 372.3 381.1, 371.9 380.8 Q 371.5 380.5, 370.8 380.5 Q 370.1 380.5, 369.7 380.8 Q 369.3 381.0, 369.0 381.6 L 368.2 381.2 Q 368.5 380.5, 369.2 380.1 Q 369.9 379.6, 370.8 379.6 Q 372.0 379.6, 372.7 380.2 Q 373.4 380.7, 373.4 381.7 Q 373.4 382.3, 373.0 382.8 Q 372.7 383.3, 372.0 383.5 " fill="#000000"/>
<path class="legend" d="M 374.6 386.6 L 375.8 386.6 L 375.8 387.8 L 374.6 387.8 L 374.6 386.6 " fill="#000000"/>
<path class="legend" d="M 382.2 385.0 L 383.1 385.0 L 383.1 385.9 L 382.2 385.9 L 382.2 387.8 L 381.1 387.8 L 381.1 385.9 L 376.9 385.9 L 376.9 385.2 L 380.4 379.7 L 382.2 379.7 L 382.2 385.0 M 378.2 385.0 L 381.1 385.0 L 381.1 380.4 L 378.2 385.0 " fill="#000000"/>
<path class="legend" d="M 387.0 387.9 Q 385.6 387.9, 384.8 386.8 Q 384.1 385.7, 384.1 383.7 Q 384.1 381.8, 384.8 380.7 Q 385.5 379.6, 387.0 379.6 Q 388.5 379.6, 389.3 380.7 Q 390.0 381.8, 390.0 383.7 Q 390.0 385.7, 389.3 386.8 Q 388.5 387.9, 387.0 387.9 M 387.0 387.0 Q 387.9 387.0, 388.4 386.2 Q 388.9 385.3, 388.9 383.7 Q 388.9 382.1, 388.4 381.3 Q 387.9 380.5, 387.0 380.5 Q 386.2 380.5, 385.7 381.3 Q 385.2 382.1, 385.2 383.7 Q 385.2 385.3, 385.7 386.2 Q 386.2 387.0, 387.0 387.0 " fill="#000000"/>
<ellipse cx="501.3" cy="284.1" rx="6.5" ry="6.5" class="atom-1" style="fill:#9999E5;fill-rule:evenodd;stroke:#9999E5;stroke-width:1.0px;stroke-linecap:butt;stroke-linejoin:miter;stroke-opacity:1"/>
<path class="bond-0 atom-0 atom-1" d="M 521.6,304.1 L 503.7,289.3" style="fill:none;fill-rule:evenodd;stroke:#E5E5E5;stroke-width:1.7px;stroke-linecap:butt;stroke-linejoin:miter;stroke-opacity:1"/>
<path class="bond-0 atom-0 atom-1" d="M 524.7,300.4 L 506.9,285.5" style="fill:none;fill-rule:evenodd;stroke:#E5E5E5;stroke-width:1.7px;stroke-linecap:butt;stroke-linejoin:miter;stroke-opacity:1;stroke-dasharray:6,4"/>
<path class="bond-1 atom-1 atom-2" d="M 495.9,284.5 L 475.5,297.4" style="fill:none;fill-rule:evenodd;stroke:#E5E5E5;stroke-width:1.7px;stroke-linecap:butt;stroke-linejoin:miter;stroke-opacity:1"/>
<path class="bond-1 atom-1 atom-2" d="M 498.5,288.7 L 478.2,301.5" style="fill:none;fill-rule:evenodd;stroke:#E5E5E5;stroke-width:1.7px;stroke-linecap:butt;stroke-linejoin:miter;stroke-opacity:1;stroke-dasharray:6,4"/>
<path class="atom-0" d="M 524.7 303.9 L 526.0 302.5 L 524.2 302.2 L 524.5 301.2 L 526.2 302.1 L 525.9 300.3 L 526.9 300.3 L 526.6 302.1 L 528.3 301.3 L 528.6 302.2 L 526.8 302.5 L 528.1 303.9 L 527.3 304.5 L 526.4 302.8 L 525.5 304.5 L 524.7 303.9 " fill="#191919"/>
<path class="atom-1" d="M 498.6 287.2 Q 498.7 287.3, 499.2 287.5 Q 499.6 287.6, 500.1 287.8 Q 500.6 287.9, 501.0 287.9 Q 501.9 287.9, 502.4 287.4 Q 502.9 287.0, 502.9 286.3 Q 502.9 285.8, 502.7 285.4 Q 502.4 285.1, 502.0 285.0 Q 501.6 284.8, 501.0 284.6 Q 500.2 284.3, 499.7 284.1 Q 499.2 283.9, 498.8 283.4 Q 498.5 282.9, 498.5 282.0 Q 498.5 280.9, 499.3 280.2 Q 500.1 279.4, 501.6 279.4 Q 502.7 279.4, 503.9 279.9 L 503.6 280.9 Q 502.5 280.5, 501.7 280.5 Q 500.8 280.5, 500.3 280.9 Q 499.8 281.2, 499.8 281.9 Q 499.8 282.4, 500.0 282.7 Q 500.3 283.0, 500.7 283.1 Q 501.0 283.3, 501.7 283.5 Q 502.5 283.8, 503.0 284.0 Q 503.5 284.3, 503.9 284.8 Q 504.2 285.4, 504.2 286.3 Q 504.2 287.5, 503.4 288.2 Q 502.5 288.9, 501.1 288.9 Q 500.3 288.9, 499.6 288.7 Q 499.0 288.6, 498.3 288.3 L 498.6 287.2 " fill="#000000"/>
<path class="atom-2" d="M 471.8 300.5 L 473.2 299.1 L 471.4 298.7 L 471.7 297.8 L 473.3 298.6 L 473.1 296.8 L 474.1 296.8 L 473.8 298.6 L 475.5 297.8 L 475.8 298.7 L 473.9 299.1 L 475.3 300.5 L 474.5 301.1 L 473.6 299.3 L 472.6 301.1 L 471.8 300.5 " fill="#191919"/>
<path class="legend" d="M 410.0 379.3 L 415.0 379.3 L 415.0 380.2 L 411.1 380.2 L 411.1 382.8 L 414.6 382.8 L 414.6 383.8 L 411.1 383.8 L 411.1 387.7 L 410.0 387.7 L 410.0 379.3 " fill="#000000"/>
<path class="legend" d="M 415.7 384.6 Q 415.7 383.1, 416.4 382.3 Q 417.2 381.5, 418.5 381.5 Q 419.9 381.5, 420.5 382.3 Q 421.1 383.1, 421.1 384.6 L 421.1 384.8 L 416.8 384.8 Q 416.8 385.8, 417.3 386.4 Q 417.8 386.9, 418.6 386.9 Q 419.1 386.9, 419.5 386.8 Q 420.0 386.7, 420.5 386.5 L 420.8 387.2 Q 420.2 387.5, 419.7 387.7 Q 419.1 387.8, 418.6 387.8 Q 417.2 387.8, 416.4 387.0 Q 415.7 386.1, 415.7 384.6 M 418.5 382.4 Q 417.8 382.4, 417.4 382.8 Q 417.0 383.2, 416.9 384.0 L 419.9 384.0 Q 419.8 383.1, 419.5 382.8 Q 419.2 382.4, 418.5 382.4 " fill="#000000"/>
<path class="legend" d="M 421.9 386.0 Q 421.9 385.1, 422.7 384.5 Q 423.5 384.0, 424.9 384.0 L 425.8 384.0 L 425.8 383.8 Q 425.8 383.0, 425.5 382.7 Q 425.2 382.4, 424.4 382.4 Q 424.0 382.4, 423.6 382.5 Q 423.2 382.5, 422.6 382.8 L 422.3 382.0 Q 423.4 381.5, 424.5 381.5 Q 425.8 381.5, 426.4 382.0 Q 427.0 382.6, 427.0 383.8 L 427.0 387.7 L 426.1 387.7 Q 426.1 387.7, 426.0 387.5 Q 426.0 387.3, 425.9 387.0 Q 425.1 387.8, 423.9 387.8 Q 423.0 387.8, 422.5 387.4 Q 421.9 386.9, 421.9 386.0 M 423.0 386.0 Q 423.0 386.5, 423.3 386.7 Q 423.6 387.0, 424.2 387.0 Q 424.6 387.0, 425.1 386.8 Q 425.5 386.5, 425.8 386.1 L 425.8 384.8 L 425.0 384.8 Q 424.0 384.8, 423.5 385.1 Q 423.0 385.4, 423.0 386.0 " fill="#000000"/>
<path class="legend" d="M 428.3 382.4 L 428.3 381.6 L 429.4 381.6 L 429.6 379.8 L 430.5 379.8 L 430.5 381.6 L 432.3 381.6 L 432.3 382.4 L 430.5 382.4 L 430.5 385.8 Q 430.5 386.9, 431.4 386.9 Q 431.7 386.9, 432.2 386.7 L 432.4 387.5 Q 431.8 387.8, 431.1 387.8 Q 430.4 387.8, 429.8 387.3 Q 429.3 386.8, 429.3 385.9 L 429.3 382.4 L 428.3 382.4 " fill="#000000"/>
<path class="legend" d="M 438.3 381.6 L 438.3 387.7 L 437.4 387.7 L 437.3 386.9 Q 436.5 387.8, 435.2 387.8 Q 434.2 387.8, 433.6 387.3 Q 433.1 386.7, 433.1 385.6 L 433.1 381.6 L 434.2 381.6 L 434.2 385.5 Q 434.2 386.3, 434.5 386.6 Q 434.8 386.9, 435.4 386.9 Q 436.0 386.9, 436.4 386.7 Q 436.9 386.4, 437.2 386.0 L 437.2 381.6 L 438.3 381.6 " fill="#000000"/>
<path class="legend" d="M 440.6 381.6 L 440.7 382.4 Q 441.4 381.5, 442.4 381.5 Q 442.7 381.5, 443.2 381.6 L 443.0 382.6 Q 442.5 382.5, 442.2 382.5 Q 441.7 382.5, 441.4 382.7 Q 441.1 382.9, 440.8 383.3 L 440.8 387.7 L 439.7 387.7 L 439.7 381.6 L 440.6 381.6 " fill="#000000"/>
<path class="legend" d="M 443.8 384.6 Q 443.8 383.1, 444.5 382.3 Q 445.3 381.5, 446.6 381.5 Q 448.0 381.5, 448.6 382.3 Q 449.2 383.1, 449.2 384.6 L 449.2 384.8 L 444.9 384.8 Q 444.9 385.8, 445.4 386.4 Q 445.9 386.9, 446.7 386.9 Q 447.2 386.9, 447.6 386.8 Q 448.1 386.7, 448.6 386.5 L 448.9 387.2 Q 448.3 387.5, 447.8 387.7 Q 447.2 387.8, 446.7 387.8 Q 445.3 387.8, 444.5 387.0 Q 443.8 386.1, 443.8 384.6 M 446.6 382.4 Q 445.9 382.4, 445.5 382.8 Q 445.1 383.2, 445.0 384.0 L 448.0 384.0 Q 447.9 383.1, 447.6 382.8 Q 447.3 382.4, 446.6 382.4 " fill="#000000"/>
<path class="legend" d="" fill="#000000"/>
<path class="legend" d="M 457.7 382.4 Q 458.4 382.4, 459.0 382.8 Q 459.6 383.1, 459.9 383.7 Q 460.2 384.3, 460.2 385.0 Q 460.2 385.8, 459.9 386.5 Q 459.5 387.1, 458.9 387.4 Q 458.2 387.8, 457.4 387.8 Q 455.9 387.8, 455.1 386.8 Q 454.4 385.8, 454.4 383.7 Q 454.4 381.5, 455.3 380.3 Q 456.3 379.2, 458.1 379.2 Q 458.6 379.2, 459.0 379.3 Q 459.5 379.4, 459.9 379.7 L 459.4 380.5 Q 458.8 380.1, 458.1 380.1 Q 456.9 380.1, 456.3 380.9 Q 455.7 381.7, 455.6 383.3 Q 456.0 382.9, 456.6 382.7 Q 457.1 382.4, 457.7 382.4 M 457.4 386.8 Q 457.9 386.8, 458.2 386.6 Q 458.6 386.3, 458.8 385.9 Q 459.0 385.5, 459.0 385.0 Q 459.0 384.3, 458.6 383.8 Q 458.2 383.4, 457.5 383.4 Q 457.0 383.4, 456.4 383.6 Q 455.9 383.8, 455.6 384.2 Q 455.6 385.6, 456.1 386.2 Q 456.5 386.8, 457.4 386.8 " fill="#000000"/>
<path class="legend" d="M 465.7 380.2 L 461.3 380.2 L 461.3 379.3 L 466.9 379.3 L 466.9 380.1 L 463.5 387.7 L 462.3 387.7 L 465.7 380.2 " fill="#000000"/>
<path class="legend" d="M 470.7 382.4 Q 471.4 382.4, 472.0 382.8 Q 472.6 383.1, 473.0 383.7 Q 473.3 384.2, 473.3 385.0 Q 473.3 385.9, 472.9 386.5 Q 472.5 387.2, 471.8 387.5 Q 471.1 387.8, 470.3 387.8 Q 469.5 387.8, 468.8 387.5 Q 468.1 387.2, 467.6 386.7 L 468.3 385.9 Q 468.7 386.4, 469.3 386.6 Q 469.8 386.8, 470.3 386.8 Q 471.1 386.8, 471.6 386.4 Q 472.1 385.9, 472.1 385.1 Q 472.1 384.2, 471.6 383.8 Q 471.1 383.3, 470.3 383.3 Q 469.5 383.3, 468.7 383.6 L 468.0 383.3 L 468.5 379.3 L 472.8 379.3 L 472.7 380.2 L 469.4 380.2 L 469.2 382.7 Q 469.9 382.4, 470.7 382.4 " fill="#000000"/>
<path class="legend" d="" fill="#000000"/>
<path class="legend" d="M 478.6 378.5 L 479.6 378.5 L 479.6 390.0 L 478.6 390.0 L 478.6 378.5 " fill="#000000"/>
<path class="legend" d="M 481.0 378.5 L 482.0 378.5 L 482.0 390.0 L 481.0 390.0 L 481.0 378.5 " fill="#000000"/>
<path class="legend" d="" fill="#000000"/>
<path class="legend" d="M 497.4 387.7 L 496.3 387.7 L 495.5 380.8 L 493.2 387.7 L 492.0 387.7 L 489.8 380.8 L 488.9 387.7 L 487.8 387.7 L 488.9 379.3 L 490.3 379.3 L 492.6 386.1 L 494.9 379.3 L 496.4 379.3 L 497.4 387.7 " fill="#000000"/>
<path class="legend" d="M 498.6 384.6 Q 498.6 383.1, 499.3 382.3 Q 500.1 381.5, 501.5 381.5 Q 502.8 381.5, 503.4 382.3 Q 504.0 383.1, 504.0 384.6 L 504.0 384.8 L 499.7 384.8 Q 499.8 385.8, 500.2 386.4 Q 500.7 386.9, 501.6 386.9 Q 502.0 386.9, 502.5 386.8 Q 502.9 386.7, 503.5 386.5 L 503.8 387.2 Q 503.2 387.5, 502.6 387.7 Q 502.1 387.8, 501.5 387.8 Q 500.1 387.8, 499.4 387.0 Q 498.6 386.1, 498.6 384.6 M 501.5 382.4 Q 500.8 382.4, 500.3 382.8 Q 499.9 383.2, 499.8 384.0 L 502.8 384.0 Q 502.8 383.1, 502.4 382.8 Q 502.1 382.4, 501.5 382.4 " fill="#000000"/>
<path class="legend" d="M 504.9 386.0 Q 504.9 385.1, 505.6 384.5 Q 506.4 384.0, 507.9 384.0 L 508.8 384.0 L 508.8 383.8 Q 508.8 383.0, 508.5 382.7 Q 508.1 382.4, 507.4 382.4 Q 506.9 382.4, 506.5 382.5 Q 506.1 382.5, 505.5 382.8 L 505.2 382.0 Q 506.3 381.5, 507.4 381.5 Q 508.7 381.5, 509.3 382.0 Q 509.9 382.6, 509.9 383.8 L 509.9 387.7 L 509.0 387.7 Q 509.0 387.7, 509.0 387.5 Q 508.9 387.3, 508.9 387.0 Q 508.0 387.8, 506.9 387.8 Q 506.0 387.8, 505.4 387.4 Q 504.9 386.9, 504.9 386.0 M 506.0 386.0 Q 506.0 386.5, 506.3 386.7 Q 506.5 387.0, 507.1 387.0 Q 507.6 387.0, 508.0 386.8 Q 508.5 386.5, 508.8 386.1 L 508.8 384.8 L 507.9 384.8 Q 507.0 384.8, 506.5 385.1 Q 506.0 385.4, 506.0 386.0 " fill="#000000"/>
<path class="legend" d="M 514.4 381.5 Q 515.4 381.5, 515.9 382.0 Q 516.4 382.6, 516.4 383.7 L 516.4 387.7 L 515.3 387.7 L 515.3 383.7 Q 515.3 383.0, 515.0 382.7 Q 514.7 382.4, 514.1 382.4 Q 513.5 382.4, 513.1 382.6 Q 512.6 382.9, 512.3 383.3 L 512.3 387.7 L 511.2 387.7 L 511.2 381.6 L 512.1 381.6 L 512.2 382.4 Q 513.1 381.5, 514.4 381.5 " fill="#000000"/>
<path class="legend" d="" fill="#000000"/>
<path class="legend" d="M 522.1 378.5 L 523.1 378.5 L 523.1 390.0 L 522.1 390.0 L 522.1 378.5 " fill="#000000"/>
<path class="legend" d="M 524.8 386.4 Q 524.9 386.4, 525.3 386.6 Q 525.7 386.8, 526.1 386.9 Q 526.5 387.0, 527.0 387.0 Q 527.8 387.0, 528.2 386.6 Q 528.7 386.2, 528.7 385.5 Q 528.7 385.0, 528.5 384.8 Q 528.2 384.5, 527.9 384.3 Q 527.5 384.2, 526.9 384.0 Q 526.2 383.8, 525.7 383.5 Q 525.3 383.3, 525.0 382.9 Q 524.7 382.4, 524.7 381.7 Q 524.7 380.6, 525.4 380.0 Q 526.1 379.3, 527.5 379.3 Q 528.5 379.3, 529.6 379.8 L 529.3 380.7 Q 528.3 380.3, 527.6 380.3 Q 526.7 380.3, 526.3 380.6 Q 525.8 380.9, 525.8 381.5 Q 525.8 382.0, 526.1 382.3 Q 526.3 382.5, 526.6 382.7 Q 527.0 382.8, 527.6 383.0 Q 528.3 383.3, 528.8 383.5 Q 529.2 383.7, 529.5 384.2 Q 529.9 384.7, 529.9 385.5 Q 529.9 386.7, 529.1 387.3 Q 528.3 387.9, 527.0 387.9 Q 526.3 387.9, 525.7 387.8 Q 525.1 387.6, 524.5 387.3 L 524.8 386.4 " fill="#000000"/>
<path class="legend" d="M 530.8 379.3 L 532.0 379.3 L 532.0 382.9 L 536.3 382.9 L 536.3 379.3 L 537.4 379.3 L 537.4 387.7 L 536.3 387.7 L 536.3 383.8 L 532.0 383.8 L 532.0 387.7 L 530.8 387.7 L 530.8 379.3 " fill="#000000"/>
<path class="legend" d="M 545.0 387.7 L 544.2 385.2 L 540.8 385.2 L 540.0 387.7 L 538.8 387.7 L 541.7 379.3 L 543.1 379.3 L 546.1 387.7 L 545.0 387.7 M 541.2 384.3 L 543.8 384.3 L 542.5 380.5 L 541.2 384.3 " fill="#000000"/>
<path class="legend" d="M 549.2 379.3 Q 550.6 379.3, 551.3 379.9 Q 552.1 380.6, 552.1 381.8 Q 552.1 382.9, 551.3 383.6 Q 550.6 384.2, 549.2 384.2 L 547.8 384.2 L 547.8 387.7 L 546.7 387.7 L 546.7 379.3 L 549.2 379.3 M 549.2 383.3 Q 550.0 383.3, 550.4 382.9 Q 550.9 382.5, 550.9 381.8 Q 550.9 381.0, 550.4 380.6 Q 550.0 380.2, 549.2 380.2 L 547.8 380.2 L 547.8 383.3 L 549.2 383.3 " fill="#000000"/>
<path class="legend" d="M 553.0 378.5 L 554.0 378.5 L 554.0 390.0 L 553.0 390.0 L 553.0 378.5 " fill="#000000"/>
<path class="legend" d="M 555.4 386.3 L 556.6 386.3 L 556.6 387.5 L 555.4 387.5 L 555.4 386.3 M 555.4 382.2 L 556.6 382.2 L 556.6 383.4 L 555.4 383.4 L 555.4 382.2 " fill="#000000"/>
<path class="legend" d="" fill="#000000"/>
<path class="legend" d="M 562.7 386.8 L 564.6 386.8 L 564.6 380.5 L 562.5 381.1 L 562.3 380.4 L 564.8 379.2 L 565.7 379.4 L 565.7 386.8 L 567.3 386.8 L 567.3 387.7 L 562.7 387.7 L 562.7 386.8 " fill="#000000"/>
<path class="legend" d="M 568.3 380.9 Q 568.6 380.1, 569.3 379.6 Q 570.0 379.2, 571.1 379.2 Q 572.3 379.2, 573.1 379.9 Q 573.8 380.6, 573.8 381.8 Q 573.8 383.0, 572.8 384.2 Q 571.9 385.4, 570.0 386.8 L 573.9 386.8 L 573.9 387.7 L 568.2 387.7 L 568.2 386.9 Q 569.8 385.8, 570.7 385.0 Q 571.7 384.1, 572.1 383.4 Q 572.6 382.6, 572.6 381.8 Q 572.6 381.0, 572.2 380.6 Q 571.8 380.1, 571.1 380.1 Q 570.4 380.1, 569.9 380.4 Q 569.5 380.7, 569.2 381.3 L 568.3 380.9 " fill="#000000"/>
<path class="legend" d="M 575.0 386.5 L 576.2 386.5 L 576.2 387.7 L 575.0 387.7 L 575.0 386.5 " fill="#000000"/>
<path class="legend" d="M 577.4 380.9 Q 577.7 380.1, 578.4 379.6 Q 579.2 379.2, 580.2 379.2 Q 581.5 379.2, 582.2 379.9 Q 582.9 380.6, 582.9 381.8 Q 582.9 383.0, 582.0 384.2 Q 581.1 385.4, 579.2 386.8 L 583.0 386.8 L 583.0 387.7 L 577.4 387.7 L 577.4 386.9 Q 578.9 385.8, 579.9 385.0 Q 580.8 384.1, 581.3 383.4 Q 581.7 382.6, 581.7 381.8 Q 581.7 381.0, 581.3 380.6 Q 580.9 380.1, 580.2 380.1 Q 579.5 380.1, 579.1 380.4 Q 578.6 380.7, 578.3 381.3 L 577.4 380.9 " fill="#000000"/>
<path class="legend" d="M 587.0 379.2 Q 588.5 379.2, 589.2 380.2 Q 590.0 381.2, 590.0 383.2 Q 590.0 385.5, 589.1 386.6 Q 588.1 387.8, 586.3 387.8 Q 585.8 387.8, 585.4 387.7 Q 584.9 387.6, 584.5 387.3 L 585.0 386.5 Q 585.6 386.8, 586.3 386.8 Q 587.5 386.8, 588.1 386.1 Q 588.7 385.3, 588.8 383.7 Q 588.4 384.1, 587.8 384.3 Q 587.3 384.5, 586.7 384.5 Q 586.0 384.5, 585.4 384.2 Q 584.8 383.9, 584.5 383.3 Q 584.2 382.7, 584.2 382.0 Q 584.2 381.2, 584.5 380.5 Q 584.9 379.9, 585.5 379.5 Q 586.2 379.2, 587.0 379.2 M 585.3 382.0 Q 585.3 382.7, 585.8 383.2 Q 586.2 383.6, 586.9 383.6 Q 587.4 383.6, 587.9 383.4 Q 588.4 383.2, 588.8 382.8 Q 588.8 381.4, 588.3 380.8 Q 587.9 380.2, 587.0 380.2 Q 586.5 380.2, 586.1 380.4 Q 585.8 380.6, 585.6 381.0 Q 585.3 381.5, 585.3 382.0 " fill="#000000"/>
</svg>