<svg xmlns="http://www.w3.org/2000/svg" xmlns:rdkit="http://www.rdkit.org/xml" xmlns:xlink="http://www.w3.org/1999/xlink" version="1.1" baseProfile="full" xml:space="preserve" width="600px" height="400px" viewBox="0 0 600 400">
<!-- END OF HEADER -->
<rect width="100%" height="100%" fill="#E5ECF6"/>
<rect style="opacity:1.0;fill:#E5ECF6;stroke:none" width="200.0" height="200.0" x="0.0" y="0.0"> </rect>
<ellipse cx="131.3" cy="89.7" rx="7.4" ry="7.4" class="atom-1" style="fill:#E5E533;fill-rule:evenodd;stroke:#E5E533;stroke-width:1.0px;stroke-linecap:butt;stroke-linejoin:miter;stroke-opacity:1"/>
<ellipse cx="104.2" cy="64.9" rx="7.4" ry="7.4" class="atom-2" style="fill:#9999E5;fill-rule:evenodd;stroke:#9999E5;stroke-width:1.0px;stroke-linecap:butt;stroke-linejoin:miter;stroke-opacity:1"/>
<ellipse cx="69.1" cy="75.9" rx="7.4" ry="7.4" class="atom-3" style="fill:#E5E533;fill-rule:evenodd;stroke:#E5E533;stroke-width:1.0px;stroke-linecap:butt;stroke-linejoin:miter;stroke-opacity:1"/>
<path class="bond-0 atom-0 atom-1" d="M 124.8,119.1 L 131.3,89.7" style="fill:none;fill-rule:evenodd;stroke:#E5E5E5;stroke-width:2.0px;stroke-linecap:butt;stroke-linejoin:miter;stroke-opacity:1"/>
<path class="bond-0 atom-0 atom-1" d="M 119.4,117.9 L 125.2,91.6" style="fill:none;fill-rule:evenodd;stroke:#E5E5E5;stroke-width:2.0px;stroke-linecap:butt;stroke-linejoin:miter;stroke-opacity:1;stroke-dasharray:6,4"/>
<path class="bond-1 atom-1 atom-2" d="M 131.3,89.7 L 109.3,69.6" style="fill:none;fill-rule:evenodd;stroke:#000000;stroke-width:2.0px;stroke-linecap:butt;stroke-linejoin:miter;stroke-opacity:1"/>
<path class="bond-1 atom-1 atom-2" d="M 125.2,91.6 L 105.6,73.7" style="fill:none;fill-rule:evenodd;stroke:#000000;stroke-width:2.0px;stroke-linecap:butt;stroke-linejoin:miter;stroke-opacity:1;stroke-dasharray:6,4"/>
<path class="bond-2 atom-2 atom-3" d="M 99.0,66.5 L 69.1,75.9" style="fill:none;fill-rule:evenodd;stroke:#000000;stroke-width:2.0px;stroke-linecap:butt;stroke-linejoin:miter;stroke-opacity:1"/>
<path class="bond-2 atom-2 atom-3" d="M 100.7,71.7 L 73.8,80.2" style="fill:none;fill-rule:evenodd;stroke:#000000;stroke-width:2.0px;stroke-linecap:butt;stroke-linejoin:miter;stroke-opacity:1;stroke-dasharray:6,4"/>
<path class="bond-3 atom-3 atom-4" d="M 69.1,75.9 L 62.6,105.3" style="fill:none;fill-rule:evenodd;stroke:#E5E5E5;stroke-width:2.0px;stroke-linecap:butt;stroke-linejoin:miter;stroke-opacity:1"/>
<path class="bond-3 atom-3 atom-4" d="M 73.8,80.2 L 68.0,106.5" style="fill:none;fill-rule:evenodd;stroke:#E5E5E5;stroke-width:2.0px;stroke-linecap:butt;stroke-linejoin:miter;stroke-opacity:1;stroke-dasharray:6,4"/>
<path d="M 131.1,90.5 L 131.3,89.7 L 130.7,89.2" style="fill:none;stroke:#E5E5E5;stroke-width:2.0px;stroke-linecap:butt;stroke-linejoin:miter;stroke-miterlimit:10;stroke-opacity:1;"/>
<path d="M 69.8,75.7 L 69.1,75.9 L 68.9,76.6" style="fill:none;stroke:#000000;stroke-width:2.0px;stroke-linecap:butt;stroke-linejoin:miter;stroke-miterlimit:10;stroke-opacity:1;"/>
<path class="atom-0" d="M 118.7 123.9 L 120.2 122.3 L 118.2 121.9 L 118.5 120.8 L 120.3 121.8 L 120.1 119.7 L 121.2 119.7 L 120.9 121.8 L 122.8 120.9 L 123.1 121.9 L 121.0 122.3 L 122.5 123.8 L 121.6 124.5 L 120.6 122.6 L 119.6 124.5 L 118.7 123.9 " fill="#191919"/>
<path class="atom-2" d="M 101.9 59.7 L 105.3 65.2 Q 105.6 65.7, 106.2 66.7 Q 106.7 67.7, 106.7 67.7 L 106.7 59.7 L 108.1 59.7 L 108.1 70.1 L 106.7 70.1 L 103.0 64.0 Q 102.6 63.3, 102.2 62.5 Q 101.7 61.7, 101.6 61.5 L 101.6 70.1 L 100.2 70.1 L 100.2 59.7 L 101.9 59.7 " fill="#000000"/>
<path class="atom-4" d="M 61.9 111.2 L 63.4 109.7 L 61.4 109.3 L 61.7 108.2 L 63.5 109.2 L 63.3 107.1 L 64.4 107.1 L 64.1 109.2 L 66.0 108.3 L 66.3 109.3 L 64.2 109.7 L 65.7 111.2 L 64.8 111.9 L 63.8 109.9 L 62.8 111.9 L 61.9 111.2 " fill="#191919"/>
<path class="legend" d="M 10.0 177.8 L 15.7 177.8 L 15.7 178.9 L 11.3 178.9 L 11.3 181.8 L 15.2 181.8 L 15.2 182.9 L 11.3 182.9 L 11.3 187.4 L 10.0 187.4 L 10.0 177.8 " fill="#000000"/>
<path class="legend" d="M 16.5 183.9 Q 16.5 182.2, 17.3 181.2 Q 18.2 180.3, 19.7 180.3 Q 21.3 180.3, 21.9 181.2 Q 22.6 182.1, 22.6 183.8 L 22.6 184.1 L 17.8 184.1 Q 17.8 185.2, 18.3 185.9 Q 18.9 186.5, 19.8 186.5 Q 20.4 186.5, 20.9 186.4 Q 21.4 186.2, 22.0 186.0 L 22.4 186.8 Q 21.7 187.2, 21.1 187.3 Q 20.4 187.5, 19.8 187.5 Q 18.2 187.5, 17.3 186.5 Q 16.5 185.6, 16.5 183.9 M 19.7 181.3 Q 18.9 181.3, 18.5 181.8 Q 18.0 182.2, 17.8 183.1 L 21.3 183.1 Q 21.2 182.2, 20.8 181.7 Q 20.4 181.3, 19.7 181.3 " fill="#000000"/>
<path class="legend" d="M 23.6 185.5 Q 23.6 184.4, 24.5 183.8 Q 25.4 183.2, 27.1 183.2 L 28.1 183.2 L 28.1 182.9 Q 28.1 182.0, 27.7 181.7 Q 27.4 181.3, 26.5 181.3 Q 25.9 181.3, 25.5 181.4 Q 25.1 181.5, 24.4 181.8 L 24.0 180.9 Q 25.3 180.3, 26.5 180.3 Q 28.0 180.3, 28.7 180.9 Q 29.4 181.6, 29.4 182.9 L 29.4 187.4 L 28.4 187.4 Q 28.4 187.3, 28.3 187.1 Q 28.3 186.9, 28.2 186.6 Q 27.2 187.5, 25.9 187.5 Q 24.9 187.5, 24.3 187.0 Q 23.6 186.4, 23.6 185.5 M 24.9 185.5 Q 24.9 186.0, 25.2 186.3 Q 25.6 186.5, 26.2 186.5 Q 26.7 186.5, 27.2 186.3 Q 27.7 186.0, 28.1 185.6 L 28.1 184.1 L 27.1 184.1 Q 26.0 184.1, 25.5 184.5 Q 24.9 184.8, 24.9 185.5 " fill="#000000"/>
<path class="legend" d="M 30.9 181.4 L 30.9 180.4 L 32.2 180.4 L 32.4 178.4 L 33.4 178.4 L 33.4 180.4 L 35.5 180.4 L 35.5 181.4 L 33.4 181.4 L 33.4 185.2 Q 33.4 186.5, 34.4 186.5 Q 34.8 186.5, 35.4 186.3 L 35.6 187.2 Q 34.9 187.5, 34.2 187.5 Q 33.2 187.5, 32.7 186.9 Q 32.1 186.4, 32.1 185.3 L 32.1 181.4 L 30.9 181.4 " fill="#000000"/>
<path class="legend" d="M 42.3 180.4 L 42.3 187.4 L 41.3 187.4 L 41.1 186.4 Q 40.2 187.5, 38.8 187.5 Q 37.6 187.5, 37.0 186.9 Q 36.4 186.2, 36.4 185.0 L 36.4 180.4 L 37.7 180.4 L 37.7 184.9 Q 37.7 185.8, 38.0 186.1 Q 38.3 186.5, 39.0 186.5 Q 39.7 186.5, 40.2 186.2 Q 40.7 185.9, 41.1 185.4 L 41.1 180.4 L 42.3 180.4 " fill="#000000"/>
<path class="legend" d="M 45.0 180.4 L 45.1 181.4 Q 45.8 180.3, 47.0 180.3 Q 47.4 180.3, 47.9 180.4 L 47.7 181.6 Q 47.1 181.4, 46.8 181.4 Q 46.2 181.4, 45.9 181.7 Q 45.5 181.9, 45.2 182.4 L 45.2 187.4 L 43.9 187.4 L 43.9 180.4 L 45.0 180.4 " fill="#000000"/>
<path class="legend" d="M 48.6 183.9 Q 48.6 182.2, 49.5 181.2 Q 50.3 180.3, 51.9 180.3 Q 53.4 180.3, 54.1 181.2 Q 54.8 182.1, 54.8 183.8 L 54.8 184.1 L 49.9 184.1 Q 49.9 185.2, 50.5 185.9 Q 51.0 186.5, 52.0 186.5 Q 52.5 186.5, 53.0 186.4 Q 53.5 186.2, 54.1 186.0 L 54.5 186.8 Q 53.8 187.2, 53.2 187.3 Q 52.6 187.5, 51.9 187.5 Q 50.3 187.5, 49.5 186.5 Q 48.6 185.6, 48.6 183.9 M 51.9 181.3 Q 51.1 181.3, 50.6 181.8 Q 50.1 182.2, 50.0 183.1 L 53.4 183.1 Q 53.3 182.2, 52.9 181.7 Q 52.6 181.3, 51.9 181.3 " fill="#000000"/>
<path class="legend" d="" fill="#000000"/>
<path class="legend" d="M 61.3 186.3 L 63.4 186.3 L 63.4 179.1 L 61.1 179.9 L 60.7 179.1 L 63.7 177.7 L 64.6 177.9 L 64.6 186.3 L 66.5 186.3 L 66.5 187.4 L 61.3 187.4 L 61.3 186.3 " fill="#000000"/>
<path class="legend" d="M 71.3 181.4 Q 72.2 181.4, 72.8 181.8 Q 73.5 182.1, 73.9 182.8 Q 74.2 183.5, 74.2 184.3 Q 74.2 185.2, 73.8 186.0 Q 73.4 186.7, 72.7 187.1 Q 71.9 187.5, 71.0 187.5 Q 69.3 187.5, 68.4 186.3 Q 67.6 185.2, 67.6 182.9 Q 67.6 180.3, 68.6 179.0 Q 69.7 177.7, 71.7 177.7 Q 72.3 177.7, 72.8 177.8 Q 73.4 178.0, 73.8 178.2 L 73.3 179.1 Q 72.6 178.8, 71.8 178.8 Q 70.4 178.8, 69.7 179.7 Q 69.0 180.5, 68.9 182.3 Q 69.4 181.9, 70.0 181.6 Q 70.7 181.4, 71.3 181.4 M 71.0 186.4 Q 71.5 186.4, 71.9 186.1 Q 72.4 185.8, 72.6 185.4 Q 72.9 184.9, 72.9 184.3 Q 72.9 183.5, 72.4 183.0 Q 71.9 182.5, 71.1 182.5 Q 70.5 182.5, 69.9 182.7 Q 69.3 183.0, 68.9 183.4 Q 69.0 184.9, 69.5 185.7 Q 70.0 186.4, 71.0 186.4 " fill="#000000"/>
<path class="legend" d="M 78.9 187.5 Q 77.2 187.5, 76.3 186.2 Q 75.4 184.9, 75.4 182.6 Q 75.4 180.3, 76.3 179.0 Q 77.2 177.7, 78.9 177.7 Q 80.7 177.7, 81.6 179.0 Q 82.5 180.3, 82.5 182.6 Q 82.5 184.9, 81.6 186.2 Q 80.7 187.5, 78.9 187.5 M 78.9 186.4 Q 80.0 186.4, 80.5 185.4 Q 81.1 184.5, 81.1 182.6 Q 81.1 180.7, 80.5 179.7 Q 80.0 178.8, 78.9 178.8 Q 77.9 178.8, 77.4 179.7 Q 76.8 180.7, 76.8 182.6 Q 76.8 184.5, 77.4 185.4 Q 77.9 186.4, 78.9 186.4 " fill="#000000"/>
<path class="legend" d="M 88.4 182.3 Q 89.4 182.6, 89.8 183.2 Q 90.3 183.8, 90.3 184.8 Q 90.3 185.6, 89.9 186.2 Q 89.4 186.8, 88.7 187.2 Q 88.0 187.5, 87.0 187.5 Q 86.0 187.5, 85.2 187.2 Q 84.4 186.8, 83.8 186.1 L 84.6 185.3 Q 85.2 185.9, 85.7 186.2 Q 86.2 186.4, 87.0 186.4 Q 87.8 186.4, 88.4 186.0 Q 88.9 185.5, 88.9 184.7 Q 88.9 183.8, 88.4 183.3 Q 87.8 182.9, 86.6 182.9 L 85.9 182.9 L 85.9 181.9 L 86.5 181.9 Q 87.6 181.9, 88.1 181.5 Q 88.7 181.0, 88.7 180.1 Q 88.7 179.5, 88.2 179.1 Q 87.8 178.8, 87.0 178.8 Q 86.2 178.8, 85.7 179.1 Q 85.2 179.3, 84.8 180.1 L 83.9 179.6 Q 84.2 178.8, 85.0 178.2 Q 85.9 177.7, 87.0 177.7 Q 88.4 177.7, 89.2 178.3 Q 90.1 179.0, 90.1 180.1 Q 90.1 180.9, 89.6 181.5 Q 89.2 182.0, 88.4 182.3 " fill="#000000"/>
<path class="legend" d="" fill="#000000"/>
<path class="legend" d="M 96.5 176.9 L 97.7 176.9 L 97.7 190.0 L 96.5 190.0 L 96.5 176.9 " fill="#000000"/>
<path class="legend" d="" fill="#000000"/>
<path class="legend" d="M 104.6 185.9 Q 104.8 185.9, 105.2 186.1 Q 105.6 186.3, 106.1 186.4 Q 106.6 186.5, 107.1 186.5 Q 108.0 186.5, 108.6 186.1 Q 109.1 185.7, 109.1 184.9 Q 109.1 184.4, 108.8 184.0 Q 108.6 183.7, 108.2 183.5 Q 107.7 183.4, 107.1 183.2 Q 106.2 182.9, 105.7 182.7 Q 105.2 182.4, 104.8 181.9 Q 104.5 181.4, 104.5 180.5 Q 104.5 179.3, 105.3 178.6 Q 106.1 177.8, 107.7 177.8 Q 108.9 177.8, 110.1 178.3 L 109.8 179.4 Q 108.7 178.9, 107.8 178.9 Q 106.9 178.9, 106.3 179.3 Q 105.8 179.7, 105.8 180.4 Q 105.8 180.9, 106.1 181.2 Q 106.4 181.5, 106.7 181.7 Q 107.1 181.8, 107.8 182.0 Q 108.7 182.3, 109.2 182.6 Q 109.7 182.9, 110.1 183.4 Q 110.4 184.0, 110.4 184.9 Q 110.4 186.2, 109.5 186.9 Q 108.7 187.6, 107.2 187.6 Q 106.3 187.6, 105.7 187.5 Q 105.0 187.3, 104.3 187.0 L 104.6 185.9 " fill="#000000"/>
<path class="legend" d="M 111.5 177.8 L 112.8 177.8 L 112.8 181.9 L 117.7 181.9 L 117.7 177.8 L 119.0 177.8 L 119.0 187.4 L 117.7 187.4 L 117.7 183.0 L 112.8 183.0 L 112.8 187.4 L 111.5 187.4 L 111.5 177.8 " fill="#000000"/>
<path class="legend" d="M 127.7 187.4 L 126.7 184.6 L 122.9 184.6 L 122.0 187.4 L 120.7 187.4 L 124.0 177.8 L 125.6 177.8 L 129.0 187.4 L 127.7 187.4 M 123.3 183.5 L 126.3 183.5 L 124.8 179.1 L 123.3 183.5 " fill="#000000"/>
<path class="legend" d="M 132.5 177.8 Q 134.1 177.8, 134.9 178.5 Q 135.8 179.3, 135.8 180.6 Q 135.8 181.9, 134.9 182.7 Q 134.1 183.4, 132.5 183.4 L 130.9 183.4 L 130.9 187.4 L 129.6 187.4 L 129.6 177.8 L 132.5 177.8 M 132.5 182.4 Q 133.4 182.4, 133.9 181.9 Q 134.4 181.5, 134.4 180.6 Q 134.4 179.8, 133.9 179.3 Q 133.4 178.9, 132.5 178.9 L 130.9 178.9 L 130.9 182.4 L 132.5 182.4 " fill="#000000"/>
<path class="legend" d="M 136.9 185.8 L 138.2 185.8 L 138.2 187.2 L 136.9 187.2 L 136.9 185.8 M 136.9 181.1 L 138.2 181.1 L 138.2 182.5 L 136.9 182.5 L 136.9 181.1 " fill="#000000"/>
<path class="legend" d="" fill="#000000"/>
<path class="legend" d="M 144.7 182.5 L 149.7 182.5 L 149.7 183.6 L 144.7 183.6 L 144.7 182.5 " fill="#000000"/>
<path class="legend" d="M 151.4 186.3 L 153.5 186.3 L 153.5 179.1 L 151.1 179.9 L 150.8 179.1 L 153.8 177.7 L 154.7 177.9 L 154.7 186.3 L 156.6 186.3 L 156.6 187.4 L 151.4 187.4 L 151.4 186.3 " fill="#000000"/>
<path class="legend" d="M 158.2 186.3 L 160.3 186.3 L 160.3 179.1 L 158.0 179.9 L 157.7 179.1 L 160.6 177.7 L 161.6 177.9 L 161.6 186.3 L 163.4 186.3 L 163.4 187.4 L 158.2 187.4 L 158.2 186.3 " fill="#000000"/>
<path class="legend" d="M 167.7 177.7 Q 169.4 177.7, 170.3 178.9 Q 171.1 180.0, 171.1 182.3 Q 171.1 184.9, 170.1 186.2 Q 169.0 187.5, 167.0 187.5 Q 166.4 187.5, 165.9 187.4 Q 165.4 187.2, 164.9 186.9 L 165.4 186.0 Q 166.1 186.4, 167.0 186.4 Q 168.3 186.4, 169.0 185.5 Q 169.7 184.7, 169.8 182.9 Q 169.3 183.3, 168.7 183.6 Q 168.1 183.8, 167.4 183.8 Q 166.5 183.8, 165.9 183.4 Q 165.2 183.1, 164.9 182.4 Q 164.5 181.7, 164.5 180.9 Q 164.5 179.9, 164.9 179.2 Q 165.3 178.5, 166.0 178.1 Q 166.8 177.7, 167.7 177.7 M 165.8 180.9 Q 165.8 181.7, 166.3 182.2 Q 166.8 182.7, 167.6 182.7 Q 168.2 182.7, 168.8 182.5 Q 169.4 182.2, 169.8 181.8 Q 169.7 180.2, 169.2 179.5 Q 168.7 178.8, 167.7 178.8 Q 167.2 178.8, 166.8 179.1 Q 166.3 179.3, 166.1 179.8 Q 165.8 180.3, 165.8 180.9 " fill="#000000"/>
<path class="legend" d="M 172.5 186.0 L 173.9 186.0 L 173.9 187.4 L 172.5 187.4 L 172.5 186.0 " fill="#000000"/>
<path class="legend" d="M 180.1 182.3 Q 181.0 182.7, 181.5 183.3 Q 182.0 183.8, 182.0 184.8 Q 182.0 185.6, 181.6 186.2 Q 181.2 186.8, 180.4 187.2 Q 179.7 187.5, 178.7 187.5 Q 177.1 187.5, 176.2 186.8 Q 175.2 186.0, 175.2 184.8 Q 175.2 184.0, 175.7 183.4 Q 176.1 182.8, 176.9 182.3 Q 176.3 182.0, 175.9 181.5 Q 175.6 181.0, 175.6 180.1 Q 175.6 179.0, 176.4 178.3 Q 177.2 177.7, 178.6 177.7 Q 180.0 177.7, 180.8 178.3 Q 181.7 179.0, 181.7 180.1 Q 181.7 180.8, 181.3 181.4 Q 180.9 181.9, 180.1 182.3 M 178.6 178.7 Q 177.8 178.7, 177.4 179.1 Q 177.0 179.5, 177.0 180.1 Q 177.0 180.6, 177.3 181.0 Q 177.5 181.3, 178.0 181.5 Q 178.4 181.7, 179.2 182.0 Q 179.8 181.6, 180.1 181.1 Q 180.3 180.7, 180.3 180.1 Q 180.3 179.5, 179.9 179.1 Q 179.4 178.7, 178.6 178.7 M 178.7 186.5 Q 179.6 186.5, 180.1 186.0 Q 180.7 185.5, 180.7 184.7 Q 180.7 184.2, 180.4 183.9 Q 180.1 183.6, 179.7 183.4 Q 179.2 183.2, 178.5 183.0 L 177.9 182.8 Q 177.2 183.2, 176.9 183.6 Q 176.6 184.1, 176.6 184.7 Q 176.6 185.5, 177.2 186.0 Q 177.7 186.5, 178.7 186.5 " fill="#000000"/>
<path class="legend" d="M 186.6 177.7 Q 188.3 177.7, 189.1 178.9 Q 190.0 180.0, 190.0 182.3 Q 190.0 184.9, 188.9 186.2 Q 187.9 187.5, 185.8 187.5 Q 185.2 187.5, 184.7 187.4 Q 184.2 187.2, 183.7 186.9 L 184.3 186.0 Q 185.0 186.4, 185.8 186.4 Q 187.2 186.4, 187.9 185.5 Q 188.6 184.7, 188.6 182.9 Q 188.1 183.3, 187.5 183.6 Q 186.9 183.8, 186.2 183.8 Q 185.4 183.8, 184.7 183.4 Q 184.1 183.1, 183.7 182.4 Q 183.3 181.7, 183.3 180.9 Q 183.3 179.9, 183.8 179.2 Q 184.2 178.5, 184.9 178.1 Q 185.6 177.7, 186.6 177.7 M 184.7 180.9 Q 184.7 181.7, 185.2 182.2 Q 185.7 182.7, 186.5 182.7 Q 187.1 182.7, 187.6 182.5 Q 188.2 182.2, 188.6 181.8 Q 188.6 180.2, 188.1 179.5 Q 187.6 178.8, 186.6 178.8 Q 186.0 178.8, 185.6 179.1 Q 185.2 179.3, 184.9 179.8 Q 184.7 180.3, 184.7 180.9 " fill="#000000"/>
<ellipse cx="265.3" cy="103.6" rx="7.4" ry="7.4" class="atom-1" style="fill:#E5E533;fill-rule:evenodd;stroke:#E5E533;stroke-width:1.0px;stroke-linecap:butt;stroke-linejoin:miter;stroke-opacity:1"/>
<ellipse cx="300.4" cy="92.6" rx="7.4" ry="7.4" class="atom-2" style="fill:#9999E5;fill-rule:evenodd;stroke:#9999E5;stroke-width:1.0px;stroke-linecap:butt;stroke-linejoin:miter;stroke-opacity:1"/>
<ellipse cx="327.5" cy="117.5" rx="7.4" ry="7.4" class="atom-3" style="fill:#E5E533;fill-rule:evenodd;stroke:#E5E533;stroke-width:1.0px;stroke-linecap:butt;stroke-linejoin:miter;stroke-opacity:1"/>
<ellipse cx="308.4" cy="56.7" rx="7.4" ry="7.4" class="atom-6" style="fill:#E5E533;fill-rule:evenodd;stroke:#E5E533;stroke-width:1.0px;stroke-linecap:butt;stroke-linejoin:miter;stroke-opacity:1"/>
<path class="bond-0 atom-0 atom-1" d="M 256.1,132.4 L 263.0,101.5" style="fill:none;fill-rule:evenodd;stroke:#E5E5E5;stroke-width:2.0px;stroke-linecap:butt;stroke-linejoin:miter;stroke-opacity:1"/>
<path class="bond-0 atom-0 atom-1" d="M 261.5,133.6 L 268.4,102.7" style="fill:none;fill-rule:evenodd;stroke:#E5E5E5;stroke-width:2.0px;stroke-linecap:butt;stroke-linejoin:miter;stroke-opacity:1;stroke-dasharray:6,4"/>
<path class="bond-1 atom-1 atom-2" d="M 265.3,103.6 L 300.4,92.6" style="fill:none;fill-rule:evenodd;stroke:#000000;stroke-width:2.0px;stroke-linecap:butt;stroke-linejoin:miter;stroke-opacity:1"/>
<path class="bond-2 atom-2 atom-3" d="M 300.4,92.6 L 327.5,117.5" style="fill:none;fill-rule:evenodd;stroke:#000000;stroke-width:2.0px;stroke-linecap:butt;stroke-linejoin:miter;stroke-opacity:1"/>
<path class="bond-2 atom-2 atom-3" d="M 306.5,90.7 L 328.9,111.2" style="fill:none;fill-rule:evenodd;stroke:#000000;stroke-width:2.0px;stroke-linecap:butt;stroke-linejoin:miter;stroke-opacity:1;stroke-dasharray:6,4"/>
<path class="bond-3 atom-3 atom-4" d="M 327.5,117.5 L 360.4,107.1" style="fill:none;fill-rule:evenodd;stroke:#E5E5E5;stroke-width:2.0px;stroke-linecap:butt;stroke-linejoin:miter;stroke-opacity:1"/>
<path class="bond-3 atom-3 atom-4" d="M 328.9,111.2 L 358.8,101.8" style="fill:none;fill-rule:evenodd;stroke:#E5E5E5;stroke-width:2.0px;stroke-linecap:butt;stroke-linejoin:miter;stroke-opacity:1;stroke-dasharray:6,4"/>
<path class="bond-4 atom-5 atom-6" d="M 341.3,46.3 L 308.4,56.7" style="fill:none;fill-rule:evenodd;stroke:#E5E5E5;stroke-width:2.0px;stroke-linecap:butt;stroke-linejoin:miter;stroke-opacity:1"/>
<path class="bond-4 atom-5 atom-6" d="M 343.0,51.6 L 313.1,61.0" style="fill:none;fill-rule:evenodd;stroke:#E5E5E5;stroke-width:2.0px;stroke-linecap:butt;stroke-linejoin:miter;stroke-opacity:1;stroke-dasharray:6,4"/>
<path class="bond-5 atom-1 atom-7" d="M 268.4,102.7 L 240.8,77.4" style="fill:none;fill-rule:evenodd;stroke:#E5E5E5;stroke-width:2.0px;stroke-linecap:butt;stroke-linejoin:miter;stroke-opacity:1"/>
<path class="bond-5 atom-1 atom-7" d="M 264.6,106.8 L 237.1,81.5" style="fill:none;fill-rule:evenodd;stroke:#E5E5E5;stroke-width:2.0px;stroke-linecap:butt;stroke-linejoin:miter;stroke-opacity:1;stroke-dasharray:6,4"/>
<path class="bond-6 atom-6 atom-2" d="M 308.4,56.7 L 300.4,92.6" style="fill:none;fill-rule:evenodd;stroke:#000000;stroke-width:2.0px;stroke-linecap:butt;stroke-linejoin:miter;stroke-opacity:1"/>
<path class="bond-6 atom-6 atom-2" d="M 313.1,61.0 L 306.5,90.7" style="fill:none;fill-rule:evenodd;stroke:#000000;stroke-width:2.0px;stroke-linecap:butt;stroke-linejoin:miter;stroke-opacity:1;stroke-dasharray:6,4"/>
<path d="M 326.8,116.8 L 327.5,117.5 L 328.3,117.2" style="fill:none;stroke:#000000;stroke-width:2.0px;stroke-linecap:butt;stroke-linejoin:miter;stroke-miterlimit:10;stroke-opacity:1;"/>
<path d="M 309.2,56.4 L 308.4,56.7 L 308.2,57.6" style="fill:none;stroke:#E5E5E5;stroke-width:2.0px;stroke-linecap:butt;stroke-linejoin:miter;stroke-miterlimit:10;stroke-opacity:1;"/>
<path class="atom-0" d="M 255.4 138.4 L 256.9 136.8 L 254.9 136.4 L 255.2 135.4 L 257.1 136.3 L 256.8 134.3 L 257.9 134.3 L 257.6 136.3 L 259.5 135.4 L 259.8 136.4 L 257.8 136.8 L 259.2 138.4 L 258.3 139.0 L 257.3 137.1 L 256.3 139.0 L 255.4 138.4 " fill="#191919"/>
<path class="atom-4" d="M 359.8 102.6 L 361.3 101.1 L 359.3 100.6 L 359.6 99.6 L 361.5 100.5 L 361.2 98.5 L 362.3 98.5 L 362.0 100.5 L 363.9 99.6 L 364.2 100.6 L 362.2 101.0 L 363.7 102.6 L 362.8 103.2 L 361.7 101.3 L 360.7 103.2 L 359.8 102.6 " fill="#191919"/>
<path class="atom-5" d="M 342.3 47.1 L 343.9 45.6 L 341.8 45.1 L 342.1 44.1 L 344.0 45.0 L 343.7 43.0 L 344.8 43.0 L 344.5 45.0 L 346.4 44.1 L 346.8 45.1 L 344.7 45.5 L 346.2 47.1 L 345.3 47.7 L 344.3 45.8 L 343.2 47.7 L 342.3 47.1 " fill="#191919"/>
<path class="atom-7" d="M 236.3 77.6 L 237.8 76.1 L 235.8 75.7 L 236.1 74.6 L 237.9 75.6 L 237.7 73.5 L 238.8 73.5 L 238.5 75.5 L 240.4 74.7 L 240.7 75.7 L 238.6 76.0 L 240.1 77.6 L 239.2 78.3 L 238.2 76.3 L 237.2 78.3 L 236.3 77.6 " fill="#191919"/>
<path class="legend" d="M 210.0 176.8 L 216.2 176.8 L 216.2 178.0 L 211.4 178.0 L 211.4 181.2 L 215.6 181.2 L 215.6 182.4 L 211.4 182.4 L 211.4 187.2 L 210.0 187.2 L 210.0 176.8 " fill="#000000"/>
<path class="legend" d="M 217.0 183.4 Q 217.0 181.6, 217.9 180.6 Q 218.8 179.5, 220.5 179.5 Q 222.2 179.5, 222.9 180.5 Q 223.6 181.5, 223.6 183.4 L 223.6 183.6 L 218.4 183.6 Q 218.4 184.9, 219.0 185.5 Q 219.6 186.2, 220.6 186.2 Q 221.2 186.2, 221.7 186.1 Q 222.3 185.9, 222.9 185.6 L 223.3 186.6 Q 222.6 187.0, 221.9 187.1 Q 221.2 187.3, 220.5 187.3 Q 218.9 187.3, 217.9 186.3 Q 217.0 185.3, 217.0 183.4 M 220.5 180.6 Q 219.6 180.6, 219.1 181.1 Q 218.6 181.6, 218.4 182.6 L 222.2 182.6 Q 222.1 181.6, 221.7 181.1 Q 221.3 180.6, 220.5 180.6 " fill="#000000"/>
<path class="legend" d="M 224.7 185.1 Q 224.7 184.0, 225.7 183.3 Q 226.6 182.6, 228.4 182.6 L 229.5 182.6 L 229.5 182.3 Q 229.5 181.4, 229.1 181.0 Q 228.7 180.6, 227.8 180.6 Q 227.2 180.6, 226.7 180.7 Q 226.3 180.8, 225.5 181.2 L 225.1 180.2 Q 226.5 179.5, 227.8 179.5 Q 229.4 179.5, 230.1 180.2 Q 230.9 180.9, 230.9 182.4 L 230.9 187.2 L 229.8 187.2 Q 229.8 187.1, 229.7 186.9 Q 229.7 186.7, 229.6 186.3 Q 228.6 187.4, 227.2 187.4 Q 226.0 187.4, 225.4 186.8 Q 224.7 186.2, 224.7 185.1 M 226.1 185.1 Q 226.1 185.7, 226.4 186.0 Q 226.8 186.3, 227.4 186.3 Q 228.0 186.3, 228.6 186.0 Q 229.1 185.7, 229.5 185.3 L 229.5 183.7 L 228.5 183.7 Q 227.3 183.7, 226.7 184.0 Q 226.1 184.4, 226.1 185.1 " fill="#000000"/>
<path class="legend" d="M 232.5 180.7 L 232.5 179.7 L 233.9 179.7 L 234.2 177.5 L 235.2 177.5 L 235.2 179.7 L 237.5 179.7 L 237.5 180.7 L 235.2 180.7 L 235.2 184.9 Q 235.2 186.2, 236.3 186.2 Q 236.7 186.2, 237.4 186.0 L 237.6 186.9 Q 236.8 187.3, 236.0 187.3 Q 235.1 187.3, 234.4 186.7 Q 233.8 186.1, 233.8 184.9 L 233.8 180.7 L 232.5 180.7 " fill="#000000"/>
<path class="legend" d="M 244.9 179.7 L 244.9 187.2 L 243.7 187.2 L 243.6 186.1 Q 242.6 187.3, 241.0 187.3 Q 239.8 187.3, 239.1 186.6 Q 238.5 186.0, 238.5 184.6 L 238.5 179.7 L 239.9 179.7 L 239.9 184.5 Q 239.9 185.4, 240.2 185.8 Q 240.5 186.2, 241.3 186.2 Q 242.0 186.2, 242.6 185.9 Q 243.1 185.6, 243.5 185.0 L 243.5 179.7 L 244.9 179.7 " fill="#000000"/>
<path class="legend" d="M 247.7 179.7 L 247.8 180.7 Q 248.6 179.5, 249.9 179.5 Q 250.3 179.5, 250.9 179.7 L 250.7 180.9 Q 250.0 180.8, 249.7 180.8 Q 249.1 180.8, 248.7 181.0 Q 248.3 181.2, 247.9 181.8 L 247.9 187.2 L 246.6 187.2 L 246.6 179.7 L 247.7 179.7 " fill="#000000"/>
<path class="legend" d="M 251.6 183.4 Q 251.6 181.6, 252.5 180.6 Q 253.5 179.5, 255.1 179.5 Q 256.8 179.5, 257.5 180.5 Q 258.3 181.5, 258.3 183.4 L 258.3 183.6 L 253.0 183.6 Q 253.0 184.9, 253.6 185.5 Q 254.2 186.2, 255.2 186.2 Q 255.8 186.2, 256.4 186.1 Q 256.9 185.9, 257.6 185.6 L 258.0 186.6 Q 257.2 187.0, 256.5 187.1 Q 255.9 187.3, 255.2 187.3 Q 253.5 187.3, 252.5 186.3 Q 251.6 185.3, 251.6 183.4 M 255.1 180.6 Q 254.3 180.6, 253.7 181.1 Q 253.2 181.6, 253.1 182.6 L 256.8 182.6 Q 256.7 181.6, 256.3 181.1 Q 255.9 180.6, 255.1 180.6 " fill="#000000"/>
<path class="legend" d="" fill="#000000"/>
<path class="legend" d="M 265.3 186.0 L 267.5 186.0 L 267.5 178.3 L 265.0 179.1 L 264.7 178.2 L 267.9 176.8 L 268.9 177.0 L 268.9 186.0 L 270.9 186.0 L 270.9 187.2 L 265.3 187.2 L 265.3 186.0 " fill="#000000"/>
<path class="legend" d="M 272.6 186.0 L 274.9 186.0 L 274.9 178.3 L 272.4 179.1 L 272.1 178.2 L 275.2 176.8 L 276.3 177.0 L 276.3 186.0 L 278.3 186.0 L 278.3 187.2 L 272.6 187.2 L 272.6 186.0 " fill="#000000"/>
<path class="legend" d="M 283.5 180.7 Q 284.4 180.7, 285.1 181.1 Q 285.8 181.5, 286.2 182.2 Q 286.6 182.9, 286.6 183.8 Q 286.6 184.9, 286.1 185.6 Q 285.7 186.4, 284.9 186.9 Q 284.1 187.3, 283.1 187.3 Q 281.3 187.3, 280.3 186.1 Q 279.4 184.8, 279.4 182.3 Q 279.4 179.6, 280.6 178.1 Q 281.7 176.7, 283.9 176.7 Q 284.6 176.7, 285.1 176.9 Q 285.7 177.0, 286.2 177.3 L 285.6 178.3 Q 284.9 177.9, 283.9 177.9 Q 282.5 177.9, 281.7 178.8 Q 281.0 179.8, 280.9 181.7 Q 281.4 181.2, 282.1 181.0 Q 282.8 180.7, 283.5 180.7 M 283.1 186.1 Q 283.7 186.1, 284.1 185.8 Q 284.6 185.5, 284.9 185.0 Q 285.1 184.5, 285.1 183.9 Q 285.1 182.9, 284.6 182.4 Q 284.1 181.9, 283.2 181.9 Q 282.6 181.9, 282.0 182.2 Q 281.3 182.4, 280.9 182.8 Q 281.0 184.5, 281.5 185.3 Q 282.0 186.1, 283.1 186.1 " fill="#000000"/>
<path class="legend" d="M 291.7 187.3 Q 289.8 187.3, 288.8 185.9 Q 287.9 184.5, 287.9 182.0 Q 287.9 179.5, 288.8 178.1 Q 289.8 176.7, 291.7 176.7 Q 293.6 176.7, 294.5 178.1 Q 295.5 179.5, 295.5 182.0 Q 295.5 184.5, 294.5 185.9 Q 293.6 187.3, 291.7 187.3 M 291.7 186.1 Q 292.8 186.1, 293.4 185.1 Q 294.0 184.0, 294.0 182.0 Q 294.0 180.0, 293.4 178.9 Q 292.8 177.9, 291.7 177.9 Q 290.6 177.9, 290.0 178.9 Q 289.4 180.0, 289.4 182.0 Q 289.4 184.0, 290.0 185.1 Q 290.6 186.1, 291.7 186.1 " fill="#000000"/>
<path class="legend" d="" fill="#000000"/>
<path class="legend" d="M 302.3 175.9 L 303.5 175.9 L 303.5 190.0 L 302.3 190.0 L 302.3 175.9 " fill="#000000"/>
<path class="legend" d="" fill="#000000"/>
<path class="legend" d="M 311.1 185.6 Q 311.2 185.6, 311.7 185.8 Q 312.1 186.0, 312.7 186.2 Q 313.2 186.3, 313.7 186.3 Q 314.7 186.3, 315.3 185.8 Q 315.9 185.3, 315.9 184.5 Q 315.9 183.9, 315.6 183.6 Q 315.3 183.2, 314.8 183.0 Q 314.4 182.8, 313.7 182.6 Q 312.8 182.3, 312.2 182.1 Q 311.7 181.8, 311.3 181.3 Q 310.9 180.7, 310.9 179.8 Q 310.9 178.5, 311.8 177.7 Q 312.7 176.9, 314.4 176.9 Q 315.6 176.9, 317.0 177.4 L 316.6 178.6 Q 315.4 178.0, 314.5 178.0 Q 313.4 178.0, 312.9 178.5 Q 312.3 178.9, 312.4 179.6 Q 312.4 180.2, 312.6 180.5 Q 312.9 180.8, 313.3 181.0 Q 313.8 181.2, 314.5 181.4 Q 315.4 181.7, 315.9 182.0 Q 316.5 182.3, 316.9 182.9 Q 317.3 183.5, 317.3 184.5 Q 317.3 185.9, 316.3 186.7 Q 315.4 187.5, 313.8 187.5 Q 312.9 187.5, 312.2 187.3 Q 311.5 187.1, 310.7 186.7 L 311.1 185.6 " fill="#000000"/>
<path class="legend" d="M 318.5 176.8 L 319.9 176.8 L 319.9 181.2 L 325.2 181.2 L 325.2 176.8 L 326.6 176.8 L 326.6 187.2 L 325.2 187.2 L 325.2 182.4 L 319.9 182.4 L 319.9 187.2 L 318.5 187.2 L 318.5 176.8 " fill="#000000"/>
<path class="legend" d="M 336.0 187.2 L 334.9 184.1 L 330.8 184.1 L 329.7 187.2 L 328.3 187.2 L 331.9 176.8 L 333.6 176.8 L 337.3 187.2 L 336.0 187.2 M 331.2 183.0 L 334.5 183.0 L 332.8 178.3 L 331.2 183.0 " fill="#000000"/>
<path class="legend" d="M 341.1 176.8 Q 342.8 176.8, 343.7 177.6 Q 344.6 178.4, 344.6 179.9 Q 344.6 181.3, 343.7 182.1 Q 342.8 182.9, 341.1 182.9 L 339.4 182.9 L 339.4 187.2 L 338.0 187.2 L 338.0 176.8 L 341.1 176.8 M 341.1 181.8 Q 342.1 181.8, 342.6 181.3 Q 343.2 180.8, 343.2 179.9 Q 343.2 179.0, 342.6 178.5 Q 342.1 178.0, 341.1 178.0 L 339.4 178.0 L 339.4 181.8 L 341.1 181.8 " fill="#000000"/>
<path class="legend" d="M 345.8 185.5 L 347.3 185.5 L 347.3 186.9 L 345.8 186.9 L 345.8 185.5 M 345.8 180.4 L 347.3 180.4 L 347.3 181.9 L 345.8 181.9 L 345.8 180.4 " fill="#000000"/>
<path class="legend" d="" fill="#000000"/>
<path class="legend" d="M 359.2 181.7 Q 360.2 182.0, 360.7 182.7 Q 361.2 183.3, 361.2 184.3 Q 361.2 185.2, 360.8 185.9 Q 360.3 186.6, 359.5 187.0 Q 358.7 187.3, 357.7 187.3 Q 356.6 187.3, 355.7 186.9 Q 354.9 186.6, 354.3 185.8 L 355.1 184.9 Q 355.7 185.6, 356.3 185.9 Q 356.8 186.2, 357.7 186.2 Q 358.6 186.2, 359.2 185.7 Q 359.8 185.1, 359.8 184.3 Q 359.8 183.3, 359.2 182.8 Q 358.6 182.3, 357.3 182.3 L 356.6 182.3 L 356.6 181.3 L 357.2 181.3 Q 358.3 181.3, 358.9 180.8 Q 359.5 180.3, 359.5 179.4 Q 359.5 178.7, 359.0 178.3 Q 358.5 177.9, 357.7 177.9 Q 356.8 177.9, 356.3 178.2 Q 355.8 178.5, 355.4 179.3 L 354.3 178.7 Q 354.7 177.9, 355.6 177.3 Q 356.5 176.7, 357.7 176.7 Q 359.2 176.7, 360.1 177.4 Q 361.0 178.1, 361.0 179.4 Q 361.0 180.2, 360.5 180.8 Q 360.1 181.4, 359.2 181.7 " fill="#000000"/>
<path class="legend" d="M 369.3 183.6 L 370.5 183.6 L 370.5 184.8 L 369.3 184.8 L 369.3 187.2 L 367.9 187.2 L 367.9 184.8 L 362.6 184.8 L 362.6 183.9 L 367.1 176.8 L 369.3 176.8 L 369.3 183.6 M 364.3 183.6 L 367.9 183.6 L 367.9 177.8 L 364.3 183.6 " fill="#000000"/>
<path class="legend" d="M 371.8 185.7 L 373.2 185.7 L 373.2 187.2 L 371.8 187.2 L 371.8 185.7 " fill="#000000"/>
<path class="legend" d="M 374.7 178.8 Q 375.1 177.8, 376.0 177.3 Q 376.9 176.7, 378.2 176.7 Q 379.7 176.7, 380.6 177.6 Q 381.5 178.4, 381.5 179.9 Q 381.5 181.5, 380.3 182.9 Q 379.2 184.3, 376.9 186.0 L 381.7 186.0 L 381.7 187.2 L 374.7 187.2 L 374.7 186.2 Q 376.6 184.8, 377.8 183.8 Q 378.9 182.8, 379.5 181.9 Q 380.0 180.9, 380.0 180.0 Q 380.0 179.0, 379.5 178.4 Q 379.0 177.9, 378.2 177.9 Q 377.3 177.9, 376.8 178.2 Q 376.2 178.6, 375.8 179.3 L 374.7 178.8 " fill="#000000"/>
<path class="legend" d="M 388.0 181.7 Q 389.0 182.0, 389.5 182.7 Q 390.0 183.3, 390.0 184.3 Q 390.0 185.2, 389.6 185.9 Q 389.1 186.6, 388.3 187.0 Q 387.5 187.3, 386.5 187.3 Q 385.4 187.3, 384.5 186.9 Q 383.7 186.6, 383.0 185.8 L 383.9 184.9 Q 384.5 185.6, 385.1 185.9 Q 385.6 186.2, 386.5 186.2 Q 387.4 186.2, 388.0 185.7 Q 388.5 185.1, 388.5 184.3 Q 388.5 183.3, 387.9 182.8 Q 387.4 182.3, 386.1 182.3 L 385.3 182.3 L 385.3 181.3 L 386.0 181.3 Q 387.1 181.3, 387.7 180.8 Q 388.3 180.3, 388.3 179.4 Q 388.3 178.7, 387.8 178.3 Q 387.3 177.9, 386.5 177.9 Q 385.6 177.9, 385.1 178.2 Q 384.5 178.5, 384.1 179.3 L 383.1 178.7 Q 383.5 177.9, 384.4 177.3 Q 385.3 176.7, 386.5 176.7 Q 388.0 176.7, 388.9 177.4 Q 389.8 178.1, 389.8 179.4 Q 389.8 180.2, 389.3 180.8 Q 388.9 181.4, 388.0 181.7 " fill="#000000"/>
<ellipse cx="510.4" cy="60.1" rx="7.4" ry="7.4" class="atom-1" style="fill:#E5E533;fill-rule:evenodd;stroke:#E5E533;stroke-width:1.0px;stroke-linecap:butt;stroke-linejoin:miter;stroke-opacity:1"/>
<ellipse cx="475.3" cy="71.1" rx="7.4" ry="7.4" class="atom-2" style="fill:#9999E5;fill-rule:evenodd;stroke:#9999E5;stroke-width:1.0px;stroke-linecap:butt;stroke-linejoin:miter;stroke-opacity:1"/>
<ellipse cx="467.4" cy="107.0" rx="7.4" ry="7.4" class="atom-3" style="fill:#E5E533;fill-rule:evenodd;stroke:#E5E533;stroke-width:1.0px;stroke-linecap:butt;stroke-linejoin:miter;stroke-opacity:1"/>
<path class="bond-0 atom-0 atom-1" d="M 532.0,83.6 L 513.7,66.8" style="fill:none;fill-rule:evenodd;stroke:#E5E5E5;stroke-width:2.0px;stroke-linecap:butt;stroke-linejoin:miter;stroke-opacity:1"/>
<path class="bond-0 atom-0 atom-1" d="M 535.7,79.5 L 517.4,62.8" style="fill:none;fill-rule:evenodd;stroke:#E5E5E5;stroke-width:2.0px;stroke-linecap:butt;stroke-linejoin:miter;stroke-opacity:1;stroke-dasharray:6,4"/>
<path class="bond-1 atom-1 atom-2" d="M 505.3,61.7 L 475.3,71.1" style="fill:none;fill-rule:evenodd;stroke:#000000;stroke-width:2.0px;stroke-linecap:butt;stroke-linejoin:miter;stroke-opacity:1"/>
<path class="bond-1 atom-1 atom-2" d="M 506.9,66.9 L 480.0,75.4" style="fill:none;fill-rule:evenodd;stroke:#000000;stroke-width:2.0px;stroke-linecap:butt;stroke-linejoin:miter;stroke-opacity:1;stroke-dasharray:6,4"/>
<path class="bond-2 atom-2 atom-3" d="M 475.3,71.1 L 467.4,107.0" style="fill:none;fill-rule:evenodd;stroke:#000000;stroke-width:2.0px;stroke-linecap:butt;stroke-linejoin:miter;stroke-opacity:1"/>
<path class="bond-2 atom-2 atom-3" d="M 480.0,75.4 L 473.4,105.1" style="fill:none;fill-rule:evenodd;stroke:#000000;stroke-width:2.0px;stroke-linecap:butt;stroke-linejoin:miter;stroke-opacity:1;stroke-dasharray:6,4"/>
<path class="bond-3 atom-3 atom-4" d="M 467.4,107.0 L 490.8,128.5" style="fill:none;fill-rule:evenodd;stroke:#E5E5E5;stroke-width:2.0px;stroke-linecap:butt;stroke-linejoin:miter;stroke-opacity:1"/>
<path class="bond-3 atom-3 atom-4" d="M 473.4,105.1 L 494.5,124.4" style="fill:none;fill-rule:evenodd;stroke:#E5E5E5;stroke-width:2.0px;stroke-linecap:butt;stroke-linejoin:miter;stroke-opacity:1;stroke-dasharray:6,4"/>
<path d="M 476.8,70.6 L 475.3,71.1 L 474.9,72.9" style="fill:none;stroke:#000000;stroke-width:2.0px;stroke-linecap:butt;stroke-linejoin:miter;stroke-miterlimit:10;stroke-opacity:1;"/>
<path d="M 467.6,106.1 L 467.4,107.0 L 467.9,107.5" style="fill:none;stroke:#000000;stroke-width:2.0px;stroke-linecap:butt;stroke-linejoin:miter;stroke-miterlimit:10;stroke-opacity:1;"/>
<path class="atom-0" d="M 535.6 83.7 L 537.1 82.2 L 535.1 81.8 L 535.4 80.7 L 537.2 81.7 L 537.0 79.6 L 538.1 79.6 L 537.8 81.7 L 539.7 80.8 L 540.0 81.8 L 537.9 82.2 L 539.4 83.7 L 538.5 84.4 L 537.5 82.4 L 536.5 84.4 L 535.6 83.7 " fill="#191919"/>
<path class="atom-1" d="M 508.1 54.8 L 511.5 60.4 Q 511.9 60.9, 512.4 61.9 Q 513.0 62.9, 513.0 62.9 L 513.0 54.8 L 514.4 54.8 L 514.4 65.3 L 512.9 65.3 L 509.3 59.2 Q 508.9 58.5, 508.4 57.7 Q 508.0 56.9, 507.8 56.7 L 507.8 65.3 L 506.5 65.3 L 506.5 54.8 L 508.1 54.8 " fill="#000000"/>
<path class="atom-4" d="M 494.4 128.7 L 495.9 127.1 L 493.9 126.7 L 494.2 125.7 L 496.1 126.6 L 495.8 124.6 L 496.9 124.5 L 496.6 126.6 L 498.5 125.7 L 498.8 126.7 L 496.7 127.1 L 498.2 128.7 L 497.3 129.3 L 496.3 127.4 L 495.3 129.3 L 494.4 128.7 " fill="#191919"/>
<path class="legend" d="M 410.0 177.4 L 415.9 177.4 L 415.9 178.5 L 411.3 178.5 L 411.3 181.5 L 415.4 181.5 L 415.4 182.7 L 411.3 182.7 L 411.3 187.3 L 410.0 187.3 L 410.0 177.4 " fill="#000000"/>
<path class="legend" d="M 416.7 183.7 Q 416.7 181.9, 417.6 180.9 Q 418.5 180.0, 420.1 180.0 Q 421.7 180.0, 422.4 180.9 Q 423.1 181.9, 423.1 183.6 L 423.1 183.9 L 418.0 183.9 Q 418.1 185.1, 418.6 185.7 Q 419.2 186.4, 420.2 186.4 Q 420.7 186.4, 421.3 186.2 Q 421.8 186.1, 422.4 185.8 L 422.8 186.7 Q 422.1 187.1, 421.4 187.3 Q 420.8 187.4, 420.1 187.4 Q 418.5 187.4, 417.6 186.4 Q 416.7 185.4, 416.7 183.7 M 420.1 181.0 Q 419.2 181.0, 418.7 181.5 Q 418.3 182.0, 418.1 182.9 L 421.7 182.9 Q 421.6 181.9, 421.2 181.5 Q 420.8 181.0, 420.1 181.0 " fill="#000000"/>
<path class="legend" d="M 424.1 185.3 Q 424.1 184.2, 425.0 183.6 Q 425.9 182.9, 427.6 182.9 L 428.7 182.9 L 428.7 182.7 Q 428.7 181.8, 428.3 181.4 Q 428.0 181.0, 427.1 181.0 Q 426.5 181.0, 426.0 181.1 Q 425.6 181.2, 424.9 181.5 L 424.5 180.6 Q 425.8 180.0, 427.1 180.0 Q 428.6 180.0, 429.3 180.6 Q 430.0 181.3, 430.0 182.7 L 430.0 187.3 L 429.0 187.3 Q 429.0 187.2, 428.9 187.0 Q 428.9 186.8, 428.8 186.5 Q 427.8 187.5, 426.5 187.5 Q 425.4 187.5, 424.7 186.9 Q 424.1 186.3, 424.1 185.3 M 425.4 185.3 Q 425.4 185.9, 425.8 186.1 Q 426.1 186.4, 426.7 186.4 Q 427.3 186.4, 427.8 186.2 Q 428.3 185.9, 428.7 185.5 L 428.7 183.9 L 427.7 183.9 Q 426.6 183.9, 426.0 184.3 Q 425.4 184.6, 425.4 185.3 " fill="#000000"/>
<path class="legend" d="M 431.6 181.1 L 431.6 180.1 L 433.0 180.1 L 433.2 178.0 L 434.2 178.0 L 434.2 180.1 L 436.4 180.1 L 436.4 181.1 L 434.2 181.1 L 434.2 185.1 Q 434.2 186.3, 435.2 186.3 Q 435.6 186.3, 436.3 186.1 L 436.5 187.1 Q 435.7 187.4, 435.0 187.4 Q 434.0 187.4, 433.4 186.8 Q 432.9 186.3, 432.9 185.2 L 432.9 181.1 L 431.6 181.1 " fill="#000000"/>
<path class="legend" d="M 443.4 180.1 L 443.4 187.3 L 442.4 187.3 L 442.2 186.3 Q 441.3 187.4, 439.8 187.4 Q 438.6 187.4, 437.9 186.8 Q 437.3 186.1, 437.3 184.9 L 437.3 180.1 L 438.6 180.1 L 438.6 184.8 Q 438.6 185.6, 439.0 186.0 Q 439.3 186.4, 440.0 186.4 Q 440.7 186.4, 441.2 186.1 Q 441.8 185.8, 442.1 185.2 L 442.1 180.1 L 443.4 180.1 " fill="#000000"/>
<path class="legend" d="M 446.2 180.1 L 446.3 181.1 Q 447.1 180.0, 448.3 180.0 Q 448.7 180.0, 449.2 180.1 L 449.0 181.3 Q 448.4 181.1, 448.1 181.1 Q 447.5 181.1, 447.1 181.4 Q 446.7 181.6, 446.4 182.2 L 446.4 187.3 L 445.1 187.3 L 445.1 180.1 L 446.2 180.1 " fill="#000000"/>
<path class="legend" d="M 449.9 183.7 Q 449.9 181.9, 450.8 180.9 Q 451.7 180.0, 453.3 180.0 Q 454.9 180.0, 455.6 180.9 Q 456.3 181.9, 456.3 183.6 L 456.3 183.9 L 451.3 183.9 Q 451.3 185.1, 451.8 185.7 Q 452.4 186.4, 453.4 186.4 Q 454.0 186.4, 454.5 186.2 Q 455.0 186.1, 455.6 185.8 L 456.0 186.7 Q 455.3 187.1, 454.7 187.3 Q 454.0 187.4, 453.3 187.4 Q 451.7 187.4, 450.8 186.4 Q 449.9 185.4, 449.9 183.7 M 453.3 181.0 Q 452.5 181.0, 452.0 181.5 Q 451.5 182.0, 451.3 182.9 L 454.9 182.9 Q 454.8 181.9, 454.4 181.5 Q 454.0 181.0, 453.3 181.0 " fill="#000000"/>
<path class="legend" d="" fill="#000000"/>
<path class="legend" d="M 463.0 186.2 L 465.2 186.2 L 465.2 178.8 L 462.8 179.5 L 462.5 178.7 L 465.5 177.3 L 466.5 177.5 L 466.5 186.2 L 468.5 186.2 L 468.5 187.3 L 463.0 187.3 L 463.0 186.2 " fill="#000000"/>
<path class="legend" d="M 474.6 182.0 Q 475.5 182.4, 476.0 183.0 Q 476.6 183.6, 476.6 184.6 Q 476.6 185.4, 476.1 186.1 Q 475.7 186.7, 474.9 187.1 Q 474.1 187.4, 473.1 187.4 Q 471.5 187.4, 470.5 186.7 Q 469.5 185.9, 469.5 184.6 Q 469.5 183.8, 470.0 183.2 Q 470.4 182.5, 471.3 182.1 Q 470.6 181.7, 470.3 181.2 Q 469.9 180.6, 469.9 179.8 Q 469.9 178.6, 470.8 177.9 Q 471.6 177.3, 473.0 177.3 Q 474.5 177.3, 475.3 177.9 Q 476.2 178.6, 476.2 179.8 Q 476.2 180.5, 475.8 181.1 Q 475.4 181.6, 474.6 182.0 M 473.0 178.3 Q 472.2 178.3, 471.8 178.7 Q 471.3 179.1, 471.3 179.8 Q 471.3 180.3, 471.6 180.7 Q 471.9 181.0, 472.4 181.2 Q 472.8 181.4, 473.7 181.7 Q 474.3 181.3, 474.5 180.8 Q 474.8 180.4, 474.8 179.8 Q 474.8 179.1, 474.3 178.7 Q 473.9 178.3, 473.0 178.3 M 473.1 186.4 Q 474.0 186.4, 474.6 185.9 Q 475.2 185.4, 475.2 184.6 Q 475.2 184.0, 474.9 183.7 Q 474.6 183.4, 474.1 183.2 Q 473.7 183.0, 472.9 182.7 L 472.3 182.5 Q 471.6 182.9, 471.3 183.4 Q 470.9 183.9, 470.9 184.6 Q 470.9 185.4, 471.5 185.9 Q 472.1 186.4, 473.1 186.4 " fill="#000000"/>
<path class="legend" d="M 481.8 181.1 Q 482.7 181.1, 483.4 181.5 Q 484.0 181.9, 484.4 182.5 Q 484.8 183.2, 484.8 184.1 Q 484.8 185.1, 484.4 185.8 Q 484.0 186.6, 483.2 187.0 Q 482.4 187.4, 481.5 187.4 Q 479.7 187.4, 478.8 186.2 Q 477.9 185.0, 477.9 182.6 Q 477.9 180.0, 479.0 178.6 Q 480.1 177.3, 482.2 177.3 Q 482.9 177.3, 483.4 177.4 Q 483.9 177.5, 484.4 177.8 L 483.9 178.8 Q 483.1 178.4, 482.3 178.4 Q 480.9 178.4, 480.1 179.3 Q 479.4 180.2, 479.3 182.1 Q 479.8 181.6, 480.5 181.4 Q 481.1 181.1, 481.8 181.1 M 481.5 186.3 Q 482.0 186.3, 482.5 186.0 Q 482.9 185.7, 483.2 185.2 Q 483.4 184.7, 483.4 184.1 Q 483.4 183.2, 482.9 182.7 Q 482.4 182.2, 481.6 182.2 Q 481.0 182.2, 480.3 182.5 Q 479.8 182.7, 479.3 183.1 Q 479.4 184.8, 479.9 185.5 Q 480.4 186.3, 481.5 186.3 " fill="#000000"/>
<path class="legend" d="M 489.9 181.1 Q 490.8 181.1, 491.5 181.5 Q 492.2 181.9, 492.6 182.5 Q 492.9 183.2, 492.9 184.1 Q 492.9 185.1, 492.5 185.8 Q 492.1 186.6, 491.3 187.0 Q 490.6 187.4, 489.6 187.4 Q 487.8 187.4, 486.9 186.2 Q 486.1 185.0, 486.1 182.6 Q 486.1 180.0, 487.2 178.6 Q 488.3 177.3, 490.4 177.3 Q 491.0 177.3, 491.5 177.4 Q 492.0 177.5, 492.6 177.8 L 492.0 178.8 Q 491.3 178.4, 490.4 178.4 Q 489.0 178.4, 488.3 179.3 Q 487.6 180.2, 487.5 182.1 Q 488.0 181.6, 488.6 181.4 Q 489.3 181.1, 489.9 181.1 M 489.6 186.3 Q 490.2 186.3, 490.6 186.0 Q 491.0 185.7, 491.3 185.2 Q 491.5 184.7, 491.5 184.1 Q 491.5 183.2, 491.1 182.7 Q 490.6 182.2, 489.7 182.2 Q 489.1 182.2, 488.5 182.5 Q 487.9 182.7, 487.5 183.1 Q 487.5 184.8, 488.1 185.5 Q 488.6 186.3, 489.6 186.3 " fill="#000000"/>
<path class="legend" d="" fill="#000000"/>
<path class="legend" d="M 499.4 176.5 L 500.5 176.5 L 500.5 190.0 L 499.4 190.0 L 499.4 176.5 " fill="#000000"/>
<path class="legend" d="" fill="#000000"/>
<path class="legend" d="M 507.8 185.8 Q 507.9 185.8, 508.3 186.0 Q 508.8 186.2, 509.3 186.3 Q 509.8 186.4, 510.3 186.4 Q 511.3 186.4, 511.8 186.0 Q 512.4 185.5, 512.4 184.7 Q 512.4 184.2, 512.1 183.8 Q 511.8 183.5, 511.4 183.3 Q 511.0 183.1, 510.3 182.9 Q 509.4 182.7, 508.9 182.4 Q 508.3 182.2, 508.0 181.6 Q 507.6 181.1, 507.6 180.2 Q 507.6 178.9, 508.4 178.2 Q 509.3 177.4, 511.0 177.4 Q 512.1 177.4, 513.4 177.9 L 513.1 179.0 Q 511.9 178.5, 511.0 178.5 Q 510.1 178.5, 509.5 178.9 Q 509.0 179.3, 509.0 180.0 Q 509.0 180.6, 509.3 180.9 Q 509.5 181.2, 509.9 181.4 Q 510.3 181.6, 511.0 181.8 Q 511.9 182.1, 512.4 182.3 Q 513.0 182.6, 513.4 183.2 Q 513.8 183.8, 513.8 184.7 Q 513.8 186.1, 512.8 186.8 Q 511.9 187.6, 510.4 187.6 Q 509.5 187.6, 508.8 187.4 Q 508.2 187.2, 507.4 186.9 L 507.8 185.8 " fill="#000000"/>
<path class="legend" d="M 514.9 177.4 L 516.2 177.4 L 516.2 181.6 L 521.3 181.6 L 521.3 177.4 L 522.7 177.4 L 522.7 187.3 L 521.3 187.3 L 521.3 182.7 L 516.2 182.7 L 516.2 187.3 L 514.9 187.3 L 514.9 177.4 " fill="#000000"/>
<path class="legend" d="M 531.7 187.3 L 530.6 184.4 L 526.7 184.4 L 525.7 187.3 L 524.3 187.3 L 527.8 177.4 L 529.4 177.4 L 533.0 187.3 L 531.7 187.3 M 527.1 183.3 L 530.2 183.3 L 528.6 178.8 L 527.1 183.3 " fill="#000000"/>
<path class="legend" d="M 536.6 177.4 Q 538.2 177.4, 539.1 178.1 Q 540.0 178.9, 540.0 180.3 Q 540.0 181.7, 539.1 182.4 Q 538.2 183.2, 536.6 183.2 L 535.0 183.2 L 535.0 187.3 L 533.6 187.3 L 533.6 177.4 L 536.6 177.4 M 536.6 182.1 Q 537.5 182.1, 538.0 181.6 Q 538.6 181.2, 538.6 180.3 Q 538.6 179.4, 538.0 179.0 Q 537.5 178.5, 536.6 178.5 L 535.0 178.5 L 535.0 182.1 L 536.6 182.1 " fill="#000000"/>
<path class="legend" d="M 541.1 185.7 L 542.5 185.7 L 542.5 187.1 L 541.1 187.1 L 541.1 185.7 M 541.1 180.8 L 542.5 180.8 L 542.5 182.2 L 541.1 182.2 L 541.1 180.8 " fill="#000000"/>
<path class="legend" d="" fill="#000000"/>
<path class="legend" d="M 549.2 182.3 L 554.4 182.3 L 554.4 183.4 L 549.2 183.4 L 549.2 182.3 " fill="#000000"/>
<path class="legend" d="M 555.6 179.3 Q 555.9 178.3, 556.8 177.8 Q 557.7 177.3, 558.9 177.3 Q 560.4 177.3, 561.2 178.1 Q 562.1 178.9, 562.1 180.3 Q 562.1 181.8, 561.0 183.2 Q 559.9 184.5, 557.6 186.2 L 562.2 186.2 L 562.2 187.3 L 555.5 187.3 L 555.5 186.4 Q 557.4 185.0, 558.5 184.1 Q 559.6 183.1, 560.1 182.2 Q 560.7 181.3, 560.7 180.4 Q 560.7 179.4, 560.2 178.9 Q 559.7 178.4, 558.9 178.4 Q 558.1 178.4, 557.5 178.7 Q 557.0 179.0, 556.6 179.7 L 555.6 179.3 " fill="#000000"/>
<path class="legend" d="M 567.4 181.1 Q 568.3 181.1, 569.0 181.5 Q 569.7 181.9, 570.1 182.5 Q 570.4 183.2, 570.4 184.1 Q 570.4 185.1, 570.0 185.8 Q 569.6 186.6, 568.8 187.0 Q 568.1 187.4, 567.1 187.4 Q 565.3 187.4, 564.4 186.2 Q 563.6 185.0, 563.6 182.6 Q 563.6 180.0, 564.7 178.6 Q 565.8 177.3, 567.9 177.3 Q 568.5 177.3, 569.0 177.4 Q 569.5 177.5, 570.0 177.8 L 569.5 178.8 Q 568.8 178.4, 567.9 178.4 Q 566.5 178.4, 565.8 179.3 Q 565.1 180.2, 565.0 182.1 Q 565.5 181.6, 566.1 181.4 Q 566.8 181.1, 567.4 181.1 M 567.1 186.3 Q 567.6 186.3, 568.1 186.0 Q 568.5 185.7, 568.8 185.2 Q 569.0 184.7, 569.0 184.1 Q 569.0 183.2, 568.5 182.7 Q 568.1 182.2, 567.2 182.2 Q 566.6 182.2, 566.0 182.5 Q 565.4 182.7, 565.0 183.1 Q 565.0 184.8, 565.5 185.5 Q 566.1 186.3, 567.1 186.3 " fill="#000000"/>
<path class="legend" d="M 571.7 185.9 L 573.1 185.9 L 573.1 187.3 L 571.7 187.3 L 571.7 185.9 " fill="#000000"/>
<path class="legend" d="M 580.9 183.9 L 582.1 183.9 L 582.1 185.0 L 580.9 185.0 L 580.9 187.3 L 579.6 187.3 L 579.6 185.0 L 574.5 185.0 L 574.5 184.1 L 578.8 177.4 L 580.9 177.4 L 580.9 183.9 M 576.1 183.9 L 579.6 183.9 L 579.6 178.3 L 576.1 183.9 " fill="#000000"/>
<path class="legend" d="M 583.3 179.3 Q 583.7 178.3, 584.6 177.8 Q 585.4 177.3, 586.7 177.3 Q 588.2 177.3, 589.0 178.1 Q 589.8 178.9, 589.8 180.3 Q 589.8 181.8, 588.7 183.2 Q 587.7 184.5, 585.4 186.2 L 590.0 186.2 L 590.0 187.3 L 583.3 187.3 L 583.3 186.4 Q 585.2 185.0, 586.3 184.1 Q 587.4 183.1, 587.9 182.2 Q 588.4 181.3, 588.4 180.4 Q 588.4 179.4, 588.0 178.9 Q 587.5 178.4, 586.7 178.4 Q 585.9 178.4, 585.3 178.7 Q 584.8 179.0, 584.4 179.7 L 583.3 179.3 " fill="#000000"/>
<ellipse cx="80.0" cy="302.0" rx="7.4" ry="7.4" class="atom-1" style="fill:#E5E533;fill-rule:evenodd;stroke:#E5E533;stroke-width:1.0px;stroke-linecap:butt;stroke-linejoin:miter;stroke-opacity:1"/>
<ellipse cx="107.1" cy="326.9" rx="7.4" ry="7.4" class="atom-2" style="fill:#E5E533;fill-rule:evenodd;stroke:#E5E533;stroke-width:1.0px;stroke-linecap:butt;stroke-linejoin:miter;stroke-opacity:1"/>
<ellipse cx="142.2" cy="315.9" rx="7.4" ry="7.4" class="atom-3" style="fill:#9999E5;fill-rule:evenodd;stroke:#9999E5;stroke-width:1.0px;stroke-linecap:butt;stroke-linejoin:miter;stroke-opacity:1"/>
<ellipse cx="150.2" cy="280.0" rx="7.4" ry="7.4" class="atom-4" style="fill:#E5E533;fill-rule:evenodd;stroke:#E5E533;stroke-width:1.0px;stroke-linecap:butt;stroke-linejoin:miter;stroke-opacity:1"/>
<ellipse cx="123.1" cy="255.1" rx="7.4" ry="7.4" class="atom-5" style="fill:#E5E533;fill-rule:evenodd;stroke:#E5E533;stroke-width:1.0px;stroke-linecap:butt;stroke-linejoin:miter;stroke-opacity:1"/>
<path class="bond-0 atom-0 atom-1" d="M 48.6,311.9 L 80.0,302.0" style="fill:none;fill-rule:evenodd;stroke:#E5E5E5;stroke-width:2.0px;stroke-linecap:butt;stroke-linejoin:miter;stroke-opacity:1"/>
<path class="bond-1 atom-1 atom-2" d="M 80.0,302.0 L 107.1,326.9" style="fill:none;fill-rule:evenodd;stroke:#000000;stroke-width:2.0px;stroke-linecap:butt;stroke-linejoin:miter;stroke-opacity:1"/>
<path class="bond-1 atom-1 atom-2" d="M 86.1,300.1 L 108.5,320.7" style="fill:none;fill-rule:evenodd;stroke:#000000;stroke-width:2.0px;stroke-linecap:butt;stroke-linejoin:miter;stroke-opacity:1"/>
<path class="bond-2 atom-2 atom-3" d="M 107.1,326.9 L 142.2,315.9" style="fill:none;fill-rule:evenodd;stroke:#000000;stroke-width:2.0px;stroke-linecap:butt;stroke-linejoin:miter;stroke-opacity:1"/>
<path class="bond-3 atom-3 atom-4" d="M 142.2,315.9 L 150.2,280.0" style="fill:none;fill-rule:evenodd;stroke:#000000;stroke-width:2.0px;stroke-linecap:butt;stroke-linejoin:miter;stroke-opacity:1"/>
<path class="bond-3 atom-3 atom-4" d="M 137.5,311.6 L 144.1,281.9" style="fill:none;fill-rule:evenodd;stroke:#000000;stroke-width:2.0px;stroke-linecap:butt;stroke-linejoin:miter;stroke-opacity:1"/>
<path class="bond-4 atom-4 atom-5" d="M 150.2,280.0 L 123.1,255.1" style="fill:none;fill-rule:evenodd;stroke:#000000;stroke-width:2.0px;stroke-linecap:butt;stroke-linejoin:miter;stroke-opacity:1"/>
<path class="bond-5 atom-5 atom-6" d="M 123.1,255.1 L 91.7,265.0" style="fill:none;fill-rule:evenodd;stroke:#E5E5E5;stroke-width:2.0px;stroke-linecap:butt;stroke-linejoin:miter;stroke-opacity:1"/>
<path class="bond-5 atom-5 atom-6" d="M 121.7,261.3 L 93.3,270.2" style="fill:none;fill-rule:evenodd;stroke:#E5E5E5;stroke-width:2.0px;stroke-linecap:butt;stroke-linejoin:miter;stroke-opacity:1"/>
<path class="bond-6 atom-6 atom-1" d="M 87.8,266.8 L 80.0,302.0" style="fill:none;fill-rule:evenodd;stroke:#E5E5E5;stroke-width:2.0px;stroke-linecap:butt;stroke-linejoin:miter;stroke-opacity:1"/>
<path d="M 105.8,325.7 L 107.1,326.9 L 108.9,326.4" style="fill:none;stroke:#000000;stroke-width:2.0px;stroke-linecap:butt;stroke-linejoin:miter;stroke-miterlimit:10;stroke-opacity:1;"/>
<path d="M 140.4,316.4 L 142.2,315.9 L 142.6,314.1" style="fill:none;stroke:#000000;stroke-width:2.0px;stroke-linecap:butt;stroke-linejoin:miter;stroke-miterlimit:10;stroke-opacity:1;"/>
<path d="M 149.8,281.7 L 150.2,280.0 L 148.8,278.7" style="fill:none;stroke:#000000;stroke-width:2.0px;stroke-linecap:butt;stroke-linejoin:miter;stroke-miterlimit:10;stroke-opacity:1;"/>
<path d="M 123.7,255.7 L 123.1,255.1 L 122.3,255.3" style="fill:none;stroke:#000000;stroke-width:2.0px;stroke-linecap:butt;stroke-linejoin:miter;stroke-miterlimit:10;stroke-opacity:1;"/>
<path class="atom-0" d="M 43.0 311.9 L 44.5 310.4 L 42.5 310.0 L 42.8 308.9 L 44.6 309.9 L 44.4 307.8 L 45.5 307.8 L 45.2 309.8 L 47.1 309.0 L 47.4 310.0 L 45.3 310.3 L 46.8 311.9 L 45.9 312.6 L 44.9 310.6 L 43.9 312.6 L 43.0 311.9 " fill="#191919"/>
<path class="atom-6" d="M 86.0 265.0 L 87.6 263.4 L 85.5 263.0 L 85.8 262.0 L 87.7 262.9 L 87.4 260.9 L 88.5 260.8 L 88.2 262.9 L 90.1 262.0 L 90.5 263.0 L 88.4 263.4 L 89.9 265.0 L 89.0 265.6 L 87.9 263.7 L 86.9 265.6 L 86.0 265.0 " fill="#191919"/>
<path class="legend" d="M 10.0 376.9 L 16.1 376.9 L 16.1 378.1 L 11.4 378.1 L 11.4 381.2 L 15.6 381.2 L 15.6 382.4 L 11.4 382.4 L 11.4 387.2 L 10.0 387.2 L 10.0 376.9 " fill="#000000"/>
<path class="legend" d="M 17.0 383.4 Q 17.0 381.6, 17.9 380.6 Q 18.8 379.6, 20.5 379.6 Q 22.1 379.6, 22.8 380.6 Q 23.6 381.5, 23.6 383.4 L 23.6 383.6 L 18.4 383.6 Q 18.4 384.9, 19.0 385.6 Q 19.5 386.2, 20.6 386.2 Q 21.2 386.2, 21.7 386.1 Q 22.2 386.0, 22.9 385.7 L 23.3 386.6 Q 22.6 387.0, 21.9 387.1 Q 21.2 387.3, 20.5 387.3 Q 18.8 387.3, 17.9 386.3 Q 17.0 385.3, 17.0 383.4 M 20.5 380.6 Q 19.6 380.6, 19.1 381.1 Q 18.6 381.6, 18.4 382.6 L 22.1 382.6 Q 22.0 381.6, 21.6 381.1 Q 21.2 380.6, 20.5 380.6 " fill="#000000"/>
<path class="legend" d="M 24.6 385.2 Q 24.6 384.0, 25.6 383.3 Q 26.6 382.7, 28.3 382.7 L 29.4 382.7 L 29.4 382.4 Q 29.4 381.4, 29.0 381.0 Q 28.7 380.6, 27.7 380.6 Q 27.1 380.6, 26.7 380.8 Q 26.2 380.9, 25.5 381.2 L 25.1 380.2 Q 26.4 379.6, 27.8 379.6 Q 29.4 379.6, 30.1 380.3 Q 30.8 380.9, 30.8 382.4 L 30.8 387.2 L 29.7 387.2 Q 29.7 387.1, 29.7 386.9 Q 29.6 386.7, 29.6 386.3 Q 28.5 387.4, 27.1 387.4 Q 26.0 387.4, 25.3 386.8 Q 24.6 386.2, 24.6 385.2 M 26.0 385.1 Q 26.0 385.7, 26.4 386.0 Q 26.7 386.3, 27.4 386.3 Q 28.0 386.3, 28.5 386.0 Q 29.1 385.7, 29.4 385.3 L 29.4 383.7 L 28.4 383.7 Q 27.2 383.7, 26.6 384.0 Q 26.0 384.4, 26.0 385.1 " fill="#000000"/>
<path class="legend" d="M 32.4 380.8 L 32.4 379.7 L 33.9 379.7 L 34.1 377.5 L 35.1 377.5 L 35.1 379.7 L 37.4 379.7 L 37.4 380.8 L 35.1 380.8 L 35.1 384.9 Q 35.1 386.2, 36.2 386.2 Q 36.6 386.2, 37.3 386.0 L 37.5 386.9 Q 36.7 387.3, 36.0 387.3 Q 35.0 387.3, 34.4 386.7 Q 33.7 386.1, 33.7 385.0 L 33.7 380.8 L 32.4 380.8 " fill="#000000"/>
<path class="legend" d="M 44.8 379.7 L 44.8 387.2 L 43.6 387.2 L 43.5 386.2 Q 42.5 387.3, 40.9 387.3 Q 39.7 387.3, 39.0 386.7 Q 38.4 386.0, 38.4 384.7 L 38.4 379.7 L 39.8 379.7 L 39.8 384.6 Q 39.8 385.4, 40.1 385.8 Q 40.4 386.2, 41.2 386.2 Q 41.9 386.2, 42.5 385.9 Q 43.0 385.6, 43.4 385.1 L 43.4 379.7 L 44.8 379.7 " fill="#000000"/>
<path class="legend" d="M 47.6 379.7 L 47.7 380.7 Q 48.5 379.6, 49.8 379.6 Q 50.2 379.6, 50.8 379.7 L 50.5 380.9 Q 49.9 380.8, 49.6 380.8 Q 48.9 380.8, 48.5 381.0 Q 48.1 381.3, 47.8 381.8 L 47.8 387.2 L 46.5 387.2 L 46.5 379.7 L 47.6 379.7 " fill="#000000"/>
<path class="legend" d="M 51.5 383.4 Q 51.5 381.6, 52.4 380.6 Q 53.3 379.6, 55.0 379.6 Q 56.6 379.6, 57.4 380.6 Q 58.1 381.5, 58.1 383.4 L 58.1 383.6 L 52.9 383.6 Q 52.9 384.9, 53.5 385.6 Q 54.0 386.2, 55.1 386.2 Q 55.7 386.2, 56.2 386.1 Q 56.8 386.0, 57.4 385.7 L 57.8 386.6 Q 57.1 387.0, 56.4 387.1 Q 55.7 387.3, 55.0 387.3 Q 53.3 387.3, 52.4 386.3 Q 51.5 385.3, 51.5 383.4 M 55.0 380.6 Q 54.1 380.6, 53.6 381.1 Q 53.1 381.6, 52.9 382.6 L 56.7 382.6 Q 56.6 381.6, 56.2 381.1 Q 55.7 380.6, 55.0 380.6 " fill="#000000"/>
<path class="legend" d="" fill="#000000"/>
<path class="legend" d="M 65.1 386.0 L 67.4 386.0 L 67.4 378.3 L 64.9 379.1 L 64.5 378.2 L 67.7 376.8 L 68.7 377.0 L 68.7 386.0 L 70.7 386.0 L 70.7 387.2 L 65.1 387.2 L 65.1 386.0 " fill="#000000"/>
<path class="legend" d="M 72.4 386.0 L 74.7 386.0 L 74.7 378.3 L 72.2 379.1 L 71.9 378.2 L 75.0 376.8 L 76.1 377.0 L 76.1 386.0 L 78.1 386.0 L 78.1 387.2 L 72.4 387.2 L 72.4 386.0 " fill="#000000"/>
<path class="legend" d="M 82.7 376.8 Q 84.5 376.8, 85.4 378.0 Q 86.4 379.3, 86.4 381.7 Q 86.4 384.5, 85.2 385.9 Q 84.1 387.3, 81.9 387.3 Q 81.2 387.3, 80.7 387.2 Q 80.1 387.0, 79.6 386.7 L 80.2 385.7 Q 80.9 386.1, 81.9 386.1 Q 83.3 386.1, 84.1 385.2 Q 84.8 384.3, 84.9 382.3 Q 84.4 382.8, 83.7 383.1 Q 83.0 383.3, 82.3 383.3 Q 81.4 383.3, 80.7 382.9 Q 80.0 382.5, 79.6 381.8 Q 79.2 381.1, 79.2 380.2 Q 79.2 379.2, 79.6 378.4 Q 80.1 377.6, 80.9 377.2 Q 81.7 376.8, 82.7 376.8 M 80.7 380.2 Q 80.7 381.1, 81.2 381.6 Q 81.7 382.1, 82.6 382.1 Q 83.2 382.1, 83.8 381.9 Q 84.4 381.6, 84.9 381.2 Q 84.8 379.5, 84.3 378.7 Q 83.7 378.0, 82.7 378.0 Q 82.1 378.0, 81.6 378.2 Q 81.2 378.5, 80.9 379.0 Q 80.7 379.6, 80.7 380.2 " fill="#000000"/>
<path class="legend" d="M 91.3 376.8 Q 93.2 376.8, 94.1 378.0 Q 95.0 379.3, 95.0 381.7 Q 95.0 384.5, 93.9 385.9 Q 92.7 387.3, 90.5 387.3 Q 89.9 387.3, 89.3 387.2 Q 88.8 387.0, 88.3 386.7 L 88.8 385.7 Q 89.6 386.1, 90.5 386.1 Q 92.0 386.1, 92.7 385.2 Q 93.4 384.3, 93.5 382.3 Q 93.0 382.8, 92.3 383.1 Q 91.7 383.3, 91.0 383.3 Q 90.1 383.3, 89.4 382.9 Q 88.6 382.5, 88.2 381.8 Q 87.9 381.1, 87.9 380.2 Q 87.9 379.2, 88.3 378.4 Q 88.7 377.6, 89.5 377.2 Q 90.3 376.8, 91.3 376.8 M 89.3 380.2 Q 89.3 381.1, 89.8 381.6 Q 90.3 382.1, 91.2 382.1 Q 91.9 382.1, 92.5 381.9 Q 93.1 381.6, 93.5 381.2 Q 93.5 379.5, 92.9 378.7 Q 92.4 378.0, 91.3 378.0 Q 90.8 378.0, 90.3 378.2 Q 89.8 378.5, 89.6 379.0 Q 89.3 379.6, 89.3 380.2 " fill="#000000"/>
<path class="legend" d="" fill="#000000"/>
<path class="legend" d="M 101.9 375.9 L 103.1 375.9 L 103.1 390.0 L 101.9 390.0 L 101.9 375.9 " fill="#000000"/>
<path class="legend" d="" fill="#000000"/>
<path class="legend" d="M 110.6 385.6 Q 110.7 385.6, 111.2 385.8 Q 111.7 386.0, 112.2 386.2 Q 112.7 386.3, 113.3 386.3 Q 114.2 386.3, 114.8 385.8 Q 115.4 385.3, 115.4 384.5 Q 115.4 383.9, 115.1 383.6 Q 114.8 383.2, 114.4 383.1 Q 113.9 382.9, 113.2 382.6 Q 112.3 382.4, 111.7 382.1 Q 111.2 381.8, 110.8 381.3 Q 110.4 380.7, 110.4 379.8 Q 110.4 378.5, 111.3 377.7 Q 112.2 376.9, 113.9 376.9 Q 115.1 376.9, 116.5 377.5 L 116.1 378.6 Q 114.9 378.1, 114.0 378.1 Q 113.0 378.1, 112.4 378.5 Q 111.9 378.9, 111.9 379.6 Q 111.9 380.2, 112.1 380.5 Q 112.4 380.9, 112.8 381.0 Q 113.3 381.2, 114.0 381.5 Q 114.9 381.7, 115.5 382.0 Q 116.0 382.3, 116.4 382.9 Q 116.8 383.5, 116.8 384.5 Q 116.8 385.9, 115.8 386.7 Q 114.9 387.5, 113.3 387.5 Q 112.4 387.5, 111.7 387.3 Q 111.0 387.1, 110.2 386.7 L 110.6 385.6 " fill="#000000"/>
<path class="legend" d="M 118.0 376.9 L 119.4 376.9 L 119.4 381.3 L 124.7 381.3 L 124.7 376.9 L 126.1 376.9 L 126.1 387.2 L 124.7 387.2 L 124.7 382.4 L 119.4 382.4 L 119.4 387.2 L 118.0 387.2 L 118.0 376.9 " fill="#000000"/>
<path class="legend" d="M 135.4 387.2 L 134.3 384.2 L 130.2 384.2 L 129.2 387.2 L 127.8 387.2 L 131.4 376.9 L 133.1 376.9 L 136.8 387.2 L 135.4 387.2 M 130.7 383.0 L 133.9 383.0 L 132.3 378.3 L 130.7 383.0 " fill="#000000"/>
<path class="legend" d="M 140.5 376.9 Q 142.3 376.9, 143.1 377.7 Q 144.0 378.5, 144.0 379.9 Q 144.0 381.3, 143.1 382.1 Q 142.2 383.0, 140.5 383.0 L 138.8 383.0 L 138.8 387.2 L 137.5 387.2 L 137.5 376.9 L 140.5 376.9 M 140.5 381.8 Q 141.5 381.8, 142.0 381.3 Q 142.6 380.8, 142.6 379.9 Q 142.6 379.0, 142.0 378.5 Q 141.5 378.0, 140.5 378.0 L 138.8 378.0 L 138.8 381.8 L 140.5 381.8 " fill="#000000"/>
<path class="legend" d="M 145.2 385.5 L 146.7 385.5 L 146.7 386.9 L 145.2 386.9 L 145.2 385.5 M 145.2 380.5 L 146.7 380.5 L 146.7 381.9 L 145.2 381.9 L 145.2 380.5 " fill="#000000"/>
<path class="legend" d="" fill="#000000"/>
<path class="legend" d="M 153.7 378.8 Q 154.1 377.9, 155.0 377.3 Q 155.9 376.8, 157.1 376.8 Q 158.7 376.8, 159.5 377.6 Q 160.4 378.4, 160.4 380.0 Q 160.4 381.5, 159.3 382.9 Q 158.2 384.3, 155.8 386.0 L 160.6 386.0 L 160.6 387.2 L 153.6 387.2 L 153.6 386.2 Q 155.6 384.8, 156.7 383.8 Q 157.9 382.8, 158.4 381.9 Q 159.0 381.0, 159.0 380.0 Q 159.0 379.0, 158.5 378.5 Q 158.0 377.9, 157.1 377.9 Q 156.3 377.9, 155.7 378.3 Q 155.2 378.6, 154.8 379.3 L 153.7 378.8 " fill="#000000"/>
<path class="legend" d="M 165.7 380.7 Q 166.6 380.7, 167.4 381.1 Q 168.1 381.5, 168.5 382.2 Q 168.9 383.0, 168.9 383.9 Q 168.9 385.0, 168.4 385.8 Q 167.9 386.5, 167.1 386.9 Q 166.2 387.3, 165.3 387.3 Q 164.3 387.3, 163.4 387.0 Q 162.6 386.6, 162.0 385.9 L 162.8 385.0 Q 163.3 385.6, 164.0 385.8 Q 164.6 386.1, 165.3 386.1 Q 166.2 386.1, 166.9 385.6 Q 167.5 385.0, 167.5 384.0 Q 167.5 382.9, 166.9 382.4 Q 166.2 381.8, 165.2 381.8 Q 164.3 381.8, 163.3 382.2 L 162.5 381.8 L 163.0 376.9 L 168.3 376.9 L 168.2 378.0 L 164.2 378.0 L 163.9 381.1 Q 164.8 380.7, 165.7 380.7 " fill="#000000"/>
<path class="legend" d="M 170.2 385.7 L 171.6 385.7 L 171.6 387.2 L 170.2 387.2 L 170.2 385.7 " fill="#000000"/>
<path class="legend" d="M 176.8 387.3 Q 174.9 387.3, 174.0 385.9 Q 173.1 384.5, 173.1 382.0 Q 173.1 379.5, 174.0 378.1 Q 174.9 376.8, 176.8 376.8 Q 178.7 376.8, 179.7 378.1 Q 180.6 379.5, 180.6 382.0 Q 180.6 384.5, 179.7 385.9 Q 178.7 387.3, 176.8 387.3 M 176.8 386.1 Q 178.0 386.1, 178.6 385.1 Q 179.2 384.1, 179.2 382.0 Q 179.2 380.0, 178.6 379.0 Q 178.0 377.9, 176.8 377.9 Q 175.7 377.9, 175.1 379.0 Q 174.5 380.0, 174.5 382.0 Q 174.5 384.1, 175.1 385.1 Q 175.7 386.1, 176.8 386.1 " fill="#000000"/>
<path class="legend" d="M 188.8 383.6 L 190.0 383.6 L 190.0 384.8 L 188.8 384.8 L 188.8 387.2 L 187.4 387.2 L 187.4 384.8 L 182.1 384.8 L 182.1 383.9 L 186.6 376.9 L 188.8 376.9 L 188.8 383.6 M 183.8 383.6 L 187.4 383.6 L 187.4 377.8 L 183.8 383.6 " fill="#000000"/>
<ellipse cx="255.2" cy="312.1" rx="7.4" ry="7.4" class="atom-1" style="fill:#E5E533;fill-rule:evenodd;stroke:#E5E533;stroke-width:1.0px;stroke-linecap:butt;stroke-linejoin:miter;stroke-opacity:1"/>
<ellipse cx="282.3" cy="336.9" rx="7.4" ry="7.4" class="atom-2" style="fill:#E5E533;fill-rule:evenodd;stroke:#E5E533;stroke-width:1.0px;stroke-linecap:butt;stroke-linejoin:miter;stroke-opacity:1"/>
<ellipse cx="317.4" cy="325.9" rx="7.4" ry="7.4" class="atom-3" style="fill:#9999E5;fill-rule:evenodd;stroke:#9999E5;stroke-width:1.0px;stroke-linecap:butt;stroke-linejoin:miter;stroke-opacity:1"/>
<ellipse cx="325.3" cy="290.0" rx="7.4" ry="7.4" class="atom-4" style="fill:#E5E533;fill-rule:evenodd;stroke:#E5E533;stroke-width:1.0px;stroke-linecap:butt;stroke-linejoin:miter;stroke-opacity:1"/>
<ellipse cx="360.4" cy="278.9" rx="7.4" ry="7.4" class="atom-5" style="fill:#E5E533;fill-rule:evenodd;stroke:#E5E533;stroke-width:1.0px;stroke-linecap:butt;stroke-linejoin:miter;stroke-opacity:1"/>
<ellipse cx="298.2" cy="265.1" rx="7.4" ry="7.4" class="atom-7" style="fill:#E5E533;fill-rule:evenodd;stroke:#E5E533;stroke-width:1.0px;stroke-linecap:butt;stroke-linejoin:miter;stroke-opacity:1"/>
<path class="bond-0 atom-0 atom-1" d="M 226.6,321.1 L 255.9,308.8 L 255.2,312.1 Z" style="fill:#E5E5E5;fill-rule:evenodd;fill-opacity:1;stroke:#E5E5E5;stroke-width:0.5px;stroke-linecap:butt;stroke-linejoin:miter;stroke-miterlimit:10;stroke-opacity:1;"/>
<path class="bond-0 atom-0 atom-1" d="M 226.6,321.1 L 255.2,312.1 L 257.7,314.3 Z" style="fill:#E5E5E5;fill-rule:evenodd;fill-opacity:1;stroke:#E5E5E5;stroke-width:0.5px;stroke-linecap:butt;stroke-linejoin:miter;stroke-miterlimit:10;stroke-opacity:1;"/>
<path class="bond-1 atom-1 atom-2" d="M 255.2,312.1 L 282.3,336.9" style="fill:none;fill-rule:evenodd;stroke:#000000;stroke-width:2.0px;stroke-linecap:butt;stroke-linejoin:miter;stroke-opacity:1"/>
<path class="bond-1 atom-1 atom-2" d="M 261.3,310.2 L 283.7,330.7" style="fill:none;fill-rule:evenodd;stroke:#000000;stroke-width:2.0px;stroke-linecap:butt;stroke-linejoin:miter;stroke-opacity:1"/>
<path class="bond-2 atom-2 atom-3" d="M 282.3,336.9 L 312.2,327.5" style="fill:none;fill-rule:evenodd;stroke:#000000;stroke-width:2.0px;stroke-linecap:butt;stroke-linejoin:miter;stroke-opacity:1"/>
<path class="bond-3 atom-3 atom-4" d="M 318.8,319.5 L 325.3,290.0" style="fill:none;fill-rule:evenodd;stroke:#000000;stroke-width:2.0px;stroke-linecap:butt;stroke-linejoin:miter;stroke-opacity:1"/>
<path class="bond-3 atom-3 atom-4" d="M 313.4,318.3 L 319.3,291.9" style="fill:none;fill-rule:evenodd;stroke:#000000;stroke-width:2.0px;stroke-linecap:butt;stroke-linejoin:miter;stroke-opacity:1"/>
<path class="bond-4 atom-4 atom-5" d="M 325.3,290.0 L 360.4,278.9" style="fill:none;fill-rule:evenodd;stroke:#000000;stroke-width:2.0px;stroke-linecap:butt;stroke-linejoin:miter;stroke-opacity:1"/>
<path class="bond-5 atom-5 atom-6" d="M 357.4,279.9 L 382.0,302.4" style="fill:none;fill-rule:evenodd;stroke:#E5E5E5;stroke-width:2.0px;stroke-linecap:butt;stroke-linejoin:miter;stroke-opacity:1"/>
<path class="bond-5 atom-5 atom-6" d="M 361.1,275.8 L 385.7,298.4" style="fill:none;fill-rule:evenodd;stroke:#E5E5E5;stroke-width:2.0px;stroke-linecap:butt;stroke-linejoin:miter;stroke-opacity:1;stroke-dasharray:6,4"/>
<path class="bond-6 atom-4 atom-7" d="M 325.3,290.0 L 303.4,269.8" style="fill:none;fill-rule:evenodd;stroke:#000000;stroke-width:2.0px;stroke-linecap:butt;stroke-linejoin:miter;stroke-opacity:1"/>
<path class="bond-7 atom-7 atom-8" d="M 293.1,266.7 L 266.8,275.0" style="fill:none;fill-rule:evenodd;stroke:#E5E5E5;stroke-width:2.0px;stroke-linecap:butt;stroke-linejoin:miter;stroke-opacity:1"/>
<path class="bond-7 atom-7 atom-8" d="M 294.7,272.0 L 268.5,280.3" style="fill:none;fill-rule:evenodd;stroke:#E5E5E5;stroke-width:2.0px;stroke-linecap:butt;stroke-linejoin:miter;stroke-opacity:1"/>
<path class="bond-8 atom-8 atom-1" d="M 263.0,276.8 L 255.2,312.1" style="fill:none;fill-rule:evenodd;stroke:#E5E5E5;stroke-width:2.0px;stroke-linecap:butt;stroke-linejoin:miter;stroke-opacity:1"/>
<path class="bond-9 atom-9 atom-5" d="M 370.9,244.3 L 362.8,281.1" style="fill:none;fill-rule:evenodd;stroke:#E5E5E5;stroke-width:2.0px;stroke-linecap:butt;stroke-linejoin:miter;stroke-opacity:1"/>
<path class="bond-9 atom-9 atom-5" d="M 365.6,243.1 L 357.4,279.9" style="fill:none;fill-rule:evenodd;stroke:#E5E5E5;stroke-width:2.0px;stroke-linecap:butt;stroke-linejoin:miter;stroke-opacity:1;stroke-dasharray:6,4"/>
<path d="M 255.9,312.7 L 255.2,312.1 L 255.4,311.2" style="fill:none;stroke:#000000;stroke-width:2.0px;stroke-linecap:butt;stroke-linejoin:miter;stroke-miterlimit:10;stroke-opacity:1;"/>
<path d="M 280.9,335.7 L 282.3,336.9 L 283.8,336.5" style="fill:none;stroke:#000000;stroke-width:2.0px;stroke-linecap:butt;stroke-linejoin:miter;stroke-miterlimit:10;stroke-opacity:1;"/>
<path class="atom-0" d="M 210.5 322.0 L 212.0 320.4 L 210.0 320.0 L 210.3 318.9 L 212.2 319.9 L 211.9 317.8 L 213.0 317.8 L 212.7 319.9 L 214.6 319.0 L 214.9 320.0 L 212.9 320.4 L 214.3 321.9 L 213.4 322.6 L 212.4 320.6 L 211.4 322.6 L 210.5 322.0 " fill="#191919"/>
<path class="atom-0" d="M 216.0 318.0 L 217.4 318.0 L 217.4 322.4 L 222.8 322.4 L 222.8 318.0 L 224.2 318.0 L 224.2 328.4 L 222.8 328.4 L 222.8 323.6 L 217.4 323.6 L 217.4 328.4 L 216.0 328.4 L 216.0 318.0 " fill="#191919"/>
<path class="atom-3" d="M 315.1 320.7 L 318.5 326.2 Q 318.8 326.7, 319.4 327.7 Q 319.9 328.7, 319.9 328.8 L 319.9 320.7 L 321.3 320.7 L 321.3 331.1 L 319.9 331.1 L 316.2 325.1 Q 315.8 324.3, 315.3 323.5 Q 314.9 322.7, 314.8 322.5 L 314.8 331.1 L 313.4 331.1 L 313.4 320.7 L 315.1 320.7 " fill="#000000"/>
<path class="atom-6" d="M 385.6 302.6 L 387.1 301.1 L 385.1 300.6 L 385.4 299.6 L 387.2 300.5 L 387.0 298.5 L 388.1 298.5 L 387.8 300.5 L 389.7 299.6 L 390.0 300.6 L 387.9 301.0 L 389.4 302.6 L 388.5 303.3 L 387.5 301.3 L 386.5 303.3 L 385.6 302.6 " fill="#191919"/>
<path class="atom-7" d="M 295.9 259.9 L 299.3 265.4 Q 299.7 266.0, 300.2 267.0 Q 300.8 267.9, 300.8 268.0 L 300.8 259.9 L 302.2 259.9 L 302.2 270.3 L 300.8 270.3 L 297.1 264.3 Q 296.7 263.6, 296.2 262.8 Q 295.8 262.0, 295.6 261.7 L 295.6 270.3 L 294.3 270.3 L 294.3 259.9 L 295.9 259.9 " fill="#000000"/>
<path class="atom-8" d="M 261.2 275.0 L 262.7 273.4 L 260.7 273.0 L 261.0 272.0 L 262.9 272.9 L 262.6 270.9 L 263.7 270.9 L 263.4 272.9 L 265.3 272.0 L 265.6 273.0 L 263.6 273.4 L 265.0 275.0 L 264.1 275.6 L 263.1 273.7 L 262.1 275.6 L 261.2 275.0 " fill="#191919"/>
<path class="atom-9" d="M 366.4 241.9 L 368.0 240.3 L 365.9 239.9 L 366.2 238.8 L 368.1 239.8 L 367.8 237.7 L 369.0 237.7 L 368.6 239.8 L 370.5 238.9 L 370.9 239.9 L 368.8 240.3 L 370.3 241.8 L 369.4 242.5 L 368.4 240.5 L 367.3 242.5 L 366.4 241.9 " fill="#191919"/>
<path class="legend" d="M 210.0 376.6 L 216.2 376.6 L 216.2 377.8 L 211.4 377.8 L 211.4 381.0 L 215.7 381.0 L 215.7 382.2 L 211.4 382.2 L 211.4 387.1 L 210.0 387.1 L 210.0 376.6 " fill="#000000"/>
<path class="legend" d="M 217.1 383.3 Q 217.1 381.4, 218.0 380.4 Q 219.0 379.4, 220.7 379.4 Q 222.3 379.4, 223.1 380.4 Q 223.8 381.4, 223.8 383.3 L 223.8 383.5 L 218.5 383.5 Q 218.5 384.8, 219.1 385.5 Q 219.7 386.2, 220.8 386.2 Q 221.4 386.2, 221.9 386.0 Q 222.5 385.9, 223.1 385.6 L 223.5 386.5 Q 222.8 386.9, 222.1 387.1 Q 221.4 387.3, 220.7 387.3 Q 219.0 387.3, 218.0 386.2 Q 217.1 385.2, 217.1 383.3 M 220.7 380.5 Q 219.8 380.5, 219.3 381.0 Q 218.7 381.5, 218.6 382.5 L 222.4 382.5 Q 222.3 381.4, 221.8 381.0 Q 221.4 380.5, 220.7 380.5 " fill="#000000"/>
<path class="legend" d="M 224.9 385.1 Q 224.9 383.9, 225.9 383.2 Q 226.9 382.5, 228.7 382.5 L 229.8 382.5 L 229.8 382.2 Q 229.8 381.3, 229.4 380.9 Q 229.0 380.5, 228.1 380.5 Q 227.4 380.5, 227.0 380.6 Q 226.5 380.7, 225.8 381.0 L 225.3 380.1 Q 226.7 379.4, 228.1 379.4 Q 229.7 379.4, 230.4 380.1 Q 231.2 380.8, 231.2 382.3 L 231.2 387.1 L 230.1 387.1 Q 230.1 387.1, 230.0 386.9 Q 230.0 386.6, 229.9 386.2 Q 228.8 387.3, 227.4 387.3 Q 226.3 387.3, 225.6 386.7 Q 224.9 386.1, 224.9 385.1 M 226.3 385.0 Q 226.3 385.6, 226.7 385.9 Q 227.0 386.2, 227.7 386.2 Q 228.3 386.2, 228.8 385.9 Q 229.4 385.7, 229.8 385.2 L 229.8 383.6 L 228.8 383.6 Q 227.5 383.6, 226.9 383.9 Q 226.3 384.3, 226.3 385.0 " fill="#000000"/>
<path class="legend" d="M 232.8 380.6 L 232.8 379.5 L 234.3 379.5 L 234.5 377.3 L 235.6 377.3 L 235.6 379.5 L 237.9 379.5 L 237.9 380.6 L 235.6 380.6 L 235.6 384.8 Q 235.6 386.1, 236.7 386.1 Q 237.1 386.1, 237.8 385.9 L 238.0 386.9 Q 237.2 387.2, 236.4 387.2 Q 235.4 387.2, 234.8 386.6 Q 234.2 386.0, 234.2 384.9 L 234.2 380.6 L 232.8 380.6 " fill="#000000"/>
<path class="legend" d="M 245.4 379.5 L 245.4 387.1 L 244.2 387.1 L 244.1 386.1 Q 243.1 387.3, 241.5 387.3 Q 240.2 387.3, 239.6 386.6 Q 238.9 385.9, 238.9 384.6 L 238.9 379.5 L 240.3 379.5 L 240.3 384.4 Q 240.3 385.4, 240.6 385.8 Q 241.0 386.2, 241.8 386.2 Q 242.5 386.2, 243.0 385.9 Q 243.6 385.5, 244.0 385.0 L 244.0 379.5 L 245.4 379.5 " fill="#000000"/>
<path class="legend" d="M 248.2 379.5 L 248.4 380.6 Q 249.2 379.4, 250.5 379.4 Q 250.9 379.4, 251.5 379.5 L 251.3 380.8 Q 250.6 380.6, 250.3 380.6 Q 249.6 380.6, 249.2 380.9 Q 248.8 381.1, 248.5 381.7 L 248.5 387.1 L 247.1 387.1 L 247.1 379.5 L 248.2 379.5 " fill="#000000"/>
<path class="legend" d="M 252.2 383.3 Q 252.2 381.4, 253.2 380.4 Q 254.1 379.4, 255.8 379.4 Q 257.5 379.4, 258.2 380.4 Q 259.0 381.4, 259.0 383.3 L 259.0 383.5 L 253.6 383.5 Q 253.7 384.8, 254.3 385.5 Q 254.8 386.2, 255.9 386.2 Q 256.5 386.2, 257.1 386.0 Q 257.6 385.9, 258.3 385.6 L 258.7 386.5 Q 257.9 386.9, 257.2 387.1 Q 256.6 387.3, 255.8 387.3 Q 254.1 387.3, 253.2 386.2 Q 252.2 385.2, 252.2 383.3 M 255.8 380.5 Q 254.9 380.5, 254.4 381.0 Q 253.9 381.5, 253.7 382.5 L 257.5 382.5 Q 257.4 381.4, 257.0 381.0 Q 256.6 380.5, 255.8 380.5 " fill="#000000"/>
<path class="legend" d="" fill="#000000"/>
<path class="legend" d="M 266.1 385.9 L 268.4 385.9 L 268.4 378.1 L 265.8 378.9 L 265.5 378.0 L 268.7 376.6 L 269.8 376.7 L 269.8 385.9 L 271.8 385.9 L 271.8 387.1 L 266.1 387.1 L 266.1 385.9 " fill="#000000"/>
<path class="legend" d="M 278.3 381.6 Q 279.3 382.0, 279.8 382.6 Q 280.4 383.2, 280.4 384.3 Q 280.4 385.1, 279.9 385.8 Q 279.5 386.5, 278.6 386.9 Q 277.8 387.3, 276.7 387.3 Q 275.0 387.3, 274.0 386.5 Q 273.0 385.7, 273.0 384.3 Q 273.0 383.4, 273.4 382.8 Q 273.9 382.1, 274.8 381.6 Q 274.1 381.2, 273.7 380.7 Q 273.4 380.1, 273.4 379.2 Q 273.4 378.0, 274.2 377.2 Q 275.2 376.5, 276.7 376.5 Q 278.2 376.5, 279.1 377.2 Q 280.0 378.0, 280.0 379.2 Q 280.0 380.0, 279.6 380.5 Q 279.2 381.1, 278.3 381.6 M 276.7 377.6 Q 275.8 377.6, 275.3 378.0 Q 274.8 378.5, 274.8 379.2 Q 274.8 379.7, 275.2 380.1 Q 275.5 380.5, 276.0 380.7 Q 276.4 380.9, 277.3 381.2 Q 278.0 380.8, 278.2 380.3 Q 278.5 379.8, 278.5 379.2 Q 278.5 378.5, 278.0 378.0 Q 277.6 377.6, 276.7 377.6 M 276.7 386.2 Q 277.7 386.2, 278.3 385.7 Q 278.9 385.1, 278.9 384.2 Q 278.9 383.7, 278.6 383.3 Q 278.3 383.0, 277.8 382.8 Q 277.3 382.5, 276.5 382.3 L 275.8 382.1 Q 275.1 382.5, 274.8 383.0 Q 274.5 383.6, 274.5 384.2 Q 274.5 385.1, 275.1 385.7 Q 275.7 386.2, 276.7 386.2 " fill="#000000"/>
<path class="legend" d="M 285.4 376.5 Q 287.2 376.5, 288.2 377.8 Q 289.1 379.0, 289.1 381.6 Q 289.1 384.4, 287.9 385.8 Q 286.8 387.3, 284.6 387.3 Q 283.9 387.3, 283.3 387.1 Q 282.8 387.0, 282.2 386.6 L 282.8 385.7 Q 283.6 386.1, 284.5 386.1 Q 286.0 386.1, 286.8 385.1 Q 287.5 384.2, 287.6 382.2 Q 287.1 382.7, 286.4 382.9 Q 285.7 383.2, 285.0 383.2 Q 284.1 383.2, 283.4 382.8 Q 282.6 382.4, 282.2 381.7 Q 281.8 380.9, 281.8 380.0 Q 281.8 379.0, 282.3 378.2 Q 282.7 377.4, 283.5 377.0 Q 284.3 376.5, 285.4 376.5 M 283.3 380.0 Q 283.3 380.9, 283.8 381.5 Q 284.4 382.0, 285.3 382.0 Q 285.9 382.0, 286.5 381.7 Q 287.2 381.5, 287.6 381.0 Q 287.6 379.3, 287.0 378.5 Q 286.5 377.7, 285.4 377.7 Q 284.8 377.7, 284.3 378.0 Q 283.9 378.3, 283.6 378.8 Q 283.3 379.4, 283.3 380.0 " fill="#000000"/>
<path class="legend" d="M 291.2 385.9 L 293.5 385.9 L 293.5 378.1 L 291.0 378.9 L 290.6 378.0 L 293.9 376.6 L 294.9 376.7 L 294.9 385.9 L 297.0 385.9 L 297.0 387.1 L 291.2 387.1 L 291.2 385.9 " fill="#000000"/>
<path class="legend" d="" fill="#000000"/>
<path class="legend" d="M 303.6 375.6 L 304.8 375.6 L 304.8 390.0 L 303.6 390.0 L 303.6 375.6 " fill="#000000"/>
<path class="legend" d="" fill="#000000"/>
<path class="legend" d="M 312.4 385.5 Q 312.6 385.5, 313.0 385.8 Q 313.5 386.0, 314.1 386.1 Q 314.6 386.2, 315.2 386.2 Q 316.1 386.2, 316.7 385.7 Q 317.3 385.2, 317.3 384.4 Q 317.3 383.8, 317.0 383.5 Q 316.7 383.1, 316.3 382.9 Q 315.8 382.7, 315.1 382.5 Q 314.2 382.2, 313.6 382.0 Q 313.0 381.7, 312.6 381.1 Q 312.3 380.6, 312.3 379.6 Q 312.3 378.3, 313.1 377.5 Q 314.1 376.7, 315.8 376.7 Q 317.1 376.7, 318.4 377.2 L 318.1 378.4 Q 316.8 377.9, 315.9 377.9 Q 314.9 377.9, 314.3 378.3 Q 313.7 378.7, 313.7 379.4 Q 313.7 380.0, 314.0 380.3 Q 314.3 380.7, 314.7 380.9 Q 315.2 381.1, 315.9 381.3 Q 316.8 381.6, 317.4 381.9 Q 318.0 382.2, 318.4 382.8 Q 318.8 383.4, 318.8 384.4 Q 318.8 385.9, 317.8 386.6 Q 316.8 387.4, 315.2 387.4 Q 314.3 387.4, 313.6 387.2 Q 312.9 387.0, 312.0 386.7 L 312.4 385.5 " fill="#000000"/>
<path class="legend" d="M 320.0 376.6 L 321.4 376.6 L 321.4 381.1 L 326.8 381.1 L 326.8 376.6 L 328.2 376.6 L 328.2 387.1 L 326.8 387.1 L 326.8 382.3 L 321.4 382.3 L 321.4 387.1 L 320.0 387.1 L 320.0 376.6 " fill="#000000"/>
<path class="legend" d="M 337.7 387.1 L 336.6 384.0 L 332.5 384.0 L 331.4 387.1 L 330.0 387.1 L 333.6 376.6 L 335.3 376.6 L 339.1 387.1 L 337.7 387.1 M 332.9 382.9 L 336.2 382.9 L 334.5 378.1 L 332.9 382.9 " fill="#000000"/>
<path class="legend" d="M 342.9 376.6 Q 344.7 376.6, 345.6 377.4 Q 346.5 378.2, 346.5 379.7 Q 346.5 381.2, 345.6 382.0 Q 344.6 382.8, 342.9 382.8 L 341.2 382.8 L 341.2 387.1 L 339.8 387.1 L 339.8 376.6 L 342.9 376.6 M 342.9 381.6 Q 343.9 381.6, 344.5 381.1 Q 345.0 380.6, 345.0 379.7 Q 345.0 378.8, 344.5 378.3 Q 343.9 377.8, 342.9 377.8 L 341.2 377.8 L 341.2 381.6 L 342.9 381.6 " fill="#000000"/>
<path class="legend" d="M 347.7 385.4 L 349.2 385.4 L 349.2 386.9 L 347.7 386.9 L 347.7 385.4 M 347.7 380.3 L 349.2 380.3 L 349.2 381.8 L 347.7 381.8 L 347.7 380.3 " fill="#000000"/>
<path class="legend" d="" fill="#000000"/>
<path class="legend" d="M 356.8 385.9 L 359.1 385.9 L 359.1 378.1 L 356.6 378.9 L 356.3 378.0 L 359.5 376.6 L 360.5 376.7 L 360.5 385.9 L 362.6 385.9 L 362.6 387.1 L 356.8 387.1 L 356.8 385.9 " fill="#000000"/>
<path class="legend" d="M 367.5 380.6 Q 368.5 380.6, 369.2 381.0 Q 370.0 381.3, 370.4 382.1 Q 370.8 382.8, 370.8 383.8 Q 370.8 384.9, 370.3 385.7 Q 369.8 386.5, 368.9 386.9 Q 368.1 387.3, 367.1 387.3 Q 366.1 387.3, 365.2 386.9 Q 364.3 386.5, 363.7 385.9 L 364.6 384.9 Q 365.1 385.5, 365.8 385.8 Q 366.4 386.1, 367.1 386.1 Q 368.1 386.1, 368.7 385.5 Q 369.4 384.9, 369.4 383.8 Q 369.4 382.7, 368.7 382.2 Q 368.1 381.7, 367.0 381.7 Q 366.1 381.7, 365.1 382.1 L 364.3 381.7 L 364.8 376.6 L 370.2 376.6 L 370.0 377.8 L 366.0 377.8 L 365.7 380.9 Q 366.6 380.6, 367.5 380.6 " fill="#000000"/>
<path class="legend" d="M 372.1 385.7 L 373.5 385.7 L 373.5 387.1 L 372.1 387.1 L 372.1 385.7 " fill="#000000"/>
<path class="legend" d="M 380.5 377.8 L 375.0 377.8 L 375.0 376.6 L 382.0 376.6 L 382.0 377.7 L 377.8 387.1 L 376.3 387.1 L 380.5 377.8 " fill="#000000"/>
<path class="legend" d="M 388.0 381.6 Q 389.0 381.9, 389.5 382.6 Q 390.0 383.2, 390.0 384.3 Q 390.0 385.1, 389.6 385.8 Q 389.1 386.5, 388.3 386.9 Q 387.5 387.3, 386.4 387.3 Q 385.3 387.3, 384.4 386.9 Q 383.6 386.5, 382.9 385.7 L 383.8 384.8 Q 384.4 385.5, 385.0 385.8 Q 385.5 386.1, 386.4 386.1 Q 387.4 386.1, 387.9 385.6 Q 388.5 385.1, 388.5 384.2 Q 388.5 383.2, 387.9 382.7 Q 387.3 382.2, 386.0 382.2 L 385.3 382.2 L 385.3 381.1 L 385.9 381.1 Q 387.1 381.1, 387.7 380.6 Q 388.3 380.1, 388.3 379.2 Q 388.3 378.5, 387.8 378.1 Q 387.3 377.7, 386.4 377.7 Q 385.5 377.7, 385.0 378.0 Q 384.5 378.3, 384.0 379.1 L 383.0 378.6 Q 383.4 377.7, 384.3 377.1 Q 385.2 376.5, 386.4 376.5 Q 388.0 376.5, 388.9 377.2 Q 389.8 378.0, 389.8 379.2 Q 389.8 380.0, 389.3 380.6 Q 388.9 381.3, 388.0 381.6 " fill="#000000"/>
<ellipse cx="520.0" cy="312.9" rx="7.4" ry="7.4" class="atom-1" style="fill:#E5E533;fill-rule:evenodd;stroke:#E5E533;stroke-width:1.0px;stroke-linecap:butt;stroke-linejoin:miter;stroke-opacity:1"/>
<ellipse cx="500.9" cy="252.1" rx="7.4" ry="7.4" class="atom-3" style="fill:#E5E533;fill-rule:evenodd;stroke:#E5E533;stroke-width:1.0px;stroke-linecap:butt;stroke-linejoin:miter;stroke-opacity:1"/>
<ellipse cx="465.8" cy="263.2" rx="7.4" ry="7.4" class="atom-4" style="fill:#E5E533;fill-rule:evenodd;stroke:#E5E533;stroke-width:1.0px;stroke-linecap:butt;stroke-linejoin:miter;stroke-opacity:1"/>
<ellipse cx="457.8" cy="299.1" rx="7.4" ry="7.4" class="atom-5" style="fill:#9999E5;fill-rule:evenodd;stroke:#9999E5;stroke-width:1.0px;stroke-linecap:butt;stroke-linejoin:miter;stroke-opacity:1"/>
<ellipse cx="484.9" cy="323.9" rx="7.4" ry="7.4" class="atom-6" style="fill:#E5E533;fill-rule:evenodd;stroke:#E5E533;stroke-width:1.0px;stroke-linecap:butt;stroke-linejoin:miter;stroke-opacity:1"/>
<path class="bond-0 atom-0 atom-1" d="M 543.4,334.4 L 520.0,312.9" style="fill:none;fill-rule:evenodd;stroke:#E5E5E5;stroke-width:2.0px;stroke-linecap:butt;stroke-linejoin:miter;stroke-opacity:1"/>
<path class="bond-1 atom-1 atom-2" d="M 520.0,312.9 L 527.8,277.7" style="fill:none;fill-rule:evenodd;stroke:#E5E5E5;stroke-width:2.0px;stroke-linecap:butt;stroke-linejoin:miter;stroke-opacity:1"/>
<path class="bond-1 atom-1 atom-2" d="M 515.3,308.6 L 522.4,276.5" style="fill:none;fill-rule:evenodd;stroke:#E5E5E5;stroke-width:2.0px;stroke-linecap:butt;stroke-linejoin:miter;stroke-opacity:1"/>
<path class="bond-2 atom-2 atom-3" d="M 524.3,273.6 L 506.0,256.9" style="fill:none;fill-rule:evenodd;stroke:#E5E5E5;stroke-width:2.0px;stroke-linecap:butt;stroke-linejoin:miter;stroke-opacity:1"/>
<path class="bond-3 atom-3 atom-4" d="M 495.7,253.8 L 465.8,263.2" style="fill:none;fill-rule:evenodd;stroke:#000000;stroke-width:2.0px;stroke-linecap:butt;stroke-linejoin:miter;stroke-opacity:1"/>
<path class="bond-3 atom-3 atom-4" d="M 497.3,259.0 L 470.5,267.5" style="fill:none;fill-rule:evenodd;stroke:#000000;stroke-width:2.0px;stroke-linecap:butt;stroke-linejoin:miter;stroke-opacity:1"/>
<path class="bond-4 atom-4 atom-5" d="M 465.8,263.2 L 457.8,299.1" style="fill:none;fill-rule:evenodd;stroke:#000000;stroke-width:2.0px;stroke-linecap:butt;stroke-linejoin:miter;stroke-opacity:1"/>
<path class="bond-5 atom-5 atom-6" d="M 457.8,299.1 L 479.7,319.2" style="fill:none;fill-rule:evenodd;stroke:#000000;stroke-width:2.0px;stroke-linecap:butt;stroke-linejoin:miter;stroke-opacity:1"/>
<path class="bond-5 atom-5 atom-6" d="M 463.9,297.2 L 483.5,315.1" style="fill:none;fill-rule:evenodd;stroke:#000000;stroke-width:2.0px;stroke-linecap:butt;stroke-linejoin:miter;stroke-opacity:1"/>
<path class="bond-6 atom-6 atom-1" d="M 490.1,322.3 L 520.0,312.9" style="fill:none;fill-rule:evenodd;stroke:#000000;stroke-width:2.0px;stroke-linecap:butt;stroke-linejoin:miter;stroke-opacity:1"/>
<path d="M 467.3,262.7 L 465.8,263.2 L 465.4,265.0" style="fill:none;stroke:#000000;stroke-width:2.0px;stroke-linecap:butt;stroke-linejoin:miter;stroke-miterlimit:10;stroke-opacity:1;"/>
<path d="M 458.2,297.3 L 457.8,299.1 L 458.9,300.1" style="fill:none;stroke:#000000;stroke-width:2.0px;stroke-linecap:butt;stroke-linejoin:miter;stroke-miterlimit:10;stroke-opacity:1;"/>
<path class="atom-0" d="M 545.1 336.6 L 546.7 335.0 L 544.6 334.6 L 544.9 333.6 L 546.8 334.5 L 546.5 332.5 L 547.6 332.5 L 547.3 334.5 L 549.2 333.6 L 549.6 334.6 L 547.5 335.0 L 549.0 336.6 L 548.1 337.2 L 547.1 335.3 L 546.0 337.2 L 545.1 336.6 " fill="#191919"/>
<path class="atom-2" d="M 526.0 275.8 L 527.5 274.3 L 525.5 273.9 L 525.8 272.8 L 527.7 273.8 L 527.4 271.7 L 528.5 271.7 L 528.2 273.7 L 530.1 272.9 L 530.4 273.9 L 528.4 274.2 L 529.8 275.8 L 528.9 276.5 L 527.9 274.5 L 526.9 276.5 L 526.0 275.8 " fill="#191919"/>
<path class="atom-3" d="M 498.5 246.9 L 502.0 252.4 Q 502.3 253.0, 502.8 254.0 Q 503.4 255.0, 503.4 255.0 L 503.4 246.9 L 504.8 246.9 L 504.8 257.3 L 503.4 257.3 L 499.7 251.3 Q 499.3 250.6, 498.8 249.8 Q 498.4 249.0, 498.3 248.7 L 498.3 257.3 L 496.9 257.3 L 496.9 246.9 L 498.5 246.9 " fill="#000000"/>
<path class="atom-6" d="M 482.6 318.7 L 486.0 324.3 Q 486.4 324.8, 486.9 325.8 Q 487.4 326.8, 487.5 326.8 L 487.5 318.7 L 488.9 318.7 L 488.9 329.2 L 487.4 329.2 L 483.8 323.1 Q 483.3 322.4, 482.9 321.6 Q 482.4 320.8, 482.3 320.5 L 482.3 329.2 L 481.0 329.2 L 481.0 318.7 L 482.6 318.7 " fill="#000000"/>
<path class="legend" d="M 410.0 376.7 L 416.2 376.7 L 416.2 377.9 L 411.4 377.9 L 411.4 381.0 L 415.7 381.0 L 415.7 382.3 L 411.4 382.3 L 411.4 387.1 L 410.0 387.1 L 410.0 376.7 " fill="#000000"/>
<path class="legend" d="M 417.1 383.3 Q 417.1 381.5, 418.0 380.4 Q 418.9 379.4, 420.6 379.4 Q 422.3 379.4, 423.1 380.4 Q 423.8 381.4, 423.8 383.3 L 423.8 383.5 L 418.5 383.5 Q 418.5 384.8, 419.1 385.5 Q 419.7 386.2, 420.8 386.2 Q 421.3 386.2, 421.9 386.0 Q 422.4 385.9, 423.1 385.6 L 423.5 386.5 Q 422.8 386.9, 422.1 387.1 Q 421.4 387.3, 420.7 387.3 Q 419.0 387.3, 418.0 386.2 Q 417.1 385.2, 417.1 383.3 M 420.6 380.5 Q 419.8 380.5, 419.2 381.0 Q 418.7 381.5, 418.5 382.5 L 422.3 382.5 Q 422.2 381.5, 421.8 381.0 Q 421.4 380.5, 420.6 380.5 " fill="#000000"/>
<path class="legend" d="M 424.9 385.1 Q 424.9 383.9, 425.9 383.2 Q 426.8 382.5, 428.6 382.5 L 429.8 382.5 L 429.8 382.2 Q 429.8 381.3, 429.4 380.9 Q 429.0 380.5, 428.0 380.5 Q 427.4 380.5, 426.9 380.6 Q 426.5 380.7, 425.7 381.0 L 425.3 380.1 Q 426.7 379.4, 428.0 379.4 Q 429.7 379.4, 430.4 380.1 Q 431.1 380.8, 431.1 382.3 L 431.1 387.1 L 430.1 387.1 Q 430.0 387.1, 430.0 386.9 Q 430.0 386.6, 429.9 386.3 Q 428.8 387.3, 427.4 387.3 Q 426.2 387.3, 425.6 386.7 Q 424.9 386.1, 424.9 385.1 M 426.3 385.1 Q 426.3 385.6, 426.6 385.9 Q 427.0 386.2, 427.6 386.2 Q 428.2 386.2, 428.8 386.0 Q 429.4 385.7, 429.8 385.2 L 429.8 383.6 L 428.7 383.6 Q 427.5 383.6, 426.9 383.9 Q 426.3 384.3, 426.3 385.1 " fill="#000000"/>
<path class="legend" d="M 432.8 380.6 L 432.8 379.5 L 434.2 379.5 L 434.5 377.3 L 435.5 377.3 L 435.5 379.5 L 437.8 379.5 L 437.8 380.6 L 435.5 380.6 L 435.5 384.8 Q 435.5 386.1, 436.6 386.1 Q 437.1 386.1, 437.7 385.9 L 438.0 386.9 Q 437.1 387.2, 436.4 387.2 Q 435.4 387.2, 434.7 386.6 Q 434.1 386.0, 434.1 384.9 L 434.1 380.6 L 432.8 380.6 " fill="#000000"/>
<path class="legend" d="M 445.3 379.5 L 445.3 387.1 L 444.2 387.1 L 444.0 386.1 Q 443.0 387.3, 441.4 387.3 Q 440.1 387.3, 439.5 386.6 Q 438.8 385.9, 438.8 384.6 L 438.8 379.5 L 440.2 379.5 L 440.2 384.5 Q 440.2 385.4, 440.6 385.8 Q 440.9 386.2, 441.7 386.2 Q 442.4 386.2, 443.0 385.9 Q 443.5 385.5, 443.9 385.0 L 443.9 379.5 L 445.3 379.5 " fill="#000000"/>
<path class="legend" d="M 448.2 379.5 L 448.3 380.6 Q 449.1 379.4, 450.4 379.4 Q 450.8 379.4, 451.4 379.5 L 451.2 380.8 Q 450.5 380.6, 450.2 380.6 Q 449.6 380.6, 449.2 380.9 Q 448.8 381.1, 448.4 381.7 L 448.4 387.1 L 447.0 387.1 L 447.0 379.5 L 448.2 379.5 " fill="#000000"/>
<path class="legend" d="M 452.1 383.3 Q 452.1 381.5, 453.1 380.4 Q 454.0 379.4, 455.7 379.4 Q 457.4 379.4, 458.1 380.4 Q 458.9 381.4, 458.9 383.3 L 458.9 383.5 L 453.6 383.5 Q 453.6 384.8, 454.2 385.5 Q 454.7 386.2, 455.8 386.2 Q 456.4 386.2, 457.0 386.0 Q 457.5 385.9, 458.2 385.6 L 458.6 386.5 Q 457.8 386.9, 457.1 387.1 Q 456.5 387.3, 455.7 387.3 Q 454.0 387.3, 453.1 386.2 Q 452.1 385.2, 452.1 383.3 M 455.7 380.5 Q 454.8 380.5, 454.3 381.0 Q 453.8 381.5, 453.6 382.5 L 457.4 382.5 Q 457.3 381.5, 456.9 381.0 Q 456.5 380.5, 455.7 380.5 " fill="#000000"/>
<path class="legend" d="" fill="#000000"/>
<path class="legend" d="M 466.0 386.0 L 468.3 386.0 L 468.3 378.1 L 465.7 378.9 L 465.4 378.0 L 468.6 376.6 L 469.7 376.8 L 469.7 386.0 L 471.7 386.0 L 471.7 387.1 L 466.0 387.1 L 466.0 386.0 " fill="#000000"/>
<path class="legend" d="M 476.7 387.3 Q 474.8 387.3, 473.8 385.8 Q 472.8 384.4, 472.8 381.9 Q 472.8 379.4, 473.8 377.9 Q 474.7 376.5, 476.7 376.5 Q 478.6 376.5, 479.6 377.9 Q 480.5 379.4, 480.5 381.9 Q 480.5 384.4, 479.5 385.8 Q 478.6 387.3, 476.7 387.3 M 476.7 386.1 Q 477.8 386.1, 478.4 385.0 Q 479.0 384.0, 479.0 381.9 Q 479.0 379.8, 478.4 378.8 Q 477.8 377.7, 476.7 377.7 Q 475.6 377.7, 474.9 378.8 Q 474.3 379.8, 474.3 381.9 Q 474.3 384.0, 474.9 385.0 Q 475.6 386.1, 476.7 386.1 " fill="#000000"/>
<path class="legend" d="M 487.5 377.8 L 482.0 377.8 L 482.0 376.7 L 488.9 376.7 L 488.9 377.7 L 484.7 387.1 L 483.3 387.1 L 487.5 377.8 " fill="#000000"/>
<path class="legend" d="M 490.5 386.0 L 492.8 386.0 L 492.8 378.1 L 490.2 378.9 L 489.9 378.0 L 493.1 376.6 L 494.1 376.8 L 494.1 386.0 L 496.2 386.0 L 496.2 387.1 L 490.5 387.1 L 490.5 386.0 " fill="#000000"/>
<path class="legend" d="" fill="#000000"/>
<path class="legend" d="M 502.8 375.7 L 504.0 375.7 L 504.0 390.0 L 502.8 390.0 L 502.8 375.7 " fill="#000000"/>
<path class="legend" d="" fill="#000000"/>
<path class="legend" d="M 511.6 385.5 Q 511.8 385.6, 512.2 385.8 Q 512.7 386.0, 513.3 386.1 Q 513.8 386.2, 514.3 386.2 Q 515.3 386.2, 515.9 385.7 Q 516.5 385.3, 516.5 384.4 Q 516.5 383.8, 516.2 383.5 Q 515.9 383.1, 515.5 382.9 Q 515.0 382.7, 514.3 382.5 Q 513.4 382.2, 512.8 382.0 Q 512.2 381.7, 511.8 381.1 Q 511.5 380.6, 511.5 379.6 Q 511.5 378.3, 512.3 377.5 Q 513.2 376.7, 515.0 376.7 Q 516.2 376.7, 517.6 377.3 L 517.3 378.4 Q 516.0 377.9, 515.1 377.9 Q 514.0 377.9, 513.5 378.3 Q 512.9 378.7, 512.9 379.5 Q 512.9 380.0, 513.2 380.4 Q 513.5 380.7, 513.9 380.9 Q 514.4 381.1, 515.1 381.3 Q 516.0 381.6, 516.6 381.9 Q 517.1 382.2, 517.5 382.8 Q 518.0 383.4, 518.0 384.4 Q 518.0 385.9, 517.0 386.7 Q 516.0 387.4, 514.4 387.4 Q 513.5 387.4, 512.8 387.2 Q 512.1 387.0, 511.2 386.7 L 511.6 385.5 " fill="#000000"/>
<path class="legend" d="M 519.2 376.7 L 520.6 376.7 L 520.6 381.1 L 525.9 381.1 L 525.9 376.7 L 527.4 376.7 L 527.4 387.1 L 525.9 387.1 L 525.9 382.3 L 520.6 382.3 L 520.6 387.1 L 519.2 387.1 L 519.2 376.7 " fill="#000000"/>
<path class="legend" d="M 536.9 387.1 L 535.8 384.1 L 531.6 384.1 L 530.6 387.1 L 529.1 387.1 L 532.7 376.7 L 534.5 376.7 L 538.2 387.1 L 536.9 387.1 M 532.0 382.9 L 535.3 382.9 L 533.7 378.1 L 532.0 382.9 " fill="#000000"/>
<path class="legend" d="M 542.0 376.7 Q 543.8 376.7, 544.7 377.5 Q 545.6 378.3, 545.6 379.7 Q 545.6 381.2, 544.7 382.0 Q 543.8 382.8, 542.0 382.8 L 540.3 382.8 L 540.3 387.1 L 538.9 387.1 L 538.9 376.7 L 542.0 376.7 M 542.0 381.6 Q 543.0 381.6, 543.6 381.2 Q 544.1 380.7, 544.1 379.7 Q 544.1 378.8, 543.6 378.3 Q 543.1 377.8, 542.0 377.8 L 540.3 377.8 L 540.3 381.6 L 542.0 381.6 " fill="#000000"/>
<path class="legend" d="M 546.8 385.4 L 548.3 385.4 L 548.3 386.9 L 546.8 386.9 L 546.8 385.4 M 546.8 380.3 L 548.3 380.3 L 548.3 381.8 L 546.8 381.8 L 546.8 380.3 " fill="#000000"/>
<path class="legend" d="" fill="#000000"/>
<path class="legend" d="M 555.9 386.0 L 558.2 386.0 L 558.2 378.1 L 555.7 378.9 L 555.4 378.0 L 558.6 376.6 L 559.6 376.8 L 559.6 386.0 L 561.7 386.0 L 561.7 387.1 L 555.9 387.1 L 555.9 386.0 " fill="#000000"/>
<path class="legend" d="M 569.6 383.5 L 570.9 383.5 L 570.9 384.7 L 569.6 384.7 L 569.6 387.1 L 568.2 387.1 L 568.2 384.7 L 562.8 384.7 L 562.8 383.8 L 567.4 376.7 L 569.6 376.7 L 569.6 383.5 M 564.5 383.5 L 568.2 383.5 L 568.2 377.6 L 564.5 383.5 " fill="#000000"/>
<path class="legend" d="M 572.1 385.7 L 573.6 385.7 L 573.6 387.1 L 572.1 387.1 L 572.1 385.7 " fill="#000000"/>
<path class="legend" d="M 579.2 380.6 Q 580.1 380.6, 580.8 381.0 Q 581.6 381.4, 582.0 382.1 Q 582.4 382.8, 582.4 383.8 Q 582.4 384.8, 581.9 385.6 Q 581.5 386.4, 580.7 386.8 Q 579.9 387.3, 578.8 387.3 Q 577.0 387.3, 576.0 386.0 Q 575.1 384.7, 575.1 382.2 Q 575.1 379.4, 576.2 378.0 Q 577.4 376.5, 579.6 376.5 Q 580.3 376.5, 580.8 376.7 Q 581.4 376.8, 581.9 377.1 L 581.4 378.1 Q 580.6 377.7, 579.7 377.7 Q 578.2 377.7, 577.4 378.7 Q 576.7 379.6, 576.6 381.6 Q 577.1 381.1, 577.8 380.9 Q 578.5 380.6, 579.2 380.6 M 578.8 386.0 Q 579.4 386.0, 579.9 385.7 Q 580.3 385.5, 580.6 384.9 Q 580.9 384.4, 580.9 383.8 Q 580.9 382.8, 580.4 382.3 Q 579.8 381.8, 578.9 381.8 Q 578.3 381.8, 577.6 382.0 Q 577.0 382.3, 576.6 382.7 Q 576.6 384.5, 577.2 385.3 Q 577.7 386.0, 578.8 386.0 " fill="#000000"/>
<path class="legend" d="M 584.3 386.0 L 586.5 386.0 L 586.5 378.1 L 584.0 378.9 L 583.7 378.0 L 586.9 376.6 L 587.9 376.8 L 587.9 386.0 L 590.0 386.0 L 590.0 387.1 L 584.3 387.1 L 584.3 386.0 " fill="#000000"/>
</svg>