<svg xmlns="http://www.w3.org/2000/svg" xmlns:rdkit="http://www.rdkit.org/xml" xmlns:xlink="http://www.w3.org/1999/xlink" version="1.1" baseProfile="full" xml:space="preserve" width="600px" height="400px" viewBox="0 0 600 400">
<!-- END OF HEADER -->
<rect width="100%" height="100%" fill="#E5ECF6"/>
<rect style="opacity:1.0;fill:#E5ECF6;stroke:none" width="200.0" height="200.0" x="0.0" y="0.0"> </rect>
<ellipse cx="128.8" cy="67.2" rx="6.3" ry="6.3" class="atom-3" style="fill:#9999E5;fill-rule:evenodd;stroke:#9999E5;stroke-width:1.0px;stroke-linecap:butt;stroke-linejoin:miter;stroke-opacity:1"/>
<path class="bond-0 atom-0 atom-1" d="M 102.1,141.1 L 119.2,120.8" style="fill:none;fill-rule:evenodd;stroke:#E5E5E5;stroke-width:1.7px;stroke-linecap:butt;stroke-linejoin:miter;stroke-opacity:1"/>
<path class="bond-1 atom-1 atom-2" d="M 119.2,120.8 L 114.9,108.8" style="fill:none;fill-rule:evenodd;stroke:#000000;stroke-width:2.0px;stroke-linecap:butt;stroke-linejoin:miter;stroke-opacity:1"/>
<path class="bond-1 atom-1 atom-2" d="M 114.9,108.8 L 110.5,96.7" style="fill:none;fill-rule:evenodd;stroke:#0000FF;stroke-width:2.0px;stroke-linecap:butt;stroke-linejoin:miter;stroke-opacity:1"/>
<path class="bond-2 atom-2 atom-3" d="M 113.0,86.0 L 120.9,76.6" style="fill:none;fill-rule:evenodd;stroke:#0000FF;stroke-width:2.0px;stroke-linecap:butt;stroke-linejoin:miter;stroke-opacity:1"/>
<path class="bond-2 atom-2 atom-3" d="M 120.9,76.6 L 128.8,67.2" style="fill:none;fill-rule:evenodd;stroke:#000000;stroke-width:2.0px;stroke-linecap:butt;stroke-linejoin:miter;stroke-opacity:1"/>
<path class="bond-3 atom-3 atom-4" d="M 128.8,67.2 L 118.2,37.7" style="fill:none;fill-rule:evenodd;stroke:#000000;stroke-width:2.0px;stroke-linecap:butt;stroke-linejoin:miter;stroke-opacity:1"/>
<path class="bond-4 atom-2 atom-5" d="M 104.1,90.4 L 90.9,88.0" style="fill:none;fill-rule:evenodd;stroke:#0000FF;stroke-width:2.0px;stroke-linecap:butt;stroke-linejoin:miter;stroke-opacity:1"/>
<path class="bond-4 atom-2 atom-5" d="M 90.9,88.0 L 77.6,85.7" style="fill:none;fill-rule:evenodd;stroke:#000000;stroke-width:2.0px;stroke-linecap:butt;stroke-linejoin:miter;stroke-opacity:1"/>
<path class="bond-5 atom-5 atom-6" d="M 77.6,85.7 L 67.2,56.7" style="fill:none;fill-rule:evenodd;stroke:#E5E5E5;stroke-width:1.7px;stroke-linecap:butt;stroke-linejoin:miter;stroke-opacity:1"/>
<path d="M 118.8,121.3 L 119.2,120.8 L 119.1,120.5" style="fill:none;stroke:#E5E5E5;stroke-width:1.7px;stroke-linecap:butt;stroke-linejoin:miter;stroke-miterlimit:10;stroke-opacity:1;"/>
<path d="M 128.4,67.7 L 128.8,67.2 L 128.3,65.8" style="fill:none;stroke:#000000;stroke-width:2.0px;stroke-linecap:butt;stroke-linejoin:miter;stroke-miterlimit:10;stroke-opacity:1;"/>
<path d="M 78.0,85.7 L 77.6,85.7 L 77.4,84.9" style="fill:none;stroke:#000000;stroke-width:2.0px;stroke-linecap:butt;stroke-linejoin:miter;stroke-miterlimit:10;stroke-opacity:1;"/>
<path class="atom-0" d="M 97.2 143.8 L 98.5 142.5 L 96.8 142.1 L 97.1 141.2 L 98.7 142.0 L 98.4 140.3 L 99.4 140.3 L 99.1 142.0 L 100.7 141.3 L 101.0 142.1 L 99.3 142.4 L 100.5 143.8 L 99.7 144.3 L 98.9 142.7 L 98.0 144.3 L 97.2 143.8 " fill="#191919"/>
<path class="atom-2" d="M 106.6 86.8 L 109.5 91.5 Q 109.8 92.0, 110.3 92.8 Q 110.7 93.6, 110.7 93.7 L 110.7 86.8 L 111.9 86.8 L 111.9 95.7 L 110.7 95.7 L 107.6 90.5 Q 107.2 89.9, 106.8 89.2 Q 106.4 88.5, 106.3 88.3 L 106.3 95.7 L 105.2 95.7 L 105.2 86.8 L 106.6 86.8 " fill="#0000FF"/>
<path class="atom-6" d="M 65.3 55.1 L 66.6 53.8 L 64.9 53.4 L 65.1 52.5 L 66.7 53.3 L 66.5 51.6 L 67.5 51.6 L 67.2 53.3 L 68.8 52.6 L 69.1 53.4 L 67.3 53.7 L 68.6 55.1 L 67.8 55.6 L 67.0 54.0 L 66.1 55.6 L 65.3 55.1 " fill="#191919"/>
<path class="legend" d="M 10.0 177.4 L 15.9 177.4 L 15.9 178.5 L 11.3 178.5 L 11.3 181.5 L 15.4 181.5 L 15.4 182.7 L 11.3 182.7 L 11.3 187.3 L 10.0 187.3 L 10.0 177.4 " fill="#000000"/>
<path class="legend" d="M 16.7 183.7 Q 16.7 181.9, 17.6 181.0 Q 18.4 180.0, 20.1 180.0 Q 21.6 180.0, 22.3 180.9 Q 23.0 181.9, 23.0 183.7 L 23.0 183.9 L 18.0 183.9 Q 18.1 185.1, 18.6 185.7 Q 19.1 186.4, 20.2 186.4 Q 20.7 186.4, 21.2 186.3 Q 21.8 186.1, 22.4 185.8 L 22.8 186.7 Q 22.1 187.1, 21.4 187.3 Q 20.8 187.4, 20.1 187.4 Q 18.5 187.4, 17.6 186.4 Q 16.7 185.5, 16.7 183.7 M 20.1 181.0 Q 19.2 181.0, 18.7 181.5 Q 18.2 182.0, 18.1 182.9 L 21.7 182.9 Q 21.6 181.9, 21.2 181.5 Q 20.8 181.0, 20.1 181.0 " fill="#000000"/>
<path class="legend" d="M 24.1 185.4 Q 24.1 184.2, 25.0 183.6 Q 25.9 183.0, 27.6 183.0 L 28.7 183.0 L 28.7 182.7 Q 28.7 181.8, 28.3 181.4 Q 27.9 181.0, 27.0 181.0 Q 26.5 181.0, 26.0 181.1 Q 25.6 181.2, 24.9 181.5 L 24.5 180.6 Q 25.8 180.0, 27.1 180.0 Q 28.6 180.0, 29.3 180.6 Q 30.0 181.3, 30.0 182.7 L 30.0 187.3 L 29.0 187.3 Q 28.9 187.2, 28.9 187.0 Q 28.9 186.8, 28.8 186.5 Q 27.8 187.5, 26.4 187.5 Q 25.4 187.5, 24.7 186.9 Q 24.1 186.3, 24.1 185.4 M 25.4 185.3 Q 25.4 185.9, 25.7 186.2 Q 26.1 186.4, 26.7 186.4 Q 27.2 186.4, 27.8 186.2 Q 28.3 185.9, 28.7 185.5 L 28.7 183.9 L 27.7 183.9 Q 26.5 183.9, 26.0 184.3 Q 25.4 184.6, 25.4 185.3 " fill="#000000"/>
<path class="legend" d="M 31.6 181.1 L 31.6 180.1 L 32.9 180.1 L 33.1 178.0 L 34.1 178.0 L 34.1 180.1 L 36.3 180.1 L 36.3 181.1 L 34.1 181.1 L 34.1 185.1 Q 34.1 186.3, 35.2 186.3 Q 35.6 186.3, 36.2 186.1 L 36.4 187.1 Q 35.7 187.4, 34.9 187.4 Q 34.0 187.4, 33.4 186.8 Q 32.8 186.3, 32.8 185.2 L 32.8 181.1 L 31.6 181.1 " fill="#000000"/>
<path class="legend" d="M 43.4 180.1 L 43.4 187.3 L 42.3 187.3 L 42.1 186.3 Q 41.2 187.4, 39.7 187.4 Q 38.5 187.4, 37.9 186.8 Q 37.3 186.1, 37.3 184.9 L 37.3 180.1 L 38.6 180.1 L 38.6 184.8 Q 38.6 185.6, 38.9 186.0 Q 39.2 186.4, 40.0 186.4 Q 40.6 186.4, 41.2 186.1 Q 41.7 185.8, 42.1 185.3 L 42.1 180.1 L 43.4 180.1 " fill="#000000"/>
<path class="legend" d="M 46.1 180.1 L 46.2 181.1 Q 47.0 180.0, 48.2 180.0 Q 48.6 180.0, 49.1 180.1 L 48.9 181.3 Q 48.3 181.2, 48.0 181.2 Q 47.4 181.2, 47.0 181.4 Q 46.6 181.6, 46.3 182.2 L 46.3 187.3 L 45.0 187.3 L 45.0 180.1 L 46.1 180.1 " fill="#000000"/>
<path class="legend" d="M 49.8 183.7 Q 49.8 181.9, 50.7 181.0 Q 51.6 180.0, 53.2 180.0 Q 54.8 180.0, 55.5 180.9 Q 56.2 181.9, 56.2 183.7 L 56.2 183.9 L 51.2 183.9 Q 51.2 185.1, 51.8 185.7 Q 52.3 186.4, 53.3 186.4 Q 53.9 186.4, 54.4 186.3 Q 54.9 186.1, 55.5 185.8 L 55.9 186.7 Q 55.2 187.1, 54.6 187.3 Q 53.9 187.4, 53.3 187.4 Q 51.6 187.4, 50.7 186.4 Q 49.8 185.5, 49.8 183.7 M 53.2 181.0 Q 52.4 181.0, 51.9 181.5 Q 51.4 182.0, 51.2 182.9 L 54.8 182.9 Q 54.7 181.9, 54.3 181.5 Q 53.9 181.0, 53.2 181.0 " fill="#000000"/>
<path class="legend" d="" fill="#000000"/>
<path class="legend" d="M 62.9 186.2 L 65.1 186.2 L 65.1 178.8 L 62.7 179.5 L 62.4 178.7 L 65.4 177.3 L 66.4 177.5 L 66.4 186.2 L 68.3 186.2 L 68.3 187.3 L 62.9 187.3 L 62.9 186.2 " fill="#000000"/>
<path class="legend" d="M 72.8 177.3 Q 74.5 177.3, 75.4 178.5 Q 76.3 179.7, 76.3 182.1 Q 76.3 184.7, 75.2 186.1 Q 74.1 187.4, 72.0 187.4 Q 71.4 187.4, 70.8 187.3 Q 70.3 187.1, 69.8 186.8 L 70.4 185.9 Q 71.1 186.3, 72.0 186.3 Q 73.4 186.3, 74.1 185.4 Q 74.8 184.5, 74.9 182.6 Q 74.4 183.1, 73.7 183.3 Q 73.1 183.6, 72.4 183.6 Q 71.6 183.6, 70.9 183.2 Q 70.2 182.8, 69.8 182.1 Q 69.4 181.5, 69.4 180.6 Q 69.4 179.6, 69.8 178.9 Q 70.3 178.1, 71.0 177.7 Q 71.8 177.3, 72.8 177.3 M 70.8 180.6 Q 70.8 181.5, 71.3 182.0 Q 71.8 182.5, 72.7 182.5 Q 73.3 182.5, 73.9 182.2 Q 74.5 182.0, 74.9 181.6 Q 74.8 179.9, 74.3 179.2 Q 73.8 178.4, 72.7 178.4 Q 72.2 178.4, 71.8 178.7 Q 71.3 179.0, 71.1 179.5 Q 70.8 180.0, 70.8 180.6 " fill="#000000"/>
<path class="legend" d="M 82.8 182.1 Q 83.7 182.4, 84.2 183.0 Q 84.7 183.6, 84.7 184.6 Q 84.7 185.4, 84.3 186.1 Q 83.9 186.7, 83.1 187.1 Q 82.3 187.4, 81.3 187.4 Q 79.6 187.4, 78.7 186.7 Q 77.7 185.9, 77.7 184.6 Q 77.7 183.8, 78.2 183.2 Q 78.6 182.6, 79.4 182.1 Q 78.8 181.7, 78.4 181.2 Q 78.1 180.7, 78.1 179.8 Q 78.1 178.7, 78.9 178.0 Q 79.8 177.3, 81.2 177.3 Q 82.7 177.3, 83.5 178.0 Q 84.4 178.7, 84.4 179.8 Q 84.4 180.5, 84.0 181.1 Q 83.6 181.6, 82.8 182.1 M 81.2 178.3 Q 80.4 178.3, 79.9 178.7 Q 79.5 179.1, 79.5 179.8 Q 79.5 180.3, 79.8 180.7 Q 80.1 181.0, 80.5 181.2 Q 81.0 181.4, 81.8 181.7 Q 82.4 181.3, 82.7 180.8 Q 83.0 180.4, 83.0 179.8 Q 83.0 179.1, 82.5 178.7 Q 82.1 178.3, 81.2 178.3 M 81.3 186.4 Q 82.2 186.4, 82.8 185.9 Q 83.3 185.4, 83.3 184.6 Q 83.3 184.0, 83.0 183.7 Q 82.7 183.4, 82.3 183.2 Q 81.9 183.0, 81.1 182.7 L 80.4 182.5 Q 79.7 182.9, 79.4 183.4 Q 79.1 183.9, 79.1 184.6 Q 79.1 185.4, 79.7 185.9 Q 80.3 186.4, 81.3 186.4 " fill="#000000"/>
<path class="legend" d="M 86.6 186.2 L 88.8 186.2 L 88.8 178.8 L 86.4 179.5 L 86.1 178.7 L 89.1 177.3 L 90.1 177.5 L 90.1 186.2 L 92.1 186.2 L 92.1 187.3 L 86.6 187.3 L 86.6 186.2 " fill="#000000"/>
<path class="legend" d="" fill="#000000"/>
<path class="legend" d="M 98.3 176.5 L 99.5 176.5 L 99.5 190.0 L 98.3 190.0 L 98.3 176.5 " fill="#000000"/>
<path class="legend" d="" fill="#000000"/>
<path class="legend" d="M 106.7 185.8 Q 106.8 185.8, 107.3 186.0 Q 107.7 186.2, 108.2 186.3 Q 108.7 186.4, 109.2 186.4 Q 110.2 186.4, 110.7 186.0 Q 111.3 185.5, 111.3 184.7 Q 111.3 184.2, 111.0 183.8 Q 110.7 183.5, 110.3 183.3 Q 109.9 183.1, 109.2 182.9 Q 108.3 182.7, 107.8 182.4 Q 107.3 182.2, 106.9 181.6 Q 106.5 181.1, 106.5 180.2 Q 106.5 179.0, 107.3 178.2 Q 108.2 177.4, 109.9 177.4 Q 111.0 177.4, 112.3 178.0 L 112.0 179.1 Q 110.8 178.6, 109.9 178.6 Q 109.0 178.6, 108.4 179.0 Q 107.9 179.4, 107.9 180.0 Q 107.9 180.6, 108.2 180.9 Q 108.5 181.2, 108.8 181.4 Q 109.2 181.6, 109.9 181.8 Q 110.8 182.1, 111.3 182.4 Q 111.9 182.6, 112.3 183.2 Q 112.6 183.8, 112.6 184.7 Q 112.6 186.1, 111.7 186.8 Q 110.8 187.6, 109.3 187.6 Q 108.4 187.6, 107.7 187.4 Q 107.1 187.2, 106.3 186.9 L 106.7 185.8 " fill="#000000"/>
<path class="legend" d="M 113.8 177.4 L 115.1 177.4 L 115.1 181.6 L 120.2 181.6 L 120.2 177.4 L 121.5 177.4 L 121.5 187.3 L 120.2 187.3 L 120.2 182.7 L 115.1 182.7 L 115.1 187.3 L 113.8 187.3 L 113.8 177.4 " fill="#000000"/>
<path class="legend" d="M 130.5 187.3 L 129.5 184.4 L 125.6 184.4 L 124.6 187.3 L 123.2 187.3 L 126.6 177.4 L 128.3 177.4 L 131.8 187.3 L 130.5 187.3 M 125.9 183.3 L 129.1 183.3 L 127.5 178.8 L 125.9 183.3 " fill="#000000"/>
<path class="legend" d="M 135.4 177.4 Q 137.1 177.4, 137.9 178.2 Q 138.8 178.9, 138.8 180.3 Q 138.8 181.7, 137.9 182.5 Q 137.0 183.2, 135.4 183.2 L 133.8 183.2 L 133.8 187.3 L 132.5 187.3 L 132.5 177.4 L 135.4 177.4 M 135.4 182.1 Q 136.4 182.1, 136.9 181.7 Q 137.4 181.2, 137.4 180.3 Q 137.4 179.4, 136.9 179.0 Q 136.4 178.5, 135.4 178.5 L 133.8 178.5 L 133.8 182.1 L 135.4 182.1 " fill="#000000"/>
<path class="legend" d="M 139.9 185.7 L 141.3 185.7 L 141.3 187.1 L 139.9 187.1 L 139.9 185.7 M 139.9 180.9 L 141.3 180.9 L 141.3 182.3 L 139.9 182.3 L 139.9 180.9 " fill="#000000"/>
<path class="legend" d="" fill="#000000"/>
<path class="legend" d="M 148.0 182.3 L 153.2 182.3 L 153.2 183.4 L 148.0 183.4 L 148.0 182.3 " fill="#000000"/>
<path class="legend" d="M 160.8 183.9 L 162.0 183.9 L 162.0 185.0 L 160.8 185.0 L 160.8 187.3 L 159.5 187.3 L 159.5 185.0 L 154.4 185.0 L 154.4 184.1 L 158.7 177.4 L 160.8 177.4 L 160.8 183.9 M 156.0 183.9 L 159.5 183.9 L 159.5 178.3 L 156.0 183.9 " fill="#000000"/>
<path class="legend" d="M 166.5 177.3 Q 168.2 177.3, 169.1 178.5 Q 170.0 179.7, 170.0 182.1 Q 170.0 184.7, 168.9 186.1 Q 167.8 187.4, 165.7 187.4 Q 165.1 187.4, 164.6 187.3 Q 164.0 187.1, 163.5 186.8 L 164.1 185.9 Q 164.8 186.3, 165.7 186.3 Q 167.1 186.3, 167.8 185.4 Q 168.5 184.5, 168.6 182.6 Q 168.1 183.1, 167.5 183.3 Q 166.8 183.6, 166.1 183.6 Q 165.3 183.6, 164.6 183.2 Q 163.9 182.8, 163.5 182.1 Q 163.2 181.5, 163.2 180.6 Q 163.2 179.6, 163.6 178.9 Q 164.0 178.1, 164.8 177.7 Q 165.5 177.3, 166.5 177.3 M 164.5 180.6 Q 164.5 181.5, 165.0 182.0 Q 165.5 182.5, 166.4 182.5 Q 167.0 182.5, 167.6 182.2 Q 168.2 182.0, 168.6 181.6 Q 168.5 179.9, 168.0 179.2 Q 167.5 178.4, 166.5 178.4 Q 165.9 178.4, 165.5 178.7 Q 165.1 179.0, 164.8 179.5 Q 164.5 180.0, 164.5 180.6 " fill="#000000"/>
<path class="legend" d="M 171.5 185.9 L 172.9 185.9 L 172.9 187.3 L 171.5 187.3 L 171.5 185.9 " fill="#000000"/>
<path class="legend" d="M 178.1 181.1 Q 179.0 181.1, 179.7 181.5 Q 180.4 181.9, 180.7 182.6 Q 181.1 183.2, 181.1 184.1 Q 181.1 185.1, 180.7 185.8 Q 180.3 186.6, 179.5 187.0 Q 178.8 187.4, 177.8 187.4 Q 176.0 187.4, 175.1 186.2 Q 174.3 185.0, 174.3 182.6 Q 174.3 180.0, 175.3 178.7 Q 176.5 177.3, 178.6 177.3 Q 179.2 177.3, 179.7 177.4 Q 180.2 177.6, 180.7 177.9 L 180.2 178.8 Q 179.5 178.4, 178.6 178.4 Q 177.2 178.4, 176.5 179.3 Q 175.8 180.2, 175.7 182.1 Q 176.2 181.6, 176.8 181.4 Q 177.4 181.1, 178.1 181.1 M 177.8 186.3 Q 178.3 186.3, 178.8 186.0 Q 179.2 185.7, 179.5 185.2 Q 179.7 184.7, 179.7 184.1 Q 179.7 183.2, 179.2 182.7 Q 178.7 182.2, 177.9 182.2 Q 177.3 182.2, 176.7 182.5 Q 176.1 182.7, 175.7 183.1 Q 175.7 184.8, 176.2 185.5 Q 176.8 186.3, 177.8 186.3 " fill="#000000"/>
<path class="legend" d="M 188.8 183.9 L 190.0 183.9 L 190.0 185.0 L 188.8 185.0 L 188.8 187.3 L 187.5 187.3 L 187.5 185.0 L 182.4 185.0 L 182.4 184.1 L 186.7 177.4 L 188.8 177.4 L 188.8 183.9 M 184.0 183.9 L 187.5 183.9 L 187.5 178.3 L 184.0 183.9 " fill="#000000"/>
<ellipse cx="293.7" cy="122.1" rx="6.3" ry="6.3" class="atom-1" style="fill:#E5E533;fill-rule:evenodd;stroke:#E5E533;stroke-width:1.0px;stroke-linecap:butt;stroke-linejoin:miter;stroke-opacity:1"/>
<ellipse cx="283.1" cy="92.5" rx="6.3" ry="6.3" class="atom-2" style="fill:#9999E5;fill-rule:evenodd;stroke:#9999E5;stroke-width:1.0px;stroke-linecap:butt;stroke-linejoin:miter;stroke-opacity:1"/>
<path class="bond-0 atom-0 atom-1" d="M 320.1,132.2 L 297.5,125.6" style="fill:none;fill-rule:evenodd;stroke:#E5E5E5;stroke-width:1.7px;stroke-linecap:butt;stroke-linejoin:miter;stroke-opacity:1"/>
<path class="bond-0 atom-0 atom-1" d="M 321.4,127.6 L 298.8,121.1" style="fill:none;fill-rule:evenodd;stroke:#E5E5E5;stroke-width:1.7px;stroke-linecap:butt;stroke-linejoin:miter;stroke-opacity:1;stroke-dasharray:6,4"/>
<path class="bond-1 atom-1 atom-2" d="M 291.8,116.6 L 283.1,92.5" style="fill:none;fill-rule:evenodd;stroke:#000000;stroke-width:2.0px;stroke-linecap:butt;stroke-linejoin:miter;stroke-opacity:1"/>
<path class="bond-2 atom-2 atom-3" d="M 283.1,92.5 L 303.4,68.5" style="fill:none;fill-rule:evenodd;stroke:#000000;stroke-width:2.0px;stroke-linecap:butt;stroke-linejoin:miter;stroke-opacity:1"/>
<path class="bond-3 atom-3 atom-4" d="M 303.4,68.5 L 293.0,39.5" style="fill:none;fill-rule:evenodd;stroke:#E5E5E5;stroke-width:1.7px;stroke-linecap:butt;stroke-linejoin:miter;stroke-opacity:1"/>
<path class="bond-4 atom-1 atom-5" d="M 288.1,126.2 L 277.3,142.1" style="fill:none;fill-rule:evenodd;stroke:#E5E5E5;stroke-width:1.7px;stroke-linecap:butt;stroke-linejoin:miter;stroke-opacity:1"/>
<path class="bond-4 atom-1 atom-5" d="M 292.0,128.9 L 281.2,144.7" style="fill:none;fill-rule:evenodd;stroke:#E5E5E5;stroke-width:1.7px;stroke-linecap:butt;stroke-linejoin:miter;stroke-opacity:1;stroke-dasharray:6,4"/>
<path d="M 283.5,93.7 L 283.1,92.5 L 284.1,91.3" style="fill:none;stroke:#000000;stroke-width:2.0px;stroke-linecap:butt;stroke-linejoin:miter;stroke-miterlimit:10;stroke-opacity:1;"/>
<path d="M 302.9,69.1 L 303.4,68.5 L 303.1,67.8" style="fill:none;stroke:#000000;stroke-width:2.0px;stroke-linecap:butt;stroke-linejoin:miter;stroke-miterlimit:10;stroke-opacity:1;"/>
<path class="atom-0" d="M 322.2 129.8 L 323.5 128.5 L 321.8 128.1 L 322.1 127.3 L 323.7 128.1 L 323.4 126.3 L 324.4 126.3 L 324.1 128.0 L 325.7 127.3 L 326.0 128.1 L 324.3 128.5 L 325.5 129.8 L 324.8 130.4 L 323.9 128.7 L 323.0 130.4 L 322.2 129.8 " fill="#191919"/>
<path class="atom-1" d="M 291.8 117.6 L 294.7 122.3 Q 295.0 122.8, 295.4 123.6 Q 295.9 124.5, 295.9 124.5 L 295.9 117.6 L 297.1 117.6 L 297.1 126.5 L 295.9 126.5 L 292.8 121.4 Q 292.4 120.7, 292.0 120.1 Q 291.6 119.4, 291.5 119.2 L 291.5 126.5 L 290.4 126.5 L 290.4 117.6 L 291.8 117.6 " fill="#000000"/>
<path class="atom-4" d="M 291.1 37.9 L 292.4 36.6 L 290.6 36.3 L 290.9 35.4 L 292.5 36.2 L 292.3 34.4 L 293.2 34.4 L 293.0 36.2 L 294.6 35.4 L 294.9 36.3 L 293.1 36.6 L 294.3 37.9 L 293.6 38.5 L 292.7 36.8 L 291.8 38.5 L 291.1 37.9 " fill="#191919"/>
<path class="atom-5" d="M 274.4 147.0 L 275.7 145.7 L 274.0 145.4 L 274.2 144.5 L 275.8 145.3 L 275.6 143.5 L 276.6 143.5 L 276.3 145.3 L 277.9 144.5 L 278.2 145.4 L 276.4 145.7 L 277.7 147.0 L 276.9 147.6 L 276.1 145.9 L 275.2 147.6 L 274.4 147.0 " fill="#191919"/>
<path class="legend" d="M 210.0 177.4 L 215.9 177.4 L 215.9 178.5 L 211.3 178.5 L 211.3 181.5 L 215.4 181.5 L 215.4 182.7 L 211.3 182.7 L 211.3 187.3 L 210.0 187.3 L 210.0 177.4 " fill="#000000"/>
<path class="legend" d="M 216.7 183.7 Q 216.7 181.9, 217.6 180.9 Q 218.5 180.0, 220.1 180.0 Q 221.7 180.0, 222.4 180.9 Q 223.1 181.9, 223.1 183.6 L 223.1 183.9 L 218.0 183.9 Q 218.1 185.1, 218.6 185.7 Q 219.2 186.4, 220.2 186.4 Q 220.8 186.4, 221.3 186.2 Q 221.8 186.1, 222.4 185.8 L 222.8 186.7 Q 222.1 187.1, 221.4 187.3 Q 220.8 187.4, 220.1 187.4 Q 218.5 187.4, 217.6 186.4 Q 216.7 185.4, 216.7 183.7 M 220.1 181.0 Q 219.3 181.0, 218.7 181.5 Q 218.3 182.0, 218.1 182.9 L 221.7 182.9 Q 221.6 181.9, 221.2 181.5 Q 220.8 181.0, 220.1 181.0 " fill="#000000"/>
<path class="legend" d="M 224.1 185.3 Q 224.1 184.2, 225.0 183.6 Q 226.0 182.9, 227.7 182.9 L 228.7 182.9 L 228.7 182.7 Q 228.7 181.8, 228.3 181.4 Q 228.0 181.0, 227.1 181.0 Q 226.5 181.0, 226.1 181.1 Q 225.6 181.2, 224.9 181.5 L 224.5 180.6 Q 225.8 180.0, 227.1 180.0 Q 228.6 180.0, 229.3 180.6 Q 230.0 181.3, 230.0 182.7 L 230.0 187.3 L 229.0 187.3 Q 229.0 187.2, 229.0 187.0 Q 228.9 186.8, 228.8 186.5 Q 227.8 187.5, 226.5 187.5 Q 225.4 187.5, 224.7 186.9 Q 224.1 186.3, 224.1 185.3 M 225.4 185.3 Q 225.4 185.9, 225.8 186.1 Q 226.1 186.4, 226.7 186.4 Q 227.3 186.4, 227.8 186.2 Q 228.4 185.9, 228.7 185.5 L 228.7 183.9 L 227.7 183.9 Q 226.6 183.9, 226.0 184.3 Q 225.4 184.6, 225.4 185.3 " fill="#000000"/>
<path class="legend" d="M 231.6 181.1 L 231.6 180.1 L 233.0 180.1 L 233.2 178.0 L 234.2 178.0 L 234.2 180.1 L 236.4 180.1 L 236.4 181.1 L 234.2 181.1 L 234.2 185.1 Q 234.2 186.3, 235.2 186.3 Q 235.7 186.3, 236.3 186.1 L 236.5 187.1 Q 235.7 187.4, 235.0 187.4 Q 234.1 187.4, 233.5 186.8 Q 232.9 186.3, 232.9 185.1 L 232.9 181.1 L 231.6 181.1 " fill="#000000"/>
<path class="legend" d="M 243.5 180.1 L 243.5 187.3 L 242.4 187.3 L 242.2 186.3 Q 241.3 187.4, 239.8 187.4 Q 238.6 187.4, 238.0 186.8 Q 237.3 186.1, 237.3 184.9 L 237.3 180.1 L 238.7 180.1 L 238.7 184.8 Q 238.7 185.6, 239.0 186.0 Q 239.3 186.4, 240.0 186.4 Q 240.7 186.4, 241.3 186.1 Q 241.8 185.8, 242.1 185.2 L 242.1 180.1 L 243.5 180.1 " fill="#000000"/>
<path class="legend" d="M 246.2 180.1 L 246.3 181.1 Q 247.1 180.0, 248.3 180.0 Q 248.7 180.0, 249.2 180.1 L 249.0 181.3 Q 248.4 181.1, 248.1 181.1 Q 247.5 181.1, 247.1 181.4 Q 246.7 181.6, 246.4 182.1 L 246.4 187.3 L 245.1 187.3 L 245.1 180.1 L 246.2 180.1 " fill="#000000"/>
<path class="legend" d="M 249.9 183.7 Q 249.9 181.9, 250.8 180.9 Q 251.7 180.0, 253.3 180.0 Q 254.9 180.0, 255.6 180.9 Q 256.3 181.9, 256.3 183.6 L 256.3 183.9 L 251.3 183.9 Q 251.3 185.1, 251.9 185.7 Q 252.4 186.4, 253.4 186.4 Q 254.0 186.4, 254.5 186.2 Q 255.0 186.1, 255.7 185.8 L 256.0 186.7 Q 255.3 187.1, 254.7 187.3 Q 254.0 187.4, 253.4 187.4 Q 251.7 187.4, 250.8 186.4 Q 249.9 185.4, 249.9 183.7 M 253.3 181.0 Q 252.5 181.0, 252.0 181.5 Q 251.5 182.0, 251.3 182.9 L 254.9 182.9 Q 254.8 181.9, 254.4 181.5 Q 254.1 181.0, 253.3 181.0 " fill="#000000"/>
<path class="legend" d="" fill="#000000"/>
<path class="legend" d="M 263.1 186.2 L 265.2 186.2 L 265.2 178.8 L 262.8 179.5 L 262.5 178.7 L 265.6 177.3 L 266.5 177.5 L 266.5 186.2 L 268.5 186.2 L 268.5 187.3 L 263.1 187.3 L 263.1 186.2 " fill="#000000"/>
<path class="legend" d="M 270.1 186.2 L 272.3 186.2 L 272.3 178.8 L 269.9 179.5 L 269.6 178.7 L 272.6 177.3 L 273.6 177.5 L 273.6 186.2 L 275.6 186.2 L 275.6 187.3 L 270.1 187.3 L 270.1 186.2 " fill="#000000"/>
<path class="legend" d="M 283.1 183.9 L 284.3 183.9 L 284.3 185.0 L 283.1 185.0 L 283.1 187.3 L 281.8 187.3 L 281.8 185.0 L 276.6 185.0 L 276.6 184.1 L 281.0 177.4 L 283.1 177.4 L 283.1 183.9 M 278.3 183.9 L 281.8 183.9 L 281.8 178.3 L 278.3 183.9 " fill="#000000"/>
<path class="legend" d="M 289.1 181.1 Q 289.9 181.1, 290.7 181.5 Q 291.4 181.8, 291.8 182.5 Q 292.2 183.2, 292.2 184.2 Q 292.2 185.2, 291.7 185.9 Q 291.2 186.6, 290.4 187.0 Q 289.6 187.4, 288.6 187.4 Q 287.7 187.4, 286.9 187.1 Q 286.0 186.7, 285.5 186.1 L 286.3 185.2 Q 286.8 185.7, 287.4 186.0 Q 288.0 186.3, 288.7 186.3 Q 289.6 186.3, 290.2 185.7 Q 290.8 185.2, 290.8 184.2 Q 290.8 183.1, 290.2 182.6 Q 289.6 182.1, 288.6 182.1 Q 287.7 182.1, 286.8 182.5 L 286.0 182.1 L 286.5 177.4 L 291.6 177.4 L 291.4 178.5 L 287.6 178.5 L 287.3 181.4 Q 288.2 181.1, 289.1 181.1 " fill="#000000"/>
<path class="legend" d="" fill="#000000"/>
<path class="legend" d="M 298.5 176.4 L 299.7 176.4 L 299.7 190.0 L 298.5 190.0 L 298.5 176.4 " fill="#000000"/>
<path class="legend" d="" fill="#000000"/>
<path class="legend" d="M 306.9 185.8 Q 307.0 185.8, 307.5 186.0 Q 307.9 186.2, 308.5 186.3 Q 309.0 186.4, 309.5 186.4 Q 310.4 186.4, 311.0 186.0 Q 311.5 185.5, 311.5 184.7 Q 311.5 184.2, 311.2 183.8 Q 311.0 183.5, 310.5 183.3 Q 310.1 183.1, 309.4 182.9 Q 308.5 182.7, 308.0 182.4 Q 307.5 182.1, 307.1 181.6 Q 306.7 181.1, 306.7 180.2 Q 306.7 178.9, 307.6 178.2 Q 308.4 177.4, 310.1 177.4 Q 311.3 177.4, 312.6 177.9 L 312.3 179.0 Q 311.1 178.5, 310.2 178.5 Q 309.2 178.5, 308.7 178.9 Q 308.1 179.3, 308.1 180.0 Q 308.1 180.6, 308.4 180.9 Q 308.7 181.2, 309.1 181.4 Q 309.5 181.6, 310.2 181.8 Q 311.1 182.1, 311.6 182.3 Q 312.1 182.6, 312.5 183.2 Q 312.9 183.7, 312.9 184.7 Q 312.9 186.1, 312.0 186.8 Q 311.1 187.6, 309.5 187.6 Q 308.6 187.6, 308.0 187.4 Q 307.3 187.2, 306.5 186.9 L 306.9 185.8 " fill="#000000"/>
<path class="legend" d="M 314.0 177.4 L 315.4 177.4 L 315.4 181.6 L 320.5 181.6 L 320.5 177.4 L 321.8 177.4 L 321.8 187.3 L 320.5 187.3 L 320.5 182.7 L 315.4 182.7 L 315.4 187.3 L 314.0 187.3 L 314.0 177.4 " fill="#000000"/>
<path class="legend" d="M 330.8 187.3 L 329.8 184.4 L 325.8 184.4 L 324.8 187.3 L 323.5 187.3 L 326.9 177.4 L 328.6 177.4 L 332.1 187.3 L 330.8 187.3 M 326.2 183.3 L 329.4 183.3 L 327.8 178.8 L 326.2 183.3 " fill="#000000"/>
<path class="legend" d="M 335.7 177.4 Q 337.4 177.4, 338.3 178.1 Q 339.1 178.9, 339.1 180.3 Q 339.1 181.7, 338.2 182.4 Q 337.4 183.2, 335.7 183.2 L 334.1 183.2 L 334.1 187.3 L 332.8 187.3 L 332.8 177.4 L 335.7 177.4 M 335.7 182.1 Q 336.7 182.1, 337.2 181.6 Q 337.7 181.2, 337.7 180.3 Q 337.7 179.4, 337.2 179.0 Q 336.7 178.5, 335.7 178.5 L 334.1 178.5 L 334.1 182.1 L 335.7 182.1 " fill="#000000"/>
<path class="legend" d="M 340.3 185.7 L 341.7 185.7 L 341.7 187.1 L 340.3 187.1 L 340.3 185.7 M 340.3 180.8 L 341.7 180.8 L 341.7 182.2 L 340.3 182.2 L 340.3 180.8 " fill="#000000"/>
<path class="legend" d="" fill="#000000"/>
<path class="legend" d="M 348.4 182.3 L 353.5 182.3 L 353.5 183.4 L 348.4 183.4 L 348.4 182.3 " fill="#000000"/>
<path class="legend" d="M 361.2 183.9 L 362.4 183.9 L 362.4 185.0 L 361.2 185.0 L 361.2 187.3 L 359.8 187.3 L 359.8 185.0 L 354.7 185.0 L 354.7 184.1 L 359.1 177.4 L 361.2 177.4 L 361.2 183.9 M 356.3 183.9 L 359.8 183.9 L 359.8 178.3 L 356.3 183.9 " fill="#000000"/>
<path class="legend" d="M 366.9 177.3 Q 368.6 177.3, 369.5 178.5 Q 370.4 179.7, 370.4 182.0 Q 370.4 184.7, 369.3 186.0 Q 368.2 187.4, 366.1 187.4 Q 365.5 187.4, 364.9 187.3 Q 364.4 187.1, 363.9 186.8 L 364.5 185.9 Q 365.2 186.3, 366.1 186.3 Q 367.5 186.3, 368.2 185.4 Q 368.9 184.5, 369.0 182.6 Q 368.5 183.1, 367.8 183.3 Q 367.2 183.6, 366.5 183.6 Q 365.7 183.6, 365.0 183.2 Q 364.3 182.8, 363.9 182.1 Q 363.5 181.4, 363.5 180.6 Q 363.5 179.6, 364.0 178.9 Q 364.4 178.1, 365.1 177.7 Q 365.9 177.3, 366.9 177.3 M 364.9 180.6 Q 364.9 181.4, 365.4 181.9 Q 365.9 182.4, 366.8 182.4 Q 367.4 182.4, 368.0 182.2 Q 368.6 182.0, 369.0 181.5 Q 368.9 179.9, 368.4 179.1 Q 367.9 178.4, 366.9 178.4 Q 366.3 178.4, 365.9 178.7 Q 365.4 179.0, 365.2 179.5 Q 364.9 179.9, 364.9 180.6 " fill="#000000"/>
<path class="legend" d="M 371.9 185.9 L 373.3 185.9 L 373.3 187.3 L 371.9 187.3 L 371.9 185.9 " fill="#000000"/>
<path class="legend" d="M 378.3 187.4 Q 376.5 187.4, 375.6 186.1 Q 374.7 184.7, 374.7 182.3 Q 374.7 179.9, 375.6 178.6 Q 376.5 177.3, 378.3 177.3 Q 380.1 177.3, 381.0 178.6 Q 381.9 179.9, 381.9 182.3 Q 381.9 184.7, 381.0 186.1 Q 380.1 187.4, 378.3 187.4 M 378.3 186.3 Q 379.4 186.3, 379.9 185.3 Q 380.5 184.3, 380.5 182.3 Q 380.5 180.4, 379.9 179.4 Q 379.4 178.4, 378.3 178.4 Q 377.2 178.4, 376.6 179.4 Q 376.1 180.4, 376.1 182.3 Q 376.1 184.3, 376.6 185.3 Q 377.2 186.3, 378.3 186.3 " fill="#000000"/>
<path class="legend" d="M 388.1 182.1 Q 389.1 182.3, 389.5 183.0 Q 390.0 183.6, 390.0 184.6 Q 390.0 185.4, 389.6 186.1 Q 389.2 186.7, 388.4 187.1 Q 387.6 187.4, 386.6 187.4 Q 385.5 187.4, 384.7 187.1 Q 384.0 186.7, 383.3 185.9 L 384.1 185.1 Q 384.7 185.8, 385.3 186.1 Q 385.8 186.3, 386.6 186.3 Q 387.5 186.3, 388.1 185.8 Q 388.6 185.3, 388.6 184.6 Q 388.6 183.6, 388.0 183.1 Q 387.5 182.6, 386.2 182.6 L 385.5 182.6 L 385.5 181.6 L 386.2 181.6 Q 387.2 181.6, 387.8 181.2 Q 388.4 180.7, 388.4 179.8 Q 388.4 179.1, 387.9 178.8 Q 387.4 178.4, 386.6 178.4 Q 385.8 178.4, 385.3 178.7 Q 384.8 179.0, 384.4 179.7 L 383.4 179.2 Q 383.8 178.4, 384.6 177.8 Q 385.4 177.3, 386.6 177.3 Q 388.1 177.3, 388.9 177.9 Q 389.8 178.6, 389.8 179.8 Q 389.8 180.6, 389.4 181.2 Q 388.9 181.7, 388.1 182.1 " fill="#000000"/>
<ellipse cx="478.4" cy="147.6" rx="6.3" ry="6.3" class="atom-1" style="fill:#E5E533;fill-rule:evenodd;stroke:#E5E533;stroke-width:1.0px;stroke-linecap:butt;stroke-linejoin:miter;stroke-opacity:1"/>
<ellipse cx="526.3" cy="130.4" rx="6.3" ry="6.3" class="atom-4" style="fill:#E5E533;fill-rule:evenodd;stroke:#E5E533;stroke-width:1.0px;stroke-linecap:butt;stroke-linejoin:miter;stroke-opacity:1"/>
<ellipse cx="496.1" cy="121.6" rx="6.3" ry="6.3" class="atom-5" style="fill:#E5E533;fill-rule:evenodd;stroke:#E5E533;stroke-width:1.0px;stroke-linecap:butt;stroke-linejoin:miter;stroke-opacity:1"/>
<ellipse cx="485.5" cy="92.1" rx="6.3" ry="6.3" class="atom-6" style="fill:#9999E5;fill-rule:evenodd;stroke:#9999E5;stroke-width:1.0px;stroke-linecap:butt;stroke-linejoin:miter;stroke-opacity:1"/>
<path class="bond-0 atom-0 atom-1" d="M 450.2,148.5 L 478.4,147.6" style="fill:none;fill-rule:evenodd;stroke:#E5E5E5;stroke-width:1.7px;stroke-linecap:butt;stroke-linejoin:miter;stroke-opacity:1"/>
<path class="bond-1 atom-1 atom-2" d="M 475.5,147.7 L 492.7,169.8" style="fill:none;fill-rule:evenodd;stroke:#E5E5E5;stroke-width:1.7px;stroke-linecap:butt;stroke-linejoin:miter;stroke-opacity:1"/>
<path class="bond-1 atom-1 atom-2" d="M 479.8,145.6 L 496.4,167.0" style="fill:none;fill-rule:evenodd;stroke:#E5E5E5;stroke-width:1.7px;stroke-linecap:butt;stroke-linejoin:miter;stroke-opacity:1;stroke-dasharray:6,4"/>
<path class="bond-2 atom-3 atom-4" d="M 553.3,116.4 L 526.4,133.1" style="fill:none;fill-rule:evenodd;stroke:#E5E5E5;stroke-width:1.7px;stroke-linecap:butt;stroke-linejoin:miter;stroke-opacity:1"/>
<path class="bond-2 atom-3 atom-4" d="M 550.8,112.4 L 523.2,129.5" style="fill:none;fill-rule:evenodd;stroke:#E5E5E5;stroke-width:1.7px;stroke-linecap:butt;stroke-linejoin:miter;stroke-opacity:1;stroke-dasharray:6,4"/>
<path class="bond-3 atom-4 atom-5" d="M 526.3,130.4 L 500.5,122.9" style="fill:none;fill-rule:evenodd;stroke:#000000;stroke-width:2.0px;stroke-linecap:butt;stroke-linejoin:miter;stroke-opacity:1"/>
<path class="bond-3 atom-4 atom-5" d="M 525.6,125.3 L 501.8,118.4" style="fill:none;fill-rule:evenodd;stroke:#000000;stroke-width:2.0px;stroke-linecap:butt;stroke-linejoin:miter;stroke-opacity:1;stroke-dasharray:6,4"/>
<path class="bond-4 atom-5 atom-6" d="M 494.1,116.2 L 485.5,92.1" style="fill:none;fill-rule:evenodd;stroke:#000000;stroke-width:2.0px;stroke-linecap:butt;stroke-linejoin:miter;stroke-opacity:1"/>
<path class="bond-5 atom-6 atom-7" d="M 485.5,92.1 L 505.7,68.1" style="fill:none;fill-rule:evenodd;stroke:#000000;stroke-width:2.0px;stroke-linecap:butt;stroke-linejoin:miter;stroke-opacity:1"/>
<path class="bond-6 atom-7 atom-8" d="M 505.7,68.1 L 501.4,56.0" style="fill:none;fill-rule:evenodd;stroke:#000000;stroke-width:2.0px;stroke-linecap:butt;stroke-linejoin:miter;stroke-opacity:1"/>
<path class="bond-6 atom-7 atom-8" d="M 501.4,56.0 L 497.1,44.0" style="fill:none;fill-rule:evenodd;stroke:#0000FF;stroke-width:2.0px;stroke-linecap:butt;stroke-linejoin:miter;stroke-opacity:1"/>
<path class="bond-7 atom-8 atom-9" d="M 499.5,33.3 L 514.9,15.1" style="fill:none;fill-rule:evenodd;stroke:#E5E5E5;stroke-width:1.7px;stroke-linecap:butt;stroke-linejoin:miter;stroke-opacity:1"/>
<path class="bond-8 atom-8 atom-10" d="M 490.7,37.7 L 467.3,33.5" style="fill:none;fill-rule:evenodd;stroke:#E5E5E5;stroke-width:1.7px;stroke-linecap:butt;stroke-linejoin:miter;stroke-opacity:1"/>
<path class="bond-9 atom-5 atom-1" d="M 492.4,127.1 L 478.4,147.6" style="fill:none;fill-rule:evenodd;stroke:#000000;stroke-width:2.0px;stroke-linecap:butt;stroke-linejoin:miter;stroke-opacity:1"/>
<path class="bond-9 atom-5 atom-1" d="M 496.3,129.8 L 484.3,147.4" style="fill:none;fill-rule:evenodd;stroke:#000000;stroke-width:2.0px;stroke-linecap:butt;stroke-linejoin:miter;stroke-opacity:1;stroke-dasharray:6,4"/>
<path class="bond-10 atom-4 atom-11" d="M 523.9,129.7 L 524.7,156.3" style="fill:none;fill-rule:evenodd;stroke:#E5E5E5;stroke-width:1.7px;stroke-linecap:butt;stroke-linejoin:miter;stroke-opacity:1"/>
<path class="bond-10 atom-4 atom-11" d="M 528.6,129.0 L 529.4,156.2" style="fill:none;fill-rule:evenodd;stroke:#E5E5E5;stroke-width:1.7px;stroke-linecap:butt;stroke-linejoin:miter;stroke-opacity:1;stroke-dasharray:6,4"/>
<path d="M 485.9,93.3 L 485.5,92.1 L 486.5,90.9" style="fill:none;stroke:#000000;stroke-width:2.0px;stroke-linecap:butt;stroke-linejoin:miter;stroke-miterlimit:10;stroke-opacity:1;"/>
<path d="M 504.7,69.3 L 505.7,68.1 L 505.5,67.5" style="fill:none;stroke:#000000;stroke-width:2.0px;stroke-linecap:butt;stroke-linejoin:miter;stroke-miterlimit:10;stroke-opacity:1;"/>
<path class="atom-0" d="M 445.4 147.6 L 446.7 146.3 L 444.9 145.9 L 445.2 145.0 L 446.8 145.8 L 446.6 144.1 L 447.5 144.1 L 447.2 145.8 L 448.9 145.1 L 449.1 145.9 L 447.4 146.3 L 448.6 147.6 L 447.9 148.2 L 447.0 146.5 L 446.1 148.2 L 445.4 147.6 " fill="#191919"/>
<path class="atom-2" d="M 496.0 171.5 L 497.3 170.1 L 495.6 169.8 L 495.8 168.9 L 497.4 169.7 L 497.2 167.9 L 498.2 167.9 L 497.9 169.7 L 499.5 168.9 L 499.8 169.8 L 498.0 170.1 L 499.3 171.4 L 498.5 172.0 L 497.7 170.3 L 496.8 172.0 L 496.0 171.5 " fill="#191919"/>
<path class="atom-3" d="M 551.3 112.9 L 552.6 111.5 L 550.9 111.2 L 551.1 110.3 L 552.7 111.1 L 552.5 109.3 L 553.4 109.3 L 553.2 111.1 L 554.8 110.3 L 555.1 111.2 L 553.3 111.5 L 554.6 112.8 L 553.8 113.4 L 552.9 111.7 L 552.1 113.4 L 551.3 112.9 " fill="#191919"/>
<path class="atom-5" d="M 494.1 117.2 L 497.0 121.9 Q 497.3 122.4, 497.8 123.2 Q 498.3 124.1, 498.3 124.1 L 498.3 117.2 L 499.5 117.2 L 499.5 126.1 L 498.3 126.1 L 495.1 120.9 Q 494.8 120.3, 494.4 119.6 Q 494.0 119.0, 493.9 118.7 L 493.9 126.1 L 492.7 126.1 L 492.7 117.2 L 494.1 117.2 " fill="#000000"/>
<path class="atom-8" d="M 493.1 34.1 L 496.0 38.8 Q 496.3 39.2, 496.8 40.1 Q 497.3 40.9, 497.3 41.0 L 497.3 34.1 L 498.5 34.1 L 498.5 43.0 L 497.3 43.0 L 494.1 37.8 Q 493.8 37.2, 493.4 36.5 Q 493.0 35.8, 492.9 35.6 L 492.9 43.0 L 491.7 43.0 L 491.7 34.1 L 493.1 34.1 " fill="#0000FF"/>
<path class="atom-9" d="M 513.7 13.5 L 515.0 12.2 L 513.3 11.8 L 513.5 11.0 L 515.1 11.8 L 514.9 10.0 L 515.8 10.0 L 515.6 11.7 L 517.2 11.0 L 517.5 11.8 L 515.7 12.2 L 517.0 13.5 L 516.2 14.1 L 515.3 12.4 L 514.5 14.1 L 513.7 13.5 " fill="#191919"/>
<path class="atom-10" d="M 462.5 32.0 L 463.8 30.6 L 462.1 30.3 L 462.3 29.4 L 463.9 30.2 L 463.7 28.4 L 464.6 28.4 L 464.4 30.2 L 466.0 29.4 L 466.3 30.3 L 464.5 30.6 L 465.8 31.9 L 465.0 32.5 L 464.1 30.8 L 463.3 32.5 L 462.5 32.0 " fill="#191919"/>
<path class="atom-11" d="M 525.6 160.8 L 526.9 159.5 L 525.1 159.1 L 525.4 158.2 L 527.0 159.0 L 526.8 157.3 L 527.7 157.3 L 527.5 159.0 L 529.1 158.3 L 529.4 159.1 L 527.6 159.5 L 528.9 160.8 L 528.1 161.4 L 527.2 159.7 L 526.3 161.4 L 525.6 160.8 " fill="#191919"/>
<path class="legend" d="M 410.0 177.3 L 415.9 177.3 L 415.9 178.4 L 411.3 178.4 L 411.3 181.5 L 415.4 181.5 L 415.4 182.6 L 411.3 182.6 L 411.3 187.3 L 410.0 187.3 L 410.0 177.3 " fill="#000000"/>
<path class="legend" d="M 416.7 183.6 Q 416.7 181.9, 417.6 180.9 Q 418.5 179.9, 420.1 179.9 Q 421.7 179.9, 422.4 180.9 Q 423.1 181.8, 423.1 183.6 L 423.1 183.8 L 418.1 183.8 Q 418.1 185.1, 418.7 185.7 Q 419.2 186.3, 420.2 186.3 Q 420.8 186.3, 421.3 186.2 Q 421.9 186.1, 422.5 185.8 L 422.9 186.7 Q 422.1 187.1, 421.5 187.2 Q 420.9 187.4, 420.2 187.4 Q 418.5 187.4, 417.6 186.4 Q 416.7 185.4, 416.7 183.6 M 420.1 181.0 Q 419.3 181.0, 418.8 181.4 Q 418.3 181.9, 418.1 182.8 L 421.8 182.8 Q 421.7 181.9, 421.3 181.4 Q 420.9 181.0, 420.1 181.0 " fill="#000000"/>
<path class="legend" d="M 424.2 185.3 Q 424.2 184.2, 425.1 183.5 Q 426.0 182.9, 427.7 182.9 L 428.8 182.9 L 428.8 182.6 Q 428.8 181.7, 428.4 181.3 Q 428.1 181.0, 427.2 181.0 Q 426.6 181.0, 426.1 181.1 Q 425.7 181.2, 425.0 181.5 L 424.6 180.6 Q 425.9 179.9, 427.2 179.9 Q 428.7 179.9, 429.4 180.6 Q 430.1 181.2, 430.1 182.6 L 430.1 187.3 L 429.1 187.3 Q 429.1 187.2, 429.1 187.0 Q 429.0 186.8, 428.9 186.4 Q 427.9 187.4, 426.6 187.4 Q 425.5 187.4, 424.8 186.9 Q 424.2 186.3, 424.2 185.3 M 425.5 185.3 Q 425.5 185.8, 425.8 186.1 Q 426.2 186.4, 426.8 186.4 Q 427.4 186.4, 427.9 186.2 Q 428.4 185.9, 428.8 185.4 L 428.8 183.9 L 427.8 183.9 Q 426.7 183.9, 426.1 184.2 Q 425.5 184.6, 425.5 185.3 " fill="#000000"/>
<path class="legend" d="M 431.7 181.1 L 431.7 180.0 L 433.1 180.0 L 433.3 177.9 L 434.3 177.9 L 434.3 180.0 L 436.5 180.0 L 436.5 181.1 L 434.3 181.1 L 434.3 185.1 Q 434.3 186.3, 435.4 186.3 Q 435.8 186.3, 436.4 186.1 L 436.6 187.0 Q 435.9 187.4, 435.1 187.4 Q 434.2 187.4, 433.6 186.8 Q 433.0 186.2, 433.0 185.1 L 433.0 181.1 L 431.7 181.1 " fill="#000000"/>
<path class="legend" d="M 443.6 180.0 L 443.6 187.3 L 442.5 187.3 L 442.4 186.3 Q 441.4 187.4, 439.9 187.4 Q 438.7 187.4, 438.1 186.8 Q 437.5 186.1, 437.5 184.8 L 437.5 180.0 L 438.8 180.0 L 438.8 184.7 Q 438.8 185.6, 439.1 186.0 Q 439.5 186.4, 440.2 186.4 Q 440.9 186.4, 441.4 186.1 Q 442.0 185.8, 442.3 185.2 L 442.3 180.0 L 443.6 180.0 " fill="#000000"/>
<path class="legend" d="M 446.4 180.0 L 446.5 181.0 Q 447.3 179.9, 448.5 179.9 Q 448.9 179.9, 449.4 180.1 L 449.2 181.2 Q 448.6 181.1, 448.3 181.1 Q 447.7 181.1, 447.3 181.3 Q 446.9 181.6, 446.6 182.1 L 446.6 187.3 L 445.3 187.3 L 445.3 180.0 L 446.4 180.0 " fill="#000000"/>
<path class="legend" d="M 450.1 183.6 Q 450.1 181.9, 451.0 180.9 Q 451.9 179.9, 453.5 179.9 Q 455.1 179.9, 455.8 180.9 Q 456.6 181.8, 456.6 183.6 L 456.6 183.8 L 451.5 183.8 Q 451.5 185.1, 452.1 185.7 Q 452.6 186.3, 453.7 186.3 Q 454.2 186.3, 454.7 186.2 Q 455.3 186.1, 455.9 185.8 L 456.3 186.7 Q 455.6 187.1, 454.9 187.2 Q 454.3 187.4, 453.6 187.4 Q 451.9 187.4, 451.0 186.4 Q 450.1 185.4, 450.1 183.6 M 453.5 181.0 Q 452.7 181.0, 452.2 181.4 Q 451.7 181.9, 451.6 182.8 L 455.2 182.8 Q 455.1 181.9, 454.7 181.4 Q 454.3 181.0, 453.5 181.0 " fill="#000000"/>
<path class="legend" d="" fill="#000000"/>
<path class="legend" d="M 463.3 186.2 L 465.5 186.2 L 465.5 178.7 L 463.1 179.4 L 462.8 178.6 L 465.8 177.2 L 466.8 177.4 L 466.8 186.2 L 468.8 186.2 L 468.8 187.3 L 463.3 187.3 L 463.3 186.2 " fill="#000000"/>
<path class="legend" d="M 470.4 186.2 L 472.6 186.2 L 472.6 178.7 L 470.2 179.4 L 469.9 178.6 L 472.9 177.2 L 473.9 177.4 L 473.9 186.2 L 475.9 186.2 L 475.9 187.3 L 470.4 187.3 L 470.4 186.2 " fill="#000000"/>
<path class="legend" d="M 480.3 177.2 Q 482.1 177.2, 483.0 178.4 Q 483.9 179.6, 483.9 182.0 Q 483.9 184.6, 482.8 186.0 Q 481.7 187.4, 479.6 187.4 Q 478.9 187.4, 478.4 187.3 Q 477.9 187.1, 477.4 186.8 L 477.9 185.9 Q 478.6 186.3, 479.5 186.3 Q 480.9 186.3, 481.7 185.4 Q 482.4 184.4, 482.5 182.6 Q 482.0 183.0, 481.3 183.3 Q 480.7 183.5, 480.0 183.5 Q 479.1 183.5, 478.4 183.2 Q 477.7 182.8, 477.4 182.1 Q 477.0 181.4, 477.0 180.5 Q 477.0 179.5, 477.4 178.8 Q 477.8 178.0, 478.6 177.6 Q 479.4 177.2, 480.3 177.2 M 478.4 180.5 Q 478.4 181.4, 478.9 181.9 Q 479.4 182.4, 480.2 182.4 Q 480.8 182.4, 481.4 182.2 Q 482.0 181.9, 482.5 181.5 Q 482.4 179.8, 481.9 179.1 Q 481.4 178.3, 480.3 178.3 Q 479.8 178.3, 479.3 178.6 Q 478.9 178.9, 478.6 179.4 Q 478.4 179.9, 478.4 180.5 " fill="#000000"/>
<path class="legend" d="M 489.0 187.4 Q 487.2 187.4, 486.2 186.0 Q 485.3 184.7, 485.3 182.3 Q 485.3 179.9, 486.2 178.5 Q 487.1 177.2, 489.0 177.2 Q 490.8 177.2, 491.7 178.5 Q 492.6 179.9, 492.6 182.3 Q 492.6 184.7, 491.7 186.0 Q 490.8 187.4, 489.0 187.4 M 489.0 186.3 Q 490.1 186.3, 490.7 185.3 Q 491.2 184.2, 491.2 182.3 Q 491.2 180.3, 490.7 179.3 Q 490.1 178.3, 489.0 178.3 Q 487.9 178.3, 487.3 179.3 Q 486.8 180.3, 486.8 182.3 Q 486.8 184.2, 487.3 185.3 Q 487.9 186.3, 489.0 186.3 " fill="#000000"/>
<path class="legend" d="" fill="#000000"/>
<path class="legend" d="M 499.2 176.4 L 500.4 176.4 L 500.4 190.0 L 499.2 190.0 L 499.2 176.4 " fill="#000000"/>
<path class="legend" d="" fill="#000000"/>
<path class="legend" d="M 507.7 185.7 Q 507.8 185.8, 508.3 186.0 Q 508.7 186.2, 509.2 186.3 Q 509.8 186.4, 510.3 186.4 Q 511.2 186.4, 511.8 186.0 Q 512.3 185.5, 512.3 184.7 Q 512.3 184.1, 512.0 183.8 Q 511.8 183.5, 511.3 183.3 Q 510.9 183.1, 510.2 182.9 Q 509.3 182.6, 508.8 182.4 Q 508.3 182.1, 507.9 181.6 Q 507.5 181.0, 507.5 180.1 Q 507.5 178.9, 508.4 178.1 Q 509.2 177.3, 510.9 177.3 Q 512.1 177.3, 513.4 177.9 L 513.1 179.0 Q 511.9 178.5, 511.0 178.5 Q 510.0 178.5, 509.4 178.9 Q 508.9 179.3, 508.9 180.0 Q 508.9 180.5, 509.2 180.8 Q 509.5 181.1, 509.9 181.3 Q 510.3 181.5, 511.0 181.7 Q 511.9 182.0, 512.4 182.3 Q 512.9 182.6, 513.3 183.2 Q 513.7 183.7, 513.7 184.7 Q 513.7 186.1, 512.8 186.8 Q 511.9 187.5, 510.3 187.5 Q 509.4 187.5, 508.8 187.4 Q 508.1 187.2, 507.3 186.8 L 507.7 185.7 " fill="#000000"/>
<path class="legend" d="M 514.9 177.3 L 516.2 177.3 L 516.2 181.5 L 521.3 181.5 L 521.3 177.3 L 522.7 177.3 L 522.7 187.3 L 521.3 187.3 L 521.3 182.7 L 516.2 182.7 L 516.2 187.3 L 514.9 187.3 L 514.9 177.3 " fill="#000000"/>
<path class="legend" d="M 531.7 187.3 L 530.7 184.3 L 526.7 184.3 L 525.7 187.3 L 524.4 187.3 L 527.8 177.3 L 529.5 177.3 L 533.0 187.3 L 531.7 187.3 M 527.1 183.2 L 530.3 183.2 L 528.6 178.7 L 527.1 183.2 " fill="#000000"/>
<path class="legend" d="M 536.6 177.3 Q 538.3 177.3, 539.2 178.1 Q 540.0 178.8, 540.0 180.2 Q 540.0 181.6, 539.2 182.4 Q 538.3 183.2, 536.6 183.2 L 535.0 183.2 L 535.0 187.3 L 533.7 187.3 L 533.7 177.3 L 536.6 177.3 M 536.6 182.1 Q 537.6 182.1, 538.1 181.6 Q 538.6 181.1, 538.6 180.2 Q 538.6 179.3, 538.1 178.9 Q 537.6 178.4, 536.6 178.4 L 535.0 178.4 L 535.0 182.1 L 536.6 182.1 " fill="#000000"/>
<path class="legend" d="M 541.2 185.6 L 542.6 185.6 L 542.6 187.0 L 541.2 187.0 L 541.2 185.6 M 541.2 180.8 L 542.6 180.8 L 542.6 182.2 L 541.2 182.2 L 541.2 180.8 " fill="#000000"/>
<path class="legend" d="" fill="#000000"/>
<path class="legend" d="M 549.3 182.2 L 554.5 182.2 L 554.5 183.3 L 549.3 183.3 L 549.3 182.2 " fill="#000000"/>
<path class="legend" d="M 562.2 183.9 L 563.4 183.9 L 563.4 185.0 L 562.2 185.0 L 562.2 187.3 L 560.9 187.3 L 560.9 185.0 L 555.7 185.0 L 555.7 184.1 L 560.1 177.3 L 562.2 177.3 L 562.2 183.9 M 557.4 183.9 L 560.9 183.9 L 560.9 178.2 L 557.4 183.9 " fill="#000000"/>
<path class="legend" d="M 569.4 182.0 Q 570.3 182.3, 570.8 182.9 Q 571.3 183.6, 571.3 184.5 Q 571.3 185.4, 570.9 186.1 Q 570.4 186.7, 569.7 187.1 Q 568.9 187.4, 567.9 187.4 Q 566.8 187.4, 566.0 187.1 Q 565.2 186.7, 564.6 185.9 L 565.4 185.1 Q 566.0 185.8, 566.5 186.0 Q 567.0 186.3, 567.9 186.3 Q 568.8 186.3, 569.3 185.8 Q 569.9 185.3, 569.9 184.5 Q 569.9 183.5, 569.3 183.1 Q 568.7 182.6, 567.5 182.6 L 566.8 182.6 L 566.8 181.6 L 567.4 181.6 Q 568.5 181.6, 569.1 181.1 Q 569.7 180.6, 569.7 179.7 Q 569.7 179.1, 569.2 178.7 Q 568.7 178.3, 567.9 178.3 Q 567.1 178.3, 566.5 178.6 Q 566.0 178.9, 565.6 179.7 L 564.7 179.1 Q 565.0 178.3, 565.9 177.8 Q 566.7 177.2, 567.9 177.2 Q 569.4 177.2, 570.2 177.9 Q 571.1 178.6, 571.1 179.7 Q 571.1 180.5, 570.6 181.1 Q 570.2 181.7, 569.4 182.0 " fill="#000000"/>
<path class="legend" d="M 572.6 185.9 L 574.0 185.9 L 574.0 187.3 L 572.6 187.3 L 572.6 185.9 " fill="#000000"/>
<path class="legend" d="M 580.7 178.4 L 575.4 178.4 L 575.4 177.3 L 582.1 177.3 L 582.1 178.3 L 578.0 187.3 L 576.7 187.3 L 580.7 178.4 " fill="#000000"/>
<path class="legend" d="M 588.0 182.0 Q 589.0 182.4, 589.5 183.0 Q 590.0 183.6, 590.0 184.5 Q 590.0 185.4, 589.6 186.1 Q 589.1 186.7, 588.3 187.1 Q 587.6 187.4, 586.5 187.4 Q 584.9 187.4, 583.9 186.7 Q 583.0 185.9, 583.0 184.5 Q 583.0 183.7, 583.4 183.1 Q 583.8 182.5, 584.7 182.0 Q 584.0 181.7, 583.7 181.1 Q 583.3 180.6, 583.3 179.7 Q 583.3 178.6, 584.2 177.9 Q 585.0 177.2, 586.5 177.2 Q 587.9 177.2, 588.8 177.9 Q 589.6 178.6, 589.6 179.7 Q 589.6 180.5, 589.2 181.0 Q 588.8 181.6, 588.0 182.0 M 586.5 178.2 Q 585.6 178.2, 585.2 178.6 Q 584.7 179.0, 584.7 179.7 Q 584.7 180.3, 585.0 180.6 Q 585.3 181.0, 585.8 181.1 Q 586.2 181.3, 587.1 181.6 Q 587.7 181.2, 588.0 180.8 Q 588.2 180.3, 588.2 179.7 Q 588.2 179.0, 587.8 178.6 Q 587.3 178.2, 586.5 178.2 M 586.5 186.4 Q 587.5 186.4, 588.0 185.9 Q 588.6 185.4, 588.6 184.5 Q 588.6 184.0, 588.3 183.7 Q 588.0 183.3, 587.5 183.1 Q 587.1 182.9, 586.3 182.7 L 585.7 182.5 Q 585.0 182.9, 584.7 183.4 Q 584.4 183.9, 584.4 184.5 Q 584.4 185.4, 585.0 185.9 Q 585.5 186.4, 586.5 186.4 " fill="#000000"/>
<ellipse cx="123.5" cy="279.2" rx="6.3" ry="6.3" class="atom-2" style="fill:#9999E5;fill-rule:evenodd;stroke:#9999E5;stroke-width:1.0px;stroke-linecap:butt;stroke-linejoin:miter;stroke-opacity:1"/>
<path class="bond-0 atom-0 atom-1" d="M 111.9,327.2 L 105.2,308.7" style="fill:none;fill-rule:evenodd;stroke:#E5E5E5;stroke-width:1.7px;stroke-linecap:butt;stroke-linejoin:miter;stroke-opacity:1"/>
<path class="bond-1 atom-1 atom-2" d="M 107.6,298.0 L 115.6,288.6" style="fill:none;fill-rule:evenodd;stroke:#0000FF;stroke-width:2.0px;stroke-linecap:butt;stroke-linejoin:miter;stroke-opacity:1"/>
<path class="bond-1 atom-1 atom-2" d="M 115.6,288.6 L 123.5,279.2" style="fill:none;fill-rule:evenodd;stroke:#000000;stroke-width:2.0px;stroke-linecap:butt;stroke-linejoin:miter;stroke-opacity:1"/>
<path class="bond-2 atom-2 atom-3" d="M 123.5,279.2 L 112.9,249.7" style="fill:none;fill-rule:evenodd;stroke:#000000;stroke-width:2.0px;stroke-linecap:butt;stroke-linejoin:miter;stroke-opacity:1"/>
<path class="bond-3 atom-1 atom-4" d="M 98.8,302.4 L 75.5,298.2" style="fill:none;fill-rule:evenodd;stroke:#E5E5E5;stroke-width:1.7px;stroke-linecap:butt;stroke-linejoin:miter;stroke-opacity:1"/>
<path d="M 123.1,279.7 L 123.5,279.2 L 123.0,277.8" style="fill:none;stroke:#000000;stroke-width:2.0px;stroke-linecap:butt;stroke-linejoin:miter;stroke-miterlimit:10;stroke-opacity:1;"/>
<path class="atom-0" d="M 112.2 331.8 L 113.5 330.5 L 111.8 330.1 L 112.0 329.2 L 113.6 330.0 L 113.4 328.3 L 114.3 328.3 L 114.1 330.0 L 115.7 329.3 L 116.0 330.1 L 114.2 330.4 L 115.5 331.8 L 114.7 332.3 L 113.8 330.7 L 113.0 332.3 L 112.2 331.8 " fill="#191919"/>
<path class="atom-1" d="M 101.3 298.8 L 104.2 303.5 Q 104.5 304.0, 104.9 304.8 Q 105.4 305.6, 105.4 305.7 L 105.4 298.8 L 106.6 298.8 L 106.6 307.7 L 105.4 307.7 L 102.3 302.5 Q 101.9 301.9, 101.5 301.2 Q 101.1 300.5, 101.0 300.3 L 101.0 307.7 L 99.9 307.7 L 99.9 298.8 L 101.3 298.8 " fill="#0000FF"/>
<path class="atom-4" d="M 70.6 296.7 L 71.9 295.3 L 70.2 295.0 L 70.5 294.1 L 72.1 294.9 L 71.8 293.1 L 72.8 293.1 L 72.5 294.9 L 74.1 294.1 L 74.4 295.0 L 72.7 295.3 L 73.9 296.7 L 73.1 297.2 L 72.3 295.5 L 71.4 297.2 L 70.6 296.7 " fill="#191919"/>
<path class="legend" d="M 10.0 376.8 L 16.2 376.8 L 16.2 378.0 L 11.4 378.0 L 11.4 381.1 L 15.6 381.1 L 15.6 382.3 L 11.4 382.3 L 11.4 387.2 L 10.0 387.2 L 10.0 376.8 " fill="#000000"/>
<path class="legend" d="M 17.0 383.4 Q 17.0 381.6, 17.9 380.5 Q 18.8 379.5, 20.5 379.5 Q 22.2 379.5, 22.9 380.5 Q 23.7 381.5, 23.7 383.4 L 23.7 383.6 L 18.4 383.6 Q 18.4 384.9, 19.0 385.5 Q 19.6 386.2, 20.6 386.2 Q 21.2 386.2, 21.8 386.1 Q 22.3 385.9, 23.0 385.6 L 23.4 386.6 Q 22.6 387.0, 21.9 387.1 Q 21.3 387.3, 20.6 387.3 Q 18.9 387.3, 17.9 386.3 Q 17.0 385.2, 17.0 383.4 M 20.5 380.6 Q 19.7 380.6, 19.1 381.1 Q 18.6 381.6, 18.5 382.6 L 22.2 382.6 Q 22.1 381.6, 21.7 381.1 Q 21.3 380.6, 20.5 380.6 " fill="#000000"/>
<path class="legend" d="M 24.7 385.1 Q 24.7 383.9, 25.7 383.3 Q 26.6 382.6, 28.4 382.6 L 29.5 382.6 L 29.5 382.3 Q 29.5 381.4, 29.1 381.0 Q 28.8 380.6, 27.8 380.6 Q 27.2 380.6, 26.8 380.7 Q 26.3 380.8, 25.6 381.1 L 25.1 380.2 Q 26.5 379.5, 27.8 379.5 Q 29.4 379.5, 30.2 380.2 Q 30.9 380.9, 30.9 382.4 L 30.9 387.2 L 29.8 387.2 Q 29.8 387.1, 29.8 386.9 Q 29.7 386.7, 29.7 386.3 Q 28.6 387.3, 27.2 387.3 Q 26.1 387.3, 25.4 386.7 Q 24.7 386.1, 24.7 385.1 M 26.1 385.1 Q 26.1 385.7, 26.4 386.0 Q 26.8 386.3, 27.5 386.3 Q 28.0 386.3, 28.6 386.0 Q 29.2 385.7, 29.5 385.3 L 29.5 383.6 L 28.5 383.6 Q 27.3 383.6, 26.7 384.0 Q 26.1 384.4, 26.1 385.1 " fill="#000000"/>
<path class="legend" d="M 32.5 380.7 L 32.5 379.6 L 34.0 379.6 L 34.2 377.5 L 35.2 377.5 L 35.2 379.6 L 37.5 379.6 L 37.5 380.7 L 35.2 380.7 L 35.2 384.9 Q 35.2 386.2, 36.3 386.2 Q 36.8 386.2, 37.4 386.0 L 37.7 386.9 Q 36.8 387.3, 36.1 387.3 Q 35.1 387.3, 34.5 386.7 Q 33.9 386.1, 33.9 384.9 L 33.9 380.7 L 32.5 380.7 " fill="#000000"/>
<path class="legend" d="M 44.9 379.6 L 44.9 387.2 L 43.8 387.2 L 43.6 386.1 Q 42.7 387.3, 41.1 387.3 Q 39.8 387.3, 39.2 386.6 Q 38.5 385.9, 38.5 384.6 L 38.5 379.6 L 39.9 379.6 L 39.9 384.5 Q 39.9 385.4, 40.2 385.8 Q 40.6 386.2, 41.3 386.2 Q 42.0 386.2, 42.6 385.9 Q 43.2 385.6, 43.5 385.0 L 43.5 379.6 L 44.9 379.6 " fill="#000000"/>
<path class="legend" d="M 47.7 379.6 L 47.9 380.7 Q 48.7 379.5, 50.0 379.5 Q 50.4 379.5, 50.9 379.7 L 50.7 380.9 Q 50.1 380.7, 49.7 380.7 Q 49.1 380.7, 48.7 381.0 Q 48.3 381.2, 48.0 381.8 L 48.0 387.2 L 46.6 387.2 L 46.6 379.6 L 47.7 379.6 " fill="#000000"/>
<path class="legend" d="M 51.7 383.4 Q 51.7 381.6, 52.6 380.5 Q 53.5 379.5, 55.2 379.5 Q 56.9 379.5, 57.6 380.5 Q 58.3 381.5, 58.3 383.4 L 58.3 383.6 L 53.1 383.6 Q 53.1 384.9, 53.7 385.5 Q 54.3 386.2, 55.3 386.2 Q 55.9 386.2, 56.4 386.1 Q 57.0 385.9, 57.6 385.6 L 58.0 386.6 Q 57.3 387.0, 56.6 387.1 Q 55.9 387.3, 55.2 387.3 Q 53.5 387.3, 52.6 386.3 Q 51.7 385.2, 51.7 383.4 M 55.2 380.6 Q 54.3 380.6, 53.8 381.1 Q 53.3 381.6, 53.1 382.6 L 56.9 382.6 Q 56.8 381.6, 56.4 381.1 Q 56.0 380.6, 55.2 380.6 " fill="#000000"/>
<path class="legend" d="" fill="#000000"/>
<path class="legend" d="M 68.3 376.7 Q 70.1 376.7, 71.0 378.0 Q 72.0 379.2, 72.0 381.7 Q 72.0 384.4, 70.8 385.9 Q 69.7 387.3, 67.5 387.3 Q 66.8 387.3, 66.3 387.1 Q 65.7 387.0, 65.2 386.7 L 65.8 385.7 Q 66.5 386.1, 67.4 386.1 Q 68.9 386.1, 69.7 385.2 Q 70.4 384.2, 70.5 382.3 Q 70.0 382.8, 69.3 383.0 Q 68.6 383.3, 67.9 383.3 Q 67.0 383.3, 66.3 382.9 Q 65.6 382.5, 65.2 381.8 Q 64.8 381.1, 64.8 380.1 Q 64.8 379.1, 65.2 378.4 Q 65.7 377.6, 66.5 377.1 Q 67.3 376.7, 68.3 376.7 M 66.2 380.1 Q 66.2 381.1, 66.8 381.6 Q 67.3 382.1, 68.2 382.1 Q 68.8 382.1, 69.4 381.9 Q 70.1 381.6, 70.5 381.2 Q 70.4 379.4, 69.9 378.7 Q 69.4 377.9, 68.3 377.9 Q 67.7 377.9, 67.2 378.2 Q 66.8 378.5, 66.5 379.0 Q 66.2 379.5, 66.2 380.1 " fill="#000000"/>
<path class="legend" d="M 78.5 381.7 Q 79.5 382.0, 79.9 382.7 Q 80.4 383.3, 80.4 384.3 Q 80.4 385.2, 80.0 385.9 Q 79.6 386.6, 78.8 387.0 Q 78.0 387.3, 76.9 387.3 Q 75.8 387.3, 75.0 386.9 Q 74.1 386.5, 73.5 385.8 L 74.3 384.9 Q 75.0 385.6, 75.5 385.9 Q 76.0 386.1, 76.9 386.1 Q 77.8 386.1, 78.4 385.7 Q 79.0 385.1, 79.0 384.3 Q 79.0 383.3, 78.4 382.8 Q 77.8 382.3, 76.5 382.3 L 75.8 382.3 L 75.8 381.3 L 76.4 381.3 Q 77.6 381.2, 78.2 380.8 Q 78.8 380.3, 78.8 379.3 Q 78.8 378.7, 78.3 378.3 Q 77.8 377.9, 76.9 377.9 Q 76.1 377.9, 75.5 378.2 Q 75.0 378.5, 74.6 379.3 L 73.6 378.7 Q 73.9 377.8, 74.8 377.3 Q 75.7 376.7, 76.9 376.7 Q 78.4 376.7, 79.3 377.4 Q 80.2 378.1, 80.2 379.3 Q 80.2 380.2, 79.8 380.8 Q 79.3 381.4, 78.5 381.7 " fill="#000000"/>
<path class="legend" d="M 81.8 378.8 Q 82.2 377.8, 83.1 377.2 Q 84.0 376.7, 85.3 376.7 Q 86.9 376.7, 87.7 377.5 Q 88.6 378.4, 88.6 379.9 Q 88.6 381.4, 87.5 382.9 Q 86.4 384.3, 84.0 386.0 L 88.8 386.0 L 88.8 387.2 L 81.8 387.2 L 81.8 386.2 Q 83.7 384.8, 84.9 383.8 Q 86.0 382.8, 86.6 381.8 Q 87.2 380.9, 87.2 380.0 Q 87.2 379.0, 86.7 378.4 Q 86.2 377.9, 85.3 377.9 Q 84.5 377.9, 83.9 378.2 Q 83.3 378.5, 83.0 379.3 L 81.8 378.8 " fill="#000000"/>
<path class="legend" d="" fill="#000000"/>
<path class="legend" d="M 95.6 375.8 L 96.8 375.8 L 96.8 390.0 L 95.6 390.0 L 95.6 375.8 " fill="#000000"/>
<path class="legend" d="" fill="#000000"/>
<path class="legend" d="M 104.3 385.6 Q 104.4 385.6, 104.9 385.8 Q 105.4 386.0, 105.9 386.1 Q 106.5 386.3, 107.0 386.3 Q 108.0 386.3, 108.6 385.8 Q 109.1 385.3, 109.1 384.5 Q 109.1 383.9, 108.8 383.6 Q 108.6 383.2, 108.1 383.0 Q 107.7 382.8, 106.9 382.6 Q 106.0 382.3, 105.5 382.1 Q 104.9 381.8, 104.5 381.2 Q 104.2 380.7, 104.2 379.8 Q 104.2 378.4, 105.0 377.6 Q 105.9 376.8, 107.7 376.8 Q 108.9 376.8, 110.2 377.4 L 109.9 378.5 Q 108.7 378.0, 107.7 378.0 Q 106.7 378.0, 106.2 378.4 Q 105.6 378.9, 105.6 379.6 Q 105.6 380.1, 105.9 380.5 Q 106.2 380.8, 106.6 381.0 Q 107.0 381.2, 107.7 381.4 Q 108.7 381.7, 109.2 382.0 Q 109.8 382.3, 110.2 382.9 Q 110.6 383.5, 110.6 384.5 Q 110.6 385.9, 109.6 386.7 Q 108.7 387.5, 107.1 387.5 Q 106.1 387.5, 105.4 387.2 Q 104.8 387.1, 103.9 386.7 L 104.3 385.6 " fill="#000000"/>
<path class="legend" d="M 111.8 376.8 L 113.2 376.8 L 113.2 381.2 L 118.5 381.2 L 118.5 376.8 L 119.9 376.8 L 119.9 387.2 L 118.5 387.2 L 118.5 382.4 L 113.2 382.4 L 113.2 387.2 L 111.8 387.2 L 111.8 376.8 " fill="#000000"/>
<path class="legend" d="M 129.3 387.2 L 128.2 384.1 L 124.1 384.1 L 123.0 387.2 L 121.6 387.2 L 125.2 376.8 L 126.9 376.8 L 130.6 387.2 L 129.3 387.2 M 124.5 383.0 L 127.8 383.0 L 126.1 378.3 L 124.5 383.0 " fill="#000000"/>
<path class="legend" d="M 134.4 376.8 Q 136.2 376.8, 137.0 377.6 Q 137.9 378.4, 137.9 379.9 Q 137.9 381.3, 137.0 382.1 Q 136.1 382.9, 134.4 382.9 L 132.7 382.9 L 132.7 387.2 L 131.3 387.2 L 131.3 376.8 L 134.4 376.8 M 134.4 381.7 Q 135.4 381.7, 135.9 381.3 Q 136.5 380.8, 136.5 379.9 Q 136.5 378.9, 135.9 378.5 Q 135.4 378.0, 134.4 378.0 L 132.7 378.0 L 132.7 381.7 L 134.4 381.7 " fill="#000000"/>
<path class="legend" d="M 139.1 385.5 L 140.6 385.5 L 140.6 386.9 L 139.1 386.9 L 139.1 385.5 M 139.1 380.4 L 140.6 380.4 L 140.6 381.9 L 139.1 381.9 L 139.1 380.4 " fill="#000000"/>
<path class="legend" d="" fill="#000000"/>
<path class="legend" d="M 147.6 381.9 L 153.0 381.9 L 153.0 383.1 L 147.6 383.1 L 147.6 381.9 " fill="#000000"/>
<path class="legend" d="M 159.2 381.7 Q 160.2 382.0, 160.7 382.7 Q 161.2 383.3, 161.2 384.3 Q 161.2 385.2, 160.7 385.9 Q 160.3 386.6, 159.5 387.0 Q 158.7 387.3, 157.6 387.3 Q 156.5 387.3, 155.7 386.9 Q 154.9 386.5, 154.2 385.8 L 155.0 384.9 Q 155.7 385.6, 156.2 385.9 Q 156.8 386.1, 157.6 386.1 Q 158.6 386.1, 159.1 385.7 Q 159.7 385.1, 159.7 384.3 Q 159.7 383.3, 159.1 382.8 Q 158.5 382.3, 157.2 382.3 L 156.5 382.3 L 156.5 381.3 L 157.2 381.3 Q 158.3 381.2, 158.9 380.8 Q 159.5 380.3, 159.5 379.3 Q 159.5 378.7, 159.0 378.3 Q 158.5 377.9, 157.6 377.9 Q 156.8 377.9, 156.2 378.2 Q 155.7 378.5, 155.3 379.3 L 154.3 378.7 Q 154.7 377.8, 155.5 377.3 Q 156.4 376.7, 157.6 376.7 Q 159.2 376.7, 160.1 377.4 Q 160.9 378.1, 160.9 379.3 Q 160.9 380.2, 160.5 380.8 Q 160.0 381.4, 159.2 381.7 " fill="#000000"/>
<path class="legend" d="M 167.5 381.7 Q 168.5 382.0, 169.0 382.7 Q 169.5 383.3, 169.5 384.3 Q 169.5 385.2, 169.1 385.9 Q 168.6 386.6, 167.8 387.0 Q 167.0 387.3, 166.0 387.3 Q 164.9 387.3, 164.0 386.9 Q 163.2 386.5, 162.5 385.8 L 163.4 384.9 Q 164.0 385.6, 164.6 385.9 Q 165.1 386.1, 166.0 386.1 Q 166.9 386.1, 167.5 385.7 Q 168.0 385.1, 168.0 384.3 Q 168.0 383.3, 167.4 382.8 Q 166.9 382.3, 165.6 382.3 L 164.8 382.3 L 164.8 381.3 L 165.5 381.3 Q 166.6 381.2, 167.2 380.8 Q 167.8 380.3, 167.8 379.3 Q 167.8 378.7, 167.3 378.3 Q 166.8 377.9, 166.0 377.9 Q 165.1 377.9, 164.6 378.2 Q 164.0 378.5, 163.6 379.3 L 162.6 378.7 Q 163.0 377.8, 163.9 377.3 Q 164.7 376.7, 166.0 376.7 Q 167.5 376.7, 168.4 377.4 Q 169.3 378.1, 169.3 379.3 Q 169.3 380.2, 168.8 380.8 Q 168.4 381.4, 167.5 381.7 " fill="#000000"/>
<path class="legend" d="M 170.9 385.7 L 172.3 385.7 L 172.3 387.2 L 170.9 387.2 L 170.9 385.7 " fill="#000000"/>
<path class="legend" d="M 177.6 380.7 Q 178.5 380.7, 179.2 381.1 Q 180.0 381.5, 180.4 382.2 Q 180.8 382.9, 180.8 383.9 Q 180.8 385.0, 180.3 385.7 Q 179.8 386.5, 178.9 386.9 Q 178.1 387.3, 177.1 387.3 Q 176.2 387.3, 175.3 386.9 Q 174.4 386.6, 173.8 385.9 L 174.7 385.0 Q 175.2 385.5, 175.8 385.8 Q 176.5 386.1, 177.2 386.1 Q 178.1 386.1, 178.7 385.5 Q 179.3 385.0, 179.3 383.9 Q 179.3 382.8, 178.7 382.3 Q 178.1 381.8, 177.1 381.8 Q 176.2 381.8, 175.1 382.2 L 174.3 381.8 L 174.8 376.8 L 180.2 376.8 L 180.0 378.0 L 176.0 378.0 L 175.7 381.1 Q 176.7 380.7, 177.6 380.7 " fill="#000000"/>
<path class="legend" d="M 188.8 383.6 L 190.0 383.6 L 190.0 384.8 L 188.8 384.8 L 188.8 387.2 L 187.4 387.2 L 187.4 384.8 L 182.0 384.8 L 182.0 383.9 L 186.6 376.8 L 188.8 376.8 L 188.8 383.6 M 183.7 383.6 L 187.4 383.6 L 187.4 377.7 L 183.7 383.6 " fill="#000000"/>
<ellipse cx="316.0" cy="293.5" rx="6.3" ry="6.3" class="atom-2" style="fill:#9999E5;fill-rule:evenodd;stroke:#9999E5;stroke-width:1.0px;stroke-linecap:butt;stroke-linejoin:miter;stroke-opacity:1"/>
<path class="bond-0 atom-0 atom-1" d="M 304.3,341.5 L 295.7,317.5" style="fill:none;fill-rule:evenodd;stroke:#E5E5E5;stroke-width:1.7px;stroke-linecap:butt;stroke-linejoin:miter;stroke-opacity:1"/>
<path class="bond-1 atom-1 atom-2" d="M 295.7,317.5 L 316.0,293.5" style="fill:none;fill-rule:evenodd;stroke:#000000;stroke-width:2.0px;stroke-linecap:butt;stroke-linejoin:miter;stroke-opacity:1"/>
<path class="bond-2 atom-2 atom-3" d="M 316.0,293.5 L 311.6,281.5" style="fill:none;fill-rule:evenodd;stroke:#000000;stroke-width:2.0px;stroke-linecap:butt;stroke-linejoin:miter;stroke-opacity:1"/>
<path class="bond-2 atom-2 atom-3" d="M 311.6,281.5 L 307.3,269.4" style="fill:none;fill-rule:evenodd;stroke:#0000FF;stroke-width:2.0px;stroke-linecap:butt;stroke-linejoin:miter;stroke-opacity:1"/>
<path class="bond-3 atom-3 atom-4" d="M 309.7,258.7 L 325.1,240.5" style="fill:none;fill-rule:evenodd;stroke:#E5E5E5;stroke-width:1.7px;stroke-linecap:butt;stroke-linejoin:miter;stroke-opacity:1"/>
<path class="bond-4 atom-3 atom-5" d="M 300.9,263.1 L 277.5,258.9" style="fill:none;fill-rule:evenodd;stroke:#E5E5E5;stroke-width:1.7px;stroke-linecap:butt;stroke-linejoin:miter;stroke-opacity:1"/>
<path d="M 295.9,318.1 L 295.7,317.5 L 296.2,316.9" style="fill:none;stroke:#E5E5E5;stroke-width:1.7px;stroke-linecap:butt;stroke-linejoin:miter;stroke-miterlimit:10;stroke-opacity:1;"/>
<path d="M 314.9,294.7 L 316.0,293.5 L 315.7,292.9" style="fill:none;stroke:#000000;stroke-width:2.0px;stroke-linecap:butt;stroke-linejoin:miter;stroke-miterlimit:10;stroke-opacity:1;"/>
<path class="atom-0" d="M 304.6 346.1 L 305.9 344.7 L 304.2 344.4 L 304.5 343.5 L 306.1 344.3 L 305.8 342.5 L 306.8 342.5 L 306.5 344.3 L 308.1 343.5 L 308.4 344.4 L 306.7 344.7 L 307.9 346.0 L 307.2 346.6 L 306.3 344.9 L 305.4 346.6 L 304.6 346.1 " fill="#191919"/>
<path class="atom-3" d="M 303.4 259.5 L 306.3 264.2 Q 306.6 264.7, 307.0 265.5 Q 307.5 266.3, 307.5 266.4 L 307.5 259.5 L 308.7 259.5 L 308.7 268.4 L 307.5 268.4 L 304.3 263.2 Q 304.0 262.6, 303.6 261.9 Q 303.2 261.2, 303.1 261.0 L 303.1 268.4 L 301.9 268.4 L 301.9 259.5 L 303.4 259.5 " fill="#0000FF"/>
<path class="atom-4" d="M 323.9 238.9 L 325.2 237.6 L 323.5 237.3 L 323.8 236.4 L 325.4 237.2 L 325.1 235.4 L 326.1 235.4 L 325.8 237.2 L 327.4 236.4 L 327.7 237.3 L 325.9 237.6 L 327.2 238.9 L 326.4 239.5 L 325.6 237.8 L 324.7 239.5 L 323.9 238.9 " fill="#191919"/>
<path class="atom-5" d="M 272.7 257.4 L 274.0 256.0 L 272.3 255.7 L 272.6 254.8 L 274.2 255.6 L 273.9 253.8 L 274.9 253.8 L 274.6 255.6 L 276.2 254.8 L 276.5 255.7 L 274.7 256.0 L 276.0 257.4 L 275.2 257.9 L 274.4 256.2 L 273.5 257.9 L 272.7 257.4 " fill="#191919"/>
<path class="legend" d="M 210.0 377.1 L 216.0 377.1 L 216.0 378.2 L 211.4 378.2 L 211.4 381.3 L 215.5 381.3 L 215.5 382.5 L 211.4 382.5 L 211.4 387.2 L 210.0 387.2 L 210.0 377.1 " fill="#000000"/>
<path class="legend" d="M 216.8 383.5 Q 216.8 381.7, 217.7 380.7 Q 218.6 379.7, 220.3 379.7 Q 221.9 379.7, 222.6 380.7 Q 223.4 381.7, 223.4 383.5 L 223.4 383.7 L 218.2 383.7 Q 218.2 385.0, 218.8 385.6 Q 219.4 386.3, 220.4 386.3 Q 221.0 386.3, 221.5 386.2 Q 222.0 386.0, 222.7 385.7 L 223.1 386.6 Q 222.3 387.0, 221.7 387.2 Q 221.0 387.3, 220.3 387.3 Q 218.7 387.3, 217.8 386.3 Q 216.8 385.3, 216.8 383.5 M 220.3 380.8 Q 219.4 380.8, 218.9 381.3 Q 218.4 381.8, 218.3 382.7 L 221.9 382.7 Q 221.8 381.7, 221.4 381.3 Q 221.0 380.8, 220.3 380.8 " fill="#000000"/>
<path class="legend" d="M 224.4 385.2 Q 224.4 384.1, 225.3 383.4 Q 226.3 382.8, 228.0 382.8 L 229.1 382.8 L 229.1 382.5 Q 229.1 381.6, 228.7 381.2 Q 228.4 380.8, 227.4 380.8 Q 226.9 380.8, 226.4 380.9 Q 225.9 381.0, 225.2 381.3 L 224.8 380.4 Q 226.2 379.7, 227.5 379.7 Q 229.0 379.7, 229.7 380.4 Q 230.5 381.1, 230.5 382.5 L 230.5 387.2 L 229.4 387.2 Q 229.4 387.2, 229.4 387.0 Q 229.3 386.7, 229.2 386.4 Q 228.2 387.4, 226.8 387.4 Q 225.7 387.4, 225.1 386.8 Q 224.4 386.2, 224.4 385.2 M 225.7 385.2 Q 225.7 385.8, 226.1 386.1 Q 226.4 386.3, 227.1 386.3 Q 227.7 386.3, 228.2 386.1 Q 228.7 385.8, 229.1 385.4 L 229.1 383.8 L 228.1 383.8 Q 226.9 383.8, 226.3 384.1 Q 225.7 384.5, 225.7 385.2 " fill="#000000"/>
<path class="legend" d="M 232.1 380.9 L 232.1 379.9 L 233.5 379.9 L 233.7 377.7 L 234.7 377.7 L 234.7 379.9 L 236.9 379.9 L 236.9 380.9 L 234.7 380.9 L 234.7 385.0 Q 234.7 386.2, 235.8 386.2 Q 236.2 386.2, 236.8 386.0 L 237.1 387.0 Q 236.3 387.3, 235.5 387.3 Q 234.6 387.3, 233.9 386.7 Q 233.3 386.2, 233.3 385.0 L 233.3 380.9 L 232.1 380.9 " fill="#000000"/>
<path class="legend" d="M 244.2 379.9 L 244.2 387.2 L 243.1 387.2 L 242.9 386.2 Q 242.0 387.4, 240.4 387.4 Q 239.2 387.4, 238.5 386.7 Q 237.9 386.0, 237.9 384.7 L 237.9 379.9 L 239.3 379.9 L 239.3 384.6 Q 239.3 385.5, 239.6 385.9 Q 239.9 386.3, 240.7 386.3 Q 241.3 386.3, 241.9 386.0 Q 242.5 385.7, 242.8 385.1 L 242.8 379.9 L 244.2 379.9 " fill="#000000"/>
<path class="legend" d="M 246.9 379.9 L 247.1 380.9 Q 247.9 379.7, 249.1 379.7 Q 249.5 379.7, 250.1 379.9 L 249.9 381.1 Q 249.2 380.9, 248.9 380.9 Q 248.3 380.9, 247.9 381.2 Q 247.5 381.4, 247.2 382.0 L 247.2 387.2 L 245.8 387.2 L 245.8 379.9 L 246.9 379.9 " fill="#000000"/>
<path class="legend" d="M 250.8 383.5 Q 250.8 381.7, 251.7 380.7 Q 252.6 379.7, 254.2 379.7 Q 255.8 379.7, 256.6 380.7 Q 257.3 381.7, 257.3 383.5 L 257.3 383.7 L 252.2 383.7 Q 252.2 385.0, 252.7 385.6 Q 253.3 386.3, 254.3 386.3 Q 254.9 386.3, 255.4 386.2 Q 256.0 386.0, 256.6 385.7 L 257.0 386.6 Q 256.3 387.0, 255.6 387.2 Q 255.0 387.3, 254.3 387.3 Q 252.6 387.3, 251.7 386.3 Q 250.8 385.3, 250.8 383.5 M 254.2 380.8 Q 253.4 380.8, 252.9 381.3 Q 252.4 381.8, 252.2 382.7 L 255.9 382.7 Q 255.8 381.7, 255.4 381.3 Q 255.0 380.8, 254.2 380.8 " fill="#000000"/>
<path class="legend" d="" fill="#000000"/>
<path class="legend" d="M 264.2 386.1 L 266.4 386.1 L 266.4 378.5 L 263.9 379.3 L 263.6 378.4 L 266.7 377.0 L 267.7 377.2 L 267.7 386.1 L 269.7 386.1 L 269.7 387.2 L 264.2 387.2 L 264.2 386.1 " fill="#000000"/>
<path class="legend" d="M 274.2 377.0 Q 276.0 377.0, 276.9 378.2 Q 277.9 379.4, 277.9 381.9 Q 277.9 384.6, 276.7 386.0 Q 275.6 387.3, 273.4 387.3 Q 272.8 387.3, 272.3 387.2 Q 271.7 387.1, 271.2 386.8 L 271.8 385.8 Q 272.5 386.2, 273.4 386.2 Q 274.9 386.2, 275.6 385.3 Q 276.3 384.4, 276.4 382.4 Q 275.9 382.9, 275.2 383.2 Q 274.6 383.4, 273.9 383.4 Q 273.0 383.4, 272.3 383.0 Q 271.6 382.6, 271.2 381.9 Q 270.8 381.2, 270.8 380.4 Q 270.8 379.4, 271.2 378.6 Q 271.7 377.8, 272.5 377.4 Q 273.2 377.0, 274.2 377.0 M 272.3 380.3 Q 272.3 381.2, 272.8 381.8 Q 273.3 382.3, 274.1 382.3 Q 274.8 382.3, 275.4 382.0 Q 276.0 381.8, 276.4 381.3 Q 276.3 379.7, 275.8 378.9 Q 275.3 378.1, 274.2 378.1 Q 273.7 378.1, 273.2 378.4 Q 272.8 378.7, 272.5 379.2 Q 272.3 379.7, 272.3 380.3 " fill="#000000"/>
<path class="legend" d="M 283.0 380.9 Q 283.9 380.9, 284.6 381.3 Q 285.4 381.6, 285.8 382.4 Q 286.2 383.1, 286.2 384.0 Q 286.2 385.1, 285.7 385.8 Q 285.2 386.6, 284.3 387.0 Q 283.5 387.3, 282.6 387.3 Q 281.6 387.3, 280.8 387.0 Q 279.9 386.7, 279.3 386.0 L 280.2 385.1 Q 280.7 385.6, 281.3 385.9 Q 281.9 386.2, 282.6 386.2 Q 283.5 386.2, 284.1 385.6 Q 284.8 385.1, 284.8 384.1 Q 284.8 383.0, 284.1 382.5 Q 283.5 382.0, 282.5 382.0 Q 281.6 382.0, 280.6 382.3 L 279.9 382.0 L 280.3 377.1 L 285.6 377.1 L 285.4 378.2 L 281.5 378.2 L 281.2 381.2 Q 282.1 380.9, 283.0 380.9 " fill="#000000"/>
<path class="legend" d="M 287.9 386.1 L 290.1 386.1 L 290.1 378.5 L 287.7 379.3 L 287.4 378.4 L 290.5 377.0 L 291.5 377.2 L 291.5 386.1 L 293.5 386.1 L 293.5 387.2 L 287.9 387.2 L 287.9 386.1 " fill="#000000"/>
<path class="legend" d="" fill="#000000"/>
<path class="legend" d="M 299.8 376.1 L 301.1 376.1 L 301.1 390.0 L 299.8 390.0 L 299.8 376.1 " fill="#000000"/>
<path class="legend" d="" fill="#000000"/>
<path class="legend" d="M 308.4 385.7 Q 308.5 385.7, 309.0 385.9 Q 309.5 386.1, 310.0 386.2 Q 310.5 386.3, 311.0 386.3 Q 312.0 386.3, 312.6 385.9 Q 313.1 385.4, 313.1 384.6 Q 313.1 384.0, 312.8 383.7 Q 312.6 383.3, 312.1 383.2 Q 311.7 383.0, 311.0 382.8 Q 310.1 382.5, 309.5 382.2 Q 309.0 382.0, 308.6 381.4 Q 308.2 380.9, 308.2 380.0 Q 308.2 378.7, 309.1 377.9 Q 310.0 377.1, 311.7 377.1 Q 312.9 377.1, 314.2 377.7 L 313.9 378.8 Q 312.7 378.3, 311.7 378.3 Q 310.8 378.3, 310.2 378.7 Q 309.7 379.1, 309.7 379.8 Q 309.7 380.3, 310.0 380.7 Q 310.2 381.0, 310.6 381.2 Q 311.1 381.4, 311.7 381.6 Q 312.7 381.9, 313.2 382.2 Q 313.8 382.4, 314.1 383.0 Q 314.5 383.6, 314.5 384.6 Q 314.5 386.0, 313.6 386.8 Q 312.7 387.5, 311.1 387.5 Q 310.2 387.5, 309.5 387.3 Q 308.8 387.1, 308.0 386.8 L 308.4 385.7 " fill="#000000"/>
<path class="legend" d="M 315.7 377.1 L 317.1 377.1 L 317.1 381.4 L 322.3 381.4 L 322.3 377.1 L 323.6 377.1 L 323.6 387.2 L 322.3 387.2 L 322.3 382.5 L 317.1 382.5 L 317.1 387.2 L 315.7 387.2 L 315.7 377.1 " fill="#000000"/>
<path class="legend" d="M 332.8 387.2 L 331.8 384.3 L 327.7 384.3 L 326.7 387.2 L 325.4 387.2 L 328.9 377.1 L 330.5 377.1 L 334.2 387.2 L 332.8 387.2 M 328.2 383.1 L 331.4 383.1 L 329.7 378.5 L 328.2 383.1 " fill="#000000"/>
<path class="legend" d="M 337.8 377.1 Q 339.6 377.1, 340.4 377.9 Q 341.3 378.6, 341.3 380.1 Q 341.3 381.5, 340.4 382.3 Q 339.5 383.1, 337.8 383.1 L 336.2 383.1 L 336.2 387.2 L 334.8 387.2 L 334.8 377.1 L 337.8 377.1 M 337.8 381.9 Q 338.8 381.9, 339.3 381.4 Q 339.9 381.0, 339.9 380.1 Q 339.9 379.2, 339.3 378.7 Q 338.8 378.2, 337.8 378.2 L 336.2 378.2 L 336.2 381.9 L 337.8 381.9 " fill="#000000"/>
<path class="legend" d="M 342.5 385.6 L 343.9 385.6 L 343.9 387.0 L 342.5 387.0 L 342.5 385.6 M 342.5 380.6 L 343.9 380.6 L 343.9 382.1 L 342.5 382.1 L 342.5 380.6 " fill="#000000"/>
<path class="legend" d="" fill="#000000"/>
<path class="legend" d="M 350.7 382.1 L 356.0 382.1 L 356.0 383.2 L 350.7 383.2 L 350.7 382.1 " fill="#000000"/>
<path class="legend" d="M 357.8 386.1 L 360.0 386.1 L 360.0 378.5 L 357.5 379.3 L 357.2 378.4 L 360.3 377.0 L 361.3 377.2 L 361.3 386.1 L 363.3 386.1 L 363.3 387.2 L 357.8 387.2 L 357.8 386.1 " fill="#000000"/>
<path class="legend" d="M 369.7 378.2 L 364.4 378.2 L 364.4 377.1 L 371.2 377.1 L 371.2 378.1 L 367.1 387.2 L 365.7 387.2 L 369.7 378.2 " fill="#000000"/>
<path class="legend" d="M 372.1 385.8 L 373.5 385.8 L 373.5 387.2 L 372.1 387.2 L 372.1 385.8 " fill="#000000"/>
<path class="legend" d="M 380.2 378.2 L 374.9 378.2 L 374.9 377.1 L 381.7 377.1 L 381.7 378.1 L 377.6 387.2 L 376.2 387.2 L 380.2 378.2 " fill="#000000"/>
<path class="legend" d="M 386.3 387.3 Q 384.4 387.3, 383.5 386.0 Q 382.6 384.6, 382.6 382.1 Q 382.6 379.7, 383.5 378.3 Q 384.4 377.0, 386.3 377.0 Q 388.2 377.0, 389.1 378.3 Q 390.0 379.7, 390.0 382.1 Q 390.0 384.6, 389.1 386.0 Q 388.2 387.3, 386.3 387.3 M 386.3 386.2 Q 387.4 386.2, 388.0 385.2 Q 388.6 384.2, 388.6 382.1 Q 388.6 380.2, 388.0 379.1 Q 387.4 378.1, 386.3 378.1 Q 385.2 378.1, 384.6 379.1 Q 384.0 380.2, 384.0 382.1 Q 384.0 384.2, 384.6 385.2 Q 385.2 386.2, 386.3 386.2 " fill="#000000"/>
<ellipse cx="500.0" cy="291.5" rx="6.3" ry="6.3" class="atom-2" style="fill:#9999E5;fill-rule:evenodd;stroke:#9999E5;stroke-width:1.0px;stroke-linecap:butt;stroke-linejoin:miter;stroke-opacity:1"/>
<ellipse cx="514.9" cy="263.8" rx="6.3" ry="6.3" class="atom-3" style="fill:#E5E533;fill-rule:evenodd;stroke:#E5E533;stroke-width:1.0px;stroke-linecap:butt;stroke-linejoin:miter;stroke-opacity:1"/>
<ellipse cx="516.6" cy="318.2" rx="6.3" ry="6.3" class="atom-6" style="fill:#E5E533;fill-rule:evenodd;stroke:#E5E533;stroke-width:1.0px;stroke-linecap:butt;stroke-linejoin:miter;stroke-opacity:1"/>
<path class="bond-0 atom-0 atom-1" d="M 452.4,266.4 L 465.2,286.9" style="fill:none;fill-rule:evenodd;stroke:#E5E5E5;stroke-width:1.7px;stroke-linecap:butt;stroke-linejoin:miter;stroke-opacity:1"/>
<path class="bond-1 atom-1 atom-2" d="M 473.8,292.3 L 486.9,291.9" style="fill:none;fill-rule:evenodd;stroke:#FF0000;stroke-width:2.0px;stroke-linecap:butt;stroke-linejoin:miter;stroke-opacity:1"/>
<path class="bond-1 atom-1 atom-2" d="M 486.9,291.9 L 500.0,291.5" style="fill:none;fill-rule:evenodd;stroke:#000000;stroke-width:2.0px;stroke-linecap:butt;stroke-linejoin:miter;stroke-opacity:1"/>
<path class="bond-2 atom-2 atom-3" d="M 500.0,291.5 L 514.9,263.8" style="fill:none;fill-rule:evenodd;stroke:#000000;stroke-width:2.0px;stroke-linecap:butt;stroke-linejoin:miter;stroke-opacity:1"/>
<path class="bond-2 atom-2 atom-3" d="M 505.5,291.3 L 517.8,268.4" style="fill:none;fill-rule:evenodd;stroke:#000000;stroke-width:2.0px;stroke-linecap:butt;stroke-linejoin:miter;stroke-opacity:1;stroke-dasharray:6,4"/>
<path class="bond-3 atom-3 atom-4" d="M 514.9,263.8 L 543.1,262.9" style="fill:none;fill-rule:evenodd;stroke:#E5E5E5;stroke-width:1.7px;stroke-linecap:butt;stroke-linejoin:miter;stroke-opacity:1"/>
<path class="bond-3 atom-3 atom-4" d="M 517.8,268.4 L 543.3,267.6" style="fill:none;fill-rule:evenodd;stroke:#E5E5E5;stroke-width:1.7px;stroke-linecap:butt;stroke-linejoin:miter;stroke-opacity:1;stroke-dasharray:6,4"/>
<path class="bond-4 atom-5 atom-6" d="M 544.9,317.3 L 516.6,318.2" style="fill:none;fill-rule:evenodd;stroke:#E5E5E5;stroke-width:1.7px;stroke-linecap:butt;stroke-linejoin:miter;stroke-opacity:1"/>
<path class="bond-4 atom-5 atom-6" d="M 544.7,312.6 L 519.2,313.4" style="fill:none;fill-rule:evenodd;stroke:#E5E5E5;stroke-width:1.7px;stroke-linecap:butt;stroke-linejoin:miter;stroke-opacity:1;stroke-dasharray:6,4"/>
<path class="bond-5 atom-6 atom-2" d="M 516.6,318.2 L 500.0,291.5" style="fill:none;fill-rule:evenodd;stroke:#000000;stroke-width:2.0px;stroke-linecap:butt;stroke-linejoin:miter;stroke-opacity:1"/>
<path class="bond-5 atom-6 atom-2" d="M 519.2,313.4 L 505.5,291.3" style="fill:none;fill-rule:evenodd;stroke:#000000;stroke-width:2.0px;stroke-linecap:butt;stroke-linejoin:miter;stroke-opacity:1;stroke-dasharray:6,4"/>
<path d="M 514.5,264.5 L 514.9,263.8 L 515.6,263.8" style="fill:none;stroke:#000000;stroke-width:2.0px;stroke-linecap:butt;stroke-linejoin:miter;stroke-miterlimit:10;stroke-opacity:1;"/>
<path d="M 517.3,318.2 L 516.6,318.2 L 516.2,317.5" style="fill:none;stroke:#E5E5E5;stroke-width:1.7px;stroke-linecap:butt;stroke-linejoin:miter;stroke-miterlimit:10;stroke-opacity:1;"/>
<path class="atom-0" d="M 450.4 264.8 L 451.7 263.4 L 450.0 263.1 L 450.2 262.2 L 451.8 263.0 L 451.6 261.3 L 452.6 261.2 L 452.3 263.0 L 453.9 262.2 L 454.2 263.1 L 452.4 263.4 L 453.7 264.8 L 452.9 265.3 L 452.0 263.7 L 451.2 265.3 L 450.4 264.8 " fill="#191919"/>
<path class="atom-1" d="M 464.5 292.5 Q 464.5 290.4, 465.6 289.2 Q 466.7 288.0, 468.6 288.0 Q 470.6 288.0, 471.7 289.2 Q 472.7 290.4, 472.7 292.5 Q 472.7 294.7, 471.6 295.9 Q 470.6 297.1, 468.6 297.1 Q 466.7 297.1, 465.6 295.9 Q 464.5 294.7, 464.5 292.5 M 468.6 296.1 Q 470.0 296.1, 470.7 295.2 Q 471.5 294.3, 471.5 292.5 Q 471.5 290.8, 470.7 289.9 Q 470.0 289.0, 468.6 289.0 Q 467.3 289.0, 466.5 289.9 Q 465.8 290.7, 465.8 292.5 Q 465.8 294.3, 466.5 295.2 Q 467.3 296.1, 468.6 296.1 " fill="#FF0000"/>
<path class="atom-4" d="M 544.7 264.2 L 546.0 262.8 L 544.3 262.5 L 544.5 261.6 L 546.1 262.4 L 545.9 260.7 L 546.8 260.7 L 546.6 262.4 L 548.2 261.6 L 548.5 262.5 L 546.7 262.8 L 548.0 264.2 L 547.2 264.7 L 546.3 263.1 L 545.5 264.7 L 544.7 264.2 " fill="#191919"/>
<path class="atom-5" d="M 546.2 313.9 L 547.5 312.5 L 545.8 312.2 L 546.1 311.3 L 547.7 312.1 L 547.4 310.3 L 548.4 310.3 L 548.1 312.1 L 549.7 311.3 L 550.0 312.2 L 548.3 312.5 L 549.5 313.9 L 548.8 314.4 L 547.9 312.7 L 547.0 314.4 L 546.2 313.9 " fill="#191919"/>
<path class="legend" d="M 410.0 376.2 L 416.5 376.2 L 416.5 377.4 L 411.5 377.4 L 411.5 380.7 L 415.9 380.7 L 415.9 382.0 L 411.5 382.0 L 411.5 387.0 L 410.0 387.0 L 410.0 376.2 " fill="#000000"/>
<path class="legend" d="M 417.3 383.1 Q 417.3 381.2, 418.3 380.1 Q 419.2 379.0, 421.0 379.0 Q 422.7 379.0, 423.5 380.1 Q 424.3 381.1, 424.3 383.0 L 424.3 383.3 L 418.8 383.3 Q 418.8 384.6, 419.4 385.3 Q 420.0 386.0, 421.1 386.0 Q 421.7 386.0, 422.3 385.9 Q 422.9 385.7, 423.6 385.4 L 424.0 386.4 Q 423.2 386.8, 422.5 387.0 Q 421.8 387.2, 421.1 387.2 Q 419.3 387.2, 418.3 386.1 Q 417.3 385.0, 417.3 383.1 M 421.0 380.2 Q 420.1 380.2, 419.6 380.7 Q 419.0 381.2, 418.9 382.2 L 422.8 382.2 Q 422.7 381.2, 422.2 380.7 Q 421.8 380.2, 421.0 380.2 " fill="#000000"/>
<path class="legend" d="M 425.4 384.9 Q 425.4 383.7, 426.4 383.0 Q 427.4 382.3, 429.3 382.3 L 430.4 382.3 L 430.4 382.0 Q 430.4 381.0, 430.0 380.6 Q 429.6 380.2, 428.7 380.2 Q 428.0 380.2, 427.5 380.3 Q 427.0 380.4, 426.3 380.7 L 425.8 379.7 Q 427.3 379.0, 428.7 379.0 Q 430.4 379.0, 431.1 379.7 Q 431.9 380.4, 431.9 382.0 L 431.9 387.0 L 430.8 387.0 Q 430.8 387.0, 430.7 386.7 Q 430.7 386.5, 430.6 386.1 Q 429.5 387.2, 428.0 387.2 Q 426.8 387.2, 426.1 386.6 Q 425.4 386.0, 425.4 384.9 M 426.8 384.9 Q 426.8 385.5, 427.2 385.8 Q 427.6 386.1, 428.3 386.1 Q 428.9 386.1, 429.5 385.8 Q 430.0 385.5, 430.4 385.0 L 430.4 383.3 L 429.4 383.3 Q 428.1 383.3, 427.5 383.7 Q 426.8 384.1, 426.8 384.9 " fill="#000000"/>
<path class="legend" d="M 433.6 380.3 L 433.6 379.2 L 435.1 379.2 L 435.3 376.9 L 436.4 376.9 L 436.4 379.2 L 438.8 379.2 L 438.8 380.3 L 436.4 380.3 L 436.4 384.6 Q 436.4 386.0, 437.6 386.0 Q 438.0 386.0, 438.7 385.8 L 438.9 386.8 Q 438.1 387.1, 437.3 387.1 Q 436.3 387.1, 435.6 386.5 Q 435.0 385.9, 435.0 384.7 L 435.0 380.3 L 433.6 380.3 " fill="#000000"/>
<path class="legend" d="M 446.6 379.2 L 446.6 387.0 L 445.4 387.0 L 445.2 386.0 Q 444.2 387.2, 442.5 387.2 Q 441.2 387.2, 440.5 386.5 Q 439.9 385.8, 439.9 384.4 L 439.9 379.2 L 441.3 379.2 L 441.3 384.3 Q 441.3 385.2, 441.6 385.6 Q 442.0 386.0, 442.8 386.0 Q 443.5 386.0, 444.1 385.7 Q 444.7 385.4, 445.1 384.8 L 445.1 379.2 L 446.6 379.2 " fill="#000000"/>
<path class="legend" d="M 449.5 379.2 L 449.7 380.2 Q 450.5 379.0, 451.8 379.0 Q 452.3 379.0, 452.9 379.2 L 452.6 380.5 Q 452.0 380.3, 451.6 380.3 Q 451.0 380.3, 450.5 380.6 Q 450.1 380.8, 449.8 381.4 L 449.8 387.0 L 448.3 387.0 L 448.3 379.2 L 449.5 379.2 " fill="#000000"/>
<path class="legend" d="M 453.6 383.1 Q 453.6 381.2, 454.6 380.1 Q 455.5 379.0, 457.3 379.0 Q 459.0 379.0, 459.8 380.1 Q 460.6 381.1, 460.6 383.0 L 460.6 383.3 L 455.1 383.3 Q 455.1 384.6, 455.7 385.3 Q 456.3 386.0, 457.4 386.0 Q 458.0 386.0, 458.6 385.9 Q 459.2 385.7, 459.9 385.4 L 460.3 386.4 Q 459.5 386.8, 458.8 387.0 Q 458.1 387.2, 457.4 387.2 Q 455.6 387.2, 454.6 386.1 Q 453.6 385.0, 453.6 383.1 M 457.3 380.2 Q 456.4 380.2, 455.8 380.7 Q 455.3 381.2, 455.1 382.2 L 459.1 382.2 Q 459.0 381.2, 458.5 380.7 Q 458.1 380.2, 457.3 380.2 " fill="#000000"/>
<path class="legend" d="" fill="#000000"/>
<path class="legend" d="M 472.5 381.3 Q 473.6 381.6, 474.1 382.3 Q 474.6 383.0, 474.6 384.1 Q 474.6 385.0, 474.2 385.7 Q 473.7 386.4, 472.9 386.8 Q 472.0 387.2, 470.9 387.2 Q 469.8 387.2, 468.9 386.8 Q 468.0 386.4, 467.3 385.6 L 468.2 384.7 Q 468.9 385.4, 469.4 385.7 Q 470.0 386.0, 470.9 386.0 Q 471.9 386.0, 472.5 385.4 Q 473.1 384.9, 473.1 384.1 Q 473.1 382.9, 472.5 382.5 Q 471.9 382.0, 470.5 382.0 L 469.7 382.0 L 469.7 380.8 L 470.4 380.8 Q 471.6 380.8, 472.2 380.3 Q 472.9 379.8, 472.9 378.8 Q 472.9 378.1, 472.3 377.7 Q 471.8 377.3, 470.9 377.3 Q 470.0 377.3, 469.5 377.6 Q 468.9 377.9, 468.5 378.7 L 467.4 378.2 Q 467.8 377.3, 468.7 376.7 Q 469.6 376.1, 470.9 376.1 Q 472.5 376.1, 473.5 376.8 Q 474.4 377.6, 474.4 378.8 Q 474.4 379.7, 473.9 380.3 Q 473.4 381.0, 472.5 381.3 " fill="#000000"/>
<path class="legend" d="M 476.1 378.2 Q 476.5 377.2, 477.4 376.6 Q 478.4 376.1, 479.7 376.1 Q 481.3 376.1, 482.3 377.0 Q 483.2 377.8, 483.2 379.4 Q 483.2 381.0, 482.0 382.5 Q 480.8 384.0, 478.4 385.8 L 483.4 385.8 L 483.4 387.0 L 476.1 387.0 L 476.1 386.0 Q 478.1 384.6, 479.3 383.5 Q 480.5 382.4, 481.1 381.5 Q 481.7 380.5, 481.7 379.5 Q 481.7 378.5, 481.1 377.9 Q 480.6 377.3, 479.7 377.3 Q 478.8 377.3, 478.3 377.6 Q 477.7 378.0, 477.3 378.8 L 476.1 378.2 " fill="#000000"/>
<path class="legend" d="M 484.8 378.2 Q 485.2 377.2, 486.2 376.6 Q 487.1 376.1, 488.5 376.1 Q 490.1 376.1, 491.0 377.0 Q 491.9 377.8, 491.9 379.4 Q 491.9 381.0, 490.8 382.5 Q 489.6 384.0, 487.1 385.8 L 492.1 385.8 L 492.1 387.0 L 484.8 387.0 L 484.8 386.0 Q 486.8 384.6, 488.0 383.5 Q 489.2 382.4, 489.8 381.5 Q 490.4 380.5, 490.4 379.5 Q 490.4 378.5, 489.9 377.9 Q 489.4 377.3, 488.5 377.3 Q 487.6 377.3, 487.0 377.6 Q 486.4 378.0, 486.0 378.8 L 484.8 378.2 " fill="#000000"/>
<path class="legend" d="" fill="#000000"/>
<path class="legend" d="M 499.2 375.2 L 500.5 375.2 L 500.5 390.0 L 499.2 390.0 L 499.2 375.2 " fill="#000000"/>
<path class="legend" d="" fill="#000000"/>
<path class="legend" d="M 508.4 385.4 Q 508.5 385.4, 509.0 385.6 Q 509.5 385.8, 510.1 386.0 Q 510.6 386.1, 511.2 386.1 Q 512.2 386.1, 512.8 385.6 Q 513.4 385.1, 513.4 384.2 Q 513.4 383.6, 513.1 383.3 Q 512.8 382.9, 512.3 382.7 Q 511.9 382.5, 511.1 382.3 Q 510.2 382.0, 509.6 381.7 Q 509.0 381.4, 508.6 380.8 Q 508.2 380.2, 508.2 379.3 Q 508.2 377.9, 509.1 377.1 Q 510.0 376.2, 511.9 376.2 Q 513.1 376.2, 514.6 376.8 L 514.2 378.0 Q 512.9 377.5, 511.9 377.5 Q 510.9 377.5, 510.3 377.9 Q 509.7 378.3, 509.7 379.1 Q 509.7 379.7, 510.0 380.0 Q 510.3 380.4, 510.8 380.6 Q 511.2 380.8, 511.9 381.0 Q 512.9 381.3, 513.5 381.6 Q 514.1 381.9, 514.5 382.5 Q 514.9 383.2, 514.9 384.2 Q 514.9 385.7, 513.9 386.5 Q 512.9 387.3, 511.2 387.3 Q 510.3 387.3, 509.5 387.1 Q 508.8 386.9, 508.0 386.6 L 508.4 385.4 " fill="#000000"/>
<path class="legend" d="M 516.2 376.2 L 517.6 376.2 L 517.6 380.8 L 523.2 380.8 L 523.2 376.2 L 524.7 376.2 L 524.7 387.0 L 523.2 387.0 L 523.2 382.0 L 517.6 382.0 L 517.6 387.0 L 516.2 387.0 L 516.2 376.2 " fill="#000000"/>
<path class="legend" d="M 534.5 387.0 L 533.4 383.9 L 529.1 383.9 L 528.0 387.0 L 526.5 387.0 L 530.2 376.2 L 532.0 376.2 L 535.9 387.0 L 534.5 387.0 M 529.5 382.6 L 532.9 382.6 L 531.2 377.7 L 529.5 382.6 " fill="#000000"/>
<path class="legend" d="M 539.8 376.2 Q 541.7 376.2, 542.6 377.0 Q 543.6 377.9, 543.6 379.4 Q 543.6 380.9, 542.6 381.7 Q 541.6 382.6, 539.8 382.6 L 538.1 382.6 L 538.1 387.0 L 536.6 387.0 L 536.6 376.2 L 539.8 376.2 M 539.8 381.4 Q 540.9 381.4, 541.5 380.8 Q 542.0 380.3, 542.0 379.4 Q 542.0 378.4, 541.5 377.9 Q 540.9 377.4, 539.8 377.4 L 538.1 377.4 L 538.1 381.4 L 539.8 381.4 " fill="#000000"/>
<path class="legend" d="M 544.8 385.2 L 546.3 385.2 L 546.3 386.8 L 544.8 386.8 L 544.8 385.2 M 544.8 380.0 L 546.3 380.0 L 546.3 381.5 L 544.8 381.5 L 544.8 380.0 " fill="#000000"/>
<path class="legend" d="" fill="#000000"/>
<path class="legend" d="M 554.2 385.8 L 556.6 385.8 L 556.6 377.7 L 554.0 378.5 L 553.6 377.6 L 557.0 376.1 L 558.1 376.3 L 558.1 385.8 L 560.2 385.8 L 560.2 387.0 L 554.2 387.0 L 554.2 385.8 " fill="#000000"/>
<path class="legend" d="M 567.1 377.4 L 561.4 377.4 L 561.4 376.2 L 568.6 376.2 L 568.6 377.3 L 564.2 387.0 L 562.7 387.0 L 567.1 377.4 " fill="#000000"/>
<path class="legend" d="M 569.5 385.5 L 571.1 385.5 L 571.1 387.0 L 569.5 387.0 L 569.5 385.5 " fill="#000000"/>
<path class="legend" d="M 576.6 387.2 Q 574.6 387.2, 573.6 385.7 Q 572.6 384.2, 572.6 381.6 Q 572.6 379.0, 573.6 377.5 Q 574.6 376.1, 576.6 376.1 Q 578.6 376.1, 579.6 377.5 Q 580.5 379.0, 580.5 381.6 Q 580.5 384.2, 579.5 385.7 Q 578.6 387.2, 576.6 387.2 M 576.6 385.9 Q 577.7 385.9, 578.4 384.8 Q 579.0 383.7, 579.0 381.6 Q 579.0 379.5, 578.4 378.4 Q 577.7 377.3, 576.6 377.3 Q 575.4 377.3, 574.8 378.4 Q 574.1 379.5, 574.1 381.6 Q 574.1 383.7, 574.8 384.8 Q 575.4 385.9, 576.6 385.9 " fill="#000000"/>
<path class="legend" d="M 586.0 387.2 Q 584.0 387.2, 583.0 385.7 Q 582.1 384.2, 582.1 381.6 Q 582.1 379.0, 583.0 377.5 Q 584.0 376.1, 586.0 376.1 Q 588.0 376.1, 589.0 377.5 Q 590.0 379.0, 590.0 381.6 Q 590.0 384.2, 589.0 385.7 Q 588.0 387.2, 586.0 387.2 M 586.0 385.9 Q 587.2 385.9, 587.8 384.8 Q 588.5 383.7, 588.5 381.6 Q 588.5 379.5, 587.8 378.4 Q 587.2 377.3, 586.0 377.3 Q 584.9 377.3, 584.2 378.4 Q 583.6 379.5, 583.6 381.6 Q 583.6 383.7, 584.2 384.8 Q 584.9 385.9, 586.0 385.9 " fill="#000000"/>
</svg>