<svg xmlns="http://www.w3.org/2000/svg" xmlns:rdkit="http://www.rdkit.org/xml" xmlns:xlink="http://www.w3.org/1999/xlink" version="1.1" baseProfile="full" xml:space="preserve" width="600px" height="400px" viewBox="0 0 600 400">
<!-- END OF HEADER -->
<rect width="100%" height="100%" fill="#E5ECF6"/>
<rect style="opacity:1.0;fill:#E5ECF6;stroke:none" width="200.0" height="200.0" x="0.0" y="0.0"> </rect>
<ellipse cx="98.7" cy="51.5" rx="7.6" ry="7.6" class="atom-1" style="fill:#E5E533;fill-rule:evenodd;stroke:#E5E533;stroke-width:1.0px;stroke-linecap:butt;stroke-linejoin:miter;stroke-opacity:1"/>
<ellipse cx="104.8" cy="89.2" rx="7.6" ry="7.6" class="atom-2" style="fill:#9999E5;fill-rule:evenodd;stroke:#9999E5;stroke-width:1.0px;stroke-linecap:butt;stroke-linejoin:miter;stroke-opacity:1"/>
<ellipse cx="78.0" cy="116.3" rx="7.6" ry="7.6" class="atom-3" style="fill:#E5E533;fill-rule:evenodd;stroke:#E5E533;stroke-width:1.0px;stroke-linecap:butt;stroke-linejoin:miter;stroke-opacity:1"/>
<ellipse cx="142.6" cy="95.0" rx="7.6" ry="7.6" class="atom-5" style="fill:#E5E533;fill-rule:evenodd;stroke:#E5E533;stroke-width:1.0px;stroke-linecap:butt;stroke-linejoin:miter;stroke-opacity:1"/>
<path class="bond-0 atom-0 atom-1" d="M 132.6,37.3 L 105.4,51.3" style="fill:none;fill-rule:evenodd;stroke:#E5E5E5;stroke-width:2.0px;stroke-linecap:butt;stroke-linejoin:miter;stroke-opacity:1"/>
<path class="bond-0 atom-0 atom-1" d="M 130.0,32.2 L 102.8,46.2" style="fill:none;fill-rule:evenodd;stroke:#E5E5E5;stroke-width:2.0px;stroke-linecap:butt;stroke-linejoin:miter;stroke-opacity:1;stroke-dasharray:6,4"/>
<path class="bond-1 atom-1 atom-2" d="M 99.8,58.2 L 104.8,89.2" style="fill:none;fill-rule:evenodd;stroke:#000000;stroke-width:2.0px;stroke-linecap:butt;stroke-linejoin:miter;stroke-opacity:1"/>
<path class="bond-1 atom-1 atom-2" d="M 105.5,57.3 L 109.8,84.2" style="fill:none;fill-rule:evenodd;stroke:#000000;stroke-width:2.0px;stroke-linecap:butt;stroke-linejoin:miter;stroke-opacity:1;stroke-dasharray:6,4"/>
<path class="bond-2 atom-2 atom-3" d="M 104.8,89.2 L 78.0,116.3" style="fill:none;fill-rule:evenodd;stroke:#000000;stroke-width:2.0px;stroke-linecap:butt;stroke-linejoin:miter;stroke-opacity:1"/>
<path class="bond-3 atom-3 atom-4" d="M 80.4,113.8 L 44.5,108.2" style="fill:none;fill-rule:evenodd;stroke:#E5E5E5;stroke-width:2.0px;stroke-linecap:butt;stroke-linejoin:miter;stroke-opacity:1"/>
<path class="bond-3 atom-3 atom-4" d="M 78.4,119.3 L 43.6,113.9" style="fill:none;fill-rule:evenodd;stroke:#E5E5E5;stroke-width:2.0px;stroke-linecap:butt;stroke-linejoin:miter;stroke-opacity:1;stroke-dasharray:6,4"/>
<path class="bond-4 atom-2 atom-5" d="M 104.8,89.2 L 136.4,94.1" style="fill:none;fill-rule:evenodd;stroke:#000000;stroke-width:2.0px;stroke-linecap:butt;stroke-linejoin:miter;stroke-opacity:1"/>
<path class="bond-4 atom-2 atom-5" d="M 109.8,84.2 L 137.2,88.4" style="fill:none;fill-rule:evenodd;stroke:#000000;stroke-width:2.0px;stroke-linecap:butt;stroke-linejoin:miter;stroke-opacity:1;stroke-dasharray:6,4"/>
<path class="bond-5 atom-5 atom-6" d="M 148.5,89.6 L 162.0,63.0" style="fill:none;fill-rule:evenodd;stroke:#E5E5E5;stroke-width:2.0px;stroke-linecap:butt;stroke-linejoin:miter;stroke-opacity:1"/>
<path class="bond-5 atom-5 atom-6" d="M 143.4,87.0 L 156.9,60.4" style="fill:none;fill-rule:evenodd;stroke:#E5E5E5;stroke-width:2.0px;stroke-linecap:butt;stroke-linejoin:miter;stroke-opacity:1;stroke-dasharray:6,4"/>
<path class="bond-6 atom-7 atom-3" d="M 80.1,147.7 L 75.0,115.8" style="fill:none;fill-rule:evenodd;stroke:#E5E5E5;stroke-width:2.0px;stroke-linecap:butt;stroke-linejoin:miter;stroke-opacity:1"/>
<path class="bond-6 atom-7 atom-3" d="M 85.8,146.8 L 80.4,113.8" style="fill:none;fill-rule:evenodd;stroke:#E5E5E5;stroke-width:2.0px;stroke-linecap:butt;stroke-linejoin:miter;stroke-opacity:1;stroke-dasharray:6,4"/>
<path class="atom-0" d="M 130.6 32.9 L 132.2 31.2 L 130.1 30.8 L 130.4 29.7 L 132.4 30.7 L 132.1 28.6 L 133.3 28.6 L 132.9 30.7 L 134.9 29.8 L 135.2 30.8 L 133.1 31.2 L 134.6 32.8 L 133.7 33.5 L 132.6 31.5 L 131.6 33.5 L 130.6 32.9 " fill="#191919"/>
<path class="atom-1" d="M 96.3 46.1 L 99.9 51.8 Q 100.2 52.4, 100.8 53.4 Q 101.4 54.5, 101.4 54.5 L 101.4 46.1 L 102.8 46.1 L 102.8 56.9 L 101.3 56.9 L 97.5 50.7 Q 97.1 49.9, 96.6 49.1 Q 96.2 48.3, 96.0 48.0 L 96.0 56.9 L 94.6 56.9 L 94.6 46.1 L 96.3 46.1 " fill="#000000"/>
<path class="atom-4" d="M 38.2 109.3 L 39.8 107.7 L 37.7 107.2 L 38.0 106.1 L 39.9 107.1 L 39.6 105.0 L 40.8 105.0 L 40.5 107.1 L 42.4 106.2 L 42.8 107.2 L 40.6 107.6 L 42.2 109.3 L 41.2 109.9 L 40.2 107.9 L 39.1 109.9 L 38.2 109.3 " fill="#191919"/>
<path class="atom-5" d="M 137.6 95.1 Q 137.6 92.5, 138.9 91.0 Q 140.2 89.6, 142.6 89.6 Q 145.0 89.6, 146.3 91.0 Q 147.5 92.5, 147.5 95.1 Q 147.5 97.7, 146.2 99.2 Q 144.9 100.7, 142.6 100.7 Q 140.2 100.7, 138.9 99.2 Q 137.6 97.7, 137.6 95.1 M 142.6 99.4 Q 144.2 99.4, 145.1 98.3 Q 146.0 97.2, 146.0 95.1 Q 146.0 92.9, 145.1 91.9 Q 144.2 90.8, 142.6 90.8 Q 140.9 90.8, 140.0 91.9 Q 139.1 92.9, 139.1 95.1 Q 139.1 97.2, 140.0 98.3 Q 140.9 99.4, 142.6 99.4 " fill="#000000"/>
<path class="atom-6" d="M 157.7 59.7 L 159.3 58.1 L 157.2 57.7 L 157.5 56.6 L 159.5 57.6 L 159.2 55.5 L 160.4 55.5 L 160.0 57.6 L 162.0 56.7 L 162.3 57.7 L 160.2 58.1 L 161.7 59.7 L 160.8 60.4 L 159.7 58.4 L 158.7 60.4 L 157.7 59.7 " fill="#191919"/>
<path class="atom-7" d="M 82.0 152.8 L 83.6 151.2 L 81.5 150.7 L 81.8 149.7 L 83.8 150.6 L 83.5 148.5 L 84.6 148.5 L 84.3 150.6 L 86.3 149.7 L 86.6 150.7 L 84.5 151.1 L 86.0 152.8 L 85.1 153.4 L 84.0 151.4 L 83.0 153.4 L 82.0 152.8 " fill="#191919"/>
<path class="legend" d="M 10.0 177.0 L 16.1 177.0 L 16.1 178.2 L 11.4 178.2 L 11.4 181.3 L 15.5 181.3 L 15.5 182.5 L 11.4 182.5 L 11.4 187.2 L 10.0 187.2 L 10.0 177.0 " fill="#000000"/>
<path class="legend" d="M 16.9 183.5 Q 16.9 181.7, 17.8 180.7 Q 18.7 179.7, 20.4 179.7 Q 22.0 179.7, 22.7 180.7 Q 23.4 181.6, 23.4 183.5 L 23.4 183.7 L 18.3 183.7 Q 18.3 184.9, 18.9 185.6 Q 19.4 186.3, 20.5 186.3 Q 21.0 186.3, 21.6 186.1 Q 22.1 186.0, 22.8 185.7 L 23.1 186.6 Q 22.4 187.0, 21.8 187.2 Q 21.1 187.3, 20.4 187.3 Q 18.7 187.3, 17.8 186.3 Q 16.9 185.3, 16.9 183.5 M 20.4 180.8 Q 19.5 180.8, 19.0 181.2 Q 18.5 181.7, 18.3 182.7 L 22.0 182.7 Q 21.9 181.7, 21.5 181.2 Q 21.1 180.8, 20.4 180.8 " fill="#000000"/>
<path class="legend" d="M 24.5 185.2 Q 24.5 184.0, 25.4 183.4 Q 26.4 182.7, 28.1 182.7 L 29.2 182.7 L 29.2 182.5 Q 29.2 181.5, 28.8 181.1 Q 28.5 180.8, 27.5 180.8 Q 27.0 180.8, 26.5 180.9 Q 26.0 181.0, 25.3 181.3 L 24.9 180.4 Q 26.3 179.7, 27.6 179.7 Q 29.1 179.7, 29.9 180.4 Q 30.6 181.0, 30.6 182.5 L 30.6 187.2 L 29.5 187.2 Q 29.5 187.2, 29.5 186.9 Q 29.4 186.7, 29.3 186.4 Q 28.3 187.4, 26.9 187.4 Q 25.8 187.4, 25.2 186.8 Q 24.5 186.2, 24.5 185.2 M 25.8 185.2 Q 25.8 185.7, 26.2 186.0 Q 26.5 186.3, 27.2 186.3 Q 27.8 186.3, 28.3 186.1 Q 28.9 185.8, 29.2 185.3 L 29.2 183.8 L 28.2 183.8 Q 27.0 183.8, 26.4 184.1 Q 25.8 184.5, 25.8 185.2 " fill="#000000"/>
<path class="legend" d="M 32.2 180.9 L 32.2 179.8 L 33.6 179.8 L 33.8 177.7 L 34.8 177.7 L 34.8 179.8 L 37.1 179.8 L 37.1 180.9 L 34.8 180.9 L 34.8 184.9 Q 34.8 186.2, 35.9 186.2 Q 36.4 186.2, 37.0 186.0 L 37.2 187.0 Q 36.4 187.3, 35.7 187.3 Q 34.7 187.3, 34.1 186.7 Q 33.5 186.2, 33.5 185.0 L 33.5 180.9 L 32.2 180.9 " fill="#000000"/>
<path class="legend" d="M 44.4 179.8 L 44.4 187.2 L 43.3 187.2 L 43.1 186.2 Q 42.1 187.4, 40.6 187.4 Q 39.4 187.4, 38.7 186.7 Q 38.1 186.0, 38.1 184.7 L 38.1 179.8 L 39.4 179.8 L 39.4 184.6 Q 39.4 185.5, 39.8 185.9 Q 40.1 186.3, 40.9 186.3 Q 41.5 186.3, 42.1 186.0 Q 42.7 185.7, 43.0 185.1 L 43.0 179.8 L 44.4 179.8 " fill="#000000"/>
<path class="legend" d="M 47.2 179.8 L 47.3 180.8 Q 48.1 179.7, 49.4 179.7 Q 49.8 179.7, 50.3 179.8 L 50.1 181.0 Q 49.5 180.9, 49.1 180.9 Q 48.5 180.9, 48.1 181.1 Q 47.7 181.4, 47.4 181.9 L 47.4 187.2 L 46.1 187.2 L 46.1 179.8 L 47.2 179.8 " fill="#000000"/>
<path class="legend" d="M 51.0 183.5 Q 51.0 181.7, 51.9 180.7 Q 52.9 179.7, 54.5 179.7 Q 56.1 179.7, 56.9 180.7 Q 57.6 181.6, 57.6 183.5 L 57.6 183.7 L 52.4 183.7 Q 52.5 184.9, 53.0 185.6 Q 53.6 186.3, 54.6 186.3 Q 55.2 186.3, 55.7 186.1 Q 56.3 186.0, 56.9 185.7 L 57.3 186.6 Q 56.6 187.0, 55.9 187.2 Q 55.2 187.3, 54.6 187.3 Q 52.9 187.3, 52.0 186.3 Q 51.0 185.3, 51.0 183.5 M 54.5 180.8 Q 53.7 180.8, 53.1 181.2 Q 52.6 181.7, 52.5 182.7 L 56.2 182.7 Q 56.1 181.7, 55.7 181.2 Q 55.3 180.8, 54.5 180.8 " fill="#000000"/>
<path class="legend" d="" fill="#000000"/>
<path class="legend" d="M 64.5 186.1 L 66.7 186.1 L 66.7 178.5 L 64.3 179.2 L 64.0 178.4 L 67.1 177.0 L 68.1 177.1 L 68.1 186.1 L 70.1 186.1 L 70.1 187.2 L 64.5 187.2 L 64.5 186.1 " fill="#000000"/>
<path class="legend" d="M 74.9 187.3 Q 73.1 187.3, 72.1 186.0 Q 71.2 184.6, 71.2 182.1 Q 71.2 179.7, 72.1 178.3 Q 73.1 176.9, 74.9 176.9 Q 76.8 176.9, 77.8 178.3 Q 78.7 179.7, 78.7 182.1 Q 78.7 184.6, 77.7 186.0 Q 76.8 187.3, 74.9 187.3 M 74.9 186.2 Q 76.1 186.2, 76.6 185.2 Q 77.2 184.1, 77.2 182.1 Q 77.2 180.1, 76.6 179.1 Q 76.1 178.1, 74.9 178.1 Q 73.9 178.1, 73.2 179.1 Q 72.7 180.1, 72.7 182.1 Q 72.7 184.1, 73.2 185.2 Q 73.9 186.2, 74.9 186.2 " fill="#000000"/>
<path class="legend" d="M 86.7 183.7 L 88.0 183.7 L 88.0 184.9 L 86.7 184.9 L 86.7 187.2 L 85.4 187.2 L 85.4 184.9 L 80.1 184.9 L 80.1 184.0 L 84.6 177.0 L 86.7 177.0 L 86.7 183.7 M 81.8 183.7 L 85.4 183.7 L 85.4 178.0 L 81.8 183.7 " fill="#000000"/>
<path class="legend" d="M 94.5 178.2 L 89.2 178.2 L 89.2 177.0 L 95.9 177.0 L 95.9 178.1 L 91.8 187.2 L 90.4 187.2 L 94.5 178.2 " fill="#000000"/>
<path class="legend" d="" fill="#000000"/>
<path class="legend" d="M 102.2 176.1 L 103.4 176.1 L 103.4 190.0 L 102.2 190.0 L 102.2 176.1 " fill="#000000"/>
<path class="legend" d="" fill="#000000"/>
<path class="legend" d="M 110.8 185.6 Q 110.9 185.7, 111.4 185.9 Q 111.9 186.1, 112.4 186.2 Q 112.9 186.3, 113.4 186.3 Q 114.4 186.3, 115.0 185.9 Q 115.5 185.4, 115.5 184.6 Q 115.5 184.0, 115.2 183.7 Q 115.0 183.3, 114.5 183.1 Q 114.1 182.9, 113.4 182.7 Q 112.5 182.5, 111.9 182.2 Q 111.4 181.9, 111.0 181.4 Q 110.6 180.8, 110.6 179.9 Q 110.6 178.6, 111.5 177.9 Q 112.4 177.1, 114.1 177.1 Q 115.3 177.1, 116.6 177.6 L 116.3 178.7 Q 115.1 178.2, 114.2 178.2 Q 113.2 178.2, 112.6 178.6 Q 112.1 179.0, 112.1 179.8 Q 112.1 180.3, 112.4 180.6 Q 112.6 181.0, 113.0 181.1 Q 113.5 181.3, 114.2 181.6 Q 115.1 181.8, 115.6 182.1 Q 116.2 182.4, 116.6 183.0 Q 117.0 183.6, 117.0 184.6 Q 117.0 186.0, 116.0 186.7 Q 115.1 187.5, 113.5 187.5 Q 112.6 187.5, 111.9 187.3 Q 111.2 187.1, 110.4 186.8 L 110.8 185.6 " fill="#000000"/>
<path class="legend" d="M 118.1 177.0 L 119.5 177.0 L 119.5 181.4 L 124.7 181.4 L 124.7 177.0 L 126.1 177.0 L 126.1 187.2 L 124.7 187.2 L 124.7 182.5 L 119.5 182.5 L 119.5 187.2 L 118.1 187.2 L 118.1 177.0 " fill="#000000"/>
<path class="legend" d="M 135.4 187.2 L 134.3 184.2 L 130.3 184.2 L 129.2 187.2 L 127.9 187.2 L 131.4 177.0 L 133.1 177.0 L 136.7 187.2 L 135.4 187.2 M 130.7 183.1 L 133.9 183.1 L 132.2 178.5 L 130.7 183.1 " fill="#000000"/>
<path class="legend" d="M 140.4 177.0 Q 142.1 177.0, 143.0 177.8 Q 143.9 178.6, 143.9 180.0 Q 143.9 181.4, 143.0 182.2 Q 142.1 183.0, 140.4 183.0 L 138.8 183.0 L 138.8 187.2 L 137.4 187.2 L 137.4 177.0 L 140.4 177.0 M 140.4 181.9 Q 141.4 181.9, 141.9 181.4 Q 142.5 180.9, 142.5 180.0 Q 142.5 179.1, 141.9 178.7 Q 141.4 178.2, 140.4 178.2 L 138.8 178.2 L 138.8 181.9 L 140.4 181.9 " fill="#000000"/>
<path class="legend" d="M 145.1 185.5 L 146.5 185.5 L 146.5 187.0 L 145.1 187.0 L 145.1 185.5 M 145.1 180.6 L 146.5 180.6 L 146.5 182.0 L 145.1 182.0 L 145.1 180.6 " fill="#000000"/>
<path class="legend" d="" fill="#000000"/>
<path class="legend" d="M 153.4 179.0 Q 153.8 178.0, 154.7 177.5 Q 155.6 176.9, 156.8 176.9 Q 158.4 176.9, 159.2 177.8 Q 160.1 178.6, 160.1 180.1 Q 160.1 181.6, 159.0 183.0 Q 157.9 184.4, 155.6 186.1 L 160.3 186.1 L 160.3 187.2 L 153.4 187.2 L 153.4 186.3 Q 155.3 184.9, 156.4 183.9 Q 157.6 182.9, 158.1 182.0 Q 158.7 181.1, 158.7 180.1 Q 158.7 179.2, 158.2 178.6 Q 157.7 178.1, 156.8 178.1 Q 156.0 178.1, 155.5 178.4 Q 154.9 178.7, 154.5 179.5 L 153.4 179.0 " fill="#000000"/>
<path class="legend" d="M 168.3 183.7 L 169.5 183.7 L 169.5 184.9 L 168.3 184.9 L 168.3 187.2 L 166.9 187.2 L 166.9 184.9 L 161.7 184.9 L 161.7 184.0 L 166.1 177.0 L 168.3 177.0 L 168.3 183.7 M 163.3 183.7 L 166.9 183.7 L 166.9 178.0 L 163.3 183.7 " fill="#000000"/>
<path class="legend" d="M 170.7 185.8 L 172.2 185.8 L 172.2 187.2 L 170.7 187.2 L 170.7 185.8 " fill="#000000"/>
<path class="legend" d="M 177.0 176.9 Q 178.8 176.9, 179.7 178.2 Q 180.7 179.4, 180.7 181.8 Q 180.7 184.5, 179.5 185.9 Q 178.4 187.3, 176.2 187.3 Q 175.6 187.3, 175.1 187.2 Q 174.5 187.0, 174.0 186.7 L 174.6 185.8 Q 175.3 186.2, 176.2 186.2 Q 177.7 186.2, 178.4 185.3 Q 179.1 184.3, 179.2 182.4 Q 178.7 182.9, 178.0 183.1 Q 177.4 183.4, 176.7 183.4 Q 175.8 183.4, 175.1 183.0 Q 174.4 182.6, 174.0 181.9 Q 173.6 181.2, 173.6 180.3 Q 173.6 179.3, 174.0 178.6 Q 174.5 177.8, 175.3 177.3 Q 176.0 176.9, 177.0 176.9 M 175.0 180.3 Q 175.0 181.2, 175.5 181.7 Q 176.0 182.2, 176.9 182.2 Q 177.6 182.2, 178.2 182.0 Q 178.8 181.7, 179.2 181.3 Q 179.2 179.6, 178.6 178.9 Q 178.1 178.1, 177.0 178.1 Q 176.5 178.1, 176.0 178.4 Q 175.6 178.7, 175.3 179.2 Q 175.0 179.7, 175.0 180.3 " fill="#000000"/>
<path class="legend" d="M 188.8 183.7 L 190.0 183.7 L 190.0 184.9 L 188.8 184.9 L 188.8 187.2 L 187.4 187.2 L 187.4 184.9 L 182.2 184.9 L 182.2 184.0 L 186.6 177.0 L 188.8 177.0 L 188.8 183.7 M 183.8 183.7 L 187.4 183.7 L 187.4 178.0 L 183.8 183.7 " fill="#000000"/>
<ellipse cx="300.0" cy="96.8" rx="7.6" ry="7.6" class="atom-2" style="fill:#9999E5;fill-rule:evenodd;stroke:#9999E5;stroke-width:1.0px;stroke-linecap:butt;stroke-linejoin:miter;stroke-opacity:1"/>
<path class="bond-0 atom-0 atom-1" d="M 358.0,120.9 L 324.1,126.4" style="fill:none;fill-rule:evenodd;stroke:#E5E5E5;stroke-width:2.0px;stroke-linecap:butt;stroke-linejoin:miter;stroke-opacity:1"/>
<path class="bond-1 atom-1 atom-2" d="M 324.1,126.4 L 300.0,96.8" style="fill:none;fill-rule:evenodd;stroke:#000000;stroke-width:2.0px;stroke-linecap:butt;stroke-linejoin:miter;stroke-opacity:1"/>
<path class="bond-2 atom-2 atom-3" d="M 302.1,99.4 L 307.8,84.2" style="fill:none;fill-rule:evenodd;stroke:#000000;stroke-width:2.0px;stroke-linecap:butt;stroke-linejoin:miter;stroke-opacity:1"/>
<path class="bond-2 atom-2 atom-3" d="M 307.8,84.2 L 313.6,69.0" style="fill:none;fill-rule:evenodd;stroke:#FF0000;stroke-width:2.0px;stroke-linecap:butt;stroke-linejoin:miter;stroke-opacity:1"/>
<path class="bond-2 atom-2 atom-3" d="M 296.7,97.3 L 302.5,82.1" style="fill:none;fill-rule:evenodd;stroke:#000000;stroke-width:2.0px;stroke-linecap:butt;stroke-linejoin:miter;stroke-opacity:1"/>
<path class="bond-2 atom-2 atom-3" d="M 302.5,82.1 L 308.3,67.0" style="fill:none;fill-rule:evenodd;stroke:#FF0000;stroke-width:2.0px;stroke-linecap:butt;stroke-linejoin:miter;stroke-opacity:1"/>
<path class="bond-3 atom-2 atom-4" d="M 300.0,96.8 L 283.8,99.4" style="fill:none;fill-rule:evenodd;stroke:#000000;stroke-width:2.0px;stroke-linecap:butt;stroke-linejoin:miter;stroke-opacity:1"/>
<path class="bond-3 atom-2 atom-4" d="M 283.8,99.4 L 267.7,102.0" style="fill:none;fill-rule:evenodd;stroke:#0000FF;stroke-width:2.0px;stroke-linecap:butt;stroke-linejoin:miter;stroke-opacity:1"/>
<path class="bond-4 atom-4 atom-5" d="M 256.9,96.2 L 238.8,74.0" style="fill:none;fill-rule:evenodd;stroke:#E5E5E5;stroke-width:2.0px;stroke-linecap:butt;stroke-linejoin:miter;stroke-opacity:1"/>
<path d="M 325.0,126.2 L 324.1,126.4 L 323.5,125.6" style="fill:none;stroke:#E5E5E5;stroke-width:2.0px;stroke-linecap:butt;stroke-linejoin:miter;stroke-miterlimit:10;stroke-opacity:1;"/>
<path d="M 301.2,98.3 L 300.0,96.8 L 299.2,96.9" style="fill:none;stroke:#000000;stroke-width:2.0px;stroke-linecap:butt;stroke-linejoin:miter;stroke-miterlimit:10;stroke-opacity:1;"/>
<path class="atom-0" d="M 359.8 119.0 L 361.4 117.4 L 359.3 117.0 L 359.6 115.9 L 361.5 116.9 L 361.3 114.8 L 362.4 114.8 L 362.1 116.9 L 364.0 116.0 L 364.4 117.0 L 362.2 117.4 L 363.8 119.0 L 362.8 119.7 L 361.8 117.7 L 360.7 119.7 L 359.8 119.0 " fill="#191919"/>
<path class="atom-3" d="M 308.6 61.1 Q 308.6 58.5, 309.9 57.1 Q 311.1 55.6, 313.5 55.6 Q 315.9 55.6, 317.2 57.1 Q 318.5 58.5, 318.5 61.1 Q 318.5 63.8, 317.2 65.3 Q 315.9 66.7, 313.5 66.7 Q 311.2 66.7, 309.9 65.3 Q 308.6 63.8, 308.6 61.1 M 313.5 65.5 Q 315.2 65.5, 316.1 64.4 Q 317.0 63.3, 317.0 61.1 Q 317.0 59.0, 316.1 57.9 Q 315.2 56.9, 313.5 56.9 Q 311.9 56.9, 311.0 57.9 Q 310.1 59.0, 310.1 61.1 Q 310.1 63.3, 311.0 64.4 Q 311.9 65.5, 313.5 65.5 " fill="#FF0000"/>
<path class="atom-4" d="M 247.6 97.5 L 249.1 97.5 L 249.1 102.1 L 254.6 102.1 L 254.6 97.5 L 256.1 97.5 L 256.1 108.3 L 254.6 108.3 L 254.6 103.3 L 249.1 103.3 L 249.1 108.3 L 247.6 108.3 L 247.6 97.5 " fill="#0000FF"/>
<path class="atom-4" d="M 259.9 97.5 L 263.5 103.2 Q 263.8 103.8, 264.4 104.8 Q 264.9 105.8, 265.0 105.9 L 265.0 97.5 L 266.4 97.5 L 266.4 108.3 L 264.9 108.3 L 261.1 102.1 Q 260.7 101.3, 260.2 100.5 Q 259.8 99.6, 259.6 99.4 L 259.6 108.3 L 258.2 108.3 L 258.2 97.5 L 259.9 97.5 " fill="#0000FF"/>
<path class="atom-5" d="M 236.1 72.1 L 237.7 70.5 L 235.6 70.1 L 235.9 69.0 L 237.9 70.0 L 237.6 67.8 L 238.7 67.8 L 238.4 70.0 L 240.4 69.0 L 240.7 70.1 L 238.6 70.5 L 240.1 72.1 L 239.2 72.8 L 238.1 70.8 L 237.1 72.8 L 236.1 72.1 " fill="#191919"/>
<path class="legend" d="M 210.0 176.1 L 216.5 176.1 L 216.5 177.3 L 211.5 177.3 L 211.5 180.6 L 216.0 180.6 L 216.0 181.9 L 211.5 181.9 L 211.5 187.0 L 210.0 187.0 L 210.0 176.1 " fill="#000000"/>
<path class="legend" d="M 217.4 183.0 Q 217.4 181.1, 218.4 180.0 Q 219.3 178.9, 221.1 178.9 Q 222.9 178.9, 223.6 180.0 Q 224.4 181.0, 224.4 183.0 L 224.4 183.2 L 218.9 183.2 Q 218.9 184.6, 219.5 185.3 Q 220.1 186.0, 221.2 186.0 Q 221.9 186.0, 222.4 185.9 Q 223.0 185.7, 223.7 185.4 L 224.1 186.4 Q 223.3 186.8, 222.6 187.0 Q 221.9 187.1, 221.2 187.1 Q 219.4 187.1, 218.4 186.1 Q 217.4 185.0, 217.4 183.0 M 221.1 180.1 Q 220.2 180.1, 219.6 180.6 Q 219.1 181.1, 218.9 182.1 L 222.9 182.1 Q 222.8 181.1, 222.4 180.6 Q 221.9 180.1, 221.1 180.1 " fill="#000000"/>
<path class="legend" d="M 225.5 184.9 Q 225.5 183.6, 226.6 182.9 Q 227.6 182.2, 229.5 182.2 L 230.6 182.2 L 230.6 181.9 Q 230.6 180.9, 230.2 180.5 Q 229.8 180.1, 228.8 180.1 Q 228.2 180.1, 227.7 180.2 Q 227.2 180.3, 226.4 180.6 L 226.0 179.6 Q 227.4 178.9, 228.9 178.9 Q 230.5 178.9, 231.3 179.6 Q 232.1 180.4, 232.1 181.9 L 232.1 187.0 L 231.0 187.0 Q 230.9 186.9, 230.9 186.7 Q 230.8 186.5, 230.8 186.1 Q 229.6 187.2, 228.2 187.2 Q 227.0 187.2, 226.3 186.6 Q 225.5 185.9, 225.5 184.9 M 227.0 184.8 Q 227.0 185.4, 227.4 185.7 Q 227.7 186.1, 228.4 186.1 Q 229.1 186.1, 229.6 185.8 Q 230.2 185.5, 230.6 185.0 L 230.6 183.3 L 229.5 183.3 Q 228.3 183.3, 227.6 183.7 Q 227.0 184.1, 227.0 184.8 " fill="#000000"/>
<path class="legend" d="M 233.8 180.2 L 233.8 179.1 L 235.3 179.1 L 235.6 176.7 L 236.7 176.7 L 236.7 179.1 L 239.1 179.1 L 239.1 180.2 L 236.7 180.2 L 236.7 184.6 Q 236.7 185.9, 237.8 185.9 Q 238.3 185.9, 239.0 185.7 L 239.2 186.7 Q 238.4 187.1, 237.6 187.1 Q 236.5 187.1, 235.8 186.5 Q 235.2 185.9, 235.2 184.6 L 235.2 180.2 L 233.8 180.2 " fill="#000000"/>
<path class="legend" d="M 246.9 179.1 L 246.9 187.0 L 245.7 187.0 L 245.5 185.9 Q 244.5 187.2, 242.8 187.2 Q 241.5 187.2, 240.8 186.4 Q 240.1 185.7, 240.1 184.3 L 240.1 179.1 L 241.6 179.1 L 241.6 184.2 Q 241.6 185.2, 241.9 185.6 Q 242.3 186.0, 243.1 186.0 Q 243.8 186.0, 244.4 185.7 Q 245.0 185.3, 245.4 184.8 L 245.4 179.1 L 246.9 179.1 " fill="#000000"/>
<path class="legend" d="M 249.9 179.1 L 250.0 180.2 Q 250.9 178.9, 252.2 178.9 Q 252.7 178.9, 253.2 179.1 L 253.0 180.4 Q 252.3 180.2, 252.0 180.2 Q 251.3 180.2, 250.9 180.5 Q 250.5 180.7, 250.1 181.3 L 250.1 187.0 L 248.7 187.0 L 248.7 179.1 L 249.9 179.1 " fill="#000000"/>
<path class="legend" d="M 254.0 183.0 Q 254.0 181.1, 255.0 180.0 Q 256.0 178.9, 257.7 178.9 Q 259.5 178.9, 260.3 180.0 Q 261.0 181.0, 261.0 183.0 L 261.0 183.2 L 255.5 183.2 Q 255.5 184.6, 256.1 185.3 Q 256.7 186.0, 257.9 186.0 Q 258.5 186.0, 259.0 185.9 Q 259.6 185.7, 260.3 185.4 L 260.7 186.4 Q 259.9 186.8, 259.2 187.0 Q 258.5 187.1, 257.8 187.1 Q 256.0 187.1, 255.0 186.1 Q 254.0 185.0, 254.0 183.0 M 257.7 180.1 Q 256.8 180.1, 256.3 180.6 Q 255.7 181.1, 255.5 182.1 L 259.5 182.1 Q 259.4 181.1, 259.0 180.6 Q 258.5 180.1, 257.7 180.1 " fill="#000000"/>
<path class="legend" d="" fill="#000000"/>
<path class="legend" d="M 275.0 183.2 L 276.3 183.2 L 276.3 184.5 L 275.0 184.5 L 275.0 187.0 L 273.5 187.0 L 273.5 184.5 L 267.8 184.5 L 267.8 183.5 L 272.6 176.1 L 275.0 176.1 L 275.0 183.2 M 269.6 183.2 L 273.5 183.2 L 273.5 177.0 L 269.6 183.2 " fill="#000000"/>
<path class="legend" d="M 278.2 185.8 L 280.6 185.8 L 280.6 177.6 L 277.9 178.4 L 277.6 177.5 L 280.9 176.0 L 282.0 176.2 L 282.0 185.8 L 284.2 185.8 L 284.2 187.0 L 278.2 187.0 L 278.2 185.8 " fill="#000000"/>
<path class="legend" d="" fill="#000000"/>
<path class="legend" d="M 291.0 175.0 L 292.3 175.0 L 292.3 190.0 L 291.0 190.0 L 291.0 175.0 " fill="#000000"/>
<path class="legend" d="" fill="#000000"/>
<path class="legend" d="M 300.3 185.3 Q 300.4 185.4, 300.9 185.6 Q 301.4 185.8, 302.0 185.9 Q 302.5 186.1, 303.1 186.1 Q 304.1 186.1, 304.7 185.6 Q 305.4 185.0, 305.4 184.2 Q 305.4 183.6, 305.0 183.2 Q 304.7 182.8, 304.3 182.6 Q 303.8 182.4, 303.0 182.2 Q 302.1 181.9, 301.5 181.6 Q 300.9 181.3, 300.5 180.7 Q 300.1 180.2, 300.1 179.2 Q 300.1 177.8, 301.0 176.9 Q 302.0 176.1, 303.8 176.1 Q 305.1 176.1, 306.5 176.7 L 306.2 177.9 Q 304.9 177.3, 303.9 177.3 Q 302.8 177.3, 302.2 177.8 Q 301.6 178.2, 301.6 179.0 Q 301.6 179.6, 301.9 179.9 Q 302.2 180.3, 302.7 180.5 Q 303.1 180.7, 303.9 180.9 Q 304.9 181.2, 305.4 181.5 Q 306.0 181.8, 306.5 182.5 Q 306.9 183.1, 306.9 184.2 Q 306.9 185.7, 305.9 186.5 Q 304.9 187.3, 303.2 187.3 Q 302.2 187.3, 301.4 187.1 Q 300.7 186.9, 299.9 186.5 L 300.3 185.3 " fill="#000000"/>
<path class="legend" d="M 308.1 176.1 L 309.6 176.1 L 309.6 180.7 L 315.2 180.7 L 315.2 176.1 L 316.7 176.1 L 316.7 187.0 L 315.2 187.0 L 315.2 181.9 L 309.6 181.9 L 309.6 187.0 L 308.1 187.0 L 308.1 176.1 " fill="#000000"/>
<path class="legend" d="M 326.6 187.0 L 325.5 183.8 L 321.1 183.8 L 320.0 187.0 L 318.6 187.0 L 322.3 176.1 L 324.2 176.1 L 328.1 187.0 L 326.6 187.0 M 321.6 182.6 L 325.0 182.6 L 323.3 177.6 L 321.6 182.6 " fill="#000000"/>
<path class="legend" d="M 332.0 176.1 Q 333.9 176.1, 334.8 176.9 Q 335.8 177.7, 335.8 179.3 Q 335.8 180.8, 334.8 181.7 Q 333.8 182.5, 332.0 182.5 L 330.3 182.5 L 330.3 187.0 L 328.8 187.0 L 328.8 176.1 L 332.0 176.1 M 332.0 181.3 Q 333.1 181.3, 333.7 180.8 Q 334.2 180.2, 334.2 179.3 Q 334.2 178.3, 333.7 177.8 Q 333.1 177.3, 332.0 177.3 L 330.3 177.3 L 330.3 181.3 L 332.0 181.3 " fill="#000000"/>
<path class="legend" d="M 337.0 185.2 L 338.6 185.2 L 338.6 186.7 L 337.0 186.7 L 337.0 185.2 M 337.0 179.9 L 338.6 179.9 L 338.6 181.4 L 337.0 181.4 L 337.0 179.9 " fill="#000000"/>
<path class="legend" d="" fill="#000000"/>
<path class="legend" d="M 346.0 181.5 L 351.6 181.5 L 351.6 182.7 L 346.0 182.7 L 346.0 181.5 " fill="#000000"/>
<path class="legend" d="M 353.0 178.1 Q 353.4 177.1, 354.3 176.5 Q 355.3 175.9, 356.6 175.9 Q 358.3 175.9, 359.2 176.8 Q 360.1 177.7, 360.1 179.3 Q 360.1 180.9, 358.9 182.5 Q 357.7 184.0, 355.3 185.8 L 360.3 185.8 L 360.3 187.0 L 352.9 187.0 L 352.9 186.0 Q 355.0 184.5, 356.2 183.4 Q 357.4 182.4, 358.0 181.4 Q 358.6 180.4, 358.6 179.4 Q 358.6 178.3, 358.1 177.8 Q 357.5 177.2, 356.6 177.2 Q 355.7 177.2, 355.1 177.5 Q 354.6 177.9, 354.1 178.7 L 353.0 178.1 " fill="#000000"/>
<path class="legend" d="M 367.0 181.2 Q 368.1 181.5, 368.6 182.2 Q 369.1 182.9, 369.1 184.0 Q 369.1 184.9, 368.7 185.7 Q 368.2 186.4, 367.4 186.8 Q 366.5 187.2, 365.4 187.2 Q 364.2 187.2, 363.3 186.8 Q 362.5 186.3, 361.8 185.5 L 362.7 184.6 Q 363.3 185.4, 363.9 185.6 Q 364.5 185.9, 365.4 185.9 Q 366.4 185.9, 367.0 185.4 Q 367.6 184.9, 367.6 184.0 Q 367.6 182.9, 367.0 182.4 Q 366.3 181.9, 365.0 181.9 L 364.2 181.9 L 364.2 180.8 L 364.9 180.8 Q 366.1 180.7, 366.7 180.2 Q 367.4 179.7, 367.4 178.7 Q 367.4 178.0, 366.8 177.6 Q 366.3 177.2, 365.4 177.2 Q 364.5 177.2, 363.9 177.5 Q 363.4 177.8, 362.9 178.6 L 361.9 178.1 Q 362.2 177.1, 363.2 176.5 Q 364.1 175.9, 365.4 175.9 Q 367.0 175.9, 368.0 176.7 Q 368.9 177.4, 368.9 178.7 Q 368.9 179.6, 368.4 180.2 Q 367.9 180.9, 367.0 181.2 " fill="#000000"/>
<path class="legend" d="M 370.6 185.5 L 372.1 185.5 L 372.1 187.0 L 370.6 187.0 L 370.6 185.5 " fill="#000000"/>
<path class="legend" d="M 377.9 180.2 Q 378.9 180.2, 379.7 180.6 Q 380.4 181.0, 380.8 181.8 Q 381.3 182.5, 381.3 183.5 Q 381.3 184.6, 380.8 185.4 Q 380.3 186.2, 379.5 186.7 Q 378.6 187.1, 377.6 187.1 Q 375.6 187.1, 374.6 185.8 Q 373.7 184.5, 373.7 181.9 Q 373.7 178.9, 374.9 177.4 Q 376.1 175.9, 378.4 175.9 Q 379.1 175.9, 379.7 176.1 Q 380.3 176.2, 380.8 176.6 L 380.2 177.6 Q 379.4 177.2, 378.4 177.2 Q 376.9 177.2, 376.1 178.2 Q 375.3 179.2, 375.2 181.2 Q 375.8 180.7, 376.5 180.4 Q 377.2 180.2, 377.9 180.2 M 377.6 185.9 Q 378.2 185.9, 378.7 185.6 Q 379.1 185.2, 379.4 184.7 Q 379.7 184.2, 379.7 183.5 Q 379.7 182.5, 379.2 182.0 Q 378.6 181.4, 377.7 181.4 Q 377.0 181.4, 376.3 181.7 Q 375.7 181.9, 375.2 182.4 Q 375.3 184.2, 375.9 185.0 Q 376.4 185.9, 377.6 185.9 " fill="#000000"/>
<path class="legend" d="M 387.9 181.2 Q 389.0 181.5, 389.5 182.2 Q 390.0 182.9, 390.0 184.0 Q 390.0 184.9, 389.5 185.7 Q 389.1 186.4, 388.2 186.8 Q 387.4 187.2, 386.3 187.2 Q 385.1 187.2, 384.2 186.8 Q 383.3 186.3, 382.6 185.5 L 383.5 184.6 Q 384.2 185.4, 384.8 185.6 Q 385.3 185.9, 386.3 185.9 Q 387.2 185.9, 387.8 185.4 Q 388.5 184.9, 388.5 184.0 Q 388.5 182.9, 387.8 182.4 Q 387.2 181.9, 385.9 181.9 L 385.1 181.9 L 385.1 180.8 L 385.8 180.8 Q 386.9 180.7, 387.6 180.2 Q 388.2 179.7, 388.2 178.7 Q 388.2 178.0, 387.7 177.6 Q 387.2 177.2, 386.3 177.2 Q 385.4 177.2, 384.8 177.5 Q 384.2 177.8, 383.8 178.6 L 382.7 178.1 Q 383.1 177.1, 384.0 176.5 Q 385.0 175.9, 386.3 175.9 Q 387.9 175.9, 388.8 176.7 Q 389.8 177.4, 389.8 178.7 Q 389.8 179.6, 389.3 180.2 Q 388.8 180.9, 387.9 181.2 " fill="#000000"/>
<ellipse cx="493.2" cy="104.7" rx="7.6" ry="7.6" class="atom-1" style="fill:#9999E5;fill-rule:evenodd;stroke:#9999E5;stroke-width:1.0px;stroke-linecap:butt;stroke-linejoin:miter;stroke-opacity:1"/>
<path class="bond-0 atom-0 atom-1" d="M 527.1,99.2 L 498.0,104.0" style="fill:none;fill-rule:evenodd;stroke:#E5E5E5;stroke-width:2.0px;stroke-linecap:butt;stroke-linejoin:miter;stroke-opacity:1"/>
<path class="bond-1 atom-1 atom-2" d="M 488.5,98.9 L 469.7,75.9" style="fill:none;fill-rule:evenodd;stroke:#E5E5E5;stroke-width:2.0px;stroke-linecap:butt;stroke-linejoin:miter;stroke-opacity:1"/>
<path class="atom-0" d="M 528.9 97.4 L 530.5 95.8 L 528.4 95.4 L 528.7 94.3 L 530.6 95.2 L 530.3 93.1 L 531.5 93.1 L 531.2 95.2 L 533.1 94.3 L 533.5 95.4 L 531.3 95.7 L 532.9 97.4 L 531.9 98.1 L 530.9 96.0 L 529.8 98.1 L 528.9 97.4 " fill="#191919"/>
<path class="atom-1" d="M 490.2 108.4 Q 490.3 108.5, 490.8 108.7 Q 491.3 108.9, 491.9 109.0 Q 492.4 109.2, 493.0 109.2 Q 494.0 109.2, 494.6 108.7 Q 495.2 108.2, 495.2 107.3 Q 495.2 106.7, 494.9 106.3 Q 494.6 106.0, 494.1 105.8 Q 493.7 105.6, 492.9 105.3 Q 491.9 105.1, 491.4 104.8 Q 490.8 104.5, 490.4 103.9 Q 490.0 103.3, 490.0 102.4 Q 490.0 101.0, 490.9 100.2 Q 491.8 99.3, 493.7 99.3 Q 494.9 99.3, 496.3 99.9 L 496.0 101.1 Q 494.7 100.6, 493.7 100.6 Q 492.7 100.6, 492.1 101.0 Q 491.5 101.4, 491.5 102.2 Q 491.5 102.8, 491.8 103.1 Q 492.1 103.5, 492.5 103.7 Q 493.0 103.9, 493.7 104.1 Q 494.7 104.4, 495.3 104.7 Q 495.9 105.0, 496.3 105.6 Q 496.7 106.2, 496.7 107.3 Q 496.7 108.8, 495.7 109.6 Q 494.7 110.4, 493.0 110.4 Q 492.1 110.4, 491.3 110.2 Q 490.6 110.0, 489.8 109.6 L 490.2 108.4 " fill="#000000"/>
<path class="atom-2" d="M 467.0 73.9 L 468.6 72.3 L 466.5 71.9 L 466.8 70.8 L 468.8 71.8 L 468.5 69.7 L 469.7 69.6 L 469.3 71.8 L 471.3 70.9 L 471.6 71.9 L 469.5 72.3 L 471.0 73.9 L 470.1 74.6 L 469.0 72.6 L 468.0 74.6 L 467.0 73.9 " fill="#191919"/>
<path class="legend" d="M 410.0 176.0 L 416.5 176.0 L 416.5 177.3 L 411.5 177.3 L 411.5 180.6 L 416.0 180.6 L 416.0 181.9 L 411.5 181.9 L 411.5 187.0 L 410.0 187.0 L 410.0 176.0 " fill="#000000"/>
<path class="legend" d="M 417.4 183.0 Q 417.4 181.0, 418.4 180.0 Q 419.4 178.9, 421.2 178.9 Q 422.9 178.9, 423.7 179.9 Q 424.5 181.0, 424.5 182.9 L 424.5 183.2 L 418.9 183.2 Q 418.9 184.5, 419.5 185.3 Q 420.1 186.0, 421.3 186.0 Q 421.9 186.0, 422.5 185.8 Q 423.1 185.7, 423.8 185.4 L 424.2 186.4 Q 423.4 186.8, 422.7 187.0 Q 421.9 187.1, 421.2 187.1 Q 419.4 187.1, 418.4 186.0 Q 417.4 184.9, 417.4 183.0 M 421.2 180.0 Q 420.2 180.0, 419.7 180.5 Q 419.1 181.1, 419.0 182.1 L 422.9 182.1 Q 422.8 181.0, 422.4 180.5 Q 422.0 180.0, 421.2 180.0 " fill="#000000"/>
<path class="legend" d="M 425.6 184.8 Q 425.6 183.6, 426.6 182.9 Q 427.6 182.2, 429.5 182.2 L 430.7 182.2 L 430.7 181.9 Q 430.7 180.9, 430.3 180.4 Q 429.9 180.0, 428.9 180.0 Q 428.3 180.0, 427.8 180.1 Q 427.3 180.3, 426.5 180.6 L 426.0 179.6 Q 427.5 178.9, 428.9 178.9 Q 430.6 178.9, 431.4 179.6 Q 432.2 180.3, 432.2 181.9 L 432.2 187.0 L 431.0 187.0 Q 431.0 186.9, 431.0 186.7 Q 430.9 186.5, 430.8 186.1 Q 429.7 187.2, 428.2 187.2 Q 427.0 187.2, 426.3 186.5 Q 425.6 185.9, 425.6 184.8 M 427.1 184.8 Q 427.1 185.4, 427.4 185.7 Q 427.8 186.0, 428.5 186.0 Q 429.1 186.0, 429.7 185.8 Q 430.3 185.5, 430.7 185.0 L 430.7 183.3 L 429.6 183.3 Q 428.3 183.3, 427.7 183.6 Q 427.1 184.0, 427.1 184.8 " fill="#000000"/>
<path class="legend" d="M 433.9 180.1 L 433.9 179.0 L 435.4 179.0 L 435.7 176.7 L 436.8 176.7 L 436.8 179.0 L 439.2 179.0 L 439.2 180.1 L 436.8 180.1 L 436.8 184.5 Q 436.8 185.9, 437.9 185.9 Q 438.4 185.9, 439.1 185.7 L 439.3 186.7 Q 438.5 187.1, 437.7 187.1 Q 436.6 187.1, 435.9 186.5 Q 435.3 185.8, 435.3 184.6 L 435.3 180.1 L 433.9 180.1 " fill="#000000"/>
<path class="legend" d="M 447.0 179.0 L 447.0 187.0 L 445.8 187.0 L 445.7 185.9 Q 444.6 187.1, 443.0 187.1 Q 441.6 187.1, 440.9 186.4 Q 440.2 185.7, 440.2 184.3 L 440.2 179.0 L 441.7 179.0 L 441.7 184.2 Q 441.7 185.1, 442.1 185.6 Q 442.4 186.0, 443.2 186.0 Q 444.0 186.0, 444.6 185.7 Q 445.2 185.3, 445.6 184.7 L 445.6 179.0 L 447.0 179.0 " fill="#000000"/>
<path class="legend" d="M 450.0 179.0 L 450.2 180.1 Q 451.0 178.9, 452.4 178.9 Q 452.8 178.9, 453.4 179.0 L 453.2 180.3 Q 452.5 180.2, 452.1 180.2 Q 451.5 180.2, 451.0 180.4 Q 450.6 180.7, 450.3 181.3 L 450.3 187.0 L 448.8 187.0 L 448.8 179.0 L 450.0 179.0 " fill="#000000"/>
<path class="legend" d="M 454.2 183.0 Q 454.2 181.0, 455.1 180.0 Q 456.1 178.9, 457.9 178.9 Q 459.7 178.9, 460.4 179.9 Q 461.2 181.0, 461.2 182.9 L 461.2 183.2 L 455.7 183.2 Q 455.7 184.5, 456.3 185.3 Q 456.9 186.0, 458.0 186.0 Q 458.7 186.0, 459.2 185.8 Q 459.8 185.7, 460.5 185.4 L 460.9 186.4 Q 460.1 186.8, 459.4 187.0 Q 458.7 187.1, 458.0 187.1 Q 456.2 187.1, 455.2 186.0 Q 454.2 184.9, 454.2 183.0 M 457.9 180.0 Q 457.0 180.0, 456.4 180.5 Q 455.9 181.1, 455.7 182.1 L 459.7 182.1 Q 459.6 181.0, 459.2 180.5 Q 458.7 180.0, 457.9 180.0 " fill="#000000"/>
<path class="legend" d="" fill="#000000"/>
<path class="legend" d="M 468.7 185.8 L 471.1 185.8 L 471.1 177.5 L 468.4 178.4 L 468.1 177.4 L 471.4 175.9 L 472.5 176.1 L 472.5 185.8 L 474.7 185.8 L 474.7 187.0 L 468.7 187.0 L 468.7 185.8 " fill="#000000"/>
<path class="legend" d="M 476.5 185.8 L 478.9 185.8 L 478.9 177.5 L 476.2 178.4 L 475.9 177.4 L 479.2 175.9 L 480.4 176.1 L 480.4 185.8 L 482.5 185.8 L 482.5 187.0 L 476.5 187.0 L 476.5 185.8 " fill="#000000"/>
<path class="legend" d="M 488.0 180.1 Q 489.0 180.1, 489.7 180.5 Q 490.5 181.0, 490.9 181.7 Q 491.3 182.5, 491.3 183.5 Q 491.3 184.5, 490.8 185.4 Q 490.4 186.2, 489.5 186.7 Q 488.7 187.1, 487.6 187.1 Q 485.7 187.1, 484.7 185.8 Q 483.7 184.5, 483.7 181.8 Q 483.7 178.9, 484.9 177.4 Q 486.1 175.9, 488.5 175.9 Q 489.2 175.9, 489.7 176.0 Q 490.3 176.2, 490.9 176.5 L 490.3 177.5 Q 489.5 177.1, 488.5 177.1 Q 486.9 177.1, 486.1 178.1 Q 485.4 179.1, 485.3 181.2 Q 485.8 180.7, 486.5 180.4 Q 487.2 180.1, 488.0 180.1 M 487.6 185.8 Q 488.2 185.8, 488.7 185.5 Q 489.2 185.2, 489.5 184.7 Q 489.8 184.1, 489.8 183.5 Q 489.8 182.5, 489.2 181.9 Q 488.7 181.4, 487.7 181.4 Q 487.0 181.4, 486.4 181.7 Q 485.7 181.9, 485.3 182.4 Q 485.3 184.2, 485.9 185.0 Q 486.5 185.8, 487.6 185.8 " fill="#000000"/>
<path class="legend" d="" fill="#000000"/>
<path class="legend" d="M 498.4 175.0 L 499.7 175.0 L 499.7 190.0 L 498.4 190.0 L 498.4 175.0 " fill="#000000"/>
<path class="legend" d="" fill="#000000"/>
<path class="legend" d="M 507.7 185.3 Q 507.8 185.3, 508.3 185.6 Q 508.8 185.8, 509.4 185.9 Q 510.0 186.0, 510.5 186.0 Q 511.6 186.0, 512.2 185.5 Q 512.8 185.0, 512.8 184.1 Q 512.8 183.5, 512.5 183.2 Q 512.2 182.8, 511.7 182.6 Q 511.2 182.4, 510.5 182.1 Q 509.5 181.9, 508.9 181.6 Q 508.3 181.3, 507.9 180.7 Q 507.5 180.1, 507.5 179.1 Q 507.5 177.7, 508.4 176.9 Q 509.4 176.0, 511.2 176.0 Q 512.5 176.0, 514.0 176.6 L 513.6 177.8 Q 512.3 177.3, 511.3 177.3 Q 510.2 177.3, 509.6 177.7 Q 509.0 178.2, 509.1 178.9 Q 509.1 179.5, 509.3 179.9 Q 509.7 180.2, 510.1 180.4 Q 510.5 180.6, 511.3 180.9 Q 512.3 181.2, 512.9 181.5 Q 513.5 181.8, 513.9 182.4 Q 514.3 183.1, 514.3 184.1 Q 514.3 185.7, 513.3 186.5 Q 512.3 187.3, 510.6 187.3 Q 509.6 187.3, 508.9 187.1 Q 508.1 186.9, 507.3 186.5 L 507.7 185.3 " fill="#000000"/>
<path class="legend" d="M 515.6 176.0 L 517.1 176.0 L 517.1 180.7 L 522.7 180.7 L 522.7 176.0 L 524.2 176.0 L 524.2 187.0 L 522.7 187.0 L 522.7 181.9 L 517.1 181.9 L 517.1 187.0 L 515.6 187.0 L 515.6 176.0 " fill="#000000"/>
<path class="legend" d="M 534.1 187.0 L 533.0 183.8 L 528.6 183.8 L 527.5 187.0 L 526.0 187.0 L 529.8 176.0 L 531.7 176.0 L 535.6 187.0 L 534.1 187.0 M 529.1 182.5 L 532.5 182.5 L 530.8 177.5 L 529.1 182.5 " fill="#000000"/>
<path class="legend" d="M 539.6 176.0 Q 541.4 176.0, 542.4 176.8 Q 543.3 177.7, 543.3 179.2 Q 543.3 180.8, 542.4 181.6 Q 541.4 182.5, 539.6 182.5 L 537.8 182.5 L 537.8 187.0 L 536.3 187.0 L 536.3 176.0 L 539.6 176.0 M 539.6 181.2 Q 540.6 181.2, 541.2 180.7 Q 541.8 180.2, 541.8 179.2 Q 541.8 178.2, 541.2 177.8 Q 540.6 177.2, 539.6 177.2 L 537.8 177.2 L 537.8 181.2 L 539.6 181.2 " fill="#000000"/>
<path class="legend" d="M 544.6 185.2 L 546.1 185.2 L 546.1 186.7 L 544.6 186.7 L 544.6 185.2 M 544.6 179.8 L 546.1 179.8 L 546.1 181.4 L 544.6 181.4 L 544.6 179.8 " fill="#000000"/>
<path class="legend" d="" fill="#000000"/>
<path class="legend" d="M 554.1 185.8 L 556.5 185.8 L 556.5 177.5 L 553.9 178.4 L 553.5 177.4 L 556.9 175.9 L 558.0 176.1 L 558.0 185.8 L 560.2 185.8 L 560.2 187.0 L 554.1 187.0 L 554.1 185.8 " fill="#000000"/>
<path class="legend" d="M 565.0 175.9 Q 567.0 175.9, 568.0 177.2 Q 569.0 178.5, 569.0 181.2 Q 569.0 184.1, 567.8 185.6 Q 566.5 187.1, 564.2 187.1 Q 563.5 187.1, 562.9 187.0 Q 562.3 186.8, 561.8 186.5 L 562.4 185.4 Q 563.2 185.9, 564.2 185.9 Q 565.7 185.9, 566.5 184.9 Q 567.3 183.9, 567.4 181.8 Q 566.9 182.3, 566.1 182.6 Q 565.4 182.9, 564.7 182.9 Q 563.7 182.9, 562.9 182.4 Q 562.2 182.0, 561.8 181.3 Q 561.3 180.5, 561.3 179.5 Q 561.3 178.5, 561.8 177.6 Q 562.3 176.8, 563.1 176.3 Q 564.0 175.9, 565.0 175.9 M 562.9 179.5 Q 562.9 180.5, 563.4 181.1 Q 564.0 181.6, 565.0 181.6 Q 565.6 181.6, 566.3 181.4 Q 566.9 181.1, 567.4 180.6 Q 567.3 178.8, 566.8 178.0 Q 566.2 177.1, 565.0 177.1 Q 564.4 177.1, 563.9 177.5 Q 563.5 177.8, 563.2 178.3 Q 562.9 178.9, 562.9 179.5 " fill="#000000"/>
<path class="legend" d="M 570.6 185.4 L 572.1 185.4 L 572.1 187.0 L 570.6 187.0 L 570.6 185.4 " fill="#000000"/>
<path class="legend" d="M 577.6 180.1 Q 578.6 180.1, 579.4 180.5 Q 580.2 180.9, 580.6 181.7 Q 581.1 182.5, 581.1 183.5 Q 581.1 184.7, 580.5 185.5 Q 580.0 186.3, 579.1 186.7 Q 578.2 187.1, 577.2 187.1 Q 576.2 187.1, 575.2 186.8 Q 574.3 186.4, 573.7 185.7 L 574.6 184.7 Q 575.1 185.3, 575.8 185.6 Q 576.5 185.9, 577.2 185.9 Q 578.2 185.9, 578.9 185.3 Q 579.5 184.7, 579.5 183.5 Q 579.5 182.4, 578.9 181.8 Q 578.2 181.3, 577.1 181.3 Q 576.2 181.3, 575.1 181.7 L 574.2 181.3 L 574.8 176.0 L 580.4 176.0 L 580.3 177.2 L 576.0 177.2 L 575.7 180.5 Q 576.7 180.1, 577.6 180.1 " fill="#000000"/>
<path class="legend" d="M 586.1 175.9 Q 588.0 175.9, 589.0 177.2 Q 590.0 178.5, 590.0 181.2 Q 590.0 184.1, 588.8 185.6 Q 587.6 187.1, 585.2 187.1 Q 584.5 187.1, 583.9 187.0 Q 583.4 186.8, 582.8 186.5 L 583.4 185.4 Q 584.2 185.9, 585.2 185.9 Q 586.8 185.9, 587.5 184.9 Q 588.3 183.9, 588.4 181.8 Q 587.9 182.3, 587.2 182.6 Q 586.5 182.9, 585.7 182.9 Q 584.7 182.9, 584.0 182.4 Q 583.2 182.0, 582.8 181.3 Q 582.4 180.5, 582.4 179.5 Q 582.4 178.5, 582.8 177.6 Q 583.3 176.8, 584.2 176.3 Q 585.0 175.9, 586.1 175.9 M 583.9 179.5 Q 583.9 180.5, 584.5 181.1 Q 585.0 181.6, 586.0 181.6 Q 586.6 181.6, 587.3 181.4 Q 588.0 181.1, 588.4 180.6 Q 588.4 178.8, 587.8 178.0 Q 587.2 177.1, 586.1 177.1 Q 585.5 177.1, 585.0 177.5 Q 584.5 177.8, 584.2 178.3 Q 583.9 178.9, 583.9 179.5 " fill="#000000"/>
<ellipse cx="114.2" cy="291.5" rx="7.6" ry="7.6" class="atom-1" style="fill:#E5E533;fill-rule:evenodd;stroke:#E5E533;stroke-width:1.0px;stroke-linecap:butt;stroke-linejoin:miter;stroke-opacity:1"/>
<ellipse cx="87.1" cy="264.6" rx="7.6" ry="7.6" class="atom-2" style="fill:#9999E5;fill-rule:evenodd;stroke:#9999E5;stroke-width:1.0px;stroke-linecap:butt;stroke-linejoin:miter;stroke-opacity:1"/>
<ellipse cx="53.2" cy="282.1" rx="7.6" ry="7.6" class="atom-3" style="fill:#E5E533;fill-rule:evenodd;stroke:#E5E533;stroke-width:1.0px;stroke-linecap:butt;stroke-linejoin:miter;stroke-opacity:1"/>
<path class="bond-0 atom-0 atom-1" d="M 148.1,286.0 L 114.2,291.5" style="fill:none;fill-rule:evenodd;stroke:#E5E5E5;stroke-width:2.0px;stroke-linecap:butt;stroke-linejoin:miter;stroke-opacity:1"/>
<path class="bond-1 atom-1 atom-2" d="M 114.2,291.5 L 92.5,269.9" style="fill:none;fill-rule:evenodd;stroke:#000000;stroke-width:2.0px;stroke-linecap:butt;stroke-linejoin:miter;stroke-opacity:1"/>
<path class="bond-1 atom-1 atom-2" d="M 110.2,295.6 L 88.4,274.0" style="fill:none;fill-rule:evenodd;stroke:#000000;stroke-width:2.0px;stroke-linecap:butt;stroke-linejoin:miter;stroke-opacity:1;stroke-dasharray:6,4"/>
<path class="bond-2 atom-2 atom-3" d="M 83.1,269.9 L 59.8,281.9" style="fill:none;fill-rule:evenodd;stroke:#000000;stroke-width:2.0px;stroke-linecap:butt;stroke-linejoin:miter;stroke-opacity:1"/>
<path class="bond-2 atom-2 atom-3" d="M 80.5,264.8 L 57.2,276.8" style="fill:none;fill-rule:evenodd;stroke:#000000;stroke-width:2.0px;stroke-linecap:butt;stroke-linejoin:miter;stroke-opacity:1;stroke-dasharray:6,4"/>
<path class="bond-3 atom-3 atom-4" d="M 51.4,289.2 L 55.4,313.5" style="fill:none;fill-rule:evenodd;stroke:#E5E5E5;stroke-width:2.0px;stroke-linecap:butt;stroke-linejoin:miter;stroke-opacity:1"/>
<path class="bond-3 atom-3 atom-4" d="M 57.1,288.3 L 61.0,312.5" style="fill:none;fill-rule:evenodd;stroke:#E5E5E5;stroke-width:2.0px;stroke-linecap:butt;stroke-linejoin:miter;stroke-opacity:1;stroke-dasharray:6,4"/>
<path class="bond-4 atom-5 atom-1" d="M 97.9,317.5 L 112.1,289.4" style="fill:none;fill-rule:evenodd;stroke:#E5E5E5;stroke-width:2.0px;stroke-linecap:butt;stroke-linejoin:miter;stroke-opacity:1"/>
<path class="bond-4 atom-5 atom-1" d="M 103.0,320.1 L 117.7,290.9" style="fill:none;fill-rule:evenodd;stroke:#E5E5E5;stroke-width:2.0px;stroke-linecap:butt;stroke-linejoin:miter;stroke-opacity:1;stroke-dasharray:6,4"/>
<path class="atom-0" d="M 149.9 284.2 L 151.5 282.6 L 149.3 282.1 L 149.7 281.0 L 151.6 282.0 L 151.3 279.9 L 152.5 279.9 L 152.2 282.0 L 154.1 281.1 L 154.5 282.1 L 152.3 282.5 L 153.9 284.2 L 152.9 284.8 L 151.9 282.8 L 150.8 284.8 L 149.9 284.2 " fill="#191919"/>
<path class="atom-2" d="M 84.7 259.2 L 88.3 264.9 Q 88.6 265.5, 89.2 266.5 Q 89.8 267.5, 89.8 267.6 L 89.8 259.2 L 91.2 259.2 L 91.2 270.0 L 89.7 270.0 L 85.9 263.7 Q 85.5 263.0, 85.0 262.2 Q 84.6 261.3, 84.4 261.1 L 84.4 270.0 L 83.0 270.0 L 83.0 259.2 L 84.7 259.2 " fill="#000000"/>
<path class="atom-3" d="M 50.8 276.7 L 54.3 282.4 Q 54.7 283.0, 55.2 284.0 Q 55.8 285.0, 55.8 285.1 L 55.8 276.7 L 57.3 276.7 L 57.3 287.5 L 55.8 287.5 L 52.0 281.2 Q 51.5 280.5, 51.1 279.6 Q 50.6 278.8, 50.5 278.5 L 50.5 287.5 L 49.1 287.5 L 49.1 276.7 L 50.8 276.7 " fill="#000000"/>
<path class="atom-4" d="M 57.2 318.5 L 58.8 316.9 L 56.7 316.5 L 57.0 315.4 L 59.0 316.4 L 58.7 314.3 L 59.9 314.3 L 59.5 316.4 L 61.5 315.5 L 61.8 316.5 L 59.7 316.9 L 61.2 318.5 L 60.3 319.2 L 59.2 317.2 L 58.2 319.2 L 57.2 318.5 " fill="#191919"/>
<path class="atom-5" d="M 95.0 324.4 L 96.6 322.8 L 94.5 322.3 L 94.8 321.2 L 96.7 322.2 L 96.4 320.1 L 97.6 320.1 L 97.3 322.2 L 99.2 321.3 L 99.6 322.3 L 97.4 322.7 L 99.0 324.4 L 98.0 325.0 L 97.0 323.0 L 95.9 325.0 L 95.0 324.4 " fill="#191919"/>
<path class="legend" d="M 10.0 377.2 L 16.0 377.2 L 16.0 378.3 L 11.4 378.3 L 11.4 381.4 L 15.5 381.4 L 15.5 382.6 L 11.4 382.6 L 11.4 387.3 L 10.0 387.3 L 10.0 377.2 " fill="#000000"/>
<path class="legend" d="M 16.8 383.6 Q 16.8 381.8, 17.7 380.8 Q 18.6 379.8, 20.2 379.8 Q 21.8 379.8, 22.5 380.8 Q 23.3 381.7, 23.3 383.5 L 23.3 383.8 L 18.2 383.8 Q 18.2 385.0, 18.7 385.7 Q 19.3 386.3, 20.3 386.3 Q 20.9 386.3, 21.4 386.2 Q 22.0 386.0, 22.6 385.8 L 23.0 386.7 Q 22.3 387.0, 21.6 387.2 Q 21.0 387.4, 20.3 387.4 Q 18.6 387.4, 17.7 386.4 Q 16.8 385.4, 16.8 383.6 M 20.2 380.9 Q 19.4 380.9, 18.9 381.3 Q 18.4 381.8, 18.2 382.8 L 21.9 382.8 Q 21.8 381.8, 21.4 381.3 Q 21.0 380.9, 20.2 380.9 " fill="#000000"/>
<path class="legend" d="M 24.3 385.3 Q 24.3 384.1, 25.2 383.5 Q 26.2 382.8, 27.9 382.8 L 29.0 382.8 L 29.0 382.5 Q 29.0 381.6, 28.6 381.2 Q 28.2 380.9, 27.3 380.9 Q 26.7 380.9, 26.3 381.0 Q 25.8 381.1, 25.1 381.4 L 24.7 380.5 Q 26.1 379.8, 27.3 379.8 Q 28.9 379.8, 29.6 380.5 Q 30.3 381.1, 30.3 382.6 L 30.3 387.3 L 29.3 387.3 Q 29.3 387.2, 29.2 387.0 Q 29.2 386.8, 29.1 386.4 Q 28.1 387.4, 26.7 387.4 Q 25.6 387.4, 25.0 386.8 Q 24.3 386.3, 24.3 385.3 M 25.6 385.2 Q 25.6 385.8, 26.0 386.1 Q 26.3 386.4, 27.0 386.4 Q 27.5 386.4, 28.1 386.1 Q 28.6 385.8, 29.0 385.4 L 29.0 383.8 L 28.0 383.8 Q 26.8 383.8, 26.2 384.2 Q 25.6 384.5, 25.6 385.2 " fill="#000000"/>
<path class="legend" d="M 31.9 381.0 L 31.9 379.9 L 33.3 379.9 L 33.5 377.8 L 34.5 377.8 L 34.5 379.9 L 36.8 379.9 L 36.8 381.0 L 34.5 381.0 L 34.5 385.0 Q 34.5 386.3, 35.6 386.3 Q 36.0 386.3, 36.6 386.1 L 36.9 387.0 Q 36.1 387.3, 35.4 387.3 Q 34.4 387.3, 33.8 386.8 Q 33.2 386.2, 33.2 385.1 L 33.2 381.0 L 31.9 381.0 " fill="#000000"/>
<path class="legend" d="M 43.9 379.9 L 43.9 387.3 L 42.8 387.3 L 42.7 386.2 Q 41.7 387.4, 40.2 387.4 Q 39.0 387.4, 38.4 386.7 Q 37.7 386.1, 37.7 384.8 L 37.7 379.9 L 39.1 379.9 L 39.1 384.7 Q 39.1 385.5, 39.4 385.9 Q 39.7 386.3, 40.5 386.3 Q 41.1 386.3, 41.7 386.0 Q 42.3 385.7, 42.6 385.2 L 42.6 379.9 L 43.9 379.9 " fill="#000000"/>
<path class="legend" d="M 46.7 379.9 L 46.8 380.9 Q 47.6 379.8, 48.9 379.8 Q 49.3 379.8, 49.8 380.0 L 49.6 381.1 Q 49.0 381.0, 48.6 381.0 Q 48.0 381.0, 47.6 381.2 Q 47.3 381.5, 46.9 382.0 L 46.9 387.3 L 45.6 387.3 L 45.6 379.9 L 46.7 379.9 " fill="#000000"/>
<path class="legend" d="M 50.5 383.6 Q 50.5 381.8, 51.4 380.8 Q 52.3 379.8, 53.9 379.8 Q 55.5 379.8, 56.3 380.8 Q 57.0 381.7, 57.0 383.5 L 57.0 383.8 L 51.9 383.8 Q 51.9 385.0, 52.5 385.7 Q 53.0 386.3, 54.0 386.3 Q 54.6 386.3, 55.1 386.2 Q 55.7 386.0, 56.3 385.8 L 56.7 386.7 Q 56.0 387.0, 55.3 387.2 Q 54.7 387.4, 54.0 387.4 Q 52.3 387.4, 51.4 386.4 Q 50.5 385.4, 50.5 383.6 M 53.9 380.9 Q 53.1 380.9, 52.6 381.3 Q 52.1 381.8, 51.9 382.8 L 55.6 382.8 Q 55.5 381.8, 55.1 381.3 Q 54.7 380.9, 53.9 380.9 " fill="#000000"/>
<path class="legend" d="" fill="#000000"/>
<path class="legend" d="M 63.8 386.1 L 66.0 386.1 L 66.0 378.6 L 63.6 379.3 L 63.2 378.5 L 66.3 377.1 L 67.3 377.3 L 67.3 386.1 L 69.3 386.1 L 69.3 387.3 L 63.8 387.3 L 63.8 386.1 " fill="#000000"/>
<path class="legend" d="M 71.0 386.1 L 73.2 386.1 L 73.2 378.6 L 70.7 379.3 L 70.4 378.5 L 73.5 377.1 L 74.5 377.3 L 74.5 386.1 L 76.5 386.1 L 76.5 387.3 L 71.0 387.3 L 71.0 386.1 " fill="#000000"/>
<path class="legend" d="M 81.5 381.0 Q 82.4 381.0, 83.1 381.3 Q 83.8 381.7, 84.2 382.4 Q 84.6 383.1, 84.6 384.0 Q 84.6 385.0, 84.1 385.8 Q 83.7 386.5, 82.9 386.9 Q 82.2 387.4, 81.2 387.4 Q 79.4 387.4, 78.5 386.2 Q 77.6 384.9, 77.6 382.5 Q 77.6 379.8, 78.7 378.5 Q 79.8 377.1, 82.0 377.1 Q 82.6 377.1, 83.1 377.2 Q 83.7 377.3, 84.2 377.6 L 83.6 378.6 Q 82.9 378.2, 82.0 378.2 Q 80.6 378.2, 79.8 379.1 Q 79.1 380.0, 79.0 381.9 Q 79.5 381.5, 80.2 381.2 Q 80.8 381.0, 81.5 381.0 M 81.2 386.2 Q 81.7 386.2, 82.2 385.9 Q 82.6 385.6, 82.9 385.1 Q 83.1 384.6, 83.1 384.0 Q 83.1 383.1, 82.6 382.6 Q 82.1 382.1, 81.3 382.1 Q 80.7 382.1, 80.0 382.4 Q 79.4 382.6, 79.0 383.0 Q 79.1 384.7, 79.6 385.4 Q 80.1 386.2, 81.2 386.2 " fill="#000000"/>
<path class="legend" d="M 92.4 383.8 L 93.6 383.8 L 93.6 384.9 L 92.4 384.9 L 92.4 387.3 L 91.1 387.3 L 91.1 384.9 L 85.8 384.9 L 85.8 384.0 L 90.3 377.2 L 92.4 377.2 L 92.4 383.8 M 87.5 383.8 L 91.1 383.8 L 91.1 378.1 L 87.5 383.8 " fill="#000000"/>
<path class="legend" d="" fill="#000000"/>
<path class="legend" d="M 100.0 376.2 L 101.2 376.2 L 101.2 390.0 L 100.0 390.0 L 100.0 376.2 " fill="#000000"/>
<path class="legend" d="" fill="#000000"/>
<path class="legend" d="M 108.5 385.7 Q 108.7 385.7, 109.1 385.9 Q 109.6 386.1, 110.1 386.3 Q 110.6 386.4, 111.1 386.4 Q 112.1 386.4, 112.7 385.9 Q 113.2 385.4, 113.2 384.6 Q 113.2 384.1, 112.9 383.7 Q 112.7 383.4, 112.2 383.2 Q 111.8 383.0, 111.1 382.8 Q 110.2 382.5, 109.6 382.3 Q 109.1 382.0, 108.7 381.5 Q 108.4 380.9, 108.4 380.0 Q 108.4 378.8, 109.2 378.0 Q 110.1 377.2, 111.8 377.2 Q 113.0 377.2, 114.3 377.8 L 114.0 378.9 Q 112.7 378.4, 111.8 378.4 Q 110.9 378.4, 110.3 378.8 Q 109.8 379.2, 109.8 379.9 Q 109.8 380.4, 110.1 380.7 Q 110.3 381.1, 110.7 381.2 Q 111.2 381.4, 111.8 381.6 Q 112.7 381.9, 113.3 382.2 Q 113.8 382.5, 114.2 383.1 Q 114.6 383.7, 114.6 384.6 Q 114.6 386.0, 113.7 386.8 Q 112.7 387.5, 111.2 387.5 Q 110.3 387.5, 109.6 387.3 Q 108.9 387.1, 108.2 386.8 L 108.5 385.7 " fill="#000000"/>
<path class="legend" d="M 115.8 377.2 L 117.1 377.2 L 117.1 381.5 L 122.3 381.5 L 122.3 377.2 L 123.7 377.2 L 123.7 387.3 L 122.3 387.3 L 122.3 382.6 L 117.1 382.6 L 117.1 387.3 L 115.8 387.3 L 115.8 377.2 " fill="#000000"/>
<path class="legend" d="M 132.8 387.3 L 131.7 384.3 L 127.7 384.3 L 126.7 387.3 L 125.4 387.3 L 128.8 377.2 L 130.5 377.2 L 134.1 387.3 L 132.8 387.3 M 128.1 383.2 L 131.3 383.2 L 129.7 378.6 L 128.1 383.2 " fill="#000000"/>
<path class="legend" d="M 137.7 377.2 Q 139.5 377.2, 140.3 378.0 Q 141.2 378.7, 141.2 380.1 Q 141.2 381.5, 140.3 382.3 Q 139.4 383.1, 137.7 383.1 L 136.1 383.1 L 136.1 387.3 L 134.8 387.3 L 134.8 377.2 L 137.7 377.2 M 137.7 382.0 Q 138.7 382.0, 139.3 381.5 Q 139.8 381.0, 139.8 380.1 Q 139.8 379.2, 139.3 378.8 Q 138.7 378.3, 137.7 378.3 L 136.1 378.3 L 136.1 382.0 L 137.7 382.0 " fill="#000000"/>
<path class="legend" d="M 142.4 385.6 L 143.8 385.6 L 143.8 387.0 L 142.4 387.0 L 142.4 385.6 M 142.4 380.7 L 143.8 380.7 L 143.8 382.1 L 142.4 382.1 L 142.4 380.7 " fill="#000000"/>
<path class="legend" d="" fill="#000000"/>
<path class="legend" d="M 150.6 382.1 L 155.8 382.1 L 155.8 383.3 L 150.6 383.3 L 150.6 382.1 " fill="#000000"/>
<path class="legend" d="M 157.6 386.1 L 159.8 386.1 L 159.8 378.6 L 157.3 379.3 L 157.0 378.5 L 160.1 377.1 L 161.1 377.3 L 161.1 386.1 L 163.1 386.1 L 163.1 387.3 L 157.6 387.3 L 157.6 386.1 " fill="#000000"/>
<path class="legend" d="M 167.6 377.1 Q 169.4 377.1, 170.3 378.3 Q 171.2 379.5, 171.2 381.9 Q 171.2 384.6, 170.0 386.0 Q 168.9 387.4, 166.8 387.4 Q 166.2 387.4, 165.6 387.2 Q 165.1 387.1, 164.6 386.8 L 165.1 385.8 Q 165.9 386.2, 166.8 386.2 Q 168.2 386.2, 168.9 385.3 Q 169.6 384.4, 169.7 382.5 Q 169.2 383.0, 168.6 383.2 Q 167.9 383.5, 167.2 383.5 Q 166.3 383.5, 165.6 383.1 Q 164.9 382.7, 164.6 382.0 Q 164.2 381.3, 164.2 380.4 Q 164.2 379.4, 164.6 378.7 Q 165.0 377.9, 165.8 377.5 Q 166.6 377.1, 167.6 377.1 M 165.6 380.4 Q 165.6 381.3, 166.1 381.8 Q 166.6 382.3, 167.5 382.3 Q 168.1 382.3, 168.7 382.1 Q 169.3 381.8, 169.7 381.4 Q 169.7 379.7, 169.1 379.0 Q 168.6 378.2, 167.5 378.2 Q 167.0 378.2, 166.6 378.5 Q 166.1 378.8, 165.9 379.3 Q 165.6 379.8, 165.6 380.4 " fill="#000000"/>
<path class="legend" d="M 172.6 385.8 L 174.0 385.8 L 174.0 387.3 L 172.6 387.3 L 172.6 385.8 " fill="#000000"/>
<path class="legend" d="M 176.0 386.1 L 178.2 386.1 L 178.2 378.6 L 175.8 379.3 L 175.5 378.5 L 178.6 377.1 L 179.6 377.3 L 179.6 386.1 L 181.5 386.1 L 181.5 387.3 L 176.0 387.3 L 176.0 386.1 " fill="#000000"/>
<path class="legend" d="M 186.3 387.4 Q 184.5 387.4, 183.5 386.0 Q 182.6 384.6, 182.6 382.2 Q 182.6 379.8, 183.5 378.4 Q 184.4 377.1, 186.3 377.1 Q 188.2 377.1, 189.1 378.4 Q 190.0 379.8, 190.0 382.2 Q 190.0 384.6, 189.1 386.0 Q 188.2 387.4, 186.3 387.4 M 186.3 386.2 Q 187.4 386.2, 188.0 385.2 Q 188.6 384.2, 188.6 382.2 Q 188.6 380.2, 188.0 379.2 Q 187.4 378.2, 186.3 378.2 Q 185.2 378.2, 184.6 379.2 Q 184.1 380.2, 184.1 382.2 Q 184.1 384.2, 184.6 385.2 Q 185.2 386.2, 186.3 386.2 " fill="#000000"/>
<ellipse cx="320.8" cy="269.9" rx="7.6" ry="7.6" class="atom-1" style="fill:#E5E533;fill-rule:evenodd;stroke:#E5E533;stroke-width:1.0px;stroke-linecap:butt;stroke-linejoin:miter;stroke-opacity:1"/>
<ellipse cx="293.9" cy="297.0" rx="7.6" ry="7.6" class="atom-2" style="fill:#9999E5;fill-rule:evenodd;stroke:#9999E5;stroke-width:1.0px;stroke-linecap:butt;stroke-linejoin:miter;stroke-opacity:1"/>
<ellipse cx="256.1" cy="291.2" rx="7.6" ry="7.6" class="atom-3" style="fill:#E5E533;fill-rule:evenodd;stroke:#E5E533;stroke-width:1.0px;stroke-linecap:butt;stroke-linejoin:miter;stroke-opacity:1"/>
<ellipse cx="300.0" cy="334.7" rx="7.6" ry="7.6" class="atom-6" style="fill:#E5E533;fill-rule:evenodd;stroke:#E5E533;stroke-width:1.0px;stroke-linecap:butt;stroke-linejoin:miter;stroke-opacity:1"/>
<path class="bond-0 atom-0 atom-1" d="M 317.6,232.5 L 323.7,270.3" style="fill:none;fill-rule:evenodd;stroke:#E5E5E5;stroke-width:2.0px;stroke-linecap:butt;stroke-linejoin:miter;stroke-opacity:1"/>
<path class="bond-0 atom-0 atom-1" d="M 311.9,233.4 L 318.3,272.4" style="fill:none;fill-rule:evenodd;stroke:#E5E5E5;stroke-width:2.0px;stroke-linecap:butt;stroke-linejoin:miter;stroke-opacity:1;stroke-dasharray:6,4"/>
<path class="bond-1 atom-1 atom-2" d="M 320.8,269.9 L 293.9,297.0" style="fill:none;fill-rule:evenodd;stroke:#000000;stroke-width:2.0px;stroke-linecap:butt;stroke-linejoin:miter;stroke-opacity:1"/>
<path class="bond-2 atom-2 atom-3" d="M 293.9,297.0 L 256.1,291.2" style="fill:none;fill-rule:evenodd;stroke:#000000;stroke-width:2.0px;stroke-linecap:butt;stroke-linejoin:miter;stroke-opacity:1"/>
<path class="bond-2 atom-2 atom-3" d="M 288.9,302.0 L 259.4,297.5" style="fill:none;fill-rule:evenodd;stroke:#000000;stroke-width:2.0px;stroke-linecap:butt;stroke-linejoin:miter;stroke-opacity:1;stroke-dasharray:6,4"/>
<path class="bond-3 atom-3 atom-4" d="M 256.1,291.2 L 242.4,318.5" style="fill:none;fill-rule:evenodd;stroke:#E5E5E5;stroke-width:2.0px;stroke-linecap:butt;stroke-linejoin:miter;stroke-opacity:1"/>
<path class="bond-3 atom-3 atom-4" d="M 259.4,297.5 L 247.5,321.1" style="fill:none;fill-rule:evenodd;stroke:#E5E5E5;stroke-width:2.0px;stroke-linecap:butt;stroke-linejoin:miter;stroke-opacity:1;stroke-dasharray:6,4"/>
<path class="bond-4 atom-5 atom-6" d="M 326.7,355.3 L 297.1,336.2" style="fill:none;fill-rule:evenodd;stroke:#E5E5E5;stroke-width:2.0px;stroke-linecap:butt;stroke-linejoin:miter;stroke-opacity:1"/>
<path class="bond-4 atom-5 atom-6" d="M 329.8,350.5 L 299.4,330.9" style="fill:none;fill-rule:evenodd;stroke:#E5E5E5;stroke-width:2.0px;stroke-linecap:butt;stroke-linejoin:miter;stroke-opacity:1;stroke-dasharray:6,4"/>
<path class="bond-5 atom-1 atom-7" d="M 318.3,272.4 L 354.2,278.0" style="fill:none;fill-rule:evenodd;stroke:#E5E5E5;stroke-width:2.0px;stroke-linecap:butt;stroke-linejoin:miter;stroke-opacity:1"/>
<path class="bond-5 atom-1 atom-7" d="M 320.3,266.9 L 355.1,272.3" style="fill:none;fill-rule:evenodd;stroke:#E5E5E5;stroke-width:2.0px;stroke-linecap:butt;stroke-linejoin:miter;stroke-opacity:1;stroke-dasharray:6,4"/>
<path class="bond-6 atom-6 atom-2" d="M 300.0,334.7 L 293.9,297.0" style="fill:none;fill-rule:evenodd;stroke:#000000;stroke-width:2.0px;stroke-linecap:butt;stroke-linejoin:miter;stroke-opacity:1"/>
<path class="bond-6 atom-6 atom-2" d="M 305.2,331.2 L 300.0,299.0" style="fill:none;fill-rule:evenodd;stroke:#000000;stroke-width:2.0px;stroke-linecap:butt;stroke-linejoin:miter;stroke-opacity:1;stroke-dasharray:6,4"/>
<path class="bond-7 atom-6 atom-8" d="M 299.5,331.7 L 268.5,347.6" style="fill:none;fill-rule:evenodd;stroke:#E5E5E5;stroke-width:2.0px;stroke-linecap:butt;stroke-linejoin:miter;stroke-opacity:1"/>
<path class="bond-7 atom-6 atom-8" d="M 302.8,336.5 L 271.2,352.7" style="fill:none;fill-rule:evenodd;stroke:#E5E5E5;stroke-width:2.0px;stroke-linecap:butt;stroke-linejoin:miter;stroke-opacity:1;stroke-dasharray:6,4"/>
<path d="M 257.1,291.3 L 256.1,291.2 L 255.8,291.8" style="fill:none;stroke:#000000;stroke-width:2.0px;stroke-linecap:butt;stroke-linejoin:miter;stroke-miterlimit:10;stroke-opacity:1;"/>
<path class="atom-0" d="M 312.6 231.0 L 314.2 229.4 L 312.1 229.0 L 312.4 227.9 L 314.4 228.8 L 314.1 226.7 L 315.2 226.7 L 314.9 228.8 L 316.9 227.9 L 317.2 229.0 L 315.1 229.3 L 316.6 231.0 L 315.7 231.7 L 314.6 229.6 L 313.5 231.7 L 312.6 231.0 " fill="#191919"/>
<path class="atom-4" d="M 239.5 325.3 L 241.0 323.7 L 238.9 323.3 L 239.3 322.2 L 241.2 323.2 L 240.9 321.1 L 242.1 321.0 L 241.8 323.2 L 243.7 322.2 L 244.1 323.3 L 241.9 323.7 L 243.4 325.3 L 242.5 326.0 L 241.5 324.0 L 240.4 326.0 L 239.5 325.3 " fill="#191919"/>
<path class="atom-5" d="M 330.1 354.1 L 331.6 352.5 L 329.5 352.1 L 329.9 351.0 L 331.8 352.0 L 331.5 349.9 L 332.7 349.8 L 332.3 352.0 L 334.3 351.1 L 334.7 352.1 L 332.5 352.5 L 334.0 354.1 L 333.1 354.8 L 332.1 352.8 L 331.0 354.8 L 330.1 354.1 " fill="#191919"/>
<path class="atom-7" d="M 356.5 274.5 L 358.1 272.9 L 355.9 272.5 L 356.3 271.4 L 358.2 272.4 L 357.9 270.2 L 359.1 270.2 L 358.8 272.3 L 360.7 271.4 L 361.1 272.5 L 358.9 272.9 L 360.4 274.5 L 359.5 275.2 L 358.5 273.2 L 357.4 275.2 L 356.5 274.5 " fill="#191919"/>
<path class="atom-8" d="M 264.0 350.9 L 265.6 349.3 L 263.5 348.9 L 263.8 347.8 L 265.7 348.8 L 265.5 346.7 L 266.6 346.6 L 266.3 348.8 L 268.3 347.8 L 268.6 348.9 L 266.5 349.3 L 268.0 350.9 L 267.1 351.6 L 266.0 349.6 L 264.9 351.6 L 264.0 350.9 " fill="#191919"/>
<path class="legend" d="M 210.0 376.1 L 216.5 376.1 L 216.5 377.4 L 211.5 377.4 L 211.5 380.7 L 215.9 380.7 L 215.9 382.0 L 211.5 382.0 L 211.5 387.0 L 210.0 387.0 L 210.0 376.1 " fill="#000000"/>
<path class="legend" d="M 217.3 383.1 Q 217.3 381.1, 218.3 380.1 Q 219.3 379.0, 221.0 379.0 Q 222.8 379.0, 223.5 380.0 Q 224.3 381.1, 224.3 383.0 L 224.3 383.3 L 218.8 383.3 Q 218.8 384.6, 219.4 385.3 Q 220.0 386.0, 221.2 386.0 Q 221.8 386.0, 222.3 385.9 Q 222.9 385.7, 223.6 385.4 L 224.0 386.4 Q 223.2 386.8, 222.5 387.0 Q 221.8 387.2, 221.1 387.2 Q 219.3 387.2, 218.3 386.1 Q 217.3 385.0, 217.3 383.1 M 221.0 380.1 Q 220.1 380.1, 219.6 380.7 Q 219.0 381.2, 218.9 382.2 L 222.8 382.2 Q 222.7 381.1, 222.3 380.6 Q 221.8 380.1, 221.0 380.1 " fill="#000000"/>
<path class="legend" d="M 225.4 384.9 Q 225.4 383.6, 226.5 382.9 Q 227.5 382.3, 229.3 382.3 L 230.5 382.3 L 230.5 381.9 Q 230.5 381.0, 230.1 380.5 Q 229.7 380.1, 228.7 380.1 Q 228.1 380.1, 227.6 380.3 Q 227.1 380.4, 226.3 380.7 L 225.9 379.7 Q 227.3 379.0, 228.7 379.0 Q 230.4 379.0, 231.2 379.7 Q 231.9 380.4, 231.9 382.0 L 231.9 387.0 L 230.8 387.0 Q 230.8 387.0, 230.8 386.7 Q 230.7 386.5, 230.6 386.1 Q 229.5 387.2, 228.0 387.2 Q 226.9 387.2, 226.1 386.6 Q 225.4 386.0, 225.4 384.9 M 226.9 384.9 Q 226.9 385.4, 227.3 385.8 Q 227.6 386.1, 228.3 386.1 Q 228.9 386.1, 229.5 385.8 Q 230.1 385.5, 230.5 385.0 L 230.5 383.3 L 229.4 383.3 Q 228.2 383.3, 227.5 383.7 Q 226.9 384.1, 226.9 384.9 " fill="#000000"/>
<path class="legend" d="M 233.7 380.2 L 233.7 379.1 L 235.2 379.1 L 235.4 376.8 L 236.5 376.8 L 236.5 379.1 L 238.9 379.1 L 238.9 380.2 L 236.5 380.2 L 236.5 384.6 Q 236.5 386.0, 237.6 386.0 Q 238.1 386.0, 238.8 385.8 L 239.0 386.8 Q 238.2 387.1, 237.4 387.1 Q 236.3 387.1, 235.7 386.5 Q 235.0 385.9, 235.0 384.7 L 235.0 380.2 L 233.7 380.2 " fill="#000000"/>
<path class="legend" d="M 246.6 379.1 L 246.6 387.0 L 245.5 387.0 L 245.3 385.9 Q 244.3 387.2, 242.6 387.2 Q 241.3 387.2, 240.6 386.5 Q 239.9 385.7, 239.9 384.4 L 239.9 379.1 L 241.4 379.1 L 241.4 384.3 Q 241.4 385.2, 241.7 385.6 Q 242.1 386.0, 242.9 386.0 Q 243.6 386.0, 244.2 385.7 Q 244.8 385.4, 245.2 384.8 L 245.2 379.1 L 246.6 379.1 " fill="#000000"/>
<path class="legend" d="M 249.6 379.1 L 249.8 380.2 Q 250.6 379.0, 252.0 379.0 Q 252.4 379.0, 253.0 379.1 L 252.7 380.4 Q 252.1 380.3, 251.7 380.3 Q 251.1 380.3, 250.6 380.5 Q 250.2 380.8, 249.9 381.4 L 249.9 387.0 L 248.4 387.0 L 248.4 379.1 L 249.6 379.1 " fill="#000000"/>
<path class="legend" d="M 253.7 383.1 Q 253.7 381.1, 254.7 380.1 Q 255.7 379.0, 257.4 379.0 Q 259.2 379.0, 259.9 380.0 Q 260.7 381.1, 260.7 383.0 L 260.7 383.3 L 255.2 383.3 Q 255.2 384.6, 255.8 385.3 Q 256.4 386.0, 257.6 386.0 Q 258.2 386.0, 258.7 385.9 Q 259.3 385.7, 260.0 385.4 L 260.4 386.4 Q 259.6 386.8, 258.9 387.0 Q 258.2 387.2, 257.5 387.2 Q 255.7 387.2, 254.7 386.1 Q 253.7 385.0, 253.7 383.1 M 257.4 380.1 Q 256.5 380.1, 256.0 380.7 Q 255.4 381.2, 255.3 382.2 L 259.2 382.2 Q 259.1 381.1, 258.7 380.6 Q 258.2 380.1, 257.4 380.1 " fill="#000000"/>
<path class="legend" d="" fill="#000000"/>
<path class="legend" d="M 272.7 381.3 Q 273.8 381.6, 274.3 382.3 Q 274.8 383.0, 274.8 384.1 Q 274.8 385.0, 274.3 385.7 Q 273.9 386.4, 273.0 386.8 Q 272.2 387.2, 271.1 387.2 Q 269.9 387.2, 269.0 386.8 Q 268.2 386.4, 267.5 385.5 L 268.4 384.6 Q 269.0 385.4, 269.6 385.7 Q 270.2 386.0, 271.1 386.0 Q 272.1 386.0, 272.7 385.4 Q 273.3 384.9, 273.3 384.0 Q 273.3 382.9, 272.6 382.4 Q 272.0 381.9, 270.7 381.9 L 269.9 381.9 L 269.9 380.8 L 270.6 380.8 Q 271.8 380.8, 272.4 380.3 Q 273.0 379.8, 273.0 378.8 Q 273.0 378.1, 272.5 377.7 Q 272.0 377.3, 271.1 377.3 Q 270.2 377.3, 269.6 377.6 Q 269.1 377.9, 268.6 378.7 L 267.6 378.1 Q 268.0 377.2, 268.9 376.6 Q 269.8 376.0, 271.1 376.0 Q 272.7 376.0, 273.6 376.8 Q 274.6 377.5, 274.6 378.8 Q 274.6 379.7, 274.1 380.3 Q 273.6 380.9, 272.7 381.3 " fill="#000000"/>
<path class="legend" d="M 280.2 380.2 Q 281.1 380.2, 281.9 380.6 Q 282.7 381.0, 283.1 381.8 Q 283.6 382.6, 283.6 383.6 Q 283.6 384.7, 283.0 385.5 Q 282.5 386.3, 281.6 386.7 Q 280.7 387.2, 279.7 387.2 Q 278.7 387.2, 277.8 386.8 Q 276.9 386.4, 276.2 385.7 L 277.1 384.8 Q 277.7 385.3, 278.3 385.6 Q 279.0 385.9, 279.7 385.9 Q 280.7 385.9, 281.4 385.3 Q 282.1 384.7, 282.1 383.6 Q 282.1 382.5, 281.4 381.9 Q 280.7 381.4, 279.7 381.4 Q 278.7 381.4, 277.6 381.8 L 276.8 381.4 L 277.3 376.1 L 282.9 376.1 L 282.8 377.4 L 278.6 377.4 L 278.3 380.6 Q 279.2 380.2, 280.2 380.2 " fill="#000000"/>
<path class="legend" d="M 284.9 378.2 Q 285.3 377.2, 286.2 376.6 Q 287.2 376.0, 288.5 376.0 Q 290.2 376.0, 291.1 376.9 Q 292.0 377.8, 292.0 379.4 Q 292.0 381.0, 290.8 382.5 Q 289.6 384.0, 287.2 385.8 L 292.2 385.8 L 292.2 387.0 L 284.9 387.0 L 284.9 386.0 Q 286.9 384.6, 288.1 383.5 Q 289.3 382.4, 289.9 381.4 Q 290.5 380.5, 290.5 379.5 Q 290.5 378.4, 289.9 377.8 Q 289.4 377.3, 288.5 377.3 Q 287.6 377.3, 287.1 377.6 Q 286.5 378.0, 286.1 378.7 L 284.9 378.2 " fill="#000000"/>
<path class="legend" d="" fill="#000000"/>
<path class="legend" d="M 299.3 375.1 L 300.6 375.1 L 300.6 390.0 L 299.3 390.0 L 299.3 375.1 " fill="#000000"/>
<path class="legend" d="" fill="#000000"/>
<path class="legend" d="M 308.5 385.3 Q 308.6 385.4, 309.1 385.6 Q 309.6 385.8, 310.2 386.0 Q 310.7 386.1, 311.3 386.1 Q 312.3 386.1, 312.9 385.6 Q 313.5 385.1, 313.5 384.2 Q 313.5 383.6, 313.2 383.2 Q 312.9 382.9, 312.5 382.7 Q 312.0 382.5, 311.2 382.2 Q 310.3 381.9, 309.7 381.7 Q 309.1 381.4, 308.7 380.8 Q 308.3 380.2, 308.3 379.2 Q 308.3 377.9, 309.2 377.0 Q 310.1 376.2, 312.0 376.2 Q 313.3 376.2, 314.7 376.8 L 314.3 378.0 Q 313.0 377.4, 312.0 377.4 Q 311.0 377.4, 310.4 377.9 Q 309.8 378.3, 309.8 379.1 Q 309.8 379.6, 310.1 380.0 Q 310.4 380.3, 310.9 380.5 Q 311.3 380.7, 312.0 381.0 Q 313.0 381.3, 313.6 381.6 Q 314.2 381.9, 314.6 382.5 Q 315.0 383.1, 315.0 384.2 Q 315.0 385.7, 314.0 386.5 Q 313.0 387.3, 311.3 387.3 Q 310.4 387.3, 309.6 387.1 Q 308.9 386.9, 308.1 386.6 L 308.5 385.3 " fill="#000000"/>
<path class="legend" d="M 316.3 376.1 L 317.8 376.1 L 317.8 380.8 L 323.3 380.8 L 323.3 376.1 L 324.8 376.1 L 324.8 387.0 L 323.3 387.0 L 323.3 382.0 L 317.8 382.0 L 317.8 387.0 L 316.3 387.0 L 316.3 376.1 " fill="#000000"/>
<path class="legend" d="M 334.7 387.0 L 333.5 383.8 L 329.2 383.8 L 328.1 387.0 L 326.6 387.0 L 330.4 376.1 L 332.2 376.1 L 336.1 387.0 L 334.7 387.0 M 329.6 382.6 L 333.1 382.6 L 331.3 377.7 L 329.6 382.6 " fill="#000000"/>
<path class="legend" d="M 340.0 376.1 Q 341.9 376.1, 342.8 377.0 Q 343.7 377.8, 343.7 379.3 Q 343.7 380.9, 342.8 381.7 Q 341.8 382.6, 340.0 382.6 L 338.3 382.6 L 338.3 387.0 L 336.8 387.0 L 336.8 376.1 L 340.0 376.1 M 340.0 381.3 Q 341.1 381.3, 341.6 380.8 Q 342.2 380.3, 342.2 379.3 Q 342.2 378.4, 341.6 377.9 Q 341.1 377.4, 340.0 377.4 L 338.3 377.4 L 338.3 381.3 L 340.0 381.3 " fill="#000000"/>
<path class="legend" d="M 345.0 385.2 L 346.5 385.2 L 346.5 386.8 L 345.0 386.8 L 345.0 385.2 M 345.0 379.9 L 346.5 379.9 L 346.5 381.5 L 345.0 381.5 L 345.0 379.9 " fill="#000000"/>
<path class="legend" d="" fill="#000000"/>
<path class="legend" d="M 354.5 385.8 L 356.8 385.8 L 356.8 377.7 L 354.2 378.5 L 353.9 377.6 L 357.2 376.1 L 358.3 376.3 L 358.3 385.8 L 360.4 385.8 L 360.4 387.0 L 354.5 387.0 L 354.5 385.8 " fill="#000000"/>
<path class="legend" d="M 367.1 381.3 Q 368.1 381.7, 368.7 382.3 Q 369.3 383.0, 369.3 384.1 Q 369.3 385.0, 368.8 385.7 Q 368.3 386.4, 367.5 386.8 Q 366.6 387.2, 365.5 387.2 Q 363.7 387.2, 362.6 386.4 Q 361.6 385.5, 361.6 384.1 Q 361.6 383.2, 362.1 382.5 Q 362.5 381.8, 363.5 381.3 Q 362.8 380.9, 362.4 380.3 Q 362.0 379.7, 362.0 378.8 Q 362.0 377.5, 362.9 376.8 Q 363.9 376.0, 365.4 376.0 Q 367.0 376.0, 367.9 376.8 Q 368.9 377.5, 368.9 378.8 Q 368.9 379.6, 368.4 380.2 Q 368.0 380.8, 367.1 381.3 M 365.4 377.2 Q 364.5 377.2, 364.0 377.6 Q 363.5 378.0, 363.5 378.8 Q 363.5 379.4, 363.9 379.8 Q 364.2 380.1, 364.7 380.3 Q 365.2 380.6, 366.1 380.9 Q 366.8 380.4, 367.1 379.9 Q 367.3 379.4, 367.3 378.8 Q 367.3 378.0, 366.8 377.6 Q 366.3 377.2, 365.4 377.2 M 365.5 386.0 Q 366.5 386.0, 367.1 385.5 Q 367.7 384.9, 367.7 384.0 Q 367.7 383.5, 367.4 383.1 Q 367.1 382.7, 366.6 382.5 Q 366.1 382.3, 365.3 382.0 L 364.6 381.8 Q 363.8 382.2, 363.5 382.8 Q 363.1 383.3, 363.1 384.0 Q 363.1 384.9, 363.8 385.5 Q 364.4 386.0, 365.5 386.0 " fill="#000000"/>
<path class="legend" d="M 370.8 385.5 L 372.3 385.5 L 372.3 387.0 L 370.8 387.0 L 370.8 385.5 " fill="#000000"/>
<path class="legend" d="M 379.5 377.4 L 373.8 377.4 L 373.8 376.1 L 381.1 376.1 L 381.1 377.2 L 376.7 387.0 L 375.2 387.0 L 379.5 377.4 " fill="#000000"/>
<path class="legend" d="M 386.0 387.2 Q 384.0 387.2, 383.0 385.7 Q 382.0 384.2, 382.0 381.6 Q 382.0 378.9, 383.0 377.5 Q 384.0 376.0, 386.0 376.0 Q 388.0 376.0, 389.0 377.5 Q 390.0 378.9, 390.0 381.6 Q 390.0 384.2, 389.0 385.7 Q 388.0 387.2, 386.0 387.2 M 386.0 385.9 Q 387.2 385.9, 387.8 384.8 Q 388.5 383.7, 388.5 381.6 Q 388.5 379.4, 387.8 378.3 Q 387.2 377.3, 386.0 377.3 Q 384.8 377.3, 384.2 378.3 Q 383.6 379.4, 383.6 381.6 Q 383.6 383.7, 384.2 384.8 Q 384.8 385.9, 386.0 385.9 " fill="#000000"/>
<ellipse cx="525.6" cy="287.9" rx="7.6" ry="7.6" class="atom-2" style="fill:#E5E533;fill-rule:evenodd;stroke:#E5E533;stroke-width:1.0px;stroke-linecap:butt;stroke-linejoin:miter;stroke-opacity:1"/>
<ellipse cx="501.5" cy="258.4" rx="7.6" ry="7.6" class="atom-3" style="fill:#9999E5;fill-rule:evenodd;stroke:#9999E5;stroke-width:1.0px;stroke-linecap:butt;stroke-linejoin:miter;stroke-opacity:1"/>
<ellipse cx="463.8" cy="264.5" rx="7.6" ry="7.6" class="atom-4" style="fill:#E5E533;fill-rule:evenodd;stroke:#E5E533;stroke-width:1.0px;stroke-linecap:butt;stroke-linejoin:miter;stroke-opacity:1"/>
<ellipse cx="450.2" cy="300.2" rx="7.6" ry="7.6" class="atom-5" style="fill:#E5E533;fill-rule:evenodd;stroke:#E5E533;stroke-width:1.0px;stroke-linecap:butt;stroke-linejoin:miter;stroke-opacity:1"/>
<ellipse cx="512.1" cy="323.6" rx="7.6" ry="7.6" class="atom-8" style="fill:#E5E533;fill-rule:evenodd;stroke:#E5E533;stroke-width:1.0px;stroke-linecap:butt;stroke-linejoin:miter;stroke-opacity:1"/>
<path class="bond-0 atom-0 atom-1" d="M 583.6,306.7 L 563.3,281.8" style="fill:none;fill-rule:evenodd;stroke:#E5E5E5;stroke-width:2.0px;stroke-linecap:butt;stroke-linejoin:miter;stroke-opacity:1"/>
<path class="bond-1 atom-1 atom-2" d="M 563.3,281.8 L 525.6,287.9" style="fill:none;fill-rule:evenodd;stroke:#000000;stroke-width:2.0px;stroke-linecap:butt;stroke-linejoin:miter;stroke-opacity:1"/>
<path class="bond-2 atom-2 atom-3" d="M 525.6,287.9 L 501.5,258.4" style="fill:none;fill-rule:evenodd;stroke:#000000;stroke-width:2.0px;stroke-linecap:butt;stroke-linejoin:miter;stroke-opacity:1"/>
<path class="bond-2 atom-2 atom-3" d="M 519.1,289.0 L 499.1,264.5" style="fill:none;fill-rule:evenodd;stroke:#000000;stroke-width:2.0px;stroke-linecap:butt;stroke-linejoin:miter;stroke-opacity:1"/>
<path class="bond-3 atom-3 atom-4" d="M 501.5,258.4 L 463.8,264.5" style="fill:none;fill-rule:evenodd;stroke:#000000;stroke-width:2.0px;stroke-linecap:butt;stroke-linejoin:miter;stroke-opacity:1"/>
<path class="bond-4 atom-4 atom-5" d="M 463.8,264.5 L 450.2,300.2" style="fill:none;fill-rule:evenodd;stroke:#000000;stroke-width:2.0px;stroke-linecap:butt;stroke-linejoin:miter;stroke-opacity:1"/>
<path class="bond-4 atom-4 atom-5" d="M 468.0,269.6 L 456.8,299.1" style="fill:none;fill-rule:evenodd;stroke:#000000;stroke-width:2.0px;stroke-linecap:butt;stroke-linejoin:miter;stroke-opacity:1"/>
<path class="bond-5 atom-5 atom-6" d="M 450.2,300.2 L 416.4,305.7" style="fill:none;fill-rule:evenodd;stroke:#E5E5E5;stroke-width:2.0px;stroke-linecap:butt;stroke-linejoin:miter;stroke-opacity:1"/>
<path class="bond-6 atom-5 atom-7" d="M 450.2,300.2 L 470.6,325.1" style="fill:none;fill-rule:evenodd;stroke:#E5E5E5;stroke-width:2.0px;stroke-linecap:butt;stroke-linejoin:miter;stroke-opacity:1"/>
<path class="bond-7 atom-7 atom-8" d="M 478.2,329.1 L 512.1,323.6" style="fill:none;fill-rule:evenodd;stroke:#E5E5E5;stroke-width:2.0px;stroke-linecap:butt;stroke-linejoin:miter;stroke-opacity:1"/>
<path class="bond-7 atom-7 atom-8" d="M 477.3,323.5 L 507.9,318.5" style="fill:none;fill-rule:evenodd;stroke:#E5E5E5;stroke-width:2.0px;stroke-linecap:butt;stroke-linejoin:miter;stroke-opacity:1"/>
<path class="bond-8 atom-8 atom-2" d="M 512.1,323.6 L 525.6,287.9" style="fill:none;fill-rule:evenodd;stroke:#000000;stroke-width:2.0px;stroke-linecap:butt;stroke-linejoin:miter;stroke-opacity:1"/>
<path d="M 563.8,282.4 L 563.3,281.8 L 562.4,282.0" style="fill:none;stroke:#E5E5E5;stroke-width:2.0px;stroke-linecap:butt;stroke-linejoin:miter;stroke-miterlimit:10;stroke-opacity:1;"/>
<path d="M 502.7,259.8 L 501.5,258.4 L 499.6,258.7" style="fill:none;stroke:#000000;stroke-width:2.0px;stroke-linecap:butt;stroke-linejoin:miter;stroke-miterlimit:10;stroke-opacity:1;"/>
<path d="M 465.7,264.2 L 463.8,264.5 L 463.1,266.3" style="fill:none;stroke:#000000;stroke-width:2.0px;stroke-linecap:butt;stroke-linejoin:miter;stroke-miterlimit:10;stroke-opacity:1;"/>
<path d="M 511.2,323.8 L 512.1,323.6 L 512.4,322.7" style="fill:none;stroke:#E5E5E5;stroke-width:2.0px;stroke-linecap:butt;stroke-linejoin:miter;stroke-miterlimit:10;stroke-opacity:1;"/>
<path class="atom-0" d="M 585.4 310.2 L 587.0 308.6 L 584.9 308.2 L 585.2 307.1 L 587.1 308.0 L 586.9 305.9 L 588.0 305.9 L 587.7 308.0 L 589.7 307.1 L 590.0 308.2 L 587.9 308.5 L 589.4 310.2 L 588.5 310.9 L 587.4 308.8 L 586.3 310.9 L 585.4 310.2 " fill="#191919"/>
<path class="atom-6" d="M 410.5 305.1 L 412.1 303.5 L 410.0 303.0 L 410.3 302.0 L 412.3 302.9 L 412.0 300.8 L 413.1 300.8 L 412.8 302.9 L 414.8 302.0 L 415.1 303.0 L 413.0 303.4 L 414.5 305.1 L 413.6 305.7 L 412.5 303.7 L 411.5 305.7 L 410.5 305.1 " fill="#191919"/>
<path class="atom-7" d="M 472.3 328.5 L 473.9 326.9 L 471.8 326.5 L 472.1 325.4 L 474.1 326.4 L 473.8 324.3 L 475.0 324.3 L 474.6 326.4 L 476.6 325.5 L 476.9 326.5 L 474.8 326.9 L 476.3 328.5 L 475.4 329.2 L 474.3 327.2 L 473.3 329.2 L 472.3 328.5 " fill="#191919"/>
<path class="legend" d="M 410.0 376.1 L 416.5 376.1 L 416.5 377.4 L 411.5 377.4 L 411.5 380.7 L 415.9 380.7 L 415.9 381.9 L 411.5 381.9 L 411.5 387.0 L 410.0 387.0 L 410.0 376.1 " fill="#000000"/>
<path class="legend" d="M 417.4 383.0 Q 417.4 381.1, 418.3 380.0 Q 419.3 379.0, 421.1 379.0 Q 422.8 379.0, 423.6 380.0 Q 424.4 381.0, 424.4 383.0 L 424.4 383.2 L 418.8 383.2 Q 418.9 384.6, 419.5 385.3 Q 420.1 386.0, 421.2 386.0 Q 421.8 386.0, 422.4 385.9 Q 423.0 385.7, 423.6 385.4 L 424.1 386.4 Q 423.3 386.8, 422.6 387.0 Q 421.9 387.1, 421.1 387.1 Q 419.3 387.1, 418.3 386.1 Q 417.4 385.0, 417.4 383.0 M 421.1 380.1 Q 420.2 380.1, 419.6 380.6 Q 419.1 381.1, 418.9 382.2 L 422.8 382.2 Q 422.7 381.1, 422.3 380.6 Q 421.9 380.1, 421.1 380.1 " fill="#000000"/>
<path class="legend" d="M 425.5 384.9 Q 425.5 383.6, 426.5 382.9 Q 427.5 382.2, 429.4 382.2 L 430.6 382.2 L 430.6 381.9 Q 430.6 380.9, 430.1 380.5 Q 429.7 380.1, 428.7 380.1 Q 428.1 380.1, 427.6 380.2 Q 427.1 380.3, 426.4 380.7 L 425.9 379.7 Q 427.4 379.0, 428.8 379.0 Q 430.5 379.0, 431.2 379.7 Q 432.0 380.4, 432.0 382.0 L 432.0 387.0 L 430.9 387.0 Q 430.9 387.0, 430.8 386.7 Q 430.8 386.5, 430.7 386.1 Q 429.6 387.2, 428.1 387.2 Q 426.9 387.2, 426.2 386.6 Q 425.5 385.9, 425.5 384.9 M 426.9 384.8 Q 426.9 385.4, 427.3 385.8 Q 427.7 386.1, 428.4 386.1 Q 429.0 386.1, 429.6 385.8 Q 430.2 385.5, 430.6 385.0 L 430.6 383.3 L 429.5 383.3 Q 428.2 383.3, 427.6 383.7 Q 426.9 384.1, 426.9 384.8 " fill="#000000"/>
<path class="legend" d="M 433.7 380.2 L 433.7 379.1 L 435.2 379.1 L 435.5 376.8 L 436.6 376.8 L 436.6 379.1 L 439.0 379.1 L 439.0 380.2 L 436.6 380.2 L 436.6 384.6 Q 436.6 386.0, 437.7 386.0 Q 438.2 386.0, 438.8 385.7 L 439.1 386.8 Q 438.2 387.1, 437.4 387.1 Q 436.4 387.1, 435.7 386.5 Q 435.1 385.9, 435.1 384.7 L 435.1 380.2 L 433.7 380.2 " fill="#000000"/>
<path class="legend" d="M 446.7 379.1 L 446.7 387.0 L 445.6 387.0 L 445.4 385.9 Q 444.4 387.2, 442.7 387.2 Q 441.4 387.2, 440.7 386.5 Q 440.0 385.7, 440.0 384.3 L 440.0 379.1 L 441.5 379.1 L 441.5 384.2 Q 441.5 385.2, 441.8 385.6 Q 442.2 386.0, 443.0 386.0 Q 443.7 386.0, 444.3 385.7 Q 444.9 385.4, 445.3 384.8 L 445.3 379.1 L 446.7 379.1 " fill="#000000"/>
<path class="legend" d="M 449.7 379.1 L 449.9 380.2 Q 450.7 379.0, 452.1 379.0 Q 452.5 379.0, 453.1 379.1 L 452.8 380.4 Q 452.2 380.3, 451.8 380.3 Q 451.2 380.3, 450.7 380.5 Q 450.3 380.8, 450.0 381.4 L 450.0 387.0 L 448.5 387.0 L 448.5 379.1 L 449.7 379.1 " fill="#000000"/>
<path class="legend" d="M 453.8 383.0 Q 453.8 381.1, 454.8 380.0 Q 455.8 379.0, 457.6 379.0 Q 459.3 379.0, 460.1 380.0 Q 460.9 381.0, 460.9 383.0 L 460.9 383.2 L 455.3 383.2 Q 455.3 384.6, 455.9 385.3 Q 456.5 386.0, 457.7 386.0 Q 458.3 386.0, 458.9 385.9 Q 459.4 385.7, 460.1 385.4 L 460.5 386.4 Q 459.8 386.8, 459.0 387.0 Q 458.3 387.1, 457.6 387.1 Q 455.8 387.1, 454.8 386.1 Q 453.8 385.0, 453.8 383.0 M 457.6 380.1 Q 456.6 380.1, 456.1 380.6 Q 455.5 381.1, 455.4 382.2 L 459.3 382.2 Q 459.2 381.1, 458.8 380.6 Q 458.4 380.1, 457.6 380.1 " fill="#000000"/>
<path class="legend" d="" fill="#000000"/>
<path class="legend" d="M 472.9 381.3 Q 473.9 381.6, 474.4 382.3 Q 475.0 383.0, 475.0 384.0 Q 475.0 385.0, 474.5 385.7 Q 474.0 386.4, 473.2 386.8 Q 472.3 387.2, 471.2 387.2 Q 470.1 387.2, 469.2 386.8 Q 468.3 386.4, 467.6 385.5 L 468.5 384.6 Q 469.2 385.4, 469.8 385.7 Q 470.3 385.9, 471.2 385.9 Q 472.2 385.9, 472.8 385.4 Q 473.4 384.9, 473.4 384.0 Q 473.4 382.9, 472.8 382.4 Q 472.2 381.9, 470.8 381.9 L 470.0 381.9 L 470.0 380.8 L 470.7 380.8 Q 471.9 380.8, 472.6 380.3 Q 473.2 379.7, 473.2 378.8 Q 473.2 378.1, 472.7 377.6 Q 472.1 377.2, 471.2 377.2 Q 470.3 377.2, 469.8 377.5 Q 469.2 377.9, 468.8 378.7 L 467.7 378.1 Q 468.1 377.2, 469.0 376.6 Q 470.0 376.0, 471.2 376.0 Q 472.9 376.0, 473.8 376.7 Q 474.7 377.5, 474.7 378.8 Q 474.7 379.7, 474.3 380.3 Q 473.8 380.9, 472.9 381.3 " fill="#000000"/>
<path class="legend" d="M 477.0 385.8 L 479.4 385.8 L 479.4 377.6 L 476.8 378.5 L 476.4 377.5 L 479.7 376.0 L 480.8 376.2 L 480.8 385.8 L 483.0 385.8 L 483.0 387.0 L 477.0 387.0 L 477.0 385.8 " fill="#000000"/>
<path class="legend" d="M 488.1 387.1 Q 486.1 387.1, 485.1 385.7 Q 484.2 384.2, 484.2 381.5 Q 484.2 378.9, 485.1 377.4 Q 486.1 376.0, 488.1 376.0 Q 490.2 376.0, 491.2 377.4 Q 492.1 378.9, 492.1 381.5 Q 492.1 384.2, 491.1 385.7 Q 490.2 387.1, 488.1 387.1 M 488.1 385.9 Q 489.3 385.9, 490.0 384.8 Q 490.6 383.7, 490.6 381.5 Q 490.6 379.4, 490.0 378.3 Q 489.3 377.2, 488.1 377.2 Q 487.0 377.2, 486.3 378.3 Q 485.7 379.4, 485.7 381.5 Q 485.7 383.7, 486.3 384.8 Q 487.0 385.9, 488.1 385.9 " fill="#000000"/>
<path class="legend" d="" fill="#000000"/>
<path class="legend" d="M 499.3 375.1 L 500.6 375.1 L 500.6 390.0 L 499.3 390.0 L 499.3 375.1 " fill="#000000"/>
<path class="legend" d="" fill="#000000"/>
<path class="legend" d="M 508.5 385.3 Q 508.7 385.4, 509.2 385.6 Q 509.7 385.8, 510.2 385.9 Q 510.8 386.1, 511.4 386.1 Q 512.4 386.1, 513.0 385.6 Q 513.6 385.1, 513.6 384.2 Q 513.6 383.6, 513.3 383.2 Q 513.0 382.8, 512.5 382.6 Q 512.1 382.4, 511.3 382.2 Q 510.3 381.9, 509.7 381.6 Q 509.2 381.4, 508.8 380.8 Q 508.4 380.2, 508.4 379.2 Q 508.4 377.8, 509.3 377.0 Q 510.2 376.1, 512.1 376.1 Q 513.3 376.1, 514.8 376.7 L 514.4 377.9 Q 513.1 377.4, 512.1 377.4 Q 511.1 377.4, 510.5 377.8 Q 509.9 378.3, 509.9 379.0 Q 509.9 379.6, 510.2 380.0 Q 510.5 380.3, 510.9 380.5 Q 511.4 380.7, 512.1 380.9 Q 513.1 381.3, 513.7 381.6 Q 514.3 381.9, 514.7 382.5 Q 515.1 383.1, 515.1 384.2 Q 515.1 385.7, 514.1 386.5 Q 513.1 387.3, 511.4 387.3 Q 510.5 387.3, 509.7 387.1 Q 509.0 386.9, 508.1 386.5 L 508.5 385.3 " fill="#000000"/>
<path class="legend" d="M 516.4 376.1 L 517.9 376.1 L 517.9 380.7 L 523.4 380.7 L 523.4 376.1 L 524.9 376.1 L 524.9 387.0 L 523.4 387.0 L 523.4 382.0 L 517.9 382.0 L 517.9 387.0 L 516.4 387.0 L 516.4 376.1 " fill="#000000"/>
<path class="legend" d="M 534.8 387.0 L 533.7 383.8 L 529.3 383.8 L 528.2 387.0 L 526.7 387.0 L 530.5 376.1 L 532.3 376.1 L 536.2 387.0 L 534.8 387.0 M 529.8 382.6 L 533.2 382.6 L 531.5 377.6 L 529.8 382.6 " fill="#000000"/>
<path class="legend" d="M 540.2 376.1 Q 542.0 376.1, 543.0 377.0 Q 543.9 377.8, 543.9 379.3 Q 543.9 380.8, 542.9 381.7 Q 542.0 382.5, 540.2 382.5 L 538.4 382.5 L 538.4 387.0 L 536.9 387.0 L 536.9 376.1 L 540.2 376.1 M 540.2 381.3 Q 541.2 381.3, 541.8 380.8 Q 542.4 380.3, 542.4 379.3 Q 542.4 378.3, 541.8 377.8 Q 541.2 377.3, 540.2 377.3 L 538.4 377.3 L 538.4 381.3 L 540.2 381.3 " fill="#000000"/>
<path class="legend" d="M 545.2 385.2 L 546.7 385.2 L 546.7 386.8 L 545.2 386.8 L 545.2 385.2 M 545.2 379.9 L 546.7 379.9 L 546.7 381.5 L 545.2 381.5 L 545.2 379.9 " fill="#000000"/>
<path class="legend" d="" fill="#000000"/>
<path class="legend" d="M 554.6 385.8 L 557.0 385.8 L 557.0 377.6 L 554.4 378.5 L 554.0 377.5 L 557.4 376.0 L 558.5 376.2 L 558.5 385.8 L 560.6 385.8 L 560.6 387.0 L 554.6 387.0 L 554.6 385.8 " fill="#000000"/>
<path class="legend" d="M 566.1 380.2 Q 567.0 380.2, 567.8 380.6 Q 568.5 381.0, 569.0 381.8 Q 569.4 382.6, 569.4 383.5 Q 569.4 384.6, 568.9 385.4 Q 568.4 386.2, 567.6 386.7 Q 566.8 387.1, 565.7 387.1 Q 563.8 387.1, 562.8 385.8 Q 561.8 384.5, 561.8 381.9 Q 561.8 379.0, 563.0 377.5 Q 564.2 376.0, 566.5 376.0 Q 567.2 376.0, 567.8 376.1 Q 568.4 376.3, 568.9 376.6 L 568.3 377.6 Q 567.5 377.2, 566.6 377.2 Q 565.0 377.2, 564.2 378.2 Q 563.4 379.2, 563.4 381.3 Q 563.9 380.7, 564.6 380.5 Q 565.3 380.2, 566.1 380.2 M 565.7 385.9 Q 566.3 385.9, 566.8 385.6 Q 567.3 385.3, 567.6 384.7 Q 567.8 384.2, 567.8 383.5 Q 567.8 382.6, 567.3 382.0 Q 566.7 381.4, 565.8 381.4 Q 565.1 381.4, 564.5 381.7 Q 563.8 382.0, 563.4 382.4 Q 563.4 384.2, 564.0 385.1 Q 564.6 385.9, 565.7 385.9 " fill="#000000"/>
<path class="legend" d="M 570.7 385.5 L 572.3 385.5 L 572.3 387.0 L 570.7 387.0 L 570.7 385.5 " fill="#000000"/>
<path class="legend" d="M 573.8 378.2 Q 574.2 377.1, 575.2 376.6 Q 576.2 376.0, 577.5 376.0 Q 579.1 376.0, 580.1 376.9 Q 581.0 377.8, 581.0 379.4 Q 581.0 381.0, 579.8 382.5 Q 578.6 384.0, 576.1 385.8 L 581.2 385.8 L 581.2 387.0 L 573.8 387.0 L 573.8 386.0 Q 575.8 384.5, 577.0 383.5 Q 578.3 382.4, 578.9 381.4 Q 579.4 380.4, 579.4 379.4 Q 579.4 378.4, 578.9 377.8 Q 578.4 377.2, 577.5 377.2 Q 576.6 377.2, 576.0 377.6 Q 575.4 377.9, 575.0 378.7 L 573.8 378.2 " fill="#000000"/>
<path class="legend" d="M 586.6 380.2 Q 587.5 380.2, 588.3 380.6 Q 589.1 381.0, 589.6 381.8 Q 590.0 382.5, 590.0 383.6 Q 590.0 384.7, 589.4 385.5 Q 588.9 386.3, 588.0 386.7 Q 587.1 387.1, 586.1 387.1 Q 585.1 387.1, 584.2 386.8 Q 583.2 386.4, 582.6 385.7 L 583.5 384.7 Q 584.0 385.3, 584.7 385.6 Q 585.4 385.9, 586.1 385.9 Q 587.1 385.9, 587.8 385.3 Q 588.5 384.7, 588.5 383.6 Q 588.5 382.4, 587.8 381.9 Q 587.1 381.3, 586.1 381.3 Q 585.1 381.3, 584.0 381.8 L 583.2 381.4 L 583.7 376.1 L 589.3 376.1 L 589.2 377.3 L 585.0 377.3 L 584.6 380.6 Q 585.6 380.2, 586.6 380.2 " fill="#000000"/>
</svg>